<?xml version="1.0" encoding="utf-8"?>
<!-- Generator: Adobe Illustrator 16.2.1, SVG Export Plug-In . SVG Version: 6.00 Build 0)  -->
<!DOCTYPE svg PUBLIC "-//W3C//DTD SVG 1.1//EN" "http://www.w3.org/Graphics/SVG/1.1/DTD/svg11.dtd">
<svg version="1.1" id="Layer_1" xmlns="http://www.w3.org/2000/svg" xmlns:xlink="http://www.w3.org/1999/xlink" x="0px" y="0px"
	 width="612px" height="612px" viewBox="0 0 612 612" enable-background="new 0 0 612 612" xml:space="preserve">
<g>
	<path fill="#8DD4F0" d="M209.002,569.338c-20.766-3.035-51.416,9.243-39.116,23.869c-8.922-12.534,20.643-16.092,41.275-8.73
		c11.24,4.008,27.222,10.393,17.831,15.606C241.679,594.711,240.519,573.949,209.002,569.338z"/>
	<path fill="#6786C4" d="M212.132,580.436c-21.483-5.312-51.167,0.237-42.245,12.771c12.301,14.623,46.419,12.243,59.106,6.876
		C238.384,594.869,233.391,585.691,212.132,580.436z"/>
</g>
<path fill="#8DD4F0" d="M256.817,141.378c-83.022,102.977-34.761,179.881-27.521,198.71c7.239,18.822,11.104,17.86-20.271,43.921
	c-32.857,27.302-43.762,72.1-37.122,110.619c3.277,19.039,10.819,36.546,22.157,49.643c25.87,29.876,69.063,42.134,107.169,25.59
	c4.982-11.14,22.366-24.739,37.933-29.375c11.32-13.897,18.689-29.677,22.493-45.857c9.42-40.03-3.039-82.496-31.956-104.825
	c-33.467-25.838-60.818-16.895-74.817-30.893c-22.727-22.723,16.695-244.059,201.742-354.307l2.928-2.246
	C459.551,2.358,339.843,38.398,256.817,141.378z"/>
<g>
	<path fill="none" d="M307.656,309.352c-0.826,0.303-1.611,0.599-2.419,0.901c1.564-0.52,3.126-1.081,4.683-1.72
		C309.167,308.804,308.414,309.082,307.656,309.352z"/>
	<path fill="#6786C4" d="M411.162,147.251c-3.442-72.287-53.73-88.855-116.167,42.367c-54.845,115.28-24.036,132.081,10.242,120.634
		c0.808-0.303,1.593-0.599,2.419-0.901c0.758-0.27,1.511-0.548,2.264-0.818c0.04-0.018,0.076-0.032,0.115-0.043
		c0.091-0.04,0.181-0.062,0.271-0.098c53.482-19.413,105.399-40.832,100.977-155.431
		C411.207,151.008,411.199,149.162,411.162,147.251z"/>
	<path fill="#5273B8" d="M419.527,69.763c11.092-40.276,32.842-61.409,40.023-67.405l-2.928,2.246
		C271.576,114.852,232.154,336.188,254.881,358.911c-6.128-7.099-1.442-22.261,19.746-34.671
		c7.859-4.606,17.939-9.286,30.611-13.987c-34.277,11.446-61.575-13.729-8.801-120.634
		c57.186-115.84,111.283-114.654,114.726-42.367C410.428,115.403,413.982,89.872,419.527,69.763z"/>
	<path fill="#A09F9F" d="M309.92,308.533c0.131-0.05,0.256-0.094,0.386-0.141c-0.09,0.036-0.18,0.058-0.271,0.098
		C309.996,308.501,309.96,308.516,309.92,308.533z"/>
</g>
<g>
	<path fill="#6786C4" d="M301.21,569.861c4.986-11.14,22.37-24.739,37.938-29.375c11.32-13.897,18.692-29.677,22.491-45.857
		c9.421-40.03-3.038-82.496-31.959-104.825c-33.462-25.838-60.818-16.895-74.817-30.893c-0.234-0.234-0.45-0.523-0.667-0.8
		c10.065,15.004,28.077,14.855,47.216,29.966c22.932,18.101,34.396,48.823,32.341,85.47
		c-4.29,76.641-105.277,112.537-142.042,67.801c0.779,0.981,1.524,1.987,2.329,2.924
		C219.915,574.147,263.108,586.405,301.21,569.861z"/>
</g>
<path fill="#6B79BB" d="M277.42,508.113c5.296-0.011,9.604-4.806,9.604-10.705c0.004-5.891-4.297-10.649-9.589-10.628
	c-5.296,0.015-9.586,4.806-9.586,10.696C267.845,503.376,272.128,508.135,277.42,508.113z"/>
<path fill="#6B79BB" d="M205.953,504.14c-4.517,1.565-6.785,6.9-5.062,11.929c1.713,5.023,6.778,7.827,11.306,6.263
	c4.506-1.564,6.782-6.903,5.059-11.926C215.535,505.376,210.47,502.579,205.953,504.14z"/>
<path fill="#FFFFFF" d="M281.52,494.128c-0.007,2.062-1.676,3.753-3.746,3.757c-2.065,0.007-3.75-1.673-3.746-3.735
	c0-2.068,1.68-3.752,3.75-3.756C279.847,490.383,281.52,492.059,281.52,494.128z"/>
<path fill="#FFFFFF" d="M212.824,511.295c-0.003,2.07-1.687,3.75-3.757,3.754c-2.062,0.011-3.746-1.658-3.746-3.729
	c0.007-2.068,1.684-3.752,3.753-3.76C211.147,507.55,212.824,509.227,212.824,511.295z"/>
<path fill="#8DD4F0" d="M302.588,555.901c18.267-23.418,44.166-32.435,56.03-21.389c11.857,11.054-5.166,39.434-33.062,44.88
	C297.659,584.844,287.406,575.376,302.588,555.901z"/>
<path fill="#6786C4" d="M303.125,559.41c16.721-20.16,35.564-24.703,46.319-15.279c10.751,9.42-0.094,31.221-25.521,36.012
	C298.518,584.938,289.209,576.181,303.125,559.41z"/>
</svg>
