<?xml version="1.0" encoding="utf-8"?>
<!-- Generator: Adobe Illustrator 16.2.1, SVG Export Plug-In . SVG Version: 6.00 Build 0)  -->
<!DOCTYPE svg PUBLIC "-//W3C//DTD SVG 1.1//EN" "http://www.w3.org/Graphics/SVG/1.1/DTD/svg11.dtd">
<svg version="1.1" id="Layer_1" xmlns="http://www.w3.org/2000/svg" xmlns:xlink="http://www.w3.org/1999/xlink" x="0px" y="0px"
	 width="612px" height="612px" viewBox="0 0 612 612" enable-background="new 0 0 612 612" xml:space="preserve">
<path fill="#6786C4" d="M352.207,203.643c-69.151-32.99-69.943-86.04-69.943-86.04c-0.048,2.886-0.273,5.683-0.627,8.427
	c0.763,12.294-40.92,124.406,1.419,150.449c56.153,34.557,45.978-10.249,39.585,49.548c-6.884,64.468,26.231,115.643-50.82,111.249
	c-73.847-4.217-128.954-58.614-128.073-128.534c-3.536,12.081-5.588,25.31-5.588,40.058c0,93.426,77.59,159.934,173.398,155.185
	c94.373-4.677,148.06-73.438,148.06-152.813C459.618,277.537,425.06,238.39,352.207,203.643z"/>
<path fill="#8DD4F0" d="M393.589,246.533c-44.072-50.158-94.703-44.227-111.325-128.93
	c-8.954,70.683-113.195,104.744-138.516,191.138c-2.483,7.553-3.879,15.222-4.37,22.885l-0.249,0.102
	c-9.988,113.259,112.727,172.499,207.281,130.675C426.497,426.986,458.967,320.959,393.589,246.533z"/>
<path fill="#6B79BB" d="M243.283,410.097c0.438,7.499-5.517,13.933-13.264,14.376c-7.747,0.432-14.382-5.281-14.808-12.779
	c-0.426-7.491,5.506-13.932,13.264-14.363C236.233,396.886,242.869,402.6,243.283,410.097z"/>
<path fill="#FFFFFF" d="M236.257,407.241c0.178,2.921-2.158,5.429-5.168,5.601c-3.016,0.177-5.612-2.06-5.766-4.98
	c-0.177-2.92,2.146-5.422,5.151-5.594C233.507,402.096,236.104,404.319,236.257,407.241z"/>
<path fill="#6B79BB" d="M346.394,395.686c0.427,7.5-5.522,13.928-13.275,14.377c-7.751,0.431-14.381-5.287-14.812-12.785
	c-0.426-7.492,5.518-13.926,13.275-14.357C339.334,382.47,345.963,388.188,346.394,395.686z"/>
<path fill="#FFFFFF" d="M339.363,392.831c0.153,2.921-2.152,5.428-5.175,5.599c-3.021,0.178-5.604-2.063-5.759-4.984
	c-0.178-2.922,2.146-5.417,5.156-5.588C336.603,387.686,339.186,389.908,339.363,392.831z"/>
</svg>
