<?xml version="1.0" encoding="utf-8"?>
<!-- Generator: Adobe Illustrator 16.2.1, SVG Export Plug-In . SVG Version: 6.00 Build 0)  -->
<!DOCTYPE svg PUBLIC "-//W3C//DTD SVG 1.1//EN" "http://www.w3.org/Graphics/SVG/1.1/DTD/svg11.dtd">
<svg version="1.1" id="Layer_1" xmlns="http://www.w3.org/2000/svg" xmlns:xlink="http://www.w3.org/1999/xlink" x="0px" y="0px"
	 width="612px" height="612px" viewBox="0 0 612 612" enable-background="new 0 0 612 612" xml:space="preserve">
<g>
	<path fill="#8DD4F0" d="M184.487,462.498c0.711,4.857,29.934,6.495,39.669-28.649c3.671-13.272,9.657-10.817,15.724-2.582
		c2.922-5.869,5.069-11.027,6.459-15.583c-12.862-3.011-22.855-8.211-29.191-12.261c-5.462,10.507-16.124,24.879-36.199,34.756
		c-6.866,3.378-10.347,7.917-11.458,12.095C168.424,462.474,183.2,453.697,184.487,462.498z"/>
	<path fill="#AED9F1" d="M260.677,474.64C261.359,474.894,264.108,474.264,260.677,474.64L260.677,474.64z"/>
	<path fill="#6786C4" d="M171.105,459.116c2.175,2.501,5.61,1.016,7.817,2.753c2.59,2.026-0.845,5.093,2.59,6.989
		c13.304,7.365,39.17-3.905,50.278-22.788c3.19-5.423,5.861-10.314,8.09-14.804c-6.066-8.235-9.367-20.047-13.042-6.775
		c-9.731,35.149-41.639,42.864-42.35,38.007c-1.288-8.801-16.063-0.024-14.995-12.225
		C168.561,453.771,169.28,457.019,171.105,459.116z"/>
</g>
<path fill="#8DD4F0" d="M217.697,557.058c-0.294,0.393-0.591,0.788-0.881,1.188c-0.121,0.166-0.241,0.326-0.361,0.496
	c-0.212,0.293-0.414,0.587-0.623,0.88c-0.372,0.542-0.732,1.062-1.083,1.536c-4.404,6.438-7.885,13.046-8.504,18.454
	c-0.318,2.791,4.355,2.409,5.83,4.376c1.486,1.981-0.226,6.308,3.594,7.086c18.162,3.682,32.98-13.888,42.977-31.41
	C269.474,539.331,232.78,538.252,217.697,557.058z"/>
<path fill="#8DD4F0" d="M260.574,516.377l-39.064-36.956c0,0-22.056,18.586-5.826,39.577
	C228.762,534.885,253.556,523.053,260.574,516.377z"/>
<path fill="#AED9F1" d="M215.833,559.622c0.208-0.293,0.41-0.587,0.623-0.88c-0.092,0.134-0.202,0.265-0.29,0.399
	C216.052,559.312,215.946,559.453,215.833,559.622z"/>
<path fill="#AED9F1" d="M217.697,557.058c-0.308,0.386-0.591,0.788-0.881,1.188C217.106,557.846,217.403,557.45,217.697,557.058z"/>
<path fill="#AED9F1" d="M214.75,561.158c0.35-0.475,0.711-0.994,1.083-1.536C215.472,560.132,215.104,560.645,214.75,561.158z"/>
<path fill="#AED9F1" d="M216.816,558.246c-0.121,0.166-0.241,0.329-0.361,0.496C216.575,558.572,216.695,558.412,216.816,558.246z"
	/>
<path fill="#6786C4" d="M272.792,527.935l-13.35-17.833c-7.019,6.675-30.681,24.783-43.759,8.896
	c4.174,5.395,10.835,10.952,21.108,16.393c0,0-10.407,10.057-19.095,21.667c7.945-9.908,21.886-14.288,31.716-13.247
	c14.062,2.341-2.402,38.346-22.579,46.909c25.593-7.251,39.853-45.311,44.879-59.676l0,0
	C272.417,529.091,272.792,527.935,272.792,527.935z"/>
<path fill="#8DD4F0" d="M337.736,389.352c0,0,6.42,31.022,41.469,48.265c9.399,4.623,12.693,10.924,10.782,16.413
	c-1.836,5.275-9.568,4.652-11.546,6.679c-3.147,3.233-0.251,5.812-5.741,7.106c-13.279,3.124-31.341-1.295-44.331-22.307
	c-29.693-48.028-11.685-60.505-11.685-60.505"/>
<g>
	<g>
		<path fill="#6786C4" d="M356.523,421.337c-15.33-15.587-18.784-31.985-18.784-31.985l-21.051-4.349c0,0-6.046,4.221-5.342,17.122
			l17.256,17.078C328.603,419.203,339.88,422.31,356.523,421.337z"/>
	</g>
</g>
<path fill="#6786C4" d="M340.92,415.684c0,0,19.916,26.875,22.24,52.995c0,0-15.367-0.867-24.373-9.87
	c-9.197-9.204-11.525-21.044-11.525-21.044l-9.47-15.2"/>
<path fill="#6786C4" d="M294.558,462.757l4.447,58.165c0,0,44.979,27.179,109.396-14.325
	C408.4,506.597,338.779,521.553,294.558,462.757z"/>
<g>
	<g>
		<path fill="#AED9F1" d="M345.727,559.619c-0.208-0.294-0.409-0.588-0.622-0.881c0.096,0.138,0.198,0.262,0.29,0.399
			C345.512,559.308,345.618,559.453,345.727,559.619z"/>
		<path fill="#AED9F1" d="M343.863,557.055c0.307,0.386,0.59,0.789,0.881,1.188C344.453,557.844,344.156,557.45,343.863,557.055z"/>
		<path fill="#8DD4F0" d="M343.863,557.055c0.293,0.396,0.59,0.789,0.881,1.188c0.12,0.166,0.244,0.326,0.36,0.496
			c0.213,0.293,0.414,0.587,0.622,0.881c0.372,0.545,0.733,1.061,1.083,1.535c2.405,3.513,4.542,7.075,6.078,10.475
			c3.728,8.256-2.668,6.435-2.905,9.516c-0.332,4.326,2.321,8.624-4.092,9.922c-18.158,3.686-32.98-13.884-42.974-31.405
			C292.085,539.328,328.783,538.25,343.863,557.055z"/>
		<path fill="#8DD4F0" d="M300.986,516.373l39.067-36.959c0,0,22.054,18.593,5.822,39.581
			C332.798,534.882,308.012,523.048,300.986,516.373z"/>
		<path fill="#AED9F1" d="M346.81,561.154c-0.35-0.475-0.711-0.99-1.083-1.535C346.088,560.132,346.456,560.641,346.81,561.154z"/>
		<path fill="#6786C4" d="M300.986,516.373c7.026,6.675,31.812,18.509,44.889,2.622c-4.173,5.395-10.834,10.948-21.106,16.392
			c0,0,10.406,10.058,19.095,21.668c-15.08-18.805-51.778-17.727-40.946,2.606c-9.049-15.88-14.149-31.727-14.149-31.727
			L300.986,516.373z"/>
		<path fill="#AED9F1" d="M344.744,558.242c0.12,0.166,0.244,0.33,0.36,0.496C344.988,558.568,344.864,558.408,344.744,558.242z"/>
	</g>
	<path fill="#6786C4" d="M334.726,590.717c-25.589-7.252-39.849-45.312-44.875-59.673l12.968,4.438c0,0,27.549,8.197,10.853,8.197
		C296.974,543.68,313.869,581.862,334.726,590.717"/>
</g>
<path fill="#6786C4" d="M243.474,385.565l-21.051,4.349c0,0-1.196,5.677-5.274,13.509c6.335,4.05,16.329,9.25,29.191,12.261
	C253.393,392.464,243.474,385.565,243.474,385.565z"/>
<path fill="#8DD4F0" d="M327.63,213.115c0,0-15.098-143.659-180.045-197.333c0,0,175.977,128.586,123.46,281.655"/>
<g>
	<path fill="#A09F9F" d="M302.826,250.436l19.417,21.097c-8.422-10.803-15.293-21.663-16.665-24.818
		C303.749,249.031,302.826,250.436,302.826,250.436z"/>
	<path fill="#A09F9F" d="M339.686,290.49l-17.443-18.957C327.765,278.608,333.943,285.658,339.686,290.49z"/>
</g>
<path fill="#8DD4F0" d="M278.495,261.596l62.033,4.57c40.03-84.159,95.068-84.931,95.068-84.931
	C331.113,152.498,278.495,261.596,278.495,261.596z"/>
<g>
	<path fill="#A09F9F" d="M292.439,356.339c-6.986-0.353-14.949-0.594-24.093-0.671c-1.093,1.096-2.243,2.285-3.428,3.519
		c10.124-0.314,20.11-0.547,29.64-0.66C293.84,357.775,293.119,357.032,292.439,356.339z"/>
	<path fill="#6786C4" d="M264.918,359.187c-9.852,10.302-22.71,25.34-33.029,42.814c15.505,4.276,49.906,11.511,101.995,10.364
		c-11.072-22.247-27.515-41.579-39.326-53.839"/>
</g>
<path fill="#8DD4F0" d="M385.517,269.916c-37.6-64.735-72.978-25.759-72.978-25.759l12.54-29.828
	c-13.888-5.784-29-9.148-45.021-9.148c-26.548,0-48.75,7.856-68.803,22.102c-61.173,43.447-86.682,135.296-27.822,155.987
	c18.101,6.363,48.169,12.787,96.625,12.787c13.435,0,25.937-0.332,37.804-1.263C424.357,386.429,413.943,318.856,385.517,269.916z"
	/>
<circle fill="#5273B8" cx="337.734" cy="334.722" r="10.183"/>
<path fill="#FFFFFF" d="M342.854,332.522c0,2.257-1.825,4.078-4.075,4.078c-2.253,0-4.078-1.821-4.078-4.078
	c0-2.25,1.825-4.075,4.078-4.075C341.029,328.447,342.854,330.272,342.854,332.522z"/>
<circle fill="#5273B8" cx="222.405" cy="334.722" r="10.181"/>
<path fill="#6786C4" d="M246.583,360.221c0,0,11.37,14.839,31.579,3.477c0,0,13.892,10.1,30.941-3.477c0,0-3,22.101-30.351,11.801
	C278.753,372.021,257.638,378.852,246.583,360.221z"/>
<path fill="#FFFFFF" d="M228.037,332.522c0,2.257-1.829,4.078-4.079,4.078c-2.247,0-4.079-1.821-4.079-4.078
	c0-2.25,1.833-4.075,4.079-4.075C226.208,328.447,228.037,330.272,228.037,332.522z"/>
<path fill="#8DD4F0" d="M307.711,412.231c-37.568-1.218-63.083-6.721-75.822-10.23c-1.33,2.246-2.621,4.518-3.852,6.841
	c-8.073,15.229-13.817,31.943-13.817,48.775c0,42.109,18.309,62.255,40.839,69.928C304.269,541.005,325.444,483.345,307.711,412.231
	z"/>
<g>
	<g>
		<path fill="#6786C4" d="M345.891,457.617c0-12.548-3.191-25.046-8.154-36.903c-1.185-2.822-2.486-5.604-3.853-8.349
			c-9.299,0.209-18.068-0.134-26.173-0.134c6.986,28.013,7.905,53.911,3.487,74.223c-13.375,43.687-60.303,41.54-78.641,27.008
			c18.925,19.92,45.958,21.724,67.25,15.633c8.575-2.162,16.708-5.947,23.694-11.829c0.06-0.051,0.116-0.104,0.177-0.156
			c0.527-0.445,1.058-0.896,1.573-1.369c0.035-0.031,0.075-0.066,0.114-0.1l0.003-0.014
			C337.623,504.282,345.891,485.909,345.891,457.617z"/>
	</g>
</g>
<path fill="#F1DDEC" d="M357.779,354.036c0.248,1.667-3.784,3.634-9.003,4.404c-5.225,0.771-9.649,0.042-9.897-1.623
	c-0.248-1.663,3.785-3.63,9.007-4.4C353.106,351.648,357.536,352.366,357.779,354.036z"/>
<path fill="#F1DDEC" d="M221.715,356.46c-0.18,1.677-4.577,2.567-9.823,1.995c-5.246-0.57-9.346-2.389-9.166-4.061
	c0.184-1.677,4.578-2.562,9.827-1.992C217.799,352.973,221.896,354.786,221.715,356.46z"/>
<path fill="#6786C4" d="M355.353,460.963c0,0,16.173,6.841,17.999,0.435c2.61-9.157,15.448-1.4,17.118-9.622
	c0,0,0.703,6.227-7.648,7.766c-8.345,1.539-1.691,8.037-13.287,9.176c-11.589,1.14-19.428-2.957-19.428-2.957l1.729-2.606"/>
<path fill="#5273B8" d="M326.311,243.689c0,0,9.94-3.382,20.266-1.401c18.02-62.029,89.02-61.053,89.02-61.053
	S358.193,167.422,326.311,243.689z"/>
<path fill="#5273B8" d="M180.579,179.029"/>
<g>
	<path fill="#6786C4" d="M300.296,243.689c10.06-162.23-152.711-227.907-152.711-227.907s108.193,131.508,32.994,163.246
		C180.579,179.029,267.005,161.95,300.296,243.689z"/>
	<path fill="#5273B8" d="M227.287,217.541c0.552-0.258,1.352-0.559,1.899-0.803c0.05-0.021,0.1-0.032,0.148-0.053
		c39.106-12.459,60.756,11.702,68.078,22.332c0.962,1.5,1.921,3.056,2.883,4.673c-32.983-83.643-119.717-64.661-119.717-64.661
		S213.236,190.094,227.287,217.541z"/>
</g>
<g>
	<path fill="#5273B8" d="M383.373,195.305l-0.665-1.019c-15.073,8.225-29.262,21.628-36.132,43.454
		c10.387-0.541,21.837,3.456,26.651,21.388c0,0-3.304-15.335,3.838-32.987C362.204,230.053,353.233,215.344,383.373,195.305z"/>
	<path fill="#6786C4" d="M435.596,181.236c0,0-27.677-0.714-52.888,13.05l0,0c-30.143,20.04-21.299,37.26-5.643,31.855
		C383.733,209.674,399.486,191.19,435.596,181.236z"/>
</g>
<path fill="#6786C4" d="M389.723,269.531c-18.264-27.189-35.313-42.191-63.412-25.841c0,0,32.555-13.93,55.559,28.94
	c1.504,2.798,2.982,5.861,4.433,9.197c0.103,0.241,0.206,0.453,0.311,0.69c23.62,55.1,5.343,82.143-21.485,94.443
	c-0.025,0.007-0.046,0.021-0.046,0.021c-0.117,0.061-0.227,0.103-0.319,0.146c-17.645,8.567-43.425,13.778-79.503,13.778
	c-62.259,0-92.561-5.607-107.106-10.817c-8.618-3.085-11.426-6.513-11.426-6.513c23.672,23.672,89.989,24.872,113.014,24.975h0.028
	c2.109,0.014,3.874,0.011,5.172,0.011c1.932,0,4.46-0.054,7.443-0.17c53.678-1.27,94.828-10.935,108.981-33.443
	C417.711,341.214,411.27,302.769,389.723,269.531z"/>
</svg>
