<?xml version="1.0" encoding="utf-8"?>
<!-- Generator: Adobe Illustrator 16.2.1, SVG Export Plug-In . SVG Version: 6.00 Build 0)  -->
<!DOCTYPE svg PUBLIC "-//W3C//DTD SVG 1.1//EN" "http://www.w3.org/Graphics/SVG/1.1/DTD/svg11.dtd">
<svg version="1.1" id="Layer_1" xmlns="http://www.w3.org/2000/svg" xmlns:xlink="http://www.w3.org/1999/xlink" x="0px" y="0px"
	 width="612px" height="612px" viewBox="0 0 612 612" enable-background="new 0 0 612 612" xml:space="preserve">
<g>
	<path fill="#8DD4F0" d="M391.676,134.185c3.891,0.37,7.876,1.073,11.95,2.118C399.993,135.275,396.017,134.549,391.676,134.185z"/>
	<path fill="#8DD4F0" d="M364.703,109.331c0.877-0.065,1.708-0.088,2.576-0.137C366.411,109.22,365.558,109.271,364.703,109.331z"/>
	<path fill="#5273B8" d="M264.521,338.625c-11.521-1.608-28.245-7.159-43.753-12.918c-1.708-0.305-3.274-0.606-4.617-0.871
		c-5.147,2.184-10.08,3.163-14.937,3.157c18.145,9.115,44.658,22.107,61.069,25.861c18.765,4.296,159.987-36.249,83.577-37.971
		c-10.675,4.941-21.99,8.304-33.359,10.55C291.582,333.966,271.105,339.545,264.521,338.625z"/>
	<path fill="#5273B8" d="M220.769,325.707c15.508,5.759,32.232,11.31,43.753,12.918c6.584,0.92,27.06-4.659,47.98-12.191
		c-7.922,1.565-15.862,2.599-23.633,3.174C260.71,331.693,234.871,328.246,220.769,325.707z"/>
	<path fill="#5273B8" d="M367.721,275.333c-7.1,7.393-15.198,13.448-23.878,18.438c38.459-2.403,22.894,9.676-4.46,21.914
		c1.317,0.051,2.596,0.134,3.959,0.147c0.877,0.015,1.691,0.026,2.52,0.052c9.144-4.236,17.826-9.582,25.651-16.349
		c32.531-28.13,38.606-55.879,40.2-77.121l-20.092,18.19C386.799,251.606,379.293,263.269,367.721,275.333z"/>
	<path fill="#5273B8" d="M220.769,325.707c-7.048-2.618-13.855-5.274-19.801-7.629c-2.978-1.173-5.736-2.266-8.207-3.248
		c-5.91-2.34-9.983-5.796-12.798-9.94c-0.293,2.554,0.25,4.928,1.093,6.94c2.323,4.891,6.183,9.132,12.343,12.229
		c2.349,1.184,4.987,2.511,7.817,3.934c4.856,0.006,9.79-0.974,14.937-3.157C217.495,325.101,219.061,325.402,220.769,325.707z"/>
	<path fill="#5273B8" d="M339.383,315.685c-8.272,3.7-17.618,7.415-26.881,10.749c11.369-2.246,22.685-5.608,33.359-10.55
		c-0.828-0.025-1.643-0.037-2.52-0.052C341.979,315.818,340.7,315.735,339.383,315.685z"/>
	<path fill="#5273B8" d="M434.521,160.889c-5.512-9.849-14.928-20.066-30.895-24.586c-4.074-1.044-8.06-1.748-11.95-2.118
		c-4.18-0.35-8.663-0.393-13.559,0.005c-14.526,1.421-27.755,7.342-39.845,16.069v-0.011c-0.094,0.065-0.18,0.145-0.271,0.205
		c-1.623,1.178-3.223,2.4-4.794,3.672c-0.578,0.455-1.136,0.919-1.702,1.383c-0.239,0.205-0.489,0.413-0.729,0.621
		c-12.582,10.458-23.286,22.768-32.6,35.446c-10.504,14.296-19.24,29.053-26.81,42.17c-5.54,9.126-10.897,18.298-16.374,26.792
		c-19.26,29.83-42.677,15.295-67.653,33.454c-4.996,3.632-6.972,7.427-7.378,10.897c2.815,4.145,6.889,7.601,12.798,9.94
		c2.471,0.982,5.229,2.075,8.207,3.248c5.946,2.354,12.753,5.011,19.801,7.629c14.102,2.539,39.941,5.986,68.1,3.9
		c7.771-0.575,15.711-1.608,23.633-3.174c9.263-3.334,18.608-7.049,26.881-10.749c27.354-12.238,42.919-24.316,4.46-21.914
		c8.68-4.99,16.778-11.045,23.878-18.438c11.572-12.064,19.078-23.727,23.9-34.729l20.092-18.19l1.726-1.56
		c-4.675-52.874,28.73-36.779,28.73-36.779S441.164,172.766,434.521,160.889z"/>
	<path fill="#8DD4F0" d="M364.257,109.359L364.257,109.359c0.147-0.014,0.296-0.014,0.446-0.028
		C364.55,109.345,364.407,109.345,364.257,109.359z"/>
	<path fill="#8DD4F0" d="M391.676,134.185c-4.641-0.441-9.158-0.424-13.559,0.005C383.013,133.792,387.496,133.835,391.676,134.185z
		"/>
	<path fill="#8DD4F0" d="M434.156,151.441c-2.149-2.121-4.769-4.147-7.939-6.015C429.371,147.339,431.992,149.36,434.156,151.441z"
		/>
	<path fill="#8DD4F0" d="M426.097,145.353l0.006,0.005c0.043,0.023,0.077,0.046,0.114,0.068
		C426.174,145.398,426.14,145.381,426.097,145.353z"/>
</g>
<path fill="#8DD4F0" d="M323.037,126.368c-1.363,1.07-2.716,2.169-4.039,3.322v-0.017c-0.086,0.071-0.157,0.157-0.245,0.233
	c-1.497,1.304-2.949,2.656-4.393,4.054c-0.526,0.504-1.033,1.014-1.546,1.518c-0.228,0.228-0.449,0.455-0.666,0.68
	c-11.449,11.466-20.832,24.621-28.793,38.014c-8.973,15.11-16.132,30.527-22.315,44.217c-4.569,9.553-8.916,19.146-13.519,28.042
	c-20.308,39.227-40.049,24.12-63.05,44.299c-7.976,7.009-7.763,8.435-5.283,12.984c0.245,0.401,0.512,0.788,0.774,1.175
	c0.407-3.47,2.382-7.265,7.378-10.897c24.977-18.159,48.393-3.624,67.653-33.454c5.477-8.495,10.834-17.667,16.374-26.792
	c7.569-13.118,16.306-27.875,26.81-42.17c9.314-12.679,20.018-24.988,32.6-35.446c0.239-0.208,0.489-0.416,0.729-0.621
	c0.566-0.464,1.124-0.928,1.702-1.383c1.571-1.272,3.171-2.494,4.794-3.672c0.091-0.06,0.177-0.14,0.271-0.205v0.011
	c12.09-8.728,25.318-14.648,39.845-16.069c4.4-0.43,8.918-0.447,13.559-0.005c0.831,0.071,1.634,0.165,2.439,0.262
	c3.398,0.404,6.569,1.022,9.511,1.856c15.967,4.521,25.383,14.737,30.895,24.586c6.644,11.876,7.648,23.186,7.648,23.186
	s3.465-30.405-14.532-52.472C407.454,108.118,357.997,100.233,323.037,126.368z"/>
<g>
	<path fill="#6786C4" d="M83.927,152.813c0,54.599,57.479,50.439,78.474,47.098c-0.899-1.739-1.919-3.587-3.103-5.582
		c-50.349-84.796,4.321-175.507,4.321-175.507S83.927,86.017,83.927,152.813z"/>
	<path fill="#6786C4" d="M93.771,226.023c-2.274,0-23.434-16.172-38.862-29.528l-3.746,48.937l83.776,4.532
		c-29.81-48.777,51.177-2.277,28.06-48.869C144.749,207.984,96.697,226.023,93.771,226.023z"/>
	<path fill="#6786C4" d="M169.967,198.459c0,0-2.878,0.706-7.566,1.452c0.208,0.401,0.407,0.794,0.598,1.184
		C167.309,199.47,169.967,198.459,169.967,198.459z"/>
	<path fill="#5273B8" d="M162.999,201.095c-0.191-0.39-0.39-0.783-0.598-1.184c-20.994,3.342-66.017,7.501-66.017-47.098
		c0-66.796,67.235-133.992,67.235-133.992C105.69,50.901,59.654,134.393,59.654,134.393l-4.745,62.103
		c15.429,13.356,36.588,29.528,38.862,29.528C96.697,226.023,144.749,207.984,162.999,201.095z"/>
</g>
<path fill="#6786C4" d="M210.779,326.678c-4.728,1.928-9.214,2.659-13.584,2.414c15.918,10,39.193,24.296,53.796,28.865
	c16.693,5.227,145.598-28.241,76.916-33.762c-16.675,7.467-34.809,10.408-51.905,10.869
	C247.496,335.83,221.881,329.786,210.779,326.678z"/>
<g>
	<path fill="#8DD4F0" d="M480.921,419.513c65.094-28.563,114.344,5.924,114.344,5.924s-45.074-45.589-113.777-33.018
		c-68.701,12.57-89.743,34.143-167.896-27.083l38.489,82.746C390.668,451.31,432.362,440.823,480.921,419.513z"/>
	<path fill="#6786C4" d="M595.265,425.437c0,0-49.25-34.487-114.344-5.924c-48.559,21.311-90.253,31.797-128.84,28.569l21.854,46.98
		C467.9,458.834,489.409,388.077,595.265,425.437z"/>
</g>
<path fill="#AED9F1" d="M213.273,439.909l76.99,49.201c2.505,2.138,4.435,4.131,5.91,6.004c10.829,0.678,23.485,2.952,14.191,7.862
	c-14.385,7.595-18.956,22.429-10.883,26.383c8.071,3.957,17.088-1.475,17.088-1.475c-1.597,6.746-1.543,14.296-0.558,21.837
	c2.983,22.936,14.577,45.805,14.577,45.805c-12.477-12.79-9.712,5.221-9.712,5.221c-8.532-13.991-11.956,3.841-11.956,3.841
	s-7.032-43.46-27.257-58.564c-20.223-15.107-45.108,2.292-68.63-20.282C181.513,495.495,213.273,439.909,213.273,439.909z"/>
<g>
	<path fill="#8096A0" d="M213.273,439.909c0,0-0.085,0.15-0.205,0.367c0.265,0.006,0.541,0.012,0.808,0.017L213.273,439.909z"/>
	<path fill="#8DD4F0" d="M201.554,470.576c-4.208,17.849-4.552,39.779,11.48,55.165c23.522,22.574,48.407,5.175,68.63,20.282
		c20.225,15.104,27.257,58.564,27.257,58.564s3.424-17.832,11.956-3.841c0,0-2.765-18.011,9.712-5.221
		c0,0-11.594-22.869-14.577-45.805c-0.985-7.541-1.039-15.091,0.558-21.837c0,0-9.018,5.432-17.088,1.475
		c-0.49-0.239-0.922-0.519-1.318-0.831C237.874,529.621,211.204,490.52,201.554,470.576z"/>
	<path fill="#6786C4" d="M310.364,502.977c9.294-4.91-3.362-7.185-14.191-7.862c-1.475-1.873-3.405-3.866-5.91-6.004l-76.387-48.817
		c-0.268-0.005-0.543-0.011-0.808-0.017c-1.187,2.157-7.823,14.635-11.515,30.3c9.65,19.943,36.32,59.045,96.609,57.952
		C292,523.641,296.848,510.116,310.364,502.977z"/>
</g>
<path fill="#6786C4" d="M317.896,526.385c0,0-30.758,10.193-18.492-13.772l-14.339,1.614c0,0-0.569,23.854,24.058,21.31
	c0,0,6.991,39.315,21.466,59.99C330.589,595.526,309.783,549.972,317.896,526.385z"/>
<g>
	<path fill="#AED9F1" d="M365.222,486.35c-2.499,2.106-6.075,0.726-6.291-2.607c-0.083-1.262-0.108-2.517-0.148-3.775
		c-0.308,0.496-0.586,0.997-0.911,1.483c-1.622,2.423-6.097,2.491-6.734-0.88c-2.61-13.752,3.615-27.766,8.289-40.414
		c0.703-1.909,1.329-3.942,1.947-6.003c-0.416,0.415-0.834,0.831-1.247,1.249c-2.562,2.557-7.265-0.008-6.16-3.586
		c0.45-1.464,0.968-2.89,1.523-4.293c-0.305,0.18-0.615,0.353-0.923,0.529c-3.877,2.234-7.131-2.924-4.415-5.771
		c-2.79-0.358-4.962-4.176-2.312-6.242c0.398-0.313,0.817-0.604,1.224-0.911c-5.371,1.819-10.678,2.765-13.783,0.47
		c-2.123-1.568-2.619-4.894,0-6.362c5.805-3.251,18.017-10.476,24.829-6.459c0.745-0.313,1.372-0.558,1.808-0.703
		c0.44-0.148,0.851-0.202,1.24-0.193c-13.336-7.894-26.061-16.004-40.273-22.565c-11.06-5.106-22.543-9.155-34.277-12.383
		c-9.066-2.494-18.159-3.584-26.605-7.942c-14.797-7.629-14.757-25.258-23.977-36.815c-3.806,1.326-12.383-13.567-17.817-19.001
		c-26.217-26.223-46.981-26.89-81.792-22.079c-25.318,3.499-32.859,20.51-35.478,26.909c30.419-16.485,63.11-20.427,69.928,40.215
		c10.065,89.516,42.455,191.562,155.1,160.224c14.937-4.156,30.687-9.915,41.817-20.263c-0.53-1.896-1.031-3.801-1.478-5.719
		C367.479,483.938,366.485,485.279,365.222,486.35z"/>
	<path fill="#87B3E0" d="M138.993,249.964c-0.475,0.475-1.159,0.789-1.947,1.002c-18.133-4.726-33.488-6.521-40.659-7.159
		C108.459,244.729,141.464,247.493,138.993,249.964z"/>
	<path fill="#87B3E0" d="M96.387,243.807c-2.682-0.205-4.344-0.319-4.344-0.319S93.606,243.562,96.387,243.807z"/>
</g>
<path fill="#87B3E0" d="M259.218,338.976l16.863-3.985l38.105-8.995c0,0,88.565,23.18,90.883,24.614
	c2.316,1.43,22.716,36.953,22.716,36.953c-126.491,53.044-180.546-53.375-180.546-53.375L259.218,338.976z"/>
<path fill="#8DD4F0" d="M358.436,432.365c-0.223,1.663-1.378,3.288-3.465,3.55c-0.752,0.094-1.509,0.19-2.263,0.282
	c-3.434,0.427-4.544-4.185-2.605-6.291c1.296-1.406,2.736-2.597,4.251-3.676c-4.199,0.939-8.398,1.885-12.686,2.326
	c-2.854,0.293-4.488-3.322-3.18-5.545c0.194-0.328,0.413-0.63,0.627-0.939c-0.727-1.23-0.817-2.802,0.113-3.972
	c-6.938,1.598-14.418,3.066-21.048,2.246c-2.81-0.344-4.062-2.829-3.351-4.882c-1.443-1.896-1.121-5.007,1.805-5.75
	c15.253-3.88,30.317-8.116,46.167-8.048c-13.208-7.825-25.833-15.853-39.918-22.352c-11.06-5.106-22.543-9.155-34.277-12.383
	c-9.066-2.494-18.159-3.584-26.605-7.942c-14.797-7.629-14.757-25.258-23.977-36.815c-3.806,1.326-12.383-13.567-17.817-19.001
	c-26.217-26.223-46.981-26.89-81.792-22.079c-25.318,3.499-32.859,20.51-35.478,26.909c25.908-14.04,53.449-18.953,65.265,17.351
	c10.487-2.209,28.265,0.688,41.578,37.251c20.041,55.046,54.169,114.672,149.443,77.973c0.612-3.621,1.515-7.131,3.294-10.143
	c0-0.236,0.008-0.473,0.008-0.706C361.111,430.535,359.728,431.389,358.436,432.365z"/>
<path fill="#799ACF" d="M369.821,485.971l-0.008-0.009c-2.059,2.983-4.635,5.11-7.954,5.238c-1.354,0.054-2.371-0.646-2.991-1.646
	c-1.506,0.043-2.912-0.672-3.203-2.567c-0.247-1.623,0.464-4.754,1.726-8.751c-0.652-11.122-0.242-22.392,1.204-33.392
	c0.188-1.426,0.387-2.854,0.629-4.267c-95.274,36.699-129.403-22.927-149.443-77.973c-13.313-36.562-31.091-39.46-41.578-37.251
	c2.058,6.322,3.624,13.869,4.663,22.864c10.609,91.884,41.644,192.373,154.291,161.032c15.56-4.33,32.824-11.202,43.998-22.403
	C370.656,486.68,370.194,486.409,369.821,485.971z"/>
<path fill="#6786C4" d="M92.043,258.424l33.271-8.46c0,0,7.541,2.124,11.731,1.002c28.711,7.478,64.362,22.292,85.442,51.447
	c7.541,10.436,2.901,4.666,11.469,11.104c-1.184,1.304-1.492,3.254,0.268,4.712c1.446,1.198,2.679,2.533,3.8,3.945
	c-3.806,1.326-8.355-6.775-13.792-12.212c-3.82-3.82-7.598-7.131-11.367-10h0.008c-26.203-22.315-75.701-20.547-75.712-11.572
	c-0.965,3.621,15.067,9.246,18.554,16.066c0,0-14.714-16.903-52.78,3.547c-3.091,1.674-6.154,3.476-9.166,5.357
	c-32.68,20.376-40.343-12.702-40.343-12.702L92.043,258.424z"/>
<g>
	<g>
		<path fill="#8DD4F0" d="M430.523,531.768c-1.102-9.178-1.07-18.344,0.957-26.514c0,0-11.025,6.477-20.781,1.571
			c-5.767-2.903-19.371-22.69-25.821-54.502l0.726-2.579c-8.955-36.078-40.035-47.667-55.424-54.553
			c-8.944,1.161-17.994,2.789-31.786,2.71c-9.251,20.364-21.324,75.328,7.35,103.427c28.285,27.718,58.738,6.903,83.111,25.509
			s27.914,71.488,27.914,71.488s5.847-15.993,16.915,0.919c0,0-1.025-27.348,13.96-11.654
			C447.644,587.59,433.854,559.665,430.523,531.768z"/>
	</g>
</g>
<path fill="#6786C4" d="M545.884,262.657c0,0-20.618-24.501-24.865-27.125c-4.247-2.627-28.079-7.225-88.685-4.133
	c-60.6,3.094-16.243,3.837-45.268,20.579c-29.019,16.741-36.613,27.524-39.653,32.44c-3.04,4.925-31.205,16.596-52.367,27.527
	c-21.162,10.932-47.986,14.627-52.355,15.657c-4.375,1.033-10.476,18.176-10.476,18.176s27.906,25.646,74.314,43.588
	c31.324,12.112,68.288,18.725,104.204,6.883c84.438-27.843,88.685-92.966,107.862-106.724c19.17-13.763,31.168,6.712,31.168,6.712
	L545.884,262.657z"/>
<path fill="#87B3E0" d="M373.084,424.589"/>
<path fill="#6786C4" d="M371.154,421.65c0,0,24.851,11.854,25.426,39.164c0.755,35.942,14.33,53.219,34.9,44.439
	c0,0-5.979,31.84,16.163,82.336c0,0-21.253-33.063-21.253-73.363c0,0-33.537,3.476-41.843-28.222
	C376.246,454.305,388.655,441.854,371.154,421.65z"/>
<path fill="#6786C4" d="M177.206,221.472c0,0,16.226,19.09,45.282,11.7c0,0-13.912,47.046-76.76,35.532
	c-62.851-11.512-23.997-34.023-23.997-34.023"/>
<path fill="#6786C4" d="M98.998,243.488l12.451-20.695c0,0,57.169-30.994,59.435-41.182c2.266-10.188,8.634-12.452,9.625-24.766
	c0.991-12.312-0.142-13.584-0.142-13.584l-1.651-8.868c0,0,35.833,40.804,12.448,87.831c-23.109,46.48-99.12,39.996-99.12,39.996
	L98.998,243.488z"/>
<path fill="#AED9F1" d="M113.806,239.585c0,0-13.96-27.929,21.133-41.513c35.097-13.584,48.305-37.923,43.776-63.68
	c0,0,19.34,48.208-24.812,76.228c-38.805,24.629-75.285,20.095-75.285,20.095"/>
<path fill="#8DD4F0" d="M178.715,134.393c0,0,33.585,73.874-61.513,100.288l-18.204-4.427c0,0-5.192-0.105,3.866-6.519
	c9.055-6.414-29.776-21.088,7.188-21.088C147.015,202.647,184.471,171.658,178.715,134.393z"/>
<path fill="#8DD4F0" d="M458.629,205.479c-71.084,9.878-139.387,87.91-168.331,94.737c0,0,1.042,4.842,2.704,5.861
	c1.663,1.03,3.707,2.67,22.696-5.355c18.99-8.024,33.634-20.496,45.817-31.282c12.181-10.789,26.857-22.443,32.771-23.84
	c5.897-1.389,2.212-0.245,14.107-4.811c11.888-4.563,13.57-5.838,22.518-7.954c8.958-2.112,21.876-13.513,21.876-13.513
	L458.629,205.479z"/>
<path fill="#8DD4F0" d="M202.834,320.905c-4.845-23.055,24.575-36.973,65.744-16.323c4.218,2.115,10.145,1.173,17.433-1.899
	c0.427,0.043,0.865,0.051,1.347-0.02c14.859-2.231,27.547-14.871,39.753-22.722c0.843-0.544,1.39-1.252,1.691-2.021
	c7.107-5.406,14.022-10.965,20.783-16.112c7.848-5.983,15.907-11.811,24.14-17.398c5.668-3.775,11.429-7.487,17.253-11.062
	c1.162-0.7,2.307-1.415,3.474-2.104c0.401-0.236,0.797-0.475,1.195-0.714c9.557-5.568,19.368-10.652,29.451-15.042
	c0.786-0.342,1.324-0.829,1.691-1.37c45.478-20.436,106.481-6.021,125.597,25.247c19.63,32.125-2.622,56.87-2.622,56.87
	s-6.223-27.447-37.84-18.936c-28.137,7.575-44.707-69.575-163.128,12.935c-74.229,51.727-111.389,64.058-134.928,51.948
	C187.377,328.551,202.834,320.905,202.834,320.905z"/>
<path fill="#6786C4" d="M311.87,292.45c1.349-1.159,2.712-2.346,4.104-3.587c0.88-0.814,1.717-1.557,2.52-2.238
	c7.387-6.587,15.728-14.096,26.178-21.76c-12.093,8.688-24.78,17.171-36.375,25.107c-36.98,25.33-52.848-4.845-89.416,3.695
	c-19.795,4.62-15.699,28.802-15.699,28.802c3.954-24.202,37.701-21.167,59.31-16.613C281.966,310.333,298.695,303.31,311.87,292.45z
	"/>
<path fill="#6786C4" d="M452.699,293.028c-43.821-31.663-104.589,9.764-151.786,36.104c-47.206,26.337-68.698,16.645-68.698,16.645
	c11.805,9.319,39.6,29.482,74.303,42.904c31.336,12.115,68.294,18.723,104.21,6.886c62.535-20.623,81.081-61.675,94.287-87.181
	C491.593,308.502,475.828,309.74,452.699,293.028z"/>
<path fill="#5273B8" d="M549.758,295.553c0,0-6.223-27.447-37.84-18.93c-28.134,7.572-44.701-69.583-163.122,12.935
	c-57.439,40.024-92.672,56.443-116.581,56.219c0,0,16.67,8.716,68.684-18.953c48.034-25.552,107.979-65.458,151.801-33.795
	c11.867,8.577,21.794,12.409,30.456,14.111c0.384,0.082,0.783,0.171,1.261,0.242c9.818,1.506,14.43,4.435,10.095,12.517
	c-14.771,25.674-53.683,78.915-124.006,82.566c74.457-0.262,112.778-49.176,130.437-81.058
	c17.654-31.883,30.103-47.465,48.822-25.17c0,0-0.66-1.406-1.924-3.353C549.104,294.428,549.758,295.553,549.758,295.553z"/>
<path fill="#5273B8" d="M178.715,134.393c0,0,29.454,72.45-56.865,98.93c0,0,10.487,3.345,18.899,9.676
	C140.749,242.998,211.155,208.286,178.715,134.393z"/>
<path fill="#8DD4F0" d="M114.563,231.281c-1.107-0.25-2.201-0.549-3.282-0.868l0.006-0.006l27.706-34
	c-37.721,16.758-79.35,0.424-68.892-55.523c8.506-35.355,36.098-77.898,93.518-122.062c0,0-110.191,53.044-140.382,177.412
	c-30.345,124.999,18.11,154.777,39.247,123.78c21.134-30.991,57.861-51.521,92.269-57.795
	C154.752,262.219,150.792,239.585,114.563,231.281z"/>
<path fill="#5273B8" d="M73.753,245.885c-13.487-8.745-20.926,21.102-14.78,26.584C65.123,277.949,87.133,254.555,73.753,245.885z"
	/>
<path fill="#FFFFFF" d="M60.599,263.434c-0.609,1.198-0.467,4.301,1.093,5.033c1.569,0.726,3.906-0.271,4.569-2.377
	c0.416-1.321-0.166-2.761-1.734-3.496C62.964,261.86,61.203,262.238,60.599,263.434z"/>
<path fill="#5273B8" d="M222.488,233.171c0,0-20.467,5.352-34.869-4.813c0,0-7.8,11.207-16.152,16.234
	C171.467,244.592,198.593,251.686,222.488,233.171z"/>
<path fill="#6786C4" d="M253.243,508.844c0,0,28.239,14.549,66.688,2.645c0,0-6.582-3.001-18.312-14.731
	C301.619,496.757,288.402,519.245,253.243,508.844z"/>
<g>
	<g>
		<path fill="#A4DEF5" d="M69.059,166.139c0.401,2.98,1.002,5.779,1.805,8.383C70.084,171.789,69.495,168.979,69.059,166.139z"/>
		<path fill="#A4DEF5" d="M71.015,175.088l0.011-0.003c-0.06-0.182-0.105-0.375-0.162-0.563
			C70.915,174.713,70.958,174.9,71.015,175.088z"/>
	</g>
</g>
</svg>
