<?xml version="1.0" encoding="utf-8"?>
<!-- Generator: Adobe Illustrator 16.2.1, SVG Export Plug-In . SVG Version: 6.00 Build 0)  -->
<!DOCTYPE svg PUBLIC "-//W3C//DTD SVG 1.1//EN" "http://www.w3.org/Graphics/SVG/1.1/DTD/svg11.dtd">
<svg version="1.1" id="Layer_1" xmlns="http://www.w3.org/2000/svg" xmlns:xlink="http://www.w3.org/1999/xlink" x="0px" y="0px"
	 width="612px" height="612px" viewBox="0 0 612 612" enable-background="new 0 0 612 612" xml:space="preserve">
<g>
	<path fill="#8DD4F0" d="M485.893,299.999c-41.138-28.579-115.261,51.27-132.191,42.985c-16.935-8.29-27.462,4.251-27.462,4.251
		l-1.013,13.34c6.465,2.678,13.639,3.022,21.194,1.757l-12.41,56.361c0,0,5.479,88.136,27.794,47.237
		c2.307-4.231,4.872-7.871,7.602-11.062c-20.059-12.61-43.604-36.787-21.046-69.601c3.526-5.124,7.229-9.939,11.016-14.535
		c0.306-0.381,0.555-0.737,0.867-1.125c0.356-0.443,0.704-0.827,1.058-1.266c0.031-0.032,0.055-0.057,0.075-0.089
		c37.829-46.458,75.822-59.962,94.478-52.742c8.846,3.418,18.715-6.842,25.555,0c4.884,4.881-3.437,9.151-3.437,9.151
		C490.976,325.706,498.6,308.816,485.893,299.999z"/>
	<path fill="#87B3E0" d="M361.301,368.343c0.031-0.032,0.055-0.057,0.075-0.089C361.355,368.286,361.332,368.311,361.301,368.343z"
		/>
	<path fill="#87B3E0" d="M360.243,369.608c-0.312,0.388-0.562,0.744-0.867,1.125c0.651-0.786,1.274-1.616,1.925-2.391
		C360.947,368.781,360.6,369.165,360.243,369.608z"/>
</g>
<path fill="#6786C4" d="M481.408,315.512c-6.84-6.842-16.709,3.418-25.555,0c-12.89-4.983-35.001-0.071-59.913,18.748l-0.006-0.006
	c-27.989,21.281-33.221,22.55-58.934,20.193c-20.293-1.854,1.04,26.033,9.737,33.322c-19.719,31.538,3.121,48.601,22.668,60.885
	c16.349-27.622,48.16-14.311,48.16-14.311c-22.127-38.956,37.231-53.317,37.231-53.317c-5.016-3.87-8.952-8.183-11.96-12.684
	c-15.821-23.686-5.633-52.64,10.836-49.938c0.717,0.117,1.442,0.275,2.18,0.515c3.445,1.311,6.872,2.564,10.755,0.625
	c5.732-2.87,10.857-2.294,12.577-0.142c0.863,1.085,0.876,2.561-0.312,4.206c-0.153,0.214-0.354,0.426-0.546,0.64
	c-0.119,0.135-0.216,0.275-0.356,0.414C477.972,324.663,486.292,320.393,481.408,315.512z"/>
<g>
	<path fill="#8DD4F0" d="M128.5,367.094c31.82-43.47,135.169,11.759,149.486-2.597c14.313-14.365,29.418-5.298,29.418-5.298
		l5.7,13.213c-5.638,4.978-12.812,7.844-20.943,9.208l32.369,52.963c0,0,25.308,91.536-11.715,57.771
		c-3.825-3.49-7.708-6.296-11.606-8.589c15.981-19.844,31.452-52.678-2.98-78.138c-5.388-3.979-10.833-7.58-16.299-10.929
		c-0.443-0.282-0.824-0.555-1.274-0.837c-0.516-0.324-1.007-0.597-1.517-0.917c-0.039-0.021-0.072-0.039-0.111-0.065
		c-54.739-33.988-98.102-34.414-114.548-20.535c-7.795,6.581-21.425-0.399-25.985,8.961c-3.256,6.668,6.704,8.099,6.704,8.099
		C132.338,395.019,118.672,380.516,128.5,367.094z"/>
	<path fill="#87B3E0" d="M279.141,392.944c-0.039-0.021-0.072-0.039-0.111-0.065C279.068,392.905,279.102,392.923,279.141,392.944z"
		/>
	<path fill="#87B3E0" d="M280.658,393.861c0.45,0.282,0.831,0.555,1.274,0.837c-0.935-0.564-1.855-1.202-2.791-1.754
		C279.65,393.265,280.142,393.537,280.658,393.861z"/>
</g>
<path fill="#6786C4" d="M192.168,385.994c21.89,1.199,43.517,6.429,65.265,8.982c15.702,1.842,31.437,3.247,47.184,4.575
	c5.765-14.224,10.62-36.565-5.634-29.25c-25.326,11.399-31.085,11.944-67.007,0.111v0.009c-31.925-10.407-56.133-7.655-67.494,1.922
	c-7.795,6.581-21.425-0.399-25.985,8.961c-3.256,6.668,6.704,8.099,6.704,8.099c-0.194-0.103-0.335-0.204-0.516-0.3
	c-0.27-0.141-0.548-0.297-0.776-0.459c-1.784-1.257-2.288-2.759-1.79-4.162c0.999-2.794,6.005-5.175,12.836-4.272
	c4.632,0.625,7.678-1.858,10.728-4.398c0.656-0.497,1.34-0.92,2.033-1.288C176.232,369.938,186.084,375.392,192.168,385.994z"/>
<path fill="#5273B8" d="M454.798,381.026c0,0-56.858-16.305-103.853,2.821c0,0,42.125,2.194,66.621,50.496
	C417.566,434.344,397.442,399.552,454.798,381.026z"/>
<g>
	<path fill="#6786C4" d="M314.942,30.167c-37.232,14.113-54.771,92.738-37.556,149.456c1.955-2.414,8.923-5.084,11.1-8.131
		c15.111-21.125,47.046,11.924,47.046,11.924c-16.554-16.556-28.396-65.46-20.59-101.229c11.903-54.568,63.728-35.014,63.728-35.014
		S360.075,13.062,314.942,30.167z"/>
	<path fill="#6786C4" d="M263.355,206.777c4.617,0,0,0,0-4.722c0-0.987,0.461-1.988,1.295-3.122l-5.817,3.395
		C260.314,205.114,261.862,206.777,263.355,206.777z"/>
	<path fill="#6786C4" d="M284.789,187.175c-0.908-2.468-1.721-4.995-2.498-7.553c-8.751,10.817-15.069,15.794-17.641,19.312
		L284.789,187.175z"/>
	<path fill="#5273B8" d="M328.387,16.605c-46.275,0-73.897,71.658-73.897,71.658s-4.722,69.88-2.833,86.301
		c1.28,11.114,4.072,21.929,7.178,27.764l5.817-3.395c2.572-3.517,8.89-8.494,17.641-19.312
		c-17.215-56.718-2.485-133.248,34.745-147.357c45.135-17.107,61.634,14.907,61.634,14.907S364.863,16.605,328.387,16.605z"/>
</g>
<g>
	<g>
		<g>
			<path fill="#6786C4" d="M371.592,451.536l-47.81,39.853c10.428,10.428,0.506,11.86,3.891,20.421
				c10.788,27.271-9.282,32.782-15.033,33.79c2.555-0.039,11.495,2.449,21.885,8.71c18.313,11.03,22.903,29.271,22.903,29.271
				c4.722-15.342,20.651-8.617,20.651-8.617c-6.61-10.622,0.827-13.575,0.827-13.575c-36.122-9.208-36.179-21.66,0.12-57.959
				C415.323,467.13,371.592,451.536,371.592,451.536z"/>
		</g>
	</g>
</g>
<g>
	<path fill="#AED9F1" d="M260.938,311.008c-11.286,1.923-27.578,8.398-15.009,30.043c1.2-4.773,2.741-9.472,4.312-13.391
		C251.68,324.054,256.024,317.646,260.938,311.008z"/>
	<path fill="#6786C4" d="M303.361,375.351c4.862-31.479,22.193-32.051,47.584-8.228c-0.09-0.083-0.161-0.183-0.249-0.272
		c-24.969-24.97-26.562-34.354-12.835-55.015l-29.542-3.541l-19.833,1.892h-18.487c0,0-4.029-0.038-9.061,0.821
		c-4.914,6.639-9.259,13.046-10.698,16.652c-1.571,3.919-3.112,8.617-4.312,13.391c0.33,0.572,0.636,1.127,1.007,1.721
		c20.778,33.049,44.38-23.141,49.579,22.192c3.724,32.489-17.947,58.476-17.947,58.476S298.438,407.222,303.361,375.351z"/>
</g>
<g>
	<path fill="#8DD4F0" d="M229.007,210.423c0,0-35.256-57.317,25.053-88.088c0,0-46.653,32.543-14.008,80.119"/>
	<path fill="#6786C4" d="M251.779,150.689c-6.035-16.496,2.282-28.354,2.282-28.354c-48.347,34.921-15.483,77.883-15.483,77.883
		c6.962,10.218,12.949,13.908,18.007,13.761C251.164,193.025,248.052,172.364,251.779,150.689z"/>
</g>
<path fill="#8DD4F0" d="M263.355,195.417l19.366,4.279c23.979-67.053,104.455-48.164,104.455-48.164
	C296.045,118.479,263.355,195.417,263.355,195.417z"/>
<path fill="#8DD4F0" d="M328.387,20.857c36.83-2.239,50.283,26.315,50.283,26.315C357.775-1.099,287.302,2.799,256.142,64.661
	c-31.164,61.869-4.135,120.751-28.214,144.836c-25.614,25.614-46.862,40.488-39.784,85.815c7.085,45.33,53.36,68.939,76.731,45.564
	c20.085-20.086,39.034-24.576,48.814-19.818l0.003-0.003c8.659,4.61,15.869,1.277,21.938-6.222
	c14.649-19.389,34.108-52.526,29.587-87.516c-6.248-48.326-69.211-50.601-101.862-31.901
	C236.62,71.437,295.637,22.851,328.387,20.857z"/>
<g>
	<g>
		<path fill="#6786C4" d="M353.5,286.063c-11.549,22.933-29.629,36.398-45.666,33.403v14.098c3.062,1.059,11.818,7.487,12.29,7.487
			c0.471,0,17.429,10.452,17.429,10.452s-6.569-14.398-0.195-29.581C342.425,309.852,349.818,293.913,353.5,286.063z"/>
	</g>
</g>
<g>
	<path fill="#87B3E0" d="M327.673,345.898c0,0,0.174,0.146,0.414,0.352C332.994,347.484,327.673,345.898,327.673,345.898z"/>
	<g>
		<path fill="#8DD4F0" d="M371.237,438.379h-5.007c18.728-51.347-40.44-94.429-52.379-85.746l0.353-2.779
			c-4.544,3.357-8.085,10.362-10.843,21.242c-8.5,33.526-24.792,52.344-24.792,52.344c-29.743,0-25.021,15.653-51.939,42.568
			c-26.909,26.915-81.213,25.969-81.213,25.969s32.579,37.777,94.91,42.493c62.324,4.722,109.073-20.301,125.128-59.02
			c7.517-18.137,10.173-37.61,8.362-55.777L371.237,438.379z"/>
		<path fill="#AED9F1" d="M345.975,362.248c0.729,0.785,1.313,1.302,1.828,1.693c-1.085-1.069-2.146-2.092-3.187-3.06
			C345.152,361.396,345.621,361.87,345.975,362.248z"/>
		<path fill="#6786C4" d="M366.23,438.379h5.007l2.579-18.706c-2.036-20.48-9.757-39.292-22.871-52.55
			c-1.07-1.111-2.111-2.159-3.143-3.182c-0.515-0.392-1.1-0.908-1.828-1.693c-0.354-0.378-0.822-0.852-1.358-1.366
			c-13.339-12.432-23.158-16.383-30.412-11.028l-0.353,2.779C325.79,343.95,384.958,387.032,366.23,438.379z"/>
	</g>
</g>
<path fill="#6786C4" d="M145.416,491.977c0,0,50.938,35.643,125.953,24.672c58.349-8.529,108.854-68.282,97.985-118.602
	c0,0,18.526,48.128-8.393,90.274C334.023,530.509,231.826,572.715,145.416,491.977z"/>
<path fill="#6786C4" d="M320.831,516.058c0,0,7.556-31.164-19.195-55.656c-23.491-21.516-7.247,35.589-7.247,35.589
	s1.181,9.97,1.181,12.038c0,2.071,5.664,7.085,5.664,7.085"/>
<path fill="#8DD4F0" d="M280.958,327.757c25.824-16.749,21.218,5.98,46.775-12.275c23.531-16.802-0.885-13.789-4.893-13.789
	c-4.015,0-9.562,3.652-18.181,6.602c-8.617,2.956-13.171,3.544-16.325,4.489"/>
<g>
	<path fill="#8DD4F0" d="M309.25,516.511c15.438-35.164-12.902-62.354-12.902-62.354c-10.446-10.449-27.269-26.915-48.104,15.579
		c-5.082,10.358-6.95,18.66-6.838,25.479C241.614,523.532,296.755,543.264,309.25,516.511z"/>
	<path fill="#6786C4" d="M288.561,563.598c-0.072-0.194-0.141-0.348-0.207-0.552c-7.814-22.838-26.724-15.411-15.81,9.679
		c0.019,0.047,0.03,0.081,0.051,0.129c9.024,18.131,8.512,36.06,8.512,36.06c8.32-16.646,23.905-4.65,23.905-4.65
		c-4.782-16.778,7.649-13.941,7.649-13.941C299.939,584.291,291.718,573.846,288.561,563.598z"/>
	<path fill="#6786C4" d="M288.354,563.046c0.066,0.204,0.135,0.357,0.207,0.552c-2.776-9.006-1.667-17.857,3.889-23.41
		c8.137-8.137,13.468-16.088,16.8-23.677c-12.495,26.753-65.839,6.955-67.845-21.297c1.988,27.985,16.661,29.151,19.515,38.077
		c3.777,11.811-10.731,14.126-10.731,14.126c10.803,6.988,17.825,16.24,22.406,25.437c-0.021-0.048-0.033-0.082-0.051-0.129
		C261.631,547.635,280.541,540.208,288.354,563.046z"/>
</g>
<path fill="#6786C4" d="M266.959,525.1c35.691,12.678,62.195-27.229,34.893-64.387c0,0,16.149,17.804,14.494,40.237
	c-1.651,22.43-4.719,20.537-4.719,20.537l-19.915,9.655l-12.434,4.748h-5.193"/>
<path fill="#6786C4" d="M305.012,604.263c0,0-10.859-11.354-21.131-2.74c0,0-2.455-15.815-9.205-30.339
	c-5.9-12.683-5.682-21.792,1.823-21.792c7.502,0,1.128-3.114,1.128-3.114s-8.584,0-10.668,0l-16.77,1.14
	c0,0,26.49,15.29,30.918,61.496C281.107,608.913,288.189,595.37,305.012,604.263"/>
<path fill="#6786C4" d="M249.857,457.595c16.736-18.334,26.322-42.911,38.236-64.587c-0.195-0.046-0.408-0.085-0.572-0.129
	c-2.375-0.654-15.741-6.623-23.615-8.555c-7.867-1.931-23.313-3.562-28.063-3.562c-4.755,0-49.681-2.461-49.681-2.461
	c18.484,17.006-2.599,45.382-2.599,45.382c49.6-13.369,40.389,23.764,40.389,23.764
	C238.338,446.735,245.887,451.941,249.857,457.595z"/>
<path fill="#6786C4" d="M312.937,353.334l-5.103-3.3c0,0-1.46,4.955-2.465,5.953c-1.001,1.005-3.895,12.047-3.895,12.047
	l-9.762,9.913l-19.999,32.611c-3.826,2.306-8.527,5.142-10.775,7.391c-3.053,3.056-5.609,5.49-5.609,5.49l-5.472,34.155
	c0,0,23.746-6.94,42.401-42.548c1.206-2.168,2.276-4.362,3.232-6.569c0.024-0.051,0.045-0.099,0.069-0.146h-0.003
	C305.336,385.568,303.024,361.729,312.937,353.334z"/>
<path fill="#5273B8" d="M183.563,423.683c0,0,42.362-35.064,94.064-31.668c0,0-39.595,9.481-53.675,55.432
	C223.952,447.446,226.201,416.771,183.563,423.683z"/>
<path fill="#6786C4" d="M348.311,364.326l0.009,0.006c-0.065-0.062-0.12-0.129-0.18-0.194c-0.246-0.268-0.517-0.562-0.828-0.891
	c-30.372-37.379,21.443-74.243,21.443-123.534c0-50.286-43.732-57.581-43.732-57.581l-34.884,12.607
	c41.436-9.211,73.307,8.5,73.307,45.327c0,36.831-31.344,82.98-53.378,82.98l1.937,7.141c-3.004,3.158-3.33,7.037,5.05,10.863
	c1.253,0.575,2.477,1.178,3.676,1.803l2.507,2.137c-6.771-1.771-8.132-2.162-8.132-2.162l-0.309,2.414
	c-0.51,0.077-1.022,0.177-1.55,0.356c-4.915,1.683-5.355,2.081-6.021,2.747l3.441,7.444c2.312-3.283,6.591-5.479,13.858-2.944
	c6.884,2.404-0.435-4.147-1.58-5.19c1.757,0.22,3.616,0.766,5.585,1.631l3.316,2.603l5.214,5.751l8.674,5.154l3.46,2.723
	c-0.384-0.43-0.698-0.858-1.063-1.287c0.415,0.432,0.794,0.849,1.234,1.287C349.365,365.517,348.981,365.066,348.311,364.326z"/>
<g>
	<path fill="none" d="M387.176,151.532c-0.857-0.252-1.7-0.474-2.542-0.705c-1.194-0.297-2.776-0.654-4.683-0.995
		C382.308,150.324,384.712,150.882,387.176,151.532z"/>
	<path fill="#6786C4" d="M379.951,149.833c-17.87-3.226-64.328-5.349-86.899,52.397c22.127-5.178,41.972,6.41,41.972,6.41
		c-6.608-64.216,52.151-57.107,52.151-57.107C384.712,150.882,382.308,150.324,379.951,149.833z"/>
	<path fill="#6786C4" d="M384.634,150.828c0.842,0.23,1.685,0.453,2.542,0.705C387.176,151.532,386.271,151.235,384.634,150.828z"/>
	<path fill="#5273B8" d="M275.738,210.084c5.721-4.071,11.594-6.515,17.314-7.855c22.571-57.746,69.029-55.623,86.899-52.397
		c1.906,0.341,3.488,0.698,4.683,0.995C297.517,126.965,275.738,210.084,275.738,210.084z"/>
</g>
<path fill="#5273B8" d="M295.025,266.449c15.184,19.351-13.843,41.174-25.032,36.737
	C258.798,298.752,280.415,247.814,295.025,266.449z"/>
<path fill="#FFFFFF" d="M290.021,282.306c-2.359,0.863-5.034-0.926-5.964-4.008c-0.923-3.076,0.234-6.275,2.591-7.139
	c2.365-0.86,5.028,0.93,5.958,4.012C293.539,278.25,292.375,281.449,290.021,282.306z"/>
</svg>
