<?xml version="1.0" encoding="utf-8"?>
<!-- Generator: Adobe Illustrator 16.2.1, SVG Export Plug-In . SVG Version: 6.00 Build 0)  -->
<!DOCTYPE svg PUBLIC "-//W3C//DTD SVG 1.1//EN" "http://www.w3.org/Graphics/SVG/1.1/DTD/svg11.dtd">
<svg version="1.1" id="Layer_1" xmlns="http://www.w3.org/2000/svg" xmlns:xlink="http://www.w3.org/1999/xlink" x="0px" y="0px"
	 width="612px" height="612px" viewBox="0 0 612 612" enable-background="new 0 0 612 612" xml:space="preserve">
<path fill="#B46D29" d="M356.004,605.324c-36.191,21.266-106.965-32.015-158.071-118.995
	c-51.107-86.984-63.197-174.741-27.003-196.006c36.197-21.265,106.967,32.013,158.073,118.997
	C380.112,496.305,392.2,584.059,356.004,605.324"/>
<g>
	<g>
		<defs>
			<path id="SVGID_1_" d="M39.68,265.486c-13.299,24.198,7.741,61.302,36.182,76.926c28.434,15.626,62.268,8.671,75.566-15.529
				c7.336-13.355,0.533-12.783-11.816-12.214c-10.033,0.462-23.724,0.925-36.471-6.078c-23.188-12.741-41.91-49.457-55.245-49.454
				C44.877,259.137,42.135,261.019,39.68,265.486"/>
		</defs>
		<clipPath id="SVGID_2_">
			<use xlink:href="#SVGID_1_"  overflow="visible"/>
		</clipPath>
		
			<linearGradient id="SVGID_3_" gradientUnits="userSpaceOnUse" x1="187.4346" y1="138.2988" x2="190.6238" y2="138.2988" gradientTransform="matrix(7.3838 18.0802 -18.0802 7.3838 1196.9307 -4131.1333)">
			<stop  offset="0" style="stop-color:#EFB730"/>
			<stop  offset="1" style="stop-color:#FFD65A"/>
		</linearGradient>
		<polygon clip-path="url(#SVGID_2_)" fill="url(#SVGID_3_)" points="139.84,212.798 193.381,343.9 45.305,404.374 -8.237,273.271 
					"/>
	</g>
</g>
<g>
	<g>
		<defs>
			<path id="SVGID_4_" d="M259.492,511.927c1.588,0.249,3.728,0.495,3.977,0.289c-3.614-0.484-5.197-0.653-5.601-0.653
				C257.445,511.562,258.318,511.746,259.492,511.927"/>
		</defs>
		<clipPath id="SVGID_5_">
			<use xlink:href="#SVGID_4_"  overflow="visible"/>
		</clipPath>
		
			<linearGradient id="SVGID_6_" gradientUnits="userSpaceOnUse" x1="-2004.9858" y1="453.8828" x2="-2001.7955" y2="453.8828" gradientTransform="matrix(0.0262 -0.1146 0.1146 0.0262 260.9596 270.3778)">
			<stop  offset="0" style="stop-color:#EFB730"/>
			<stop  offset="1" style="stop-color:#FFD65A"/>
		</linearGradient>
		<polygon clip-path="url(#SVGID_5_)" fill="url(#SVGID_6_)" points="257.257,512.378 257.744,510.255 263.654,511.605 
			263.169,513.729 		"/>
	</g>
</g>
<g>
	<g>
		<defs>
			<path id="SVGID_7_" d="M220.38,502.165c6.135,1.61,13.822,3.354,0.28-0.553C220.578,501.792,220.466,501.982,220.38,502.165"/>
		</defs>
		<clipPath id="SVGID_8_">
			<use xlink:href="#SVGID_7_"  overflow="visible"/>
		</clipPath>
		
			<linearGradient id="SVGID_9_" gradientUnits="userSpaceOnUse" x1="-1882.4912" y1="255.4766" x2="-1879.3026" y2="255.4766" gradientTransform="matrix(0.0277 -0.1211 0.1211 0.0277 248.4914 268.5499)">
			<stop  offset="0" style="stop-color:#EFB730"/>
			<stop  offset="1" style="stop-color:#FFD65A"/>
		</linearGradient>
		<polygon clip-path="url(#SVGID_8_)" fill="url(#SVGID_9_)" points="219.53,505.327 221.067,498.606 235.052,501.805 
			233.515,508.525 		"/>
	</g>
</g>
<g>
	<g>
		<defs>
			<path id="SVGID_10_" d="M168.575,1.399c-5.762,2.976-20.851,16.88-18.253,33.206c1.392,8.736,5.6,16.092,11.145,20.756
				c-36.911,34.646-51.973,76.921-54.587,88.357c-27.722,121.178,34.362,388.234,67.513,395.818
				c16.36,3.739,37.574-19.777,45.987-37.371c-6.777-1.781-11.66-3.399,16.141,2.96c22.369,5.114,69.948,10.121,114.049,13.282
				c-0.7,19.951,52.188,78.3,96.68,58.218c33.139-14.952-46.015-81.877-4.147-164.338c15.917,19.803,43.981,28.818,71.195,20.506
				c35.064-10.707,78.096-55.785,56.124-82.221c-25.285-30.418-39.207,31.841-75.792,34.293
				c-14.214,0.957-22.884-0.467-28.415-1.891c-4.965-1.276-7.402-2.56-9.054-2.117c17.789-41.647,45.311-110.184,53.237-144.83
				c3.039-13.279,9.062-63.012-12.515-113.046c4.005-2.938,7.574-6.79,10.324-11.494c9.377-16.056,3.04-41.283-8.048-43.69
				c-7.782-1.691-23.457-1.679-34.376,6.174c-24.552-26.076-61.173-48.393-115.367-60.46C283.165-1.458,233.149,9.14,196.516,29.639
				c-0.077-0.777-0.157-1.559-0.28-2.344c-2.272-14.271-15.3-26.7-24.146-26.7C170.818,0.596,169.631,0.851,168.575,1.399"/>
		</defs>
		<clipPath id="SVGID_11_">
			<use xlink:href="#SVGID_10_"  overflow="visible"/>
		</clipPath>
		
			<linearGradient id="SVGID_12_" gradientUnits="userSpaceOnUse" x1="183.5835" y1="130.0908" x2="186.7725" y2="130.0908" gradientTransform="matrix(21.4338 -93.6946 93.6946 21.4338 -15814.4766 14826.0205)">
			<stop  offset="0" style="stop-color:#EFB730"/>
			<stop  offset="1" style="stop-color:#FFD65A"/>
		</linearGradient>
		<polygon clip-path="url(#SVGID_11_)" fill="url(#SVGID_12_)" points="-50.875,566.961 104.682,-113.027 722.426,28.289 
			566.871,708.276 		"/>
	</g>
</g>
<path fill="#751113" d="M328.606,279.876c-7.088,30.981-27.465,54.627-62.364,46.644c-34.901-7.98-32.214-21.57-32.962-54.744
	c-0.718-31.785-0.472-29.853,50.505-24.04C332.88,253.323,335.692,248.903,328.606,279.876"/>
<path fill="#FFFFFF" d="M260.089,242.57c0.073-0.497,1.333,9.683,4.145,13.178c3.603,5.658,18.379,10.935,28.549,9.892
	c11.328-1.389,11.206-8.068,13.047-12.916c0.3-2.002,2.842-4.188,1.828-4.848"/>
<path fill="#FFFFFF" d="M405.361,184.205c0.488-2.139,0.983-4.29,0.983-4.29l-0.495,2.151l0.495-2.151
	c-4.227,3.547-7.325,9.604-8.795,16.03c0.488-2.137,2.12-1.768,2.12-1.768c3.731-1.397,5.062-14.631,8.294-13.892"/>
<g>
	<g>
		<g opacity="0.65">
			<defs>
				<rect id="SVGID_13_" x="392.776" y="168.227" opacity="0.65" width="33.354" height="42.825"/>
			</defs>
			<clipPath id="SVGID_14_">
				<use xlink:href="#SVGID_13_"  overflow="visible"/>
			</clipPath>
			<g clip-path="url(#SVGID_14_)">
				<g>
					<defs>
						<path id="SVGID_15_" d="M393.495,185.988c-2.667,11.651,2.316,22.729,11.134,24.746c8.814,2.015,18.124-5.799,20.786-17.445
							c2.663-11.646-2.318-22.73-11.132-24.745C405.464,166.525,396.156,174.343,393.495,185.988"/>
					</defs>
					<clipPath id="SVGID_16_">
						<use xlink:href="#SVGID_15_"  overflow="visible"/>
					</clipPath>
					
						<linearGradient id="SVGID_17_" gradientUnits="userSpaceOnUse" x1="186.8408" y1="134.6152" x2="189.284" y2="134.6152" gradientTransform="matrix(-3.8579 16.8643 16.8643 3.8579 -1140.4863 -3478.177)">
						<stop  offset="0" style="stop-color:#FFFFFF"/>
						<stop  offset="1" style="stop-color:#000000"/>
					</linearGradient>
					<polygon clip-path="url(#SVGID_16_)" fill="url(#SVGID_17_)" points="392.679,158.429 380.778,210.451 426.227,220.847 
						438.127,168.825 					"/>
				</g>
			</g>
		</g>
		<path fill="#231F20" d="M423.271,193.627c-2.265,9.906-10.169,16.548-17.664,14.833c-7.494-1.711-11.731-11.136-9.466-21.038
			c2.262-9.896,10.179-16.536,17.668-14.823C421.304,174.313,425.536,183.731,423.271,193.627"/>
		<path fill="#080809" d="M413.493,191.008c-1.65,7.218-6.534,12.254-10.91,11.255c-4.372-1.001-6.581-7.665-4.93-14.877
			c1.649-7.218,6.532-12.257,10.909-11.254C412.936,177.133,415.146,183.792,413.493,191.008"/>
		<g>
			<g>
				<defs>
					<path id="SVGID_18_" d="M399.099,183.694c-1.01,4.418,0.935,8.633,4.345,9.412c3.414,0.782,6.998-2.166,8.007-6.585
						c1.01-4.421-0.935-8.633-4.344-9.415c-0.371-0.086-0.741-0.125-1.112-0.125C402.947,176.981,400.001,179.752,399.099,183.694"
						/>
				</defs>
				<clipPath id="SVGID_19_">
					<use xlink:href="#SVGID_18_"  overflow="visible"/>
				</clipPath>
				
					<linearGradient id="SVGID_20_" gradientUnits="userSpaceOnUse" x1="182.3379" y1="146.438" x2="185.5276" y2="146.438" gradientTransform="matrix(1.1211 -4.9009 4.9009 1.1211 -516.5337 913.6459)">
					<stop  offset="0" style="stop-color:#FFFFFF"/>
					<stop  offset="1" style="stop-color:#BCBDC0"/>
				</linearGradient>
				<polygon clip-path="url(#SVGID_19_)" fill="url(#SVGID_20_)" points="394.414,193.047 398.803,173.857 416.134,177.822 
					411.745,197.011 				"/>
			</g>
		</g>
		<g opacity="0.65">
			<g>
				<g>
					<defs>
						<path id="SVGID_21_" d="M184.243,138.921c-2.672,11.668,2.323,22.765,11.15,24.784c8.83,2.019,18.152-5.808,20.82-17.472
							c2.668-11.664-2.322-22.765-11.146-24.784C196.232,119.427,186.909,127.257,184.243,138.921"/>
					</defs>
					<clipPath id="SVGID_22_">
						<use xlink:href="#SVGID_21_"  overflow="visible"/>
					</clipPath>
					
						<linearGradient id="SVGID_23_" gradientUnits="userSpaceOnUse" x1="186.8755" y1="126.0894" x2="189.3225" y2="126.0894" gradientTransform="matrix(-3.8579 16.8643 16.8643 3.8579 -1205.7988 -3492.9268)">
						<stop  offset="0" style="stop-color:#FFFFFF"/>
						<stop  offset="1" style="stop-color:#000000"/>
					</linearGradient>
					<polygon clip-path="url(#SVGID_22_)" fill="url(#SVGID_23_)" points="183.425,111.316 171.506,163.423 217.026,173.835 
						228.945,121.73 					"/>
				</g>
			</g>
		</g>
		<path fill="#231F20" d="M213.644,145.672c-2.264,9.905-10.17,16.549-17.665,14.833c-7.495-1.711-11.732-11.136-9.465-21.038
			c2.261-9.896,10.177-16.536,17.668-14.823C211.675,126.36,215.908,135.776,213.644,145.672"/>
		<path fill="#FFFFFF" d="M195.734,136.25c0.487-2.14,0.982-4.289,0.982-4.289l-0.495,2.149l0.495-2.149
			c-4.226,3.546-7.327,9.602-8.796,16.028c0.489-2.139,2.118-1.767,2.118-1.767c3.734-1.396,5.064-14.631,8.298-13.892"/>
		<g>
			<g>
				<path fill="#080809" d="M204.295,142.715c-1.652,7.218-6.534,12.255-10.909,11.254c-4.373-1.001-6.583-7.663-4.93-14.878
					c1.647-7.215,6.534-12.255,10.91-11.253C203.738,128.839,205.948,135.497,204.295,142.715"/>
				<g>
					<g>
						<defs>
							<path id="SVGID_24_" d="M190.845,136.667c-1.007,4.421,0.936,8.633,4.348,9.415c3.409,0.782,6.99-2.172,8.004-6.589
								c1.012-4.42-0.934-8.633-4.343-9.415c-0.371-0.083-0.74-0.125-1.11-0.125C194.697,129.954,191.748,132.729,190.845,136.667"
								/>
						</defs>
						<clipPath id="SVGID_25_">
							<use xlink:href="#SVGID_24_"  overflow="visible"/>
						</clipPath>
						
							<linearGradient id="SVGID_26_" gradientUnits="userSpaceOnUse" x1="182.2568" y1="117.2881" x2="185.4457" y2="117.2881" gradientTransform="matrix(1.1211 -4.9009 4.9009 1.1211 -581.8345 898.8959)">
							<stop  offset="0" style="stop-color:#FFFFFF"/>
							<stop  offset="1" style="stop-color:#BCBDC0"/>
						</linearGradient>
						<polygon clip-path="url(#SVGID_25_)" fill="url(#SVGID_26_)" points="186.162,146.022 190.552,126.83 207.884,130.794 
							203.494,149.987 						"/>
					</g>
				</g>
				<g>
					<g>
						<defs>
							<path id="SVGID_27_" d="M260.63,196.712c-1.515,6.615,5.036,13.757,14.625,15.952c9.586,2.194,18.589-1.394,20.105-8.007
								c1.51-6.618-5.464-17.279-15.054-19.478c-1.211-0.274-2.408-0.405-3.575-0.405
								C268.664,184.775,261.951,190.931,260.63,196.712"/>
						</defs>
						<clipPath id="SVGID_28_">
							<use xlink:href="#SVGID_27_"  overflow="visible"/>
						</clipPath>
						
							<linearGradient id="SVGID_29_" gradientUnits="userSpaceOnUse" x1="175.3022" y1="129.9336" x2="178.4908" y2="129.9336" gradientTransform="matrix(1.0839 -4.7383 4.7383 1.0839 -528.8835 894.8535)">
							<stop  offset="0" style="stop-color:#EFB730"/>
							<stop  offset="1" style="stop-color:#FBAD26"/>
						</linearGradient>
						<polygon clip-path="url(#SVGID_28_)" fill="url(#SVGID_29_)" points="252.575,213.362 260.994,176.568 303.411,186.271 
							294.993,223.066 						"/>
					</g>
				</g>
			</g>
		</g>
	</g>
</g>
</svg>
