<?xml version="1.0" encoding="utf-8"?>
<!-- Generator: Adobe Illustrator 16.2.1, SVG Export Plug-In . SVG Version: 6.00 Build 0)  -->
<!DOCTYPE svg PUBLIC "-//W3C//DTD SVG 1.1//EN" "http://www.w3.org/Graphics/SVG/1.1/DTD/svg11.dtd">
<svg version="1.1" id="Layer_1" xmlns="http://www.w3.org/2000/svg" xmlns:xlink="http://www.w3.org/1999/xlink" x="0px" y="0px"
	 width="612px" height="612px" viewBox="0 0 612 612" enable-background="new 0 0 612 612" xml:space="preserve">
<g>
	<g>
		<path fill="#B46D29" d="M564.254,491.03c1.303,20.911-70.536,42.396-160.453,47.989c-89.924,5.594-163.869-6.821-165.169-27.735
			c-1.301-20.911,70.537-42.396,160.454-47.989C489.007,457.701,562.955,470.12,564.254,491.03"/>
	</g>
	<g>
		<g>
			<defs>
				<path id="SVGID_1_" d="M9.185,347.213c-8.292,29.104,23.252,63.601,57.454,73.346c34.201,9.74,68.648-5.959,76.939-35.063
					c4.939-17.341-3.764-13.31-18.842-9.271c-10.229,2.729-23.394,5.472-37.213,1.528c-26.644-7.591-54.277-39.551-69.115-39.548
					C14.201,338.204,11.018,340.779,9.185,347.213"/>
			</defs>
			<clipPath id="SVGID_2_">
				<use xlink:href="#SVGID_1_"  overflow="visible"/>
			</clipPath>
			
				<linearGradient id="SVGID_3_" gradientUnits="userSpaceOnUse" x1="185.2324" y1="140.002" x2="188.5165" y2="140.002" gradientTransform="matrix(11.9513 17.005 -17.005 11.9513 220.1172 -4469.4702)">
				<stop  offset="0" style="stop-color:#EFB730"/>
				<stop  offset="1" style="stop-color:#FFD65A"/>
			</linearGradient>
			<polygon clip-path="url(#SVGID_2_)" fill="url(#SVGID_3_)" points="99.708,268.752 191.843,399.847 49.702,499.748 
				-42.433,368.65 			"/>
		</g>
	</g>
	<g>
		<g>
			<defs>
				<path id="SVGID_4_" d="M308.579,556.114C294.778,557.368,308.047,556.798,308.579,556.114"/>
			</defs>
			<clipPath id="SVGID_5_">
				<use xlink:href="#SVGID_4_"  overflow="visible"/>
			</clipPath>
			
				<linearGradient id="SVGID_6_" gradientUnits="userSpaceOnUse" x1="-1899.6328" y1="64.0449" x2="-1896.3514" y2="64.0449" gradientTransform="matrix(0 -0.1251 0.1251 0 293.6665 319.0015)">
				<stop  offset="0" style="stop-color:#EFB730"/>
				<stop  offset="1" style="stop-color:#FFD65A"/>
			</linearGradient>
			<rect x="294.778" y="556.114" clip-path="url(#SVGID_5_)" fill="url(#SVGID_6_)" width="13.801" height="1.254"/>
		</g>
	</g>
	<g>
		<g>
			<defs>
				<path id="SVGID_7_" d="M260.086,555.909c6.947,0.222,15.587,0.205,0.166-0.661C260.205,555.46,260.136,555.694,260.086,555.909"
					/>
			</defs>
			<clipPath id="SVGID_8_">
				<use xlink:href="#SVGID_7_"  overflow="visible"/>
			</clipPath>
			
				<linearGradient id="SVGID_9_" gradientUnits="userSpaceOnUse" x1="-1782.1733" y1="-93.4121" x2="-1778.8868" y2="-93.4121" gradientTransform="matrix(0 -0.1323 0.1323 0 280.238 320.0745)">
				<stop  offset="0" style="stop-color:#EFB730"/>
				<stop  offset="1" style="stop-color:#FFD65A"/>
			</linearGradient>
			<rect x="260.086" y="555.248" clip-path="url(#SVGID_8_)" fill="url(#SVGID_9_)" width="15.587" height="0.883"/>
		</g>
	</g>
	<g>
		<g>
			<defs>
				<path id="SVGID_10_" d="M279.589,2.068c-75.513,0.44-126.356,23.987-160.488,54.842c-0.269-0.814-0.542-1.626-0.867-2.436
					c-6.766-16.802-27.975-27.595-35.879-20.908c-5.433,4.591-18.151,23.137-11.387,39.936c3.619,8.995,9.915,15.826,16.98,19.455
					C56.98,138.992,51.22,187.841,51.22,200.695c0,136.239,131.596,406.379,168.869,406.379c18.392,0,35.311-30.312,39.997-51.165
					c-7.678-0.244-13.287-0.782,17.969-0.782c25.149,0,30.887,0.521,30.524,0.987c1.181-0.105,2.495-0.218,4.102-0.355
					c4.125,21.488,45.328,52.307,63.278,46.991c38.208-11.305,75.533-98.964,100.109-197.294
					c21.848,17.258,54.028,20.039,81.074,4.503c34.848-20.01,69.803-78.686,39.866-101.557
					c-34.448-26.319-34.108,43.6-72.593,55.164c-18.614,5.594-28.951,5.15-34.849,4.701c-3.086-0.229-4.959-0.465-6.165,0.17
					c8.833-48.842,21.481-128.79,21.481-167.742c0-14.931-5.712-69.534-40.998-117.719c3.563-4.111,6.438-9.1,8.225-14.801
					c6.094-19.445-6.839-44.843-19.278-44.708c-8.729,0.097-25.469,3.938-35.216,15c-32.225-21.6-76.147-36.402-135.905-36.406
					C281,2.061,280.301,2.065,279.589,2.068"/>
			</defs>
			<clipPath id="SVGID_11_">
				<use xlink:href="#SVGID_10_"  overflow="visible"/>
			</clipPath>
			
				<linearGradient id="SVGID_12_" gradientUnits="userSpaceOnUse" x1="183.749" y1="129.7148" x2="187.0335" y2="129.7148" gradientTransform="matrix(0 -102.2906 102.2906 0 -12929.4336 19234.8945)">
				<stop  offset="0" style="stop-color:#EFB730"/>
				<stop  offset="1" style="stop-color:#FFD65A"/>
			</linearGradient>
			<rect x="51.22" y="2.062" clip-path="url(#SVGID_11_)" fill="url(#SVGID_12_)" width="575.725" height="606.002"/>
		</g>
	</g>
	<g>
		<path fill="#751113" d="M321.386,291.973c0,34.83-15.991,65.074-55.229,65.074c-39.238,0-39.686-15.174-48.595-50.43
			c-8.536-33.785-7.8-31.782,48.084-38.028C319.461,262.559,321.386,257.15,321.386,291.973"/>
		<path fill="#FFFFFF" d="M239.064,270.863c-0.043-0.548,3.79,10.02,7.647,13.065c5.236,5.162,22.31,7.188,32.922,3.588
			c11.764-4.25,10-11.356,10.781-16.982c-0.17-2.218,2.011-5.17,0.768-5.63"/>
		<g>
			<g opacity="0.65">
				<defs>
					<rect id="SVGID_13_" x="367.435" y="151.5" opacity="0.65" width="36.79" height="48.632"/>
				</defs>
				<clipPath id="SVGID_14_">
					<use xlink:href="#SVGID_13_"  overflow="visible"/>
				</clipPath>
				<g clip-path="url(#SVGID_14_)">
					<g>
						<defs>
							<path id="SVGID_15_" d="M367.435,175.816c-0.002,13.429,8.235,24.316,18.394,24.316c10.164,0,18.396-10.892,18.396-24.316
								c0-13.425-8.232-24.316-18.391-24.316C375.67,151.5,367.433,162.391,367.435,175.816"/>
						</defs>
						<clipPath id="SVGID_16_">
							<use xlink:href="#SVGID_15_"  overflow="visible"/>
						</clipPath>
						
							<linearGradient id="SVGID_17_" gradientUnits="userSpaceOnUse" x1="185.5356" y1="132.2959" x2="188.1164" y2="132.2959" gradientTransform="matrix(0 18.4115 18.4115 0 -2049.9346 -3237.3464)">
							<stop  offset="0" style="stop-color:#FFFFFF"/>
							<stop  offset="1" style="stop-color:#000000"/>
						</linearGradient>
						<rect x="367.433" y="151.5" clip-path="url(#SVGID_16_)" fill="url(#SVGID_17_)" width="36.792" height="48.632"/>
					</g>
				</g>
			</g>
		</g>
		<path fill="#231F20" d="M401.443,176.689c0,11.137-6.821,20.166-15.247,20.166c-8.425,0-15.257-9.028-15.257-20.166
			c0-11.123,6.832-20.151,15.257-20.151C394.622,156.539,401.443,165.567,401.443,176.689"/>
		<path fill="#FFFFFF" d="M380.007,171v-4.824v2.42v-2.42c-3.646,4.824-5.478,12.053-5.478,19.279c0-2.407,1.831-2.407,1.831-2.407
			c3.646-2.409,1.831-16.872,5.468-16.872"/>
		<g>
			<g opacity="0.65">
				<g>
					<g>
						<defs>
							<path id="SVGID_18_" d="M132.451,175.783c-0.002,13.258,8.126,24.002,18.158,24.002c10.031,0,18.16-10.75,18.16-24.002
								c0-13.25-8.129-24.003-18.155-24.003C140.578,151.78,132.449,162.533,132.451,175.783"/>
						</defs>
						<clipPath id="SVGID_19_">
							<use xlink:href="#SVGID_18_"  overflow="visible"/>
						</clipPath>
						
							<linearGradient id="SVGID_20_" gradientUnits="userSpaceOnUse" x1="185.521" y1="123.3896" x2="188.0687" y2="123.3896" gradientTransform="matrix(0 18.4115 18.4115 0 -2121.1846 -3237.1433)">
							<stop  offset="0" style="stop-color:#FFFFFF"/>
							<stop  offset="1" style="stop-color:#000000"/>
						</linearGradient>
						<rect x="132.449" y="151.78" clip-path="url(#SVGID_19_)" fill="url(#SVGID_20_)" width="36.32" height="48.005"/>
					</g>
				</g>
			</g>
			<path fill="#231F20" d="M165.762,176.689c0,11.137-6.822,20.166-15.249,20.166c-8.424,0-15.255-9.028-15.255-20.166
				c0-11.123,6.831-20.151,15.255-20.151C158.94,156.539,165.762,165.567,165.762,176.689"/>
			<path fill="#080809" d="M390.356,176.282c0,8.113-3.986,14.69-8.903,14.69c-4.92,0-8.906-6.578-8.906-14.69
				c0-8.111,3.986-14.69,8.906-14.69C386.37,161.592,390.356,168.171,390.356,176.282"/>
			<g>
				<g>
					<defs>
						<path id="SVGID_21_" d="M373.191,171.984c0,4.97,3.104,8.997,6.942,8.997c3.833,0,6.938-4.027,6.938-8.997
							c0-4.969-3.104-8.995-6.938-8.995C376.296,162.99,373.191,167.015,373.191,171.984"/>
					</defs>
					<clipPath id="SVGID_22_">
						<use xlink:href="#SVGID_21_"  overflow="visible"/>
					</clipPath>
					
						<linearGradient id="SVGID_23_" gradientUnits="userSpaceOnUse" x1="186.8853" y1="138.3809" x2="190.1695" y2="138.3809" gradientTransform="matrix(0 -5.3505 5.3505 0 -360.2751 1170.8706)">
						<stop  offset="0" style="stop-color:#FFFFFF"/>
						<stop  offset="1" style="stop-color:#BCBDC0"/>
					</linearGradient>
					<rect x="373.191" y="162.99" clip-path="url(#SVGID_22_)" fill="url(#SVGID_23_)" width="13.881" height="17.991"/>
				</g>
			</g>
			<path fill="#FFFFFF" d="M144.325,171v-4.824v2.42v-2.42c-3.645,4.824-5.478,12.053-5.478,19.279c0-2.407,1.833-2.407,1.833-2.407
				c3.645-2.409,1.828-16.872,5.468-16.872"/>
			<g>
				<path fill="#080809" d="M155.054,175.815c0,8.111-3.988,14.689-8.905,14.689c-4.918,0-8.907-6.578-8.907-14.689
					c0-8.112,3.988-14.69,8.907-14.69C151.065,161.125,155.054,167.703,155.054,175.815"/>
			</g>
			<g>
				<g>
					<defs>
						<path id="SVGID_24_" d="M139.207,172.642c0,4.968,3.106,8.995,6.939,8.995c3.839,0,6.943-4.027,6.943-8.995
							c0-4.97-3.104-8.996-6.943-8.996C142.313,163.646,139.207,167.672,139.207,172.642"/>
					</defs>
					<clipPath id="SVGID_25_">
						<use xlink:href="#SVGID_24_"  overflow="visible"/>
					</clipPath>
					
						<linearGradient id="SVGID_26_" gradientUnits="userSpaceOnUse" x1="186.7988" y1="107.9653" x2="190.0821" y2="107.9653" gradientTransform="matrix(0 -5.3505 5.3505 0 -431.5212 1171.0698)">
						<stop  offset="0" style="stop-color:#FFFFFF"/>
						<stop  offset="1" style="stop-color:#BCBDC0"/>
					</linearGradient>
					<rect x="139.207" y="163.646" clip-path="url(#SVGID_25_)" fill="url(#SVGID_26_)" width="13.882" height="17.991"/>
				</g>
			</g>
		</g>
		<g>
			<g>
				<defs>
					<path id="SVGID_27_" d="M228.434,219.737c0,7.439,8.743,13.468,19.524,13.468c10.783,0,19.522-6.029,19.522-13.468
						c0-7.442-10.056-17.126-20.842-17.126C235.856,202.61,228.434,212.294,228.434,219.737"/>
				</defs>
				<clipPath id="SVGID_28_">
					<use xlink:href="#SVGID_27_"  overflow="visible"/>
				</clipPath>
				
					<linearGradient id="SVGID_29_" gradientUnits="userSpaceOnUse" x1="179.7017" y1="120.9175" x2="182.9862" y2="120.9175" gradientTransform="matrix(0 -5.173 5.173 0 -377.5522 1154.3091)">
					<stop  offset="0" style="stop-color:#EFB730"/>
					<stop  offset="1" style="stop-color:#FBAD26"/>
				</linearGradient>
				<rect x="228.434" y="202.61" clip-path="url(#SVGID_28_)" fill="url(#SVGID_29_)" width="39.046" height="30.595"/>
			</g>
		</g>
	</g>
</g>
</svg>
