<?xml version="1.0" encoding="utf-8"?>
<!-- Generator: Adobe Illustrator 16.2.1, SVG Export Plug-In . SVG Version: 6.00 Build 0)  -->
<!DOCTYPE svg PUBLIC "-//W3C//DTD SVG 1.1//EN" "http://www.w3.org/Graphics/SVG/1.1/DTD/svg11.dtd">
<svg version="1.1" id="Layer_1" xmlns="http://www.w3.org/2000/svg" xmlns:xlink="http://www.w3.org/1999/xlink" x="0px" y="0px"
	 width="612px" height="612px" viewBox="0 0 612 612" enable-background="new 0 0 612 612" xml:space="preserve">
<g>
	<g>
		<path fill="#B46D29" d="M586.896,491.073c1.324,21.348-72.01,43.281-163.801,48.988c-91.788,5.714-167.276-6.966-168.604-28.311
			c-1.331-21.348,72.005-43.277,163.799-48.988C510.079,457.052,585.568,469.726,586.896,491.073"/>
	</g>
	<g>
		<defs>
			<path id="SVGID_1_" d="M55.689,274.367c-25.94,16.786-24.895,64.494-5.174,94.972c19.723,30.476,56.742,41.569,82.678,24.783
				c25.94-16.785-18.136-13.154-37.86-43.63c-17.453-26.967-14.751-78.944-31.86-78.941
				C61.242,271.551,58.675,272.435,55.689,274.367"/>
		</defs>
		<clipPath id="SVGID_2_">
			<use xlink:href="#SVGID_1_"  overflow="visible"/>
		</clipPath>
		
			<linearGradient id="SVGID_3_" gradientUnits="userSpaceOnUse" x1="185.4048" y1="476.4668" x2="188.6266" y2="476.4668" gradientTransform="matrix(-2.2944 21.5061 21.5061 2.2944 -9723.7969 -4770.3438)">
			<stop  offset="0" style="stop-color:#EFB730"/>
			<stop  offset="1" style="stop-color:#FFD65A"/>
		</linearGradient>
		<polygon clip-path="url(#SVGID_2_)" fill="url(#SVGID_3_)" points="173.832,273.116 157.676,424.557 15.049,409.341 31.206,257.9 
					"/>
	</g>
	<g>
		<defs>
			<path id="SVGID_4_" d="M333.853,501.812C319.764,502.866,333.309,502.388,333.853,501.812"/>
		</defs>
		<clipPath id="SVGID_5_">
			<use xlink:href="#SVGID_4_"  overflow="visible"/>
		</clipPath>
		
			<linearGradient id="SVGID_6_" gradientUnits="userSpaceOnUse" x1="-991.8232" y1="354.1211" x2="-988.6007" y2="354.1211" gradientTransform="matrix(0 -0.1071 -0.1071 0 364.73 396.0532)">
			<stop  offset="0" style="stop-color:#EFB730"/>
			<stop  offset="1" style="stop-color:#FFD65A"/>
		</linearGradient>
		<rect x="319.764" y="501.812" clip-path="url(#SVGID_5_)" fill="url(#SVGID_6_)" width="14.089" height="1.055"/>
	</g>
	<g>
		<defs>
			<path id="SVGID_7_" d="M284.352,501.639c7.092,0.188,15.91,0.173,0.166-0.554C284.468,501.265,284.4,501.459,284.352,501.639"/>
		</defs>
		<clipPath id="SVGID_8_">
			<use xlink:href="#SVGID_7_"  overflow="visible"/>
		</clipPath>
		
			<linearGradient id="SVGID_9_" gradientUnits="userSpaceOnUse" x1="-923.8599" y1="551.1602" x2="-920.6453" y2="551.1602" gradientTransform="matrix(0 -0.1132 -0.1132 0 354.7057 396.9684)">
			<stop  offset="0" style="stop-color:#EFB730"/>
			<stop  offset="1" style="stop-color:#FFD65A"/>
		</linearGradient>
		<rect x="284.352" y="501.085" clip-path="url(#SVGID_8_)" fill="url(#SVGID_9_)" width="15.91" height="0.742"/>
	</g>
	<g>
		<defs>
			<path id="SVGID_10_" d="M304.26,36.562c-77.085,0.371-128.99,20.141-163.831,46.051c-0.277-0.685-0.554-1.367-0.889-2.047
				c-6.905-14.105-28.555-23.171-36.63-17.555C97.37,66.868,84.385,82.439,91.29,96.547c3.698,7.553,10.123,13.29,17.333,16.334
				c-31.613,38.659-37.492,79.681-37.492,90.473c0,114.404,134.337,341.251,172.384,341.251c18.777,0,36.049-25.451,40.836-42.967
				c-7.837-0.201-13.567-0.657,18.34-0.657c25.67,0,31.536,0.44,31.161,0.83c1.202-0.085,2.549-0.183,4.188-0.296
				c4.206,18.045,46.612,44.788,64.597,39.459c82.548-24.463,131.614-304.908,131.614-337.621c0-12.535-5.836-58.386-41.855-98.848
				c3.638-3.455,6.569-7.646,8.392-12.431c6.224-16.328-6.982-37.66-19.678-37.543c-8.903,0.077-25.998,3.308-35.946,12.595
				c-32.898-18.139-77.73-30.57-138.733-30.57C305.708,36.556,304.985,36.559,304.26,36.562"/>
		</defs>
		<clipPath id="SVGID_11_">
			<use xlink:href="#SVGID_10_"  overflow="visible"/>
		</clipPath>
		
			<linearGradient id="SVGID_12_" gradientUnits="userSpaceOnUse" x1="184.3389" y1="483.0186" x2="187.5604" y2="483.0186" gradientTransform="matrix(0 -87.5589 -87.5589 0 42595.25 16544)">
			<stop  offset="0" style="stop-color:#EFB730"/>
			<stop  offset="1" style="stop-color:#FFD65A"/>
		</linearGradient>
		<rect x="71.131" y="36.556" clip-path="url(#SVGID_11_)" fill="url(#SVGID_12_)" width="463.121" height="509.748"/>
	</g>
	<g>
		<path fill="#751113" d="M370.105,341.547c0,24.347-16.327,45.483-56.376,45.483c-40.058,0-40.516-10.606-49.61-35.248
			c-8.712-23.616-7.961-22.216,49.084-26.58C368.139,320.986,370.105,317.207,370.105,341.547"/>
		<path fill="#FFFFFF" d="M286.373,325.607c-0.058-0.591,4.172,10.934,8.212,14.373c5.509,5.773,23.055,8.678,33.818,5.254
			c11.922-4.074,9.911-11.792,10.55-17.805c-0.242-2.388,1.906-5.475,0.623-6.019"/>
		<path fill="#231F20" d="M451.831,233.217c0,11.368-6.966,20.585-15.565,20.585c-8.599,0-15.574-9.217-15.574-20.585
			c0-11.356,6.976-20.574,15.574-20.574C444.865,212.644,451.831,221.861,451.831,233.217"/>
		<path fill="#FFFFFF" d="M429.948,227.409v-4.925v2.471v-2.471c-3.722,4.925-5.591,12.304-5.591,19.679
			c0-2.454,1.869-2.454,1.869-2.454c3.722-2.459,1.868-17.225,5.581-17.225"/>
		<path fill="#080809" d="M440.514,232.802c0,8.279-4.068,14.994-9.09,14.994s-9.09-6.714-9.09-14.994
			c0-8.281,4.068-14.996,9.09-14.996S440.514,224.521,440.514,232.802"/>
		<g opacity="0.65">
			<g>
				<defs>
					<rect id="SVGID_13_" x="412.011" y="190.887" width="47.812" height="63.199"/>
				</defs>
				<clipPath id="SVGID_14_">
					<use xlink:href="#SVGID_13_"  overflow="visible"/>
				</clipPath>
				<g clip-path="url(#SVGID_14_)">
					<defs>
						<path id="SVGID_15_" d="M412.011,222.485c-0.006,17.453,10.701,31.6,23.903,31.6c13.205,0,23.908-14.154,23.908-31.6
							c-0.003-17.442-10.703-31.599-23.902-31.599C422.712,190.887,412.005,205.043,412.011,222.485"/>
					</defs>
					<clipPath id="SVGID_16_">
						<use xlink:href="#SVGID_15_"  overflow="visible"/>
					</clipPath>
					
						<linearGradient id="SVGID_17_" gradientUnits="userSpaceOnUse" x1="181.6401" y1="478.2891" x2="184.8619" y2="478.2891" gradientTransform="matrix(0 19.1587 -19.1587 0 9599.3125 -3253.8125)">
						<stop  offset="0" style="stop-color:#FFFFFF"/>
						<stop  offset="1" style="stop-color:#000000"/>
					</linearGradient>
					<rect x="412.005" y="190.887" clip-path="url(#SVGID_16_)" fill="url(#SVGID_17_)" width="47.817" height="63.199"/>
				</g>
			</g>
		</g>
	</g>
	<g>
		<defs>
			<path id="SVGID_18_" d="M422.988,228.415c0,5.07,3.175,9.181,7.089,9.181c3.911,0,7.089-4.111,7.089-9.181
				c0-5.072-3.178-9.183-7.089-9.183C426.163,219.232,422.988,223.343,422.988,228.415"/>
		</defs>
		<clipPath id="SVGID_19_">
			<use xlink:href="#SVGID_18_"  overflow="visible"/>
		</clipPath>
		
			<linearGradient id="SVGID_20_" gradientUnits="userSpaceOnUse" x1="196.4175" y1="467.5156" x2="199.6387" y2="467.5156" gradientTransform="matrix(0 -5.5676 -5.5676 0 3033.0391 1320.9258)">
			<stop  offset="0" style="stop-color:#FFFFFF"/>
			<stop  offset="1" style="stop-color:#BCBDC0"/>
		</linearGradient>
		<rect x="422.988" y="219.232" clip-path="url(#SVGID_19_)" fill="url(#SVGID_20_)" width="14.178" height="18.365"/>
	</g>
	<g>
		<path fill="#231F20" d="M211.241,233.217c0,11.368-6.966,20.585-15.565,20.585c-8.602,0-15.575-9.217-15.575-20.585
			c0-11.356,6.973-20.574,15.575-20.574C204.274,212.644,211.241,221.861,211.241,233.217"/>
		<path fill="#FFFFFF" d="M189.358,227.409v-4.925v2.471v-2.471c-3.722,4.925-5.594,12.304-5.594,19.679
			c0-2.454,1.872-2.454,1.872-2.454c3.722-2.459,1.869-17.225,5.58-17.225"/>
		<g opacity="0.65">
			<g>
				<defs>
					<rect id="SVGID_21_" x="173.153" y="191.557" width="47.812" height="63.195"/>
				</defs>
				<clipPath id="SVGID_22_">
					<use xlink:href="#SVGID_21_"  overflow="visible"/>
				</clipPath>
				<g clip-path="url(#SVGID_22_)">
					<defs>
						<path id="SVGID_23_" d="M173.151,223.156c-0.003,17.453,10.699,31.597,23.906,31.597c13.204,0,23.909-14.154,23.909-31.597
							c-0.003-17.447-10.706-31.599-23.906-31.599C183.85,191.557,173.148,205.709,173.151,223.156"/>
					</defs>
					<clipPath id="SVGID_24_">
						<use xlink:href="#SVGID_23_"  overflow="visible"/>
					</clipPath>
					
						<linearGradient id="SVGID_25_" gradientUnits="userSpaceOnUse" x1="181.6631" y1="486.8877" x2="184.8844" y2="486.8877" gradientTransform="matrix(0 19.1587 -19.1587 0 9525.1875 -3253.6094)">
						<stop  offset="0" style="stop-color:#FFFFFF"/>
						<stop  offset="1" style="stop-color:#000000"/>
					</linearGradient>
					<rect x="173.148" y="191.557" clip-path="url(#SVGID_24_)" fill="url(#SVGID_25_)" width="47.818" height="63.195"/>
				</g>
			</g>
		</g>
		<path fill="#080809" d="M200.309,232.324c0,8.281-4.07,14.996-9.09,14.996c-5.023,0-9.091-6.714-9.091-14.996
			c0-8.279,4.068-14.994,9.091-14.994C196.239,217.33,200.309,224.044,200.309,232.324"/>
	</g>
	<g>
		<defs>
			<path id="SVGID_26_" d="M184.13,229.085c0,5.07,3.174,9.181,7.088,9.181s7.084-4.11,7.084-9.181c0-5.072-3.17-9.183-7.084-9.183
				S184.13,224.013,184.13,229.085"/>
		</defs>
		<clipPath id="SVGID_27_">
			<use xlink:href="#SVGID_26_"  overflow="visible"/>
		</clipPath>
		
			<linearGradient id="SVGID_28_" gradientUnits="userSpaceOnUse" x1="196.332" y1="497.1016" x2="199.5538" y2="497.1016" gradientTransform="matrix(0 -5.5676 -5.5676 0 2958.9023 1321.1367)">
			<stop  offset="0" style="stop-color:#FFFFFF"/>
			<stop  offset="1" style="stop-color:#BCBDC0"/>
		</linearGradient>
		<rect x="184.13" y="219.902" clip-path="url(#SVGID_27_)" fill="url(#SVGID_28_)" width="14.172" height="18.365"/>
	</g>
	<g>
		<defs>
			<path id="SVGID_29_" d="M275.218,277.161c0,7.595,8.922,13.75,19.931,13.75c11.006,0,19.928-6.154,19.928-13.75
				c0-7.597-10.266-17.486-21.274-17.486C282.796,259.675,275.218,269.564,275.218,277.161"/>
		</defs>
		<clipPath id="SVGID_30_">
			<use xlink:href="#SVGID_29_"  overflow="visible"/>
		</clipPath>
		
			<linearGradient id="SVGID_31_" gradientUnits="userSpaceOnUse" x1="189.7744" y1="484.2705" x2="192.9959" y2="484.2705" gradientTransform="matrix(0 -5.3829 -5.3829 0 2901.9258 1303.7891)">
			<stop  offset="0" style="stop-color:#EFB730"/>
			<stop  offset="1" style="stop-color:#FBAD26"/>
		</linearGradient>
		<rect x="275.218" y="259.675" clip-path="url(#SVGID_30_)" fill="url(#SVGID_31_)" width="39.858" height="31.235"/>
	</g>
	<g>
		<path fill="#010101" d="M465.203,133.334c-46.827,0.313-91.948,14.95-137.907,20.8c-19.18,2.442-38.953,3.041-58.165,0.77
			c-25.546-3.019-50.28-11.041-75.811-14.637c-22.812-3.212-45.918-6.566-68.876-6.702c-40.121-0.238-78.926,12.324-118.258,19.106
			c0,11.504-2.335,26.275,3.544,34.361c6.065,8.341,16.296,15.967,18.952,27.272c6.294,26.807,15.233,53.083,26.657,78.276
			c5.55,12.242,16.032,20.778,27.733,26.655c28.182,14.159,61.534,16.238,92.45,11.786c44.026-6.34,67.91-39.373,86.132-77.118
			c6.821-15.342,7.581-33.049,16.564-47.074c5.336-8.328,17.726-4.823,26.58-4.852c13.187-0.045,16.357,14.695,19.104,24.499
			c9.729,34.693,25.944,71.499,58.169,89.675c48.123,27.146,123.94,22.068,155.165-26.886
			c12.217-19.159,15.593-42.409,21.722-64.098c3.731-13.207,7.067-28.951,20.342-36.21c5.354-2.932,1.598-14.624,2.388-21.418
			c0.859-7.405,2.523-13.954-8.014-15.408c-18.375-2.539-36.202-10.255-55.008-12.868
			C500.848,136.791,483.383,133.211,465.203,133.334 M155.648,145.662c13.29-0.085,26.525,0.889,39.446,3.621
			c76.973,16.279,78.529,47.993,46.842,113.559c-25.823,53.425-79.31,66.812-133.208,54.007
			c-24.844-5.902-41.832-23.249-49.844-46.995c-8.458-25.067-14.854-51.701-13.407-78.046c1.94-35.278,41.845-40.237,70.417-43.449
			C129.003,146.882,142.355,145.745,155.648,145.662 M436.697,145.662c13.29,0.083,26.64,1.221,39.754,2.696
			c28.571,3.212,68.477,8.171,70.415,43.449c1.447,26.346-4.949,52.979-13.407,78.046c-8.01,23.747-25,41.093-49.844,46.995
			c-53.896,12.806-107.388-0.582-133.206-54.007c-31.687-65.566-30.133-97.28,46.843-113.559
			C410.17,146.55,423.407,145.577,436.697,145.662"/>
		<path fill="none" stroke="#010101" d="M465.203,133.334c-46.827,0.313-91.948,14.95-137.907,20.8
			c-19.18,2.442-38.953,3.041-58.165,0.77c-25.546-3.019-50.28-11.041-75.811-14.637c-22.812-3.212-45.918-6.566-68.876-6.702
			c-40.121-0.238-78.926,12.324-118.258,19.106c0,11.504-2.335,26.275,3.544,34.361c6.065,8.341,16.296,15.967,18.952,27.272
			c6.294,26.807,15.233,53.083,26.657,78.276c5.55,12.242,16.032,20.778,27.733,26.655c28.182,14.159,61.534,16.238,92.45,11.786
			c44.026-6.34,67.91-39.373,86.132-77.118c6.821-15.342,7.581-33.049,16.564-47.074c5.336-8.328,17.726-4.823,26.58-4.852
			c13.187-0.045,16.357,14.695,19.104,24.499c9.729,34.693,25.944,71.499,58.169,89.675c48.123,27.146,123.94,22.068,155.165-26.886
			c12.217-19.159,15.593-42.409,21.722-64.098c3.731-13.207,7.067-28.951,20.342-36.21c5.354-2.932,1.598-14.624,2.388-21.418
			c0.859-7.405,2.523-13.954-8.014-15.408c-18.375-2.539-36.202-10.255-55.008-12.868
			C500.848,136.791,483.383,133.211,465.203,133.334z M155.648,145.662c13.29-0.085,26.525,0.889,39.446,3.621
			c76.973,16.279,78.529,47.993,46.842,113.559c-25.823,53.425-79.31,66.812-133.208,54.007
			c-24.844-5.902-41.832-23.249-49.844-46.995c-8.458-25.067-14.854-51.701-13.407-78.046c1.94-35.278,41.845-40.237,70.417-43.449
			C129.003,146.882,142.355,145.745,155.648,145.662z M436.697,145.662c13.29,0.083,26.64,1.221,39.754,2.696
			c28.571,3.212,68.477,8.171,70.415,43.449c1.447,26.346-4.949,52.979-13.407,78.046c-8.01,23.747-25,41.093-49.844,46.995
			c-53.896,12.806-107.388-0.582-133.206-54.007c-31.687-65.566-30.133-97.28,46.843-113.559
			C410.17,146.55,423.407,145.577,436.697,145.662z"/>
		<g opacity="0.85" enable-background="new    ">
			<g>
				<defs>
					<rect id="SVGID_32_" x="43.627" y="144.073" width="219.312" height="178.923"/>
				</defs>
				<clipPath id="SVGID_33_">
					<use xlink:href="#SVGID_32_"  overflow="visible"/>
				</clipPath>
				<path clip-path="url(#SVGID_33_)" fill="#010101" d="M115.883,148.383c26.223-2.946,53.357-4.545,79.196,0.922
					c76.973,16.281,78.523,47.996,46.836,113.564c-25.82,53.423-79.279,66.814-133.178,54.008
					c-24.843-5.902-41.843-23.308-49.855-47.055c-8.458-25.067-14.889-51.685-13.441-78.03
					C47.381,156.513,87.313,151.595,115.883,148.383z"/>
				<path clip-path="url(#SVGID_33_)" fill="none" stroke="#010101" d="M115.883,148.383c26.223-2.946,53.357-4.545,79.196,0.922
					c76.973,16.281,78.523,47.996,46.836,113.564c-25.82,53.423-79.279,66.814-133.178,54.008
					c-24.843-5.902-41.843-23.308-49.855-47.055c-8.458-25.067-14.889-51.685-13.441-78.03
					C47.381,156.513,87.313,151.595,115.883,148.383z"/>
			</g>
		</g>
		<g opacity="0.85" enable-background="new    ">
			<g>
				<defs>
					<rect id="SVGID_34_" x="329.382" y="144.073" width="219.309" height="178.923"/>
				</defs>
				<clipPath id="SVGID_35_">
					<use xlink:href="#SVGID_34_"  overflow="visible"/>
				</clipPath>
				<path clip-path="url(#SVGID_35_)" fill="#010101" d="M476.436,148.383c-26.225-2.946-53.359-4.545-79.196,0.922
					c-76.976,16.281-78.523,47.996-46.837,113.564c25.819,53.423,79.281,66.814,133.178,54.008
					c24.844-5.902,41.844-23.308,49.854-47.055c8.457-25.067,14.888-51.685,13.444-78.03
					C544.938,156.513,505.007,151.595,476.436,148.383z"/>
				<path clip-path="url(#SVGID_35_)" fill="none" stroke="#010101" d="M476.436,148.383c-26.225-2.946-53.359-4.545-79.196,0.922
					c-76.976,16.281-78.523,47.996-46.837,113.564c25.819,53.423,79.281,66.814,133.178,54.008
					c24.844-5.902,41.844-23.308,49.854-47.055c8.457-25.067,14.888-51.685,13.444-78.03
					C544.938,156.513,505.007,151.595,476.436,148.383z"/>
			</g>
		</g>
	</g>
	<g>
		<defs>
			<path id="SVGID_36_" d="M548.062,305.506c-16.653,32.253-60.762,33.005-33.396,47.132c27.367,14.127,63.053-0.566,79.703-32.825
				c16.653-32.256,13.102-79.804-14.266-93.931c-2.746-1.414-5.1-2.072-7.123-2.072
				C554.848,223.804,563.041,276.487,548.062,305.506"/>
		</defs>
		<clipPath id="SVGID_37_">
			<use xlink:href="#SVGID_36_"  overflow="visible"/>
		</clipPath>
		
			<linearGradient id="SVGID_38_" gradientUnits="userSpaceOnUse" x1="184.8599" y1="475.2578" x2="188.0816" y2="475.2578" gradientTransform="matrix(4.3458 21.1594 -21.132 4.4084 9782.7969 -5741.2344)">
			<stop  offset="0" style="stop-color:#EFB730"/>
			<stop  offset="1" style="stop-color:#FFD65A"/>
		</linearGradient>
		<polygon clip-path="url(#SVGID_37_)" fill="url(#SVGID_38_)" points="459.143,229.678 492.384,391.518 639.176,360.894 
			605.938,199.055 		"/>
	</g>
	<g>
		<defs>
			<path id="SVGID_39_" d="M161.082,488.012c-12.552,12.359-5.167,40.217,16.493,62.226c21.663,22.002,49.407,29.82,61.959,17.462
				c12.556-12.359,5.168-40.217-16.493-62.222c-14.698-14.927-32.19-23.327-45.841-23.327
				C170.729,482.15,165.119,484.038,161.082,488.012"/>
		</defs>
		<clipPath id="SVGID_40_">
			<use xlink:href="#SVGID_39_"  overflow="visible"/>
		</clipPath>
		
			<linearGradient id="SVGID_41_" gradientUnits="userSpaceOnUse" x1="176.2002" y1="479.6934" x2="179.4221" y2="479.6934" gradientTransform="matrix(14.1111 -13.8918 -11.4644 -11.6453 3192.2188 8585.7969)">
			<stop  offset="0" style="stop-color:#EFB730"/>
			<stop  offset="1" style="stop-color:#FFD65A"/>
		</linearGradient>
		<polygon clip-path="url(#SVGID_40_)" fill="url(#SVGID_41_)" points="99.581,530.34 201.12,430.378 301.037,531.872 
			199.499,631.834 		"/>
	</g>
	<g>
		<defs>
			<path id="SVGID_42_" d="M388.895,484.038c-30.276,6.075-52.009,25.004-48.541,42.28c3.464,17.273,30.821,26.348,61.096,20.269
				c30.276-6.075,52.005-25.004,48.541-42.28c-2.737-13.633-20.356-22.156-42.548-22.156
				C401.521,482.15,395.27,482.755,388.895,484.038"/>
		</defs>
		<clipPath id="SVGID_43_">
			<use xlink:href="#SVGID_42_"  overflow="visible"/>
		</clipPath>
		
			<linearGradient id="SVGID_44_" gradientUnits="userSpaceOnUse" x1="176.5874" y1="480.9238" x2="179.809" y2="480.9238" gradientTransform="matrix(-3.897 -19.4144 -16.0219 3.2161 8794.5312 2428.2891)">
			<stop  offset="0" style="stop-color:#EFB730"/>
			<stop  offset="1" style="stop-color:#FFD65A"/>
		</linearGradient>
		<polygon clip-path="url(#SVGID_43_)" fill="url(#SVGID_44_)" points="341.397,575.159 323.278,484.882 448.939,459.657 
			467.06,549.935 		"/>
	</g>
</g>
</svg>
