<?xml version="1.0" encoding="utf-8"?>
<!-- Generator: Adobe Illustrator 16.2.1, SVG Export Plug-In . SVG Version: 6.00 Build 0)  -->
<!DOCTYPE svg PUBLIC "-//W3C//DTD SVG 1.1//EN" "http://www.w3.org/Graphics/SVG/1.1/DTD/svg11.dtd">
<svg version="1.1" id="Layer_1" xmlns="http://www.w3.org/2000/svg" xmlns:xlink="http://www.w3.org/1999/xlink" x="0px" y="0px"
	 width="612px" height="612px" viewBox="0 0 612 612" enable-background="new 0 0 612 612" xml:space="preserve">
<path fill="#A391C5" d="M289.161,217.928c-13.171-1.8-26.156-2.039-38.746-0.886c-68.916,6.321-125.864,54.619-134.83,120.187
	c-1.829,13.367-1.496,26.571,0.667,39.349c10.381,61.324,63.945,112.533,134.501,122.184
	c85.257,11.662,162.969-41.747,173.58-119.294C434.938,301.918,374.418,229.6,289.161,217.928z"/>
<path fill="#CCA6CE" d="M182.662,93.986c0,0,69.075,41.438,51.083,134.562l34.83-9.27
	C268.575,219.279,300.016,129.746,182.662,93.986z"/>
<g>
	<path fill="#736BB1" d="M182.662,93.986c0,0,20.979,22.682,3.09,65.877c-17.889,43.195-22.006,67.86,7.202,79.545l23.131-5.312
		C245.73,139.095,182.662,93.986,182.662,93.986z"/>
	<path fill="#6A56A0" d="M182.662,93.986c0,0,59.884,45.109,30.24,140.11l20.843-5.548
		C251.737,135.424,182.662,93.986,182.662,93.986z"/>
</g>
<path fill="#CCA6CE" d="M446.634,143.058c-119.643-10.804-124.791,90.428-124.791,90.428s16.436,32.158,41.217,43.106
	C337.515,153.266,446.634,143.058,446.634,143.058z"/>
<g>
	<path fill="#736BB1" d="M361.742,262.329c0,4.21,4.576,12.473,4.361,15.46c8.679,3.127,18.287,3.559,28.514-0.891
		c41.414-18.006,27.91-41.114,27.91-78.927c0-7.793,1.06-14.663,2.686-20.73C403.794,183.182,361.742,198.046,361.742,262.329z"/>
	<path fill="#6A56A0" d="M425.213,177.241c6.266-23.356,21.421-34.183,21.421-34.183s-109.119,10.208-83.574,133.535
		c0.999,0.441,2.017,0.83,3.044,1.196c0.215-2.987,0.333-6.555,0.333-10.766C366.437,202.74,403.794,183.182,425.213,177.241z"/>
</g>
<g>
	<path fill="#736BB1" d="M462.243,536.387c74.711-24.411,56.016-85.628,56.016-85.628s9.96,37.387-68.953,22.639
		c-78.912-14.746-105.931,32.58-105.931,32.58l23.062,29.785l7.778-16.581C374.215,519.182,421.827,549.591,462.243,536.387z"/>
	<path fill="#6A56A0" d="M503.517,533.741c41.967-41.967,14.742-82.982,14.742-82.982s18.695,58.079-56.016,82.49
		c-40.416,13.204-88.028-14.067-88.028-14.067l-7.778,16.581l4.173,5.392C401.422,560.727,461.549,575.708,503.517,533.741z"/>
</g>
<path fill="#A391C5" d="M329.195,548.789c-82.963,47.561-156.052-15.048-156.052-15.048l-18.25-32.144
	c0,0,1.726-20.669,27.094-14.799c25.367,5.872,39.172-19.938,39.172-19.938l97.833,14.817l14.161,19.919
	c0,0,24.036-3.957,29.396,9.312C367.908,524.181,329.195,548.789,329.195,548.789z"/>
<path fill="#8E7EBB" d="M214.557,492.768c0,0,34.817,31.609,88.431,26.409c53.615-5.2,10.804-29.207,10.804-29.207
	s-15.605-4.881-29.612-4.881c-14.006,0-51.617-5.121-51.617-5.121"/>
<path fill="#9E9E9E" d="M224.723,491.535l-45.793-23.412c11.47,58.064,30.352,72.005,35.89,63.199
	c2.481-3.943,6.382-2.368,7.151-5.229C224.071,518.277,226.604,503.587,224.723,491.535z"/>
<path fill="#CCA6CE" d="M166.368,506.83c9.247,11.893,14.644,25.904,18.602,34.757c4.947,11.047,6.87,15.741,2.148,17.607
	c-5.909,2.335-33.419-6.902-60.982-26.78c-27.834-20.068-36.621-53.183-27.178-55.72c9.496-2.551,1.604-14.935,14.194-14.41
	C130.14,462.993,150.289,486.161,166.368,506.83z"/>
<path fill="#8E7EBB" d="M235.185,497.34l-11.32-5.819l-30.896-19.96c5.134,54.425,21.19,68.993,27.098,61.416
	c0.567-0.73,1.177-1.186,1.787-1.532c2.222-1.252,4.505-0.596,5.27-2.607C229.782,521.854,235.794,508.589,235.185,497.34z"/>
<g>
	<path fill="#A391C5" d="M224.723,491.535l-10.334-5.284c1.885,10.109,3.812,25.874,2.189,43.224
		c2.26-1.589,4.787-1.135,5.393-3.381C224.071,518.277,226.604,503.587,224.723,491.535z"/>
	<path fill="#CCA6CE" d="M214.389,486.251l-35.459-18.128c11.47,58.064,30.352,72.005,35.89,63.199
		c0.535-0.848,1.14-1.407,1.759-1.848C218.2,512.125,216.273,496.36,214.389,486.251z"/>
</g>
<g>
	<path fill="#A391C5" d="M187.117,559.194c8.501-3.358,0.037-25.627-20.75-52.364c-0.83-1.068-1.679-2.142-2.533-3.221
		c13.187,16.824,18.569,34.113,12.394,41.587c-5.73,6.94-21.424,5.421-50.094-12.782
		C153.698,552.292,181.208,561.529,187.117,559.194z"/>
</g>
<g>
	<path fill="#A391C5" d="M399.939,506.287c0-8.717-8.187-15.347-33.503,5.224c-25.288,20.553-64.616,64.264-36.537,60.626
		c12.294-2.454,30.037-8.451,48.329-18.43c12.77-6.963,22.396-16.674,28.608-25.841C417.523,509.32,399.939,514.976,399.939,506.287
		z"/>
	<path fill="#CCA6CE" d="M412.159,501.828c-9.103-3.714,0.276-15.014-12.285-16.069c-16.941-1.421-39.823,19.042-58.365,37.545
		c-23.971,23.919-35.154,44.954-27.135,49.353c2.156,1.182,7.765,1.031,15.525-0.52c-28.079,3.638,11.249-40.073,36.537-60.626
		c25.316-20.57,33.503-13.94,33.503-5.224c0,8.688,17.584,3.033,6.897,21.579C415.278,515.407,417.373,503.961,412.159,501.828z"/>
</g>
<g>
	<path fill="#8E7EBB" d="M324.577,487.023c-0.722,4.925-5.918,34.518-26.55,52.312c6.823,3.948,25.574-9.637,45.348-57.657
		L324.577,487.023z"/>
	<path fill="#CCA6CE" d="M324.577,487.023l-30.671,8.727c-4.183,11.461-4.558,26.362-4.009,34.438
		c0.192,2.953,4.328,2.17,5.997,6.518c0.455,1.191,1.182,2.077,2.133,2.631C318.659,521.541,323.855,491.948,324.577,487.023z"/>
</g>
<g>
	<path fill="#A391C5" d="M289.161,217.928c-13.171-1.8-26.156-2.039-38.746-0.886c1.843,5.294,4.464,9.388,9.05,10.016
		c72.362,9.903,123.726,71.288,114.722,137.104c-9.003,65.821-74.959,111.15-147.321,101.251
		c-54.083-7.395-96.426-43.557-110.615-88.835c10.381,61.324,63.945,112.533,134.501,122.184
		c85.257,11.662,162.969-41.747,173.58-119.294C434.938,301.918,374.418,229.6,289.161,217.928z"/>
	<path fill="#CCA6CE" d="M226.866,465.412c72.362,9.899,138.318-35.43,147.321-101.251c9.004-65.815-42.36-127.201-114.722-137.104
		c-4.586-0.628-7.207-4.722-9.05-10.016c-68.916,6.321-125.864,54.619-134.83,120.187c-1.829,13.367-1.496,26.571,0.667,39.349
		C130.44,421.855,172.782,458.018,226.866,465.412z"/>
</g>
<g>
	<path fill="#736BB1" d="M335.581,223.892c-6.282-23.304-23.36-34-39.443-36.935c-58.449-10.668-95.835,59.302-80.052,103.961
		c7.996-26.297,26.484-37.025,26.484-37.025s-20.008,23.201-7.174,62.275c0,0,8.585,32.007,51.8,32.007
		c0,0-19.277-34.539,8.942-57.408C324.73,267.595,344.815,258.146,335.581,223.892z"/>
	<path fill="#6A56A0" d="M242.569,253.894c0,0-18.488,10.728-26.484,37.025c3.583,10.127,9.88,18.961,19.31,25.25
		C222.562,277.094,242.569,253.894,242.569,253.894z"/>
</g>
<path fill="#6A56A0" d="M287.196,348.176c0,0-25.073-24.485-6.611-53.469c14.4-22.611,25.508-22.705,37.212-40.813
	c11.704-18.109,18.854-42.033-4.229-60.381c0,0,28.471,14.091,26.23,45.896c-1.946,27.614-23.206,35.491-41.011,53.296
	C280.983,310.509,277.808,325.223,287.196,348.176z"/>
<g>
	<path fill="#6A56A0" d="M301.896,459.48c7.602,3.588,17.007-0.37,21.013-8.839c3.989-8.473,1.055-18.25-6.557-21.832
		c-7.609-3.587-17.011,0.366-21.006,8.83C291.34,446.121,294.286,455.893,301.896,459.48z"/>
</g>
<g>
	<path fill="#FFFFFF" d="M305.44,455.579c2.96,1.407,6.518,0.136,7.91-2.837c1.402-2.973,0.127-6.521-2.842-7.924
		c-2.973-1.402-6.521-0.132-7.924,2.846C301.188,450.624,302.458,454.177,305.44,455.579z"/>
</g>
<g>
	<path fill="#6A56A0" d="M211.922,449.751c8.407-0.192,15.057-7.938,14.832-17.302c-0.216-9.365-7.212-16.793-15.628-16.591
		c-8.403,0.192-15.047,7.935-14.832,17.298C196.518,442.525,203.51,449.953,211.922,449.751z"/>
</g>
<g>
	<path fill="#FFFFFF" d="M211.889,445.048c3.282-0.075,5.894-2.805,5.814-6.086c-0.074-3.288-2.804-5.89-6.086-5.815
		c-3.287,0.076-5.89,2.805-5.814,6.092C205.878,442.52,208.612,445.123,211.889,445.048z"/>
</g>
</svg>
