<?xml version="1.0" encoding="utf-8"?>
<!-- Generator: Adobe Illustrator 16.2.1, SVG Export Plug-In . SVG Version: 6.00 Build 0)  -->
<!DOCTYPE svg PUBLIC "-//W3C//DTD SVG 1.1//EN" "http://www.w3.org/Graphics/SVG/1.1/DTD/svg11.dtd">
<svg version="1.1" id="Layer_1" xmlns="http://www.w3.org/2000/svg" xmlns:xlink="http://www.w3.org/1999/xlink" x="0px" y="0px"
	 width="612px" height="612px" viewBox="0 0 612 612" enable-background="new 0 0 612 612" xml:space="preserve">
<g>
	<path fill="#CCA6CE" d="M213.703,567.861c-20.796-3.041-51.495,9.258-39.174,23.904c-8.937-12.551,20.675-16.117,41.342-8.744
		c11.255,4.014,27.262,10.41,17.858,15.629C246.434,593.271,245.271,572.477,213.703,567.861z"/>
	<path fill="#A391C5" d="M216.838,578.973c-21.513-5.318-51.246,0.242-42.309,12.793c12.32,14.646,46.494,12.264,59.2,6.885
		C243.133,593.432,238.133,584.238,216.838,578.973z"/>
</g>
<path fill="#CCA6CE" d="M261.595,139.234c-83.153,103.137-34.816,180.165-27.564,199.018c7.252,18.855,11.119,17.889-20.305,43.994
	c-32.905,27.342-43.828,72.207-37.181,110.789c3.286,19.066,10.84,36.604,22.193,49.717c25.91,29.924,69.171,42.199,107.333,25.635
	c4.993-11.162,22.405-24.781,37.996-29.424c11.338-13.918,18.719-29.725,22.525-45.928c9.435-40.096-3.044-82.625-32.006-104.986
	c-33.517-25.881-60.914-16.922-74.934-30.941c-22.76-22.76,16.724-244.437,202.059-354.856L464.644,0
	C464.644,0,344.748,36.097,261.595,139.234z"/>
<g>
	<path fill="#922C26" d="M312.517,307.471c-0.832,0.303-1.617,0.6-2.425,0.902c1.563-0.521,3.126-1.084,4.689-1.722
		C314.026,306.923,313.271,307.197,312.517,307.471z"/>
	<path fill="#736BB1" d="M416.178,145.118c-3.444-72.396-53.36-87.584-118.77,42.434c-57.757,114.808-21.649,132.284,12.684,120.821
		c0.808-0.303,1.593-0.6,2.425-0.902c0.754-0.273,1.51-0.547,2.265-0.82c0.038-0.02,0.076-0.03,0.113-0.046
		c0.092-0.037,0.183-0.06,0.272-0.098c53.564-19.44,105.565-40.893,101.132-155.671C416.224,148.88,416.215,147.029,416.178,145.118
		z"/>
	<path fill="#595BA1" d="M424.555,67.509C435.667,27.171,457.452,6.005,464.644,0l-2.931,2.251
		C276.378,112.67,236.894,334.348,259.654,357.107c-6.134-7.109-1.443-22.297,19.776-34.725c7.871-4.613,17.971-9.301,30.662-14.01
		c-34.333,11.463-61.671-13.748-8.816-120.821C358.55,71.532,412.733,72.722,416.178,145.118
		C415.445,113.222,419.003,87.652,424.555,67.509z"/>
	<path fill="#922C26" d="M314.781,306.651c0.129-0.049,0.258-0.095,0.386-0.144c-0.09,0.038-0.181,0.061-0.272,0.098
		C314.857,306.621,314.819,306.631,314.781,306.651z"/>
</g>
<g>
	<path fill="#A391C5" d="M306.057,568.387c4.994-11.162,22.405-24.781,37.997-29.424c11.338-13.918,18.719-29.725,22.525-45.928
		c9.435-40.096-3.044-82.625-32.006-104.986c-33.517-25.881-60.915-16.922-74.935-30.941c-0.234-0.234-0.453-0.525-0.672-0.801
		c10.085,15.025,28.124,14.877,47.295,30.012c22.965,18.129,34.446,48.896,32.392,85.604
		c-4.298,76.756-105.445,112.709-142.263,67.902c0.778,0.982,1.526,1.99,2.334,2.928
		C224.634,572.676,267.895,584.951,306.057,568.387z"/>
</g>
<path fill="#CCA6CE" d="M307.436,554.402c18.296-23.453,44.235-32.484,56.118-21.422c11.875,11.07-5.175,39.492-33.117,44.949
	C302.503,583.393,292.229,573.908,307.436,554.402z"/>
<path fill="#A391C5" d="M307.972,557.916c16.747-20.191,35.625-24.742,46.396-15.305c10.764,9.439-0.099,31.27-25.562,36.07
	C303.356,583.482,294.035,574.713,307.972,557.916z"/>
<path fill="#6A56A0" d="M286.375,519.859c6.776,0,12.275-6.111,12.275-13.658c0-7.541-5.499-13.652-12.275-13.652
	s-12.268,6.111-12.268,13.652C274.108,513.748,279.6,519.859,286.375,519.859z"/>
<path fill="#6A56A0" d="M214.946,508.373c-5.779,1.984-8.687,8.809-6.474,15.244c2.198,6.439,8.679,10.047,14.466,8.064
	c5.779-1.982,8.679-8.809,6.474-15.244C227.206,510.002,220.724,506.395,214.946,508.373z"/>
<path fill="#FFFFFF" d="M291.61,500.041c0,2.645-2.146,4.795-4.79,4.795c-2.651,0-4.796-2.15-4.796-4.795
	c0-2.646,2.146-4.795,4.796-4.795C289.465,495.246,291.61,497.395,291.61,500.041z"/>
<path fill="#FFFFFF" d="M223.746,515.629c0,2.648-2.153,4.793-4.797,4.793s-4.796-2.145-4.796-4.793
	c0-2.646,2.152-4.793,4.796-4.793S223.746,512.982,223.746,515.629z"/>
</svg>
