<?xml version="1.0" encoding="utf-8"?>
<!-- Generator: Adobe Illustrator 16.2.1, SVG Export Plug-In . SVG Version: 6.00 Build 0)  -->
<!DOCTYPE svg PUBLIC "-//W3C//DTD SVG 1.1//EN" "http://www.w3.org/Graphics/SVG/1.1/DTD/svg11.dtd">
<svg version="1.1" id="Layer_1" xmlns="http://www.w3.org/2000/svg" xmlns:xlink="http://www.w3.org/1999/xlink" x="0px" y="0px"
	 width="612px" height="612px" viewBox="0 0 612 612" enable-background="new 0 0 612 612" xml:space="preserve">
<path fill="#A391C5" d="M349.42,196.286c-69.627-33.213-70.424-86.623-70.424-86.623c-0.05,2.902-0.274,5.723-0.623,8.482
	c0.76,12.381-41.203,125.254,1.42,151.479c56.536,34.789,46.298-10.32,39.858,49.884c-6.938,64.907,26.406,116.43-51.168,112.002
	c-74.348-4.241-129.838-59.009-128.941-129.408c-3.562,12.163-5.63,25.484-5.63,40.331c0,94.065,78.122,161.027,174.579,156.244
	c95.012-4.708,149.069-73.937,149.069-153.853C457.561,270.69,422.771,231.274,349.42,196.286z"/>
<path fill="#CCA6CE" d="M384.744,249.902c-0.137-0.212-0.299-0.374-0.448-0.585c-12.567-19.543-32.31-36.321-59.426-53.005
	c-42.623-26.226-45.114-74.267-45.874-86.648c-9.018,71.166-113.969,105.456-139.454,192.44
	c-24.226,73.544,49.1,158.05,151.672,146.354C393.787,436.762,437.818,326.722,384.744,249.902z"/>
<g>
	<path fill="#6A56A0" d="M239.754,404.152c0.436,7.549-5.555,14.025-13.352,14.474c-7.81,0.437-14.486-5.318-14.91-12.866
		c-0.436-7.549,5.542-14.025,13.353-14.461C232.655,390.85,239.331,396.604,239.754,404.152z"/>
	<path fill="#FFFFFF" d="M232.68,401.275c0.174,2.939-2.167,5.468-5.207,5.643c-3.039,0.174-5.642-2.08-5.804-5.02
		c-0.174-2.939,2.155-5.456,5.194-5.63C229.915,396.094,232.518,398.336,232.68,401.275z"/>
	<path fill="#6A56A0" d="M343.56,389.642c0.437,7.548-5.555,14.025-13.364,14.474c-7.798,0.436-14.474-5.318-14.91-12.867
		c-0.423-7.548,5.556-14.024,13.365-14.461C336.46,376.339,343.137,382.094,343.56,389.642z"/>
	<path fill="#FFFFFF" d="M336.485,386.765c0.162,2.939-2.167,5.468-5.207,5.643c-3.039,0.174-5.642-2.08-5.804-5.02
		c-0.175-2.94,2.167-5.456,5.193-5.63C333.707,381.583,336.311,383.825,336.485,386.765z"/>
</g>
</svg>
