<?xml version="1.0" encoding="utf-8"?>
<!-- Generator: Adobe Illustrator 16.2.1, SVG Export Plug-In . SVG Version: 6.00 Build 0)  -->
<!DOCTYPE svg PUBLIC "-//W3C//DTD SVG 1.1//EN" "http://www.w3.org/Graphics/SVG/1.1/DTD/svg11.dtd">
<svg version="1.1" id="Layer_1" xmlns="http://www.w3.org/2000/svg" xmlns:xlink="http://www.w3.org/1999/xlink" x="0px" y="0px"
	 width="612px" height="612px" viewBox="0 0 612 612" enable-background="new 0 0 612 612" xml:space="preserve">
<path fill="#6A56A0" d="M387.637,444.989c0,0,26.09,0.153,43.435-38.858c17.345-39.008,44.448-49.148,77.804-47.887
	c33.353,1.265,3.511-21.058-8.657-19.432c-12.172,1.627-44.419,15.229-55.319,21.915s-42.382,47.138-45.736,50.251
	c-3.357,3.112-15.346,13.615-21.021,14.651c-5.675,1.04-8.575,1.764-8.575,1.764"/>
<path fill="#A391C5" d="M276.519,508.924c0,0-2.096,9.645-9.75,26.859l15.223-4.619l7.077,3.961c0,0,17.944-15.393,19.482-30.413
	L276.519,508.924z"/>
<path fill="#A391C5" d="M158.445,517.686c0,0-5.232,16.145-17.608,27.234l-1.216,8.09l-6.979-4.328l-19.065,0.463l8.524-13.179
	c0,0,1.535-20.858,10.818-33.493C142.202,489.835,158.445,517.686,158.445,517.686z"/>
<path fill="#A391C5" d="M114.524,358.416c0,0-0.319,10.128-0.319-47.447c0-87.032,85.895-175.215,85.895-175.215
	s-22.433,75.604-5.815,125.04c16.614,49.432-64.388,107.959-64.388,107.959L114.524,358.416z"/>
<path fill="#D1D2D2" d="M62.986,368.753"/>
<path fill="#CCA6CE" d="M81.292,361.151c-25.229,15.695-37.623,35.2-53.54,63.168c-23.541,41.362-22.99,71.302-15.47,79.949
	c7.517,8.645,34.298,26.593,61.216,14.718c33.519-14.786,40.078-14.274,40.078-14.274s29.118,20.819,120.812,14.434
	c143.265-9.984,143.945-61.74,143.945-61.74s25.475-40.491-19.551-69.528c-51.842-33.428-92.013-54.09-144.347-54.09
	C145.253,333.787,121.872,335.915,81.292,361.151z"/>
<path fill="#6A56A0" d="M83.04,451.661c-3.983,4.407-9.851,5.601-13.087,2.663c-3.24-2.937-2.637-8.879,1.346-13.282
	c3.987-4.414,9.851-5.604,13.094-2.667C87.629,441.309,87.026,447.258,83.04,451.661z"/>
<path fill="#DCDBDB" d="M82.094,445.55c-1.199,1.323-2.966,1.682-3.941,0.799c-0.978-0.887-0.792-2.673,0.408-4.003
	c1.196-1.323,2.959-1.686,3.941-0.802C83.477,442.431,83.297,444.22,82.094,445.55z"/>
<path fill="#736BB1" d="M228.645,456.613c0,0,11.565-21.031,57.197-23.733c0,0-26.439-32.339-59.071-31.462
	c0,0,7.888-8.11,32.776-9.414c0,0-18.293-15.337-46.88-8.391c0,0,7.813-13.749,26.191-15.483c0,0-18.668-9.837-41.394-5.209
	c0,0,22.276-20.52,50.775-36.612c0,0-53.97-17.83-90.846,6.076c0,0-29.816-28.395-61.271-36.918c0,0,5.933,4.599,13.025,22.547
	c0,0-18.459-17.599-48.8-28.069c0,0,11.575,29.487,36.27,53.302l-26.335-13.315c0,0,3.341,17.094,11.167,29.089
	c0,0,4.146,6.092,19.173,7.787c1.793,0.205-7.021-11.653-7.021-11.653s19.815,11.917,21.471,11.875
	c7.83-0.212,10.776,8.191,22.882,5.274c19.594,10.789,47.838,11.871,47.838,11.871s-11.953,7.514-37.049,5.976
	c0,0,5.806,18.612,37.408,23.554c0,0-18.244,2.634-30.194,29.842c0,0,19.917-13.605,34.188-10.311c0,0-0.339,22.919-28.545,47.128
	c-8.058,6.917-16.579,12.081-24.398,15.934c0.398,0.287,0.786,0.626,1.147,1.092c5.734,7.409,25.086,15.969,29.037,24.421
	c31.797,3.006,56.691-1.561,56.691-1.561l18.635-9.845c0,0-42.744-1.562-30.1-15.085c0,0-6.173-3.064-14.404-6.888
	c0,0,41.153-12.811,55.558-31.915C253.767,456.516,240.405,458.08,228.645,456.613z"/>
<path fill="#736BB1" d="M152.281,315.758c-11.907,15.747-24.584,49.161-24.584,49.161s6.079,14.587,30.275,3.834
	c24.196-10.754,44.621-27.163,68.609-42.764c38.496-25.034,67.592-87.342,67.592-87.342s-12.898-3.204-23.117,2.807
	c5.173-3.836,24.92-18.678,32.785-27.739c16.602-19.118,29.734-43.233,45.86-56.969C349.701,156.746,233.703,168.65,152.281,315.758
	z"/>
<path fill="#CCA6CE" d="M117.712,375.676c0,0-0.072-41.54,39.178-92.567c76.813-99.862,155.938-121.754,192.811-126.363
	c0,0-95.638,25.354-147.877,105.625c-52.232,80.271-3.058,75.578-65.714,111.428C119.085,383.538,117.712,375.676,117.712,375.676z"
	/>
<path fill="#CEE1F0" d="M78.108,382.554c-11.637,6.122-15.601,1.103-18.156-7.617c-2.556-8.723-5.841-19.102-1.467-22.29
	c4.377-3.185,25.63,14.679,23.176,21.883C79.519,380.811,78.108,382.554,78.108,382.554z"/>
<path fill="#736BB1" d="M374.5,430.888c0,0,29.259,6.963,47.578-24.587c39.35-67.784,80.806-42.131,115.899-49.019
	c35.1-6.888,67.298-25.539,68.7-62.475c2.223-58.722-42.489-70.871-42.489-70.871c16.096,47.594-21.569,29.545-105.717,48.731
	c-84.142,19.186-63.306,110.423-65.483,125.682c-2.177,15.258-19.176,14.003-19.176,14.003L374.5,430.888z"/>
<path fill="#A391C5" d="M564.188,223.937c16.096,47.594-21.569,29.545-105.717,48.731c-84.142,19.186-63.306,110.423-65.483,125.682
	c-2.177,15.258-19.176,14.003-19.176,14.003s22.445,8.515,34.363-26.853c12.839-38.093,48.904-59.188,75.053-57.562
	c0,0-21.314-9.446-53.602,5.956c0,0,29.193-34.047,113.575-26.357c0,0-21.256-16.035-52.274-19.2c0,0,67.279,0.961,82.987-26.318
	C587.876,237.78,564.188,223.937,564.188,223.937z"/>
<path fill="#CCA6CE" d="M300.516,481.073c1.431,0.476,55.293,21.569,73.263,60.512c2.862,6.19,0.594,15.917,0.594,15.917
	l11.842-4.492l12.961,5.672c0,0,10.261-126.907-30.26-161.69c-34.259-29.402-63.162,5.521-63.162,5.521L300.516,481.073z"/>
<path fill="#EE2F24" d="M365.699,394.406"/>
<path fill="#B2C2CD" d="M58.485,352.646c4.377-3.185,29.9,13.626,27.446,20.829c-2.142,6.281-7.823,9.078-7.823,9.078
	s1.643-6.591-5.818-15.245C64.828,358.657,58.485,352.646,58.485,352.646z"/>
<path fill="#CCA6CE" d="M202.871,514.494c2.872,9.007,6.353,21.204,12.885,33.728c3.097,5.933,1.102,19.313,1.102,19.313
	l10.571-2.321l15.988,5.93l3.608-7.478l3.612,0.258c0,0-5.16-7.993-4.127-13.407c1.034-5.418,6.959-45.388,6.959-75.812
	l-55.261,13.727C198.209,488.431,199.999,505.488,202.871,514.494z"/>
<path fill="#736BB1" d="M113.576,504.712c0,0,24.62,17.495,64.048,17.495l-4.531-16.253c0,0,19.095-53.719-6.65-29.988
	C140.699,499.695,113.576,504.712,113.576,504.712z"/>
<path fill="#736BB1" d="M183.443,472.967c0,0,18.971,15.392,38.633,24.711c0,0-24.147,6.598-50.319,1.118"/>
<path fill="#A391C5" d="M256.064,471.949c0,0-3.198,37.764-5.701,59.179c-2.503,21.416-2.927,23.73,0.274,32.796l-3.612-0.258
	l-3.608,7.478c0,0-2.637-14.841,0-39.321C246.054,507.343,256.064,471.949,256.064,471.949z"/>
<path fill="#A391C5" d="M249.154,519.028c0,0,55.261-5.003,85.188-19.887c0,0-3.944-3.006-11.249-7.009
	c0,0-28.692,12.303-71.618,5.268"/>
<path fill="#876CB0" d="M187.951,413.693c-0.307-0.039-0.62-0.088-0.926-0.134c0.059,0.102,0.101,0.225,0.16,0.326
	C187.677,413.752,187.951,413.693,187.951,413.693z"/>
<g>
	<path fill="#A391C5" d="M187.025,413.56c-5.88-0.857-12.256-2.556-16.188-3.915c0.528,4.443,0.727,7.618,0.61,11.898
		C178.505,415.73,184.857,414.159,187.025,413.56z"/>
	<path fill="#A391C5" d="M169.945,436.208c-5.711,29.44-27.237,52.591-59.459,61.229c-32.036,8.589-57.614,30.631-79.587,19.907
		c0,0,22.808,14.064,50.622,0.296c21.478-10.633,24.897-7.79,46.662-16.666c53.582-21.853,60.877-57.97,61.962-67.739
		C190.145,433.234,183.049,430.695,169.945,436.208z"/>
</g>
<path fill="#A391C5" d="M234.264,334.816c0,0-20.474,11.243-37.675,28.443c0,0,20.533-4.312,38.337,4.312
	c0,0-18.772,2.882-23.919,17.645c0,0,9.202-4.169,21.429-3.188c0,0,18.068-16.702,41.854-22.013
	c23.786-5.31,43.428,6.089,50.615,11.683s5.014-1.069,5.014-1.069s11.895,2.494-7.266-7.444S259.471,334.816,234.264,334.816z"/>
<path fill="#A391C5" d="M256.932,366.063c26.044-11.356,75.121,3.537,102.646,32.176c26.016,27.068,10.001,0.049,6.122-3.833
	c-3.879-3.883-28.562-24.679-35.302-26.869c-6.741-2.19-17.12-7.521-20.061-7.521c-2.939,0-10.671-5.31-16.304-5.31
	s-19.401-1.043-23.574-1.043s-5.382,0-5.382,0"/>
<path fill="#A391C5" d="M379.982,406.389c-17.073-23.271-56.604-47.021-105.693-62.731c0,0,19.137,7.405,41.968,21.797
	c-2.2-0.841-4.729-1.767-7.706-2.719c-9.651-3.09-11.806-5.453-24.949-7.263c-13.143-1.809-15.141-1.809-16.833-1.809
	s-1.692,0-1.692,0l-15.923,16.474c26.723-14.385,90.286,1.842,122.885,40.658c1.216,1.613,2.405,3.249,3.55,4.918
	c32.961,48.122,19.672,141.254,19.672,141.254l3.915,1.714C407.521,466.316,397.057,429.659,379.982,406.389z"/>
<path fill="#6A56A0" d="M253.767,456.516c-20.637,18.948-86.358,35.386-79.193,19.919l0.003-0.006
	c3.501-6.132,7.298-13.316,8.987-21.954c0,0-15.953,35.625-68.39,51.212c0,0,31.726,23.189,90.168,16.631
	c0,0-3.074-9.479-4.045-13.938c14.857-2.32,23.062-11.047,23.062-11.047c-7.927-2.78-19.017-10.362-19.017-10.362
	C238.759,479.392,253.767,456.516,253.767,456.516z"/>
<path fill="#6A56A0" d="M285.841,432.88c0,0-39.791-10.415-75.115,21.595c0,0,9.678,1.552,17.918,2.139
	C228.645,456.613,241.464,437.391,285.841,432.88z"/>
</svg>
