<?xml version="1.0" encoding="utf-8"?>
<!-- Generator: Adobe Illustrator 16.2.1, SVG Export Plug-In . SVG Version: 6.00 Build 0)  -->
<!DOCTYPE svg PUBLIC "-//W3C//DTD SVG 1.1//EN" "http://www.w3.org/Graphics/SVG/1.1/DTD/svg11.dtd">
<svg version="1.1" id="Layer_1" xmlns="http://www.w3.org/2000/svg" xmlns:xlink="http://www.w3.org/1999/xlink" x="0px" y="0px"
	 width="612px" height="612px" viewBox="0 0 612 612" enable-background="new 0 0 612 612" xml:space="preserve">
<path fill="#FFFFFF" d="M106.916,208.682c0,0-9.668-10.458-14.958-12.993s-7.862-5.567-7.862-5.567s-14.923-40.952,21.597-88.286
	l1.224,4.07l-0.659,11.016c0,0,15.24-38.801,53.34-54.9c0,0-13.004,15.477-13.004,31.903c0,0,30.765-32.67,64.296-43.622
	c0,0-13.591,21.121-12.023,45.33c0,0-52.125,31.749-56.489,98.886c0,0-12.941,12.913-32.105,14.291"/>
<g>
	<path fill="#736BB1" d="M553.178,459.946c47.454-63.479,9.368-147.358,9.368-147.358c0,43.995-35.695,71.766-35.695,71.766
		c3.602-19.666-6.768-36.794-6.768-36.794c1.215,22.145-14.602,41.371-48.914,45.021c-34.313,3.65-40.396,28.569-40.396,28.569
		l-43.204,17.995C409.481,453.321,511.767,515.34,553.178,459.946z"/>
	<path fill="#6A56A0" d="M540.735,480.821c80.709-58.373,21.811-168.233,21.811-168.233s37.841,84.986-22.997,137.463
		c-52.373,45.176-130.067,3.271-151.98-10.905l-0.603,0.251C386.966,439.396,467.25,533.971,540.735,480.821z"/>
</g>
<path fill="#A391C5" d="M255.324,441.495c0,0-4.317,43.074,24.36,55.485c28.677,12.41,26.73-15.406,24.297-28.875
	s-7.301-30.987-17.764-35.126c-10.463-4.138-12.699-4.38-13.771-4.38"/>
<path fill="#A391C5" d="M337.199,506.839c-3.65-5.233,4.261-12.086,4.261-12.086l-13.754-34.807c0,0-35.283,43.85-46.479,52.976
	c-11.196,9.126-23.117,9.979-31.27,9.288s-10.463,2.638-10.463,8.844c0,6.205,4.138,6.223,4.138,6.223s-0.853,4.605,4.016,7.283
	c6.203,3.414,10.047-0.239,10.047-0.239s0.736,5.35,6.257,5.35c11.923,0,22.754-10.708,35.896-16.914
	c13.141-6.205,22.875-6.448,35.043-6.448C347.058,526.308,340.85,512.072,337.199,506.839z"/>
<g>
	<path fill="none" d="M413.306,557.684c-0.65,0.125-1.307,0.26-1.965,0.396C411.931,557.94,412.602,557.809,413.306,557.684z"/>
	<path fill="#CCA6CE" d="M413.306,557.684c0.103-0.018,0.18-0.04,0.285-0.057c26.624-4.574,30.383-16.843,22.837-27.307
		c-7.546-10.463-4.414-15.046,10.769-30.229c23.579-23.582,26.282-71.615-36.608-111.235h0.003
		c-56.218-35.802-85.871-96.499-85.871-96.499l-37.285,8.854l9.944,40.401c-3.756-1.331-5.458-2.047-7.024-2.047l13.523,97.859
		l32.756-58.958c0,0,9.733,20.308-19.903,104.094c6.674,4.435,29.471,17.479,39.869,19.363
		c10.175,20.482,29.636,21.825,29.636,21.825c-6.389,25.734-32.488,25.92-43.316,25.433c-10.828-0.488-10.101,8.519-10.101,12.776
		c0,4.257,5.232,4.987,5.232,4.987s-0.174,5.225,3.243,9.938c3.416,4.714,14.054,0.074,14.054,0.074
		c5.803,5.807,11.666-0.157,27.237-8.875c8.347-4.674,18.787-7.953,28.743-10.001c0.003-0.003,0.009-0.003,0.009-0.003
		C411.999,557.943,412.655,557.809,413.306,557.684z"/>
	<path fill="#9E9E9E" d="M411.329,558.083c0.003-0.003,0.009-0.003,0.009-0.003S411.332,558.08,411.329,558.083z"/>
</g>
<path fill="#CCA6CE" d="M234.255,189.298c-2.19-4.175-4.389-3.165-7.803-5.15s-51.689-31.02-51.689-31.02l-19.82-5.726
	l-33.483,36.261l20.918,108.329c0,0,15.189,4.221,23.844,19.492s39.917,14.142,39.917,14.142s15.22-36.349,15.22-39.511
	s5.84-26.28,5.84-30.905S236.445,193.474,234.255,189.298z"/>
<path fill="#A391C5" d="M145.281,251.579l-26.987,39.004c0,0,4.945,9.473,7.287,12.59c2.35,3.126,11.698,14.732,16.803,15.46
	c5.113,0.73,72.25,19.272,60.324-18.91C190.768,261.538,145.281,251.579,145.281,251.579z"/>
<path fill="#BC94C4" d="M177.501,104.372c-11.088-53.3,8.738-76.813,8.738-76.813c-55.433,22.698-64.02,79.429-64.02,79.429
	l15.85,33.42C138.069,140.407,188.594,157.672,177.501,104.372z"/>
<path fill="#A391C5" d="M289.138,397.968c-11.681-7.089-32.488-12.93-41.249-15.12l-9.534,51.207c0,0,18.294,20.223,50.782,20.223
	C321.626,454.277,300.819,405.058,289.138,397.968z"/>
<path fill="#A391C5" d="M336.635,378.468l-32.756,58.958l3.422,24.757c0,0,5.604,25.752,23.884,37.909
	c-1.405-17.53,9.063-39.982,10.88-55.074C348.19,394.136,336.635,378.468,336.635,378.468z"/>
<path fill="#CCA6CE" d="M248.619,407.855c0,0,25.416,41.211,27.856,96.439c2.441,55.229,2.955,53.757-7.728,58.408
	c-10.683,4.651-15.511,5.954-17.14,11.302c-1.628,5.347-1.406,11.196,5.287,13.628c0,0-0.148,6.867,3.611,7.908
	c7.463,2.068,15.24-1.454,15.24-1.454s1.52,3.445,6.459,4.497c4.939,1.053,18.617,0,18.617-12.775
	c0-12.776,4.167-66.838,18.143-102.699c13.977-35.862,42.021-102.868-9.6-150.479c-51.62-47.611-75.983-26.964-75.983-26.964
	l-13.235,30.092"/>
<g>
	<path fill="#CCA6CE" d="M186.678,516.247c2.444-48.712,6.316-77.911,0-116.851c-1.495-9.208-1.315-14.436-0.166-17.076
		c-11.248-20.927-26.818-37.433-26.818-37.433l-24.303,11.681c0,0,16.381,53.363,22.823,108.435
		c4.628,39.565,8.153,67.97-0.246,73.713c-8.398,5.744-19.832,5.964-19.832,15.454c0,5.961,3.437,8.753,6.485,9.004
		c0,0,1.631,10.622,16.615,5.797c0,0,1.719,4.059,9.143,4.059s15.577-5.353,14.724-15.696
		C184.556,550.696,185.267,532.944,186.678,516.247L186.678,516.247z"/>
	<path fill="#A391C5" d="M186.678,399.396c6.316,38.939,2.444,68.139,0,116.851l0,0c0.79-9.325,1.793-18.326,2.929-24.865
		c3.166-18.251,8.236-36.993,8.236-71.546c0-12.471-4.977-25.697-11.33-37.516C185.363,384.961,185.184,390.188,186.678,399.396z"/>
</g>
<path fill="#A391C5" d="M167.217,401.832c0,0,15.428,22.387,24.505,51.347c0,0,9.078-30.907,9.078-32.122
	s-4.597-10.942-10.688-17.034c-6.092-6.092-8.539-10.954-10.729-13.141c-2.19-2.188-7.056-3.65-7.056-3.65"/>
<g>
	<path fill="#A391C5" d="M415.966,392.156c-1.819-1.072-3.61-2.176-5.375-3.3h-0.003c62.891,39.62,48.506,92.572,24.928,116.154
		c-15.184,15.183-7.187,23.043-4.455,29.171c0.548,1.227,1.138,2.519,1.657,3.839l-0.009-0.006
		c4.632,12.931-23.401,13.204-52.003,31.136c0,0,14.676-7.739,33.258-11.578c7.646-1.42,14.87-2.119,20.431-2.119
		c13.357,0,14.385-10.528,7.743-19.825c-6.643-9.297-3.69-19.532,14.262-37.487S475.669,427.382,415.966,392.156z"/>
	<path fill="#A391C5" d="M409.844,520.587c0,0-6.328,5.23-23.607,3.163l-1.8,5.464C403.441,529.214,409.844,520.587,409.844,520.587
		z"/>
</g>
<path fill="#A391C5" d="M327.466,490.167c0,0,20.319,11.193,31.15,12.288V487.43c0,0-13.993-1.672-30.42-14.159"/>
<path fill="#A391C5" d="M409.844,520.587c0,0-5.772,4.418-19.529,4.013c-12.331-0.362-27.6-4.962-33.714-22.675
	c-16.798-48.654,21.117-83.361,21.117-83.361s-19.985,23.815-13.626,60.288C372.122,524.902,409.844,520.587,409.844,520.587z"/>
<path fill="#A391C5" d="M348.336,329.554c-10.507-13.185-16.854-29.842-16.854-29.842l-27.603-8.849l-13.769,1.495
	c0,0-5.256,7.745-4.589,16.84l-19.503-20.77h-24.334c0,0-80.906,66.433-16.792,63.028c7.007-0.371,13.324-0.083,19.082,0.676
	c-0.482,1.323-0.83,2.692-0.83,4.069c0,6.571-0.365,26.647-0.365,44.534s-1.075,15.334-1.845,19.473
	c-0.77,4.138,14.159,19.072,14.159,19.072l4.478,10.771c22.178-34.091,19.994-70.237,17.943-84.557
	c17.336,13.609,20.858,32.08,20.858,32.08c10.013-23.829,1.588-56.442-3.853-72.703c1.218,0.943,2.578,1.859,4.109,2.737
	C321.99,340.992,348.336,329.554,348.336,329.554z"/>
<path fill="#A391C5" d="M163.689,402.928c0,0,7.417,13.138,3.528,25.672c0,0,14.236-10.583,15.089-28.593
	c0.853-18.009-9.308-15.818-9.308-15.818"/>
<path fill="#736BB1" d="M382.586,249.977c-31.393,12.411-59.677-2.188-59.677-2.188c55.431-33.822,51.158-78.12,51.158-78.12
	c-16.549,25.31-61.781,23.693-61.781,23.693c49.98-49.98,38.015-108.56,38.015-108.56c-30.099,48.001-87.2,44.28-87.2,44.28
	l-89.604,28.421c0,0,2.592,36.204,13.118,49.399s24.274,13.355,24.274,13.355c-27.631,29.659-5.646,47.443-5.646,47.443
	c-17.213,12.125-9.779,31.786-9.779,31.786c-13.854-3.296-29.071,8.496-29.071,8.496c-13.723-19.381-35-16.886-35-16.886
	l-18.931,3.779c-12.114,27.58-1.049,48.321,25.287,74.655c26.336,26.333,24.813,49.182,24.813,49.182
	c7.575-7.574,9.582-19.072,9.582-19.072c31.575,23.727,33.036,79.212,33.036,79.212c23.91-15.697,26.77-46.967,26.77-46.967
	c3.285,6.936,5.11,19.48,5.11,19.48c44.292-70.197,19.928-110.373,19.928-110.373c57.892,18.006,61.351,59.012,61.351,59.012
	c13.872-53.659-8.972-88.771-8.972-88.771C375.351,307.272,382.586,249.977,382.586,249.977z"/>
<path fill="#736BB1" d="M285.462,277.354c28.498,15.331,77.412,9.855,97.124-27.377c-31.393,12.411-59.677-2.188-59.677-2.188
	c55.431-33.822,51.158-78.12,51.158-78.12c-16.549,25.31-61.781,23.693-61.781,23.693c49.98-49.98,38.015-108.56,38.015-108.56
	c-30.099,48.001-87.2,44.28-87.2,44.28l-89.604,28.421c0,0,2.592,36.204,13.118,49.399s24.274,13.355,24.274,13.355
	c-27.631,29.659-5.646,47.443-5.646,47.443c-17.213,12.125-9.779,31.786-9.779,31.786s-25.937,4.35-33.848,30.797
	c-9.248,30.922,18.56,64.063,0.947,88.429c7.575-7.574,9.582-19.072,9.582-19.072c31.575,23.727,33.036,79.212,33.036,79.212
	c23.91-15.697,26.77-46.967,26.77-46.967c3.285,6.936,5.11,19.48,5.11,19.48c44.292-70.197,19.928-110.373,19.928-110.373
	c57.892,18.006,61.351,59.012,61.351,59.012c13.872-53.659-8.972-88.771-8.972-88.771c-35.074-47.144-74.777-45.067-74.777-45.067
	S256.964,262.022,285.462,277.354z"/>
<path fill="#6A56A0" d="M382.586,249.977c-19.712,37.233-67.257,39.831-97.124,27.377c-30.637-12.776-50.871-11.188-50.871-11.188
	s39.703-2.076,74.777,45.067C375.351,307.272,382.586,249.977,382.586,249.977z"/>
<path fill="#6A56A0" d="M262.673,127.326l-45.446,54.754c54.755-5.476,84.938-59.278,84.938-59.278
	C281.244,129.778,262.673,127.326,262.673,127.326z"/>
<path fill="#6A56A0" d="M350.301,84.803c0,0-4.942,85.597-81.847,103.849c0,0,19.039,4.711,43.833,4.711
	C312.286,193.362,362.062,159.089,350.301,84.803z"/>
<path fill="#6A56A0" d="M130.227,314.952c15.505-5.789,24.554,7.053,27.922,13.338c13.084-27.112,37.316-28.804,37.316-28.804
	c-17.438-5.889-30.437,4.332-30.437,4.332c-14.875-14.875-33.634-12.722-33.634-12.722l-18.931,3.779
	c-7.392,16.826-6.114,31.107,1.954,45.666C115.035,328.318,120.191,318.699,130.227,314.952z"/>
<path fill="#6A56A0" d="M205.181,478.852c0,0,42.078-49.773-5-131.292c0,0,47.343,46.604,36.88,103.806
	c0,0-0.97-10.354-5.048-17.655C232.013,433.71,231.28,463.52,205.181,478.852z"/>
<path fill="#6A56A0" d="M318.34,400.004c0,0,1.709-74.24-91.254-88.771c0,0,16.919,9.622,29.904,29.759
	C256.989,340.992,306.537,356.568,318.34,400.004z"/>
<path fill="#6A56A0" d="M306.434,239.647c4.563,2.832,10.315,5.943,16.476,8.142c0,0,51.158-22.635,51.158-78.12
	C374.067,169.669,370.123,217.449,306.434,239.647z"/>
<path fill="#6A56A0" d="M210.89,220.258c21.069-21.072,60.242-2.586,60.242-2.586s-20.83-25.478-54.817-19.347
	s-23.219,14.96-23.219,14.96S197.518,222.477,210.89,220.258"/>
<path fill="#CCA6CE" d="M167.477,193.02l-38.95-0.211l-27.406,3.873L87.663,216.89c-6.593,12.462-9.297,16.466-7.266,24.232
	c2.03,7.766,5.963,15.083-4.426,27.723c-10.392,12.642-13.845,19.429-19.386,25.677c-4.834,5.453-2.895,11.75,3.833,16.731
	c9.029,6.69,23.374,14.431,28.869,8.496c5.495-5.935,31.772-26.297,60.794-26.297c31.373,0,39.181-28.737,45.515-53.52
	C180.315,227.031,167.508,210.273,167.477,193.02z"/>
<path fill="#A391C5" d="M72.982,318.879c10.506,5.159,14.034,4.552,17.926,0.659s30.052-25.188,56.58-25.188
	c26.528,0,50.617-15.149,37.293-46.562c0,0,3.787,34.037-38.876,39.626c-20.328,2.664-35.682,11.918-49.279,21.263
	C86.314,315.765,85.949,323.77,72.982,318.879"/>
<path fill="#736BB1" d="M81.121,196.693c0,0-12.465-48.931,25.986-95.895c0,0-1.141,6.702-1.141,14.504
	c0,0,17.265-37.621,54.498-54.777c0,0-13.871,16.974-13.871,33.4c0,0,28.757-29.75,64.296-43.622c0,0-23.376,29.605-5.344,79.252
	l-59.585,63.649c0,0-24.959,23.362-43.04,20.998C93.915,213.025,86.776,208.457,81.121,196.693z"/>
<path fill="#6A56A0" d="M210.89,50.304c0,0-22.729,36.583-2.173,79.252c20.556,42.668-20.083,40.998-20.083,40.998
	S163.305,80.602,210.89,50.304z"/>
<path fill="#6A56A0" d="M160.464,60.525c0,0-12.594,16.974-13.871,33.4c0,0-8.579,7.666-13.506,14.966
	C133.087,108.892,136.372,78.959,160.464,60.525z"/>
<path fill="#CCA6CE" d="M274.839,13.924c-9.297,50.251-36.806,73.979-102.58,112.188c-69.65,40.458-42.5,100.529-42.5,100.529
	l20.747,9.291C328.179,179.3,274.839,13.924,274.839,13.924z"/>
<path fill="#736BB1" d="M263.343,98.124c0,0-15.209,16.181-40.761,29.322c-25.535,13.132-64.226,41.12-68.666,74.529
	c1.192,20.607,29.993,19.94,69.139-14.062c6.756-5.869,12.542-11.949,17.533-18.109C267.051,135.958,263.343,98.124,263.343,98.124z
	"/>
<path fill="#6A56A0" d="M269.791,74.596c-17.966,32.593-42.609,44.229-65.6,58.938c-43.057,23.479-65.625,67.166-45.917,79.354
	c19.712,12.191,52.616-15.211,52.616-15.211c-42.708,26.781-58.989-21.654-2.216-56.526c6.188-3.827,12.098-7.295,17.194-10.417
	c27.497-16.84,37.476-32.61,37.476-32.61s3.708,37.835-22.755,71.68C277.468,124.323,269.791,74.596,269.791,74.596z"/>
<g>
	<path fill="#9DB3D1" d="M106.448,221.875c-0.667-2.458-2.059-4.766-4.141-6.856c-1.551-1.546-3.57-3.217-6.074-5.102
		c1.141,0.941,2.179,1.845,3.034,2.698c2.037,2.051,3.405,4.312,4.061,6.725c0.074,0.359,1.306,6.739-2.338,11.193
		c-2.196,2.689-5.624,4.05-10.187,4.05c-0.029,0-0.063,0-0.091-0.003c-2.208-0.151-4.352-0.867-6.376-2.13l-1.34-0.927
		c-1.683-1.221-3.514-2.883-5.669-5.039c3.388,3.533,6.04,6.108,8.39,7.814l1.363,0.947c2.07,1.289,4.255,2.019,6.502,2.173
		c0.035,0.003,0.069,0.003,0.103,0.003c4.648,0,8.139-1.389,10.38-4.129C107.783,228.748,106.522,222.243,106.448,221.875z"/>
	<g>
		<path fill="#CEE1F0" d="M103.328,219.339c-0.656-2.413-2.024-4.674-4.061-6.725c-0.855-0.853-1.894-1.756-3.034-2.698
			c-4.574-3.445-10.825-7.634-19.272-13.281c-2.783-1.859-5.789-3.867-9.023-6.046c-26.693-17.96-33.03-20.037-35.471-20.037
			c-1.073,0-1.666,0.414-2.025,0.824l70.679,58.955C104.577,225.89,103.402,219.693,103.328,219.339z"/>
		<path fill="#9DB3D1" d="M49.937,198.122c1.375,1.397,2.824,2.857,4.375,4.409c1.939,1.939,3.719,3.759,5.43,5.519
			c4.962,5.047,9.126,9.468,12.554,13.115c1.865,1.985,3.513,3.739,5.031,5.319c2.156,2.156,3.987,3.818,5.669,5.039l1.34,0.927
			c2.024,1.263,4.169,3.015,6.376,3.166c0.028,0.003,0.673,0.183,0.702,0.183c4.562,0,7.38-2.575,9.576-5.265
			c0.051-0.062,0.08-0.134,0.131-0.2l-70.679-58.955c-0.2,0.228-0.348,0.453-0.411,0.607C29.398,173.517,28.389,176,49.937,198.122z
			"/>
	</g>
	<path fill="#9DB3D1" d="M92.793,223.389c6.594,5.501,10.786,2.13,10.786-2.159c0-4.29,1.129,4.472,1.129,4.472s1.278,1.916,0,3.194
		c-1.277,1.277-2.829,3.559-4.654,3.559s-1.369,0.091-5.749-3.194c-4.38-3.285-5.019-3.559-5.019-3.559"/>
</g>
<g>
	<path fill="#6A56A0" d="M109.831,255.717c4.617-11.077,10.885-13.35,15.816-3.371C130.572,262.325,101.412,275.937,109.831,255.717
		z"/>
</g>
<g>
	<path fill="#FFFFFF" d="M117.69,257.337c1.272,0.53,2.84-0.313,3.488-1.874c0.647-1.563,0.14-3.257-1.141-3.782
		c-1.278-0.524-2.846,0.317-3.497,1.882C115.894,255.121,116.407,256.815,117.69,257.337z"/>
</g>
</svg>
