<?xml version="1.0" encoding="utf-8"?>
<!-- Generator: Adobe Illustrator 16.2.1, SVG Export Plug-In . SVG Version: 6.00 Build 0)  -->
<!DOCTYPE svg PUBLIC "-//W3C//DTD SVG 1.1//EN" "http://www.w3.org/Graphics/SVG/1.1/DTD/svg11.dtd">
<svg version="1.1" id="Layer_1" xmlns="http://www.w3.org/2000/svg" xmlns:xlink="http://www.w3.org/1999/xlink" x="0px" y="0px"
	 width="612px" height="612px" viewBox="0 0 612 612" enable-background="new 0 0 612 612" xml:space="preserve">
<g>
	<path fill="#A4D175" d="M217.299,549.321c-19.575-2.861-48.469,8.714-36.874,22.502c-8.411-11.816,19.459-15.172,38.909-8.231
		c10.596,3.778,25.662,9.798,16.809,14.712C248.103,573.24,247.009,553.668,217.299,549.321z"/>
	<path fill="#6EA041" d="M220.249,559.782c-20.251-5.007-48.234,0.225-39.823,12.041c11.596,13.784,43.759,11.54,55.718,6.48
		C244.997,573.39,240.29,564.737,220.249,559.782z"/>
</g>
<path fill="#A4D175" d="M262.373,145.892c-78.263,97.074-32.768,169.57-25.944,187.321c6.824,17.743,10.467,16.835-19.11,41.403
	c-30.973,25.736-41.253,67.966-34.994,104.278c3.09,17.948,10.199,34.45,20.887,46.798c24.387,28.163,65.104,39.718,101.027,24.121
	c4.696-10.501,21.083-23.319,35.759-27.69c10.671-13.102,17.617-27.976,21.203-43.229c8.88-37.736-2.865-77.767-30.125-98.817
	c-31.548-24.356-57.332-15.925-70.528-29.121c-21.424-21.421,15.739-230.07,190.179-333.999l2.76-2.117
	C453.486,14.84,340.64,48.814,262.373,145.892z"/>
<g>
	<path fill="none" d="M310.298,304.237c-0.777,0.285-1.519,0.563-2.28,0.849c1.476-0.489,2.947-1.019,4.414-1.62
		C311.722,303.721,311.012,303.982,310.298,304.237z"/>
	<path fill="#6EA041" d="M407.872,151.428c-3.246-68.143-50.65-83.762-109.509,39.938c-51.701,108.673-22.657,124.51,9.655,113.719
		c0.762-0.285,1.503-0.563,2.28-0.849c0.714-0.255,1.424-0.517,2.134-0.771c0.039-0.018,0.073-0.031,0.109-0.041
		c0.086-0.037,0.17-0.058,0.256-0.092c50.416-18.301,99.357-38.491,95.187-146.521C407.913,154.969,407.905,153.229,407.872,151.428
		z"/>
	<path fill="#5A7F39" d="M415.756,78.381c10.457-37.968,30.961-57.89,37.73-63.542l-2.76,2.117
		c-174.44,103.929-211.603,312.578-190.179,333.999c-5.777-6.691-1.359-20.985,18.614-32.684
		c7.409-4.343,16.911-8.754,28.856-13.187c-32.312,10.791-58.045-12.94-8.295-113.719c53.906-109.2,104.903-108.081,108.149-39.938
		C407.179,121.406,410.53,97.338,415.756,78.381z"/>
	<path fill="#A09F9F" d="M312.432,303.466c0.123-0.048,0.243-0.089,0.365-0.133c-0.086,0.034-0.17,0.055-0.256,0.092
		C312.505,303.435,312.471,303.448,312.432,303.466z"/>
</g>
<g>
	<path fill="#6EA041" d="M304.222,549.813c4.7-10.501,21.087-23.319,35.762-27.69c10.671-13.102,17.621-27.976,21.203-43.229
		c8.88-37.736-2.865-77.767-30.128-98.817c-31.544-24.356-57.332-15.925-70.528-29.121c-0.221-0.222-0.425-0.493-0.628-0.755
		c9.488,14.145,26.467,14.006,44.51,28.248c21.618,17.063,32.425,46.025,30.488,80.571c-4.044,72.248-99.243,106.087-133.9,63.915
		c0.734,0.925,1.438,1.872,2.195,2.757C227.586,553.855,268.304,565.41,304.222,549.813z"/>
</g>
<path fill="#557635" d="M281.795,491.604c4.993-0.01,9.053-4.529,9.053-10.089c0.003-5.554-4.051-10.04-9.04-10.019
	c-4.992,0.013-9.037,4.529-9.037,10.082C272.769,487.14,276.806,491.626,281.795,491.604z"/>
<path fill="#557635" d="M214.424,487.859c-4.258,1.476-6.396,6.506-4.771,11.246c1.614,4.734,6.389,7.378,10.657,5.902
	c4.248-1.474,6.393-6.507,4.769-11.241C223.458,489.025,218.682,486.389,214.424,487.859z"/>
<path fill="#FFFFFF" d="M285.659,478.422c-0.006,1.944-1.58,3.538-3.531,3.541c-1.947,0.007-3.534-1.576-3.531-3.52
	c0-1.951,1.583-3.538,3.534-3.542C284.083,474.892,285.659,476.472,285.659,478.422z"/>
<path fill="#FFFFFF" d="M220.901,494.605c-0.003,1.951-1.59,3.534-3.541,3.538c-1.944,0.011-3.531-1.562-3.531-3.514
	c0.007-1.951,1.586-3.538,3.538-3.544C219.321,491.075,220.901,492.655,220.901,494.605z"/>
<path fill="#A4D175" d="M305.521,536.655c17.22-22.076,41.635-30.576,52.819-20.163c11.177,10.42-4.87,37.172-31.168,42.308
	C300.874,563.938,291.209,555.014,305.521,536.655z"/>
<path fill="#6EA041" d="M306.026,539.962c15.762-19.004,33.526-23.286,43.663-14.402c10.135,8.88-0.088,29.431-24.058,33.946
	C301.684,564.026,292.909,555.771,306.026,539.962z"/>
</svg>
