<?xml version="1.0" encoding="utf-8"?>
<!-- Generator: Adobe Illustrator 16.2.1, SVG Export Plug-In . SVG Version: 6.00 Build 0)  -->
<!DOCTYPE svg PUBLIC "-//W3C//DTD SVG 1.1//EN" "http://www.w3.org/Graphics/SVG/1.1/DTD/svg11.dtd">
<svg version="1.1" id="Layer_1" xmlns="http://www.w3.org/2000/svg" xmlns:xlink="http://www.w3.org/1999/xlink" x="0px" y="0px"
	 width="612px" height="612px" viewBox="0 0 612 612" enable-background="new 0 0 612 612" xml:space="preserve">
<g>
	<path fill="#6EA041" d="M587.108,442.843c0,15.797-6.636,38.841-46.853,47.554c-40.532,8.778-71.893,18.526-62.099,44.504
		c0.931,1.523,1.995,3.079,3.251,4.689l2.153,3.483c2.626-0.076,41.212-3.117,43.483-5.389c2.271-2.271,24.793-8.95,24.793-8.95
		l4.982-9.977l16.018-15.979c0,0-16.23,38.288-58.95,63.488c17.645,5.197,39.733,3.102,57.915-12.63
		C622.048,510.173,587.108,442.843,587.108,442.843z"/>
	<path fill="#5A7F39" d="M572.838,502.778l-16.018,15.979l-4.982,9.977c0,0-22.521,6.68-24.793,8.95
		c-2.271,2.271-40.857,5.312-43.483,5.389l2.877,4.659c0,0,0.265,0.197,0.721,0.514c5.361,7.984,15.079,14.59,26.729,18.021
		C557.445,545.838,572.838,502.778,572.838,502.778z"/>
</g>
<path fill="#6EA041" d="M192.81,273.627c0,0,20.631,44.507-32.485,95.92c-53.108,51.418-36.496,147.155,17.251,170.133
	c0,0-14.609-34.38,13.959-59.173c28.568-24.793-8.56-69.912,13.788-124.111c24.859-60.266-8.195-113.742-8.195-113.742"/>
<path fill="#6EA041" d="M224.305,400.957c34.456,25.669-4.447,75.008,7.88,90.867c22.763,29.303,22.31,46.646,22.31,46.646
	l-7.444,10.641h37.494c10.471-18.365,4.704-39.354,4.704-39.354c20.944-28.031,32.294-56.004,36.182-82.755
	c-5.509-0.071-11.022-0.12-16.531-0.104"/>
<path fill="#7AB344" d="M445.617,512.487"/>
<g>
	<path fill="none" d="M463.315,554.658c-5.934-0.184-12.157-0.721-18.687-1.718c5.901,1.104,12.06,1.718,18.496,1.718
		C463.19,554.658,463.256,554.658,463.315,554.658z"/>
	<path fill="#8EC65E" d="M512.521,532.392c-2.757,0.03-5.555-0.057-8.383-0.248c-56.889-3.964-125.817-53.758-125.817-150.245
		l-37.08,70.717c11.159,26.229,43.781,89.191,103.389,100.325c6.529,0.997,12.753,1.534,18.687,1.718
		c1.698,0,3.306,0.027,4.881,0.065c18.321-0.063,33.681-3.625,45.997-8.386l0.085,0.125c0.439-0.248,0.859-0.434,1.291-0.66
		L512.521,532.392z"/>
	<path fill="#7AB344" d="M444.629,552.94c-59.607-11.134-92.229-74.096-103.389-100.325l-20.794,39.646
		C369.568,530.953,411.005,547.822,444.629,552.94z"/>
	<path fill="#7AB344" d="M468.196,554.724c-1.575-0.038-3.183-0.065-4.881-0.065C464.965,554.71,466.592,554.731,468.196,554.724z"
		/>
</g>
<path fill="#8EC65E" d="M47.361,305.851c0,0-26.005-12.972-28.025-49.374c-2.012-36.4,45.962-115.786,178.206-85.583
	c132.246,30.207,251.58,190.912,130.63,352.782c0,0,7.659,27.878-6.245,52.276h-49.794l9.875-14.135c0,0,0.606-23.041-29.636-61.957
	c-16.367-21.07,0.805-45.113-3.224-75.319c0,0-18.146-29.432-53.217-37.95c-35.079-8.52-53.217-52.663-58.461-83.645
	c0,0-33.261-8.131-53.217-3.775c-19.962,4.356-31.451-6.68-31.451-6.68L47.361,305.851z"/>
<path fill="#B6D774" d="M47.361,305.851l6.649-20.328c0,0,34.476,4.356,51.408,2.034c16.935-2.326,19.65-9.589,19.65-9.589
	s119.234,3.811,124.592,154.127c0,0-3.939-25.366-41.638-38.726c-37.696-13.358-68.542-30.015-73.378-87.327
	c0,0-19.954-8.128-47.37-5.224c-27.414,2.901-31.85-4.064-31.85-4.064"/>
<path fill="#8EC65E" d="M178.349,269.647c0,0,16.935,48.79-44.349,97.583c-61.278,48.795-54.022,151.021,0,180.454
	c0,0-11.688-37.561,20.969-60.798c32.655-23.234-1.545-74.298,27.72-129.044c32.535-60.874,17.625-112.21,17.625-112.21"/>
<path fill="#8EC65E" d="M465.058,554.693c78.349,0,107.78-51.915,107.78-51.915s-41.931,40.02-95.898,24.16"/>
<path fill="#7AB344" d="M202.222,269.451c0,0,8.055,37.969-6.041,71.457c-12.846,30.512-24.812,46.418-21.302,79.092
	c9.221,85.809-49.281,61.379-40.879,127.685c0,0-21.188-37.173,5.14-69.847c26.33-32.674,14.854-73.728,37.647-112.196
	C209.535,310.371,202.222,269.451,202.222,269.451z"/>
<path fill="#6EA041" d="M367.461,450.407c0,0-22.293,53.261-47.665,70.974c0,0,7.692,28.094-4.389,47.026l-43.276,7.545h49.794
	c0,0,16.688-21.134,7.629-51.67C329.555,524.282,363.241,482.652,367.461,450.407z"/>
<path fill="#6EA041" d="M355.363,481.381l-19.08,28.09c0,0,166.176,109.323,236.555-6.692c0,0-31.378,46.333-107.085,39.675
	C433.213,539.59,395.378,526.146,355.363,481.381z"/>
<path fill="#6EA041" d="M319.796,521.381c0,0,49.555-49.021,39.591-139.482c-9.963-90.46-68.282-159.455-160.587-199.164h57.298
	l54.91,44.575c0,0,58.862,39.992,71.53,142.755c12.671,102.763-52.982,154.217-52.982,154.217"/>
<g>
	<path fill="#6EA041" d="M345.832,234.558c-11.293-0.161-43.339-2.288-64.396-20.435c9.671,26.978,25.898,28.59,44.204,31.2
		c22.79,3.251,28.053,15.256,28.053,15.256C351.714,249.988,348.995,241.45,345.832,234.558z"/>
	<path fill="#5A7F39" d="M345.832,234.558c-15.911-34.549-43.574-27.182-50.51-25.452c-8.333,2.069-16.11-2.022-16.11-2.022
		c0.69,2.528,1.433,4.861,2.225,7.04C302.493,232.27,334.539,234.396,345.832,234.558z"/>
</g>
<g>
	<path fill="#6EA041" d="M341.765,189.813c-17.009,4.307-65.976,14.014-105.425-4.722c26.21,36.561,51.252,32.444,79.837,28.983
		c35.573-4.291,48.678,11.587,48.678,11.587C357.285,210.58,349.503,198.867,341.765,189.813z"/>
	<path fill="#5A7F39" d="M341.765,189.813c-38.868-45.399-77.143-23.224-86.792-17.835c-11.59,6.456-25.025,3.45-25.025,3.45
		c2.129,3.51,4.255,6.72,6.393,9.663C276.703,209.778,324.756,194.12,341.765,189.813z"/>
</g>
<g>
	<path fill="#6EA041" d="M301.011,148.366c-19.44,11.939-76.542,42.948-133.619,34.77c47.968,35.543,77.536,20.748,111.788,5.407
		c42.631-19.088,65.618-4.312,65.618-4.312C329.053,168.317,314.454,156.686,301.011,148.366z"/>
	<path fill="#5A7F39" d="M301.011,148.366c-67.482-41.715-106.02,0.75-115.827,11.197c-11.77,12.535-29.805,13.965-29.805,13.965
		c4.127,3.565,8.118,6.742,12.013,9.608C229.947,192.428,281.57,160.306,301.011,148.366z"/>
</g>
<g>
	<path fill="#6EA041" d="M228.937,95.22c-16.367,20.693-66.156,76.995-132.382,90.152c67.723,20.502,94.023-7.27,125.255-37.451
		c38.878-37.568,70.387-30.223,70.387-30.223C268.167,106.302,247.226,99.153,228.937,95.22z"/>
	<path fill="#5A7F39" d="M228.937,95.22c-91.773-19.711-116.321,41.987-122.722,57.301c-7.678,18.365-26.912,26.941-26.912,26.941
		c6.038,2.326,11.765,4.261,17.251,5.91C162.781,172.215,212.57,115.913,228.937,95.22z"/>
</g>
<path fill="#6EA041" d="M80.87,154.532c0.961,20.006-11.836,37.036-11.836,37.036c87.139-37.972,102.384-73.845,113.878-110.374
	c0.69-2.178,1.447-4.275,2.263-6.287c12.715-31.65,39.13-42.459,39.13-42.459C73.831,42.688,79.909,134.527,80.87,154.532z"/>
<g>
	<g>
		<path fill="#8EC65E" d="M224.299,32.449c-6.245,0.385-12.199,0.961-17.874,1.695C212.136,33.448,218.076,32.872,224.299,32.449z"
			/>
		<path fill="#8EC65E" d="M92.493,151.838c1.419-27.594,5.838-103.672,113.933-117.694C74.349,50.181,75.269,134.652,77.209,153.76
			c2.64,26.167-8.178,37.806-8.178,37.806S90.907,182.587,92.493,151.838z"/>
	</g>
</g>
<path fill="#6EA041" d="M399.447,464.847c-9.897-17.639-15.349-39.143-15.349-63.89l-28.95,75.84l5.724,20.765
	c0,0-9.856,32.065,19.395,14.926c1.515-0.887,2.983-1.685,4.44-2.459C383.241,499.426,383.064,481.67,399.447,464.847z"/>
<path fill="#6EA041" d="M383.673,381.898c1.774,39.694,4.349,66.309,15.774,82.948c0,0-12.824-7.998-13.566-8.713
	c-0.742-0.712-2.658-20.357-3.344-29.111c-0.683-8.754-1.528-20.562-2.59-24.229c-1.06-3.663-3.816-14.047-3.816-14.047"/>
<path fill="#6EA041" d="M399.447,464.847c0,0-26.403,55.005,45.182,74.22l-8.077,2.792c0,0-25.506-5.634-45.771-13.124
	c-20.266-7.49-24.33-10.097-25.545-11.312c-1.214-1.215,0-10.154,0-12.949c0-2.796,4.231-13.627,4.231-17.121
	c0-3.493,7.831-22.506,7.831-22.506"/>
<g>
	<path fill="#557635" d="M75.618,257.244c2.018,2.225,6.115,1.851,9.155-0.841c3.016-2.689,3.835-6.663,1.818-8.872
		c-2.017-2.222-6.109-1.84-9.133,0.841C74.423,251.066,73.598,255.03,75.618,257.244z"/>
	<path fill="#FFFFFF" d="M84.37,252.595c-1.07,0.939-2.566,1.016-3.352,0.145c-0.792-0.874-0.565-2.345,0.497-3.278
		c1.065-0.953,2.563-1.007,3.352-0.145C85.658,250.182,85.431,251.653,84.37,252.595z"/>
</g>
</svg>
