<?xml version="1.0" encoding="utf-8"?>
<!-- Generator: Adobe Illustrator 16.2.1, SVG Export Plug-In . SVG Version: 6.00 Build 0)  -->
<!DOCTYPE svg PUBLIC "-//W3C//DTD SVG 1.1//EN" "http://www.w3.org/Graphics/SVG/1.1/DTD/svg11.dtd">
<svg version="1.1" id="Layer_1" xmlns="http://www.w3.org/2000/svg" xmlns:xlink="http://www.w3.org/1999/xlink" x="0px" y="0px"
	 width="612px" height="612px" viewBox="0 0 612 612" enable-background="new 0 0 612 612" xml:space="preserve">
<path fill="#8EC65E" d="M566.425,333.216c-31.302,42.616-62.757,35.313-86.266,51.139c-26.251,17.672-24.587,50.328,17.221,53.571
	c0,0,58.341-33.88,59.685-34.013c1.352-0.131,14.199-40.286,17.199-44.376c3.012-4.088,15.778-61.698,15.778-61.698l-0.14-20.94
	C589.902,276.898,584.156,309.076,566.425,333.216z"/>
<g>
	<path fill="#6EA041" d="M589.902,276.898c-20.345,104.061-75.358,177.503-227.279,108.633l48.282,57.89
		c14.462-10.368,27.05-13.938,38.551-13.786l0,0c91.755,0,112.859-54.209,112.859-54.209s14.095,37.213-15.026,71.804
		c5.762-2.851,11.812-6.967,18.242-12.715C618.719,386.968,589.902,276.898,589.902,276.898z"/>
	<path fill="#6EA041" d="M565.728,368.529c0,0-24.517,61.105-116.271,61.105l0,0c35.361,0.466,60.427,36.106,97.833,17.595
		C576.41,412.639,565.728,368.529,565.728,368.529z"/>
</g>
<path fill="#99B259" d="M141.495,432.431c-21.708,52.456,2.153,110.308,2.153,110.308l13.457-8.983l6.145,4.363
	c12.75-21.622,52.42-54.719,52.42-54.719l14.155-60.475C229.825,422.925,163.212,379.982,141.495,432.431z"/>
<path fill="#99B259" d="M141.929,466.191c0,0,34.328,48.796,116.525,40.469c102.51-10.391,107.393-95.547,107.393-95.547
	s-70.729-25.331-97.706-31.886"/>
<path fill="#C5DD7C" d="M191.823,468.265c0,0,42.108,35.675,57.157,90.67l8.745-4.077l14.868,14.418
	c0,0,43.428-67.314,28.236-138.354c-15.198-71.036-109.007-32.365-109.007-32.365"/>
<path fill="#C5DD7C" d="M286.095,464.847c31.613,6.497,65.38,28.791,99.399,78.171l9.487-11.158l22.586,13.244
	c0,0-5.235-90.492-53.001-165.591C328.067,399.34,294.764,425.516,286.095,464.847z"/>
<path fill="#C5DD7C" d="M359.867,372.382c-3.973-5.818-8.206-11.522-12.737-17.06c-63.987-78.177-126.437-100.296-215.823-46.858
	l26.816,110.624l-90.575,89.926c0,0,49.062,20.708,101.448-8.378c2.708-1.506,5.251-3.187,7.692-4.959l0.003,0.019
	c27.78-19.139,62.557-36.807,100.829-32.247C286.906,421.219,321.558,393.449,359.867,372.382z"/>
<path fill="#8EC65E" d="M101.761,288.146c0,0-140.671,107.044-44.978,245.937c0,0,19.294-25.307,42.987-34.812
	c18.651-7.483,42.578,1.519,68.002-32.055c17.056-22.525,12.566-57.689,70.649-57.598c0,0-28.569-65.322-90.696-64.368
	C85.127,346.21,101.761,288.146,101.761,288.146z"/>
<g>
	<path fill="#5A7F39" d="M115.424,444.208c4.109,2.422,10.169,0.133,13.543-5.108c3.364-5.235,2.752-11.44-1.351-13.844
		c-4.103-2.42-10.156-0.13-13.511,5.104C110.729,435.608,111.321,441.801,115.424,444.208z"/>
	<path fill="#FFFFFF" d="M122.815,439.112c-1.192,1.833-3.434,2.574-5.042,1.623c-1.604-0.948-1.947-3.209-0.767-5.041
		c1.179-1.843,3.45-2.562,5.051-1.624C123.653,435.012,123.992,437.276,122.815,439.112z"/>
</g>
<path fill="#8EC65E" d="M194.201,361.55c0,0,108.455-47.781,198.739,15.116c-32.501-52.624-108.703-133.848-257.751-88.521
	l-38.247,71.588c0,0,30.354,39.835,44.988,36.437L194.201,361.55z"/>
<path fill="#8EC65E" d="M272.593,569.275c0,0,11.713-152.403-91.495-185.051c-103.208-32.653,34.312-38.976,34.312-38.976
	l70.167-9.617l18.477,4.15C304.054,339.782,337.596,481.345,272.593,569.275z"/>
<path fill="#8EC65E" d="M287.097,424.292c0-4.071-59.396-64.251-59.396-64.251s-115.162-40.552-46.602,28.008
	c66.841,66.842,67.881,170.886,67.881,170.886l8.637-2.851l14.976,13.191c0,0,30.827-96.774,30.827-101.011
	C303.42,464.035,287.097,428.359,287.097,424.292z"/>
<path fill="#8EC65E" d="M372.427,348.135c-47.927-57.161-72.032-17.722-72.032-17.722s-127.356,60.379-47.968,88.919
	c103.949,37.372,133.067,123.686,133.067,123.686l9.712-10.334l22.361,12.42C431.471,471.014,420.563,405.533,372.427,348.135z"/>
<path fill="#6EA041" d="M391.354,364.737c21.739,31.93,36.976,47.647,75.355,47.647s-4.64,8.907-7.347,8.907
	c-2.708,0-23.521-2.568-41.795-4.668c-18.273-2.099-15.569,0.606-18.273-2.099"/>
<path fill="#6EA041" d="M417.567,545.104c0,0,49.135-175.021-114.147-256.958l-34.22,18.939c0,0,167.76,23.067,141.227,234.056
	C410.427,541.141,414.526,543.414,417.567,545.104z"/>
<path fill="#6EA041" d="M248.98,558.935l8.637-2.851l14.976,13.191c0,0,58.14-61.657,34.473-181.227
	c0,0,9.938,100.221-38.868,170.287l-10.146-5.815L248.98,558.935z"/>
<polyline fill="#6EA041" points="417.567,545.104 395.206,532.684 385.494,543.018 393.748,527.896 417.567,534.662 "/>
<g>
	<g>
		<path fill="#6EA041" d="M325.927,223.952c-18.267,22.678-73.617,84.246-145.329,96.99c72.245,24.999,101.429-5.314,135.994-38.193
			c43.031-40.897,76.709-31.727,76.709-31.727C367.795,237.523,345.481,228.898,325.927,223.952z"/>
		<path fill="#5A7F39" d="M325.927,223.952c-98.144-24.837-126.504,43.536-133.885,60.49c-8.844,20.334-29.812,29.369-29.812,29.369
			c6.424,2.777,12.528,5.127,18.369,7.131C252.31,308.197,307.66,246.63,325.927,223.952z"/>
	</g>
	<g>
		<path fill="#6EA041" d="M251.19,170.783c-16.295,35.139-67.976,132.351-156.414,171.777
			c101.242,9.128,129.177-39.363,163.231-92.868c42.407-66.591,88.805-65.542,88.805-65.542
			C309.571,174.905,278.016,170.913,251.19,170.783z"/>
		<path fill="#5A7F39" d="M251.19,170.783c-134.611-0.618-149.283,96.729-153.357,120.983
			c-4.893,29.086-29.058,47.464-29.058,47.464c9.192,1.528,17.804,2.601,26.001,3.33
			C183.214,303.134,234.895,205.922,251.19,170.783z"/>
	</g>
	<path fill="#6EA041" d="M64.555,308.239c8.596,32.114-5.295,64.095-5.295,64.095c122.249-91.282,133.261-154.657,138.217-217.811
		c0.298-3.777,0.729-7.43,1.281-10.971c8.583-55.664,45.897-82.191,45.897-82.191C13.917,129.255,55.952,276.118,64.555,308.239z"/>
	<g>
		<g>
			<path fill="#8EC65E" d="M244.646,61.361c-9.598,2.749-18.651,5.708-27.237,8.837C226.052,67.128,235.095,64.17,244.646,61.361z"
				/>
			<path fill="#8EC65E" d="M81.693,299.903c-7.572-45.232-27.675-170.125,135.715-229.705
				C17.376,141.234,48.786,277.907,58.571,308.239c13.397,41.525,0.685,64.095,0.685,64.095S90.137,350.316,81.693,299.903z"/>
		</g>
	</g>
</g>
</svg>
