<?xml version="1.0" encoding="utf-8"?>
<!-- Generator: Adobe Illustrator 16.2.1, SVG Export Plug-In . SVG Version: 6.00 Build 0)  -->
<!DOCTYPE svg PUBLIC "-//W3C//DTD SVG 1.1//EN" "http://www.w3.org/Graphics/SVG/1.1/DTD/svg11.dtd">
<svg version="1.1" id="Layer_1" xmlns="http://www.w3.org/2000/svg" xmlns:xlink="http://www.w3.org/1999/xlink" x="0px" y="0px"
	 width="612px" height="612px" viewBox="0 0 612 612" enable-background="new 0 0 612 612" xml:space="preserve">
<path fill="#7AB344" d="M554.457,388.243c-26.453,31.338-50.593,39.842-90.15,42.498c-2.355,0.159-4.596,0.388-6.747,0.669
	c-15.848,2.041-26.179,7.242-32.521,14.737c-0.201,0.232-0.396,0.464-0.586,0.703c-0.18,0.226-0.352,0.45-0.531,0.684
	c-10.825,14.556-0.352,33.054-16.72,39.236c14.962,2.893,28.397,4.335,40.49,4.593C562.665,493.801,554.457,388.243,554.457,388.243
	z"/>
<g>
	<path fill="#85C55A" d="M464.307,430.741c-2.355,0.159-4.596,0.388-6.747,0.669c-1.233,1.461-2.487,3.083-3.715,4.898
		c-2.525,3.73-4.909,8.22-6.694,13.487c7.979-3.927,18.332-6.749,31.834-7.329c43.512-1.873,65.338-31.285,75.473-54.224
		C528.004,419.581,503.864,428.085,464.307,430.741z"/>
	<path fill="#6EA041" d="M554.457,388.243c-10.135,22.938-31.961,52.351-75.473,54.224c-13.502,0.58-23.854,3.402-31.834,7.329
		c1.785-5.268,4.169-9.757,6.694-13.487c1.228-1.815,2.481-3.438,3.715-4.898c-15.848,2.041-26.179,7.242-32.521,14.737
		c-0.201,0.232-0.396,0.464-0.586,0.703c-0.18,0.226-0.352,0.45-0.531,0.684c-10.825,14.556-0.352,33.054-16.72,39.236
		c14.962,2.893,28.397,4.335,40.49,4.593C562.665,493.801,554.457,388.243,554.457,388.243z"/>
</g>
<path fill="#6EA041" d="M378.625,510.061c-5.648-5.645-11.294-9.992-23.696-9.251c-0.521,0.029-0.937,0.061-1.426,0.092
	c0.788-13.156-0.32-27.755-4.378-41.145c-19.256-38.339-52.544-41.151-87.544-51.767c-2.768,10.264-5.233,2.244-7.275,12.695
	c-3.324,17.027-7.18,34.639-6.388,52.088c0.388,8.585,2.109,16.316,4.166,24.061c16.73-0.904,37.134-6.562,65.68,31.074
	c4.923,6.485,9.075,11.112,12.801,13.448c1.786,1.119,3.047-0.88,4.677-0.866c1.384,0.012,3.138,2.203,4.454,1.355
	c1.561-1.011,3.092-2.65,4.628-4.969c1.066-1.611,2.078-3.558,3.014-5.788v0.003c5.741-13.174,25.457-3.36,40.853,13.622
	C402.209,560.168,384.276,515.705,378.625,510.061z"/>
<path fill="#6EA041" d="M173.223,510.385c0,0-1.697,35.757,7.998,45.068c0.838,0.806,3.585-0.405,4.603-0.035
	c1.887,0.678,2.021,2.357,4,1.572c11.435-4.508,23.647-30.392,28.44-43.252c5.627-15.092-19.273-32.207-19.273-32.207l-22.517,8.811
	L173.223,510.385z"/>
<path fill="#A4D175" d="M421.341,555.552c10.893-16.433,17.206-60.533,6.081-97.301c-52.758-105.075-178.723-106.174-239.455-91.934
	c-46.885,10.992-78.691,55.685-78.691,55.685c-2.814-8.157-3.311-18.241-3.11-26.271c-3.204,9.063-5.423,20.046-5.821,33.356
	c-2.148,72.025-49.544,84.115-17.474,103.261c29.095,17.375,105.976,7.129,124.246-19.259c0,0,23.495,33.115,31.919,49.685
	c2.025,3.978,5.698,0.581,8.768,0.349c2.261-0.161,3.832-0.197,6.198-2.022c10.709-8.263,23-28.568,32.828-53.331
	c0,0,60.781-18.103,101.004,36.466c5.782,7.836,10.779,13.505,15.305,16.569c2.387,1.622,4.645-1.391,6.817-1.288
	c2.092,0.099,4.099,3.364,6.063,1.942C417.815,560.161,419.576,558.204,421.341,555.552z"/>
<path fill="#6EA041" d="M109.276,422.002c0,0,22.703-23.206,68.895-36.807c64.222-18.902,196.494-32.02,249.251,73.056
	c-3.112-10.316-7.369-20.89-13.029-31.728c-56.795-108.722-178.188-105.013-271.473-71.171c0,0-25.059,7.396-36.754,40.379
	C105.965,403.761,106.462,413.845,109.276,422.002z"/>
<g>
	<path fill="#557635" d="M147.727,487.242c4.986,1.812,11.219-1.978,13.917-8.466c2.683-6.471,0.82-13.185-4.156-14.973
		c-4.99-1.809-11.209,1.987-13.889,8.459C140.899,478.752,142.748,485.45,147.727,487.242z"/>
	<path fill="#FFFFFF" d="M157.971,473.279c-0.951,2.271-3.289,3.555-5.233,2.848c-1.951-0.708-2.761-3.132-1.813-5.395
		c0.944-2.277,3.296-3.548,5.24-2.847C158.105,468.586,158.915,471.007,157.971,473.279z"/>
</g>
<path fill="#A4D175" d="M190.312,210.653c-36.141,21.331-54.646,44.466-60.894,68.897c-0.184,0.675-0.338,1.348-0.494,2.012
	c-0.141,0.641-0.281,1.277-0.412,1.914c-7.871,40.371,27.929,68.84,2.352,97.082c0,0,20.189-11.864,19.827-41.855
	c-0.363-29.989,9.856-79.934,77.519-117.574c80.629-44.854,96.412-126.35,95.731-183.449
	C301.06,127.534,262.785,167.897,190.312,210.653z"/>
<path fill="#A4D175" d="M117.104,423.058c0,0-11.664-23.91-0.934-46.634c0,0-15.825,18.086-15.825,52.664
	c0,34.582,31.349,8.931,31.349,8.931"/>
<path fill="#6EA041" d="M90.407,535.853c0,0,65.134,9.062,108.854-29.398c26.894-23.66,11.769-51.236,11.769-51.236
	s32.782,36.194-14.928,72.092C155.76,557.669,90.407,535.853,90.407,535.853z"/>
<path fill="#6EA041" d="M373.314,528.203c0,0-26.896-32.206-81.727-31.802c1.292-9.603,1.187-16.193,1.187-16.193
	c-10.458,40.561-26.837,63.791-36.676,74.84c-6.261,7.125-8.473,5.957-11.97,7.73c-3.521,1.788-6.63-2.913-6.63-2.913
	c3.634,10.264,9.606,2.516,12.494,4.236c0.662,0.472,1.211,0.879,3.345,0.879c3.641,0,12.329-6.453,24.097-25.771
	c5.582-9.159,9.103-19.124,11.364-28.23C302.645,508.114,343.347,502.595,373.314,528.203z"/>
<path fill="#6EA041" d="M435.402,502.214c0-0.271-0.025-0.527-0.025-0.798c-0.007-1.946-0.076-3.945-0.176-5.972
	C430.951,380.99,320.622,341.83,320.622,341.83l-36.673,11.338c59.098,4.855,144.128,57.377,144.393,148.628
	c-0.19,9.11-1.328,18.413-3.736,27.808c-3.596,14.332-8.356,24.477-10.786,28.403c-1.663,2.685-2.627-1.526-8.093,1.729
	c-2.342,1.396-6.096-1.729-6.096-1.729s4.123,4.934,6.885,3.251c4.306-2.625,8.212,3.002,11.085-0.577
	c7.741-9.637,17.696-29.486,17.766-58.467H435.402z"/>
<g>
	<g>
		<path fill="#5A7F39" d="M395.285,224.408C341.272,340.244,185.288,358.03,185.288,358.03
			c247.403,34.786,260.831-179.138,260.831-179.138C428.648,198.675,412.202,213.331,395.285,224.408z"/>
		<path fill="#85C55A" d="M446.118,178.893c-52.688,57.904-112.272,73.337-153.481,77.828c-49.819,5.45-72.807,26.957-81.547,57.098
			c-8.741,30.121-25.802,44.212-25.802,44.212S355.78,353.9,446.118,178.893z"/>
	</g>
	<path fill="#5A7F39" d="M323.942,37.68c0.681,57.099-31.569,139.771-118.062,175.38c-71.599,29.477-60.277,95.709-59.915,125.699
		c0.363,29.99-15.1,41.799-15.1,41.799C454.488,295.447,323.942,37.68,323.942,37.68z"/>
	<path fill="#85C55A" d="M323.942,37.68c0,0,33.811,123.095-57.167,235.149c-70.677,87.049-135.909,107.729-135.909,107.729
		s12.762-14.198,5.099-36.492c-7.663-22.295-29.901-70.938,24.492-116.878C214.85,181.247,287.27,156.926,323.942,37.68z"/>
</g>
<path fill="#6EA041" d="M349.974,386.888c63.955,33.502,80.787,111.163,60.95,161.07c-7.662,19.278-25.238-11.929-41.828-24.016
	l11.702,12.818c0,0,5.859,5.704,9.69,11.858c3.832,6.154,9.618,12.98,14.876,12.98l2.103-1.721l6.986,0.75l14.353-27.622
	l2.332-58.763l-23.936-61.194l-33.687-23.42"/>
<path fill="#6EA041" d="M396.458,556.477c-11.723-11.714-26.891-31.482-39.85-31.482c-12.96,0,0-3.924,0-3.924
	s21.478,7.731,39.85,33.104"/>
<path fill="#6EA041" d="M266.775,372.285c116.051,0,151.974,89.108,151.974,130.545s9.152,6.007,9.152,6.007l-20.699-80.069
	l-37.346-40.524l-49.237-22.936l-15.213-3.451"/>
</svg>
