<?xml version="1.0" encoding="utf-8"?>
<!-- Generator: Adobe Illustrator 16.2.1, SVG Export Plug-In . SVG Version: 6.00 Build 0)  -->
<!DOCTYPE svg PUBLIC "-//W3C//DTD SVG 1.1//EN" "http://www.w3.org/Graphics/SVG/1.1/DTD/svg11.dtd">
<svg version="1.1" id="Layer_1" xmlns="http://www.w3.org/2000/svg" xmlns:xlink="http://www.w3.org/1999/xlink" x="0px" y="0px"
	 width="612px" height="612px" viewBox="0 0 612 612" enable-background="new 0 0 612 612" xml:space="preserve">
<path fill="#6EA041" d="M350.562,193.881c-69.683-33.244-70.481-86.701-70.481-86.701c-0.047,2.908-0.275,5.726-0.632,8.492
	c0.769,12.388-41.235,125.363,1.431,151.605c56.584,34.823,46.329-10.327,39.889,49.928
	c-6.937,64.964,26.434,116.531-51.211,112.105c-74.414-4.251-129.944-59.065-129.056-129.523
	c-3.563,12.174-5.631,25.504-5.631,40.365c0,94.145,78.186,161.163,174.731,156.378c95.098-4.713,149.196-74.002,149.196-153.988
	C458.797,268.343,423.975,228.896,350.562,193.881z"/>
<path fill="#A4D175" d="M392.262,237.101c-44.412-50.543-95.431-44.567-112.181-129.92
	c-9.023,71.226-114.064,105.549-139.58,192.607c-2.503,7.609-3.909,15.338-4.404,23.061l-0.25,0.102
	c-10.064,114.13,113.593,173.825,208.875,131.678C425.422,418.941,458.143,312.099,392.262,237.101z"/>
<path fill="#557635" d="M240.8,401.923c0.44,7.557-5.559,14.04-13.367,14.485c-7.806,0.435-14.49-5.32-14.92-12.878
	c-0.43-7.548,5.547-14.037,13.365-14.472C233.698,388.61,240.382,394.368,240.8,401.923z"/>
<path fill="#FFFFFF" d="M233.72,399.045c0.179,2.942-2.175,5.472-5.208,5.643c-3.038,0.179-5.653-2.074-5.809-5.018
	c-0.179-2.943,2.163-5.464,5.189-5.637C230.95,393.86,233.565,396.101,233.72,399.045z"/>
<path fill="#557635" d="M344.704,387.399c0.428,7.558-5.565,14.034-13.377,14.488c-7.813,0.435-14.492-5.327-14.928-12.884
	c-0.429-7.55,5.56-14.032,13.378-14.469C337.59,374.082,344.268,379.846,344.704,387.399z"/>
<path fill="#FFFFFF" d="M337.618,384.523c0.154,2.943-2.169,5.47-5.213,5.643c-3.046,0.178-5.648-2.08-5.804-5.022
	c-0.18-2.944,2.163-5.459,5.196-5.633C334.836,379.338,337.44,381.58,337.618,384.523z"/>
</svg>
