<?xml version="1.0" encoding="utf-8"?>
<!-- Generator: Adobe Illustrator 16.2.1, SVG Export Plug-In . SVG Version: 6.00 Build 0)  -->
<!DOCTYPE svg PUBLIC "-//W3C//DTD SVG 1.1//EN" "http://www.w3.org/Graphics/SVG/1.1/DTD/svg11.dtd">
<svg version="1.1" id="Layer_1" xmlns="http://www.w3.org/2000/svg" xmlns:xlink="http://www.w3.org/1999/xlink" x="0px" y="0px"
	 width="612px" height="612px" viewBox="0 0 612 612" enable-background="new 0 0 612 612" xml:space="preserve">
<g>
	
		<radialGradient id="SVGID_1_" cx="334.709" cy="234.5059" r="253.6925" gradientTransform="matrix(1 0 0 -1 0 435)" gradientUnits="userSpaceOnUse">
		<stop  offset="0" style="stop-color:#F5B136"/>
		<stop  offset="0.2003" style="stop-color:#EEA732"/>
		<stop  offset="0.5191" style="stop-color:#DE9129"/>
		<stop  offset="0.9144" style="stop-color:#C66E26"/>
		<stop  offset="1" style="stop-color:#C16725"/>
	</radialGradient>
	<path fill="url(#SVGID_1_)" d="M558.529,253.289c-3.107,0.168-6.709,0.527-10.545,1.151c3.316-3.201,7.02-6.612,10.843-9.916
		c11.957-10.28,24.368-19.55,24.329-19.586c0.018,0.055-13.761,6.921-27.562,15.111c-3.636,2.18-7.25,4.472-10.626,6.725
		c-2.387,0.715-6.653,2.153-10.891,4.334c-0.679,0.331-1.346,0.684-2.007,1.04c0.657-1.022,1.452-2.143,2.422-3.232
		c2.68-3.163,6.101-5.845,6.082-5.845c0.005,0.031-4.265,0.015-8.831,1.06c-0.36,0.068-0.713,0.17-1.068,0.254
		c2.603-3.238,6.197-7.092,10.02-10.772c4.309-4.095,8.689-8.035,11.847-10.862c9.242-3.848,17.184-6.522,17.206-6.492
		c0.017-0.039-12.34,1.208-24.904,3.842c-10.122,2.077-20.324,4.331-24.672,5.333c1.982-1.771,4.13-3.616,6.354-5.429
		c3.697-1.733,6.962-2.944,6.953-2.954c0,0.009-1.079-0.186-2.725-0.421c1.054-0.83,2.086-1.635,3.095-2.402
		c0.764-0.217,1.203-0.332,1.203-0.332s-0.284,0-0.79,0.012c5.333-4.089,9.491-7.088,9.465-7.107
		c0.013,0.044-8.713,3.297-18.05,7.413c-1.184,0.057-2.443,0.112-3.763,0.195c1.276-0.582,2.557-1.188,3.799-1.832
		c4.287-2.266,8.334-4.579,10.806-5.989c0.816-0.289,1.664-0.598,2.425-0.836c5.142-1.6,8.737-2.074,8.724-2.105
		c0,0.031-2.229-0.103-5.822,0.132c6.7-2.287,11.335-4.088,11.346-4.073c0-0.021-13.874,2.439-28.165,3.575
		c-1.233,0.118-2.467,0.211-3.685,0.297c0.243-0.163,0.478-0.312,0.725-0.462c5.767-3.867,11.351-7.391,11.416-7.35
		c0.021-0.071-6.702,0.941-13.434,2.219c-1.95,0.328-3.876,0.628-5.658,0.855c0.354-0.43,0.727-0.863,1.12-1.31
		c2.295-0.733,4.64-1.43,6.995-2.048c8.906-2.403,17.974-3.818,24.805-4.26c6.832-0.493,11.41-0.142,11.404-0.186
		c0,0.043-4.452-0.989-11.397-1.542c-2.592-0.226-5.535-0.359-8.698-0.372c10.257-2.387,17.757-3.562,17.729-3.605
		c0.017,0.067-13.975,0.259-30.57,2.605c0.849-0.638,1.4-1.027,1.4-1.027c0.009,0.009-4.695,0.612-9.95,2.167
		c0.336-0.344,0.682-0.696,1.042-1.029c5.424-5.395,12.033-9.306,15.898-11.343c6.988-2.738,11.951-4.736,11.933-4.774
		c0,0.069-10.236,1.975-22.256,4.162c0.726-0.458,1.452-0.924,2.202-1.363c0.796-0.458,1.594-0.901,2.408-1.337
		c1.658,0.056,2.666,0.114,2.666,0.114s-0.682-0.208-1.883-0.536c9.333-4.953,18.49-8.078,18.434-8.134
		c0.013,0.081-8.541,0.866-18.521,3.368c0.61-0.202,1.211-0.394,1.82-0.591c9.617-3.095,19.073-5.916,19.064-5.938
		c0,0.022-7.309,0.087-15.845,0.358c1.511-1.218,2.456-1.925,2.444-1.934c0.014,0.017-1.788,0.725-4.576,2.008
		c-0.672,0.013-1.356,0.046-2.045,0.065c-10.192,0.362-20.796,1.417-21.991,1.743c-0.312,0.081-0.599,0.197-0.873,0.341
		c-1.64,0.018-3.312,0.049-4.995,0.095l13.985-5.832l-17.279,1.297c-0.012,0-0.022,0-0.029,0c3.142-1.115,6.464-2.201,9.8-3.223
		c7.217-2.222,14.472-4.181,19.866-5.69c5.415-1.485,8.941-2.622,8.935-2.636c0,0.025-3.664,0.477-9.239,0.941
		c-5.583,0.488-13.066,1.089-20.695,1.98c-2.78,0.328-5.568,0.716-8.308,1.126c3.51-1.634,5.928-2.455,5.91-2.471
		c0.009,0.016-2.921,0.282-7.314,1.246c-0.623,0.129-1.331,0.312-2.008,0.479c2.179-1.532,3.834-2.502,3.808-2.507
		c0,0.059-5.921,0.279-12.161,2.267c-2.035,0.631-4.058,1.521-5.872,2.466c2.785-3.042,6.467-6.416,10.527-9.435
		c2.525-1.897,5.148-3.631,7.633-5.146c1.912-0.759,3.743-1.478,5.399-2.065c5.613-2.03,9.458-3.059,9.442-3.074
		c0.018,0.015-2.943,0.276-7.576,1.018c3.141-1.65,5.232-2.587,5.219-2.6c0.024,0.034-8.592,1.588-18.267,5.219
		c-1.267,0.304-2.568,0.623-3.88,0.951c1.002-1.369,1.608-2.236,1.646-2.227c-0.012-0.052-2.259,1.381-5.415,3.211
		c-1.126,0.302-2.269,0.6-3.397,0.921l-10.066,2.919c0.331-0.679,0.708-1.35,1.088-2.022c1.659-1.755,3.606-3.761,5.721-5.853
		c6.05-2.894,11.51-6.063,15.605-9.005c5.847-4.128,9.053-7.558,9.08-7.508c-0.021-0.049-3.715,2.866-9.974,6.026
		c-2.004,1.034-4.306,2.07-6.78,3.083c7.886-6.948,15.959-12.286,15.971-12.267c0.01-0.02-10.713,3.749-21.101,9.505
		c-5.404,2.91-10.676,6.229-14.666,8.904c-0.818,0.182-1.634,0.362-2.455,0.536c-0.046-0.06-0.081-0.118-0.143-0.173
		c0.267-0.47,0.553-0.957,0.844-1.449c7.386-3.581,13.084-6.271,13.076-6.279c0,0.009-4.399,0.98-10.597,2.419
		c0.325-0.482,0.667-0.971,1.024-1.438c2.104-2.774,4.702-5.098,7.023-6.374c2.308-1.309,4.142-1.683,4.129-1.706
		c0.008,0.04-1.805-0.326-4.671,0.071c-1.076,0.129-2.307,0.45-3.585,0.858c6.572-5.442,12.241-8.817,12.197-8.817
		c0.058,0.034-9.13,3.198-19.068,9.361c0.334-0.454,0.653-0.922,1.013-1.368c0.795-1.024,1.669-1.984,2.556-2.892
		c7.472-4.611,12.585-8.632,13.062-8.991c1.536-0.526,2.436-0.852,2.436-0.837c0-0.016-4.632,0.914-11.694,2.056
		c-1.57,0.257-3.275,0.528-5.061,0.807l4.146-6.021l-10.896,7.09c-0.901,0.15-1.824,0.3-2.758,0.449
		c0.662-0.617,1.354-1.198,1.989-1.846c5.552-5.488,9.66-12.096,11.602-17.343c1.995-5.237,2.367-8.871,2.418-8.847
		c-0.042-0.031-1.122,3.494-3.962,8.082c-2.804,4.606-7.694,9.877-13.62,13.886c-3.005,2.074-6.212,3.882-9.345,5.47
		c-0.798-0.341-1.841-0.672-3.063-0.731c-0.064-0.009-0.115-0.019-0.187-0.019c1.508-1.625,3.115-3.321,4.766-4.971
		c2.971-2.981,6.083-5.743,8.549-7.651c2.467-1.917,4.259-3.012,4.25-3.025c0.009,0.021-2.03,0.464-5.067,1.507
		c-3.035,1.033-7.014,2.714-10.938,4.674c-3.163,1.593-6.27,3.296-8.919,4.819c-0.196-0.169-0.389-0.346-0.591-0.519l0.263-0.117
		l1.306-0.7l5.297-2.857l11.188-6.101c7.552-4.158,14.874-8.519,20.157-12.021c5.293-3.485,8.578-6.047,8.583-6.029
		c-0.006-0.019-3.671,1.974-9.42,4.525c-4.965,2.222-11.499,4.816-18.388,7.333c1.894-1.802,3.69-3.616,5.354-5.417
		c2.179-1.07,3.526-1.727,3.536-1.708c0-0.02-0.934,0.2-2.508,0.575c2.193-2.433,4.162-4.798,5.743-6.89
		c3.516-4.609,5.412-7.891,5.439-7.878c-0.019-0.022-2.499,2.873-6.705,6.72c-3.366,3.086-7.915,6.708-12.931,10.104
		c-0.471,0.12-0.958,0.241-1.443,0.368c1.197-1.42,2.343-2.78,3.412-4.021c4.825-5.661,8.218-9.231,8.208-9.231
		c0.01,0-2.548,2.031-6.463,5.42c-1.253,0.728-2.916,1.65-4.938,2.703c-4.554,2.363-10.82,5.129-17.315,7.556
		c-4.928,1.829-9.988,3.498-14.452,4.921c-0.375-0.27-0.746-0.536-1.124-0.798c0.771-0.729,1.662-1.502,2.722-2.32
		c0.133-0.105,0.29-0.214,0.42-0.319c11.617-5.543,22.198-10.104,22.223-10.069c0-0.027-3.157,0.635-7.961,1.726
		c0.298-0.132,0.577-0.271,0.871-0.405c5.997-2.783,12.187-5.154,16.796-6.952c4.619-1.78,7.646-3.04,7.646-3.04l-8.103,1.375
		c-4.466,0.733-10.361,1.689-16.449,3.027c4.867-3.114,7.98-5.21,7.986-5.194c0-0.017-3.812,1.749-9.654,4.299
		c0.111-0.227,0.187-0.364,0.191-0.355c-0.005-0.019-0.147,0.162-0.408,0.443c-1.914,0.842-4.067,1.764-6.366,2.73
		c0.729-1.018,1.398-2.032,1.976-3.028c2.434-1.163,4.023-1.702,4.014-1.718c0.011,0.016-1.279,0.149-3.406,0.601
		c0.174-0.322,0.356-0.647,0.51-0.96c0.361-0.737,0.675-1.427,0.956-2.102c0.61-0.604,1.241-1.23,1.777-1.802
		c3.226-3.418,4.877-6.011,4.894-5.995c-0.007-0.021-1.995,1.9-5.404,4.262c0.489-1.678,0.645-2.7,0.679-2.684
		c-0.034-0.021-0.504,1.313-1.655,3.337c-3.754,2.53-8.935,5.334-14.421,7.799c-1.174,0.521-2.365,1.042-3.548,1.537
		c7.965-6.561,14.069-11.913,14.095-11.881c-0.013-0.056-12.324,7.092-25.194,13.801c-0.729,0.385-1.45,0.738-2.172,1.117
		c1.507-1.71,3.104-3.39,4.879-4.886c4.149-3.574,9.266-5.977,13.292-7.316c4.024-1.377,6.853-1.895,6.83-1.926
		c0,0.04-2.839-0.148-7.193,0.241c-2.923,0.232-6.618,0.892-10.434,2.146c0.839-0.64,1.669-1.287,2.516-1.924
		c12.314-9.129,24.641-17.734,24.576-17.809c0.022,0.105-13.562,6.234-27.484,13.116c-5.293,2.645-10.578,5.522-15.139,8.255
		c1.22-1.744,2.557-3.532,3.979-5.252c2.999-3.678,6.348-6.986,9.166-9.113c2.813-2.145,5.056-3.04,5.031-3.065
		c0.027,0.035-2.39,0.236-5.854,1.558c-3.009,1.114-6.733,3.08-10.388,5.46c0.421-0.606,0.828-1.214,1.182-1.805
		c2.122-3.532,3.169-6.436,3.654-7.968c0.139-0.113,0.312-0.247,0.441-0.365c3.365-2.792,5.448-4.757,5.456-4.757
		c-0.008,0-2.502,1.415-6.396,3.313c-0.348,0.172-0.775,0.371-1.153,0.555c2.261-3.363,3.943-6.727,4.997-9.693
		c2.159-5.884,2.477-9.961,2.554-9.941c-0.056-0.034-1.105,3.965-4.104,9.211c-2.971,5.247-8.329,11.354-15.083,15.542
		c-0.68,0.44-1.396,0.771-2.087,1.165c-2.956,1.336-5.896,2.72-8.671,4.101c-1.012,0.371-1.995,0.666-2.979,0.99
		c0.002-0.012,0.006-0.012,0.006-0.012c1.355-1.864,2.273-3.507,2.861-4.682c5.703-2.754,10.378-4.241,10.349-4.246
		c0.013,0.032-3.866,0.169-9.273,1.079c0-0.017,0.005-0.031,0.017-0.037c1.248-3.432,1.328-5.779,1.369-5.77
		c-0.03-0.025-0.835,2.223-2.886,4.943c-0.331,0.443-0.747,0.896-1.148,1.347c-1.583,0.317-3.252,0.699-4.969,1.157
		c0.497-0.6,1.025-1.173,1.51-1.789c8.132-10.187,12.956-21.475,13.016-21.427c-0.012-0.07-7.395,9.915-16.95,17.561
		c-2.205,1.789-4.514,3.42-6.771,4.866c-0.22-0.709-0.447-1.409-0.69-2.024c-0.273-0.694-0.545-1.3-0.81-1.844
		c1.916-2.319,3.938-4.693,6.036-7.017c10.22-11.233,20.844-21.73,20.759-21.79c0.037,0.074-8.912,6.129-19.173,13.738
		c-0.188,0.083-0.353,0.164-0.545,0.265c-1.184,0.59-2.478,1.337-3.812,2.16c0.618-1.31,1.227-2.619,1.785-3.94
		c2.93-6.841,5.285-13.669,7.038-18.758l2.886-8.447l-4.456,7.735c-2.686,4.65-6.29,10.865-10.313,16.836
		c-2.047,3.049-4.228,5.986-6.392,8.648c-0.861,0.171-2.499,0.563-4.583,1.374c-3.094,1.165-7.118,3.077-11.015,5.511
		c-0.015,0.005-0.032,0.022-0.045,0.03c0.174-2.788,0.204-5.627-0.057-8.418c-0.646-7.51-2.816-14.549-5.133-19.39
		c-2.286-4.885-4.58-7.571-4.533-7.59c-0.047,0.009,1.667,3.107,2.908,8.166c1.286,5.021,1.975,11.979,1.23,18.803
		c-0.12,1.27-0.317,2.527-0.537,3.765c-0.119-9.701-1.356-17.315-1.237-17.328c-0.123-0.072-0.927,12.555-4.393,24.501
		c-0.898,3.11-2.043,6.104-3.328,8.744c-0.084-0.006-0.171-0.006-0.248-0.014c-0.325-0.68-0.653-1.349-1.001-2.008
		c-0.481-0.92-0.982-1.807-1.485-2.668c-0.007-0.17-0.025-0.341-0.032-0.503c2.281-2.263,4.089-4.68,5.132-6.866
		c1.808-3.644,2.146-6.228,2.201-6.216c-0.034-0.037-1.104,2.415-3.63,5.241c-1.088,1.248-2.543,2.445-4.169,3.557
		c-0.356-1.962-0.914-3.897-1.729-5.755c-1.538-3.732-3.898-6.787-6.438-9.184c1.989-7.234,3.285-12.777,3.349-12.771
		c-0.045-0.05-2.298,4.31-5.491,10.063c-1.852-2.278-3.843-4.3-5.849-6.008c1.089-3.226,2.367-6.125,3.795-8.423
		c2.611-4.335,5.229-6.639,5.18-6.669c0.045,0.048-2.963,1.742-6.554,5.636c-1.797,1.887-3.597,4.376-5.285,7.199
		c-1.021-0.746-2.035-1.414-2.99-1.975c-4.659-2.771-8.062-3.718-8.028-3.767c-0.042,0.035,3.132,1.665,7.003,5.148
		c0.911,0.809,1.846,1.746,2.774,2.758c-0.246,0.458-0.477,0.913-0.722,1.375c-1.234-0.414-1.974-0.589-1.967-0.606
		c-0.012,0.017,0.671,0.344,1.775,0.982c-0.933,1.824-1.818,3.717-2.616,5.652c-1.745,4.16-3.302,8.296-4.784,12.028
		c-1.1,1.687-2.28,3.523-3.489,5.405c-0.629,1.009-1.254,2.027-1.846,3.052c0.183-2.244,0.305-4.514,0.26-6.785
		c-0.062-7.872-1.789-15.566-4.408-20.643c-0.211-0.434-0.431-0.82-0.645-1.207c1.805-3.984,3.158-6.365,3.136-6.371
		c0.021,0.005-1.513,1.943-3.745,5.302c-0.405-0.668-0.802-1.257-1.183-1.802c1.654-7.587,3.378-12.974,3.356-12.956
		c0.024,0-2.314,4.274-5.118,10.743c-0.736-0.834-1.225-1.271-1.191-1.284c-0.034,0.006,0.414,0.6,1.036,1.656
		c-2.037,4.729-4.293,10.577-6.055,16.78c-0.41,1.415-0.762,2.861-1.112,4.309c-1.562,2.743-3.187,5.556-4.884,8.326
		c-0.439,0.715-0.916,1.39-1.368,2.087c-0.008-0.006-0.008-0.006-0.016-0.013c-0.012-0.399-0.059-0.786-0.064-1.188
		c-0.126-5.476,0.471-10.973,1.285-15.022c0.792-4.066,1.732-6.676,1.709-6.689c0.023,0.013-1.54,2.303-3.346,6.141
		c-1.42,2.981-2.947,6.908-4.161,11.208c-1.436-2.158-2.55-4.445-3.066-6.776c-0.639-2.787-0.446-5.579,0.164-7.894
		c1.266-4.671,3.411-7.392,3.314-7.41c0.09,0.064-2.543,2.172-4.933,6.812c-1.159,2.309-2.078,5.396-2.019,8.862
		c0.037,3.469,1.087,7.125,2.631,10.438c0.65,1.365,1.387,2.665,2.132,3.94c-0.405,2.526-0.622,5.04-0.718,7.451
		c-0.747,0.921-1.497,1.836-2.241,2.721c-0.343,0.083-0.689,0.189-1.03,0.279c-0.026-0.041-0.044-0.068-0.069-0.115
		c-0.367-0.646-0.814-1.337-1.222-2.024c0.768-2.129,1.183-4.209,1.167-5.971c0.063-3.989-0.865-6.365-0.795-6.376
		c-0.06-0.021,0.146,2.595-0.905,6.104c-0.286,1.019-0.769,2.049-1.345,3.09c-0.907-3.002-1.87-5.811-2.813-8.408
		c0.143-1.712,0.343-3.343,0.659-4.742c0.814-3.873,2.068-6.28,2.038-6.286c0.037,0.012-1.802,2-3.659,5.715
		c-0.188,0.365-0.369,0.823-0.558,1.223c-0.155-0.421-0.339-0.896-0.488-1.3l-3.176-8.002l1.513,8.472
		c0.233,1.35,0.477,2.84,0.724,4.408c-0.114,0.335-0.241,0.663-0.346,1.003c-0.394-0.473-0.772-0.968-1.169-1.429
		c-4.815-5.709-10.01-10.692-13.438-13.803c0.459-2.594,0.913-4.166,0.896-4.166c0.017,0.008-0.682,1.291-1.606,3.525
		c-1.92-1.73-3.133-2.731-3.126-2.739c-0.006-0.007,1.067,1.43,2.702,3.789c-0.347,0.892-0.714,1.888-1.089,2.996
		c-0.216,0.654-0.436,1.345-0.647,2.072c-0.632-3.55-1.083-6.876-1.327-9.738c-0.502-5.604-0.406-9.366-0.43-9.366
		c0.024,0-0.759,3.668-1.296,9.366c-0.553,5.692-0.647,13.441-0.104,21.249c0.042,0.57,0.096,1.14,0.133,1.697
		c-2.223-0.823-4.346-1.544-6.264-2.127c-0.392-0.126-0.743-0.229-1.121-0.331c-0.258-2.622-0.452-5.399-0.508-8.188
		c-0.389-10.51,1.291-20.89,1.276-20.885c0.028,0-4.333,9.533-6.768,20.308c-0.562,2.303-1.014,4.634-1.401,6.9
		c-1.31-0.267-2.087-0.386-2.082-0.4c-0.007,0.014,0.754,0.26,2.031,0.74c-0.135,0.835-0.267,1.657-0.387,2.464
		c-0.86-0.49-1.709-0.953-2.555-1.415c-1.077-1.687-2.196-3.368-3.373-4.999c-1.83-2.627-3.734-5.126-5.619-7.472
		c0.406-1.514,0.857-2.969,1.361-4.215c1.549-3.941,3.067-6.374,3.028-6.393c0.034,0.025-2.016,2.002-4.55,5.569
		c-0.573,0.803-1.167,1.712-1.752,2.7c-1.864-2.219-3.677-4.269-5.299-5.946c-3.788-3.959-6.551-6.247-6.535-6.262
		c-0.021,0.017,2.258,2.793,5.178,7.328c1.525,2.341,3.199,5.172,4.864,8.264c-0.294,0.629-0.573,1.273-0.839,1.944l-2.109-2.553
		l1.782,3.398c-0.188,0.503-0.359,1.024-0.529,1.545c-0.303-0.14-0.465-0.21-0.465-0.217c-0.006,0.007,0.148,0.128,0.425,0.35
		c-0.465,1.52-0.845,3.115-1.074,4.783c-0.195,1.291-0.286,2.597-0.323,3.891c-1.099-1.517-2.253-3.062-3.47-4.529
		c-6.02-7.379-12.926-13.155-12.903-13.164c-0.02-0.006,3.241,5.172,6.269,11.661c-0.043,1.297-0.064,4.693,0.174,8.701
		c-1.559-0.925-2.513-1.423-2.508-1.443c-0.005,0.013,0.574,0.474,1.521,1.304c-0.973-0.343-1.521-0.507-1.521-0.507
		s0.924,0.452,2.458,1.344c0.035,0.034,0.065,0.056,0.093,0.089c0.07,0.996,0.152,2.031,0.264,3.061
		c0.175,1.811,0.348,3.601,0.516,5.281c-3.383-4.197-6.958-7.778-10.045-10.353c-4.166-3.532-7.48-4.966-7.476-4.944
		c0.008-0.021,2.957,2.024,6.254,6.161c2.432,2.981,5.126,6.999,7.49,11.449c-1.022-0.594-1.996-1.139-2.904-1.615
		c-0.258-0.14-0.502-0.257-0.751-0.39c-1.56-1.496-3.102-2.804-4.538-3.873c-4.12-3.127-7.15-4.604-7.132-4.64
		c-0.026,0.031,2.652,2.113,5.962,5.898c3.345,3.759,6.926,9.356,9.626,15.515c0.928,2.077,1.795,4.197,2.649,6.312
		c-0.189,0.281-0.366,0.554-0.544,0.848c-1.924-1.783-3.896-3.544-5.903-5.24C159.34,65.525,144.74,56.28,144.779,56.237
		c-0.062,0.021,12.952,11.558,24.463,24.88c1.477,1.711,2.928,3.454,4.314,5.195c-0.25-0.065-0.396-0.106-0.396-0.115
		c-0.007,0,0.222,0.143,0.602,0.387c0.561,0.71,1.119,1.418,1.653,2.114c-0.691,1.31-1.34,2.613-1.937,3.875
		c-0.387-0.272-0.771-0.564-1.158-0.84c-0.446-1.074-0.949-2.157-1.513-3.207c-2.227-4.33-5.765-7.626-8.588-9.325
		c-2.819-1.768-4.847-2.428-4.829-2.467c-0.031,0.023,1.709,1.34,3.689,3.764c1.091,1.291,2.128,2.952,2.969,4.801
		c-5.308-4.999-10.632-9.659-14.818-13.004c-4.516-3.606-7.624-5.791-7.608-5.808c-0.016,0.016,2.653,2.728,6.414,7.046
		c1.584,1.827,3.371,3.993,5.226,6.296c-2.799-1.483-4.553-2.293-4.54-2.305c-0.021,0.011,2.803,1.956,6.879,5.271
		c1.836,2.344,3.705,4.798,5.554,7.324c0.609,0.838,1.22,1.678,1.821,2.52c-4.988-3.677-10.727-7.426-16.704-10.583
		c-17.553-9.518-36.268-13.14-36.191-13.202c-0.085,0.021,17.964,6.46,33.263,17.882c7.478,5.345,14.091,11.735,19.116,17.108
		c-4.96-2.625-9.042-4.145-9.018-4.24c-0.106,0.046,5.42,5.083,9.681,10.819c0.205,0.284,0.377,0.575,0.577,0.857
		c-0.062,0.399-0.16,0.787-0.241,1.183c-0.189,0.183-0.375,0.375-0.567,0.555c-0.715-0.474-1.417-0.887-2.074-1.223
		c-2.961-1.471-5.018-1.914-5.008-1.942c-0.016,0.006,0.857,0.57,2.067,1.588c-1.526-0.399-3.058-0.693-4.581-0.925
		c-2.153-1.101-4.2-2.108-6.069-2.974c-6.591-4.68-13.53-6.398-13.494-6.367c0-0.068,5.096,3.491,9.121,8.756
		c-10.095,0.199-17.814,2.357-17.79,2.288c-0.096,0.031,9.946-0.474,20.615,2.038c1.281,2.263,2.207,4.511,2.742,6.444
		c0.01,0.585,0.095,1.183,0.302,1.768c0.055,0.17,0.151,0.303,0.213,0.468c0.213,1.257,0.275,2.239,0.306,2.805
		c-0.555-0.217-1.123-0.428-1.707-0.617c-3.073-1.002-6.589-1.666-10.237-2.089c-0.219-0.062-0.432-0.147-0.652-0.205
		c-6.336-1.747-12.747-2.183-17.424-1.771c-4.686,0.375-7.565,1.455-7.565,1.409c-0.005,0.043,3.058-0.341,7.517,0.319
		c0.104,0.018,0.231,0.055,0.337,0.071c-1.795,0.162-3.511,0.372-4.993,0.635c-4.297,0.703-6.85,2.087-6.804,2.133
		c-0.016-0.065,2.724-0.761,6.896-0.405c4.161,0.272,9.701,1.234,15.097,2.745c0.1,0.031,0.193,0.062,0.294,0.09
		c-1.31-0.115-2.625-0.198-3.925-0.217c-0.862-0.006-1.702,0.046-2.549,0.074c-0.52-0.095-1.043-0.227-1.563-0.315
		c-14.121-2.453-27.651-1.9-27.648-1.976c-0.043,0.044,7.77,1.387,17.102,4.188c-0.2,0.064-0.449,0.107-0.641,0.18
		c-3.964,1.241-6.212,2.764-6.215,2.72c0.003,0.043,2.572-0.849,6.532-1.024c1.946-0.118,4.238-0.053,6.651,0.208
		c0.917,0.329,1.833,0.663,2.74,1.015c5.934,2.294,11.527,5.266,15.307,8.216c-0.804-0.266-2.938-0.92-5.971-1.641
		c-0.948-0.443-1.917-0.843-2.91-1.239c0.289-0.99,0.511-1.597,0.516-1.597c0-0.009-0.452,0.498-1.096,1.361
		c-1.94-0.752-3.916-1.452-5.909-2.03c-1.113-0.327-2.216-0.594-3.317-0.867c0.485-1.482,0.848-2.411,0.859-2.405
		c-0.002-0.014-0.812,0.789-2,2.108c-4.402-1.019-8.575-1.625-11.915-1.916c-4.451-0.406-7.379-0.186-7.376-0.195
		c-0.002,0,2.891,0.482,7.03,1.885c1.824,0.602,3.894,1.396,6.067,2.312c-0.86,0-1.718,0.019-2.584,0.049
		c-6.848,0.21-13.466,1.925-17.866,4.105c-4.445,2.149-6.804,4.315-6.832,4.271c0.005,0.05,2.827-1.556,7.404-2.643
		c4.569-1.12,10.834-1.347,16.963-0.213c0.966,0.16,1.917,0.359,2.864,0.581c-0.068,0.108-0.147,0.21-0.214,0.325
		c-1.126,1.774-2.16,3.657-3.036,5.491c-5.654,0.679-10.881,1.842-14.915,3.255c-5.776,1.957-9.063,4.27-9.063,4.238
		c-0.003,0.03,3.644-1.666,9.485-2.566c2.21-0.366,4.73-0.604,7.436-0.703c-1.702,0.896-3.336,1.882-4.881,2.938
		c-10.564,0.132-18.361,1.067-18.346,1.123c-0.012-0.056,5.839,0.211,14.031,1.254c-0.248,0.05-0.507,0.087-0.756,0.132
		c-7.654,1.391-15.045,3.083-20.587,4.182c-5.524,1.153-9.233,1.549-9.239,1.523c-0.006,0.024,3.742,0.32,9.425,0.198
		c4.618-0.071,10.499-0.292,16.638-0.374c-0.551,0.718-1.064,1.43-1.492,2.145c-1.749,2.827-2.529,5.271-2.901,6.934
		c-0.95,0.248-1.873,0.501-2.706,0.752c-3.897,1.17-6.346,2.194-6.353,2.18c0,0.019,2.645-0.337,6.638-0.483
		c3.522-0.127,8.109,0.031,12.78,0.537c-3.919,1.788-7.566,3.631-10.654,5.321c-1.034,0.108-2.053,0.215-2.969,0.34
		c-0.823,0.115-1.567,0.232-2.275,0.352c-1.907-0.756-3.73-1.463-5.383-2.084c-5.89-2.272-9.961-3.245-9.966-3.192
		c0.023-0.043,3.838,1.572,9.229,4.754c0.682,0.387,1.456,0.858,2.18,1.279c-0.749,0.176-1.158,0.285-1.163,0.273
		c0,0.013,0.608-0.008,1.647,0.013c0.42,0.246,0.817,0.473,1.257,0.733c-12.236,2.514-23.643,6.16-31.995,10.175
		c-10.186,4.798-15.811,9.663-15.842,9.574c0.024,0.081,6.104-4.229,16.505-7.985c9.979-3.7,23.868-6.517,38.209-7.596
		c2.161,1.321,4.389,2.69,6.667,4.083c-1.64,0.916-3.283,1.861-4.892,2.848c-5.204,3.161-10.089,6.536-13.667,9.104
		c-7.925,2.09-15.211,4.434-21.03,6.915c-4.686,1.975-8.395,4.064-10.716,5.887c-2.346,1.824-3.188,3.325-3.195,3.3
		c0.002,0.025,0.99-1.376,3.467-2.909c2.439-1.547,6.265-3.205,11.033-4.656c1.689-0.523,3.528-1.019,5.438-1.495
		c-0.671,0.724-1,1.204-1.021,1.173c0.008,0.048,0.786-0.66,2.231-1.481c2.854-0.683,5.896-1.318,9.097-1.913
		c-1.191,0.638-1.869,1.02-1.866,1.028c-0.006-0.019,1.672-0.522,4.421-1.291c2.396,0.193,4.908,0.636,7.404,1.345
		c4.105,1.124,8.184,2.673,11.828,4.107c-0.099,0.074-0.205,0.168-0.303,0.239c-0.012,0-0.027,0-0.037,0
		c-15.502,0.811-30.363,3.633-41.367,5.88l-18.21,3.907l18.479-2.207c4.627-0.51,9.942-1.039,15.632-1.464
		c-1.548,0.809-2.922,1.706-4.048,2.641c-4.1,3.45-5.557,6.625-5.622,6.55c0.031,0.087,2.191-2.752,6.577-5.119
		c2.183-1.159,4.918-2.059,7.93-2.359c3.018-0.331,6.284-0.09,9.574,0.461c0.483,0.075,0.966,0.203,1.449,0.294
		c-1.7,1.681-2.696,2.763-2.663,2.786c-0.034-0.035,1.596-1.04,4.229-2.46c1.68,0.346,3.356,0.723,5.008,1.147
		c-4.21,1.577-9.112,3.811-13.771,6.291c-10.131,5.365-19.096,11.615-19.12,11.583c0,0.013,0.591-0.207,1.604-0.56
		c-3.074,2.208-4.754,3.718-4.754,3.708c0,0.009,3.683-2.526,9.893-5.436c2.507-0.817,5.529-1.759,8.773-2.666
		c-7.448,5.052-14.171,10.113-16.746,12.028c-6.576,3.251-11.341,5.616-11.385,5.536c0.031,0.138,14.196-3.514,27.907-6.984
		c-7.844,4.457-16.071,7.785-16.077,7.769c0,0.01,0.533-0.033,1.461-0.118c-2.043,0.849-3.937,1.728-5.571,2.616
		c-5.392,2.891-8.481,5.436-8.506,5.386c0.013,0.049,3.522-1.925,9.181-3.791c2.954-1,6.507-1.854,10.36-2.477
		c-0.219,0.157-0.443,0.31-0.662,0.46c-8.317,5.841-15.715,12.131-15.725,12.125c-0.004,0.015,7.389-3.285,15.759-6.33
		c-1.028,1.436-1.56,2.396-1.567,2.387c0.007,0.015,1.563-1.438,4.229-3.059c0.368-0.232,0.811-0.458,1.22-0.69
		c3.098-1.059,6.178-2.005,8.903-2.718c-1.446,1.109-2.901,2.284-4.346,3.51c-0.341,0.198-0.646,0.381-1.015,0.597l-11.175,6.352
		c-1.66,0.961-3.272,1.926-4.824,2.898c-0.429,0.253-0.859,0.517-1.299,0.789c-4.816,2.958-10.698,6.989-16.281,11.185
		c-11.222,8.325-21.148,17.389-21.137,17.396c-0.012-0.016,11.571-6.858,23.99-12.683c6.19-2.936,12.555-5.658,17.562-7.558
		c5.004-1.91,8.625-3.014,9.348-3.309c1.077-0.444,1.969-1.161,2.613-2.043c0.477-0.096,0.96-0.194,1.43-0.288
		c-0.519,0.487-1.034,0.969-1.554,1.483c-0.211,0.166-0.417,0.314-0.619,0.471c-18.415,9.119-33.083,21.61-33.059,21.562
		c-0.03,0.023,7.8-4.938,18.866-10.102c-2.2,1.221-4.271,2.425-6.144,3.575c-8.026,4.866-12.728,8.896-12.722,8.885
		c-0.006,0,5.11-3.466,13.537-7.37c0.084-0.037,0.189-0.083,0.276-0.123c-9.877,6.519-17.762,13.025-17.762,13.017
		c-0.006,0,11.094-5.764,23.302-10.343c-0.291,0.561-0.445,0.875-0.433,0.875c-0.012-0.008,0.377-0.426,1.08-1.126
		c0.157-0.055,0.302-0.113,0.458-0.173c3.067-1.138,6.167-2.194,9.142-3.136c-5.01,4.325-10.675,7.603-10.675,7.588
		c-0.012,0.005,1.17-0.134,2.998-0.436c-1.659,0.925-3.322,1.927-4.929,3.012c-4.748,3.104-9.007,6.777-11.645,9.951
		c-2.699,3.148-3.751,5.644-3.78,5.614c0.028,0.029,1.696-2.097,4.95-4.338c1.821-1.297,4.157-2.588,6.736-3.78
		c-0.972,1.345-1.875,2.698-2.74,4.028c-1.582,1.1-2.634,1.723-2.631,1.723c-0.003,0,0.672-0.128,1.792-0.391
		c-1.531,2.472-2.868,4.838-3.869,6.851c-1.547,3.066-2.353,5.319-2.576,5.956c-1.325,1.356-2.464,2.612-3.412,3.688
		c-5.125,3.851-9.661,7.759-13.056,11.437c-6.206,6.562-8.796,11.946-8.84,11.881c0.038,0.058,3.263-4.979,10.029-10.632
		c3.175-2.723,7.163-5.515,11.607-8.22c-0.689,0.447-1.125,0.726-1.131,0.718c0,0.025,2.135-0.569,5.379-1.52
		c-0.133,0.203-0.279,0.392-0.406,0.595c-2.814,4.507-4.798,9.379-5.538,13.5c-0.36,0.146-0.749,0.322-1.097,0.461
		c-3.646,1.41-6.239,1.923-6.228,1.946c-0.007-0.021,2.619,0.154,6.634-0.271c0.108-0.017,0.241-0.041,0.356-0.055
		c-0.108,1.198-0.078,2.249,0.024,3.152c-1.183,1.047-2.324,2.087-3.369,3.082c-3.327,3.157-5.918,5.952-7.581,8.026
		c-1.672,2.064-2.368,3.42-2.377,3.413c0.009,0,0.851-1.257,2.727-3.104c1.863-1.851,4.723-4.29,8.345-7.021
		c0.86-0.653,1.777-1.32,2.725-1.998c0.219,0.712,0.415,1.094,0.403,1.081c0.006,0.013-0.101-0.466-0.131-1.285
		c2.08-1.493,4.346-3.037,6.749-4.608c-1.448,3.358-2.433,6.644-2.909,9.302c-0.592,3.082-0.567,5.267-0.554,5.873
		c-3.765,2.989-6.925,6.304-8.955,9.153c-2.525,3.476-3.634,6.029-3.665,6.006c0.024,0.032,1.758-2.18,4.931-4.838
		c2.492-2.112,5.958-4.322,9.821-6.126c-0.94,0.89-1.888,1.787-2.823,2.688c-5.81,5.623-11.474,11.117-15.989,14.909
		c-4.485,3.822-7.779,5.96-7.764,5.99c-0.019-0.026,3.603-1.554,8.76-4.582c5.168-2.992,11.814-7.495,18.474-12.021
		c1.807-1.237,3.621-2.445,5.417-3.625c-0.462,0.538-0.923,1.084-1.384,1.617c-4.709,5.622-9.367,11.009-13.307,14.605
		c-3.9,3.646-6.939,5.547-6.927,5.572c-0.02-0.024,3.334-1.291,7.971-4.189c0.863-0.532,1.805-1.169,2.733-1.805
		c-1.402,2.723-2.013,4.44-2.031,4.427c0.019,0.017,1.248-2.315,3.821-5.659c3.649-2.604,7.642-5.763,11.601-9.007
		c3.544-2.895,7.082-5.666,10.419-8.038c-1.233,1.321-2.192,2.196-2.186,2.196c0-0.006,1.337-0.056,3.259-0.303
		c-0.189,0.235-0.374,0.462-0.562,0.698c-2.171,2.059-4.287,4.226-6.296,6.439c-7.085,7.784-13.035,16.203-16.891,22.806
		c-3.894,6.593-5.529,11.369-5.523,11.359c-0.006,0,2.271-4.485,6.949-10.386c2.259-2.888,5.061-6.123,8.224-9.426
		c-3.448,6.758-5.937,13.416-7.083,19.146c-2.005,9.391-0.906,15.678-1.002,15.649c0.081,0.039-0.279-6.352,2.667-15.202
		c1.771-5.551,4.972-11.849,9.132-18.107c2.303-1.753,6.007-4.54,9.828-7.308c1.18-0.874,2.356-1.705,3.521-2.505
		c-1.384,3.386-3.04,7.747-4.483,12.062l-3.215,9.537c-1.591,2.942-2.969,5.771-4.039,8.384c-3.632,8.653-4.668,14.742-4.727,14.712
		c0.049,0.037,1.786-5.917,6.274-13.955c3.188-5.805,7.989-12.534,13.855-18.922c-0.149,0.258-0.279,0.532-0.36,0.809
		c-0.148,0.539-0.519,3.268-2.08,7.132c-1.505,3.869-4.311,8.742-7.606,13.366c-3.271,4.637-6.906,9.044-9.586,12.353l-4.437,5.531
		l5.624-4.29c3.406-2.571,8.004-5.992,12.484-9.887c2.176-1.884,4.299-3.91,6.25-5.983c-0.48,1.957-0.963,4.018-1.391,6.087
		c-1.723,7.919-2.478,15.658-2.472,15.643c-0.006,0,1.597-3.239,3.921-7.382c-0.493,1.435-0.882,2.756-1.186,3.933
		c-1.263,2.594-2.343,5.1-3.166,7.448c-3.185,8.784-3.445,14.963-3.514,14.934c0.06,0.035,1.041-6.084,5.099-14.256
		c2.095-4.325,5.142-9.113,8.846-13.91c-1.3,4.222-3.009,9.271-4.801,14.341c-4.11,11.302-7.637,22.493-7.565,22.493
		c-0.051-0.054,5.851-9.845,12.379-19.85c-3.024,6.502-4.547,11.976-4.495,11.957c-0.06-0.027,4.552-7.27,10.938-13.596
		c-0.158,1.221-0.381,2.689-0.715,4.358c-0.834,4.292-2.461,9.805-4.686,15.079c-2.211,5.274-4.999,10.264-7.448,13.771
		c-2.424,3.539-4.423,5.609-4.404,5.625c-0.022-0.021,2.416-1.538,5.698-4.479c3.294-2.905,7.353-7.262,10.937-12.177
		c0.105-0.141,0.201-0.291,0.299-0.431c-0.253,1.319-0.371,2.108-0.376,2.102c0.012,0.007,1.046-2.425,2.978-5.854
		c0.167-0.304,0.378-0.636,0.562-0.953c0.396-0.628,0.786-1.257,1.16-1.893c0.014,0.519,0.029,0.814,0.029,0.81
		c-0.007,0.005,0.117-0.536,0.368-1.463c0.072-0.111,0.13-0.234,0.201-0.356c0.461-0.733,0.929-1.469,1.443-2.239
		c0.266-0.33,0.544-0.662,0.842-0.991c-1.511,3.842-2.749,7.52-3.556,10.552c-0.42,1.541-0.733,2.894-0.975,4.055
		c-2.012,4.758-3.566,9.386-4.561,13.623c-0.507,2.155-0.87,4.182-1.161,6.096c-0.284,0.407-0.491,0.687-0.483,0.695
		c-0.006-0.008,0.158-0.123,0.431-0.343c-1.415,9.857-0.306,16.162-0.431,16.111c0.118,0.064-0.557-6.979,1.976-17.352
		c0.248-0.212,0.507-0.437,0.787-0.685c-0.404,3.356-0.361,5.421-0.397,5.416c0.036,0.02,0.421-2.645,1.708-6.638
		c0.155-0.146,0.297-0.278,0.458-0.443c1.43-1.384,3.016-3.162,4.638-5.123c-0.458,2.136-0.821,4.253-1.145,6.332
		c-1.034,0.753-1.728,1.127-1.716,1.141c-0.012-0.026,0.6-0.136,1.622-0.462c-0.691,4.685-1.101,9.105-1.206,12.696
		c-0.202,5.49,0.365,9.058,0.372,9.055c-0.017,0,0.129-3.602,1.337-8.837c0.975-4.322,2.608-9.782,4.719-15.29
		c2.902-1.663,6.182-4.204,9.095-7.321c1.195-1.269,2.292-2.628,3.336-3.997c-0.734,2.471-1.613,5.185-2.606,7.875
		c-3.034,8.398-6.454,16.52-6.417,16.52c-0.021-0.027,5.703-6.62,11.258-13.883c1.886-2.394,3.654-4.923,5.224-7.286
		c-0.239,1.93-0.632,4.697-1.257,7.721c-0.61,1.06-1.238,2.107-1.839,3.166l-10.707,19.198c-2.938,5.139-5.058,8.436-5.048,8.448
		c-0.01-0.013,2.656-2.885,6.466-7.463l6.726-8.285c-0.353,0.944-0.578,1.549-0.575,1.549c-0.021-0.013,4.789-4.803,9.1-10.555
		c0.117-0.157,0.229-0.321,0.346-0.464l-2.999,9.479c-1.7,5.204-3.699,10.182-5.526,13.791c-1.802,3.619-3.306,5.876-3.291,5.882
		c-0.012-0.016,2.005-1.795,4.725-4.917c2.73-3.097,6.051-7.611,9.068-12.38c2.154-3.384,4.204-6.802,6.04-9.838
		c-0.781,4.07-0.923,7.441-0.914,7.429c-0.009-0.007,1.43-2.107,3.52-4.556c-0.059,0.472-0.111,0.95-0.177,1.43
		c-4.151,5.896-7.945,11.651-10.66,16.284c-0.464,0.784-0.894,1.526-1.299,2.247c-3.784,2.761-7.328,5.324-10.311,7.379
		c-5.101,3.547-8.673,5.591-8.668,5.602c-0.005-0.011,3.864-1.436,9.521-4.107c1.907-0.887,4.053-1.938,6.286-3.041
		c-0.535,1.044-0.823,1.63-0.829,1.624c0.006,0.006,0.504-0.708,1.386-1.896c2.946-1.461,6.067-3.024,9.312-4.659
		c-1.124,2.552-2.044,4.182-2.028,4.194c-0.016-0.021,1.622-1.487,3.837-4.056c0.466-0.532,0.958-1.137,1.45-1.765
		c0.132-0.062,0.254-0.122,0.383-0.193c-1.742,6.203-2.696,12.252-3.048,16.961c-0.443,5.768-0.223,9.55-0.254,9.55
		c0.023,0.018,0.501-3.766,1.956-9.252c1.069-4.102,2.792-9.101,5.104-14.123c0.198,6.519,0.787,11.187,0.82,11.502
		c-0.962,2.556-1.993,4.907-2.981,6.828c-1.824,3.592-3.343,5.827-3.323,5.837c-0.015-0.018,1.891-1.688,4.503-4.587
		c-2.731,6.408-4.457,10.908-4.503,10.895c0.052,0.06,7.831-12.588,16.795-24.706c0.961-1.285,1.938-2.559,2.919-3.818
		c-0.213,1.095-0.458,2.194-0.743,3.295c-1.805,7.416-5.544,14.206-5.566,14.2c-0.012,0.028,5.938-4.987,10.561-11.861
		c2.343-3.382,4.402-7.122,5.758-10.232c0.454-1.043,0.829-2.001,1.148-2.838c0.462,0.354,0.92,0.725,1.379,1.076
		c-0.041,0.089-0.093,0.158-0.14,0.243c-0.493,1.027-2.812,6.791-5.972,14.383c-1.296,1.563-2.523,3.089-3.622,4.514
		c-5.36,6.896-8.283,11.834-8.329,11.806c0.04,0.03,3.513-4.476,9.55-10.575c-1.697,4.015-3.533,8.28-5.399,12.509
		c-6.594,15.137-13.623,29.593-13.607,29.603c-0.015-0.01,9.385-13.045,18.452-26.978c4.847-7.333,9.584-14.903,13.112-20.68
		c-0.15,1.291-0.271,2.486-0.374,3.581c-1.504,2.659-3.012,5.417-4.452,8.187c-7.433,13.962-13.333,28.016-13.336,28.011
		c0,0,8.353-12.761,17.973-25.021c0.573-0.735,1.146-1.466,1.722-2.203c-1.893,4.232-4.125,9.021-6.522,13.622
		c-3.123,5.957-6.729,11.54-9.893,15.393c-3.129,3.886-5.671,6.077-5.648,6.089c-0.016-0.023,2.915-1.632,6.872-4.876
		c3.978-3.206,8.841-8.125,13.264-13.543c5.706-7.035,10.889-14.533,14.077-19.315l-0.17,2.762c-0.119,2.388-0.162,4.73-0.133,6.896
		c-1.647,3.437-3.117,6.002-3.153,6.002c0,0.019,0.561-0.322,1.421-0.894c-2.994,6.448-6.146,11.94-6.154,11.936
		c-0.002,0.011,4.066-3.431,8.659-8.021c0.008,0.088,0.015,0.134,0.015,0.134s0.019-0.066,0.039-0.186
		c1.035-1.037,2.084-2.108,3.137-3.231c0.346-0.371,0.69-0.742,1.036-1.125c-0.487,1.535-0.943,3.104-1.35,4.664
		c-1.583,6.029-2.463,11.98-2.973,16.658c-0.133,0.169-0.279,0.371-0.412,0.538c-2.83,3.479-5.015,5.532-5,5.552
		c-0.012-0.02,2.099-1.243,5.166-3.527c-0.353,4.063-0.405,6.689-0.436,6.682c0.024,0.026,0.845-3.376,2.443-8.261
		c3.463-2.762,7.579-6.603,11.456-10.823c3.812-4.13,7.413-8.411,10.403-11.913c0.057,2.058,0.146,3.404,0.143,3.404
		c0.002,0.01,2.241-4.753,4.991-9.36c0.813-0.933,1.376-1.588,1.642-1.917c0.042,0.853,0.08,1.721,0.146,2.573
		c0.012,0.188,0.028,0.378,0.039,0.577c-1.839,2.189-3.998,4.832-6.076,7.541c-4.767,6.091-8.641,12.42-8.625,12.42
		c-0.005-0.017,5.903-4.455,12.33-8.328c0.788-0.481,1.583-0.968,2.379-1.441c-0.463,2.943-0.458,5.742,0.2,8.065
		c0.403,1.473,0.963,2.624,1.533,3.541c-2.414,4.526-4.888,8.824-6.949,12.027c-2.29,3.579-3.994,5.831-3.979,5.846
		c-0.013-0.015,2.182-1.782,5.307-4.749c1.714-1.612,3.692-3.619,5.757-5.809c-5,6.35-9.5,11.336-9.485,11.34
		c-0.009-0.012,8.703-5.581,17.153-12.355c2.046-1.592,4.044-3.275,5.918-4.948l-1.452,3.18c-4.468,2.734-7.438,4.659-7.432,4.664
		c0-0.005,3.566-1.309,8.803-3.084c-2.897,4.519-4.887,7.813-4.862,7.82c-0.009-0.031,4.959-4.624,11.076-9.878
		c2.755-0.901,5.714-1.83,8.699-2.733c0.864-0.252,1.728-0.52,2.595-0.782c-0.229,2.295-0.311,4.324-0.33,5.94
		c-2.071,1.682-3.985,3.283-5.544,4.678c-2.886,2.564-4.659,4.366-4.668,4.351c0.006,0.017,2.213-1.242,5.627-2.921
		c3.42-1.69,8.086-3.729,12.877-5.672c3.913-1.556,7.898-3.161,11.338-4.585c-2.736,3.532-5.954,7.525-9.316,11.352
		c-8.513,9.891-18.16,18.398-18.16,18.395c-0.012,0.005,11.243-6.227,21.915-14.341c6.947-5.178,13.614-10.982,17.745-14.758
		c0.836-0.533,1.678-1.091,2.526-1.71c1.793-1.268,3.52-2.69,4.999-3.999c0.115,0.018,0.229,0.033,0.341,0.057
		c-0.074,0.497-0.179,1.053-0.341,1.686c-0.535,2.211-1.818,5.163-3.574,8.008c-3.533,5.683-8.203,10.852-8.129,10.865
		c-0.022-0.084,6.132-2.829,12.136-7.08c1.381-0.982,2.73-2.091,3.994-3.257c-1.645,1.91-2.752,3.234-2.724,3.241
		c0-0.057,5.469-2.388,11.223-4.843c0.379-0.168,0.753-0.34,1.133-0.505c-0.736,1.502-1.498,3.025-2.287,4.56
		c-4.228,8.255-7.76,16.56-7.711,16.56c-0.022-0.042,4.333-5.102,9.671-10.722l10.134-5.008c5.729,1.938,10.952,2.262,10.95,2.319
		c0.042-0.006-3.032-1.897-6.192-4.649c1.374-0.659,2.742-1.3,4.089-1.915c0.055,0.032,0.102,0.064,0.145,0.094
		c2.705,1.562,5.695,2.48,7.88,2.645c0.16,0.014,0.284,0.006,0.441,0.022c-5.673,3.991-10.334,6.937-10.311,6.955
		c-0.005-0.033,9.367-2.736,18.916-6.433c1.028-0.408,2.051-0.825,3.07-1.255c2.22,0.938,4.713,1.858,7.369,2.705
		c-1.551,1.139-2.561,1.823-2.543,1.828c-0.007-0.012,1.784-0.443,4.493-1.235c1.836,0.546,3.699,1.064,5.573,1.508
		c11.294,2.714,22.259,3.619,22.259,3.674c0.033-0.041-9.563-3.394-19.039-8.172c0.528-0.208,1.062-0.411,1.599-0.64
		c1.297,0.64,2.786,1.299,4.459,1.931c5.08,1.943,11.597,3.464,17.965,4.438c12.747,1.885,24.964,2.324,24.974,2.442
		c0.061-0.099-11.16-3.126-22.423-7.355c1.81,0.475,3.664,0.784,5.466,0.96c3.824,0.376,7.453,0.284,10.142,0.211l4.45-0.12
		c0.091-0.102-6.871-2.272-13.065-5.399c-0.639-0.32-1.242-0.67-1.829-1.021c0.165-0.135,0.329-0.267,0.49-0.398
		c2.13-1.77,4.175-3.819,5.741-5.744c1.439,0.991,3.065,1.938,4.732,2.785c0.758,1.123,1.578,2.282,2.427,3.406
		c3.579,4.892,7.821,8.763,7.821,8.731c-0.017,0-0.423-1.157-0.935-2.905c2.126,2.164,4.283,4.012,6.14,5.338
		c2.931,2.094,5.061,3.07,5.044,3.09c0.019-0.013-1.738-1.58-3.839-4.333c-1.082-1.388-2.216-3.082-3.292-4.969
		c1.143,0.987,2.325,1.941,3.532,2.798c3.269,2.346,6.562,4.247,9.017,5.683l4.045,2.405l-2.921-3.702
		c-1.76-2.215-4.151-5.169-6.203-8.255c-2.073-3.069-3.674-6.277-4.428-8.729c-0.562-1.759-0.747-3.078-0.859-3.836
		c0.46,0.407,0.963,0.782,1.44,1.168c0.188,0.88,0.607,1.708,1.337,2.388c0.537,0.493,3.415,2.738,7.743,4.706
		c2.186,1.016,4.722,1.924,7.404,2.672c4.828,2.156,8.338,3.277,8.312,3.335c0.031-0.013-1.125-0.796-2.938-2.119
		c0.918,0.173,1.823,0.35,2.733,0.475c11.064,1.556,21.479,0.754,21.484,0.849c0.063-0.063-10.379-2.118-20.014-6.168
		c-4.813-2.007-9.244-4.63-12.199-7.038c-0.135-0.098-0.217-0.194-0.343-0.296c0.9,0.016,1.786,0,2.636-0.057
		c2.321-0.193,4.514-0.566,6.473-0.972c2.971,1.75,5.343,2.705,5.318,2.705c0,0.015-1.011-1.303-2.258-3.273
		c0.523,0.197,1.035,0.383,1.546,0.574c2.818,2.574,6.068,5.061,9.408,7.238c4.905,3.218,9.869,5.907,13.558,7.905l6.135,3.328
		l-5.126-4.732c-2.895-2.651-6.694-6.163-10.274-9.949c4.59,0.929,7.553,1.224,7.515,1.278c0.068-0.032-4-1.217-9.645-3.619
		c-2.375-2.679-4.499-5.413-6.089-7.934c0.947-0.181,1.532-0.294,1.532-0.279c0.021-0.018-0.74-0.15-1.919-0.38
		c-0.227-0.381-0.453-0.754-0.657-1.125c1.359,0.215,2.599,0.146,3.578,0.014c3.289,2.745,7.714,5.15,12.195,7.023
		c1.085,0.66,2.163,1.296,3.249,1.906c7.318,4.1,14.752,7.239,20.23,9.7c5.488,2.418,9.059,4.154,9.059,4.154
		s-3.221-2.324-8.226-5.662c-2.012-1.355-4.355-2.916-6.79-4.571c1.976,0.479,3.188,0.735,3.188,0.778
		c0.067-0.061-6.099-3.235-12.729-7.71c-0.543-0.421-1.107-0.824-1.646-1.258c-2.527-2.014-4.889-4.175-7.008-6.373
		c6.465,2.218,12.748,3.364,17.691,4.045c1.753,0.236,3.333,0.411,4.721,0.551c3.204,3.174,5.25,5.26,5.271,5.229
		c-0.029,0.006-1.319-1.956-3.405-5.051c2.629,0.232,4.192,0.298,4.192,0.31c0.008-0.012-1.805-0.378-4.758-1.14
		c-2.355-3.488-5.574-8.166-9.161-13.132c0.906,0.644,1.824,1.28,2.777,1.877c4.617,2.958,9.635,5.011,13.445,5.908
		c3.824,0.922,6.37,0.934,6.364,0.969c0.025-0.023-2.446-0.753-5.735-2.58c-3.023-1.651-6.562-4.393-9.705-7.666
		c6.496,3.754,13.214,6.488,18.352,8.125c5.291,1.707,8.918,2.134,8.911,2.121c0,0.017-3.466-1.09-8.237-3.709
		c-0.356-0.195-0.762-0.442-1.138-0.652c0.072-1.23,0.199-2.957,0.421-5.018c0.345-3.181,0.982-7.129,1.853-11.265
		c7.293,2.559,12.634,4.005,12.62,4.088c0.062-0.063-5.214-2.708-12.024-6.772c0.104-0.455,0.194-0.901,0.305-1.345
		c0.523-2.133,1.067-4.281,1.611-6.362c9.852,5.947,19.616,8.841,19.573,8.955c0.076-0.03-4.284-2.659-9.531-6.803
		c4.152,0.851,8.192,1.441,11.7,1.853l2.557,3.378l-1.407-3.246c2.254,0.249,4.244,0.427,5.843,0.549
		c2.153,0.757,3.463,1.105,3.455,1.123c0.008-0.01-0.7-0.354-1.875-1.001c1.673,0.111,2.669,0.181,2.669,0.206
		c0.032-0.039-1.984-0.604-5.109-1.604c-1.097-0.65-2.319-1.411-3.694-2.316c-1.176-0.792-2.438-1.688-3.747-2.667
		c-1.54-3.668-3.288-8.085-4.546-12.626c-1.581-5.521-2.191-11.12-2.076-15.446c0.014-0.773,0.043-1.488,0.084-2.183
		c0.495,1.927,1.098,3.926,1.872,5.87c0.26,0.666,0.569,1.295,0.858,1.929c-0.159,3.259-0.211,5.398-0.204,5.394
		c0,0,0.442-1.323,1.2-3.424c1.386,2.531,2.972,4.727,4.432,6.262c2.176,2.302,3.843,3.452,3.83,3.474
		c0.021-0.005-1.18-1.686-2.39-4.432c-1.229-2.731-2.216-6.545-2.347-10.429c-0.056-1.461-0.007-2.938,0.081-4.387
		c0.005-0.018,0.015-0.037,0.021-0.061c1.836,0.289,3.055,0.361,3.055,0.384c0.026,0-0.997-0.861-2.337-2.17
		c0.326-0.809,0.662-1.614,0.999-2.43c0.103-0.245,0.203-0.487,0.311-0.728c2.896,2.651,6.218,4.794,9.616,6.488
		c2.308,1.134,4.63,2.073,6.92,2.89c0.194,0.273,0.406,0.58,0.593,0.834c2.097,2.838,3.635,4.555,3.618,4.573
		c0.021-0.008-0.786-1.785-1.806-4.583c12.063,3.834,22.386,3.764,22.311,3.791c0.005-0.018-3.92-0.692-9.544-2.587
		c-4.228-1.421-9.476-3.595-14.492-6.542c-0.7-2.402-1.394-5.023-2-7.721c-1.104-5.071-2.171-10.345-2.991-14.208
		c2.817,5.57,5.896,10.627,7.717,13.529c0.084,0.185,0.19,0.41,0.272,0.598c2.037,4.158,3.718,6.676,3.696,6.686
		c0.021,0-1.044-2.854-2.07-7.274c-1.043-4.416-1.935-10.391-2.236-16.474c-0.195-3.228-0.207-6.461-0.129-9.519
		c0.157,0.016,0.321,0.016,0.483,0.03c0.37,7.762,0.801,13.526,0.797,13.526c0.005,0.006,0.843-5.734,2.142-13.361
		c0.087,0,0.165,0.01,0.247,0.01c0.141,1.896,0.306,3.798,0.546,5.702c0.724,6.028,2.191,11.845,3.708,15.958
		c1.492,4.129,2.84,6.668,2.816,6.67c0.023,0-0.676-2.796-1.133-7.06c-0.479-4.257-0.527-9.947,0.135-15.631
		c0.197-1.837,0.461-3.665,0.759-5.467c7.734,0.083,15.095-0.22,20.771-0.474l11.01-0.544l-10.958-1.185
		c-5.528-0.616-12.64-1.43-19.966-2.633c0.381-1.994,0.771-3.91,1.124-5.629c1.795,2.38,3.029,3.886,2.993,3.926
		c0.077,0.009-1.042-3.186-2.249-7.495c0.324-1.53,0.576-2.779,0.748-3.677c1.615-0.237,3.17-0.436,4.694-0.61
		c2.554,6.948,4.716,11.776,4.69,11.785c0.028,0.006-1.063-5.02-2.128-12.053c1.021-0.095,2.026-0.184,2.977-0.243
		c8.007-0.591,13.335-0.279,13.335-0.321c-0.005,0.042-5.232-0.957-13.347-1.4c-1.043-0.064-2.146-0.119-3.282-0.153
		c-0.198-1.438-0.396-2.943-0.585-4.491c2.69,2.172,4.625,3.634,4.598,3.683c0.082-0.007-2.434-4.477-4.989-9.595
		c1.146-0.339,1.847-0.69,1.842-0.655c0.022,0.011-0.995-0.403-2.194-1.154c-0.006-0.101-0.016-0.195-0.022-0.301
		c-0.103-1.31-0.157-2.605-0.221-3.905c1.489,1.631,2.966,3.078,4.325,4.183c2.969,2.457,5.228,3.522,5.202,3.548
		c0.03-0.023-1.854-1.688-3.924-4.711c-1.276-1.81-2.535-4.148-3.684-6.709c2.742,0.087,4.464,0.334,4.464,0.38
		c0.018-0.04-1.945-0.919-5.119-1.858c-0.49-1.191-0.957-2.415-1.369-3.659c0.018-0.92,0.04-1.83,0.068-2.701
		c1.029,0.31,1.696,0.31,1.681,0.332c0.021-0.007-0.632-0.684-1.115-1.798c-0.22-0.503-0.34-1.09-0.407-1.692
		c0.009-0.069,0.009-0.149,0.014-0.217c0.044-0.593,0.088-1.148,0.135-1.696c0.025-0.112,0.034-0.222,0.068-0.33
		c0.808-2.702,3.119-3.801,3.159-3.936c0.107-0.237-0.921-1.247-2.514-2.474c0.029-0.248,0.064-0.458,0.075-0.653
		c1.677,1.885,3.37,3.56,4.846,4.735c2.104,1.702,3.636,2.519,3.614,2.545c0.022-0.02-1.074-1.392-2.295-3.646
		c-0.99-1.828-1.985-4.237-2.821-6.846c3.139-1.07,6.162-2.207,8.941-3.313c7.035,5.4,14.167,10.13,19.466,13.759
		c5.51,3.739,9.041,6.354,9.041,6.36c0,0-3.079-3.149-7.956-7.705c-4.222-3.989-9.783-9.101-15.201-14.635
		c5.874-2.519,9.751-4.47,9.751-4.47c0.016,0-4.661,1.313-11.421,2.775c-0.237-0.256-0.479-0.491-0.719-0.746
		c-0.539-0.562-1.061-1.124-1.582-1.694c1.201-0.226,1.897-0.332,1.891-0.332c0,0.006-0.824-0.043-2.277-0.075
		c-2.466-2.7-4.782-5.469-6.836-8.187c3.406,0.397,6.792,1.265,6.751,1.16l-1.593-1.939c-0.259-0.308-0.582-0.695-0.871-1.052
		c0.757-0.327,1.492-0.623,2.265-0.968c0.1,0.009,0.197,0.018,0.197,0.027c0-0.016-0.076-0.052-0.107-0.071
		c4.122-1.844,8.369-3.897,12.494-6.065c8.461-4.415,16.514-9.104,22.544-12.58L606,350.344l-10.761,4.173
		c-6.471,2.541-15.119,5.99-23.968,9.065c-3.421,1.192-6.861,2.308-10.216,3.313c0.008-0.021-0.462-0.635-1.135-1.637
		c2.646-0.89,5.328-1.821,7.979-2.806c9.05-3.322,17.721-7.132,23.982-10.367c6.271-3.205,10.17-5.717,10.177-5.688
		c0-0.029-4.237,1.88-10.852,4.104c-6.599,2.256-15.596,4.702-24.845,6.646c-3.264,0.689-6.551,1.325-9.78,1.907
		c-0.67-1.625-1.264-3.387-1.71-5.194c-0.311-1.232-0.51-2.457-0.675-3.657c0.762-0.462,1.522-0.918,2.275-1.372
		c1.957,1.11,3.868,2.021,5.488,2.599c2.752,1.001,4.62,1.255,4.614,1.27c0.012-0.017-1.653-0.937-3.742-2.767
		c-0.994-0.839-2.053-1.914-3.106-3.101c3.818-2.36,7.373-4.601,10.287-6.531c5.116-3.371,8.374-5.745,8.385-5.738
		c-0.011-0.013-3.635,1.775-9.204,4.224c-0.872,0.379-1.802,0.786-2.762,1.193c-0.721-0.45-4.463-2.425-7.723-4.663
		c-1.102-0.779-2.023-1.617-2.76-2.414c-0.248-0.833-0.49-1.685-0.711-2.56c-0.801-3.072-0.951-5.982-0.994-7.417
		c3.307,1.366,6.404,2.544,8.732,3.648c2.745,1.262,4.386,2.461,4.386,2.461c0,0.013-1.143-1.69-3.398-3.872
		c-2.164-2.168-5.315-4.747-8.25-7.422c2.322-1.577,4.621-3.104,6.82-4.549c1.949,2.56,3.746,5.024,5.244,7.055
		c2.526,3.445,4.314,5.633,4.309,5.633c0-0.007-1.188-2.552-2.809-6.494c-0.986-2.349-2.165-5.24-3.502-8.297
		c8.079-5.202,14.216-8.84,14.194-8.864c0.007,0.031-6.539,2.536-15.336,6.283c-0.561-1.225-1.143-2.464-1.768-3.707
		c-1.125-2.298-2.411-4.566-3.767-6.735c3.049-0.981,5.107-1.347,5.099-1.362c0.011,0.015-2.344-0.208-5.971-0.006
		c-0.699-1.064-1.425-2.096-2.174-3.058c1.577,1.003,2.636,1.485,2.623,1.485c0.013-0.009-1.331-1.344-2.85-3.687
		c-1.286-1.898-2.688-4.442-4.248-7.166c2.717-3.944,5.571-7.272,5.527-7.284c0,0.043-3.584,1.394-7.792,3.51
		c-0.011,0-0.011-0.009-0.011-0.009c0.944-0.719,1.496-1.127,1.496-1.132c0,0.005-0.623,0.301-1.694,0.814
		c-0.265-0.404-0.545-0.802-0.824-1.205c1.484-2.208,3.328-4.869,5.521-7.839c0.218-0.3,0.458-0.606,0.675-0.904
		c0.37,0.157,0.77,0.304,1.105,0.464c2.431,1.178,3.88,2.381,3.887,2.36c-0.021,0.021-0.889-1.613-2.853-3.741
		c-0.248-0.266-0.555-0.544-0.838-0.816c0.032-0.052,0.062-0.088,0.097-0.133c2.373-1.231,4.842-2.42,7.36-3.523
		c14.733-6.494,30.197-10.631,30.139-10.708c0.018,0.101-14.632,1.361-30.132,5.063c3.528-4.209,7.38-8.543,11.353-12.744
		 M561.064,366.852c-1.744,0.524-3.455,1.007-5.123,1.455c-0.203-0.505-0.4-1.018-0.579-1.57c1.223-0.401,2.458-0.797,3.709-1.228
		C560.273,366.359,561.064,366.829,561.064,366.852z M550.451,369.699c-0.056-0.008-0.104-0.021-0.156-0.034
		c0.041-0.451,0.077-0.89,0.115-1.343c0.022-0.009,0.048-0.018,0.063-0.022c0.34,0.396,0.687,0.775,1.043,1.149
		C551.146,369.536,550.81,369.617,550.451,369.699z M361.459,574.082c-0.091-0.087-0.153-0.184-0.241-0.277
		c0.247-0.273,0.463-0.554,0.697-0.825c-0.077,0.193-0.148,0.389-0.234,0.592C361.606,573.743,361.533,573.913,361.459,574.082z
		 M345.791,575.78c0.039-0.014,0.068-0.04,0.102-0.055c1.28-0.851,2.338-1.635,3.188-2.299c0.018,0.396,0.066,0.784,0.23,1.174
		c0.118,0.365,0.849,1.665,2.158,3.072c-0.201,0.308-0.407,0.579-0.613,0.842C349,577.612,347.336,576.694,345.791,575.78z
		 M91.473,206.465c-1.36-0.204-2.86-0.441-4.432-0.661c3.507-0.333,7.001-0.606,10.459-0.826c-0.233,0.477-0.468,0.966-0.703,1.442
		c-0.374,0.216-0.752,0.415-1.124,0.64L91.473,206.465z M552.131,314.06c-1.381-1.603-2.445-3.149-2.872-4.396
		c-0.776-2.132-0.29-3.175-0.353-3.447c-0.065-0.601-1.281-1.646-3.121-2.471c0.967-0.508,1.935-1.016,2.912-1.486
		c0.593,0.538,1.178,1.08,1.754,1.618c2.329,2.211,4.5,4.306,6.187,5.702c0.812,0.675,1.496,1.18,2.002,1.521
		C556.518,312.044,554.338,313.03,552.131,314.06z M551.057,321.479c-0.28,0.026-0.558,0.063-0.861,0.1
		c0.146-0.1,0.283-0.198,0.438-0.309C550.772,321.34,550.917,321.412,551.057,321.479z M125.945,156.403
		c-0.089,0.127-0.176,0.248-0.262,0.375c-0.021-0.15-0.037-0.313-0.053-0.468C125.739,156.341,125.837,156.368,125.945,156.403z
		 M504.882,177.485c-0.929,0.004-1.877,0.004-2.865,0.018c2.262-0.532,4.364-1.027,6.019-1.426
		C506.953,176.551,505.895,177.024,504.882,177.485z M510.414,175.028c-0.139-0.032-0.343-0.081-0.507-0.117
		c0.243-0.007,0.484-0.024,0.727-0.077c0.031-0.019,0.085-0.031,0.125-0.048c-0.094,0.08-0.189,0.151-0.273,0.219
		C510.456,175.012,510.439,175.02,510.414,175.028z M508.027,174.459c-0.051-0.017-0.086-0.023-0.133-0.031
		c0.021-0.007,0.047-0.007,0.064-0.012C507.988,174.427,508.004,174.442,508.027,174.459z M543.328,298.124
		c0.282,0.157,0.573,0.354,0.858,0.544c-0.234,0.055-0.463,0.092-0.685,0.148C543.438,298.582,543.381,298.348,543.328,298.124z
		 M547.519,263.11c-1.126-0.456-2.331-0.777-3.561-1.037c3.795-2.135,7.678-4.002,11.042-5.423
		c-2.414,2.337-4.666,4.618-6.733,6.807C548.007,263.351,547.784,263.214,547.519,263.11z M118.576,154.633
		c-0.165,0.634-0.337,1.272-0.471,1.916c-1.184-0.173-2.483-0.316-3.864-0.39c-0.043-0.321-0.071-0.674-0.102-1.079
		C115.66,154.88,117.14,154.74,118.576,154.633z M528.405,233.493c1.877-0.842,4.045-1.807,6.373-2.856
		c0.083-0.012,0.16-0.024,0.254-0.035c-2.915,1.743-5.761,3.58-8.271,5.371C527.243,235.178,527.786,234.348,528.405,233.493z
		 M308.25,40.416c0.056-0.172,0.103-0.347,0.155-0.521c0.972,3.643,1.392,7.221,1.472,10.44c-1.113,0.347-2.227,0.679-3.356,0.982
		c0.516-2.814,0.75-5.566,0.802-8.129C307.638,42.27,307.955,41.338,308.25,40.416z M238.236,65.376
		c-1.627,0.69-3.244,1.257-4.793,1.734c-0.602-2.167-1.245-4.427-1.92-6.816c0-0.075,0-0.153,0-0.213
		c1.607,1.15,3.201,2.358,4.746,3.634C236.937,64.247,237.591,64.815,238.236,65.376z M197.855,52.115
		c0.253,1.802,0.516,3.656,0.773,5.522c-1.421-2.965-2.659-6.422-3.136-10.13C196.244,48.95,197.043,50.507,197.855,52.115z
		 M56.865,342.739c-0.046,0.621-0.065,1.247-0.1,1.867c-0.35-0.586-0.727-1.049-1.107-1.322
		C56.083,343.099,56.482,342.909,56.865,342.739z M353.622,579.572c0.336,0.249,0.694,0.489,1.08,0.717
		c0.03,0.015,0.066,0.037,0.104,0.055c-0.489-0.218-0.944-0.433-1.418-0.65C353.467,579.655,353.543,579.614,353.622,579.572z
		 M384.228,566.788c-0.085-0.409-0.133-0.786-0.199-1.188c0.555,0.297,1.124,0.551,1.728,0.788
		C385.213,566.465,384.701,566.603,384.228,566.788z M485.53,500.479c-0.223-0.017-0.513,0.006-0.835,0.044
		c-0.018-0.021-0.021-0.038-0.031-0.065c0.336-0.312,0.669-0.635,0.997-0.957C485.617,499.832,485.58,500.15,485.53,500.479z
		 M548.381,384.816c0.123-0.709,0.227-1.43,0.333-2.146c1.1,1.063,2.237,2.122,3.403,3.171c-1.094,0.056-2.246,0.121-3.444,0.227
		C548.575,385.631,548.476,385.222,548.381,384.816z M566.181,340.062c-2.696,1.143-5.701,2.386-8.87,3.664
		c-0.342-0.476-0.704-0.942-1.02-1.441c-0.409-0.613-0.793-1.236-1.169-1.86c0.658,0.066,1.308,0.105,1.947,0.121
		C561.283,340.589,565.005,340.149,566.181,340.062z M558.967,310.962c-0.36-0.493-0.852-1.213-1.399-2.177
		c-0.699-1.184-1.505-2.72-2.365-4.432c1.043,1.1,2.078,2.247,3.071,3.443c0.712,0.84,1.395,1.698,2.079,2.559
		C559.892,310.549,559.423,310.751,558.967,310.962z M473.302,111.2c3.768-1.188,6.776-2.197,8.754-2.869
		c-0.516,0.271-2.247,1.176-4.833,2.399c-0.857,0.102-2.188,0.304-3.843,0.722c-2.504,0.617-5.678,1.871-8.794,3.619l0.993-1.452
		C468.36,112.751,470.973,111.941,473.302,111.2z M446.03,86.657c0.725-0.508,1.39-1.006,2.074-1.505
		c-0.503,0.453-1.001,0.893-1.517,1.362C446.404,86.562,446.216,86.611,446.03,86.657z M400.199,49.076
		c-0.81,1.492-2.274,3.919-4.603,6.593c-3.796,4.469-10.273,8.909-17.611,11.498c-0.236,0.084-0.479,0.149-0.722,0.227
		c1.539-1.336,3.234-2.76,5.075-4.243c2.9-1.82,5.759-3.835,8.375-6.192c0.795-0.702,1.545-1.423,2.28-2.163
		C395.65,52.738,398.118,50.794,400.199,49.076z M358.362,50.165c0.045,0.967,0,2.046-0.09,3.163
		c-1.708,1.012-3.373,1.938-4.899,2.668c-0.193,0.092-0.375,0.17-0.57,0.266c1.605-2.241,3.456-4.655,5.495-7.171
		C358.331,49.432,358.348,49.787,358.362,50.165z M349.322,40.266c1.341-1.114,2.51-1.891,3.308-2.381
		c-1.927,2.344-3.838,4.477-5.61,6.205c-3.872,3.854-7,5.98-7.595,6.49c-0.114,0.103-0.212,0.227-0.326,0.335
		c0.615-0.823,1.265-1.649,1.947-2.449C343.758,45.231,346.85,42.27,349.322,40.266z M302.801,27.451
		c1.12,1.673,2.146,3.465,3.03,5.354c-0.057,0.381-0.117,0.776-0.189,1.195c-0.785,1.371-1.593,2.764-2.427,4.144
		c-1.767,2.925-3.634,5.736-5.451,8.269c0.951-4.711,1.773-9.974,2.799-15.013c0.33-1.64,0.701-3.25,1.123-4.815
		C302.048,26.855,302.426,27.148,302.801,27.451z M279.946,43.018c-0.737,4.346-1.989,8.547-3.401,12.349
		c-0.031-0.167-0.064-0.312-0.096-0.48c-1.006-5.399-1.125-12.83-0.39-20.194c0.108-1.207,0.248-2.406,0.396-3.593
		c0.793-2.049,1.553-3.991,2.297-5.723c0.252-0.614,0.496-1.184,0.736-1.757C280.972,28.808,281.188,36.004,279.946,43.018z
		 M278.939,21.834c-0.447,0.691-0.911,1.43-1.394,2.222c0.244-1.354,0.505-2.651,0.767-3.909
		C278.523,20.665,278.737,21.23,278.939,21.834z M228.493,36.558c0.081-0.743,0.175-1.441,0.277-2.096
		c1.64,2.424,3.667,5.539,5.707,9.016c-3.576-2.659-6.153-3.786-6.132-3.821c-0.037,0.017,2.988,2.125,6.463,6.246
		c1.372,1.606,2.758,3.538,4.046,5.705c0.99,1.999,1.932,4.002,2.749,5.938c-0.025,0.238-0.035,0.48-0.057,0.724
		c-2.445-2.121-4.5-4.668-5.758-6.835c-1.321-2.223-1.909-3.902-1.921-3.896c0.021,0-0.092,1.751,0.294,4.466
		c0.192,1.421,0.588,3.123,1.173,4.913c-1.839-0.966-3.675-1.858-5.484-2.676c-0.48-1.758-0.946-3.538-1.387-5.311
		c-0.043-0.152-0.069-0.31-0.108-0.465C228.039,44.084,228.107,39.917,228.493,36.558z M216.237,50.943
		c2.186,1.065,4.638,2.41,7.157,3.89c0.007,0.089,0.012,0.184,0.021,0.28c-0.09,1.668-0.14,3.352-0.134,5.005
		c-1.986-1.563-4.302-3.219-6.785-4.874c-0.193-1.372-0.381-2.862-0.558-4.438C216.046,50.847,216.133,50.887,216.237,50.943z
		 M196.013,43.779c-0.152-0.07-0.306-0.146-0.452-0.21c-0.086-0.105-0.182-0.223-0.272-0.332c0.013-0.309,0-0.62,0.021-0.941
		C195.549,42.787,195.78,43.281,196.013,43.779z M119.244,145.891c-1.563,0.35-3.172,0.78-4.833,1.256
		c0.071-0.606,0.147-1.21,0.24-1.813c0.046-0.322,0.105-0.628,0.165-0.938C116.347,144.866,117.83,145.368,119.244,145.891z
		 M81.774,172.989c0.678-1.516,1.832-3.598,3.793-5.753c0.991-1.12,2.189-2.191,3.552-3.219c0.275,0,0.553-0.007,0.829-0.007
		c7.623-0.019,15.3,0.357,20.891,1.378c2.925,0.489,5.12,1.164,6.649,1.745c-3.378,0.734-6.944,1.737-10.559,2.944
		c-4.102-0.068-8.841,0.115-13.483,0.699C89.253,171.301,85.189,172.118,81.774,172.989z M100.585,178.232
		c0.567-0.119,1.13-0.227,1.7-0.344c2.031,0.461,3.962,0.952,5.634,1.438c0.028,0.007,0.045,0.007,0.067,0.013
		c-0.433,0.127-0.835,0.245-1.263,0.369c-4.188,0.256-8.519,0.606-12.911,1.079c-1.287,0.019-2.574,0.042-3.838,0.077
		C93.345,179.91,96.941,179.009,100.585,178.232z M91.998,188.706c-0.94-0.393-1.86-0.76-2.791-1.141
		c2.443-0.096,4.875-0.146,7.287-0.172c-1.152,0.511-2.341,1.076-3.579,1.678C92.608,188.945,92.302,188.826,91.998,188.706z
		 M34.529,324.605c2.608-2.971,6.397-6.69,10.493-10.047c0.112-0.085,0.214-0.166,0.325-0.251c1.677-0.577,3.442-1.198,5.216-1.849
		c3.826-1.397,7.667-2.838,10.607-3.843c0.242-0.086,0.433-0.142,0.662-0.219c-0.04,0.172-0.07,0.344-0.11,0.525
		c-0.356,0.007-0.724,0.051-1.078,0.164c-0.673,0.193-3.825,1.438-7.843,3.622c-4.024,2.164-8.875,5.302-13.267,8.794
		c-3.331,2.564-6.327,5.361-8.775,7.853C31.32,328.568,32.594,326.786,34.529,324.605z M35.022,340.967
		c3.783-3.719,8.137-6.829,11.712-8.824c1.019-0.311,2.024-0.609,3.009-0.899c-4.557,4.363-11.168,10.984-15.135,14.951
		c-2.211,1.337-4.405,2.526-6.483,3.517C29.793,346.775,32.214,343.704,35.022,340.967z M26.533,353.067
		c0.025-0.056,0.068-0.125,0.084-0.188c0.852-0.127,1.73-0.283,2.651-0.46c-1.175,0.99-2.308,1.973-3.396,2.939
		C26.026,354.647,26.225,353.883,26.533,353.067z M31.06,363.722c1.586-3.153,4.291-7.045,7.548-10.371
		c0.145-0.14,0.29-0.263,0.43-0.406c3.736,0.256,9.37,0.618,13.373,0.802c-1.715,1.089-3.455,2.215-5.172,3.352
		c-4.147,2.729-8.215,5.353-11.384,7.1c-3.151,1.782-5.405,2.648-5.405,2.666c0-0.01,0.595-0.062,1.631-0.203
		c-0.198,0.127-0.398,0.26-0.598,0.394c-0.884,0.608-1.705,1.274-2.531,1.933C29.131,368.33,29.734,366.301,31.06,363.722z
		 M61.617,396.905c0.127,0.523,0.257,1.043,0.39,1.562c-1.187,0.156-2.241,0.569-3.063,1.164
		C59.827,398.718,60.707,397.797,61.617,396.905z M69.35,489.731c0.207-0.739,0.427-1.493,0.675-2.259
		c0.068-0.212,0.157-0.431,0.222-0.634c-0.142,0.696-0.268,1.361-0.376,2.002C69.69,489.173,69.527,489.43,69.35,489.731z
		 M111.803,509.492c-0.259,1.052-0.538,2.077-0.835,3.091c-0.367,0.264-0.742,0.512-1.114,0.783
		c-1.383,0.988-2.735,1.974-4.086,2.956C107.579,514.181,109.573,511.904,111.803,509.492z M119.832,514.665
		c0.415-0.188,0.812-0.373,1.22-0.564c-0.573,3.739-1.358,8.031-2.458,12.186c-0.616,2.374-1.388,4.675-2.194,6.844
		C116.492,532.313,117.416,523.934,119.832,514.665z M168.576,562.875c2.692-5.406,5.982-10.402,8.924-14.206
		c-0.26,0.652-0.53,1.313-0.803,1.998c-2.206,4.122-4.76,9.049-7.487,13.804c-1.51,2.638-3.106,5.196-4.675,7.528
		C165.678,569.047,167.024,565.918,168.576,562.875z M192.926,569.108c-0.14-3.272,1.26-7.183,3.437-10.951
		c2.619-1.511,4.732-2.715,5.673-3.304c-2.244,4.328-5.358,10.502-8.44,16.471c-0.09,0.19-0.182,0.347-0.273,0.518
		C193.109,571.036,192.948,570.133,192.926,569.108z M206.261,576.684l4.362-4.115c-0.557,0.839-1.104,1.666-1.637,2.472
		C208.035,575.609,207.128,576.153,206.261,576.684z M229.124,575.026c-1.136,0.871-2.263,1.744-3.364,2.612
		c0.774-1.713,1.721-3.639,2.85-5.6c2.582-0.762,5.072-1.498,7.353-2.165L229.124,575.026z M271.975,575.058
		c0.355-0.545,0.674-1.064,0.941-1.558c0.296-0.284,0.573-0.556,0.857-0.851c-0.04,0.133-0.049,0.266-0.067,0.39
		c-0.374,0.461-0.753,0.901-1.151,1.358C272.357,574.621,272.169,574.84,271.975,575.058z M287.497,577.249
		c-0.018-0.016-0.031-0.029-0.049-0.046c0.714-0.802,1.371-1.558,1.962-2.242c0.125,0.103,0.237,0.211,0.366,0.312
		C289.011,575.926,288.249,576.59,287.497,577.249z M304.208,580.586c-1.173-0.771-2.398-1.955-3.488-3.34
		c0.916-0.388,1.81-0.753,2.634-1.071c0.779-0.313,1.502-0.575,2.177-0.823c0.322,0.619,0.779,1.179,1.391,1.632
		c0.279,0.201,1.137,0.734,2.423,1.452c-1.321,0.99-2.64,1.952-3.932,2.868C305.035,581.114,304.633,580.88,304.208,580.586z
		 M325.354,577.032c0.195-0.102,0.41-0.212,0.591-0.308c0.954-0.513,1.821-0.999,2.605-1.454c0.297,1.12,0.966,2.195,2.022,3.025
		c-0.42,0.37-0.838,0.716-1.259,1.073C327.944,578.598,326.616,577.814,325.354,577.032z M407.422,561.856
		c0.373,0.064,0.748,0.113,1.124,0.162c0.141,0.085,0.28,0.158,0.432,0.249c0.196,0.176,0.411,0.355,0.627,0.534
		C408.823,562.531,408.088,562.203,407.422,561.856z M458.412,559.662c-6.157-1.867-14.36-4.883-21.386-9.578
		c-1.601-1.058-3.108-2.216-4.515-3.438c-0.825-1.646-1.426-3.124-1.85-4.404c0.093-0.145,0.146-0.329,0.222-0.495
		c1.906,1.424,4.826,3.407,7.803,5.021c4.785,2.709,9.646,4.588,9.641,4.588c-0.008,0-3.067-3.935-5.653-8.295
		c1.634,1.405,3.271,2.846,4.899,4.322c0.607,0.552,1.199,1.113,1.802,1.666c-0.153,1.916-0.232,3.083-0.268,3.095
		c0.024,0.016,0.401-0.895,1.021-2.396c4.178,3.892,8.116,7.705,11.227,10.77C460.43,560.252,459.458,559.977,458.412,559.662z
		 M464.737,541.844c-0.064-0.063-0.146-0.14-0.217-0.197c3.243,0.351,6.271,0.544,8.7,0.688l4.912,0.292
		c0.149,1.758,0.317,3.429,0.52,4.885c0.251,1.912,0.52,3.494,0.744,4.68C474.91,549.622,469.573,546.069,464.737,541.844z
		 M478.105,542.318l-4.532-1.68c-3.314-1.213-7.734-2.854-11.92-4.865c-1.41-0.663-2.746-1.396-4.031-2.145
		c1.288-2.349,2.628-4.509,3.9-6.34c0.988,0.545,1.976,1.073,2.993,1.588c0.184,1.678,0.356,2.775,0.356,2.768
		c0-0.01,0.321-0.866,0.864-2.171c0.854,0.42,1.699,0.858,2.562,1.244c3.186,1.432,6.38,2.721,9.386,3.857
		C477.765,537.287,477.903,539.9,478.105,542.318z M471.067,525.945c-0.933-0.669-1.81-1.362-2.71-2.049
		c0.348-0.666,0.712-1.346,1.097-2.015c0.631-1.123,1.29-2.239,1.935-3.288c0.195,0.145,0.411,0.288,0.624,0.437
		c0.254,4.444,0.746,7.894,0.752,7.876c-0.008-0.008,0.839-2.628,2.179-6.034c0.244,0.139,0.486,0.291,0.744,0.432
		c0.647,0.361,1.386,0.697,2.083,1.042c-0.066,2.563-0.112,5.271-0.133,8.006C475.468,528.971,473.244,527.486,471.067,525.945z
		 M486.841,517.983c0.204-0.778,0.409-1.515,0.594-2.22c0.765,0.656,1.552,1.287,2.334,1.898c3.996,3.151,8.192,5.702,12.082,7.762
		c-2.287-0.909-4.653-1.91-6.983-3.001C492.015,521.068,489.288,519.554,486.841,517.983z M493.541,513.628
		c-1.521-1.696-2.917-3.479-4.188-5.271c0-0.053,0.015-0.116,0.021-0.155c0.256-1.79-0.571-3.499-2.001-4.587
		c0.713-1.31,1.537-2.753,2.435-4.263c0.012,0.063,0.031,0.118,0.044,0.188c0.022,4.636,0.259,8.46,0.259,8.454
		c0-0.01,0.547-1.208,1.399-3.003c1.08,2.969,2.424,5.965,3.996,8.754c0.934,1.704,1.929,3.299,2.922,4.847
		C496.75,517.024,495.093,515.39,493.541,513.628z M512.622,483.351c-0.474-0.664-0.88-1.339-1.248-2.001
		c0.464-1.041,0.886-2.027,1.303-2.964c1.576,3.003,3.45,6.505,5.395,10.022c0.257,0.466,0.529,0.91,0.797,1.364
		C516.407,487.799,514.216,485.618,512.622,483.351z M545.246,439.347c-1.21-0.008-2.464-0.008-3.749,0.005
		c-0.41-1.513-1.534-2.777-3.071-3.435c-0.35-2.728-0.399-5.276-0.15-7.232c0.956,0.345,1.987,0.618,3.041,0.756
		c0.162,0.145,0.319,0.303,0.473,0.452c0.175,0.15,0.335,0.29,0.505,0.436C543.24,433.499,544.252,436.548,545.246,439.347z
		 M556.937,389.931c-2.263,0.411-4.627,0.812-7.035,1.156c-0.173-0.682-0.343-1.376-0.508-2.044
		c1.728-0.508,3.359-0.943,4.874-1.322C555.147,388.469,556.031,389.21,556.937,389.931z"/>
	<g>
		
			<radialGradient id="SVGID_2_" cx="-565.2441" cy="23.9331" r="78.7048" gradientTransform="matrix(-1 0 0 1 -309.7432 235.8828)" gradientUnits="userSpaceOnUse">
			<stop  offset="0" style="stop-color:#F5B136"/>
			<stop  offset="0.2003" style="stop-color:#EEA732"/>
			<stop  offset="0.5191" style="stop-color:#DE9129"/>
			<stop  offset="0.9144" style="stop-color:#C66E26"/>
			<stop  offset="1" style="stop-color:#C16725"/>
		</radialGradient>
		<path fill="url(#SVGID_2_)" d="M334.21,259.819c0-43.48-35.241-78.704-78.71-78.704c-43.465,0-78.708,35.223-78.708,78.704
			c0,43.46,35.243,78.698,78.708,78.698C298.969,338.517,334.21,303.279,334.21,259.819z"/>
		
			<radialGradient id="SVGID_3_" cx="656.8203" cy="61.0479" r="96.9862" gradientTransform="matrix(1 0 0 1 -384.3643 235.8828)" gradientUnits="userSpaceOnUse">
			<stop  offset="0" style="stop-color:#FFFFFF"/>
			<stop  offset="1" style="stop-color:#F6F6F6"/>
		</radialGradient>
		<path fill="url(#SVGID_3_)" d="M318.469,259.819c0-34.783-28.188-62.966-62.969-62.966c-34.78,0-62.964,28.189-62.964,62.966
			c0,34.758,28.187,62.958,62.964,62.958C290.283,322.777,318.469,294.577,318.469,259.819z"/>
		
			<radialGradient id="SVGID_4_" cx="623.417" cy="36.0742" r="46.4562" gradientTransform="matrix(1 0 0 1 -384.3643 235.8828)" gradientUnits="userSpaceOnUse">
			<stop  offset="0" style="stop-color:#585857"/>
			<stop  offset="1" style="stop-color:#3D3D3C"/>
		</radialGradient>
		<path fill="url(#SVGID_4_)" d="M261.089,254.177c0-16.647-13.488-30.155-30.149-30.155c-16.661,0-30.154,13.507-30.154,30.155
			c0,16.655,13.492,30.162,30.154,30.162C247.601,284.338,261.089,270.832,261.089,254.177z"/>
		
			<radialGradient id="SVGID_5_" cx="2418.292" cy="1279.8018" r="39.7491" gradientTransform="matrix(0.2011 -0.1966 0.3189 0.37 -650.7842 253.1806)" gradientUnits="userSpaceOnUse">
			<stop  offset="0" style="stop-color:#FFFFFF"/>
			<stop  offset="1" style="stop-color:#F6F6F6"/>
		</radialGradient>
		<path fill="url(#SVGID_5_)" d="M242.61,241.945c-4.546-5.282-10.543-7.288-13.412-4.49c-2.863,2.826-1.514,9.355,3.039,14.638
			c4.547,5.272,10.551,7.279,13.419,4.455C248.526,253.766,247.152,247.225,242.61,241.945z"/>
	</g>
	<g>
		
			<radialGradient id="SVGID_6_" cx="-733.7793" cy="23.9331" r="78.7058" gradientTransform="matrix(-1 0 0 1 -309.7432 235.8828)" gradientUnits="userSpaceOnUse">
			<stop  offset="0" style="stop-color:#F5B136"/>
			<stop  offset="0.2003" style="stop-color:#EEA732"/>
			<stop  offset="0.5191" style="stop-color:#DE9129"/>
			<stop  offset="0.9144" style="stop-color:#C66E26"/>
			<stop  offset="1" style="stop-color:#C16725"/>
		</radialGradient>
		<path fill="url(#SVGID_6_)" d="M502.747,259.819c0-43.48-35.24-78.704-78.712-78.704c-43.465,0-78.71,35.223-78.71,78.704
			c0,43.46,35.245,78.698,78.71,78.698C467.507,338.517,502.747,303.279,502.747,259.819z"/>
		
			<radialGradient id="SVGID_7_" cx="825.3574" cy="61.0479" r="96.9887" gradientTransform="matrix(1 0 0 1 -384.3643 235.8828)" gradientUnits="userSpaceOnUse">
			<stop  offset="0" style="stop-color:#FFFFFF"/>
			<stop  offset="1" style="stop-color:#F6F6F6"/>
		</radialGradient>
		<path fill="url(#SVGID_7_)" d="M487.01,259.819c0-34.783-28.192-62.966-62.973-62.966c-34.778,0-62.967,28.189-62.967,62.966
			c0,34.758,28.191,62.958,62.967,62.958C458.819,322.777,487.01,294.577,487.01,259.819z"/>
		
			<radialGradient id="SVGID_8_" cx="791.9492" cy="36.0737" r="46.4543" gradientTransform="matrix(1 0 0 1 -384.3643 235.8828)" gradientUnits="userSpaceOnUse">
			<stop  offset="0" style="stop-color:#585857"/>
			<stop  offset="1" style="stop-color:#3D3D3C"/>
		</radialGradient>
		<circle fill="url(#SVGID_8_)" cx="399.469" cy="254.177" r="30.149"/>
		
			<radialGradient id="SVGID_9_" cx="2873.127" cy="1521.4805" r="39.7481" gradientTransform="matrix(0.2011 -0.1966 0.3189 0.37 -650.7842 253.1806)" gradientUnits="userSpaceOnUse">
			<stop  offset="0" style="stop-color:#FFFFFF"/>
			<stop  offset="1" style="stop-color:#F6F6F6"/>
		</radialGradient>
		<path fill="url(#SVGID_9_)" d="M411.148,241.945c-4.551-5.282-10.546-7.288-13.41-4.49c-2.86,2.826-1.51,9.355,3.041,14.638
			c4.54,5.272,10.553,7.279,13.42,4.455C417.059,253.766,415.698,247.225,411.148,241.945z"/>
	</g>
	<path fill="#5E1C10" d="M343.337,395.056c-17.479,2.248-84.076,13.94-69.091,39.539c11.862,21.854,60.556-0.631,78.041-1.251
		c14.983-0.626,29.342,7.482,44.322,8.115c16.861,0.625,30.97-10.433,14.988-24.354
		C387.455,396.092,350.283,394.597,343.337,395.056"/>
	<g>
		<g>
			<g>
				<g>
					<defs>
						<path id="SVGID_10_" d="M343.337,395.056c-17.479,2.248-84.076,13.94-69.091,39.539c11.862,21.854,60.556-0.631,78.041-1.251
							c14.983-0.626,29.342,7.482,44.322,8.115c16.861,0.625,30.97-10.433,14.988-24.354
							C387.455,396.092,350.283,394.597,343.337,395.056"/>
					</defs>
					<clipPath id="SVGID_11_">
						<use xlink:href="#SVGID_10_"  overflow="visible"/>
					</clipPath>
					
						<linearGradient id="SVGID_12_" gradientUnits="userSpaceOnUse" x1="348.1094" y1="-6.9336" x2="348.1094" y2="9.6861" gradientTransform="matrix(1 0 0 -1 0 435)">
						<stop  offset="0" style="stop-color:#C4566D"/>
						<stop  offset="1" style="stop-color:#C76B8C"/>
					</linearGradient>
					<path clip-path="url(#SVGID_11_)" fill="url(#SVGID_12_)" d="M387.051,440.282c0-8.425-17.433-15.254-38.943-15.254
						c-21.503,0-38.942,6.826-38.942,15.254c0,8.411,17.439,15.239,38.942,15.239C369.618,455.519,387.051,448.693,387.051,440.282z
						"/>
				</g>
			</g>
		</g>
	</g>
	<g>
		<g>
			<g>
				<g>
					<defs>
						<path id="SVGID_13_" d="M343.337,395.056c-17.479,2.248-84.076,13.94-69.091,39.539c11.862,21.854,60.556-0.631,78.041-1.251
							c14.983-0.626,29.342,7.482,44.322,8.115c16.861,0.625,30.97-10.433,14.988-24.354
							C387.455,396.092,350.283,394.597,343.337,395.056"/>
					</defs>
					<clipPath id="SVGID_14_">
						<use xlink:href="#SVGID_13_"  overflow="visible"/>
					</clipPath>
					<g clip-path="url(#SVGID_14_)">
						
							<radialGradient id="SVGID_15_" cx="336.6934" cy="32.8286" r="6.9475" gradientTransform="matrix(1 0 0 -1 0 435)" gradientUnits="userSpaceOnUse">
							<stop  offset="0" style="stop-color:#FFFFFF"/>
							<stop  offset="1" style="stop-color:#F6F6F6"/>
						</radialGradient>
						<rect x="329.983" y="394.994" fill="url(#SVGID_15_)" width="13.42" height="14.354"/>
						
							<radialGradient id="SVGID_16_" cx="353.9727" cy="32.8286" r="6.9456" gradientTransform="matrix(1 0 0 -1 0 435)" gradientUnits="userSpaceOnUse">
							<stop  offset="0" style="stop-color:#FFFFFF"/>
							<stop  offset="1" style="stop-color:#F6F6F6"/>
						</radialGradient>
						<rect x="347.266" y="394.994" fill="url(#SVGID_16_)" width="13.413" height="14.354"/>
					</g>
				</g>
			</g>
		</g>
	</g>
</g>
</svg>
