<?xml version="1.0" encoding="utf-8"?>
<!-- Generator: Adobe Illustrator 16.2.1, SVG Export Plug-In . SVG Version: 6.00 Build 0)  -->
<!DOCTYPE svg PUBLIC "-//W3C//DTD SVG 1.1//EN" "http://www.w3.org/Graphics/SVG/1.1/DTD/svg11.dtd">
<svg version="1.1" id="Layer_1" xmlns="http://www.w3.org/2000/svg" xmlns:xlink="http://www.w3.org/1999/xlink" x="0px" y="0px"
	 width="612px" height="612px" viewBox="0 0 612 612" enable-background="new 0 0 612 612" xml:space="preserve">
<g>
	
		<radialGradient id="SVGID_1_" cx="334.2793" cy="234.7085" r="256.0149" gradientTransform="matrix(1 0 0 -1 0 435)" gradientUnits="userSpaceOnUse">
		<stop  offset="0" style="stop-color:#96CB36"/>
		<stop  offset="0.2003" style="stop-color:#8FC132"/>
		<stop  offset="0.5191" style="stop-color:#7FAB29"/>
		<stop  offset="0.9144" style="stop-color:#678826"/>
		<stop  offset="1" style="stop-color:#628125"/>
	</radialGradient>
	<path fill="url(#SVGID_1_)" d="M560.148,253.569c-3.137,0.17-6.771,0.531-10.642,1.162c3.347-3.231,7.084-6.672,10.941-10.006
		c12.067-10.375,24.592-19.729,24.552-19.766c0.019,0.055-13.886,6.984-27.814,15.249c-3.668,2.2-7.315,4.512-10.723,6.786
		c-2.409,0.721-6.715,2.173-10.99,4.374c-0.685,0.334-1.358,0.69-2.025,1.05c0.663-1.032,1.466-2.163,2.443-3.262
		c2.704-3.192,6.157-5.899,6.138-5.899c0.005,0.031-4.304,0.015-8.911,1.07c-0.364,0.068-0.72,0.172-1.078,0.256
		c2.627-3.267,6.254-7.156,10.11-10.871c4.349-4.133,8.77-8.108,11.956-10.962c9.326-3.883,17.34-6.582,17.363-6.551
		c0.017-0.039-12.453,1.219-25.133,3.877c-10.214,2.096-20.51,4.371-24.897,5.382c2.001-1.787,4.168-3.649,6.413-5.479
		c3.73-1.749,7.025-2.971,7.017-2.981c0,0.01-1.089-0.187-2.75-0.425c1.063-0.837,2.105-1.649,3.123-2.424
		c0.771-0.219,1.215-0.334,1.215-0.334s-0.287,0-0.797,0.012c5.381-4.127,9.577-7.153,9.551-7.173
		c0.013,0.045-8.793,3.328-18.215,7.481c-1.194,0.058-2.466,0.113-3.797,0.197c1.287-0.588,2.58-1.2,3.834-1.849
		c4.326-2.287,8.41-4.621,10.904-6.044c0.823-0.292,1.679-0.603,2.446-0.844c5.189-1.614,8.817-2.093,8.804-2.124
		c0,0.031-2.249-0.104-5.876,0.133c6.762-2.308,11.439-4.125,11.45-4.11c0-0.022-14.001,2.461-28.423,3.607
		c-1.244,0.119-2.489,0.214-3.719,0.3c0.245-0.164,0.482-0.315,0.731-0.466c5.819-3.903,11.454-7.459,11.521-7.417
		c0.021-0.072-6.764,0.949-13.557,2.239c-1.968,0.332-3.912,0.635-5.71,0.863c0.357-0.434,0.733-0.872,1.131-1.322
		c2.315-0.74,4.682-1.443,7.059-2.067c8.988-2.425,18.138-3.853,25.032-4.299c6.895-0.497,11.515-0.143,11.509-0.188
		c0,0.043-4.493-0.999-11.502-1.556c-2.615-0.228-5.586-0.362-8.777-0.375c10.35-2.408,17.919-3.594,17.892-3.638
		c0.017,0.068-14.104,0.262-30.852,2.629c0.857-0.645,1.414-1.037,1.414-1.037c0.009,0.01-4.738,0.618-10.042,2.188
		c0.339-0.347,0.688-0.703,1.053-1.038c5.473-5.444,12.143-9.392,16.044-11.447c7.052-2.763,12.061-4.78,12.041-4.818
		c0,0.07-10.329,1.993-22.459,4.199c0.732-0.462,1.465-0.933,2.223-1.375c0.803-0.462,1.607-0.909,2.43-1.35
		c1.673,0.056,2.689,0.115,2.689,0.115s-0.688-0.21-1.899-0.541c9.419-4.998,18.66-8.152,18.603-8.209
		c0.013,0.082-8.619,0.875-18.69,3.399c0.616-0.204,1.223-0.397,1.837-0.597c9.706-3.123,19.249-5.97,19.239-5.992
		c0,0.022-7.375,0.088-15.989,0.362c1.524-1.229,2.478-1.942,2.467-1.952c0.013,0.017-1.805,0.731-4.618,2.027
		c-0.678,0.013-1.369,0.046-2.064,0.065c-10.285,0.366-20.985,1.431-22.192,1.759c-0.314,0.081-0.604,0.199-0.88,0.344
		c-1.655,0.018-3.344,0.049-5.042,0.096l14.113-5.885l-17.438,1.309c-0.012,0-0.021,0-0.029,0c3.17-1.125,6.523-2.221,9.891-3.252
		c7.282-2.242,14.604-4.219,20.047-5.742c5.465-1.499,9.023-2.646,9.017-2.66c0,0.025-3.697,0.481-9.324,0.949
		c-5.634,0.493-13.186,1.099-20.885,1.999c-2.806,0.331-5.618,0.722-8.384,1.137c3.543-1.649,5.982-2.477,5.965-2.494
		c0.009,0.016-2.947,0.285-7.381,1.257c-0.629,0.13-1.344,0.314-2.026,0.483c2.198-1.546,3.869-2.524,3.843-2.53
		c0,0.059-5.977,0.281-12.273,2.287c-2.054,0.637-4.094,1.534-5.925,2.489c2.81-3.069,6.525-6.474,10.623-9.521
		c2.549-1.914,5.195-3.664,7.702-5.193c1.931-0.766,3.777-1.492,5.449-2.084c5.665-2.048,9.544-3.086,9.529-3.103
		c0.018,0.015-2.971,0.278-7.646,1.027c3.17-1.665,5.281-2.61,5.267-2.624c0.024,0.034-8.67,1.603-18.433,5.267
		c-1.278,0.306-2.593,0.628-3.916,0.96c1.011-1.382,1.623-2.256,1.66-2.248c-0.012-0.053-2.279,1.394-5.465,3.241
		c-1.136,0.305-2.289,0.605-3.429,0.93l-10.158,2.946c0.335-0.685,0.715-1.362,1.098-2.04c1.675-1.772,3.64-3.795,5.773-5.907
		c6.105-2.92,11.615-6.12,15.749-9.087c5.899-4.167,9.135-7.627,9.163-7.577c-0.021-0.05-3.749,2.893-10.065,6.082
		c-2.022,1.043-4.345,2.089-6.843,3.112c7.959-7.012,16.105-12.398,16.117-12.379c0.011-0.02-10.811,3.783-21.294,9.592
		c-5.453,2.937-10.773,6.286-14.8,8.985c-0.825,0.185-1.648,0.366-2.478,0.541c-0.047-0.061-0.082-0.119-0.145-0.175
		c0.271-0.475,0.558-0.965,0.853-1.462c7.453-3.613,13.203-6.328,13.195-6.337c0,0.009-4.439,0.99-10.693,2.441
		c0.328-0.486,0.673-0.979,1.033-1.452c2.123-2.799,4.745-5.145,7.088-6.432c2.329-1.321,4.18-1.699,4.167-1.722
		c0.008,0.041-1.821-0.329-4.713,0.072c-1.087,0.13-2.329,0.453-3.618,0.866c6.632-5.492,12.353-8.897,12.309-8.897
		c0.059,0.034-9.214,3.228-19.243,9.447c0.337-0.458,0.659-0.931,1.021-1.381c0.803-1.033,1.685-2.001,2.58-2.917
		c7.54-4.654,12.699-8.711,13.182-9.074c1.551-0.531,2.458-0.859,2.458-0.845c0-0.016-4.674,0.922-11.802,2.075
		c-1.585,0.259-3.306,0.533-5.107,0.814l4.186-6.076l-10.996,7.154c-0.91,0.152-1.842,0.303-2.783,0.454
		c0.668-0.623,1.365-1.209,2.008-1.862c5.602-5.539,9.748-12.207,11.707-17.502c2.013-5.285,2.389-8.951,2.44-8.927
		c-0.043-0.032-1.133,3.526-3.998,8.156c-2.83,4.648-7.766,9.968-13.745,14.012c-3.033,2.093-6.27,3.918-9.43,5.52
		c-0.806-0.344-1.858-0.678-3.092-0.738c-0.065-0.009-0.116-0.019-0.188-0.019c1.521-1.64,3.144-3.351,4.81-5.017
		c2.997-3.008,6.139-5.795,8.627-7.722c2.489-1.935,4.298-3.04,4.288-3.052c0.01,0.021-2.048,0.468-5.113,1.521
		c-3.062,1.042-7.078,2.739-11.038,4.717c-3.191,1.608-6.327,3.326-9,4.863c-0.198-0.171-0.393-0.349-0.597-0.524l0.266-0.118
		l1.317-0.707l5.346-2.884l11.291-6.156c7.62-4.196,15.01-8.597,20.341-12.13c5.343-3.517,8.657-6.103,8.662-6.085
		c-0.006-0.019-3.704,1.992-9.507,4.566c-5.01,2.243-11.604,4.86-18.555,7.4c1.91-1.819,3.724-3.648,5.401-5.467
		c2.199-1.08,3.56-1.742,3.569-1.723c0-0.02-0.942,0.202-2.531,0.58c2.214-2.456,4.2-4.842,5.796-6.953
		c3.548-4.652,5.462-7.963,5.489-7.95c-0.02-0.022-2.521,2.899-6.767,6.782c-3.396,3.114-7.987,6.769-13.049,10.196
		c-0.475,0.121-0.967,0.243-1.457,0.371c1.209-1.433,2.365-2.805,3.443-4.058c4.87-5.713,8.294-9.315,8.283-9.315
		c0.011,0-2.57,2.05-6.522,5.47c-1.264,0.735-2.941,1.666-4.982,2.727c-4.595,2.385-10.919,5.176-17.474,7.625
		c-4.973,1.846-10.08,3.53-14.584,4.967c-0.379-0.272-0.753-0.541-1.135-0.806c0.777-0.735,1.678-1.515,2.746-2.341
		c0.135-0.106,0.293-0.216,0.425-0.322c11.723-5.594,22.401-10.196,22.426-10.162c0-0.027-3.187,0.641-8.034,1.742
		c0.301-0.133,0.583-0.274,0.88-0.409c6.051-2.808,12.298-5.201,16.949-7.016c4.661-1.796,7.716-3.067,7.716-3.067l-8.177,1.388
		c-4.506,0.74-10.456,1.705-16.6,3.055c4.912-3.143,8.054-5.258,8.061-5.242c0-0.017-3.847,1.766-9.743,4.339
		c0.112-0.229,0.188-0.368,0.193-0.359c-0.006-0.019-0.149,0.163-0.413,0.447c-1.931,0.85-4.104,1.78-6.424,2.755
		c0.736-1.027,1.411-2.05,1.993-3.056c2.457-1.173,4.061-1.717,4.051-1.733c0.011,0.016-1.291,0.15-3.437,0.607
		c0.175-0.325,0.358-0.653,0.514-0.969c0.364-0.743,0.681-1.44,0.965-2.121c0.615-0.609,1.253-1.241,1.794-1.819
		c3.255-3.449,4.922-6.065,4.938-6.05c-0.007-0.021-2.013,1.917-5.453,4.301c0.493-1.693,0.65-2.725,0.685-2.708
		c-0.034-0.021-0.508,1.325-1.67,3.368c-3.789,2.554-9.017,5.383-14.553,7.871c-1.185,0.525-2.388,1.051-3.58,1.551
		c8.037-6.621,14.197-12.022,14.223-11.989c-0.012-0.057-12.438,7.157-25.425,13.927c-0.734,0.389-1.463,0.745-2.192,1.127
		c1.521-1.726,3.134-3.421,4.924-4.93c4.188-3.607,9.351-6.032,13.414-7.383c4.062-1.39,6.915-1.913,6.893-1.944
		c0,0.041-2.864-0.15-7.259,0.243c-2.95,0.234-6.679,0.9-10.529,2.165c0.846-0.646,1.685-1.299,2.538-1.942
		c12.428-9.212,24.866-17.896,24.802-17.971c0.022,0.106-13.687,6.292-27.736,13.236c-5.341,2.669-10.675,5.573-15.276,8.331
		c1.23-1.76,2.58-3.564,4.016-5.301c3.026-3.712,6.405-7.05,9.25-9.196c2.839-2.165,5.102-3.067,5.077-3.093
		c0.027,0.035-2.412,0.238-5.908,1.572c-3.036,1.125-6.795,3.107-10.482,5.51c0.424-0.612,0.835-1.225,1.192-1.821
		c2.141-3.564,3.197-6.495,3.687-8.042c0.141-0.114,0.316-0.249,0.446-0.368c3.396-2.818,5.498-4.801,5.506-4.801
		c-0.008,0-2.525,1.428-6.454,3.343c-0.351,0.174-0.782,0.374-1.163,0.56c2.281-3.394,3.979-6.788,5.042-9.781
		c2.179-5.938,2.5-10.052,2.577-10.032c-0.057-0.034-1.115,4.001-4.142,9.295c-2.998,5.295-8.404,11.458-15.22,15.684
		c-0.687,0.443-1.409,0.778-2.106,1.175c-2.983,1.349-5.951,2.745-8.751,4.138c-1.021,0.374-2.013,0.672-3.007,1
		c0.002-0.013,0.006-0.013,0.006-0.013c1.368-1.881,2.295-3.539,2.889-4.724c5.755-2.779,10.473-4.28,10.443-4.285
		c0.012,0.031-3.902,0.171-9.358,1.089c0-0.017,0.005-0.031,0.016-0.038c1.26-3.464,1.341-5.833,1.383-5.822
		c-0.031-0.026-0.843,2.243-2.913,4.989c-0.334,0.447-0.753,0.904-1.158,1.359c-1.598,0.321-3.282,0.705-5.015,1.168
		c0.501-0.605,1.034-1.184,1.524-1.805c8.205-10.28,13.074-21.671,13.134-21.623c-0.012-0.071-7.462,10.005-17.105,17.722
		c-2.226,1.805-4.555,3.451-6.832,4.91c-0.223-0.716-0.451-1.422-0.696-2.042c-0.277-0.701-0.551-1.312-0.817-1.861
		c1.934-2.341,3.973-4.736,6.091-7.081c10.313-11.336,21.034-21.929,20.949-21.989c0.037,0.075-8.993,6.185-19.349,13.863
		c-0.19,0.084-0.355,0.166-0.549,0.268c-1.195,0.596-2.501,1.349-3.849,2.18c0.624-1.321,1.238-2.643,1.802-3.977
		c2.956-6.904,5.334-13.794,7.103-18.93l2.912-8.524l-4.497,7.806c-2.71,4.692-6.347,10.964-10.407,16.991
		c-2.066,3.077-4.267,6.041-6.45,8.728c-0.869,0.172-2.522,0.568-4.625,1.387c-3.122,1.175-7.184,3.105-11.116,5.561
		c-0.014,0.005-0.032,0.022-0.044,0.03c0.175-2.814,0.205-5.679-0.058-8.495c-0.652-7.58-2.842-14.683-5.18-19.568
		c-2.308-4.93-4.622-7.641-4.574-7.66c-0.048,0.009,1.682,3.136,2.934,8.241c1.299,5.067,1.992,12.089,1.242,18.976
		c-0.122,1.281-0.32,2.55-0.542,3.799c-0.12-9.79-1.369-17.474-1.249-17.486c-0.124-0.072-0.935,12.67-4.433,24.725
		c-0.907,3.139-2.062,6.16-3.358,8.824c-0.085-0.006-0.172-0.006-0.251-0.014c-0.327-0.687-0.659-1.361-1.01-2.026
		c-0.485-0.929-0.991-1.824-1.498-2.693c-0.008-0.172-0.026-0.344-0.033-0.508c2.303-2.284,4.126-4.723,5.179-6.929
		c1.824-3.677,2.165-6.285,2.222-6.272c-0.035-0.038-1.115,2.437-3.663,5.289c-1.098,1.259-2.566,2.468-4.207,3.589
		c-0.36-1.98-0.923-3.934-1.744-5.808c-1.554-3.767-3.935-6.85-6.498-9.269c2.008-7.3,3.315-12.894,3.38-12.888
		c-0.046-0.05-2.319,4.349-5.542,10.155c-1.869-2.299-3.878-4.339-5.902-6.063c1.1-3.255,2.39-6.182,3.83-8.5
		c2.635-4.375,5.277-6.7,5.227-6.73c0.046,0.049-2.99,1.758-6.613,5.688c-1.813,1.904-3.63,4.416-5.333,7.265
		c-1.03-0.753-2.055-1.427-3.019-1.993c-4.701-2.796-8.136-3.752-8.101-3.801c-0.042,0.034,3.161,1.68,7.067,5.194
		c0.92,0.816,1.863,1.762,2.801,2.784c-0.249,0.462-0.481,0.921-0.729,1.387c-1.245-0.418-1.992-0.594-1.985-0.612
		c-0.013,0.017,0.678,0.347,1.791,0.991c-0.941,1.84-1.835,3.751-2.641,5.704c-1.761,4.198-3.332,8.372-4.828,12.138
		c-1.11,1.703-2.301,3.556-3.521,5.455c-0.635,1.018-1.266,2.045-1.862,3.081c0.184-2.265,0.307-4.555,0.262-6.848
		c-0.062-7.944-1.805-15.709-4.449-20.832c-0.212-0.438-0.435-0.827-0.65-1.218c1.822-4.02,3.187-6.423,3.165-6.429
		c0.022,0.005-1.527,1.961-3.779,5.35c-0.409-0.674-0.809-1.268-1.193-1.818c1.669-7.657,3.409-13.093,3.387-13.075
		c0.024,0-2.335,4.313-5.165,10.841c-0.743-0.842-1.236-1.283-1.202-1.296c-0.034,0.006,0.417,0.606,1.046,1.672
		c-2.055,4.773-4.333,10.673-6.11,16.934c-0.414,1.428-0.769,2.887-1.123,4.348c-1.576,2.768-3.216,5.607-4.928,8.402
		c-0.443,0.722-0.924,1.403-1.38,2.106c-0.007-0.006-0.007-0.006-0.016-0.013c-0.012-0.403-0.06-0.793-0.064-1.199
		c-0.127-5.526,0.475-11.073,1.296-15.16c0.799-4.104,1.749-6.737,1.725-6.751c0.024,0.013-1.554,2.324-3.376,6.197
		c-1.433,3.008-2.974,6.972-4.199,11.311c-1.449-2.177-2.574-4.485-3.095-6.838c-0.645-2.812-0.451-5.63,0.165-7.966
		c1.278-4.713,3.442-7.459,3.344-7.478c0.091,0.065-2.566,2.193-4.978,6.874c-1.169,2.33-2.096,5.445-2.038,8.943
		c0.038,3.501,1.098,7.19,2.656,10.534c0.657,1.378,1.399,2.689,2.152,3.977c-0.409,2.549-0.627,5.086-0.725,7.519
		c-0.753,0.93-1.511,1.853-2.261,2.746c-0.346,0.084-0.695,0.191-1.039,0.282c-0.026-0.041-0.044-0.069-0.07-0.116
		c-0.37-0.652-0.821-1.35-1.233-2.042c0.775-2.149,1.193-4.248,1.178-6.026c0.063-4.025-0.873-6.422-0.803-6.435
		c-0.061-0.021,0.148,2.619-0.913,6.16c-0.288,1.028-0.775,2.067-1.357,3.119c-0.915-3.03-1.888-5.864-2.839-8.485
		c0.144-1.728,0.346-3.374,0.665-4.785c0.821-3.908,2.087-6.337,2.056-6.343c0.037,0.012-1.819,2.019-3.692,5.767
		c-0.189,0.369-0.372,0.831-0.562,1.234c-0.156-0.425-0.342-0.904-0.493-1.312l-3.205-8.075l1.527,8.55
		c0.236,1.362,0.481,2.866,0.73,4.448c-0.115,0.338-0.243,0.669-0.349,1.012c-0.398-0.478-0.78-0.978-1.181-1.442
		c-4.859-5.761-10.101-10.79-13.56-13.929c0.463-2.618,0.921-4.204,0.904-4.204c0.017,0.008-0.688,1.302-1.621,3.557
		c-1.938-1.746-3.162-2.756-3.156-2.765c-0.006-0.007,1.077,1.443,2.727,3.824c-0.35,0.899-0.721,1.905-1.099,3.023
		c-0.218,0.66-0.439,1.357-0.653,2.091c-0.638-3.583-1.093-6.938-1.339-9.827c-0.507-5.655-0.41-9.452-0.435-9.452
		c0.025,0-0.766,3.702-1.308,9.452c-0.558,5.744-0.653,13.564-0.104,21.443c0.042,0.575,0.097,1.15,0.135,1.712
		c-2.244-0.831-4.385-1.558-6.322-2.147c-0.395-0.127-0.75-0.23-1.13-0.333c-0.261-2.646-0.457-5.448-0.513-8.263
		c-0.393-10.606,1.303-21.081,1.288-21.076c0.028,0-4.373,9.621-6.83,20.494c-0.567,2.324-1.023,4.677-1.414,6.963
		c-1.322-0.269-2.106-0.39-2.101-0.404c-0.007,0.014,0.761,0.263,2.049,0.747c-0.136,0.843-0.269,1.672-0.391,2.487
		c-0.868-0.494-1.725-0.961-2.578-1.428c-1.087-1.703-2.217-3.399-3.404-5.044c-1.847-2.651-3.769-5.173-5.67-7.541
		c0.41-1.528,0.865-2.996,1.373-4.254c1.563-3.977,3.096-6.432,3.056-6.451c0.034,0.025-2.034,2.02-4.592,5.62
		c-0.578,0.81-1.178,1.728-1.768,2.724c-1.881-2.239-3.711-4.307-5.348-6c-3.822-3.996-6.61-6.304-6.594-6.319
		c-0.022,0.017,2.278,2.819,5.225,7.395c1.539,2.362,3.229,5.22,4.909,8.34c-0.297,0.634-0.579,1.285-0.846,1.962l-2.129-2.577
		l1.798,3.43c-0.19,0.508-0.362,1.034-0.534,1.559c-0.306-0.141-0.469-0.212-0.469-0.219c-0.006,0.007,0.15,0.129,0.429,0.353
		c-0.469,1.534-0.853,3.143-1.083,4.827c-0.197,1.303-0.289,2.621-0.326,3.927c-1.109-1.531-2.274-3.089-3.501-4.571
		c-6.075-7.446-13.044-13.275-13.021-13.284c-0.02-0.007,3.271,5.22,6.327,11.767c-0.044,1.309-0.064,4.736,0.175,8.781
		c-1.573-0.934-2.536-1.436-2.531-1.456c-0.005,0.013,0.58,0.478,1.535,1.315c-0.982-0.346-1.535-0.512-1.535-0.512
		s0.933,0.457,2.48,1.356c0.035,0.034,0.066,0.056,0.094,0.09c0.07,1.005,0.153,2.049,0.266,3.088
		c0.177,1.828,0.351,3.634,0.521,5.329c-3.414-4.235-7.022-7.849-10.137-10.448c-4.204-3.564-7.549-5.012-7.544-4.989
		c0.008-0.022,2.984,2.042,6.311,6.217c2.454,3.008,5.173,7.062,7.559,11.554c-1.032-0.599-2.015-1.149-2.931-1.629
		c-0.26-0.141-0.507-0.26-0.759-0.394c-1.574-1.509-3.13-2.83-4.579-3.908c-4.158-3.156-7.215-4.646-7.197-4.683
		c-0.026,0.031,2.676,2.132,6.017,5.953c3.375,3.793,6.989,9.441,9.714,15.656c0.936,2.096,1.812,4.236,2.673,6.37
		c-0.191,0.283-0.369,0.559-0.55,0.855c-1.941-1.8-3.932-3.577-5.956-5.288c-13.904-11.778-28.638-21.107-28.599-21.15
		c-0.062,0.021,13.07,11.664,24.688,25.107c1.49,1.727,2.954,3.486,4.354,5.243c-0.253-0.065-0.399-0.107-0.399-0.117
		c-0.007,0,0.224,0.144,0.607,0.391c0.566,0.717,1.129,1.431,1.668,2.133c-0.698,1.322-1.353,2.637-1.955,3.911
		c-0.391-0.275-0.778-0.569-1.168-0.847c-0.45-1.084-0.958-2.177-1.526-3.237c-2.247-4.37-5.818-7.696-8.667-9.41
		c-2.845-1.784-4.891-2.45-4.873-2.49c-0.031,0.024,1.725,1.353,3.723,3.799c1.101,1.302,2.148,2.979,2.996,4.845
		c-5.356-5.045-10.729-9.747-14.954-13.123c-4.557-3.64-7.693-5.844-7.678-5.861c-0.016,0.016,2.677,2.752,6.473,7.11
		c1.599,1.843,3.402,4.03,5.273,6.354c-2.824-1.497-4.595-2.315-4.581-2.326c-0.021,0.011,2.829,1.974,6.943,5.319
		c1.853,2.366,3.739,4.842,5.604,7.391c0.615,0.846,1.231,1.693,1.837,2.542c-5.034-3.711-10.825-7.494-16.856-10.679
		c-17.714-9.605-36.6-13.261-36.523-13.323c-0.086,0.022,18.129,6.52,33.567,18.046c7.546,5.394,14.22,11.843,19.291,17.265
		c-5.006-2.649-9.125-4.182-9.1-4.279c-0.107,0.047,5.47,5.129,9.77,10.918c0.207,0.286,0.381,0.581,0.582,0.865
		c-0.062,0.403-0.161,0.794-0.243,1.193c-0.191,0.184-0.378,0.378-0.572,0.56c-0.722-0.478-1.431-0.895-2.093-1.234
		c-2.989-1.484-5.063-1.931-5.054-1.959c-0.016,0.006,0.866,0.576,2.086,1.603c-1.54-0.403-3.086-0.699-4.623-0.934
		c-2.172-1.111-4.238-2.127-6.124-3.001c-6.651-4.723-13.654-6.457-13.618-6.426c0-0.069,5.143,3.523,9.204,8.836
		c-10.188,0.201-17.977,2.378-17.952,2.309c-0.097,0.032,10.037-0.478,20.804,2.057c1.293,2.283,2.227,4.552,2.768,6.503
		c0.01,0.591,0.096,1.193,0.305,1.784c0.055,0.172,0.152,0.305,0.214,0.472c0.216,1.268,0.278,2.259,0.31,2.83
		c-0.56-0.219-1.134-0.432-1.723-0.623c-3.101-1.011-6.649-1.681-10.331-2.108c-0.221-0.062-0.436-0.148-0.658-0.206
		c-6.394-1.763-12.863-2.204-17.583-1.788c-4.729,0.378-7.635,1.468-7.635,1.422c-0.005,0.043,3.085-0.344,7.586,0.322
		c0.104,0.019,0.233,0.056,0.34,0.072c-1.812,0.164-3.543,0.375-5.039,0.641c-4.336,0.709-6.913,2.106-6.866,2.152
		c-0.016-0.065,2.749-0.768,6.959-0.409c4.199,0.274,9.79,1.245,15.234,2.77c0.101,0.031,0.195,0.062,0.297,0.09
		c-1.321-0.115-2.649-0.2-3.961-0.219c-0.87-0.006-1.717,0.046-2.573,0.074c-0.524-0.096-1.053-0.229-1.578-0.318
		c-14.25-2.475-27.904-1.917-27.901-1.994c-0.044,0.044,7.841,1.4,17.258,4.227c-0.202,0.064-0.454,0.108-0.646,0.181
		c-4.001,1.252-6.269,2.789-6.273,2.745c0.004,0.043,2.596-0.856,6.592-1.034c1.964-0.119,4.277-0.053,6.712,0.21
		c0.926,0.331,1.85,0.669,2.765,1.024c5.988,2.315,11.633,5.314,15.448,8.291c-0.812-0.269-2.965-0.928-6.026-1.656
		c-0.957-0.447-1.934-0.851-2.937-1.25c0.291-0.999,0.516-1.611,0.521-1.611c0-0.009-0.457,0.502-1.106,1.373
		c-1.958-0.76-3.952-1.465-5.963-2.048c-1.124-0.331-2.236-0.6-3.348-0.875c0.49-1.496,0.856-2.433,0.867-2.426
		c-0.002-0.014-0.82,0.795-2.018,2.127c-4.442-1.028-8.653-1.64-12.023-1.933c-4.492-0.41-7.447-0.188-7.444-0.197
		c-0.002,0,2.917,0.487,7.094,1.903c1.84,0.607,3.93,1.409,6.122,2.333c-0.867,0-1.733,0.019-2.608,0.05
		c-6.91,0.213-13.589,1.943-18.029,4.143c-4.487,2.168-6.867,4.355-6.895,4.31c0.005,0.051,2.853-1.57,7.472-2.667
		c4.611-1.131,10.933-1.36,17.118-0.215c0.975,0.161,1.934,0.362,2.89,0.585c-0.069,0.109-0.148,0.212-0.216,0.329
		c-1.137,1.79-2.18,3.69-3.063,5.541c-5.706,0.685-10.981,1.859-15.051,3.286c-5.829,1.975-9.146,4.309-9.146,4.277
		c-0.003,0.03,3.677-1.681,9.572-2.589c2.23-0.369,4.773-0.61,7.503-0.709c-1.717,0.904-3.367,1.899-4.926,2.965
		c-10.661,0.133-18.53,1.077-18.515,1.134c-0.012-0.057,5.893,0.213,14.16,1.265c-0.25,0.05-0.512,0.088-0.763,0.134
		c-7.725,1.403-15.183,3.111-20.775,4.22c-5.575,1.163-9.317,1.563-9.324,1.537c-0.006,0.025,3.777,0.323,9.511,0.2
		c4.661-0.072,10.595-0.294,16.791-0.377c-0.556,0.724-1.074,1.443-1.506,2.164c-1.765,2.853-2.552,5.319-2.927,6.997
		c-0.958,0.25-1.89,0.505-2.73,0.759c-3.933,1.18-6.404,2.214-6.411,2.2c0,0.019,2.668-0.34,6.699-0.488
		c3.554-0.128,8.184,0.032,12.897,0.542c-3.955,1.804-7.636,3.664-10.751,5.369c-1.043,0.11-2.072,0.217-2.996,0.344
		c-0.831,0.116-1.581,0.234-2.296,0.354c-1.924-0.763-3.765-1.477-5.433-2.103c-5.944-2.293-10.052-3.274-10.058-3.221
		c0.024-0.044,3.874,1.586,9.314,4.797c0.688,0.391,1.468,0.866,2.2,1.29c-0.756,0.178-1.168,0.288-1.173,0.275
		c0,0.013,0.613-0.007,1.662,0.013c0.424,0.249,0.824,0.478,1.269,0.74c-12.348,2.536-23.859,6.216-32.288,10.268
		c-10.279,4.842-15.955,9.751-15.987,9.662c0.024,0.082,6.16-4.267,16.656-8.059c10.071-3.734,24.087-6.577,38.559-7.666
		c2.181,1.333,4.429,2.714,6.728,4.121c-1.655,0.924-3.313,1.877-4.937,2.874c-5.251,3.19-10.182,6.596-13.792,9.188
		c-7.998,2.108-15.35,4.475-21.223,6.978c-4.729,1.993-8.472,4.102-10.814,5.941c-2.368,1.84-3.217,3.354-3.225,3.33
		c0.002,0.025,1-1.389,3.499-2.936c2.461-1.561,6.322-3.233,11.133-4.698c1.705-0.528,3.561-1.028,5.488-1.509
		c-0.677,0.73-1.008,1.215-1.03,1.184c0.008,0.049,0.793-0.666,2.251-1.495c2.88-0.689,5.951-1.331,9.18-1.93
		c-1.203,0.644-1.886,1.029-1.883,1.037c-0.006-0.019,1.687-0.527,4.461-1.303c2.417,0.195,4.953,0.641,7.472,1.357
		c4.142,1.133,8.259,2.697,11.936,4.145c-0.1,0.075-0.207,0.17-0.306,0.242c-0.012,0-0.027,0-0.037,0
		c-15.644,0.817-30.641,3.666-41.746,5.934l-18.377,3.942l18.648-2.227c4.669-0.515,10.033-1.048,15.775-1.478
		c-1.562,0.816-2.949,1.722-4.085,2.665c-4.137,3.481-5.607,6.685-5.673,6.61c0.031,0.087,2.211-2.777,6.637-5.166
		c2.203-1.169,4.963-2.078,8.003-2.381c3.045-0.333,6.341-0.091,9.662,0.466c0.487,0.075,0.975,0.205,1.462,0.297
		c-1.715,1.697-2.721,2.789-2.688,2.812c-0.034-0.035,1.611-1.049,4.268-2.483c1.696,0.349,3.387,0.729,5.054,1.157
		c-4.249,1.592-9.195,3.846-13.897,6.348c-10.224,5.415-19.271,11.721-19.295,11.689c0,0.013,0.596-0.208,1.619-0.565
		c-3.103,2.229-4.798,3.753-4.798,3.742c0,0.01,3.717-2.549,9.983-5.485c2.53-0.824,5.58-1.775,8.853-2.69
		c-7.516,5.098-14.301,10.206-16.899,12.139c-6.636,3.28-11.445,5.667-11.489,5.586c0.031,0.139,14.326-3.546,28.163-7.047
		c-7.916,4.498-16.218,7.856-16.225,7.84c0,0.01,0.538-0.034,1.475-0.119c-2.062,0.857-3.973,1.744-5.623,2.64
		c-5.441,2.918-8.559,5.485-8.584,5.436c0.013,0.05,3.555-1.942,9.266-3.825c2.98-1.009,6.566-1.871,10.455-2.499
		c-0.221,0.158-0.447,0.312-0.668,0.464c-8.394,5.895-15.859,12.242-15.869,12.237c-0.004,0.015,7.457-3.315,15.903-6.388
		c-1.037,1.449-1.574,2.417-1.581,2.409c0.007,0.015,1.577-1.451,4.267-3.087c0.371-0.234,0.818-0.461,1.231-0.696
		c3.126-1.069,6.234-2.023,8.984-2.742c-1.459,1.119-2.927,2.305-4.385,3.542c-0.344,0.2-0.652,0.385-1.024,0.603l-11.277,6.41
		c-1.674,0.969-3.302,1.944-4.868,2.924c-0.434,0.255-0.867,0.521-1.311,0.796c-4.86,2.984-10.796,7.052-16.43,11.287
		c-11.325,8.401-21.341,17.549-21.33,17.556c-0.012-0.016,11.677-6.921,24.209-12.8c6.247-2.962,12.67-5.709,17.723-7.627
		c5.05-1.928,8.704-3.042,9.434-3.339c1.087-0.448,1.986-1.171,2.637-2.062c0.481-0.097,0.969-0.196,1.443-0.291
		c-0.524,0.491-1.043,0.978-1.568,1.497c-0.213,0.167-0.421,0.317-0.625,0.475c-18.583,9.203-33.386,21.808-33.362,21.76
		c-0.03,0.023,7.872-4.983,19.04-10.194c-2.22,1.232-4.311,2.447-6.201,3.608c-8.1,4.91-12.844,8.978-12.839,8.967
		c-0.005,0,5.157-3.498,13.661-7.438c0.084-0.037,0.19-0.083,0.278-0.125c-9.968,6.579-17.925,13.145-17.925,13.136
		c-0.006,0,11.196-5.816,23.515-10.437c-0.293,0.566-0.449,0.883-0.437,0.883c-0.012-0.008,0.381-0.43,1.09-1.137
		c0.159-0.056,0.306-0.115,0.462-0.175c3.096-1.148,6.223-2.214,9.226-3.165c-5.055,4.365-10.772,7.672-10.772,7.658
		c-0.012,0.005,1.181-0.135,3.025-0.439c-1.675,0.934-3.353,1.944-4.974,3.04c-4.792,3.131-9.089,6.839-11.751,10.042
		c-2.724,3.177-3.786,5.694-3.815,5.665c0.028,0.029,1.712-2.116,4.995-4.377c1.838-1.309,4.195-2.611,6.797-3.814
		c-0.98,1.356-1.892,2.723-2.765,4.064c-1.596,1.109-2.658,1.738-2.655,1.738c-0.003,0,0.678-0.129,1.809-0.394
		c-1.545,2.494-2.895,4.882-3.904,6.913c-1.561,3.094-2.374,5.367-2.599,6.011c-1.337,1.368-2.487,2.636-3.443,3.721
		c-5.172,3.886-9.749,7.83-13.175,11.541c-6.263,6.622-8.877,12.056-8.921,11.989c0.039,0.06,3.293-5.023,10.121-10.729
		c3.204-2.747,7.228-5.565,11.713-8.295c-0.695,0.451-1.136,0.731-1.142,0.725c0,0.025,2.155-0.575,5.428-1.533
		c-0.135,0.204-0.281,0.395-0.41,0.6c-2.84,4.549-4.841,9.465-5.588,13.623c-0.363,0.148-0.756,0.326-1.107,0.465
		c-3.679,1.424-6.296,1.941-6.285,1.965c-0.007-0.021,2.643,0.155,6.694-0.274c0.109-0.016,0.244-0.04,0.36-0.055
		c-0.109,1.209-0.079,2.27,0.025,3.182c-1.194,1.056-2.346,2.105-3.399,3.109c-3.357,3.187-5.973,6.007-7.65,8.101
		c-1.688,2.083-2.39,3.45-2.399,3.444c0.009,0,0.858-1.269,2.752-3.133c1.88-1.867,4.766-4.329,8.421-7.085
		c0.868-0.659,1.793-1.333,2.749-2.017c0.221,0.719,0.419,1.104,0.407,1.091c0.006,0.014-0.102-0.471-0.132-1.297
		c2.099-1.507,4.385-3.065,6.811-4.65c-1.462,3.389-2.456,6.704-2.936,9.387c-0.598,3.11-0.572,5.314-0.559,5.928
		c-3.799,3.016-6.988,6.361-9.037,9.236c-2.549,3.508-3.667,6.084-3.699,6.061c0.025,0.033,1.774-2.2,4.976-4.883
		c2.515-2.131,6.013-4.361,9.911-6.181c-0.949,0.897-1.905,1.803-2.849,2.713c-5.863,5.675-11.579,11.219-16.136,15.046
		c-4.526,3.856-7.85,6.014-7.834,6.045c-0.019-0.026,3.636-1.568,8.84-4.625c5.215-3.02,11.922-7.563,18.642-12.13
		c1.824-1.248,3.655-2.468,5.467-3.658c-0.466,0.543-0.932,1.094-1.397,1.633c-4.752,5.673-9.453,11.108-13.428,14.738
		c-3.936,3.68-7.003,5.598-6.991,5.623c-0.02-0.024,3.365-1.303,8.044-4.228c0.871-0.537,1.822-1.18,2.758-1.821
		c-1.415,2.747-2.031,4.481-2.049,4.468c0.019,0.016,1.259-2.337,3.856-5.712c3.683-2.626,7.711-5.814,11.707-9.089
		c3.577-2.921,7.146-5.718,10.515-8.111c-1.244,1.333-2.212,2.216-2.206,2.216c0-0.006,1.35-0.056,3.289-0.305
		c-0.19,0.236-0.377,0.466-0.568,0.704c-2.19,2.078-4.326,4.264-6.354,6.499c-7.15,7.855-13.155,16.351-17.046,23.014
		c-3.93,6.653-5.58,11.474-5.573,11.463c-0.006,0,2.292-4.525,7.012-10.479c2.28-2.915,5.108-6.18,8.3-9.513
		c-3.48,6.819-5.991,13.539-7.147,19.32c-2.023,9.478-0.915,15.821-1.011,15.793c0.081,0.04-0.282-6.409,2.691-15.341
		c1.787-5.603,5.018-11.958,9.215-18.273c2.324-1.769,6.062-4.582,9.918-7.374c1.19-0.883,2.377-1.721,3.553-2.528
		c-1.397,3.417-3.067,7.818-4.524,12.172l-3.245,9.624c-1.606,2.97-2.996,5.824-4.076,8.461c-3.666,8.733-4.711,14.877-4.77,14.847
		c0.049,0.037,1.802-5.971,6.332-14.083c3.217-5.858,8.062-12.649,13.982-19.095c-0.15,0.261-0.281,0.537-0.363,0.816
		c-0.149,0.543-0.524,3.297-2.1,7.196c-1.518,3.905-4.35,8.822-7.675,13.488c-3.301,4.68-6.97,9.127-9.674,12.466l-4.477,5.582
		l5.676-4.329c3.437-2.595,8.077-6.047,12.598-9.978c2.196-1.9,4.338-3.945,6.307-6.038c-0.485,1.975-0.972,4.055-1.404,6.144
		c-1.739,7.99-2.501,15.801-2.495,15.785c-0.006,0,1.611-3.27,3.957-7.449c-0.497,1.447-0.89,2.781-1.196,3.969
		c-1.275,2.617-2.365,5.146-3.195,7.517c-3.213,8.864-3.476,15.1-3.546,15.069c0.06,0.036,1.05-6.14,5.146-14.386
		c2.114-4.365,5.188-9.196,8.927-14.038c-1.312,4.26-3.037,9.356-4.845,14.473c-4.148,11.405-7.707,22.698-7.635,22.698
		c-0.052-0.054,5.904-9.935,12.493-20.031c-3.052,6.562-4.588,12.085-4.536,12.067c-0.061-0.027,4.595-7.337,11.039-13.721
		c-0.159,1.232-0.385,2.714-0.722,4.398c-0.842,4.331-2.483,9.895-4.728,15.218c-2.231,5.322-5.045,10.356-7.517,13.896
		c-2.446,3.57-4.464,5.66-4.445,5.676c-0.022-0.021,2.438-1.553,5.75-4.521c3.324-2.932,7.42-7.328,11.037-12.288
		c0.106-0.142,0.203-0.294,0.302-0.435c-0.255,1.331-0.374,2.128-0.38,2.121c0.012,0.007,1.055-2.448,3.005-5.909
		c0.168-0.306,0.382-0.641,0.568-0.962c0.399-0.633,0.793-1.268,1.17-1.909c0.014,0.523,0.029,0.821,0.029,0.816
		c-0.007,0.005,0.118-0.54,0.371-1.476c0.073-0.112,0.131-0.237,0.203-0.36c0.466-0.739,0.938-1.481,1.456-2.259
		c0.269-0.333,0.549-0.669,0.85-1.001c-1.524,3.878-2.774,7.588-3.589,10.648c-0.424,1.555-0.74,2.921-0.983,4.092
		c-2.03,4.802-3.599,9.472-4.602,13.748c-0.512,2.175-0.878,4.22-1.171,6.151c-0.287,0.411-0.495,0.692-0.488,0.702
		c-0.006-0.009,0.159-0.124,0.434-0.347c-1.428,9.948-0.308,16.311-0.434,16.259c0.119,0.065-0.562-7.042,1.994-17.51
		c0.25-0.214,0.512-0.441,0.794-0.691c-0.407,3.388-0.364,5.471-0.4,5.466c0.037,0.02,0.425-2.668,1.724-6.698
		c0.157-0.147,0.3-0.281,0.463-0.448c1.443-1.396,3.043-3.19,4.68-5.169c-0.461,2.155-0.828,4.291-1.155,6.39
		c-1.043,0.76-1.744,1.138-1.731,1.151c-0.012-0.026,0.606-0.137,1.637-0.467c-0.698,4.728-1.111,9.189-1.217,12.812
		c-0.204,5.541,0.368,9.142,0.375,9.139c-0.017,0,0.13-3.636,1.35-8.918c0.983-4.362,2.632-9.872,4.762-15.431
		c2.928-1.678,6.238-4.242,9.178-7.389c1.206-1.28,2.313-2.651,3.367-4.032c-0.741,2.493-1.628,5.231-2.63,7.946
		c-3.062,8.476-6.513,16.671-6.475,16.671c-0.022-0.027,5.754-6.681,11.361-14.011c1.903-2.414,3.687-4.967,5.271-7.353
		c-0.241,1.948-0.638,4.74-1.268,7.792c-0.616,1.069-1.25,2.127-1.856,3.195L83.27,514.018c-2.964,5.187-5.104,8.514-5.094,8.525
		c-0.01-0.012,2.68-2.91,6.525-7.53l6.787-8.361c-0.356,0.953-0.583,1.562-0.581,1.562c-0.022-0.012,4.833-4.846,9.183-10.65
		c0.118-0.159,0.231-0.325,0.349-0.469l-3.026,9.566c-1.715,5.251-3.733,10.274-5.577,13.917c-1.818,3.652-3.336,5.93-3.321,5.936
		c-0.012-0.016,2.024-1.811,4.768-4.962c2.755-3.125,6.106-7.681,9.151-12.493c2.174-3.414,4.243-6.864,6.096-9.928
		c-0.788,4.107-0.932,7.51-0.923,7.497c-0.009-0.008,1.444-2.127,3.552-4.598c-0.06,0.476-0.112,0.959-0.178,1.442
		c-4.189,5.95-8.018,11.759-10.758,16.434c-0.469,0.792-0.902,1.541-1.311,2.268c-3.818,2.786-7.395,5.373-10.405,7.446
		c-5.148,3.579-8.753,5.642-8.748,5.653c-0.005-0.012,3.899-1.449,9.609-4.146c1.924-0.895,4.089-1.954,6.344-3.069
		c-0.54,1.055-0.831,1.646-0.837,1.64c0.006,0.007,0.509-0.714,1.399-1.914c2.974-1.475,6.123-3.052,9.397-4.702
		c-1.134,2.575-2.062,4.221-2.046,4.233c-0.016-0.021,1.637-1.501,3.872-4.093c0.47-0.537,0.966-1.147,1.463-1.78
		c0.133-0.063,0.257-0.123,0.387-0.195c-1.758,6.26-2.721,12.363-3.076,17.116c-0.447,5.82-0.225,9.636-0.257,9.636
		c0.024,0.019,0.506-3.8,1.974-9.336c1.079-4.139,2.818-9.184,5.151-14.253c0.2,6.579,0.794,11.29,0.828,11.608
		c-0.971,2.578-2.011,4.952-3.008,6.891c-1.841,3.625-3.374,5.88-3.354,5.891c-0.015-0.019,1.908-1.704,4.545-4.63
		c-2.756,6.468-4.498,11.009-4.545,10.995c0.052,0.06,7.902-12.704,16.949-24.933c0.969-1.297,1.956-2.583,2.946-3.854
		c-0.216,1.105-0.463,2.215-0.75,3.326c-1.821,7.482-5.595,14.336-5.617,14.329c-0.012,0.029,5.992-5.033,10.658-11.97
		c2.364-3.413,4.442-7.188,5.811-10.326c0.458-1.053,0.837-2.02,1.159-2.864c0.466,0.358,0.929,0.732,1.392,1.086
		c-0.042,0.09-0.094,0.16-0.141,0.245c-0.497,1.037-2.838,6.854-6.027,14.516c-1.308,1.577-2.546,3.117-3.654,4.554
		c-5.41,6.959-8.359,11.943-8.406,11.914c0.041,0.031,3.545-4.516,9.638-10.671c-1.712,4.052-3.565,8.355-5.448,12.623
		c-6.654,15.274-13.748,29.863-13.732,29.873c-0.015-0.01,9.471-13.164,18.621-27.224c4.892-7.4,9.672-15.04,13.232-20.87
		c-0.152,1.303-0.274,2.51-0.377,3.614c-1.519,2.684-3.04,5.467-4.493,8.262c-7.5,14.09-13.454,28.272-13.458,28.267
		c0,0,8.429-12.878,18.137-25.251c0.578-0.741,1.156-1.479,1.737-2.222c-1.91,4.271-4.162,9.104-6.582,13.746
		c-3.152,6.012-6.791,11.646-9.984,15.533c-3.158,3.921-5.723,6.133-5.7,6.145c-0.016-0.023,2.942-1.646,6.935-4.92
		c4.014-3.235,8.922-8.2,13.385-13.668c5.759-7.1,10.989-14.666,14.207-19.491l-0.172,2.786c-0.12,2.41-0.164,4.773-0.135,6.96
		c-1.662,3.468-3.146,6.058-3.183,6.058c0,0.018,0.566-0.326,1.434-0.902c-3.021,6.508-6.202,12.05-6.21,12.045
		c-0.002,0.011,4.104-3.463,8.738-8.094c0.009,0.088,0.015,0.135,0.015,0.135s0.019-0.066,0.04-0.187
		c1.044-1.048,2.103-2.128,3.166-3.262c0.349-0.375,0.696-0.749,1.045-1.135c-0.491,1.549-0.952,3.131-1.362,4.706
		c-1.598,6.084-2.486,12.091-3,16.811c-0.134,0.171-0.281,0.374-0.416,0.543c-2.856,3.511-5.061,5.583-5.045,5.603
		c-0.012-0.02,2.118-1.255,5.212-3.56c-0.356,4.102-0.408,6.751-0.439,6.743c0.024,0.026,0.853-3.407,2.465-8.337
		c3.495-2.786,7.649-6.663,11.561-10.922c3.847-4.167,7.48-8.488,10.499-12.021c0.057,2.076,0.147,3.435,0.143,3.435
		c0.003,0.01,2.262-4.797,5.037-9.446c0.821-0.94,1.389-1.602,1.657-1.934c0.042,0.86,0.081,1.736,0.147,2.596
		c0.013,0.19,0.028,0.382,0.04,0.583c-1.856,2.21-4.034,4.876-6.132,7.609c-4.811,6.147-8.719,12.534-8.704,12.534
		c-0.005-0.017,5.958-4.496,12.443-8.404c0.795-0.486,1.598-0.977,2.401-1.454c-0.467,2.97-0.462,5.795,0.202,8.139
		c0.407,1.486,0.973,2.647,1.547,3.574c-2.436,4.567-4.932,8.904-7.012,12.137c-2.311,3.611-4.031,5.884-4.015,5.899
		c-0.013-0.016,2.202-1.798,5.355-4.792c1.73-1.628,3.726-3.652,5.81-5.862c-5.045,6.407-9.587,11.439-9.572,11.444
		c-0.01-0.013,8.782-5.633,17.31-12.469c2.064-1.607,4.081-3.306,5.972-4.994l-1.465,3.209c-4.508,2.759-7.506,4.701-7.5,4.707
		c0-0.006,3.599-1.321,8.884-3.112c-2.924,4.56-4.932,7.885-4.907,7.892c-0.009-0.031,5.004-4.667,11.178-9.969
		c2.78-0.909,5.766-1.846,8.779-2.758c0.872-0.255,1.743-0.524,2.619-0.79c-0.231,2.316-0.313,4.364-0.333,5.995
		c-2.09,1.696-4.021,3.313-5.595,4.72c-2.913,2.589-4.702,4.407-4.711,4.392c0.006,0.017,2.233-1.254,5.679-2.948
		c3.452-1.705,8.16-3.762,12.995-5.724c3.948-1.57,7.971-3.19,11.442-4.627c-2.762,3.564-6.009,7.595-9.402,11.456
		c-8.59,9.98-18.326,18.566-18.326,18.562c-0.012,0.005,11.346-6.283,22.116-14.473c7.01-5.225,13.738-11.082,17.908-14.893
		c0.844-0.537,1.693-1.101,2.549-1.725c1.81-1.279,3.552-2.716,5.044-4.036c0.116,0.018,0.232,0.033,0.344,0.057
		c-0.075,0.502-0.18,1.062-0.344,1.701c-0.539,2.231-1.834,5.211-3.606,8.081c-3.565,5.734-8.278,10.951-8.204,10.965
		c-0.022-0.085,6.188-2.855,12.247-7.145c1.394-0.991,2.755-2.11,4.031-3.287c-1.66,1.927-2.777,3.265-2.749,3.271
		c0-0.057,5.519-2.409,11.325-4.887c0.382-0.169,0.76-0.343,1.143-0.509c-0.743,1.516-1.511,3.053-2.308,4.601
		c-4.267,8.331-7.831,16.712-7.782,16.712c-0.021-0.043,4.373-5.148,9.76-10.82l10.227-5.054c5.782,1.956,11.052,2.282,11.05,2.341
		c0.043-0.007-3.06-1.916-6.249-4.692c1.386-0.665,2.767-1.312,4.126-1.933c0.055,0.032,0.103,0.064,0.146,0.094
		c2.729,1.578,5.747,2.504,7.952,2.67c0.161,0.013,0.286,0.006,0.445,0.022c-5.725,4.028-10.429,6.999-10.405,7.019
		c-0.005-0.033,9.453-2.762,19.089-6.491c1.038-0.412,2.07-0.833,3.1-1.267c2.239,0.946,4.755,1.876,7.436,2.729
		c-1.564,1.149-2.584,1.84-2.566,1.846c-0.006-0.013,1.802-0.448,4.535-1.247c1.852,0.551,3.732,1.074,5.623,1.521
		c11.398,2.738,22.464,3.652,22.464,3.707c0.033-0.04-9.651-3.424-19.214-8.246c0.533-0.21,1.071-0.415,1.613-0.646
		c1.309,0.646,2.812,1.311,4.5,1.948c5.126,1.961,11.702,3.496,18.129,4.479c12.863,1.902,25.192,2.346,25.203,2.465
		c0.061-0.1-11.263-3.154-22.628-7.423c1.825,0.479,3.697,0.792,5.516,0.969c3.858,0.38,7.521,0.287,10.233,0.213l4.491-0.121
		c0.092-0.102-6.934-2.293-13.185-5.448c-0.645-0.323-1.254-0.676-1.847-1.03c0.167-0.136,0.333-0.269,0.496-0.402
		c2.149-1.786,4.212-3.854,5.793-5.796c1.452,1,3.093,1.955,4.775,2.811c0.766,1.134,1.593,2.303,2.449,3.438
		c3.612,4.936,7.894,8.843,7.894,8.812c-0.018,0-0.428-1.169-0.943-2.933c2.146,2.185,4.322,4.049,6.195,5.387
		c2.958,2.113,5.107,3.099,5.091,3.118c0.019-0.012-1.755-1.595-3.874-4.373c-1.093-1.4-2.236-3.109-3.322-5.014
		c1.153,0.996,2.346,1.959,3.564,2.824c3.298,2.367,6.623,4.285,9.099,5.734l4.082,2.427l-2.947-3.735
		c-1.776-2.236-4.189-5.217-6.26-8.331c-2.093-3.098-3.707-6.335-4.469-8.808c-0.566-1.775-0.754-3.107-0.867-3.872
		c0.464,0.411,0.972,0.79,1.453,1.179c0.19,0.889,0.614,1.725,1.35,2.41c0.543,0.498,3.446,2.763,7.813,4.748
		c2.206,1.025,4.766,1.942,7.473,2.697c4.872,2.176,8.414,3.308,8.388,3.365c0.031-0.013-1.135-0.803-2.965-2.139
		c0.927,0.175,1.84,0.353,2.759,0.479c11.166,1.57,21.676,0.761,21.681,0.856c0.064-0.064-10.474-2.138-20.196-6.226
		c-4.857-2.024-9.328-4.672-12.312-7.102c-0.135-0.099-0.219-0.195-0.346-0.299c0.909,0.016,1.804,0,2.66-0.057
		c2.343-0.195,4.555-0.572,6.531-0.981c2.998,1.766,5.392,2.73,5.367,2.73c0,0.015-1.02-1.314-2.278-3.303
		c0.528,0.198,1.045,0.386,1.561,0.579c2.844,2.598,6.124,5.106,9.494,7.305c4.95,3.246,9.96,5.96,13.683,7.978l6.19,3.358
		l-5.173-4.776c-2.921-2.675-6.756-6.219-10.368-10.04c4.631,0.938,7.621,1.235,7.582,1.29c0.069-0.032-4.036-1.229-9.731-3.652
		c-2.396-2.703-4.541-5.463-6.146-8.006c0.956-0.183,1.546-0.298,1.546-0.282c0.021-0.018-0.746-0.151-1.937-0.384
		c-0.228-0.384-0.457-0.76-0.662-1.135c1.372,0.217,2.621,0.147,3.61,0.014c3.319,2.77,7.784,5.197,12.308,7.088
		c1.095,0.666,2.183,1.308,3.278,1.924c7.386,4.137,14.887,7.306,20.416,9.789c5.538,2.44,9.141,4.191,9.141,4.191
		s-3.25-2.345-8.3-5.713c-2.03-1.368-4.396-2.943-6.854-4.613c1.994,0.482,3.218,0.742,3.218,0.785
		c0.068-0.061-6.153-3.266-12.845-7.781c-0.548-0.424-1.117-0.831-1.66-1.269c-2.551-2.032-4.934-4.213-7.071-6.432
		c6.522,2.238,12.864,3.395,17.853,4.082c1.769,0.239,3.363,0.415,4.764,0.557c3.233,3.202,5.299,5.307,5.318,5.275
		c-0.029,0.006-1.331-1.974-3.437-5.097c2.653,0.234,4.231,0.301,4.231,0.312c0.008-0.012-1.821-0.382-4.801-1.149
		c-2.378-3.521-5.626-8.241-9.246-13.253c0.915,0.649,1.841,1.292,2.803,1.895c4.66,2.984,9.723,5.057,13.568,5.962
		c3.859,0.931,6.429,0.942,6.423,0.978c0.025-0.023-2.469-0.76-5.787-2.604c-3.052-1.667-6.622-4.433-9.794-7.736
		c6.556,3.789,13.334,6.548,18.52,8.199c5.339,1.723,8.999,2.153,8.992,2.141c0,0.017-3.498-1.1-8.312-3.742
		c-0.36-0.197-0.769-0.447-1.148-0.658c0.072-1.242,0.201-2.985,0.425-5.064c0.348-3.21,0.991-7.194,1.869-11.367
		c7.36,2.582,12.75,4.041,12.735,4.125c0.063-0.063-5.261-2.733-12.134-6.834c0.104-0.459,0.196-0.91,0.308-1.358
		c0.528-2.152,1.076-4.319,1.626-6.42c9.942,6.002,19.796,8.922,19.753,9.037c0.077-0.031-4.323-2.683-9.618-6.864
		c4.189,0.857,8.267,1.454,11.807,1.869l2.58,3.408l-1.421-3.275c2.275,0.251,4.283,0.431,5.896,0.554
		c2.174,0.764,3.495,1.116,3.486,1.133c0.009-0.009-0.706-0.355-1.892-1.009c1.688,0.111,2.694,0.182,2.694,0.207
		c0.032-0.039-2.003-0.608-5.157-1.618c-1.106-0.656-2.341-1.424-3.728-2.338c-1.187-0.799-2.46-1.702-3.782-2.691
		c-1.554-3.701-3.317-8.158-4.587-12.741c-1.595-5.572-2.212-11.222-2.095-15.588c0.013-0.78,0.043-1.501,0.084-2.202
		c0.5,1.944,1.107,3.962,1.89,5.924c0.262,0.672,0.574,1.307,0.865,1.946c-0.159,3.289-0.212,5.448-0.205,5.443
		c0,0,0.446-1.336,1.211-3.455c1.398,2.554,2.999,4.77,4.473,6.318c2.195,2.322,3.877,3.483,3.865,3.506
		c0.021-0.005-1.19-1.701-2.412-4.473c-1.239-2.757-2.235-6.604-2.368-10.523c-0.056-1.475-0.007-2.965,0.082-4.427
		c0.005-0.019,0.015-0.038,0.021-0.062c1.853,0.291,3.083,0.364,3.083,0.387c0.026,0-1.007-0.869-2.359-2.189
		c0.33-0.815,0.669-1.629,1.009-2.452c0.104-0.247,0.206-0.491,0.313-0.733c2.922,2.675,6.275,4.838,9.705,6.548
		c2.328,1.144,4.672,2.092,6.983,2.915c0.195,0.276,0.409,0.585,0.597,0.842c2.117,2.863,3.669,4.597,3.651,4.615
		c0.022-0.008-0.792-1.802-1.821-4.625c12.174,3.869,22.591,3.799,22.515,3.826c0.005-0.019-3.956-0.699-9.632-2.611
		c-4.266-1.435-9.562-3.627-14.624-6.602c-0.707-2.425-1.406-5.069-2.02-7.792c-1.114-5.116-2.189-10.439-3.018-14.338
		c2.843,5.622,5.949,10.725,7.787,13.653c0.085,0.187,0.192,0.414,0.275,0.604c2.056,4.196,3.751,6.737,3.73,6.746
		c0.021,0-1.054-2.879-2.09-7.341c-1.052-4.456-1.952-10.486-2.257-16.625c-0.196-3.256-0.209-6.519-0.131-9.604
		c0.159,0.016,0.325,0.016,0.489,0.03c0.373,7.832,0.808,13.65,0.804,13.65c0.005,0.006,0.851-5.787,2.161-13.484
		c0.088,0,0.166,0.011,0.25,0.011c0.141,1.913,0.308,3.832,0.55,5.754c0.731,6.083,2.212,11.953,3.742,16.104
		c1.506,4.166,2.866,6.729,2.843,6.731c0.023,0-0.682-2.822-1.145-7.125c-0.482-4.296-0.532-10.039,0.137-15.774
		c0.199-1.854,0.465-3.698,0.766-5.517c7.806,0.084,15.233-0.221,20.961-0.478l11.11-0.55l-11.059-1.194
		c-5.579-0.622-12.756-1.443-20.147-2.657c0.383-2.012,0.777-3.945,1.133-5.681c1.812,2.401,3.058,3.921,3.021,3.962
		c0.079,0.009-1.051-3.215-2.269-7.563c0.327-1.545,0.582-2.805,0.755-3.711c1.63-0.239,3.198-0.439,4.737-0.615
		c2.576,7.012,4.759,11.884,4.733,11.893c0.028,0.006-1.073-5.065-2.147-12.163c1.029-0.096,2.044-0.186,3.004-0.246
		c8.079-0.596,13.457-0.281,13.457-0.323c-0.005,0.042-5.281-0.966-13.469-1.413c-1.053-0.065-2.166-0.12-3.312-0.155
		c-0.2-1.45-0.4-2.971-0.591-4.532c2.715,2.191,4.667,3.667,4.64,3.716c0.084-0.007-2.456-4.518-5.034-9.682
		c1.156-0.342,1.863-0.697,1.858-0.662c0.023,0.012-1.005-0.406-2.215-1.165c-0.006-0.101-0.016-0.196-0.022-0.303
		c-0.104-1.321-0.159-2.629-0.223-3.94c1.503,1.646,2.993,3.105,4.364,4.22c2.996,2.48,5.276,3.555,5.251,3.58
		c0.03-0.023-1.871-1.702-3.96-4.753c-1.288-1.827-2.559-4.188-3.718-6.771c2.767,0.087,4.504,0.336,4.504,0.383
		c0.019-0.04-1.963-0.927-5.165-1.875c-0.495-1.202-0.966-2.438-1.381-3.693c0.017-0.928,0.039-1.846,0.067-2.726
		c1.039,0.312,1.712,0.312,1.697,0.335c0.02-0.007-0.639-0.689-1.126-1.814c-0.222-0.507-0.343-1.099-0.411-1.708
		c0.009-0.07,0.009-0.15,0.015-0.219c0.043-0.598,0.088-1.159,0.135-1.712c0.026-0.112,0.035-0.224,0.069-0.332
		c0.815-2.728,3.147-3.836,3.188-3.973c0.107-0.239-0.93-1.258-2.537-2.496c0.029-0.25,0.065-0.462,0.076-0.658
		c1.692,1.901,3.401,3.591,4.89,4.778c2.124,1.718,3.669,2.542,3.647,2.568c0.022-0.021-1.084-1.404-2.316-3.68
		c-0.999-1.846-2.002-4.276-2.846-6.908c3.167-1.081,6.218-2.229,9.022-3.345c7.1,5.45,14.297,10.223,19.645,13.885
		c5.56,3.773,9.123,6.413,9.123,6.418c0,0-3.106-3.178-8.028-7.774c-4.261-4.026-9.873-9.184-15.34-14.769
		c5.928-2.543,9.84-4.511,9.84-4.511c0.016,0-4.704,1.325-11.525,2.801c-0.239-0.259-0.484-0.496-0.726-0.753
		c-0.544-0.568-1.07-1.135-1.597-1.71c1.212-0.229,1.915-0.336,1.908-0.336c0,0.006-0.832-0.043-2.299-0.075
		c-2.487-2.726-4.825-5.519-6.898-8.262c3.438,0.401,6.854,1.276,6.813,1.171l-1.608-1.957c-0.26-0.311-0.587-0.701-0.879-1.062
		c0.765-0.33,1.506-0.629,2.286-0.977c0.101,0.009,0.199,0.018,0.199,0.027c0-0.016-0.077-0.053-0.109-0.072
		c4.161-1.86,8.446-3.933,12.609-6.121c8.538-4.455,16.665-9.188,22.75-12.694l10.096-5.787l-10.859,4.212
		c-6.529,2.564-15.257,6.045-24.188,9.148c-3.452,1.203-6.925,2.329-10.31,3.344c0.009-0.021-0.466-0.641-1.145-1.652
		c2.671-0.897,5.377-1.838,8.052-2.831c9.133-3.353,17.884-7.197,24.203-10.462c6.328-3.234,10.263-5.77,10.27-5.739
		c0-0.03-4.276,1.896-10.95,4.141c-6.66,2.276-15.739,4.745-25.073,6.708c-3.293,0.695-6.61,1.337-9.869,1.924
		c-0.676-1.64-1.275-3.417-1.727-5.241c-0.313-1.244-0.514-2.479-0.681-3.69c0.769-0.467,1.537-0.927,2.296-1.386
		c1.976,1.121,3.904,2.04,5.539,2.623c2.777,1.011,4.662,1.267,4.656,1.281c0.013-0.017-1.668-0.945-3.776-2.792
		c-1.003-0.847-2.071-1.932-3.135-3.129c3.853-2.382,7.44-4.643,10.382-6.591c5.162-3.402,8.45-5.798,8.461-5.792
		c-0.011-0.012-3.668,1.793-9.289,4.264c-0.879,0.382-1.817,0.793-2.786,1.204c-0.728-0.454-4.504-2.447-7.793-4.706
		c-1.111-0.787-2.043-1.633-2.786-2.437c-0.25-0.841-0.494-1.699-0.717-2.583c-0.809-3.1-0.96-6.036-1.003-7.484
		c3.336,1.379,6.463,2.567,8.812,3.682c2.77,1.273,4.426,2.483,4.426,2.483c0,0.013-1.153-1.706-3.43-3.907
		c-2.184-2.188-5.364-4.79-8.326-7.49c2.344-1.592,4.663-3.132,6.883-4.591c1.968,2.584,3.781,5.071,5.292,7.12
		c2.551,3.477,4.354,5.685,4.349,5.685c0-0.007-1.199-2.576-2.834-6.554c-0.995-2.37-2.186-5.288-3.534-8.373
		c8.152-5.25,14.346-8.921,14.323-8.945c0.008,0.032-6.599,2.559-15.476,6.341c-0.565-1.236-1.153-2.486-1.784-3.741
		c-1.135-2.319-2.434-4.608-3.801-6.797c3.077-0.99,5.154-1.359,5.146-1.375c0.011,0.016-2.365-0.209-6.024-0.006
		c-0.707-1.074-1.438-2.115-2.194-3.086c1.592,1.012,2.66,1.499,2.646,1.499c0.014-0.009-1.343-1.356-2.876-3.72
		c-1.297-1.916-2.712-4.482-4.286-7.231c2.741-3.98,5.622-7.338,5.578-7.35c0,0.044-3.617,1.406-7.864,3.542
		c-0.01,0-0.01-0.009-0.01-0.009c0.952-0.726,1.509-1.137,1.509-1.142c0,0.005-0.629,0.304-1.709,0.821
		c-0.267-0.408-0.55-0.81-0.832-1.216c1.498-2.228,3.358-4.914,5.571-7.911c0.22-0.302,0.462-0.612,0.681-0.912
		c0.373,0.158,0.776,0.306,1.115,0.469c2.454,1.188,3.916,2.402,3.922,2.381c-0.021,0.021-0.896-1.628-2.878-3.776
		c-0.25-0.269-0.56-0.549-0.846-0.823c0.033-0.053,0.063-0.088,0.098-0.134c2.395-1.243,4.886-2.443,7.428-3.556
		c14.868-6.554,30.475-10.729,30.414-10.807c0.019,0.102-14.766,1.374-30.407,5.109c3.561-4.248,7.447-8.621,11.457-12.86
		 M562.707,368.172c-1.761,0.529-3.486,1.016-5.17,1.469c-0.206-0.511-0.404-1.027-0.585-1.585c1.234-0.405,2.48-0.805,3.743-1.239
		C561.908,367.675,562.707,368.149,562.707,368.172z M551.996,371.046c-0.057-0.009-0.105-0.021-0.157-0.035
		c0.041-0.456,0.077-0.897,0.116-1.355c0.022-0.008,0.048-0.018,0.064-0.022c0.343,0.399,0.692,0.783,1.052,1.16
		C552.698,370.881,552.358,370.962,551.996,371.046z M361.273,577.299c-0.092-0.088-0.154-0.186-0.243-0.28
		c0.249-0.275,0.467-0.559,0.704-0.832c-0.078,0.195-0.15,0.392-0.237,0.597C361.423,576.957,361.349,577.129,361.273,577.299z
		 M345.463,579.013c0.038-0.014,0.069-0.04,0.102-0.056c1.293-0.857,2.36-1.649,3.217-2.319c0.019,0.4,0.067,0.791,0.233,1.185
		c0.119,0.369,0.855,1.681,2.178,3.101c-0.203,0.311-0.411,0.584-0.619,0.85C348.701,580.861,347.021,579.936,345.463,579.013z
		 M88.816,206.316c-1.372-0.206-2.887-0.445-4.473-0.667c3.539-0.336,7.065-0.612,10.556-0.833c-0.236,0.481-0.473,0.976-0.71,1.456
		c-0.377,0.218-0.759,0.418-1.134,0.646L88.816,206.316z M553.691,314.896c-1.394-1.617-2.468-3.178-2.898-4.435
		c-0.784-2.152-0.293-3.204-0.356-3.479c-0.065-0.605-1.292-1.661-3.148-2.493c0.975-0.512,1.952-1.025,2.938-1.499
		c0.599,0.543,1.189,1.09,1.771,1.633c2.351,2.231,4.542,4.346,6.243,5.753c0.819,0.682,1.511,1.191,2.021,1.535
		C558.118,312.862,555.919,313.857,553.691,314.896z M552.607,322.384c-0.283,0.026-0.562,0.064-0.869,0.101
		c0.147-0.101,0.286-0.2,0.441-0.312C552.32,322.243,552.466,322.315,552.607,322.384z M123.604,155.796
		c-0.09,0.128-0.178,0.25-0.265,0.379c-0.022-0.151-0.038-0.316-0.054-0.472C123.396,155.733,123.496,155.761,123.604,155.796z
		 M506.01,177.072c-0.938,0.004-1.895,0.004-2.892,0.018c2.283-0.537,4.405-1.037,6.074-1.439
		C508.1,176.129,507.031,176.606,506.01,177.072z M511.593,174.592c-0.141-0.033-0.346-0.082-0.512-0.118
		c0.245-0.007,0.489-0.025,0.733-0.078c0.031-0.019,0.086-0.031,0.126-0.049c-0.095,0.081-0.191,0.152-0.275,0.221
		C511.636,174.576,511.618,174.583,511.593,174.592z M509.184,174.018c-0.051-0.017-0.086-0.023-0.133-0.031
		c0.021-0.007,0.047-0.007,0.063-0.012C509.146,173.985,509.16,174.001,509.184,174.018z M544.808,298.814
		c0.285,0.158,0.579,0.357,0.866,0.549c-0.236,0.056-0.467,0.093-0.691,0.149C544.919,299.277,544.86,299.04,544.808,298.814z
		 M549.036,263.48c-1.136-0.459-2.352-0.784-3.592-1.046c3.829-2.155,7.747-4.039,11.143-5.473c-2.437,2.358-4.709,4.661-6.796,6.87
		C549.53,263.723,549.305,263.586,549.036,263.48z M116.168,154.01c-0.166,0.64-0.34,1.284-0.476,1.933
		c-1.194-0.175-2.505-0.319-3.898-0.394c-0.044-0.324-0.072-0.68-0.104-1.089C113.225,154.259,114.718,154.119,116.168,154.01z
		 M529.748,233.592c1.895-0.85,4.082-1.823,6.432-2.882c0.084-0.013,0.162-0.025,0.257-0.036c-2.942,1.759-5.814,3.612-8.347,5.42
		C528.576,235.292,529.123,234.455,529.748,233.592z M307.577,38.748c0.058-0.174,0.104-0.35,0.157-0.525
		c0.98,3.676,1.404,7.287,1.485,10.536c-1.123,0.35-2.247,0.685-3.387,0.991c0.521-2.84,0.756-5.617,0.809-8.204
		C306.96,40.618,307.28,39.678,307.577,38.748z M236.923,63.937c-1.642,0.696-3.273,1.269-4.837,1.75
		c-0.607-2.187-1.257-4.468-1.938-6.878c0-0.076,0-0.154,0-0.216c1.622,1.161,3.23,2.38,4.789,3.667
		C235.612,62.796,236.272,63.371,236.923,63.937z M196.172,50.554c0.256,1.819,0.521,3.69,0.781,5.573
		c-1.434-2.992-2.683-6.481-3.165-10.223C194.547,47.36,195.354,48.931,196.172,50.554z M53.892,343.839
		c-0.047,0.627-0.065,1.258-0.101,1.884c-0.353-0.592-0.734-1.059-1.118-1.334C53.103,344.201,53.505,344.01,53.892,343.839z
		 M353.365,582.84c0.339,0.25,0.701,0.494,1.09,0.723c0.03,0.016,0.067,0.038,0.104,0.056c-0.493-0.22-0.953-0.437-1.431-0.656
		C353.208,582.924,353.286,582.882,353.365,582.84z M384.251,569.938c-0.086-0.413-0.135-0.794-0.2-1.198
		c0.56,0.299,1.133,0.556,1.743,0.795C385.245,569.612,384.729,569.752,384.251,569.938z M486.481,503.022
		c-0.225-0.017-0.519,0.007-0.843,0.044c-0.019-0.021-0.022-0.037-0.031-0.065c0.339-0.314,0.675-0.641,1.005-0.966
		C486.568,502.369,486.531,502.69,486.481,503.022z M549.906,386.301c0.124-0.716,0.229-1.443,0.337-2.166
		c1.109,1.073,2.258,2.142,3.435,3.2c-1.104,0.056-2.268,0.122-3.477,0.229C550.103,387.123,550.002,386.71,549.906,386.301z
		 M567.869,341.136c-2.721,1.153-5.753,2.408-8.951,3.698c-0.345-0.48-0.71-0.951-1.029-1.455c-0.412-0.619-0.8-1.248-1.179-1.877
		c0.664,0.067,1.319,0.106,1.965,0.122C562.928,341.668,566.683,341.226,567.869,341.136z M560.59,311.771
		c-0.364-0.498-0.859-1.225-1.412-2.196c-0.705-1.194-1.519-2.745-2.387-4.473c1.053,1.109,2.097,2.268,3.099,3.475
		c0.719,0.848,1.408,1.714,2.099,2.582C561.523,311.354,561.05,311.558,560.59,311.771z M474.141,110.18
		c3.803-1.198,6.838-2.217,8.834-2.895c-0.521,0.274-2.268,1.187-4.877,2.42c-0.866,0.104-2.208,0.307-3.879,0.729
		c-2.526,0.622-5.729,1.887-8.874,3.651l1.003-1.465C469.154,111.745,471.79,110.927,474.141,110.18z M446.619,85.412
		c0.731-0.513,1.402-1.015,2.094-1.519c-0.508,0.457-1.011,0.901-1.53,1.375C446.997,85.316,446.807,85.365,446.619,85.412z
		 M400.369,47.487c-0.817,1.506-2.295,3.955-4.645,6.654c-3.831,4.51-10.367,8.99-17.773,11.604
		c-0.238,0.084-0.483,0.15-0.728,0.229c1.553-1.348,3.264-2.785,5.121-4.282c2.927-1.836,5.812-3.871,8.452-6.249
		c0.802-0.709,1.559-1.436,2.301-2.183C395.778,51.182,398.269,49.221,400.369,47.487z M358.149,48.586
		c0.045,0.976,0,2.064-0.091,3.192c-1.724,1.021-3.404,1.955-4.945,2.692c-0.195,0.093-0.378,0.172-0.574,0.269
		c1.62-2.262,3.487-4.698,5.545-7.237C358.117,47.846,358.134,48.205,358.149,48.586z M349.025,38.597
		c1.354-1.125,2.533-1.908,3.338-2.403c-1.943,2.366-3.872,4.518-5.661,6.261c-3.908,3.889-7.063,6.035-7.664,6.549
		c-0.115,0.104-0.214,0.229-0.33,0.338c0.622-0.831,1.277-1.665,1.966-2.471C343.411,43.607,346.53,40.618,349.025,38.597z
		 M302.079,25.664c1.131,1.688,2.164,3.496,3.058,5.402c-0.057,0.384-0.118,0.783-0.191,1.206c-0.792,1.384-1.607,2.79-2.448,4.182
		c-1.783,2.953-3.668,5.789-5.502,8.345c0.96-4.754,1.79-10.065,2.824-15.15c0.334-1.655,0.709-3.279,1.134-4.859
		C301.319,25.063,301.7,25.358,302.079,25.664z M279.015,41.374c-0.744,4.385-2.007,8.625-3.432,12.461
		c-0.031-0.169-0.064-0.315-0.097-0.484c-1.015-5.448-1.136-12.948-0.393-20.379c0.109-1.218,0.25-2.428,0.399-3.626
		c0.801-2.067,1.567-4.027,2.318-5.775c0.254-0.619,0.5-1.194,0.743-1.772C280.05,27.033,280.269,34.296,279.015,41.374z
		 M277.999,19.996c-0.451,0.697-0.919,1.443-1.407,2.243c0.247-1.367,0.511-2.676,0.774-3.945
		C277.579,18.815,277.794,19.386,277.999,19.996z M227.091,34.854c0.082-0.75,0.177-1.455,0.279-2.115
		c1.655,2.446,3.701,5.589,5.76,9.099c-3.609-2.683-6.21-3.82-6.188-3.856c-0.038,0.017,3.015,2.145,6.522,6.303
		c1.384,1.621,2.784,3.57,4.083,5.757c1,2.018,1.95,4.039,2.774,5.992c-0.025,0.239-0.035,0.485-0.057,0.73
		c-2.468-2.141-4.542-4.711-5.811-6.898c-1.333-2.242-1.927-3.938-1.939-3.932c0.022,0-0.093,1.767,0.296,4.507
		c0.194,1.434,0.593,3.151,1.184,4.957c-1.856-0.974-3.709-1.875-5.535-2.7c-0.484-1.774-0.955-3.571-1.4-5.36
		c-0.043-0.153-0.069-0.313-0.109-0.469C226.632,42.449,226.701,38.244,227.091,34.854z M214.723,49.371
		c2.206,1.075,4.681,2.433,7.222,3.926c0.007,0.091,0.012,0.186,0.021,0.283c-0.091,1.683-0.141,3.383-0.135,5.051
		c-2.004-1.578-4.342-3.248-6.847-4.917c-0.195-1.384-0.385-2.889-0.562-4.479C214.53,49.274,214.618,49.315,214.723,49.371z
		 M194.313,42.142c-0.153-0.071-0.309-0.147-0.457-0.212c-0.086-0.106-0.183-0.226-0.274-0.335c0.013-0.312,0-0.625,0.021-0.95
		C193.846,41.14,194.079,41.64,194.313,42.142z M116.842,145.188c-1.578,0.353-3.202,0.788-4.877,1.268
		c0.072-0.612,0.148-1.222,0.242-1.83c0.047-0.325,0.106-0.634,0.166-0.946C113.917,144.154,115.414,144.66,116.842,145.188z
		 M79.029,172.535c0.684-1.53,1.849-3.631,3.829-5.806c1-1.13,2.209-2.211,3.584-3.249c0.278,0,0.558-0.007,0.836-0.007
		c7.693-0.019,15.44,0.36,21.082,1.39c2.952,0.494,5.167,1.174,6.71,1.761c-3.409,0.741-7.007,1.753-10.656,2.971
		c-4.139-0.068-8.921,0.116-13.606,0.706C86.576,170.831,82.475,171.655,79.029,172.535z M98.012,177.825
		c0.573-0.12,1.141-0.229,1.715-0.347c2.049,0.465,3.998,0.96,5.686,1.452c0.028,0.007,0.045,0.007,0.067,0.013
		c-0.437,0.128-0.843,0.247-1.274,0.373c-4.227,0.258-8.598,0.611-13.029,1.089c-1.299,0.019-2.598,0.042-3.874,0.078
		C90.706,179.519,94.334,178.609,98.012,177.825z M89.346,188.395c-0.949-0.396-1.876-0.767-2.816-1.151
		c2.465-0.097,4.919-0.147,7.354-0.174c-1.163,0.516-2.362,1.086-3.611,1.694C89.962,188.636,89.653,188.516,89.346,188.395z
		 M31.352,325.539c2.632-2.998,6.456-6.752,10.589-10.14c0.112-0.085,0.216-0.167,0.328-0.253c1.692-0.582,3.474-1.209,5.264-1.865
		c3.861-1.41,7.737-2.864,10.705-3.878c0.244-0.087,0.437-0.143,0.668-0.222c-0.041,0.175-0.071,0.348-0.111,0.531
		c-0.36,0.007-0.731,0.051-1.088,0.165c-0.68,0.195-3.86,1.451-7.915,3.655c-4.061,2.184-8.956,5.35-13.389,8.874
		c-3.361,2.588-6.385,5.411-8.856,7.925C28.113,329.538,29.398,327.739,31.352,325.539z M31.849,342.05
		c3.817-3.752,8.211-6.892,11.819-8.905c1.028-0.313,2.042-0.614,3.037-0.907c-4.599,4.403-11.27,11.085-15.274,15.088
		c-2.231,1.35-4.446,2.55-6.542,3.549C26.572,347.911,29.015,344.812,31.849,342.05z M23.282,354.261
		c0.025-0.056,0.069-0.126,0.085-0.19c0.859-0.128,1.746-0.285,2.675-0.464c-1.186,0.999-2.329,1.99-3.426,2.967
		C22.771,355.855,22.971,355.084,23.282,354.261z M27.85,365.013c1.6-3.183,4.33-7.109,7.617-10.466
		c0.146-0.141,0.293-0.265,0.434-0.41c3.77,0.259,9.456,0.624,13.495,0.809c-1.731,1.1-3.487,2.236-5.22,3.383
		c-4.185,2.754-8.29,5.401-11.488,7.165c-3.18,1.798-5.455,2.672-5.455,2.69c0-0.01,0.601-0.062,1.646-0.205
		c-0.2,0.128-0.402,0.263-0.604,0.396c-0.892,0.615-1.72,1.286-2.555,1.951C25.904,369.663,26.513,367.616,27.85,365.013z
		 M58.687,398.501c0.128,0.528,0.259,1.052,0.394,1.576c-1.198,0.157-2.261,0.575-3.091,1.174
		C56.881,400.329,57.769,399.4,58.687,398.501z M66.491,492.177c0.209-0.746,0.431-1.508,0.681-2.28
		c0.069-0.213,0.158-0.435,0.224-0.64c-0.144,0.703-0.271,1.374-0.38,2.021C66.834,491.612,66.669,491.872,66.491,492.177z
		 M109.333,512.118c-0.262,1.062-0.543,2.097-0.843,3.119c-0.371,0.266-0.749,0.516-1.125,0.79c-1.396,0.997-2.76,1.992-4.124,2.983
		C105.069,516.85,107.083,514.553,109.333,512.118z M117.435,517.338c0.419-0.19,0.819-0.377,1.231-0.569
		c-0.579,3.773-1.37,8.105-2.48,12.297c-0.621,2.396-1.401,4.718-2.214,6.906C114.065,535.148,114.997,526.691,117.435,517.338z
		 M166.625,565.989c2.717-5.456,6.037-10.497,9.006-14.336c-0.263,0.658-0.535,1.326-0.811,2.017
		c-2.226,4.159-4.804,9.132-7.555,13.931c-1.524,2.661-3.134,5.242-4.718,7.597C163.7,572.218,165.06,569.061,166.625,565.989z
		 M191.199,572.279c-0.141-3.303,1.271-7.248,3.468-11.051c2.643-1.524,4.776-2.739,5.726-3.334
		c-2.265,4.368-5.408,10.598-8.518,16.622c-0.091,0.191-0.184,0.349-0.275,0.521C191.383,574.226,191.221,573.313,191.199,572.279z
		 M204.655,579.924l4.402-4.152c-0.562,0.847-1.114,1.681-1.652,2.494C206.446,578.841,205.531,579.389,204.655,579.924z
		 M227.728,578.252c-1.146,0.88-2.283,1.76-3.395,2.636c0.781-1.728,1.737-3.672,2.876-5.651c2.605-0.768,5.118-1.511,7.42-2.184
		L227.728,578.252z M270.971,578.284c0.359-0.551,0.681-1.075,0.95-1.572c0.298-0.287,0.578-0.562,0.865-0.858
		c-0.041,0.134-0.049,0.268-0.068,0.393c-0.377,0.466-0.76,0.91-1.162,1.371C271.356,577.843,271.167,578.063,270.971,578.284z
		 M286.634,580.495c-0.018-0.017-0.031-0.029-0.05-0.047c0.721-0.809,1.383-1.571,1.98-2.262c0.126,0.104,0.24,0.212,0.369,0.314
		C288.163,579.16,287.393,579.83,286.634,580.495z M303.499,583.862c-1.184-0.777-2.421-1.973-3.521-3.37
		c0.925-0.392,1.826-0.761,2.658-1.081c0.786-0.316,1.516-0.581,2.196-0.831c0.325,0.625,0.787,1.189,1.403,1.646
		c0.281,0.203,1.147,0.742,2.445,1.466c-1.333,0.999-2.664,1.97-3.968,2.894C304.334,584.396,303.928,584.159,303.499,583.862z
		 M324.838,580.276c0.197-0.103,0.414-0.214,0.596-0.311c0.964-0.518,1.838-1.009,2.63-1.468c0.299,1.131,0.975,2.216,2.041,3.054
		c-0.424,0.373-0.846,0.723-1.271,1.083C327.453,581.855,326.112,581.065,324.838,580.276z M407.657,564.961
		c0.377,0.065,0.756,0.115,1.135,0.164c0.142,0.086,0.283,0.16,0.436,0.252c0.197,0.177,0.414,0.357,0.632,0.539
		C409.072,565.642,408.329,565.312,407.657,564.961z M459.114,562.747c-6.214-1.884-14.491-4.928-21.582-9.666
		c-1.614-1.066-3.136-2.236-4.555-3.469c-0.833-1.66-1.439-3.152-1.867-4.445c0.094-0.146,0.148-0.331,0.224-0.499
		c1.925,1.437,4.871,3.438,7.875,5.066c4.829,2.733,9.733,4.63,9.728,4.63c-0.007,0-3.095-3.97-5.705-8.371
		c1.65,1.418,3.302,2.872,4.945,4.362c0.612,0.557,1.21,1.123,1.817,1.682c-0.154,1.934-0.234,3.11-0.27,3.123
		c0.024,0.015,0.405-0.903,1.031-2.418c4.216,3.927,8.189,7.775,11.329,10.868C461.151,563.342,460.17,563.064,459.114,562.747z
		 M465.498,544.766c-0.065-0.064-0.146-0.141-0.219-0.199c3.272,0.354,6.328,0.549,8.779,0.694l4.957,0.295
		c0.15,1.774,0.32,3.461,0.524,4.93c0.253,1.93,0.524,3.526,0.751,4.723C475.764,552.614,470.377,549.029,465.498,544.766z
		 M478.988,545.244l-4.573-1.695c-3.346-1.223-7.806-2.879-12.029-4.909c-1.423-0.669-2.771-1.408-4.069-2.164
		c1.301-2.37,2.652-4.551,3.937-6.397c0.998,0.55,1.994,1.083,3.021,1.602c0.186,1.693,0.36,2.801,0.36,2.794
		c0-0.011,0.324-0.874,0.872-2.191c0.861,0.424,1.715,0.866,2.586,1.256c3.215,1.444,6.438,2.745,9.472,3.893
		C478.645,540.167,478.784,542.805,478.988,545.244z M471.886,528.722c-0.941-0.675-1.826-1.375-2.734-2.068
		c0.351-0.672,0.718-1.357,1.106-2.032c0.637-1.134,1.302-2.26,1.952-3.318c0.196,0.146,0.414,0.291,0.629,0.44
		c0.257,4.485,0.754,7.966,0.76,7.948c-0.009-0.008,0.847-2.652,2.199-6.09c0.246,0.141,0.49,0.294,0.75,0.436
		c0.653,0.365,1.399,0.704,2.103,1.053c-0.067,2.587-0.113,5.319-0.135,8.078C476.327,531.774,474.083,530.276,471.886,528.722z
		 M487.804,520.687c0.206-0.785,0.413-1.528,0.599-2.239c0.771,0.662,1.566,1.298,2.355,1.915c4.033,3.181,8.268,5.755,12.192,7.833
		c-2.308-0.918-4.695-1.928-7.047-3.028C493.025,523.8,490.273,522.271,487.804,520.687z M494.564,516.291
		c-1.534-1.711-2.942-3.511-4.226-5.318c0-0.054,0.015-0.117,0.021-0.156c0.259-1.807-0.575-3.531-2.019-4.63
		c0.72-1.32,1.551-2.778,2.456-4.302c0.013,0.064,0.032,0.119,0.045,0.19c0.022,4.679,0.261,8.538,0.261,8.531
		c0-0.009,0.553-1.219,1.413-3.029c1.09,2.995,2.446,6.019,4.032,8.833c0.941,1.721,1.946,3.329,2.948,4.892
		C497.803,519.719,496.131,518.069,494.564,516.291z M513.82,485.736c-0.478-0.669-0.888-1.351-1.259-2.019
		c0.468-1.051,0.894-2.046,1.314-2.991c1.591,3.03,3.481,6.565,5.444,10.114c0.259,0.471,0.534,0.918,0.804,1.376
		C517.641,490.226,515.43,488.025,513.82,485.736z M546.743,441.33c-1.221-0.007-2.486-0.007-3.783,0.005
		c-0.413-1.526-1.548-2.803-3.099-3.466c-0.354-2.752-0.403-5.325-0.152-7.298c0.965,0.347,2.005,0.623,3.068,0.762
		c0.164,0.146,0.323,0.306,0.478,0.456c0.176,0.152,0.338,0.293,0.51,0.439C544.72,435.43,545.74,438.506,546.743,441.33z
		 M558.54,391.462c-2.282,0.415-4.669,0.818-7.099,1.167c-0.174-0.688-0.347-1.389-0.512-2.063c1.743-0.512,3.39-0.951,4.918-1.334
		C556.735,389.986,557.628,390.734,558.54,391.462z"/>
	<g>
		
			<radialGradient id="SVGID_2_" cx="-564.0889" cy="24.2734" r="79.425" gradientTransform="matrix(-1 0 0 1 -309.7432 235.8828)" gradientUnits="userSpaceOnUse">
			<stop  offset="0" style="stop-color:#96CB36"/>
			<stop  offset="0.2003" style="stop-color:#8FC132"/>
			<stop  offset="0.5191" style="stop-color:#7FAB29"/>
			<stop  offset="0.9144" style="stop-color:#678826"/>
			<stop  offset="1" style="stop-color:#628125"/>
		</radialGradient>
		<path fill="url(#SVGID_2_)" d="M333.775,260.159c0-43.878-35.563-79.424-79.431-79.424c-43.863,0-79.428,35.545-79.428,79.424
			c0,43.858,35.565,79.418,79.428,79.418C298.212,339.577,333.775,304.018,333.775,260.159z"/>
		
			<radialGradient id="SVGID_3_" cx="655.8203" cy="61.7275" r="97.8748" gradientTransform="matrix(1 0 0 1 -384.3643 235.8828)" gradientUnits="userSpaceOnUse">
			<stop  offset="0" style="stop-color:#FFFFFF"/>
			<stop  offset="1" style="stop-color:#F6F6F6"/>
		</radialGradient>
		<path fill="url(#SVGID_3_)" d="M317.891,260.159c0-35.102-28.446-63.543-63.546-63.543c-35.098,0-63.54,28.447-63.54,63.543
			c0,35.077,28.444,63.534,63.54,63.534C289.446,323.693,317.891,295.236,317.891,260.159z"/>
		
			<radialGradient id="SVGID_4_" cx="622.1113" cy="36.5259" r="46.8821" gradientTransform="matrix(1 0 0 1 -384.3643 235.8828)" gradientUnits="userSpaceOnUse">
			<stop  offset="0" style="stop-color:#585857"/>
			<stop  offset="1" style="stop-color:#3D3D3C"/>
		</radialGradient>
		<path fill="url(#SVGID_4_)" d="M259.985,254.465c0-16.8-13.611-30.431-30.425-30.431c-16.813,0-30.43,13.631-30.43,30.431
			c0,16.807,13.615,30.438,30.43,30.438S259.985,271.272,259.985,254.465z"/>
		
			<radialGradient id="SVGID_5_" cx="2414.2744" cy="1278.375" r="40.1116" gradientTransform="matrix(0.2011 -0.1966 0.3189 0.37 -650.7842 253.1806)" gradientUnits="userSpaceOnUse">
			<stop  offset="0" style="stop-color:#FFFFFF"/>
			<stop  offset="1" style="stop-color:#F6F6F6"/>
		</radialGradient>
		<path fill="url(#SVGID_5_)" d="M241.337,242.121c-4.588-5.33-10.64-7.354-13.535-4.531c-2.89,2.852-1.528,9.441,3.067,14.772
			c4.588,5.321,10.647,7.346,13.542,4.496C247.308,254.05,245.92,247.45,241.337,242.121z"/>
	</g>
	<g>
		
			<radialGradient id="SVGID_6_" cx="-734.167" cy="24.2734" r="79.4263" gradientTransform="matrix(-1 0 0 1 -309.7432 235.8828)" gradientUnits="userSpaceOnUse">
			<stop  offset="0" style="stop-color:#96CB36"/>
			<stop  offset="0.2003" style="stop-color:#8FC132"/>
			<stop  offset="0.5191" style="stop-color:#7FAB29"/>
			<stop  offset="0.9144" style="stop-color:#678826"/>
			<stop  offset="1" style="stop-color:#628125"/>
		</radialGradient>
		<path fill="url(#SVGID_6_)" d="M503.855,260.159c0-43.878-35.563-79.424-79.433-79.424c-43.862,0-79.431,35.545-79.431,79.424
			c0,43.858,35.568,79.418,79.431,79.418C468.292,339.577,503.855,304.018,503.855,260.159z"/>
		
			<radialGradient id="SVGID_7_" cx="825.9014" cy="61.7275" r="97.8758" gradientTransform="matrix(1 0 0 1 -384.3643 235.8828)" gradientUnits="userSpaceOnUse">
			<stop  offset="0" style="stop-color:#FFFFFF"/>
			<stop  offset="1" style="stop-color:#F6F6F6"/>
		</radialGradient>
		<path fill="url(#SVGID_7_)" d="M487.975,260.159c0-35.102-28.451-63.543-63.55-63.543c-35.097,0-63.543,28.447-63.543,63.543
			c0,35.077,28.449,63.534,63.543,63.534C459.525,323.693,487.975,295.236,487.975,260.159z"/>
		
			<radialGradient id="SVGID_8_" cx="792.1865" cy="36.5249" r="46.8787" gradientTransform="matrix(1 0 0 1 -384.3643 235.8828)" gradientUnits="userSpaceOnUse">
			<stop  offset="0" style="stop-color:#585857"/>
			<stop  offset="1" style="stop-color:#3D3D3C"/>
		</radialGradient>
		<circle fill="url(#SVGID_8_)" cx="399.632" cy="254.465" r="30.425"/>
		
			<radialGradient id="SVGID_9_" cx="2873.2715" cy="1522.2646" r="40.1105" gradientTransform="matrix(0.2011 -0.1966 0.3189 0.37 -650.7842 253.1806)" gradientUnits="userSpaceOnUse">
			<stop  offset="0" style="stop-color:#FFFFFF"/>
			<stop  offset="1" style="stop-color:#F6F6F6"/>
		</radialGradient>
		<path fill="url(#SVGID_9_)" d="M411.418,242.121c-4.592-5.33-10.642-7.354-13.532-4.531c-2.887,2.852-1.524,9.441,3.068,14.772
			c4.582,5.321,10.649,7.346,13.543,4.496C417.383,254.05,416.01,247.45,411.418,242.121z"/>
	</g>
	<path fill="#5E1C10" d="M342.985,396.634c-17.638,2.269-84.845,14.067-69.723,39.9c11.971,22.055,61.11-0.636,78.755-1.262
		c15.121-0.632,29.61,7.551,44.729,8.189c17.016,0.631,31.253-10.528,15.126-24.577C387.509,397.68,349.995,396.17,342.985,396.634"
		/>
	<g>
		<g>
			<g>
				<g>
					<defs>
						<path id="SVGID_10_" d="M342.985,396.634c-17.638,2.269-84.845,14.067-69.723,39.9c11.971,22.055,61.11-0.636,78.755-1.262
							c15.121-0.632,29.61,7.551,44.729,8.189c17.016,0.631,31.253-10.528,15.126-24.577
							C387.509,397.68,349.995,396.17,342.985,396.634"/>
					</defs>
					<clipPath id="SVGID_11_">
						<use xlink:href="#SVGID_10_"  overflow="visible"/>
					</clipPath>
					
						<linearGradient id="SVGID_12_" gradientUnits="userSpaceOnUse" x1="347.8027" y1="-8.9414" x2="347.8027" y2="7.8305" gradientTransform="matrix(1 0 0 -1 0 435)">
						<stop  offset="0" style="stop-color:#C4566D"/>
						<stop  offset="1" style="stop-color:#C76B8C"/>
					</linearGradient>
					<path clip-path="url(#SVGID_11_)" fill="url(#SVGID_12_)" d="M387.101,442.274c0-8.502-17.593-15.394-39.3-15.394
						c-21.7,0-39.299,6.889-39.299,15.394c0,8.488,17.599,15.379,39.299,15.379C369.508,457.65,387.101,450.763,387.101,442.274z"/>
				</g>
			</g>
		</g>
	</g>
	<g>
		<g>
			<g>
				<g>
					<defs>
						<path id="SVGID_13_" d="M342.985,396.634c-17.638,2.269-84.845,14.067-69.723,39.9c11.971,22.055,61.11-0.636,78.755-1.262
							c15.121-0.632,29.61,7.551,44.729,8.189c17.016,0.631,31.253-10.528,15.126-24.577
							C387.509,397.68,349.995,396.17,342.985,396.634"/>
					</defs>
					<clipPath id="SVGID_14_">
						<use xlink:href="#SVGID_13_"  overflow="visible"/>
					</clipPath>
					<g clip-path="url(#SVGID_14_)">
						
							<radialGradient id="SVGID_15_" cx="336.2812" cy="31.1851" r="7.011" gradientTransform="matrix(1 0 0 -1 0 435)" gradientUnits="userSpaceOnUse">
							<stop  offset="0" style="stop-color:#FFFFFF"/>
							<stop  offset="1" style="stop-color:#F6F6F6"/>
						</radialGradient>
						<rect x="329.511" y="396.572" fill="url(#SVGID_15_)" width="13.542" height="14.485"/>
						
							<radialGradient id="SVGID_16_" cx="353.7188" cy="31.1851" r="7.0096" gradientTransform="matrix(1 0 0 -1 0 435)" gradientUnits="userSpaceOnUse">
							<stop  offset="0" style="stop-color:#FFFFFF"/>
							<stop  offset="1" style="stop-color:#F6F6F6"/>
						</radialGradient>
						<rect x="346.95" y="396.572" fill="url(#SVGID_16_)" width="13.537" height="14.485"/>
					</g>
				</g>
			</g>
		</g>
	</g>
</g>
</svg>
