<?xml version="1.0" encoding="utf-8"?>
<!-- Generator: Adobe Illustrator 16.2.1, SVG Export Plug-In . SVG Version: 6.00 Build 0)  -->
<!DOCTYPE svg PUBLIC "-//W3C//DTD SVG 1.1//EN" "http://www.w3.org/Graphics/SVG/1.1/DTD/svg11.dtd">
<svg version="1.1" id="Layer_1" xmlns="http://www.w3.org/2000/svg" xmlns:xlink="http://www.w3.org/1999/xlink" x="0px" y="0px"
	 width="612px" height="612px" viewBox="0 0 612 612" enable-background="new 0 0 612 612" xml:space="preserve">
<g>
	
		<radialGradient id="SVGID_1_" cx="337.165" cy="287.1558" r="256.0714" gradientTransform="matrix(1 0 0 1 0 -88)" gradientUnits="userSpaceOnUse">
		<stop  offset="0" style="stop-color:#ED6A36"/>
		<stop  offset="0.2003" style="stop-color:#E66032"/>
		<stop  offset="0.5191" style="stop-color:#D64A29"/>
		<stop  offset="0.9144" style="stop-color:#BE2726"/>
		<stop  offset="1" style="stop-color:#B92025"/>
	</radialGradient>
	<path fill="url(#SVGID_1_)" d="M563.084,252.446c-3.138,0.17-6.772,0.531-10.645,1.162c3.348-3.231,7.086-6.674,10.944-10.008
		c12.069-10.376,24.596-19.733,24.557-19.77c0.018,0.055-13.89,6.986-27.821,15.252c-3.67,2.201-7.318,4.513-10.726,6.788
		c-2.409,0.721-6.717,2.173-10.992,4.375c-0.685,0.333-1.358,0.69-2.025,1.05c0.661-1.032,1.466-2.163,2.443-3.263
		c2.704-3.192,6.159-5.9,6.139-5.9c0.005,0.031-4.305,0.015-8.914,1.07c-0.362,0.068-0.72,0.172-1.078,0.256
		c2.627-3.268,6.255-7.158,10.113-10.873c4.35-4.134,8.771-8.11,11.958-10.965c9.328-3.884,17.344-6.583,17.368-6.552
		c0.016-0.039-12.456,1.219-25.139,3.878c-10.217,2.096-20.515,4.372-24.903,5.384c2.002-1.788,4.169-3.65,6.414-5.48
		c3.731-1.75,7.028-2.972,7.02-2.981c0,0.01-1.089-0.188-2.75-0.425c1.064-0.837,2.106-1.65,3.124-2.425
		c0.771-0.219,1.214-0.334,1.214-0.334s-0.287,0-0.796,0.012c5.383-4.127,9.579-7.154,9.553-7.174
		c0.013,0.045-8.796,3.328-18.218,7.483c-1.194,0.057-2.467,0.113-3.797,0.197c1.287-0.588,2.579-1.2,3.833-1.849
		c4.328-2.287,8.413-4.622,10.907-6.045c0.823-0.292,1.68-0.604,2.447-0.844c5.189-1.614,8.818-2.093,8.806-2.125
		c0,0.032-2.25-0.104-5.878,0.134c6.765-2.309,11.441-4.127,11.454-4.111c0-0.022-14.005,2.461-28.431,3.608
		c-1.245,0.119-2.488,0.214-3.719,0.3c0.245-0.165,0.482-0.315,0.731-0.467c5.82-3.904,11.456-7.46,11.522-7.418
		c0.02-0.072-6.765,0.95-13.56,2.24c-1.969,0.332-3.913,0.635-5.712,0.863c0.357-0.434,0.734-0.872,1.131-1.322
		c2.316-0.74,4.684-1.443,7.061-2.068c8.99-2.426,18.143-3.854,25.037-4.3c6.897-0.497,11.518-0.143,11.512-0.188
		c0,0.043-4.493-0.999-11.505-1.557c-2.616-0.228-5.587-0.362-8.779-0.375c10.352-2.409,17.924-3.595,17.896-3.639
		c0.017,0.068-14.105,0.262-30.857,2.63c0.856-0.645,1.414-1.037,1.414-1.037c0.009,0.01-4.74,0.618-10.044,2.188
		c0.34-0.347,0.688-0.703,1.053-1.039c5.474-5.445,12.146-9.394,16.047-11.45c7.052-2.764,12.063-4.781,12.043-4.819
		c0,0.07-10.332,1.994-22.463,4.2c0.732-0.462,1.466-0.933,2.222-1.375c0.803-0.461,1.608-0.909,2.431-1.35
		c1.675,0.056,2.691,0.115,2.691,0.115s-0.689-0.21-1.901-0.541c9.421-4.999,18.665-8.154,18.606-8.21
		c0.013,0.082-8.622,0.875-18.694,3.399c0.616-0.204,1.223-0.397,1.838-0.596c9.708-3.124,19.253-5.972,19.243-5.994
		c0,0.022-7.377,0.087-15.993,0.362c1.524-1.23,2.479-1.943,2.468-1.952c0.013,0.017-1.806,0.731-4.618,2.027
		c-0.68,0.013-1.371,0.047-2.065,0.066c-10.288,0.366-20.989,1.431-22.198,1.759c-0.313,0.082-0.604,0.199-0.879,0.344
		c-1.655,0.018-3.344,0.049-5.043,0.096l14.116-5.886l-17.441,1.31c-0.012,0-0.022,0-0.03,0c3.171-1.126,6.525-2.222,9.893-3.253
		c7.285-2.243,14.606-4.22,20.053-5.743c5.466-1.499,9.025-2.646,9.019-2.661c0,0.025-3.698,0.481-9.326,0.95
		c-5.636,0.493-13.189,1.1-20.89,2c-2.807,0.331-5.619,0.722-8.385,1.137c3.543-1.649,5.982-2.478,5.965-2.494
		c0.009,0.016-2.948,0.284-7.383,1.257c-0.629,0.13-1.344,0.314-2.027,0.484c2.199-1.547,3.87-2.526,3.844-2.531
		c0,0.059-5.979,0.281-12.277,2.288c-2.053,0.637-4.094,1.535-5.925,2.489c2.811-3.07,6.525-6.476,10.626-9.523
		c2.549-1.915,5.196-3.665,7.703-5.195c1.931-0.766,3.779-1.492,5.45-2.084c5.666-2.049,9.546-3.087,9.53-3.103
		c0.017,0.015-2.971,0.278-7.647,1.027c3.17-1.666,5.282-2.611,5.267-2.624c0.026,0.034-8.672,1.603-18.436,5.268
		c-1.279,0.306-2.593,0.628-3.917,0.96c1.012-1.382,1.623-2.257,1.661-2.248c-0.013-0.053-2.28,1.395-5.467,3.241
		c-1.136,0.306-2.289,0.606-3.429,0.93l-10.161,2.947c0.335-0.685,0.714-1.362,1.098-2.041c1.676-1.772,3.641-3.796,5.774-5.908
		c6.107-2.921,11.618-6.121,15.753-9.089c5.901-4.167,9.136-7.629,9.166-7.579c-0.022-0.05-3.75,2.894-10.068,6.083
		c-2.023,1.043-4.346,2.09-6.845,3.112c7.96-7.013,16.108-12.401,16.121-12.382c0.01-0.02-10.813,3.784-21.299,9.594
		c-5.455,2.937-10.776,6.288-14.804,8.987c-0.825,0.184-1.649,0.366-2.478,0.541c-0.047-0.061-0.083-0.119-0.144-0.175
		c0.269-0.474,0.558-0.965,0.852-1.462c7.455-3.614,13.207-6.329,13.198-6.338c0,0.009-4.439,0.99-10.695,2.442
		c0.329-0.486,0.674-0.979,1.034-1.452c2.124-2.799,4.746-5.146,7.089-6.433c2.33-1.322,4.181-1.699,4.168-1.722
		c0.008,0.041-1.821-0.329-4.714,0.072c-1.088,0.13-2.33,0.454-3.619,0.866c6.634-5.493,12.355-8.899,12.312-8.899
		c0.058,0.034-9.216,3.228-19.247,9.449c0.337-0.458,0.659-0.931,1.021-1.381c0.805-1.034,1.686-2.002,2.58-2.918
		c7.542-4.655,12.702-8.713,13.186-9.076c1.551-0.531,2.459-0.859,2.459-0.845c0-0.016-4.676,0.923-11.805,2.076
		c-1.585,0.259-3.306,0.533-5.108,0.814l4.186-6.077l-10.996,7.156c-0.909,0.152-1.841,0.303-2.783,0.454
		c0.668-0.623,1.365-1.209,2.008-1.863c5.604-5.54,9.751-12.21,11.71-17.506c2.014-5.287,2.39-8.954,2.441-8.93
		c-0.043-0.032-1.133,3.527-4,8.158c-2.829,4.649-7.767,9.97-13.747,14.016c-3.034,2.094-6.271,3.919-9.433,5.521
		c-0.806-0.344-1.858-0.679-3.092-0.738c-0.064-0.009-0.116-0.019-0.188-0.019c1.521-1.641,3.145-3.352,4.812-5.018
		c2.998-3.009,6.139-5.796,8.629-7.723c2.489-1.935,4.299-3.041,4.289-3.053c0.01,0.022-2.049,0.469-5.115,1.521
		c-3.062,1.042-7.079,2.739-11.04,4.718c-3.192,1.608-6.328,3.327-9.001,4.864c-0.198-0.171-0.392-0.349-0.598-0.524l0.266-0.118
		l1.318-0.707l5.346-2.884l11.294-6.158c7.622-4.197,15.013-8.598,20.345-12.133c5.343-3.518,8.658-6.104,8.664-6.086
		c-0.007-0.019-3.706,1.992-9.509,4.567c-5.011,2.243-11.607,4.861-18.56,7.401c1.911-1.819,3.725-3.649,5.403-5.468
		c2.199-1.08,3.56-1.743,3.568-1.724c0-0.02-0.942,0.202-2.53,0.581c2.214-2.456,4.201-4.843,5.796-6.955
		c3.549-4.653,5.463-7.965,5.49-7.952c-0.019-0.022-2.521,2.899-6.768,6.784c-3.397,3.115-7.989,6.77-13.053,10.198
		c-0.476,0.121-0.967,0.243-1.458,0.371c1.21-1.434,2.365-2.806,3.444-4.059c4.87-5.714,8.295-9.317,8.285-9.317
		c0.01,0-2.571,2.05-6.523,5.471c-1.265,0.735-2.942,1.666-4.983,2.728c-4.598,2.385-10.922,5.177-17.478,7.626
		c-4.974,1.846-10.083,3.531-14.588,4.968c-0.379-0.272-0.753-0.541-1.135-0.806c0.777-0.735,1.679-1.516,2.747-2.341
		c0.135-0.106,0.293-0.216,0.425-0.322c11.725-5.595,22.406-10.198,22.431-10.164c0-0.027-3.188,0.641-8.036,1.743
		c0.301-0.134,0.582-0.274,0.879-0.409c6.053-2.809,12.301-5.202,16.953-7.017c4.662-1.797,7.718-3.068,7.718-3.068l-8.178,1.388
		c-4.509,0.74-10.459,1.705-16.604,3.055c4.914-3.144,8.055-5.259,8.062-5.243c0-0.017-3.848,1.766-9.745,4.339
		c0.113-0.229,0.188-0.368,0.192-0.359c-0.005-0.019-0.147,0.163-0.411,0.447c-1.932,0.851-4.105,1.781-6.426,2.756
		c0.737-1.028,1.412-2.051,1.994-3.056c2.457-1.174,4.062-1.718,4.05-1.734c0.012,0.016-1.29,0.15-3.436,0.607
		c0.175-0.325,0.357-0.654,0.514-0.969c0.363-0.744,0.681-1.441,0.965-2.121c0.615-0.61,1.253-1.242,1.794-1.819
		c3.255-3.45,4.922-6.067,4.938-6.051c-0.006-0.021-2.013,1.918-5.455,4.302c0.494-1.694,0.65-2.725,0.686-2.709
		c-0.035-0.021-0.508,1.326-1.67,3.369c-3.789,2.554-9.02,5.383-14.556,7.873c-1.185,0.525-2.389,1.051-3.581,1.551
		c8.039-6.622,14.201-12.025,14.228-11.992c-0.013-0.057-12.44,7.159-25.432,13.931c-0.735,0.389-1.464,0.745-2.191,1.127
		c1.521-1.726,3.134-3.422,4.923-4.932c4.189-3.607,9.354-6.033,13.418-7.385c4.063-1.39,6.916-1.913,6.895-1.944
		c0,0.041-2.865-0.149-7.261,0.244c-2.95,0.234-6.681,0.9-10.531,2.166c0.847-0.646,1.686-1.299,2.539-1.943
		c12.43-9.214,24.871-17.9,24.807-17.975c0.023,0.106-13.689,6.292-27.742,13.239c-5.342,2.669-10.678,5.574-15.281,8.333
		c1.23-1.76,2.581-3.565,4.017-5.302c3.027-3.713,6.407-7.052,9.252-9.198c2.839-2.165,5.102-3.068,5.078-3.094
		c0.027,0.035-2.413,0.238-5.908,1.572c-3.038,1.125-6.797,3.108-10.486,5.511c0.426-0.612,0.836-1.225,1.193-1.822
		c2.142-3.565,3.198-6.496,3.688-8.043c0.141-0.114,0.316-0.249,0.446-0.368c3.396-2.819,5.5-4.802,5.507-4.802
		c-0.007,0-2.525,1.428-6.455,3.344c-0.351,0.174-0.782,0.375-1.165,0.56c2.283-3.394,3.981-6.79,5.044-9.784
		c2.18-5.939,2.501-10.054,2.577-10.035c-0.056-0.034-1.115,4.002-4.142,9.298c-2.999,5.296-8.407,11.46-15.224,15.688
		c-0.687,0.444-1.409,0.779-2.108,1.176c-2.983,1.349-5.952,2.745-8.752,4.139c-1.022,0.374-2.014,0.672-3.008,1
		c0.002-0.013,0.006-0.013,0.006-0.013c1.367-1.882,2.296-3.54,2.889-4.725c5.758-2.78,10.476-4.281,10.447-4.286
		c0.012,0.031-3.903,0.171-9.362,1.089c0-0.017,0.006-0.031,0.017-0.038c1.26-3.464,1.341-5.833,1.383-5.824
		c-0.031-0.026-0.842,2.244-2.914,4.99c-0.334,0.447-0.752,0.904-1.158,1.359c-1.598,0.32-3.282,0.705-5.015,1.168
		c0.501-0.606,1.035-1.184,1.523-1.805c8.207-10.283,13.077-21.676,13.137-21.627c-0.012-0.071-7.463,10.007-17.108,17.725
		c-2.227,1.805-4.557,3.452-6.835,4.912c-0.222-0.716-0.449-1.422-0.695-2.043c-0.276-0.701-0.551-1.312-0.817-1.862
		c1.935-2.341,3.975-4.737,6.092-7.083c10.314-11.339,21.038-21.934,20.952-21.994c0.038,0.075-8.995,6.187-19.353,13.867
		c-0.189,0.084-0.355,0.165-0.549,0.268c-1.196,0.596-2.502,1.35-3.85,2.18c0.623-1.322,1.237-2.644,1.801-3.978
		c2.957-6.905,5.335-13.797,7.104-18.934L377.049,1l-4.498,7.808c-2.711,4.693-6.349,10.966-10.411,16.994
		c-2.066,3.078-4.267,6.042-6.451,8.729c-0.87,0.172-2.522,0.568-4.626,1.387c-3.123,1.175-7.185,3.105-11.118,5.562
		c-0.014,0.005-0.033,0.022-0.045,0.03c0.175-2.814,0.206-5.68-0.056-8.497c-0.653-7.581-2.844-14.686-5.182-19.572
		c-2.308-4.931-4.623-7.643-4.575-7.661c-0.048,0.009,1.684,3.136,2.936,8.242c1.299,5.068,1.993,12.091,1.243,18.98
		c-0.123,1.281-0.32,2.551-0.542,3.8c-0.121-9.792-1.37-17.478-1.25-17.49c-0.124-0.072-0.936,12.673-4.433,24.731
		c-0.908,3.139-2.063,6.161-3.359,8.826c-0.085-0.006-0.172-0.006-0.25-0.014c-0.329-0.687-0.66-1.362-1.012-2.027
		c-0.485-0.929-0.991-1.824-1.498-2.693c-0.006-0.172-0.026-0.344-0.032-0.508c2.303-2.284,4.126-4.724,5.179-6.931
		c1.825-3.678,2.166-6.287,2.223-6.274c-0.035-0.038-1.116,2.437-3.664,5.29c-1.098,1.259-2.566,2.469-4.208,3.59
		c-0.36-1.981-0.923-3.934-1.744-5.809c-1.554-3.768-3.936-6.851-6.5-9.271c2.009-7.302,3.315-12.897,3.381-12.891
		c-0.046-0.05-2.319,4.35-5.543,10.158c-1.869-2.299-3.879-4.34-5.904-6.064c1.1-3.256,2.391-6.184,3.831-8.502
		c2.637-4.376,5.28-6.702,5.229-6.731c0.046,0.049-2.991,1.758-6.615,5.689c-1.813,1.905-3.63,4.417-5.334,7.267
		c-1.03-0.753-2.055-1.427-3.019-1.993c-4.703-2.797-8.138-3.753-8.104-3.803c-0.042,0.035,3.161,1.681,7.069,5.196
		c0.919,0.816,1.862,1.762,2.801,2.785c-0.249,0.463-0.481,0.921-0.729,1.388c-1.245-0.418-1.992-0.595-1.985-0.612
		c-0.013,0.017,0.678,0.347,1.791,0.991c-0.941,1.841-1.835,3.752-2.641,5.705c-1.761,4.199-3.333,8.374-4.829,12.141
		c-1.11,1.703-2.301,3.557-3.522,5.456c-0.635,1.019-1.265,2.046-1.862,3.082c0.184-2.265,0.308-4.556,0.263-6.849
		c-0.062-7.946-1.805-15.712-4.45-20.836c-0.213-0.438-0.435-0.828-0.65-1.219c1.822-4.021,3.188-6.425,3.166-6.43
		c0.022,0.005-1.527,1.961-3.781,5.351c-0.408-0.674-0.809-1.268-1.193-1.818c1.669-7.658,3.41-13.096,3.388-13.078
		c0.024,0-2.336,4.314-5.166,10.844c-0.744-0.842-1.236-1.283-1.202-1.295c-0.034,0.006,0.417,0.605,1.045,1.672
		c-2.055,4.774-4.333,10.676-6.111,16.938c-0.414,1.428-0.769,2.887-1.123,4.348c-1.577,2.769-3.216,5.608-4.929,8.404
		c-0.444,0.722-0.924,1.403-1.381,2.107c-0.008-0.006-0.008-0.006-0.016-0.013c-0.013-0.403-0.06-0.793-0.064-1.199
		c-0.127-5.528,0.475-11.076,1.297-15.163c0.799-4.105,1.749-6.739,1.725-6.752c0.024,0.013-1.554,2.324-3.377,6.198
		c-1.433,3.009-2.975,6.973-4.2,11.313c-1.45-2.178-2.574-4.487-3.096-6.84c-0.644-2.812-0.45-5.631,0.166-7.968
		c1.278-4.714,3.443-7.461,3.345-7.479c0.09,0.064-2.567,2.193-4.979,6.875c-1.169,2.33-2.097,5.446-2.038,8.945
		c0.038,3.502,1.098,7.192,2.656,10.536c0.656,1.378,1.399,2.69,2.152,3.978c-0.409,2.55-0.627,5.087-0.725,7.521
		c-0.753,0.93-1.511,1.853-2.262,2.746c-0.346,0.084-0.695,0.191-1.039,0.282c-0.026-0.041-0.045-0.069-0.07-0.116
		c-0.37-0.652-0.821-1.35-1.233-2.043c0.774-2.149,1.193-4.249,1.178-6.027c0.063-4.026-0.873-6.424-0.803-6.437
		c-0.061-0.021,0.147,2.619-0.914,6.162c-0.288,1.028-0.775,2.068-1.357,3.119c-0.915-3.031-1.888-5.865-2.839-8.487
		c0.144-1.728,0.346-3.374,0.665-4.786c0.821-3.909,2.088-6.338,2.057-6.345c0.037,0.012-1.819,2.019-3.693,5.768
		c-0.189,0.369-0.372,0.831-0.562,1.234c-0.157-0.425-0.342-0.904-0.493-1.312l-3.206-8.077l1.528,8.551
		c0.235,1.363,0.481,2.867,0.73,4.449c-0.114,0.338-0.243,0.669-0.349,1.013c-0.398-0.478-0.78-0.978-1.181-1.442
		c-4.86-5.763-10.103-10.792-13.563-13.933c0.463-2.618,0.921-4.204,0.904-4.204c0.017,0.008-0.688,1.303-1.621,3.558
		c-1.938-1.747-3.162-2.757-3.156-2.765c-0.006-0.007,1.076,1.443,2.726,3.824c-0.349,0.9-0.72,1.905-1.098,3.023
		c-0.218,0.66-0.44,1.357-0.653,2.091c-0.638-3.583-1.094-6.94-1.34-9.829c-0.507-5.656-0.41-9.454-0.435-9.454
		c0.025,0-0.766,3.702-1.308,9.454c-0.558,5.746-0.653,13.567-0.104,21.448c0.042,0.575,0.097,1.151,0.134,1.712
		c-2.244-0.831-4.386-1.558-6.323-2.147c-0.395-0.127-0.751-0.23-1.131-0.334c-0.261-2.646-0.457-5.449-0.513-8.264
		c-0.393-10.608,1.303-21.086,1.288-21.081c0.028,0-4.374,9.623-6.832,20.499c-0.567,2.324-1.023,4.678-1.415,6.965
		c-1.322-0.269-2.106-0.39-2.102-0.403c-0.007,0.014,0.761,0.263,2.049,0.747c-0.135,0.843-0.269,1.672-0.391,2.487
		c-0.868-0.494-1.725-0.962-2.578-1.428c-1.087-1.703-2.217-3.4-3.404-5.045c-1.847-2.652-3.77-5.174-5.671-7.542
		c0.41-1.528,0.865-2.997,1.374-4.255c1.563-3.978,3.096-6.434,3.056-6.453c0.034,0.025-2.035,2.02-4.593,5.622
		c-0.578,0.81-1.179,1.729-1.769,2.725c-1.881-2.24-3.712-4.309-5.35-6.002c-3.823-3.996-6.611-6.305-6.595-6.32
		c-0.022,0.017,2.278,2.819,5.226,7.396c1.54,2.363,3.229,5.221,4.91,8.342c-0.297,0.635-0.578,1.285-0.846,1.962l-2.13-2.577
		l1.799,3.43c-0.19,0.508-0.362,1.034-0.535,1.56c-0.305-0.141-0.469-0.212-0.469-0.219c-0.006,0.007,0.15,0.129,0.43,0.354
		c-0.469,1.534-0.854,3.144-1.084,4.828c-0.197,1.303-0.289,2.622-0.326,3.927c-1.109-1.531-2.275-3.09-3.502-4.572
		c-6.076-7.448-13.047-13.278-13.024-13.287c-0.02-0.007,3.271,5.221,6.328,11.77c-0.043,1.309-0.064,4.737,0.175,8.782
		c-1.574-0.934-2.537-1.436-2.532-1.456c-0.005,0.013,0.579,0.479,1.535,1.316c-0.982-0.346-1.535-0.512-1.535-0.512
		s0.933,0.457,2.481,1.356c0.035,0.034,0.065,0.056,0.093,0.089c0.07,1.006,0.153,2.05,0.267,3.089
		c0.177,1.828,0.351,3.635,0.521,5.331c-3.415-4.236-7.023-7.851-10.139-10.451c-4.205-3.564-7.551-5.013-7.546-4.99
		c0.007-0.021,2.984,2.043,6.312,6.219c2.455,3.009,5.174,7.063,7.56,11.556c-1.032-0.6-2.015-1.15-2.931-1.63
		c-0.261-0.141-0.507-0.259-0.759-0.394c-1.575-1.509-3.131-2.83-4.58-3.909c-4.159-3.156-7.217-4.646-7.199-4.683
		c-0.026,0.031,2.677,2.132,6.019,5.954c3.376,3.794,6.991,9.444,9.716,15.66c0.936,2.096,1.812,4.237,2.673,6.371
		c-0.19,0.283-0.369,0.559-0.549,0.855c-1.942-1.8-3.933-3.578-5.958-5.289c-13.907-11.78-28.645-21.111-28.605-21.155
		c-0.062,0.021,13.073,11.667,24.694,25.113c1.49,1.727,2.955,3.486,4.354,5.244c-0.253-0.065-0.399-0.107-0.399-0.116
		c-0.008,0,0.224,0.144,0.607,0.391c0.566,0.717,1.129,1.431,1.669,2.134c-0.699,1.322-1.354,2.637-1.956,3.912
		c-0.391-0.275-0.777-0.569-1.168-0.847c-0.45-1.084-0.958-2.178-1.527-3.238c-2.247-4.37-5.819-7.697-8.668-9.412
		c-2.846-1.784-4.893-2.451-4.874-2.49c-0.032,0.024,1.725,1.353,3.724,3.799c1.101,1.303,2.148,2.98,2.997,4.846
		c-5.357-5.045-10.732-9.749-14.958-13.126c-4.558-3.64-7.695-5.845-7.679-5.862c-0.016,0.016,2.677,2.753,6.474,7.111
		c1.599,1.844,3.402,4.031,5.274,6.355c-2.825-1.497-4.596-2.315-4.582-2.327c-0.021,0.012,2.83,1.975,6.944,5.32
		c1.853,2.366,3.74,4.843,5.605,7.392c0.615,0.846,1.23,1.694,1.837,2.543c-5.034-3.712-10.827-7.496-16.86-10.682
		C129.243,70,110.353,66.344,110.43,66.281c-0.086,0.021,18.133,6.521,33.575,18.05c7.547,5.395,14.223,11.845,19.294,17.268
		c-5.006-2.649-9.126-4.183-9.102-4.28c-0.107,0.047,5.471,5.13,9.772,10.921c0.207,0.287,0.381,0.581,0.582,0.865
		c-0.062,0.403-0.161,0.794-0.243,1.193c-0.191,0.184-0.378,0.378-0.572,0.56c-0.722-0.479-1.431-0.895-2.093-1.234
		c-2.989-1.485-5.065-1.932-5.056-1.96c-0.015,0.006,0.866,0.576,2.087,1.603c-1.541-0.403-3.086-0.699-4.624-0.934
		c-2.174-1.111-4.24-2.127-6.126-3.002c-6.652-4.724-13.656-6.458-13.62-6.427c0-0.068,5.144,3.524,9.206,8.838
		c-10.189,0.201-17.981,2.378-17.957,2.31c-0.097,0.031,10.04-0.479,20.808,2.057c1.294,2.284,2.228,4.553,2.769,6.504
		c0.009,0.591,0.096,1.193,0.304,1.784c0.056,0.172,0.152,0.306,0.215,0.472c0.216,1.269,0.278,2.26,0.31,2.831
		c-0.56-0.219-1.134-0.432-1.723-0.623c-3.102-1.012-6.651-1.681-10.333-2.108c-0.221-0.062-0.436-0.148-0.659-0.206
		c-6.395-1.763-12.866-2.204-17.587-1.788c-4.73,0.378-7.636,1.469-7.636,1.422c-0.005,0.044,3.086-0.344,7.587,0.322
		c0.105,0.018,0.233,0.056,0.341,0.072c-1.812,0.164-3.544,0.375-5.04,0.641c-4.337,0.709-6.915,2.107-6.868,2.153
		c-0.016-0.065,2.749-0.769,6.96-0.409c4.2,0.274,9.792,1.246,15.238,2.771c0.101,0.031,0.195,0.062,0.297,0.09
		c-1.322-0.115-2.649-0.2-3.962-0.219c-0.87-0.006-1.717,0.046-2.573,0.074c-0.524-0.096-1.053-0.229-1.578-0.318
		c-14.253-2.476-27.911-1.918-27.907-1.994c-0.044,0.044,7.842,1.4,17.262,4.228c-0.202,0.064-0.454,0.108-0.646,0.181
		c-4.001,1.253-6.271,2.79-6.274,2.746c0.003,0.044,2.597-0.856,6.593-1.034c1.965-0.119,4.278-0.053,6.714,0.21
		c0.926,0.331,1.85,0.669,2.765,1.024c5.989,2.315,11.636,5.315,15.451,8.293c-0.812-0.269-2.966-0.929-6.027-1.656
		c-0.957-0.447-1.935-0.851-2.938-1.251c0.291-0.999,0.516-1.611,0.521-1.611c0-0.009-0.457,0.502-1.106,1.374
		c-1.958-0.76-3.953-1.465-5.965-2.049c-1.124-0.331-2.237-0.6-3.348-0.875c0.49-1.497,0.856-2.434,0.867-2.427
		c-0.002-0.014-0.82,0.796-2.018,2.127c-4.443-1.028-8.655-1.64-12.026-1.934c-4.492-0.41-7.449-0.188-7.445-0.197
		c-0.003,0,2.918,0.486,7.096,1.903c1.841,0.607,3.931,1.409,6.124,2.334c-0.868,0-1.734,0.019-2.609,0.05
		c-6.912,0.213-13.592,1.943-18.033,4.144c-4.487,2.169-6.868,4.356-6.896,4.311c0.005,0.05,2.854-1.571,7.474-2.667
		c4.612-1.131,10.936-1.36,17.122-0.215c0.975,0.161,1.935,0.362,2.891,0.585c-0.069,0.11-0.148,0.212-0.216,0.329
		c-1.137,1.791-2.181,3.691-3.064,5.542c-5.707,0.685-10.983,1.86-15.054,3.286c-5.83,1.975-9.148,4.31-9.148,4.278
		c-0.003,0.031,3.678-1.681,9.574-2.59c2.231-0.369,4.774-0.61,7.505-0.709c-1.718,0.904-3.368,1.899-4.927,2.965
		c-10.663,0.133-18.534,1.078-18.518,1.134c-0.012-0.057,5.894,0.212,14.163,1.265c-0.25,0.05-0.512,0.088-0.763,0.134
		c-7.727,1.404-15.187,3.112-20.78,4.221c-5.576,1.164-9.319,1.563-9.326,1.538c-0.006,0.025,3.778,0.323,9.514,0.2
		c4.662-0.072,10.597-0.294,16.794-0.377c-0.556,0.725-1.075,1.443-1.506,2.165c-1.766,2.854-2.553,5.32-2.928,6.999
		c-0.959,0.25-1.891,0.505-2.731,0.759c-3.934,1.181-6.406,2.215-6.413,2.2c0,0.019,2.669-0.34,6.701-0.488
		c3.555-0.128,8.186,0.032,12.9,0.542c-3.956,1.804-7.638,3.665-10.754,5.371c-1.043,0.109-2.072,0.217-2.997,0.344
		c-0.831,0.116-1.581,0.234-2.296,0.354c-1.924-0.763-3.765-1.477-5.434-2.104c-5.945-2.293-10.054-3.275-10.06-3.222
		c0.024-0.044,3.875,1.586,9.316,4.798c0.688,0.391,1.469,0.866,2.201,1.291c-0.756,0.178-1.168,0.288-1.173,0.275
		c0,0.014,0.614-0.007,1.662,0.014c0.424,0.248,0.824,0.477,1.269,0.74c-12.351,2.537-23.864,6.218-32.295,10.27
		c-10.281,4.843-15.959,9.754-15.99,9.664c0.024,0.082,6.161-4.268,16.66-8.06c10.073-3.735,24.092-6.578,38.567-7.667
		c2.181,1.334,4.43,2.715,6.729,4.122c-1.655,0.924-3.315,1.878-4.938,2.875c-5.252,3.19-10.184,6.597-13.795,9.189
		c-7.999,2.109-15.354,4.476-21.227,6.98c-4.73,1.993-8.474,4.103-10.816,5.942c-2.368,1.841-3.218,3.355-3.226,3.331
		c0.002,0.025,1-1.389,3.5-2.936c2.462-1.562,6.324-3.234,11.136-4.699c1.706-0.528,3.562-1.028,5.489-1.509
		c-0.678,0.73-1.009,1.215-1.031,1.184c0.008,0.049,0.793-0.666,2.252-1.495c2.88-0.69,5.952-1.331,9.182-1.931
		c-1.203,0.644-1.887,1.029-1.884,1.038c-0.006-0.019,1.688-0.527,4.462-1.303c2.418,0.195,4.955,0.641,7.474,1.357
		c4.144,1.134,8.26,2.697,11.939,4.146c-0.1,0.075-0.207,0.17-0.306,0.242c-0.012,0-0.027,0-0.037,0
		c-15.648,0.818-30.648,3.667-41.755,5.935l-18.381,3.943l18.653-2.228c4.67-0.515,10.036-1.048,15.778-1.478
		c-1.562,0.816-2.95,1.722-4.085,2.665c-4.138,3.482-5.609,6.687-5.674,6.611c0.031,0.087,2.212-2.778,6.639-5.167
		c2.203-1.169,4.964-2.078,8.005-2.381c3.045-0.333,6.342-0.091,9.664,0.466c0.487,0.075,0.975,0.205,1.462,0.297
		c-1.715,1.697-2.722,2.789-2.688,2.812c-0.035-0.035,1.611-1.05,4.268-2.484c1.696,0.349,3.387,0.729,5.055,1.158
		c-4.25,1.592-9.197,3.846-13.9,6.349c-10.227,5.416-19.275,11.724-19.299,11.692c0,0.013,0.597-0.208,1.619-0.565
		c-3.103,2.229-4.799,3.753-4.799,3.743c0,0.01,3.718-2.549,9.986-5.486c2.53-0.825,5.581-1.775,8.854-2.69
		c-7.517,5.099-14.304,10.208-16.902,12.141c-6.638,3.281-11.448,5.668-11.492,5.588c0.031,0.139,14.329-3.547,28.169-7.049
		c-7.917,4.499-16.222,7.857-16.228,7.841c0,0.01,0.538-0.034,1.475-0.119c-2.062,0.857-3.973,1.744-5.624,2.641
		c-5.442,2.918-8.561,5.486-8.586,5.437c0.013,0.05,3.556-1.943,9.268-3.826c2.981-1.009,6.568-1.871,10.457-2.5
		c-0.221,0.158-0.447,0.312-0.668,0.464c-8.395,5.896-15.862,12.245-15.872,12.24c-0.004,0.015,7.458-3.316,15.906-6.39
		c-1.037,1.45-1.574,2.418-1.581,2.409c0.007,0.016,1.578-1.451,4.268-3.087c0.371-0.234,0.818-0.462,1.231-0.696
		c3.127-1.069,6.236-2.024,8.986-2.744c-1.46,1.12-2.928,2.306-4.386,3.543c-0.344,0.2-0.652,0.385-1.024,0.603l-11.28,6.412
		c-1.675,0.969-3.303,1.944-4.869,2.925c-0.434,0.255-0.867,0.521-1.311,0.796c-4.861,2.985-10.798,7.054-16.434,11.289
		c-11.327,8.403-21.346,17.552-21.335,17.559c-0.012-0.016,11.68-6.922,24.215-12.802c6.249-2.963,12.673-5.711,17.727-7.629
		c5.051-1.928,8.706-3.042,9.436-3.339c1.087-0.448,1.987-1.172,2.638-2.063c0.481-0.097,0.969-0.196,1.443-0.291
		c-0.524,0.491-1.043,0.978-1.569,1.497c-0.212,0.167-0.421,0.318-0.625,0.476c-18.587,9.205-33.393,21.812-33.369,21.765
		c-0.031,0.023,7.874-4.984,19.043-10.196c-2.22,1.232-4.311,2.448-6.202,3.609c-8.101,4.912-12.847,8.98-12.841,8.968
		c-0.006,0,5.158-3.498,13.664-7.439c0.084-0.037,0.191-0.083,0.278-0.125c-9.97,6.581-17.928,13.147-17.928,13.139
		c-0.006,0,11.198-5.817,23.521-10.439c-0.294,0.566-0.45,0.883-0.437,0.883c-0.013-0.008,0.38-0.43,1.09-1.137
		c0.158-0.056,0.305-0.115,0.461-0.175c3.097-1.148,6.225-2.215,9.228-3.166c-5.056,4.365-10.774,7.674-10.774,7.659
		c-0.012,0.005,1.181-0.135,3.026-0.44c-1.675,0.935-3.354,1.945-4.976,3.041c-4.792,3.132-9.091,6.841-11.753,10.044
		c-2.725,3.178-3.787,5.696-3.816,5.667c0.029,0.029,1.713-2.116,4.997-4.379c1.838-1.309,4.196-2.611,6.799-3.815
		c-0.981,1.357-1.894,2.724-2.766,4.066c-1.596,1.109-2.659,1.738-2.655,1.738c-0.003,0,0.678-0.129,1.809-0.394
		c-1.546,2.495-2.896,4.883-3.906,6.914c-1.561,3.095-2.374,5.369-2.599,6.012c-1.337,1.369-2.487,2.637-3.444,3.722
		c-5.173,3.887-9.751,7.832-13.178,11.544c-6.264,6.624-8.879,12.059-8.923,11.992c0.039,0.06,3.294-5.024,10.124-10.73
		c3.205-2.748,7.229-5.567,11.716-8.297c-0.695,0.451-1.136,0.731-1.143,0.725c0,0.025,2.156-0.575,5.429-1.534
		c-0.134,0.206-0.281,0.396-0.409,0.601c-2.84,4.55-4.843,9.467-5.589,13.627c-0.364,0.147-0.757,0.326-1.107,0.465
		c-3.68,1.426-6.298,1.942-6.286,1.965c-0.007-0.022,2.644,0.156,6.696-0.273c0.109-0.016,0.244-0.041,0.36-0.055
		c-0.109,1.21-0.078,2.27,0.025,3.182c-1.194,1.057-2.346,2.105-3.4,3.111c-3.358,3.187-5.974,6.007-7.651,8.102
		c-1.688,2.084-2.39,3.452-2.4,3.445c0.01,0,0.859-1.269,2.753-3.133c1.881-1.868,4.767-4.33,8.423-7.087
		c0.868-0.659,1.794-1.333,2.75-2.018c0.221,0.72,0.419,1.104,0.406,1.092c0.007,0.013-0.101-0.471-0.131-1.296
		c2.099-1.509,4.386-3.067,6.812-4.653c-1.462,3.391-2.456,6.706-2.936,9.39c-0.598,3.11-0.573,5.315-0.559,5.928
		c-3.8,3.017-6.99,6.363-9.039,9.239c-2.55,3.509-3.668,6.086-3.7,6.062c0.025,0.032,1.775-2.201,4.978-4.883
		c2.515-2.132,6.014-4.363,9.913-6.183c-0.949,0.898-1.906,1.805-2.85,2.715c-5.864,5.676-11.581,11.221-16.139,15.047
		c-4.527,3.859-7.852,6.018-7.836,6.047c-0.019-0.027,3.637-1.568,8.842-4.624c5.216-3.021,11.925-7.565,18.646-12.133
		c1.824-1.249,3.655-2.469,5.468-3.659c-0.466,0.543-0.932,1.094-1.397,1.633c-4.753,5.676-9.455,11.111-13.431,14.742
		c-3.937,3.681-7.005,5.599-6.992,5.624c-0.02-0.025,3.366-1.304,8.046-4.229c0.871-0.538,1.822-1.18,2.759-1.822
		c-1.416,2.748-2.031,4.482-2.05,4.469c0.019,0.017,1.259-2.337,3.856-5.713c3.684-2.628,7.714-5.816,11.71-9.091
		c3.577-2.921,7.148-5.72,10.517-8.113c-1.244,1.333-2.213,2.217-2.207,2.217c0-0.006,1.35-0.056,3.29-0.306
		c-0.191,0.236-0.377,0.467-0.568,0.705c-2.191,2.078-4.327,4.264-6.355,6.5c-7.151,7.857-13.158,16.354-17.05,23.019
		c-3.931,6.655-5.581,11.477-5.574,11.466c-0.006,0,2.292-4.526,7.014-10.482c2.281-2.915,5.108-6.181,8.301-9.515
		c-3.48,6.821-5.992,13.543-7.148,19.325c-2.024,9.479-0.915,15.824-1.012,15.797c0.081,0.04-0.282-6.411,2.692-15.344
		c1.787-5.604,5.019-11.96,9.217-18.278c2.325-1.77,6.063-4.583,9.92-7.376c1.19-0.882,2.377-1.722,3.553-2.528
		c-1.397,3.418-3.068,7.819-4.525,12.174l-3.246,9.628c-1.606,2.969-2.997,5.825-4.077,8.463c-3.666,8.734-4.712,14.88-4.771,14.849
		c0.049,0.038,1.802-5.971,6.333-14.086c3.217-5.858,8.063-12.65,13.985-19.099c-0.15,0.261-0.281,0.536-0.363,0.817
		c-0.15,0.544-0.524,3.298-2.1,7.198c-1.519,3.906-4.351,8.823-7.677,13.492c-3.302,4.68-6.971,9.128-9.676,12.468l-4.478,5.583
		l5.677-4.33c3.438-2.596,8.079-6.048,12.601-9.979c2.196-1.901,4.339-3.946,6.308-6.039c-0.484,1.974-0.972,4.055-1.403,6.144
		c-1.74,7.992-2.502,15.805-2.496,15.789c-0.006,0,1.611-3.27,3.958-7.452c-0.497,1.449-0.89,2.782-1.196,3.97
		c-1.275,2.618-2.365,5.148-3.196,7.519c-3.215,8.866-3.477,15.103-3.547,15.073c0.06,0.036,1.05-6.141,5.147-14.389
		c2.115-4.365,5.19-9.199,8.929-14.041c-1.313,4.261-3.038,9.358-4.846,14.476c-4.149,11.407-7.708,22.703-7.637,22.703
		c-0.052-0.053,5.906-9.937,12.496-20.034c-3.053,6.563-4.589,12.086-4.538,12.069c-0.06-0.029,4.596-7.339,11.042-13.724
		c-0.16,1.231-0.385,2.715-0.722,4.398c-0.842,4.333-2.484,9.898-4.729,15.221c-2.231,5.323-5.046,10.359-7.518,13.899
		c-2.447,3.572-4.464,5.662-4.446,5.678c-0.022-0.021,2.439-1.553,5.752-4.521c3.325-2.933,7.421-7.33,11.039-12.291
		c0.106-0.141,0.202-0.294,0.302-0.435c-0.255,1.332-0.374,2.128-0.38,2.121c0.012,0.007,1.056-2.447,3.006-5.909
		c0.168-0.306,0.382-0.642,0.568-0.962c0.399-0.634,0.793-1.268,1.17-1.909c0.014,0.523,0.029,0.821,0.029,0.816
		c-0.007,0.005,0.118-0.541,0.371-1.477c0.073-0.113,0.131-0.236,0.204-0.36c0.466-0.739,0.938-1.481,1.456-2.26
		c0.269-0.332,0.549-0.667,0.851-1c-1.525,3.878-2.775,7.589-3.589,10.65c-0.425,1.555-0.74,2.921-0.984,4.093
		c-2.03,4.803-3.599,9.474-4.603,13.751c-0.512,2.175-0.877,4.221-1.172,6.152c-0.287,0.411-0.495,0.694-0.487,0.702
		c-0.006-0.008,0.159-0.124,0.435-0.346c-1.428,9.95-0.309,16.314-0.435,16.262c0.119,0.065-0.562-7.044,1.994-17.514
		c0.25-0.214,0.511-0.441,0.794-0.691c-0.407,3.389-0.364,5.472-0.4,5.467c0.037,0.02,0.426-2.668,1.724-6.699
		c0.157-0.146,0.3-0.28,0.463-0.447c1.443-1.396,3.044-3.191,4.681-5.171c-0.462,2.156-0.829,4.292-1.156,6.392
		c-1.043,0.76-1.744,1.137-1.731,1.151c-0.012-0.026,0.605-0.137,1.637-0.467c-0.699,4.729-1.112,9.191-1.218,12.815
		c-0.204,5.542,0.368,9.144,0.375,9.139c-0.017,0,0.13-3.636,1.35-8.919c0.984-4.362,2.633-9.873,4.763-15.433
		c2.929-1.679,6.24-4.244,9.18-7.391c1.206-1.279,2.313-2.652,3.368-4.034c-0.741,2.494-1.628,5.234-2.631,7.949
		c-3.062,8.478-6.515,16.675-6.477,16.675c-0.022-0.028,5.756-6.683,11.364-14.014c1.903-2.417,3.688-4.969,5.272-7.354
		c-0.241,1.948-0.638,4.741-1.269,7.793c-0.616,1.069-1.25,2.127-1.856,3.196l-10.804,19.371c-2.965,5.187-5.105,8.515-5.095,8.526
		c-0.01-0.012,2.681-2.911,6.527-7.532l6.789-8.363c-0.356,0.954-0.583,1.563-0.581,1.563c-0.022-0.012,4.833-4.849,9.185-10.653
		c0.118-0.159,0.231-0.325,0.349-0.469l-3.027,9.567c-1.715,5.253-3.733,10.278-5.578,13.921c-1.819,3.653-3.336,5.932-3.322,5.938
		c-0.012-0.015,2.024-1.812,4.769-4.963c2.756-3.126,6.108-7.683,9.153-12.496c2.174-3.415,4.244-6.865,6.097-9.93
		c-0.788,4.108-0.932,7.512-0.923,7.498c-0.009-0.007,1.444-2.127,3.553-4.598c-0.06,0.476-0.112,0.959-0.178,1.442
		c-4.19,5.951-8.02,11.761-10.76,16.436c-0.469,0.792-0.902,1.542-1.311,2.269c-3.819,2.787-7.396,5.374-10.408,7.448
		c-5.149,3.578-8.754,5.643-8.75,5.653c-0.005-0.011,3.9-1.449,9.611-4.146c1.924-0.896,4.09-1.955,6.345-3.069
		c-0.54,1.053-0.831,1.646-0.837,1.64c0.006,0.006,0.51-0.715,1.4-1.915c2.974-1.475,6.124-3.053,9.398-4.702
		c-1.134,2.575-2.062,4.221-2.047,4.233c-0.016-0.021,1.637-1.503,3.873-4.094c0.47-0.537,0.967-1.147,1.464-1.781
		c0.133-0.062,0.256-0.123,0.387-0.196c-1.758,6.262-2.722,12.368-3.077,17.12c-0.447,5.821-0.225,9.639-0.256,9.639
		c0.024,0.019,0.506-3.801,1.974-9.338c1.079-4.139,2.819-9.185,5.152-14.255c0.2,6.579,0.794,11.291,0.828,11.609
		c-0.971,2.579-2.012,4.953-3.009,6.893c-1.841,3.625-3.374,5.881-3.354,5.892c-0.015-0.018,1.909-1.703,4.546-4.63
		c-2.757,6.469-4.499,11.011-4.546,10.996c0.053,0.061,7.904-12.706,16.953-24.937c0.969-1.299,1.956-2.583,2.947-3.855
		c-0.216,1.105-0.463,2.215-0.75,3.327c-1.822,7.483-5.596,14.339-5.618,14.333c-0.012,0.028,5.993-5.034,10.66-11.974
		c2.365-3.414,4.443-7.189,5.812-10.328c0.458-1.053,0.837-2.019,1.159-2.865c0.466,0.358,0.929,0.732,1.392,1.087
		c-0.042,0.089-0.094,0.159-0.141,0.246c-0.498,1.037-2.839,6.854-6.028,14.518c-1.308,1.577-2.546,3.117-3.655,4.555
		c-5.411,6.961-8.36,11.945-8.407,11.917c0.041,0.03,3.546-4.518,9.64-10.674c-1.713,4.051-3.566,8.355-5.45,12.626
		c-6.655,15.277-13.75,29.869-13.735,29.88c-0.016-0.011,9.473-13.168,18.625-27.23c4.893-7.402,9.674-15.043,13.235-20.874
		c-0.152,1.303-0.274,2.51-0.377,3.613c-1.519,2.686-3.041,5.47-4.494,8.264c-7.502,14.094-13.458,28.278-13.461,28.273
		c0,0,8.431-12.881,18.141-25.257c0.578-0.741,1.157-1.479,1.738-2.223c-1.911,4.272-4.164,9.106-6.583,13.75
		c-3.152,6.013-6.792,11.647-9.986,15.537c-3.158,3.921-5.725,6.133-5.702,6.146c-0.016-0.023,2.943-1.647,6.936-4.922
		c4.015-3.234,8.924-8.201,13.389-13.671c5.76-7.101,10.991-14.669,14.209-19.495l-0.172,2.787c-0.12,2.41-0.164,4.774-0.135,6.961
		c-1.662,3.469-3.146,6.059-3.183,6.059c0,0.019,0.566-0.325,1.435-0.901c-3.022,6.508-6.203,12.052-6.211,12.046
		c-0.002,0.011,4.105-3.463,8.74-8.095c0.009,0.089,0.015,0.136,0.015,0.136s0.019-0.068,0.04-0.188
		c1.044-1.048,2.104-2.129,3.167-3.263c0.349-0.375,0.696-0.749,1.045-1.135c-0.491,1.55-0.952,3.132-1.362,4.708
		c-1.598,6.085-2.487,12.092-3.001,16.813c-0.134,0.171-0.281,0.375-0.416,0.543c-2.856,3.511-5.062,5.585-5.046,5.604
		c-0.012-0.019,2.118-1.256,5.213-3.561c-0.356,4.102-0.408,6.753-0.439,6.744c0.024,0.026,0.853-3.408,2.465-8.339
		c3.496-2.787,7.65-6.664,11.563-10.925c3.848-4.169,7.482-8.489,10.5-12.024c0.057,2.077,0.147,3.436,0.144,3.436
		c0.002,0.01,2.262-4.797,5.038-9.448c0.822-0.942,1.39-1.603,1.658-1.936c0.042,0.861,0.081,1.736,0.146,2.597
		c0.013,0.19,0.029,0.383,0.04,0.583c-1.856,2.21-4.035,4.877-6.133,7.611c-4.812,6.148-8.722,12.536-8.706,12.536
		c-0.005-0.015,5.959-4.497,12.446-8.405c0.795-0.486,1.598-0.978,2.401-1.455c-0.467,2.971-0.462,5.796,0.202,8.141
		c0.407,1.487,0.973,2.648,1.548,3.575c-2.437,4.566-4.933,8.905-7.014,12.139c-2.312,3.613-4.032,5.886-4.017,5.901
		c-0.013-0.016,2.203-1.798,5.357-4.792c1.73-1.629,3.727-3.653,5.811-5.864c-5.046,6.409-9.588,11.442-9.574,11.447
		c-0.01-0.013,8.785-5.635,17.314-12.472c2.065-1.607,4.082-3.306,5.974-4.995l-1.465,3.21c-4.509,2.761-7.508,4.702-7.501,4.708
		c0-0.006,3.6-1.321,8.886-3.114c-2.925,4.562-4.934,7.888-4.909,7.895c-0.009-0.031,5.006-4.669,11.18-9.972
		c2.781-0.909,5.768-1.847,8.781-2.758c0.872-0.255,1.744-0.524,2.619-0.79c-0.231,2.316-0.313,4.365-0.333,5.997
		c-2.091,1.696-4.022,3.313-5.597,4.721c-2.913,2.59-4.703,4.407-4.712,4.393c0.006,0.016,2.234-1.255,5.68-2.949
		c3.452-1.706,8.162-3.764,12.998-5.725c3.95-1.571,7.973-3.192,11.445-4.63c-2.762,3.566-6.01,7.597-9.404,11.46
		c-8.593,9.982-18.331,18.57-18.331,18.566c-0.012,0.005,11.348-6.284,22.121-14.476c7.012-5.225,13.741-11.084,17.912-14.896
		c0.844-0.536,1.694-1.099,2.549-1.725c1.811-1.278,3.553-2.716,5.046-4.037c0.116,0.019,0.231,0.033,0.344,0.057
		c-0.075,0.502-0.181,1.062-0.344,1.702c-0.54,2.23-1.835,5.212-3.607,8.081c-3.566,5.736-8.28,10.954-8.206,10.969
		c-0.022-0.085,6.189-2.855,12.25-7.147c1.394-0.991,2.756-2.11,4.032-3.288c-1.661,1.928-2.778,3.266-2.75,3.271
		c0-0.057,5.52-2.409,11.328-4.889c0.383-0.169,0.76-0.343,1.144-0.509c-0.743,1.516-1.511,3.054-2.309,4.602
		c-4.268,8.333-7.832,16.715-7.783,16.715c-0.022-0.042,4.374-5.149,9.762-10.822l10.229-5.054
		c5.783,1.957,11.054,2.283,11.052,2.342c0.042-0.007-3.061-1.916-6.25-4.694c1.387-0.664,2.767-1.311,4.127-1.932
		c0.056,0.032,0.103,0.064,0.146,0.094c2.73,1.577,5.749,2.505,7.954,2.67c0.161,0.013,0.286,0.006,0.445,0.022
		c-5.726,4.029-10.431,7.001-10.407,7.021c-0.005-0.035,9.455-2.764,19.093-6.494c1.039-0.411,2.071-0.833,3.099-1.267
		c2.242,0.947,4.758,1.876,7.438,2.731c-1.565,1.147-2.584,1.839-2.567,1.844c-0.006-0.012,1.802-0.447,4.536-1.246
		c1.853,0.55,3.733,1.074,5.625,1.521c11.401,2.739,22.468,3.652,22.468,3.707c0.034-0.041-9.653-3.425-19.219-8.248
		c0.533-0.21,1.072-0.415,1.613-0.646c1.309,0.646,2.813,1.311,4.502,1.948c5.127,1.962,11.704,3.498,18.133,4.479
		c12.866,1.903,25.198,2.347,25.209,2.466c0.06-0.099-11.266-3.155-22.634-7.425c1.826,0.479,3.698,0.792,5.518,0.97
		c3.859,0.379,7.522,0.286,10.236,0.212l4.491-0.121c0.092-0.102-6.936-2.293-13.188-5.449c-0.645-0.322-1.254-0.676-1.847-1.03
		c0.167-0.136,0.333-0.269,0.495-0.402c2.15-1.786,4.213-3.854,5.795-5.798c1.452,1.001,3.093,1.956,4.775,2.812
		c0.766,1.134,1.594,2.304,2.45,3.438c3.611,4.937,7.896,8.845,7.896,8.812c-0.018,0-0.428-1.168-0.944-2.934
		c2.146,2.185,4.323,4.05,6.197,5.389c2.958,2.113,5.108,3.099,5.092,3.119c0.018-0.012-1.755-1.596-3.875-4.375
		c-1.093-1.399-2.236-3.11-3.322-5.014c1.154,0.996,2.346,1.959,3.564,2.824c3.299,2.367,6.625,4.287,9.102,5.736l4.083,2.428
		l-2.947-3.737c-1.777-2.236-4.191-5.218-6.262-8.332c-2.093-3.099-3.708-6.337-4.47-8.811c-0.566-1.774-0.754-3.108-0.867-3.872
		c0.464,0.41,0.972,0.79,1.453,1.179c0.19,0.888,0.613,1.725,1.35,2.41c0.543,0.497,3.446,2.765,7.815,4.749
		c2.206,1.025,4.766,1.942,7.474,2.697c4.873,2.177,8.416,3.309,8.39,3.366c0.031-0.012-1.136-0.802-2.966-2.14
		c0.928,0.176,1.841,0.354,2.761,0.479c11.168,1.571,21.68,0.763,21.685,0.858c0.064-0.064-10.477-2.139-20.201-6.227
		c-4.858-2.025-9.33-4.673-12.313-7.104c-0.136-0.099-0.219-0.196-0.347-0.299c0.909,0.016,1.804,0,2.661-0.056
		c2.343-0.196,4.556-0.572,6.532-0.982c2.998,1.767,5.393,2.731,5.369,2.731c0,0.014-1.021-1.314-2.279-3.304
		c0.528,0.198,1.046,0.386,1.561,0.578c2.846,2.599,6.126,5.109,9.497,7.307c4.951,3.247,9.961,5.962,13.685,7.979l6.193,3.359
		l-5.174-4.777c-2.922-2.677-6.758-6.221-10.371-10.043c4.633,0.938,7.623,1.236,7.585,1.291c0.069-0.032-4.037-1.228-9.734-3.652
		c-2.397-2.703-4.542-5.465-6.146-8.008c0.956-0.183,1.547-0.297,1.547-0.282c0.021-0.016-0.748-0.15-1.938-0.384
		c-0.229-0.384-0.458-0.76-0.663-1.135c1.372,0.217,2.622,0.147,3.612,0.014c3.318,2.771,7.785,5.198,12.309,7.089
		c1.095,0.665,2.183,1.309,3.28,1.924c7.387,4.138,14.89,7.307,20.42,9.791c5.54,2.44,9.144,4.193,9.144,4.193
		s-3.252-2.345-8.303-5.716c-2.03-1.366-4.395-2.943-6.854-4.614c1.994,0.483,3.219,0.742,3.219,0.786
		c0.068-0.06-6.155-3.267-12.848-7.783c-0.549-0.424-1.118-0.83-1.66-1.268c-2.552-2.034-4.936-4.215-7.074-6.434
		c6.525,2.239,12.868,3.396,17.857,4.083c1.77,0.239,3.363,0.415,4.765,0.557c3.234,3.203,5.3,5.309,5.321,5.277
		c-0.031,0.006-1.333-1.973-3.438-5.097c2.653,0.232,4.231,0.3,4.231,0.312c0.007-0.013-1.822-0.383-4.803-1.15
		c-2.378-3.521-5.628-8.243-9.248-13.256c0.915,0.649,1.841,1.293,2.804,1.896c4.661,2.985,9.725,5.058,13.572,5.963
		c3.86,0.931,6.431,0.943,6.425,0.978c0.025-0.024-2.47-0.76-5.789-2.604c-3.052-1.668-6.623-4.435-9.797-7.738
		c6.558,3.789,13.338,6.549,18.524,8.201c5.34,1.724,9.001,2.154,8.994,2.141c0,0.017-3.499-1.1-8.314-3.743
		c-0.359-0.197-0.769-0.446-1.147-0.658c0.072-1.242,0.201-2.985,0.425-5.065c0.349-3.21,0.991-7.196,1.87-11.37
		c7.362,2.582,12.752,4.042,12.738,4.127c0.062-0.064-5.263-2.734-12.137-6.836c0.104-0.46,0.197-0.91,0.308-1.358
		c0.528-2.152,1.076-4.32,1.626-6.422c9.944,6.004,19.801,8.924,19.757,9.039c0.077-0.03-4.325-2.684-9.621-6.866
		c4.19,0.858,8.269,1.455,11.81,1.87l2.58,3.41l-1.421-3.276c2.275,0.251,4.284,0.432,5.898,0.555
		c2.174,0.765,3.494,1.116,3.487,1.133c0.007-0.01-0.707-0.356-1.894-1.01c1.688,0.113,2.694,0.182,2.694,0.209
		c0.032-0.04-2.003-0.609-5.158-1.619c-1.106-0.656-2.341-1.424-3.729-2.338c-1.187-0.799-2.461-1.703-3.782-2.692
		c-1.555-3.702-3.318-8.16-4.59-12.744c-1.595-5.573-2.212-11.224-2.094-15.592c0.013-0.78,0.043-1.501,0.085-2.202
		c0.499,1.945,1.106,3.963,1.889,5.924c0.263,0.672,0.575,1.308,0.866,1.948c-0.159,3.289-0.213,5.448-0.205,5.443
		c0,0,0.446-1.336,1.211-3.456c1.398,2.555,3,4.771,4.474,6.32c2.196,2.322,3.878,3.484,3.866,3.508
		c0.021-0.006-1.19-1.702-2.412-4.474c-1.241-2.759-2.237-6.606-2.37-10.526c-0.055-1.476-0.007-2.966,0.081-4.428
		c0.006-0.019,0.016-0.038,0.021-0.062c1.853,0.292,3.083,0.364,3.083,0.387c0.027,0-1.006-0.869-2.359-2.188
		c0.331-0.816,0.669-1.631,1.009-2.453c0.104-0.247,0.206-0.49,0.313-0.733c2.922,2.677,6.276,4.839,9.707,6.549
		c2.33,1.145,4.674,2.093,6.985,2.916c0.195,0.276,0.409,0.586,0.599,0.842c2.117,2.864,3.668,4.599,3.651,4.616
		c0.021-0.008-0.793-1.802-1.821-4.627c12.175,3.87,22.594,3.8,22.519,3.827c0.005-0.019-3.956-0.699-9.633-2.612
		c-4.268-1.434-9.564-3.628-14.628-6.603c-0.707-2.425-1.406-5.07-2.02-7.792c-1.114-5.119-2.189-10.442-3.019-14.342
		c2.843,5.622,5.95,10.727,7.788,13.655c0.085,0.187,0.192,0.415,0.275,0.604c2.057,4.198,3.752,6.738,3.73,6.748
		c0.021,0-1.054-2.88-2.09-7.343c-1.053-4.457-1.952-10.488-2.258-16.628c-0.196-3.258-0.208-6.521-0.13-9.607
		c0.16,0.016,0.324,0.016,0.488,0.032c0.374,7.832,0.809,13.651,0.805,13.651c0.005,0.007,0.852-5.788,2.163-13.487
		c0.087,0,0.166,0.01,0.249,0.01c0.142,1.913,0.309,3.833,0.551,5.756c0.73,6.085,2.212,11.957,3.743,16.108
		c1.506,4.168,2.866,6.73,2.843,6.732c0.023,0-0.683-2.822-1.145-7.126c-0.482-4.297-0.532-10.041,0.137-15.777
		c0.199-1.854,0.465-3.698,0.766-5.519c7.808,0.086,15.237-0.22,20.966-0.478l11.112-0.55l-11.061-1.194
		c-5.579-0.622-12.759-1.443-20.152-2.658c0.384-2.013,0.777-3.946,1.134-5.682c1.812,2.401,3.058,3.921,3.021,3.962
		c0.079,0.009-1.051-3.216-2.27-7.564c0.328-1.546,0.581-2.807,0.755-3.711c1.632-0.238,3.2-0.44,4.738-0.616
		c2.577,7.014,4.761,11.887,4.734,11.896c0.029,0.006-1.073-5.066-2.147-12.166c1.03-0.095,2.045-0.185,3.004-0.245
		c8.081-0.597,13.461-0.281,13.461-0.323c-0.005,0.042-5.283-0.966-13.472-1.415c-1.053-0.063-2.166-0.12-3.313-0.154
		c-0.199-1.451-0.4-2.972-0.591-4.534c2.716,2.192,4.668,3.669,4.641,3.718c0.084-0.006-2.457-4.518-5.035-9.685
		c1.156-0.342,1.864-0.697,1.858-0.66c0.023,0.01-1.004-0.407-2.215-1.166c-0.006-0.101-0.015-0.197-0.023-0.305
		c-0.103-1.319-0.158-2.629-0.223-3.94c1.504,1.646,2.994,3.107,4.367,4.221c2.996,2.48,5.276,3.556,5.251,3.581
		c0.03-0.024-1.871-1.703-3.961-4.756c-1.288-1.827-2.559-4.187-3.718-6.771c2.768,0.087,4.505,0.337,4.505,0.384
		c0.019-0.041-1.964-0.927-5.167-1.877c-0.494-1.201-0.966-2.437-1.381-3.693c0.016-0.928,0.039-1.847,0.067-2.727
		c1.04,0.312,1.713,0.312,1.697,0.335c0.021-0.006-0.638-0.689-1.126-1.814c-0.222-0.507-0.343-1.099-0.41-1.707
		c0.008-0.071,0.008-0.15,0.014-0.219c0.043-0.6,0.088-1.16,0.135-1.712c0.027-0.114,0.035-0.225,0.07-0.334
		c0.815-2.729,3.147-3.836,3.188-3.972c0.108-0.239-0.93-1.259-2.538-2.496c0.031-0.251,0.066-0.463,0.078-0.659
		c1.692,1.902,3.4,3.593,4.891,4.779c2.124,1.719,3.67,2.543,3.648,2.569c0.023-0.021-1.084-1.404-2.317-3.681
		c-0.998-1.846-2.002-4.277-2.847-6.91c3.168-1.08,6.22-2.228,9.024-3.345c7.103,5.451,14.3,10.225,19.649,13.888
		c5.561,3.774,9.125,6.415,9.125,6.42c0,0-3.108-3.179-8.03-7.776c-4.262-4.027-9.876-9.187-15.344-14.772
		c5.929-2.543,9.842-4.512,9.842-4.512c0.017,0-4.703,1.326-11.526,2.802c-0.24-0.259-0.484-0.496-0.727-0.753
		c-0.544-0.568-1.07-1.136-1.598-1.71c1.213-0.229,1.916-0.336,1.909-0.336c0,0.006-0.832-0.043-2.299-0.076
		c-2.489-2.726-4.827-5.52-6.9-8.263c3.438,0.399,6.855,1.276,6.814,1.17l-1.608-1.957c-0.26-0.311-0.587-0.701-0.879-1.062
		c0.766-0.33,1.508-0.628,2.287-0.976c0.101,0.009,0.199,0.017,0.199,0.028c0-0.016-0.077-0.053-0.108-0.073
		c4.161-1.86,8.447-3.935,12.61-6.122c8.542-4.458,16.67-9.19,22.756-12.696L611,350.41l-10.862,4.212
		c-6.531,2.565-15.261,6.047-24.192,9.151c-3.453,1.203-6.925,2.329-10.311,3.344c0.007-0.021-0.467-0.641-1.146-1.652
		c2.671-0.897,5.378-1.838,8.054-2.832c9.134-3.353,17.888-7.198,24.207-10.464c6.329-3.234,10.266-5.771,10.272-5.741
		c0-0.029-4.278,1.897-10.952,4.143c-6.661,2.276-15.742,4.746-25.078,6.709c-3.294,0.696-6.612,1.337-9.871,1.924
		c-0.677-1.641-1.275-3.419-1.728-5.242c-0.313-1.246-0.514-2.481-0.681-3.692c0.769-0.467,1.537-0.926,2.297-1.386
		c1.977,1.121,3.904,2.04,5.541,2.622c2.778,1.012,4.662,1.268,4.656,1.283c0.012-0.017-1.668-0.947-3.777-2.792
		c-1.003-0.849-2.072-1.932-3.135-3.13c3.854-2.383,7.441-4.645,10.383-6.593c5.165-3.401,8.454-5.8,8.464-5.792
		c-0.01-0.012-3.669,1.792-9.291,4.264c-0.879,0.383-1.818,0.793-2.786,1.205c-0.729-0.454-4.507-2.447-7.795-4.707
		c-1.112-0.787-2.043-1.633-2.786-2.437c-0.251-0.84-0.494-1.7-0.717-2.584c-0.81-3.1-0.96-6.038-1.003-7.485
		c3.337,1.379,6.464,2.567,8.814,3.683c2.771,1.272,4.427,2.483,4.427,2.483c0,0.013-1.154-1.705-3.431-3.907
		c-2.185-2.188-5.366-4.791-8.327-7.491c2.344-1.593,4.663-3.133,6.884-4.593c1.968,2.584,3.781,5.072,5.293,7.122
		c2.552,3.477,4.355,5.686,4.35,5.686c0-0.006-1.2-2.575-2.835-6.556c-0.995-2.371-2.185-5.289-3.534-8.374
		c8.154-5.251,14.349-8.924,14.327-8.947c0.007,0.031-6.6,2.559-15.479,6.342c-0.565-1.236-1.153-2.487-1.784-3.742
		c-1.134-2.319-2.434-4.609-3.802-6.798c3.078-0.991,5.156-1.359,5.146-1.375c0.011,0.016-2.364-0.209-6.026-0.006
		c-0.706-1.075-1.438-2.116-2.194-3.086c1.592,1.012,2.66,1.499,2.647,1.499c0.013-0.009-1.344-1.357-2.876-3.721
		c-1.298-1.916-2.713-4.483-4.288-7.233c2.742-3.981,5.622-7.34,5.578-7.352c0,0.044-3.616,1.406-7.865,3.543
		c-0.009,0-0.009-0.009-0.009-0.009c0.952-0.726,1.51-1.137,1.51-1.143c0,0.005-0.631,0.304-1.711,0.821
		c-0.267-0.408-0.549-0.81-0.831-1.216c1.499-2.229,3.359-4.915,5.572-7.912c0.22-0.302,0.462-0.612,0.681-0.912
		c0.374,0.158,0.776,0.306,1.116,0.469c2.454,1.188,3.916,2.403,3.922,2.382c-0.019,0.021-0.896-1.628-2.877-3.776
		c-0.252-0.269-0.562-0.549-0.847-0.824c0.032-0.053,0.062-0.088,0.098-0.134c2.395-1.243,4.887-2.443,7.429-3.557
		c14.87-6.555,30.48-10.73,30.42-10.809c0.019,0.103-14.769,1.374-30.413,5.111c3.562-4.249,7.448-8.623,11.46-12.862
		 M565.643,367.073c-1.762,0.529-3.487,1.016-5.171,1.469c-0.205-0.51-0.404-1.027-0.585-1.585c1.234-0.404,2.481-0.805,3.744-1.239
		C564.844,366.576,565.643,367.051,565.643,367.073z M554.93,369.948c-0.056-0.009-0.104-0.021-0.157-0.035
		c0.041-0.456,0.077-0.898,0.116-1.355c0.023-0.009,0.048-0.018,0.065-0.023c0.343,0.398,0.692,0.782,1.052,1.161
		C555.632,369.783,555.292,369.864,554.93,369.948z M364.165,576.246c-0.092-0.088-0.155-0.186-0.244-0.28
		c0.25-0.275,0.468-0.559,0.704-0.832c-0.078,0.196-0.149,0.392-0.236,0.598C364.314,575.904,364.24,576.076,364.165,576.246z
		 M348.351,577.96c0.039-0.013,0.069-0.039,0.103-0.055c1.292-0.858,2.359-1.65,3.217-2.318c0.018,0.399,0.067,0.791,0.232,1.184
		c0.119,0.369,0.856,1.682,2.179,3.101c-0.204,0.311-0.411,0.584-0.619,0.851C351.59,579.81,349.91,578.884,348.351,577.96z
		 M91.648,205.183c-1.373-0.206-2.887-0.445-4.474-0.667c3.54-0.336,7.067-0.612,10.558-0.834c-0.236,0.481-0.472,0.976-0.71,1.456
		c-0.377,0.218-0.759,0.419-1.134,0.646L91.648,205.183z M556.625,313.786c-1.394-1.618-2.469-3.18-2.898-4.437
		c-0.784-2.152-0.294-3.205-0.356-3.48c-0.065-0.605-1.293-1.661-3.148-2.493c0.974-0.513,1.952-1.025,2.938-1.5
		c0.599,0.543,1.189,1.091,1.771,1.634c2.351,2.231,4.544,4.347,6.245,5.755c0.82,0.682,1.511,1.191,2.02,1.535
		C561.053,311.752,558.854,312.747,556.625,313.786z M555.541,321.275c-0.283,0.026-0.562,0.064-0.869,0.101
		c0.147-0.101,0.287-0.2,0.441-0.312C555.254,321.135,555.399,321.207,555.541,321.275z M126.443,154.651
		c-0.09,0.128-0.178,0.25-0.265,0.378c-0.021-0.151-0.038-0.316-0.054-0.472C126.235,154.588,126.335,154.616,126.443,154.651z
		 M508.934,175.932c-0.939,0.004-1.896,0.004-2.894,0.018c2.284-0.537,4.405-1.037,6.075-1.439
		C511.023,174.988,509.955,175.466,508.934,175.932z M514.518,173.451c-0.141-0.032-0.347-0.081-0.512-0.118
		c0.245-0.007,0.488-0.025,0.733-0.078c0.031-0.019,0.086-0.031,0.126-0.049c-0.095,0.081-0.191,0.152-0.275,0.221
		C514.561,173.435,514.543,173.443,514.518,173.451z M512.108,172.877c-0.05-0.017-0.087-0.023-0.134-0.032
		c0.022-0.007,0.047-0.007,0.064-0.012C512.069,172.844,512.085,172.86,512.108,172.877z M547.74,297.701
		c0.285,0.158,0.579,0.357,0.866,0.549c-0.236,0.056-0.468,0.093-0.691,0.149C547.851,298.164,547.793,297.927,547.74,297.701z
		 M551.969,262.359c-1.136-0.459-2.352-0.784-3.594-1.046c3.83-2.155,7.749-4.04,11.146-5.474c-2.438,2.359-4.71,4.662-6.798,6.871
		C552.463,262.602,552.238,262.464,551.969,262.359z M119.006,152.865c-0.166,0.64-0.34,1.284-0.476,1.934
		c-1.194-0.175-2.506-0.319-3.899-0.394c-0.044-0.324-0.072-0.681-0.104-1.089C116.062,153.114,117.556,152.973,119.006,152.865z
		 M532.677,232.464c1.896-0.85,4.083-1.824,6.434-2.883c0.083-0.013,0.161-0.025,0.256-0.036c-2.942,1.759-5.815,3.613-8.349,5.421
		C531.504,234.165,532.052,233.327,532.677,232.464z M310.457,37.577c0.058-0.174,0.104-0.351,0.158-0.525
		c0.981,3.677,1.403,7.289,1.486,10.538c-1.125,0.35-2.249,0.685-3.39,0.991c0.521-2.84,0.757-5.618,0.809-8.205
		C309.84,39.448,310.16,38.508,310.457,37.577z M239.788,62.771c-1.642,0.696-3.274,1.269-4.837,1.75
		c-0.608-2.187-1.257-4.469-1.939-6.879c0-0.076,0-0.154,0-0.216c1.623,1.161,3.231,2.381,4.791,3.668
		C238.476,61.631,239.136,62.205,239.788,62.771z M199.028,49.386c0.256,1.819,0.521,3.691,0.781,5.575
		c-1.434-2.993-2.683-6.483-3.166-10.226C197.402,46.191,198.208,47.763,199.028,49.386z M56.716,342.735
		c-0.047,0.627-0.065,1.258-0.101,1.884c-0.353-0.591-0.734-1.059-1.118-1.334C55.926,343.098,56.33,342.906,56.716,342.735z
		 M356.255,581.789c0.339,0.25,0.701,0.493,1.091,0.723c0.03,0.015,0.066,0.037,0.104,0.056c-0.493-0.22-0.954-0.437-1.432-0.656
		C356.099,581.872,356.176,581.83,356.255,581.789z M387.147,568.885c-0.085-0.413-0.134-0.794-0.201-1.199
		c0.56,0.3,1.134,0.556,1.743,0.794C388.142,568.558,387.626,568.697,387.147,568.885z M489.4,501.954
		c-0.225-0.017-0.518,0.006-0.842,0.044c-0.019-0.021-0.023-0.038-0.032-0.066c0.34-0.314,0.676-0.642,1.006-0.966
		C489.488,501.301,489.45,501.621,489.4,501.954z M552.84,385.206c0.124-0.715,0.228-1.443,0.337-2.166
		c1.109,1.073,2.258,2.142,3.436,3.2c-1.104,0.057-2.269,0.122-3.478,0.229C553.036,386.028,552.936,385.615,552.84,385.206z
		 M570.807,340.031c-2.722,1.154-5.754,2.408-8.953,3.699c-0.346-0.48-0.711-0.951-1.029-1.455c-0.413-0.619-0.8-1.248-1.18-1.877
		c0.664,0.066,1.32,0.105,1.965,0.122C565.863,340.563,569.62,340.121,570.807,340.031z M563.525,310.66
		c-0.363-0.498-0.86-1.225-1.413-2.197c-0.705-1.194-1.519-2.745-2.387-4.474c1.053,1.109,2.097,2.269,3.1,3.476
		c0.719,0.848,1.407,1.714,2.098,2.582C564.459,310.243,563.985,310.446,563.525,310.66z M477.058,109.025
		c3.804-1.199,6.84-2.218,8.835-2.896c-0.52,0.274-2.268,1.187-4.878,2.421c-0.866,0.103-2.209,0.307-3.878,0.729
		c-2.527,0.623-5.73,1.888-8.876,3.652l1.003-1.465C472.069,110.59,474.706,109.772,477.058,109.025z M449.53,84.251
		c0.73-0.512,1.402-1.015,2.094-1.519c-0.508,0.457-1.011,0.901-1.531,1.375C449.907,84.156,449.718,84.205,449.53,84.251z
		 M403.27,46.318c-0.817,1.506-2.296,3.956-4.646,6.655c-3.83,4.511-10.369,8.992-17.775,11.606
		c-0.238,0.084-0.483,0.15-0.729,0.229c1.554-1.349,3.265-2.786,5.123-4.283c2.927-1.837,5.813-3.871,8.453-6.25
		c0.802-0.709,1.56-1.437,2.302-2.183C398.678,50.014,401.168,48.052,403.27,46.318z M361.04,47.417
		c0.045,0.976,0,2.065-0.091,3.193c-1.724,1.021-3.404,1.955-4.945,2.693c-0.195,0.093-0.38,0.172-0.575,0.268
		c1.62-2.262,3.488-4.699,5.546-7.238C361.009,46.678,361.025,47.036,361.04,47.417z M351.915,37.426
		c1.354-1.125,2.533-1.909,3.339-2.404c-1.944,2.366-3.874,4.519-5.663,6.263c-3.909,3.89-7.065,6.036-7.666,6.551
		c-0.115,0.104-0.214,0.229-0.33,0.338c0.621-0.831,1.277-1.665,1.965-2.471C346.299,42.438,349.419,39.448,351.915,37.426z
		 M304.958,24.49c1.131,1.688,2.165,3.497,3.058,5.403c-0.057,0.385-0.118,0.784-0.19,1.207c-0.793,1.384-1.608,2.79-2.45,4.183
		c-1.783,2.953-3.668,5.791-5.502,8.346c0.96-4.755,1.791-10.067,2.825-15.153c0.333-1.655,0.708-3.28,1.134-4.861
		C304.197,23.889,304.579,24.185,304.958,24.49z M281.889,40.204c-0.744,4.386-2.008,8.627-3.433,12.464
		c-0.031-0.169-0.065-0.315-0.097-0.484c-1.016-5.45-1.136-12.95-0.393-20.383c0.109-1.218,0.25-2.429,0.399-3.627
		c0.801-2.068,1.567-4.028,2.318-5.776c0.254-0.62,0.5-1.194,0.743-1.773C282.923,25.86,283.142,33.124,281.889,40.204z
		 M280.873,18.821c-0.452,0.697-0.92,1.442-1.407,2.243c0.247-1.368,0.51-2.677,0.774-3.946
		C280.452,17.64,280.668,18.211,280.873,18.821z M229.953,33.683c0.082-0.75,0.177-1.455,0.279-2.115
		c1.655,2.446,3.702,5.59,5.761,9.101c-3.609-2.684-6.211-3.821-6.189-3.857c-0.038,0.017,3.016,2.146,6.524,6.305
		c1.384,1.621,2.785,3.57,4.084,5.757c1,2.018,1.95,4.041,2.774,5.994c-0.025,0.24-0.035,0.485-0.057,0.731
		c-2.468-2.141-4.543-4.712-5.812-6.899c-1.334-2.243-1.928-3.939-1.94-3.933c0.022,0-0.093,1.768,0.297,4.508
		c0.194,1.434,0.593,3.152,1.184,4.958c-1.856-0.975-3.709-1.875-5.536-2.7c-0.484-1.774-0.955-3.571-1.4-5.361
		c-0.043-0.153-0.069-0.313-0.109-0.469C229.495,41.28,229.563,37.074,229.953,33.683z M217.583,48.203
		c2.206,1.075,4.681,2.433,7.224,3.926c0.007,0.091,0.012,0.186,0.021,0.283c-0.09,1.684-0.141,3.383-0.135,5.052
		c-2.005-1.578-4.342-3.249-6.848-4.919c-0.195-1.384-0.385-2.89-0.563-4.48C217.39,48.105,217.477,48.146,217.583,48.203z
		 M197.168,40.972c-0.153-0.071-0.309-0.147-0.457-0.212c-0.087-0.106-0.184-0.225-0.274-0.334c0.013-0.312,0-0.626,0.021-0.95
		C196.701,39.97,196.934,40.469,197.168,40.972z M119.68,144.041c-1.579,0.353-3.203,0.788-4.878,1.268
		c0.072-0.611,0.148-1.221,0.242-1.83c0.047-0.325,0.106-0.634,0.166-0.947C116.755,143.006,118.252,143.513,119.68,144.041z
		 M81.859,171.393c0.684-1.53,1.849-3.631,3.829-5.807c1-1.131,2.21-2.212,3.585-3.249c0.278,0,0.559-0.007,0.837-0.007
		c7.694-0.019,15.443,0.36,21.086,1.391c2.953,0.494,5.168,1.175,6.711,1.762c-3.409,0.741-7.009,1.753-10.658,2.972
		c-4.14-0.069-8.924,0.115-13.609,0.705C89.408,169.689,85.306,170.514,81.859,171.393z M100.846,176.686
		c0.573-0.12,1.141-0.23,1.716-0.347c2.049,0.465,3.999,0.961,5.687,1.452c0.028,0.007,0.046,0.007,0.067,0.014
		c-0.437,0.128-0.843,0.247-1.274,0.372c-4.228,0.259-8.599,0.612-13.032,1.089c-1.299,0.019-2.599,0.043-3.875,0.078
		C93.538,178.379,97.167,177.469,100.846,176.686z M92.178,187.257c-0.949-0.396-1.877-0.768-2.817-1.152
		c2.466-0.097,4.92-0.147,7.355-0.174c-1.163,0.515-2.363,1.086-3.612,1.694C92.794,187.499,92.485,187.378,92.178,187.257z
		 M34.171,324.431c2.633-2.998,6.457-6.754,10.591-10.142c0.112-0.086,0.216-0.167,0.328-0.254c1.693-0.582,3.474-1.209,5.265-1.866
		c3.862-1.41,7.739-2.864,10.707-3.878c0.244-0.087,0.437-0.143,0.668-0.222c-0.041,0.175-0.071,0.348-0.111,0.531
		c-0.36,0.007-0.731,0.051-1.088,0.165c-0.679,0.195-3.861,1.451-7.917,3.656c-4.062,2.185-8.958,5.351-13.392,8.876
		c-3.362,2.589-6.386,5.412-8.858,7.928C30.931,328.432,32.217,326.632,34.171,324.431z M34.668,340.945
		c3.818-3.752,8.213-6.893,11.822-8.906c1.028-0.313,2.043-0.615,3.038-0.908c-4.6,4.404-11.273,11.087-15.277,15.092
		c-2.231,1.35-4.447,2.55-6.544,3.549C29.391,346.809,31.833,343.708,34.668,340.945z M26.1,353.159
		c0.025-0.056,0.069-0.126,0.085-0.19c0.859-0.128,1.747-0.284,2.676-0.464c-1.187,1-2.33,1.991-3.427,2.967
		C25.588,354.755,25.788,353.983,26.1,353.159z M30.668,363.914c1.601-3.184,4.331-7.111,7.619-10.469
		c0.146-0.141,0.292-0.265,0.434-0.41c3.771,0.259,9.458,0.624,13.498,0.81c-1.731,1.1-3.487,2.236-5.221,3.384
		c-4.187,2.754-8.292,5.401-11.491,7.166c-3.181,1.798-5.456,2.674-5.456,2.691c0-0.01,0.601-0.062,1.647-0.205
		c-0.2,0.127-0.402,0.262-0.604,0.396c-0.892,0.615-1.721,1.287-2.556,1.952C28.722,368.565,29.331,366.518,30.668,363.914z
		 M61.512,397.409c0.128,0.528,0.26,1.053,0.394,1.576c-1.199,0.158-2.262,0.575-3.092,1.175
		C59.706,399.238,60.594,398.309,61.512,397.409z M69.317,491.105c0.209-0.746,0.431-1.508,0.682-2.281
		c0.069-0.214,0.158-0.435,0.224-0.641c-0.144,0.704-0.271,1.376-0.38,2.022C69.661,490.541,69.497,490.801,69.317,491.105z
		 M112.169,511.051c-0.262,1.062-0.543,2.097-0.843,3.12c-0.371,0.266-0.75,0.517-1.125,0.79c-1.396,0.998-2.761,1.993-4.125,2.984
		C107.905,515.783,109.918,513.486,112.169,511.051z M120.273,516.272c0.419-0.189,0.819-0.377,1.231-0.568
		c-0.579,3.774-1.371,8.106-2.481,12.299c-0.622,2.396-1.401,4.72-2.215,6.907C116.902,534.087,117.834,525.628,120.273,516.272z
		 M169.475,564.935c2.717-5.457,6.038-10.5,9.008-14.34c-0.263,0.659-0.535,1.327-0.81,2.018c-2.226,4.16-4.805,9.134-7.557,13.934
		c-1.525,2.661-3.135,5.244-4.719,7.599C166.549,571.164,167.908,568.006,169.475,564.935z M194.053,571.226
		c-0.141-3.303,1.271-7.249,3.468-11.052c2.644-1.525,4.777-2.74,5.727-3.336c-2.265,4.37-5.408,10.601-8.52,16.626
		c-0.091,0.19-0.184,0.35-0.275,0.522C194.237,573.172,194.075,572.26,194.053,571.226z M207.512,578.872l4.403-4.153
		c-0.562,0.847-1.114,1.682-1.652,2.493C209.303,577.788,208.388,578.337,207.512,578.872z M230.59,577.2
		c-1.146,0.878-2.284,1.759-3.396,2.636c0.782-1.728,1.738-3.672,2.877-5.652c2.605-0.769,5.119-1.512,7.421-2.185L230.59,577.2z
		 M273.843,577.231c0.359-0.551,0.681-1.075,0.95-1.572c0.299-0.287,0.578-0.562,0.865-0.858c-0.041,0.134-0.049,0.268-0.068,0.393
		c-0.377,0.466-0.76,0.91-1.162,1.371C274.229,576.791,274.039,577.012,273.843,577.231z M289.51,579.443
		c-0.018-0.017-0.031-0.029-0.05-0.047c0.721-0.81,1.383-1.571,1.98-2.263c0.126,0.104,0.24,0.213,0.369,0.314
		C291.038,578.108,290.269,578.777,289.51,579.443z M306.378,582.812c-1.184-0.777-2.421-1.973-3.521-3.371
		c0.925-0.392,1.826-0.761,2.658-1.081c0.787-0.316,1.516-0.581,2.197-0.832c0.325,0.625,0.786,1.19,1.403,1.647
		c0.281,0.203,1.147,0.742,2.445,1.466c-1.333,0.999-2.665,1.971-3.968,2.896C307.213,583.345,306.807,583.108,306.378,582.812z
		 M327.722,579.225c0.196-0.103,0.414-0.214,0.596-0.311c0.964-0.518,1.839-1.009,2.632-1.468c0.299,1.131,0.974,2.216,2.042,3.054
		c-0.426,0.374-0.848,0.723-1.271,1.083C330.337,580.805,328.996,580.014,327.722,579.225z M410.56,563.906
		c0.377,0.064,0.754,0.115,1.134,0.164c0.142,0.085,0.284,0.159,0.436,0.251c0.198,0.178,0.415,0.358,0.633,0.54
		C411.975,564.587,411.231,564.256,410.56,563.906z M462.028,561.691c-6.216-1.885-14.496-4.929-21.587-9.669
		c-1.615-1.067-3.138-2.235-4.558-3.47c-0.832-1.661-1.438-3.153-1.868-4.445c0.094-0.146,0.149-0.332,0.225-0.5
		c1.925,1.437,4.871,3.439,7.876,5.067c4.83,2.734,9.735,4.632,9.73,4.632c-0.007,0-3.096-3.971-5.706-8.372
		c1.649,1.418,3.302,2.871,4.945,4.361c0.613,0.557,1.212,1.124,1.819,1.682c-0.155,1.936-0.234,3.113-0.27,3.124
		c0.024,0.016,0.404-0.902,1.031-2.419c4.217,3.929,8.192,7.778,11.332,10.872C464.064,562.286,463.084,562.009,462.028,561.691z
		 M468.412,543.706c-0.064-0.065-0.146-0.141-0.218-0.2c3.272,0.354,6.33,0.55,8.78,0.694l4.959,0.297
		c0.15,1.773,0.32,3.461,0.523,4.931c0.254,1.93,0.525,3.526,0.752,4.723C478.681,551.557,473.293,547.971,468.412,543.706z
		 M481.905,544.186l-4.574-1.696c-3.346-1.224-7.808-2.88-12.031-4.91c-1.424-0.67-2.772-1.409-4.07-2.165
		c1.302-2.372,2.653-4.552,3.938-6.398c0.998,0.55,1.994,1.083,3.022,1.602c0.185,1.694,0.359,2.802,0.359,2.795
		c0-0.011,0.323-0.875,0.872-2.192c0.861,0.425,1.716,0.866,2.588,1.257c3.215,1.444,6.438,2.745,9.474,3.895
		C481.562,539.106,481.702,541.744,481.905,544.186z M474.802,527.658c-0.941-0.675-1.826-1.375-2.735-2.068
		c0.352-0.672,0.72-1.357,1.106-2.032c0.638-1.135,1.303-2.261,1.953-3.319c0.197,0.146,0.415,0.291,0.628,0.44
		c0.258,4.485,0.754,7.967,0.761,7.95c-0.008-0.009,0.846-2.653,2.2-6.092c0.247,0.141,0.49,0.294,0.75,0.436
		c0.653,0.366,1.399,0.705,2.103,1.053c-0.068,2.588-0.113,5.32-0.134,8.08C479.244,530.712,476.999,529.214,474.802,527.658z
		 M490.723,519.622c0.207-0.786,0.413-1.528,0.6-2.24c0.771,0.662,1.566,1.299,2.355,1.915c4.034,3.182,8.269,5.757,12.195,7.834
		c-2.309-0.917-4.696-1.927-7.049-3.029C495.945,522.735,493.193,521.207,490.723,519.622z M497.485,515.226
		c-1.534-1.712-2.943-3.513-4.226-5.319c0-0.054,0.014-0.118,0.021-0.157c0.259-1.808-0.575-3.532-2.02-4.631
		c0.721-1.32,1.553-2.779,2.459-4.303c0.012,0.063,0.031,0.12,0.045,0.19c0.022,4.679,0.26,8.539,0.26,8.532
		c0-0.009,0.553-1.219,1.413-3.031c1.091,2.996,2.447,6.021,4.034,8.836c0.942,1.721,1.947,3.329,2.949,4.892
		C500.725,518.654,499.053,517.004,497.485,515.226z M516.746,484.664c-0.478-0.669-0.888-1.351-1.26-2.019
		c0.469-1.051,0.894-2.046,1.314-2.991c1.592,3.031,3.482,6.565,5.444,10.116c0.26,0.471,0.534,0.919,0.805,1.377
		C520.566,489.154,518.354,486.953,516.746,484.664z M549.676,440.248c-1.222-0.008-2.485-0.008-3.784,0.005
		c-0.413-1.527-1.549-2.805-3.099-3.467c-0.354-2.753-0.403-5.327-0.151-7.3c0.965,0.347,2.005,0.623,3.069,0.763
		c0.164,0.146,0.322,0.305,0.478,0.456c0.176,0.152,0.338,0.293,0.51,0.439C547.651,434.346,548.672,437.423,549.676,440.248z
		 M561.476,390.369c-2.284,0.415-4.671,0.818-7.103,1.166c-0.174-0.688-0.346-1.388-0.512-2.062c1.744-0.513,3.391-0.952,4.92-1.335
		C559.67,388.894,560.562,389.642,561.476,390.369z"/>
	<g>
		
			<radialGradient id="SVGID_2_" cx="-567.9575" cy="678.8496" r="79.4421" gradientTransform="matrix(-1 0 0 -1 -310.7432 937.8828)" gradientUnits="userSpaceOnUse">
			<stop  offset="0" style="stop-color:#ED6A36"/>
			<stop  offset="0.2003" style="stop-color:#E66032"/>
			<stop  offset="0.5191" style="stop-color:#D64A29"/>
			<stop  offset="0.9144" style="stop-color:#BE2726"/>
			<stop  offset="1" style="stop-color:#B92025"/>
		</radialGradient>
		<path fill="url(#SVGID_2_)" d="M336.661,259.037c0-43.888-35.571-79.441-79.448-79.441c-43.873,0-79.445,35.553-79.445,79.441
			c0,43.868,35.573,79.435,79.445,79.435C301.09,338.472,336.661,302.905,336.661,259.037z"/>
		
			<radialGradient id="SVGID_3_" cx="658.6924" cy="641.3857" r="97.8972" gradientTransform="matrix(1 0 0 -1 -384.3643 937.8828)" gradientUnits="userSpaceOnUse">
			<stop  offset="0" style="stop-color:#FFFFFF"/>
			<stop  offset="1" style="stop-color:#F6F6F6"/>
		</radialGradient>
		<path fill="url(#SVGID_3_)" d="M320.772,259.037c0-35.109-28.452-63.557-63.56-63.557c-35.105,0-63.554,28.453-63.554,63.557
			c0,35.084,28.45,63.549,63.554,63.549C292.322,322.586,320.772,294.121,320.772,259.037z"/>
		
			<radialGradient id="SVGID_4_" cx="624.9756" cy="666.5928" r="46.8938" gradientTransform="matrix(1 0 0 -1 -384.3643 937.8828)" gradientUnits="userSpaceOnUse">
			<stop  offset="0" style="stop-color:#585857"/>
			<stop  offset="1" style="stop-color:#3D3D3C"/>
		</radialGradient>
		<path fill="url(#SVGID_4_)" d="M262.854,253.342c0-16.804-13.614-30.438-30.432-30.438c-16.817,0-30.437,13.634-30.437,30.438
			c0,16.811,13.618,30.445,30.437,30.445C249.24,283.787,262.854,270.153,262.854,253.342z"/>
		
			<radialGradient id="SVGID_5_" cx="2633.6475" cy="-537.7729" r="40.1194" gradientTransform="matrix(0.2011 -0.1966 -0.3189 -0.37 -455.8572 569.2067)" gradientUnits="userSpaceOnUse">
			<stop  offset="0" style="stop-color:#FFFFFF"/>
			<stop  offset="1" style="stop-color:#F6F6F6"/>
		</radialGradient>
		<path fill="url(#SVGID_5_)" d="M244.203,240.995c-4.589-5.331-10.642-7.356-13.538-4.532c-2.89,2.853-1.528,9.443,3.067,14.775
			c4.589,5.322,10.649,7.347,13.545,4.497C250.174,252.927,248.787,246.325,244.203,240.995z"/>
	</g>
	<g>
		
			<radialGradient id="SVGID_6_" cx="-738.0732" cy="678.8496" r="79.4429" gradientTransform="matrix(-1 0 0 -1 -310.7432 937.8828)" gradientUnits="userSpaceOnUse">
			<stop  offset="0" style="stop-color:#ED6A36"/>
			<stop  offset="0.2003" style="stop-color:#E66032"/>
			<stop  offset="0.5191" style="stop-color:#D64A29"/>
			<stop  offset="0.9144" style="stop-color:#BE2726"/>
			<stop  offset="1" style="stop-color:#B92025"/>
		</radialGradient>
		<path fill="url(#SVGID_6_)" d="M506.778,259.037c0-43.888-35.571-79.441-79.45-79.441c-43.87,0-79.446,35.553-79.446,79.441
			c0,43.868,35.576,79.435,79.446,79.435C471.207,338.472,506.778,302.905,506.778,259.037z"/>
		
			<radialGradient id="SVGID_7_" cx="828.8096" cy="641.3857" r="97.8986" gradientTransform="matrix(1 0 0 -1 -384.3643 937.8828)" gradientUnits="userSpaceOnUse">
			<stop  offset="0" style="stop-color:#FFFFFF"/>
			<stop  offset="1" style="stop-color:#F6F6F6"/>
		</radialGradient>
		<path fill="url(#SVGID_7_)" d="M490.894,259.037c0-35.109-28.456-63.557-63.564-63.557c-35.104,0-63.556,28.453-63.556,63.557
			c0,35.084,28.455,63.549,63.556,63.549C462.439,322.586,490.894,294.121,490.894,259.037z"/>
		
			<radialGradient id="SVGID_8_" cx="795.0889" cy="666.5957" r="46.8881" gradientTransform="matrix(1 0 0 -1 -384.3643 937.8828)" gradientUnits="userSpaceOnUse">
			<stop  offset="0" style="stop-color:#585857"/>
			<stop  offset="1" style="stop-color:#3D3D3C"/>
		</radialGradient>
		<circle fill="url(#SVGID_8_)" cx="402.532" cy="253.342" r="30.432"/>
		
			<radialGradient id="SVGID_9_" cx="3092.7441" cy="-781.7197" r="40.1188" gradientTransform="matrix(0.2011 -0.1966 -0.3189 -0.37 -455.8572 569.2067)" gradientUnits="userSpaceOnUse">
			<stop  offset="0" style="stop-color:#FFFFFF"/>
			<stop  offset="1" style="stop-color:#F6F6F6"/>
		</radialGradient>
		<path fill="url(#SVGID_9_)" d="M414.32,240.995c-4.593-5.331-10.644-7.356-13.535-4.532c-2.889,2.853-1.524,9.443,3.069,14.775
			c4.582,5.322,10.651,7.347,13.546,4.497C420.286,252.927,418.913,246.325,414.32,240.995z"/>
	</g>
	<path fill="#5E1C10" d="M345.873,395.542c-17.642,2.27-84.864,14.07-69.738,39.909c11.973,22.06,61.124-0.636,78.772-1.262
		c15.124-0.633,29.617,7.553,44.738,8.191c17.02,0.632,31.26-10.53,15.129-24.582C390.406,396.588,352.885,395.078,345.873,395.542"
		/>
	<g>
		<g>
			<g>
				<defs>
					<path id="SVGID_10_" d="M345.873,395.542c-17.642,2.27-84.864,14.07-69.738,39.909c11.973,22.06,61.124-0.636,78.772-1.262
						c15.124-0.633,29.617,7.553,44.738,8.191c17.02,0.632,31.26-10.53,15.129-24.582
						C390.406,396.588,352.885,395.078,345.873,395.542"/>
				</defs>
				<clipPath id="SVGID_11_">
					<use xlink:href="#SVGID_10_"  overflow="visible"/>
				</clipPath>
				
					<linearGradient id="SVGID_12_" gradientUnits="userSpaceOnUse" x1="350.6895" y1="530.8594" x2="350.6895" y2="514.0833" gradientTransform="matrix(1 0 0 1 0 -88)">
					<stop  offset="0" style="stop-color:#C4566D"/>
					<stop  offset="1" style="stop-color:#C76B8C"/>
				</linearGradient>
				<path clip-path="url(#SVGID_11_)" fill="url(#SVGID_12_)" d="M389.998,441.192c0-8.504-17.597-15.397-39.309-15.397
					c-21.705,0-39.308,6.891-39.308,15.397c0,8.49,17.603,15.383,39.308,15.383C372.401,456.572,389.998,449.683,389.998,441.192z"
					/>
			</g>
		</g>
	</g>
	<g>
		<g>
			<g>
				<defs>
					<path id="SVGID_13_" d="M345.873,395.542c-17.642,2.27-84.864,14.07-69.738,39.909c11.973,22.06,61.124-0.636,78.772-1.262
						c15.124-0.633,29.617,7.553,44.738,8.191c17.02,0.632,31.26-10.53,15.129-24.582
						C390.406,396.588,352.885,395.078,345.873,395.542"/>
				</defs>
				<clipPath id="SVGID_14_">
					<use xlink:href="#SVGID_13_"  overflow="visible"/>
				</clipPath>
				<g clip-path="url(#SVGID_14_)">
					
						<radialGradient id="SVGID_15_" cx="339.168" cy="490.7246" r="7.0123" gradientTransform="matrix(1 0 0 1 0 -88)" gradientUnits="userSpaceOnUse">
						<stop  offset="0" style="stop-color:#FFFFFF"/>
						<stop  offset="1" style="stop-color:#F6F6F6"/>
					</radialGradient>
					<rect x="332.396" y="395.48" fill="url(#SVGID_15_)" width="13.545" height="14.488"/>
					
						<radialGradient id="SVGID_16_" cx="356.6084" cy="490.7246" r="7.0109" gradientTransform="matrix(1 0 0 1 0 -88)" gradientUnits="userSpaceOnUse">
						<stop  offset="0" style="stop-color:#FFFFFF"/>
						<stop  offset="1" style="stop-color:#F6F6F6"/>
					</radialGradient>
					<rect x="349.839" y="395.48" fill="url(#SVGID_16_)" width="13.539" height="14.488"/>
				</g>
			</g>
		</g>
	</g>
</g>
</svg>
