<?xml version="1.0" encoding="utf-8"?>
<!-- Generator: Adobe Illustrator 16.2.1, SVG Export Plug-In . SVG Version: 6.00 Build 0)  -->
<!DOCTYPE svg PUBLIC "-//W3C//DTD SVG 1.1//EN" "http://www.w3.org/Graphics/SVG/1.1/DTD/svg11.dtd">
<svg version="1.1" id="Layer_1" xmlns="http://www.w3.org/2000/svg" xmlns:xlink="http://www.w3.org/1999/xlink" x="0px" y="0px"
	 width="612px" height="612px" viewBox="0 0 612 612" enable-background="new 0 0 612 612" xml:space="preserve">
<g>
	
		<linearGradient id="SVGID_1_" gradientUnits="userSpaceOnUse" x1="303.7622" y1="698.5654" x2="303.7622" y2="119.8149" gradientTransform="matrix(1 0 0 1 0 -88)">
		<stop  offset="0" style="stop-color:#3AAA49"/>
		<stop  offset="1" style="stop-color:#B1CB35"/>
	</linearGradient>
	<path fill="url(#SVGID_1_)" d="M303.764,31.814c-103.301,0-187.05,57.214-187.05,222.26v246.304v29.826v49.555
		c0,17.015,13.795,30.805,30.806,30.805c17.023,0,30.809-13.791,30.809-30.805v-20.461c33.183,3.107,77.168,2.854,125.436,2.854
		c48.264,0,92.254,0,125.432-5.374v22.981c0,17.015,13.796,30.805,30.809,30.805c17.018,0,30.805-13.791,30.805-30.805v-70.345
		v-9.039V237.502C490.809,78.027,407.067,31.814,303.764,31.814z"/>
	<g>
		
			<linearGradient id="SVGID_2_" gradientUnits="userSpaceOnUse" x1="305.9829" y1="489.8262" x2="305.9829" y2="405.083" gradientTransform="matrix(1 0 0 1 0 -88)">
			<stop  offset="0" style="stop-color:#585857"/>
			<stop  offset="1" style="stop-color:#3D3D3C"/>
		</linearGradient>
		<path fill="url(#SVGID_2_)" d="M359.06,401.826c1.831-6.377,2.86-13.172,2.86-20.261c0-35.613-25.049-64.482-55.926-64.482
			c-30.895,0-55.948,28.869-55.948,64.482c0,7.087,1.024,13.881,2.854,20.261H359.06L359.06,401.826z"/>
		<g>
			<g>
				<g>
					<defs>
						<path id="SVGID_3_" d="M358.944,401.826c1.826-6.377,2.852-13.172,2.852-20.261c0-35.613-25.05-64.482-55.927-64.482
							c-30.888,0-55.941,28.869-55.941,64.482c0,7.087,1.028,13.881,2.847,20.261H358.944L358.944,401.826z"/>
					</defs>
					<clipPath id="SVGID_4_">
						<use xlink:href="#SVGID_3_"  overflow="visible"/>
					</clipPath>
					
						<linearGradient id="SVGID_5_" gradientUnits="userSpaceOnUse" x1="305.8613" y1="500.8867" x2="305.8613" y2="467.0449" gradientTransform="matrix(1 0 0 1 0 -88)">
						<stop  offset="0" style="stop-color:#BE2026"/>
						<stop  offset="1" style="stop-color:#C44966"/>
					</linearGradient>
					<path clip-path="url(#SVGID_4_)" fill="url(#SVGID_5_)" d="M329.289,381.324c-7.055,0-13.663,0.716-19.429,1.962
						c-7.21-2.623-16.82-4.241-27.425-4.241c-22.272,0-40.313,7.071-40.313,15.79c0,8.715,18.041,15.78,40.313,15.78
						c7.051,0,13.678-0.714,19.432-1.961c7.206,2.62,16.812,4.232,27.423,4.232c22.264,0,40.31-7.063,40.31-15.779
						C369.602,388.392,351.561,381.324,329.289,381.324z"/>
				</g>
			</g>
		</g>
		<g>
			<g>
				<g>
					<defs>
						<path id="SVGID_6_" d="M359.06,401.826c1.831-6.377,2.86-13.172,2.86-20.261c0-35.613-25.049-64.482-55.926-64.482
							c-30.895,0-55.948,28.869-55.948,64.482c0,7.087,1.024,13.881,2.854,20.261H359.06L359.06,401.826z"/>
					</defs>
					<clipPath id="SVGID_7_">
						<use xlink:href="#SVGID_6_"  overflow="visible"/>
					</clipPath>
					
						<radialGradient id="SVGID_8_" cx="301.0088" cy="410.1504" r="51.88" gradientTransform="matrix(1 0 0 1 0 -88)" gradientUnits="userSpaceOnUse">
						<stop  offset="0" style="stop-color:#FFFFFF"/>
						<stop  offset="1" style="stop-color:#F6F6F6"/>
					</radialGradient>
					<rect x="228.94" y="308.395" clip-path="url(#SVGID_7_)" fill="url(#SVGID_8_)" width="144.137" height="27.512"/>
				</g>
			</g>
		</g>
	</g>
	<g>
		
			<radialGradient id="SVGID_9_" cx="357.6982" cy="335.7754" r="42.0107" gradientTransform="matrix(1 0 0 1 0 -88)" gradientUnits="userSpaceOnUse">
			<stop  offset="0" style="stop-color:#B1CB35"/>
			<stop  offset="1" style="stop-color:#3AAA49"/>
		</radialGradient>
		<path fill="url(#SVGID_9_)" d="M357.695,205.765c23.203,0,42.014,18.808,42.014,42.01c0,23.201-18.812,42.012-42.014,42.012
			c-23.199,0-42.008-18.811-42.008-42.012C315.688,224.572,334.496,205.765,357.695,205.765z"/>
		
			<radialGradient id="SVGID_10_" cx="-275.0288" cy="315.958" r="51.7718" gradientTransform="matrix(-1 0 0 1 73.6211 -88)" gradientUnits="userSpaceOnUse">
			<stop  offset="0" style="stop-color:#FFFFFF"/>
			<stop  offset="1" style="stop-color:#F6F6F6"/>
		</radialGradient>
		<circle fill="url(#SVGID_10_)" cx="357.695" cy="247.774" r="33.61"/>
		
			<radialGradient id="SVGID_11_" cx="-267.0005" cy="329.2949" r="24.7988" gradientTransform="matrix(-1 0 0 1 73.6211 -88)" gradientUnits="userSpaceOnUse">
			<stop  offset="0" style="stop-color:#585857"/>
			<stop  offset="1" style="stop-color:#3D3D3C"/>
		</radialGradient>
		<path fill="url(#SVGID_11_)" d="M344.954,234.682c8.892,0,16.099,7.209,16.099,16.098c0,8.89-7.207,16.099-16.099,16.099
			c-8.887,0-16.098-7.209-16.098-16.099C328.856,241.891,336.067,234.682,344.954,234.682z"/>
		
			<radialGradient id="SVGID_12_" cx="-619.4531" cy="231.0078" r="21.2166" gradientTransform="matrix(-0.2011 0.1966 0.3189 0.37 145.1131 280.6781)" gradientUnits="userSpaceOnUse">
			<stop  offset="0" style="stop-color:#FFFFFF"/>
			<stop  offset="1" style="stop-color:#F6F6F6"/>
		</radialGradient>
		<path fill="url(#SVGID_12_)" d="M343.92,249.347c2.429,2.816,5.633,3.888,7.161,2.391c1.528-1.502,0.804-4.988-1.617-7.808
			c-2.435-2.812-5.635-3.882-7.169-2.381C340.762,243.039,341.495,246.531,343.92,249.347z"/>
	</g>
	<g>
		
			<radialGradient id="SVGID_13_" cx="254.2739" cy="335.7754" r="42.0107" gradientTransform="matrix(1 0 0 1 0 -88)" gradientUnits="userSpaceOnUse">
			<stop  offset="0" style="stop-color:#B1CB35"/>
			<stop  offset="1" style="stop-color:#3AAA49"/>
		</radialGradient>
		<circle fill="url(#SVGID_13_)" cx="254.274" cy="247.775" r="42.011"/>
		
			<radialGradient id="SVGID_14_" cx="-171.6045" cy="315.958" r="51.7719" gradientTransform="matrix(-1 0 0 1 73.6211 -88)" gradientUnits="userSpaceOnUse">
			<stop  offset="0" style="stop-color:#FFFFFF"/>
			<stop  offset="1" style="stop-color:#F6F6F6"/>
		</radialGradient>
		<circle fill="url(#SVGID_14_)" cx="254.274" cy="247.774" r="33.61"/>
		
			<radialGradient id="SVGID_15_" cx="-189.4282" cy="329.29" r="24.8" gradientTransform="matrix(-1 0 0 1 73.6211 -88)" gradientUnits="userSpaceOnUse">
			<stop  offset="0" style="stop-color:#585857"/>
			<stop  offset="1" style="stop-color:#3D3D3C"/>
		</radialGradient>
		<circle fill="url(#SVGID_15_)" cx="267.383" cy="250.78" r="16.095"/>
		
			<radialGradient id="SVGID_16_" cx="-410.1035" cy="119.7759" r="21.2246" gradientTransform="matrix(-0.2011 0.1966 0.3189 0.37 145.1131 280.6781)" gradientUnits="userSpaceOnUse">
			<stop  offset="0" style="stop-color:#FFFFFF"/>
			<stop  offset="1" style="stop-color:#F6F6F6"/>
		</radialGradient>
		<path fill="url(#SVGID_16_)" d="M266.347,249.347c2.428,2.816,5.633,3.888,7.165,2.391c1.524-1.502,0.798-4.988-1.623-7.808
			c-2.431-2.812-5.634-3.882-7.165-2.381C263.194,243.039,263.921,246.531,266.347,249.347z"/>
	</g>
	<g>
		<path fill="#32583D" d="M210.903,118.263c0.076,0.021,0.459-5.851,3.073-14.556c2.544-8.692,7.834-20.084,15.621-30.302
			c7.689-10.272,17.636-19.216,26.235-25.174c8.572-6.018,15.59-9.277,17.053-9.853c6.099-2.188,12.596,2.215,14.305,9.178
			c1.735,7.006-0.793,13.641-5.492,15.34c-1.183,0.468-7.26,1.654-15.426,4.671c-8.16,2.975-18.362,8.022-27.353,14.939
			c-9.04,6.827-16.627,15.548-21.242,22.888C212.992,112.715,210.962,118.308,210.903,118.263z"/>
		<path fill="#32583D" d="M393.249,136.87c-0.031,0.044-2.776-8.215-10.282-18.531c-7.363-10.376-19.31-22.639-32.918-32.852
			c-13.557-10.292-28.708-18.431-40.748-22.708c-12.091-4.439-20.587-4.999-22.23-5.311c-3.384-0.574-6.178-2.245-8.48-4.595
			c-2.255-2.355-4.101-5.439-4.428-9.044c-0.327-3.556,1.22-7.008,4.474-9.377c3.197-2.367,8.011-3.495,12.914-2.642
			c2.426,0.383,14.083,3.401,27.185,11.113c13.216,7.547,27.893,19.476,40.109,32.968c12.309,13.425,22.164,28.403,27.645,40.4
			C392.119,128.275,393.218,136.927,393.249,136.87z"/>
		<path fill="#32583D" d="M220.884,52.635c0.186,0.044-0.133-4.316,3.009-10.624c1.573-3.119,4.513-6.558,8.743-8.975
			c4.193-2.445,9.398-3.692,14.456-3.999c20.563-0.952,38.797,8.991,40.736,10.259c3.952,2.829,3.063,9.935-1.821,15.197
			c-4.91,5.292-10.712,7.863-13.482,5.889c-0.691-0.5-3.625-3.694-8.371-7.604c-4.714-3.853-11.296-8.472-18.29-10.776
			c-6.932-2.503-14.274-1.621-18.764,2.515C222.603,48.447,220.977,52.771,220.884,52.635z"/>
		<path fill="#32583D" d="M311.376,2.896c0.056,0.054-2.923,0.9-6.349,3.313c-3.5,2.36-6.394,6.582-6.827,11.11
			c-1.065,9.095,3.557,19.547,3.452,20.724c0.142,2.387-5.437,5.023-12.602,5.786c-7.142,0.764-13.227-1.118-13.397-4.327
			c-0.017-0.796,0.482-4.631,1.975-10.037c1.509-5.315,4.116-12.501,9.117-18.353c4.965-6.059,12.334-8.676,17.007-8.764
			C308.546,2.09,311.369,2.98,311.376,2.896z"/>
		<path fill="#32583D" d="M343.01,34.529c0,0.057-2.84-1.347-7.13-1.991c-4.309-0.699-9.741,0.038-14.313,2.419
			c-9.223,4.675-16.048,14.095-17.17,14.695c-2.062,1.412-7.275-1.957-11.622-7.684c-4.347-5.72-5.819-11.935-3.105-13.804
			c1.23-0.641,14.938-7.11,30.045-6.1c7.444,0.476,14.152,3.613,17.856,6.768C341.369,31.974,342.963,34.571,343.01,34.529z"/>
		<path fill="#32583D" d="M294.635,104.381c0.048,0.091-8.261-8.744-13.094-21.105c-5.181-12.083-6.543-26.345-6.234-27.877
			c0.467-3.223,6.729-4.593,13.741-3.122c7.07,1.478,12.37,4.559,12.044,6.896c-0.202,1.151-5.013,11.091-6.652,22.314
			C292.409,92.594,294.565,104.407,294.635,104.381z"/>
	</g>
	<path fill="#32583D" d="M402.774,201.533c-1.823,0-3.622-0.824-4.786-2.392c-0.188-0.243-19.225-25.139-41.169-22.865
		c-10.504,1.084-15.524,3.882-20.852,6.837c-7.163,3.984-14.568,8.099-32.203,8.099c-16.838,0-24.556-4.561-31.364-8.588
		c-5.733-3.39-10.688-6.316-21.971-6.316c-22.973,0-33.328,13.024-33.755,13.58c-2.013,2.596-5.75,3.104-8.354,1.113
		c-2.616-1.988-3.142-5.693-1.175-8.322c0.561-0.744,14.081-18.32,43.285-18.32c14.55,0,21.725,4.237,28.056,7.978
		c6.282,3.718,11.71,6.926,25.279,6.926c14.537,0,20.037-3.052,26.405-6.592c5.848-3.255,12.488-6.943,25.424-8.281
		c28.71-2.968,51.016,26.342,51.961,27.592c1.975,2.641,1.437,6.383-1.198,8.363C405.278,201.146,404.017,201.533,402.774,201.533z"
		/>
	<g>
		<path fill="#3D2A15" d="M357.897,302.375c-29.303,0-53.148-23.843-53.148-53.149c0-29.306,23.846-53.147,53.148-53.147
			c29.31,0,53.154,23.842,53.154,53.147C411.052,278.532,387.207,302.375,357.897,302.375z M357.897,204.041
			c-24.916,0-45.184,20.268-45.184,45.182c0,24.915,20.269,45.188,45.184,45.188c13.666,0,25.936-6.102,34.228-15.72
			c6.832-7.917,10.959-18.217,10.959-29.467C403.084,224.309,382.812,204.041,357.897,204.041z"/>
		<path fill="#3D2A15" d="M478.514,347.467c-1.263,0-2.574-0.139-3.906-0.445c-6.876-1.598-15.749-8.002-18.897-29.424
			c-4.623-31.466-61.96-34.746-62.546-34.773l0.283-3.977c2.521,0.125,61.801,3.5,66.907,38.254
			c2.971,20.252,10.981,25.033,15.489,26.076c4.648,1.075,12.878-2.238,14.967-4.552l-0.169,3.75
			C488.141,345.141,483.666,347.467,478.514,347.467z"/>
	</g>
</g>
</svg>
