<?xml version="1.0" encoding="utf-8"?>
<!-- Generator: Adobe Illustrator 16.2.1, SVG Export Plug-In . SVG Version: 6.00 Build 0)  -->
<!DOCTYPE svg PUBLIC "-//W3C//DTD SVG 1.1//EN" "http://www.w3.org/Graphics/SVG/1.1/DTD/svg11.dtd">
<svg version="1.1" id="Layer_1" xmlns="http://www.w3.org/2000/svg" xmlns:xlink="http://www.w3.org/1999/xlink" x="0px" y="0px"
	 width="612px" height="612px" viewBox="0 0 612 612" enable-background="new 0 0 612 612" xml:space="preserve">
<g>
	
		<radialGradient id="SVGID_1_" cx="337.9189" cy="187.6382" r="161.0122" gradientTransform="matrix(1 0 0 1 0 -88)" gradientUnits="userSpaceOnUse">
		<stop  offset="0" style="stop-color:#F7A71C"/>
		<stop  offset="0.1967" style="stop-color:#F5A120"/>
		<stop  offset="0.5096" style="stop-color:#F28F28"/>
		<stop  offset="0.8978" style="stop-color:#ED6F35"/>
		<stop  offset="1" style="stop-color:#EC6636"/>
	</radialGradient>
	<path fill="url(#SVGID_1_)" d="M496.584,483.882c-3.519,2.28-8.676,5.433-15.066,7.891c-6.367,2.469-13.977,3.984-21.316,3.058
		c-7.354-0.86-14.385-3.993-21.245-8.513c-13.806-9.092-26.677-23.273-41.553-34.274c-7.395-5.523-38.003-17.95-44.504-14.998
		c-2.888-39.032-20.279-67.434,15.262-84.193c72.271-22.8,115.145-92.633,115.145-172.448C483.306,81.874,403.438,2,304.9,2
		c-98.533,0-178.408,79.875-178.408,178.404c0,74.417,45.568,138.159,110.303,164.92c45.116,28.233,18.544,48.759,17.493,91.486
		c-0.016,0.735,0,0,0,0c-4.035,0.977-12.242,8.093-18.213,9.8c-6.801,2.011-14.799,4.5-23.525,8.295
		c-8.649,3.729-18.28,9.214-25.797,16.538c-7.591,7.272-12.541,15.536-15.994,22.907c-3.479,7.444-5.705,14.27-7.506,20.08
		c-3.482,11.62-5.176,19.259-5.227,19.272c0.025,0.037,5.454-5.783,14.034-13.82c8.431-7.856,20.906-18.353,32.462-20.473
		c5.72-1.174,11.308-0.89,17.297-0.168c5.972,0.744,12.158,1.978,17.793,3.176c1.545,0.338,3.02,10.129,4.455,10.443
		c1.536,9.603,3.723,18.997,5.72,27.896c3.974,17.049,6.75,33.02,5.403,45.347c-1.102,12.329-5.779,20.205-5.635,20.184
		c-0.187-0.086,7.643-4.644,15.355-16.635c7.927-11.796,13.762-30.548,18.021-48.34c1.156-4.812,2.316-9.521,3.5-14.045
		c0.775,3.123,1.539,6.499,2.301,10.117c1.725,8.104,3.453,17.271,6.164,26.785c1.374,4.751,3.01,9.604,5.181,14.346
		c2.092,4.593,5.05,9.835,8.461,13.661c6.825,7.98,15.766,11.634,23.006,12.628c7.357,1.028,12.652,0.137,16.418-0.452
		c3.723-0.662,5.74-1.251,5.74-1.229c0.017-0.014-2.077-0.478-5.542-1.612c-3.359-1.126-8.461-3.057-12.766-6.327
		c-4.355-3.186-8.046-8.29-8.954-14.039c-0.532-2.935-0.355-5.386-0.129-8.813c0.266-3.286,0.855-6.8,1.647-10.461
		c3.177-14.72,9.166-31.242,11.366-47.72c0.266-1.919,0.476-3.85,0.619-5.761c1.299,0.994,2.658,2.222,4.067,3.875
		c3.861,4.494,7.729,11.029,11.449,18.035c3.74,7.036,7.378,14.604,11.497,21.765c4.135,7.056,8.759,14.236,15.571,18.465
		c3.368,2.072,7.118,2.878,10.044,2.654c2.957-0.187,5.156-1.053,6.826-1.835c3.309-1.644,4.755-2.987,4.793-2.942
		c0.01-0.055-2.029,0.359-5.346,0.151c-3.345-0.151-7.684-1.766-9.32-5.666c-1.87-3.803-2.448-9.81-2.448-16.747
		c-0.021-6.945,0.484-14.839,0.677-23.247c0.101-5.267,0.067-10.764-0.331-16.481c2.854,0.927,5.789,1.903,8.922,2.938
		c9.493,3.097,20.284,6.536,31.961,8.315c11.601,1.851,24.336,1.532,34.954-2.119c10.674-3.541,18.568-9.661,24.047-15.218
		c5.521-5.644,8.988-10.862,11.309-14.494c2.287-3.667,3.398-5.817,3.404-5.81C502.021,480.042,500.094,481.545,496.584,483.882z"/>
	<g>
		
			<radialGradient id="SVGID_2_" cx="341.5938" cy="211.8184" r="195.9934" gradientTransform="matrix(1 0 0 1 0 -88)" gradientUnits="userSpaceOnUse">
			<stop  offset="0" style="stop-color:#FEC80A"/>
			<stop  offset="0.1939" style="stop-color:#FCC118"/>
			<stop  offset="0.5024" style="stop-color:#F8B126"/>
			<stop  offset="0.8851" style="stop-color:#F39439"/>
			<stop  offset="1" style="stop-color:#F1883C"/>
		</radialGradient>
		<path fill="url(#SVGID_2_)" d="M434.572,198.818c0,70.27-56.969,127.25-127.234,127.25c-70.267,0-127.245-56.978-127.245-127.25
			c0-70.267,56.976-127.239,127.245-127.239C377.604,71.579,434.572,128.551,434.572,198.818z"/>
		
			<radialGradient id="SVGID_3_" cx="334.7363" cy="226.8145" r="156.7956" gradientTransform="matrix(1 0 0 1 0 -88)" gradientUnits="userSpaceOnUse">
			<stop  offset="0" style="stop-color:#FFFFFF"/>
			<stop  offset="1" style="stop-color:#F6F6F6"/>
		</radialGradient>
		<circle fill="url(#SVGID_3_)" cx="307.334" cy="198.817" r="101.787"/>
		
			<radialGradient id="SVGID_4_" cx="333.7393" cy="247.6729" r="102.3023" gradientTransform="matrix(1 0 0 1 0 -88)" gradientUnits="userSpaceOnUse">
			<stop  offset="0" style="stop-color:#585857"/>
			<stop  offset="1" style="stop-color:#3D3D3C"/>
		</radialGradient>
		<path fill="url(#SVGID_4_)" d="M382.277,198.818c0,36.689-29.738,66.415-66.416,66.415c-36.673,0-66.417-29.725-66.417-66.415
			c0-36.67,29.745-66.41,66.417-66.41C352.539,132.405,382.277,162.144,382.277,198.818z"/>
		
			<radialGradient id="SVGID_5_" cx="2160.5811" cy="-65.8228" r="102.3078" gradientTransform="matrix(0.1904 0 0 0.3391 -75.345 195.8452)" gradientUnits="userSpaceOnUse">
			<stop  offset="0" style="stop-color:#FFFFFF"/>
			<stop  offset="1" style="stop-color:#F6F6F6"/>
		</radialGradient>
		<path fill="url(#SVGID_5_)" d="M345.271,186.792c0,12.444-5.664,22.536-12.654,22.536c-6.971,0-12.642-10.089-12.642-22.536
			c0-12.428,5.671-22.511,12.642-22.511C339.606,164.28,345.271,174.36,345.271,186.792z"/>
	</g>
	<g>
		
			<radialGradient id="SVGID_6_" cx="309.2314" cy="393.2871" r="22.8666" gradientTransform="matrix(1 0 0 2.4922 0 -952.7263)" gradientUnits="userSpaceOnUse">
			<stop  offset="0" style="stop-color:#FEDC00"/>
			<stop  offset="0.2081" style="stop-color:#FFD702"/>
			<stop  offset="0.5394" style="stop-color:#FEC829"/>
			<stop  offset="0.9504" style="stop-color:#F7AD3E"/>
			<stop  offset="1" style="stop-color:#F7A93F"/>
		</radialGradient>
		<path fill="url(#SVGID_6_)" d="M340.883,27.417c0,9.133-14.173,16.531-31.656,16.531c-17.474,0-31.646-7.398-31.646-16.531
			c0-9.116,14.171-16.517,31.646-16.517C326.71,10.901,340.883,18.303,340.883,27.417z"/>
		
			<radialGradient id="SVGID_7_" cx="309.2314" cy="337.3564" r="22.8669" gradientTransform="matrix(1 0 0 1.9002 0 -609.6958)" gradientUnits="userSpaceOnUse">
			<stop  offset="0" style="stop-color:#895F25"/>
			<stop  offset="0.2956" style="stop-color:#795522"/>
			<stop  offset="0.7277" style="stop-color:#64481C"/>
			<stop  offset="1" style="stop-color:#5C4319"/>
		</radialGradient>
		<path fill="url(#SVGID_7_)" d="M340.883,31.341c0,6.964-14.173,12.611-31.656,12.611c-17.474,0-31.646-5.646-31.646-12.611
			c0-6.948,14.171-12.594,31.646-12.594C326.71,18.747,340.883,24.392,340.883,31.341z"/>
	</g>
	<path opacity="0.12" fill="#010101" enable-background="new    " d="M357.068,359.777
		C357.068,359.777,362.741,352.611,357.068,359.777c-4.26,5.387-15.104,3.836-8.399,47.732c1.643,10.768,4.226,29.535,4.226,29.535
		S307.34,395.11,357.068,359.777z"/>
	<path opacity="0.1" fill="#010101" enable-background="new    " d="M382.236,555.554c-0.021,0.006-0.446-4.887-0.598-12.299
		c-0.229-7.392-0.293-17.344-1.603-27.016c-1.208-9.659-4.386-18.881-8.728-23.367c-4.192-4.574-8.524-5.308-9.342-5.702
		c-3.215-1.261-6.224-4.714-5.892-8.734c0.283-3.907,5.192-6.939,11.007-4.801c0.688,0.268,2.72,1.146,5.463,2.989
		c2.706,1.862,6.072,4.903,8.641,9.097c5.389,8.443,6.569,19.928,6.072,30.204c-0.47,10.391-2.25,20.168-3.365,27.477
		C382.694,550.688,382.216,555.54,382.236,555.554z"/>
	<path opacity="0.1" fill="#010101" enable-background="new    " d="M467.626,500.464c0.019-0.144-6.585,1.354-16.701-0.421
		c-5.014-0.896-10.795-2.791-16.597-5.71c-5.8-2.893-11.602-6.732-17.178-10.771c-11.093-8.165-21.784-16.583-30.82-20.769
		c-8.969-4.382-15.738-5.003-17.103-5.275c-5.382-1.037-10.141-3.974-10.4-8.002c-0.272-3.935,5.592-7.594,13.024-6.23
		c1.734,0.302,10.731,2.414,20.525,8.911c9.926,6.299,19.75,16.54,29.387,25.795c4.863,4.624,9.82,8.947,14.884,12.395
		c5.033,3.454,10.18,5.965,14.835,7.474C460.854,500.866,467.68,500.342,467.626,500.464z"/>
	<path opacity="0.12" fill="#797978" enable-background="new    " d="M171.533,514.238c0.058,0.031,1.647-4.086,5.667-9.569
		c3.913-5.496,11.146-11.987,20.221-15.547c8.988-3.704,18.843-4.833,26.301-5.188c7.514-0.331,12.839-0.049,13.938,0.062
		c4.403,0.528,7.44,4.258,6.867,8.206c-0.575,3.954-4.446,6.646-8.59,6.153c-1.034-0.105-5.964-1.243-12.726-2.229
		c-6.752-0.957-15.415-1.668-23.687-0.085c-8.299,1.436-15.878,5.745-20.654,10.15C174.035,510.552,171.573,514.285,171.533,514.238
		z"/>
</g>
</svg>
