<?xml version="1.0" encoding="utf-8"?>
<!-- Generator: Adobe Illustrator 16.2.1, SVG Export Plug-In . SVG Version: 6.00 Build 0)  -->
<!DOCTYPE svg PUBLIC "-//W3C//DTD SVG 1.1//EN" "http://www.w3.org/Graphics/SVG/1.1/DTD/svg11.dtd">
<svg version="1.1" id="Layer_1" xmlns="http://www.w3.org/2000/svg" xmlns:xlink="http://www.w3.org/1999/xlink" x="0px" y="0px"
	 width="612px" height="612px" viewBox="0 0 612 612" enable-background="new 0 0 612 612" xml:space="preserve">
<g>
	<path fill="#B73231" d="M316.729,248.445c0.163,0.274,0.329,0.547,0.489,0.818c4.302,7.272-1.022,2.254-1.844,9.629
		c-0.819,7.375-12.084,6.35-18.229,6.35c-6.146,0-17.515-3.481-17.515-3.481s-9.012-3.493-1.536-4.302
		c7.476-0.81,8.397-10.345-17.369-18.493v-0.002c-41.492-11.729-115.321-60.147-198.106,3.344
		c99.112-48.93,184.517,4.038,184.517,4.038s-13.086,21.918,1.316,53.793c0,0,14.586-34.915,45.899-21.053
		c31.316,13.856,45.463-25.13,45.463-25.13L316.729,248.445z"/>
	<path fill="#732728" d="M273.388,255.198c-7.476,0.809,6.241,6.563,6.241,6.563s11.369,3.481,17.515,3.481
		c6.146,0,17.41,1.025,18.229-6.35c0.821-7.375,6.146-2.357,1.844-9.629c-0.16-0.271-0.326-0.544-0.489-0.818l-11.077-2.646
		c0,0-6.743-11.936-23.305-5.661c-5.641,2.136-12.923,1.287-21.623-1.174v0.002C276.658,243.221,280.863,254.389,273.388,255.198z"
		/>
</g>
<path fill="#B73231" d="M391.405,237.176c-13.669-1.839-16.683,8.407-16.683,8.407l-23.23,13.986c0,0,17.613,27.084,38.926,11.047
	c21.319-16.031,38.543,7.884,38.543,7.884c8.706-19.733,37.81-16.017,37.81-16.017c13.358-57.524,79.274-66.205,79.274-66.205
	C455.29,157.978,418.272,240.787,391.405,237.176z"/>
<path fill="#732728" d="M250.558,249.77c0,0-88.828-56.391-187.94-7.461c0,0,90.24-8.484,119.337,49.083
	C181.956,291.392,212.828,249.77,250.558,249.77z"/>
<path fill="#732728" d="M247.135,246.347c-37.73,0-65.179,45.045-65.179,45.045s49.873-13.395,66.495,8.748
	C239.899,269.513,247.135,246.347,247.135,246.347z"/>
<path fill="#732728" d="M62.618,242.309c0,0,91.961-52.819,184.517,4.038l-7.975,3.423
	C239.16,249.77,170.211,197.163,62.618,242.309z"/>
<path fill="#732728" d="M546.045,196.279c0,0-54.82-16.852-97.921,17.419c-36.952,29.383-42.61,34.861-52.182,33.954
	c-10.373-0.984-10.666,3.15-12.182,6.405l6.361,12.344h9.615c0,0,17.025-3.366,29.224,12.099c0,0,9.357-18.273,37.81-16.017
	C466.771,262.484,479.32,209.915,546.045,196.279z"/>
<path fill="#732728" d="M226.674,235.477c26.354,11.465,46.119,18.71,56.681,14.293c10.563-4.422,19.308,4.893,19.308,4.893
	L291.76,278.63c0,0-26.568-3.168-43.309,21.51c0,0-8.871-26.896-3.486-51.383l-13.921-10.442"/>
<path fill="#989898" d="M377.248,520.521c-24.985-2.727-35.966-5.074-34.151-18.476c1.707-12.579,36.226-20.957,52.857-41.093
	c1.09-1.32,2.103-2.689,3.026-4.115c14.993-23.171,23.966-65.763-6.586-96.317c-8.847,70.717-40.052,103.288-63.691,119.526
	c-4.687,3.218-9.079,5.81-12.939,7.912c0,0,4.917,9.939-1.363,17.722c-6.967,8.633-19.686,18.932,2.122,28.169
	c21.807,9.237,41.646,4.394,59.214,14.538c17.567,10.146,11.057,25.897,11.057,25.897s9.992-1.065,13.932-13.025
	c0,0,2.727,5.301,1.97,10.447c0,0,8.177-3.937,9.54-10.447c0,0,3.784-0.23,3.784,2.953c0,0,3.183-0.533,3.183-15.676
	C419.201,533.394,402.239,523.248,377.248,520.521z"/>
<path fill="#B73231" d="M392.395,360.521c-2.121,16.938-5.532,31.669-9.805,44.526c-2.643,22.488-53.184,65.46-39.238,79.403
	c14.079,0.983,33.698-4.595,52.603-23.497c1.09-1.32,2.103-2.689,3.026-4.115C413.974,433.667,422.946,391.075,392.395,360.521z"/>
<path fill="#732728" d="M395.954,460.953c-11.312,11.312-24.926,17.941-34.188,19.487c-8.585,1.433-24.988,0-11.621-18.85
	l-6.794-1.431c19.853-20.122,36.955-35.679,39.238-55.113c-13.568,40.835-35.911,62.651-53.887,75
	c-4.687,3.218-9.079,5.81-12.939,7.912c0,0,4.917,9.939-1.363,17.722c-6.967,8.633-19.686,18.932,2.122,28.169
	c21.807,9.237,41.646,4.394,59.214,14.538c17.567,10.146,11.057,25.897,11.057,25.897s17.866-19.535-10.908-32.259
	c-27.874-12.325-36.988-25.5-3.39-22.043c-21.617-2.55-31.093-5.421-29.398-17.938C344.804,489.467,379.322,481.089,395.954,460.953
	z"/>
<path fill="#732728" d="M250.645,398.113c-117.518,40.394-194.453-16.771-194.453-16.771
	c21.81,53.309,142.505,150.385,242.82,114.179L250.645,398.113z"/>
<path fill="#EE6A6A" d="M365.041,240.71c-16.408-26.537-28.984,40.988-40.177,92.501c-11.189,51.518-44.841,75.091-44.841,75.091
	l-0.123,0.059c2.312,29.541-8.429,57.82-24.393,82.894l5.322,3.374c12.795,4.989,31.749,6.99,54.934-6.669
	c14.915-8.133,37.747-23.357,55.051-55.42C400.121,342.942,380.919,266.397,365.041,240.71z"/>
<g>
	<path fill="#DC3F3F" d="M249.507,432.836c5.728-2.107,10.75-4.259,15.181-6.438l-14.043-28.285
		c-117.518,40.394-194.453-16.771-194.453-16.771S137.515,474.03,249.507,432.836z"/>
</g>
<g>
	<path fill="#A5A5A5" d="M377.037,520.497c-1.02-0.109-1.99-0.226-2.968-0.336c0.605,0.067,1.187,0.13,1.815,0.207
		C376.273,520.416,376.65,520.454,377.037,520.497z"/>
	<path fill="#A5A5A5" d="M372.495,519.983c0.512,0.059,1.054,0.12,1.574,0.178C373.547,520.104,373.002,520.032,372.495,519.983z"/>
	<path fill="#B73231" d="M400.725,561.26c0,0,2.727,5.301,1.97,10.447c0,0,8.177-3.937,9.54-10.447c0,0,3.141,3.899,3.141,7.077
		c0,0,7.005-7.23,5.414-19.8c-1.902-15.023-18.55-25.289-43.541-28.016c-0.072-0.01-0.137-0.02-0.211-0.024
		c-0.387-0.043-0.764-0.081-1.152-0.129c-0.629-0.077-1.21-0.14-1.815-0.207c-0.521-0.058-1.062-0.119-1.574-0.178
		c-33.599-3.457-24.484,9.718,3.39,22.043c28.774,12.724,10.908,32.259,10.908,32.259S396.785,573.22,400.725,561.26z"/>
</g>
<g>
	<path fill="none" d="M428.554,336.5c0.26,0.096,0.526,0.173,0.796,0.23C429.085,336.673,428.821,336.591,428.554,336.5z"/>
	<path fill="none" d="M429.501,336.769c0.249,0.048,0.504,0.082,0.758,0.096C430.007,336.846,429.755,336.82,429.501,336.769z"/>
	<path fill="#B73231" d="M461.225,290.028c-23.625,10.38-30.062,29.835-30.062,29.835s-3.333-6.361-15.446-31.804
		c-16.913-35.51-30.288-26.959-30.288-26.959v27.017c30.648,25.754,35.166,45.415,43.126,48.382c0.268,0.091,0.531,0.173,0.796,0.23
		c0.05,0.014,0.1,0.028,0.151,0.038c0.254,0.052,0.506,0.077,0.758,0.096c0.14,0.01,0.276,0.034,0.418,0.034
		c1.795,0.038,3.55-0.716,5.332-2.497c15.051-15.052,23.852-19.311,23.852-19.311c6.7,9.314,2.385,24.991,2.385,24.991
		c11.472-6.818,11.472-16.699,11.472-16.699l2.387,8.177c8.518-6.588,9.312-12.608,9.312-12.608l2.161,5.68
		C511.426,289.193,484.849,279.653,461.225,290.028z"/>
	<path fill="#C2C1C1" d="M430.677,336.898c-0.142,0-0.278-0.024-0.418-0.034C430.398,336.879,430.54,336.894,430.677,336.898z"/>
	<path fill="#C2C1C1" d="M429.35,336.73c0.05,0.014,0.103,0.028,0.151,0.038C429.449,336.759,429.399,336.744,429.35,336.73z"/>
	<path fill="#732728" d="M428.554,336.5c-7.96-2.968-12.478-22.628-43.126-48.382v12.022
		C407.85,311.11,419.092,333.269,428.554,336.5z"/>
</g>
<g>
	<path fill="#732728" d="M400.725,550.511c0,0,2.346,2.271,0,10.749c2.419,5.926,1.97,10.447,1.97,10.447
		C410.153,557.664,400.725,550.511,400.725,550.511z"/>
	<path fill="#732728" d="M412.234,551.682c1.042,4.201,0,9.578,0,9.578c2.634,3.615,3.141,7.077,3.141,7.077
		C418.177,558.043,412.234,551.682,412.234,551.682z"/>
</g>
<path fill="#732728" d="M386.055,252.05l3.351,25.101C404.589,252.732,386.055,252.05,386.055,252.05z"/>
<path fill="#732728" d="M411.846,315.807c-13.774-19.801-14.377-57.51,5.895-23.502c0,0-10.748-26.507-25.005-32.648
	c-15.643-6.736-7.61,31.467-7.61,31.467s7.403,8.584,7.835,9.017"/>
<path fill="#732728" d="M473.717,323.383c2.274-9.881-1.021-18.173-1.021-18.173s9.653,10.597,3.407,26.35"/>
<path fill="#732728" d="M485.415,318.951c2.464-9.463-0.868-19.46-0.868-19.46s7.04,9.925,3.029,25.14"/>
<g>
	<path fill="#DC3F3F" d="M366.783,179.509c-21.912-0.24-15.56,46.236-43.445,31.616c-11.691-6.126-21.26-6.86-26.715-6.573
		c21.45,10.664,13.435,38.468,4.905,43.826c-10.601,6.664-2.122,14.841-2.122,14.841l-1.513,19.084c0,0-0.607,16.958-35.74,39.98
		C227.018,345.3,182.04,377.56,182.04,424.809c0,10.567,1.58,19.531,3.889,27.237c15.683,41.362,57.538,37.2,75.773,10.779
		c8.916-12.915,8.484-4.71,5.603,7.058c9.065-19.354,14.274-40.1,12.596-61.522l-39.795,19.026l39.917-19.085
		c0,0,35.063-23.573,46.252-75.091c11.192-51.513,22.357-119.038,38.766-92.501c15.878,25.687,35.08,102.232,5.773,191.829
		c9.754-18.071,17.758-41.474,21.58-72.019C392.395,360.521,404.515,257.149,366.783,179.509z"/>
	<path fill="#B73231" d="M222.821,564.572c0.02,0.029,0.039,0.054,0.062,0.078c12.771,14.994,21.27,29.988,11.787,39.471
		c0,0,12.265-2.276,17.565-12.421c0,0,2.729,7.571,0.759,15.901c0,0,12.267-1.82,16.053-13.934c0,0,1.21,4.394,0.454,8.782
		c0,0,15.448-4.994,15.448-24.079c0-13.616-9.245-24.966-20.304-34.746C222.701,507.952,188.886,524.675,222.821,564.572z"/>
</g>
<path fill="#732728" d="M240.106,484.819c1.527-1.128,2.573-1.704,2.573-1.704l12.829,8.139c4.389-6.896,8.359-14.035,11.797-21.371
	c2.881-11.768,3.313-19.973-5.603-7.058c-18.235,26.421-60.09,30.583-75.773-10.779c8.016,26.752,24.865,38.209,15.344,47.729
	c-12.267,12.268-19.538,22.561,0.908,43.009c6.827,6.827,14.298,14.348,20.703,21.866c-0.024-0.024-0.043-0.049-0.062-0.078
	c-0.946-1.113-1.827-2.198-2.655-3.26c28.068,31.051,14.505,42.809,14.505,42.809c12.267-5.935,8.046-25.293-3.231-41.771
	c-10.438-15.248-20.434-24.745-13.736-31.468c9.161-6.784,28.121-2.803,46.942,12.743c-16.49-14.592-37.02-25.701-37.02-35.673
	C227.625,495.66,235.809,488.002,240.106,484.819z"/>
<path fill="#EE6A6A" d="M371.05,252.655c0,0-9.285,113.545-9.285,117.179c0,3.636-2.372,38.785-6.119,42.534
	c-3.748,3.75-42.201,17.439-42.201,19.71l36.701,29.513C411.452,396.074,386.508,289.942,371.05,252.655z"/>
<g>
	<path fill="#B73231" d="M269.017,99.722c18.859,10.128,39.123,17.44,60.356,20.633c4.196,0.629,8.397,1.119,12.597,1.537
		c3.046-3.124,7.017-6.234,11.765-9.418c18.555-12.445,21.419-16.129,1.511-19.066c-19.909-2.936-24.664-9.523-18.044-39.562
		c4.761-21.582,8.765-53.081-9.581-20.545c-14.331,25.42-26.55,59.728-65.58,62.366C264.326,97.083,266.647,98.45,269.017,99.722z"
		/>
	<path fill="#DC3F3F" d="M385.425,100.572c19.69-13.329,22.719-17.266,1.518-20.295c-21.203-3.029-26.295-10.015-19.388-42.01
		c4.962-22.993,15.451-52.103-10.297-21.817c-25.746,30.291-58.898,73.219-94.267,73.219c-35.368,0-39.305,13.329-57.478,31.501
		c-4.367,4.369-12.608,5.618-22.162,6.904c-39.927,6.727-59.471,70.199-33.649,88.568c10.752,7.648,26.93-5.992,45.877-5.992
		c26.551,0,20.989-30.243,84.824-32.072c0,0-1.971,4.21-5.046,10.697c10.426-0.197,21.461,0.989,32.833,3.375
		c19.354,4.06,23.44,2.386,25.939-2.557c-2.589-0.348-4.876-3.015-3.054-5.84c4.117-6.388,7.862-13.722,14.344-18.082
		c6.174-4.148,13.114-6.179,20.557-5.613c1.219,0.091,2.141,0.625,2.782,1.366c0.341-0.086,0.691-0.136,1.058-0.089
		c1.96,0.259,4.008,0.432,5.89,1.073c1.229,0.42,2.338,0.991,3.459,1.567c17.983,1.707,9.902-7.864-4.641-22.407
		C358.471,126.013,365.737,113.895,385.425,100.572z"/>
	<path fill="#DC3F3F" d="M195.579,209.002c-18.948,0-22.625,12.005-33.378,4.357c-25.821-18.37-18.777-78.56,21.15-85.287
		c-17.215,2.324-38.713,4.772-49.621,25.807c-16.962,32.71-13.348,75.159,32.711,94.498c15.146,6.362,5.3-10.447,18.475-23.622
		c13.177-13.174,23.14,1.19,31.35-9.237c14.07-17.88,34.937-25.792,59.091-26.244c3.075-6.487,5.046-10.697,5.046-10.697
		C216.568,180.406,222.13,209.002,195.579,209.002z"/>
</g>
<path fill="#732728" d="M153.271,166.339c-2.823-2.468-8.92,0.758-9.955,6.813c-0.333,1.954-0.051,3.063,0.595,3.558
	c2.115,1.608,8.122-3.308,9.67-7.13C154.108,168.269,154.123,167.083,153.271,166.339z"/>
<path fill="#DC3F3F" d="M256.368,89.841c0,0-24.503-2.142-41.617,19.968c-17.111,22.115-35.356,13.357-60.083,24.779l-7.682,10.658
	c0,0-4.269,24.578,6.964,5.013c11.232-19.565,46.615-15.335,58.842-33.171C225.541,98.488,240.142,90.883,256.368,89.841"/>
<path fill="#732728" d="M252.995,607.602c0,0,14.002-14.841,2.346-29.681c0,0-0.524,7.869-3.104,13.779
	C252.236,591.7,254.932,598.215,252.995,607.602z"/>
<path fill="#732728" d="M269.048,593.668c2.722-8.819,1.925-12.343,1.925-12.343s8.292,9.919-1.471,21.125
	C269.501,602.45,269.842,596.731,269.048,593.668"/>
<path fill="#732728" d="M270.932,461.591c0,0,107.133,20.079,122.935-122.167c0,0,3.257,74.635-39.672,122.167
	c-44.35,49.103-82.956,30.901-101.131,30.901"/>
<path fill="#732728" d="M277.202,467.693c-12.93,33.446,36.242,25.418,60.835,5.291c0,0-34.161,33.378-88.53,29.221l8.632-23.555
	l4.316-7.274L277.202,467.693z"/>
<path fill="#732728" d="M277.032,387.557c0,0,7.951,65.195-34.314,95.559c0,0,6.542,6.985,18.149,11.513
	C303.091,443.135,277.032,387.557,277.032,387.557z"/>
<path fill="#732728" d="M369.31,184.463c-3.89-8.844-9.341-19.824-12.202-24.246c-2.569,0.994-6.173,2.415-8.508,4.72
	c-4.088,4.019-7.699,8.479-11.746,12.512c-8.066,8.042-19.146,8.253-29.845,10.327c-0.533,0.105-1.015,0.062-1.447-0.058
	c-0.132,0.004-0.258,0.02-0.399,0.009c-21.121-1.296-43.235-0.024-64.032,4.288c-0.476,0.096-0.912,0.091-1.313,0.004
	c-4.268,2.564-8.311,5.474-11.936,8.931c-3.983,3.783-7.293,8.844-11.501,12.281c-5.747,4.696-11.417,4.597-18.316,3.164
	c-0.639,0.612-1.513,1.018-2.656,1.018c-0.907,0-1.646-0.257-2.232-0.666l-1.205,0.687c-1.459,2.468-3.548,4.276-5.848,5.941
	c-0.55,0.398-1.131,0.797-1.709,1.21c-0.148,0.706-0.465,1.366-0.955,1.892c6.503,6.493,22.076,17.558,32.706,8.287
	c12.042-12.108,25.819-34.396,59.24-34.396c6.715,0,12.239,0.874,16.766,2.372c0.195,0.063,0.384,0.129,0.576,0.197
	c0.3,0.105,0.586,0.216,0.876,0.327c6.497,2.578,10.903,7.274,10.903,7.274s7.522-4.95,17.912,0.134
	c0.301,0.154,0.598,0.288,0.9,0.451c18.71,10.04,25.761,6.059,30.607-0.636c0.505-0.699,0.994-1.424,1.463-2.17
	c3.607-4.143,9.261-3.2,15.09,2.802l0.014-0.01c0.054,0.062,0.102,0.125,0.154,0.182c2.787,2.915,5.605,6.981,8.261,12.205
	c4.42,8.163,7.149,16.723,8.755,22.085C384.616,228.491,379.095,203.928,369.31,184.463z"/>
<path fill="#612121" d="M236.944,114.164c11.917-7.951,25.55-3.308,18.696,13.91c-4.544,11.417-25.423,14.197-31.038,8.579
	C220.824,132.872,224.372,122.552,236.944,114.164z"/>
<g>
	<path fill="#FFFFFF" d="M229.591,129.729c1.249,1.534,4.033,1.459,6.191-0.17c2.156-1.609,2.883-4.166,1.621-5.69
		c-1.265-1.527-4.045-1.452-6.203,0.17C229.046,125.658,228.316,128.212,229.591,129.729z"/>
</g>
<path fill="#732728" d="M306.742,256.76c5.493,5.867,3.125,27.588-3.267,52.771c-2.883,11.354-6.05,20.654-9.475,27.938
	c0.023,0.024,0.052,0.04,0.077,0.063c2.559,2.511,5.296,4.791,8.116,6.972c3.699-8.157,6.74-19.373,9.096-33.624
	C316.205,281.18,316.131,256.568,306.742,256.76z"/>
<path fill="#732728" d="M306.557,296.121c-5.029,20.785-17.824,20.646-19.481,43.092c-1.608,21.793,8.431-5.383,8.431-5.383
	s11.05-12.833,11.05-14.423c0-1.589,1.786-2.843,1.786-5.113"/>
<path fill="#612121" d="M342.115,160.87c-9.847,6.012-16.83,17.182-26.957,16.082c-42.024-4.581-77.047,2.823-99.954,29.806
	c-10.222,12.036-24.489-0.264-35.284,24.986l4.996-5.524c13.177-13.175,25.065,1.651,33.275-8.777
	c20.142-25.596,51.911-30.743,89.999-24.794c15.537,2.427,25.405-0.362,28.735-8.63c3.333-8.268,9.734-24.993,35.781-20.446
	c9.987,1.738,14.928,1.339,16.339-0.715C382.104,169.752,362.71,148.3,342.115,160.87z"/>
<path fill="#E14848" d="M338.982,320.799c-2.161-2.683-4.325-2.886-6.093-2.251c-1.037,0.372-1.923,1.029-2.6,1.646
	c0,0-0.02-0.035-0.031-0.052c-2.148-3.203-4.525-3.789-6.597-3.376c-1.019,0.202-1.947,0.653-2.754,1.156
	c-1.479-5.06-5.459-7.103-13.89-4.694c-1.825,0.522-3.534,1.269-5.126,2.201c0.536-1.908,1.064-3.86,1.583-5.898
	c6.392-25.183,8.759-46.904,3.267-52.771c-1.022,0.024-2.151,0.327-3.401,0.965c-5.87,2.986-13.631,14.99-20.899,42.933
	c-5.606,21.544-8.907,45.501-4.398,55.354c1.16,2.535,2.833,4.14,5.123,4.525c15.297,4.328,26.68-18.568,26.68-18.568
	s2.041,6.098,2.041,9.563c0,0,4.204-2.665,7.033-10.413c1.359,2.741,2.351,5.451,2.992,7.729c0.996,3.528,1.279,6.035,1.279,6.035
	c4.132-5.358,6.858-10.222,8.472-14.634c0.797,1.439,1.475,2.858,2,4.152c1.38,3.39,1.896,5.954,1.896,5.954
	C344.398,336.605,343.976,327.022,338.982,320.799z"/>
<path fill="#732728" d="M323.191,354.884c0,0,4.573-12.892-2.41-23.67c0,0,0.367,5.099-1.835,9.856
	C318.946,341.07,321.912,347.677,323.191,354.884z"/>
<path fill="#732728" d="M335.56,350.356c0,0-1.584-5.843-3.875-10.106c0,0,2.444-6.161,1.666-11.759
	C333.351,328.491,339.261,338.482,335.56,350.356z"/>
<path fill="#732728" d="M309.799,338.612l0.012-0.021c-0.065-0.106-0.138-0.171-0.202-0.271c-1.241-1.885-2.566-2.811-3.843-2.823
	c-1.82-0.014-3.537,1.817-4.73,5.67c-2.074,6.7-9.823,19.771-18.662,19.143c0,0,14.773,5.21,25.629-13.87
	c0,0,2.432,1.219,3.884,5.094C311.887,351.532,314.524,345.955,309.799,338.612z"/>
<path fill="#732728" d="M359.719,205.87"/>
<path fill="#732728" d="M361.748,205.87c11.806,0,32.502,47.491,32.502,114.786c0,0,3.031-58.826-17.282-117.756"/>
<path fill="#732728" d="M417.183,224.547c-9.548,7.65-20.069,13.247-25.396,12.017c-5.326-1.229-7.578,0-7.578,0l2.766,12.702
	c0,0,5.732,5.438,6.309,6.016c0.575,0.579,16.226-4.069,16.226-4.069l2.055-7.142C401.861,242.568,417.183,224.547,417.183,224.547z
	"/>
<path fill="#B73231" d="M389.436,80.127l-0.005,0.002c-1.137-0.3-2.342-0.612-3.7-0.946c-3.657-0.895-8.513-2.456-12.484-4.045
	c-10.161-4.064-9.064-13.213-5.377-33.8c3.687-20.588,6.76-34.646,5.915-36.758c-0.845-2.113-3.312-0.751-3.312-0.751
	c3.697-1.208-0.322,8.769-3.831,18.612c-12.035,33.75-19.238,51.479-11.37,56.386c6.529,4.071,20.835,2.549,31.996,3.879
	c12.56,1.498,14.452,4.15,4.091,8.983c-0.017,0.007-0.026,0.015-0.044,0.021c-9.271,4.288-37.311,18.706-39.062,26.959
	c-2.665,12.548,16.427,18,31.378,32.951c0,0-17.243-17.075-17.243-26.806c0-14.519,28.973-27.931,34.687-36.175
	c0.015-0.019,0.026-0.029,0.041-0.048C403.67,85.229,403.165,83.529,389.436,80.127z"/>
<path fill="#612121" d="M466.771,262.484c0,0-11.54-27.007-42.66-29.686c0,0,23.08-22.456,50.169-33.854
	c18.979-7.987,43.547-10.697,71.766-2.665C546.045,196.279,482.066,212.493,466.771,262.484z"/>
<path fill="#612121" d="M248.451,300.14c0,0,6.133-29.95-8.261-58.952c0,0,29.839,14.005,58.578,9.351c0,0-4.593,4.76-0.373,11.499
	c0,0-5.876,8.085-8.903,16.468C289.492,278.505,264.669,278.5,248.451,300.14z"/>
<path fill="#612121" d="M432.525,225.355c-15.165,12.642-27.163,24.078-43.12,22.537c0,0,9.082,4.508,24.138-2.31
	c15.057-6.817,27.631-15.729,27.631-15.729"/>
<path fill="#612121" d="M218.699,232.111c0,0,40.782,19.32,64.757,19.32l-18.326,2.134l-15.57-1.515
	C249.56,252.05,229.627,240.974,218.699,232.111z"/>
<path fill="#612121" d="M181.956,291.392c0,0,2.972-17.748,17.414-32.189c0,0-7.56,13.833-6.597,29.962
	C192.772,289.164,186.67,290.302,181.956,291.392z"/>
<path fill="#612121" d="M181.956,291.392c0,0,46.053-11.69,66.495,8.748l1.336-2.622c0,0-21.226-22.801-60.711-14.043"/>
</svg>
