<?xml version="1.0" encoding="utf-8"?>
<!-- Generator: Adobe Illustrator 16.2.1, SVG Export Plug-In . SVG Version: 6.00 Build 0)  -->
<!DOCTYPE svg PUBLIC "-//W3C//DTD SVG 1.1//EN" "http://www.w3.org/Graphics/SVG/1.1/DTD/svg11.dtd">
<svg version="1.1" id="Layer_1" xmlns="http://www.w3.org/2000/svg" xmlns:xlink="http://www.w3.org/1999/xlink" x="0px" y="0px"
	 width="612px" height="612px" viewBox="0 0 612 612" enable-background="new 0 0 612 612" xml:space="preserve">
<g>
	<path fill="#732728" d="M106.834,275.26c123.201-75.432,217.492,6.287,217.492,6.287l-2.24,25.709
		c-63.676-13.837-97.883,31.873-97.883,31.873C187.451,280.323,106.834,275.26,106.834,275.26z"/>
	<path fill="#732728" d="M106.834,275.26c0,0,110.104-56.671,193.427,6.397c83.324,63.071,0,0,0,0l-14.128,20.246
		C286.133,301.903,218.783,231.373,106.834,275.26z"/>
	<path fill="#612121" d="M224.203,339.13c0,0-1.109-47.918,29.916-78.943l39.088,17.639l17.718,11.296l-36.814,20.568
		C274.111,309.69,247.399,313.036,224.203,339.13z"/>
	<path fill="#B73231" d="M106.834,275.26c0,0,102.852-54.247,192.118,6.293l6.233-14.319
		C305.186,267.235,208.549,207.525,106.834,275.26z"/>
</g>
<path fill="#732728" d="M491.98,151.524c-106.657,17.201-120.365,109.505-120.365,109.505l18.768,24.989
	c34.007-29.189,64.818-23.886,64.818-23.886C443.272,203.446,491.98,151.524,491.98,151.524z"/>
<path fill="#B73231" d="M271.57,68.958c15.058,9.1,30.997,17.21,47.678,22.99c-0.802-12.969,0.351-26.148,1.024-38.722
	c1.572-29.277-7.581-44.742-17.84-42.465c-10.262,2.277-0.893,12.649-33.528,26.289c-10.218,4.267-18.369,6.835-26.213,12.564
	C250.852,57.7,262.501,63.467,271.57,68.958z"/>
<path fill="#732728" d="M455.201,262.132c0,0-20.716-34.856-66.106-34.856l-5.663,26.154l1.484,16.841l19.941,6.757
	C404.857,277.027,420.903,262.132,455.201,262.132z"/>
<path fill="#B73231" d="M491.98,151.524c0,0-108.346,31.654-108.346,125.503l-7.146-36.334
	C376.489,240.692,394.279,164.859,491.98,151.524z"/>
<g>
	<path fill="#CDCCCC" d="M244.736,510.717l11.403-30.733c-12.728,4.928-30.965,10.394-46.954,14.87
		C219.485,500.965,231.245,506.391,244.736,510.717z"/>
	<path fill="#DC3F3F" d="M278.816,418.852c-52.415,5.948-91.916-9.301-117.052-34.487c-4.085-4.091-7.681-4.47-10.356-2.111
		c-12.574,12.574,27.119,84.467,100.562,84.467c3.496,0,6.472,0.088,8.997,0.251l11.277-30.417L278.816,418.852z"/>
	<path fill="#CDCCCC" d="M260.966,466.971l-4.827,13.013C272.573,473.618,279.787,468.167,260.966,466.971z"/>
	<path fill="#732728" d="M151.408,382.253c-11.851,10.463-5.454,75.069,57.777,112.601c15.989-4.477,34.227-9.942,46.954-14.87
		l4.827-13.013c-2.525-0.163-5.5-0.251-8.997-0.251C178.526,466.72,138.833,394.827,151.408,382.253z"/>
</g>
<g>
	<g>
		<path fill="#732728" d="M407.273,516.646c0.156,0.051,0.301,0.088,0.454,0.135C407.574,516.731,407.43,516.697,407.273,516.646z"
			/>
		<path fill="#B73231" d="M366.537,485.547c-11.994,21.523,36.805,17.79,55.644-13.85c18.931-36.307-16.267-62.525-16.267-62.525
			l-37.228,69.401C369.488,479.047,369.024,481.086,366.537,485.547z"/>
		<path fill="#B73231" d="M407.728,516.781c-0.153-0.047-0.298-0.084-0.454-0.135c-32.626-9.886-37.697,8.881-15.369,27.065
			c14.968,12.187,6.971,20.601,6.971,20.601c13.705-0.987,16.354-12.092,16.354-12.092c13.145-0.946,7.96-15.876,7.96-15.876
			s12.28-14.548-8.633-18.044c-0.21-0.031-0.389-0.075-0.589-0.112c-1.88-0.238-3.859-0.671-5.962-1.329
			C407.912,516.835,407.824,516.81,407.728,516.781z"/>
		<path fill="#732728" d="M391.904,543.712c-22.328-18.185-17.257-36.951,15.369-27.065c-14.363-4.241-16.675-11.725-16.675-11.725
			c16.343-11.65,26.169-22.85,31.582-33.225c-18.839,31.64-67.638,35.373-55.644,13.85c2.487-4.461,2.951-6.5,2.149-6.974
			l-20.165,37.604c-7.014,16.729,24.44,15.344,45.447,35.605c7.788,7.505,4.906,12.53,4.906,12.53S406.872,555.898,391.904,543.712z
			"/>
		<path fill="#732728" d="M408.006,516.859c2.103,0.658,4.082,1.091,5.962,1.329c-2.287-0.398-4.37-0.874-6.24-1.407
			C407.824,516.81,407.912,516.835,408.006,516.859z"/>
		<path opacity="0.33" fill="#732728" d="M408.006,516.859c2.103,0.658,4.082,1.091,5.962,1.329c-2.287-0.398-4.37-0.874-6.24-1.407
			C407.824,516.81,407.912,516.835,408.006,516.859z"/>
	</g>
	<g>
		<path fill="#732728" d="M422.181,471.697c-5.569,9.351-13.758,16.246-22.219,20.791c-78.224,35.101,18.203-323.789,10.043-79.711
			c0,0,0.586,0.288-7.628-6.823c-8.227-7.117-20.286,52.035-20.286,52.035s-9.858,28.914-13.357,39.618
			c-4.147-2.018-5.548-6.053-2.196-12.061c2.487-4.461,2.951-6.5,2.149-6.974l-20.165,37.604
			c-7.014,16.729,24.44,15.344,45.447,35.605c7.788,7.505,4.906,12.53,4.906,12.53s7.997-8.414-6.971-20.601
			c-22.328-18.185-17.257-36.951,15.369-27.065c-14.363-4.241-16.675-11.725-16.675-11.725
			C406.941,493.271,416.768,482.072,422.181,471.697z"/>
		<path fill="#732728" d="M409.863,538.021c0,0,7.876,4.383,5.366,14.2c4.308-0.276,5.942-2.08,5.942-2.08
			C419.5,539.468,409.863,538.021,409.863,538.021z"/>
		<path fill="#732728" d="M416.733,528.426c0,0,4.708,1.435,6.456,7.919c2.03-1.598,2.463-4.022,2.463-4.022
			C422.359,528.663,416.733,528.426,416.733,528.426z"/>
	</g>
</g>
<g>
	<path fill="#B73231" d="M436.619,308.149c-10.388-13.934-25.807-24.716-30.405-18.758c-4.883,6.344,0.279,30.602,10.494,52.257
		c22.235,47.174,9.505,63.237,9.505,63.237c13.467-0.664,16.85-12.414,16.85-12.414c14.688-0.724,11.412-16.719,11.412-16.719
		s15.707-9.93-11.174-57.223C441.221,314.884,438.978,311.436,436.619,308.149z"/>
	<path fill="#B7B7B8" d="M371.424,284.624c2.497-3.22,9.789-11.099,14.103-15.707c-12.847-6.792-22.222-9.655-22.222-9.655
		l0.056,30.881c0,0,2.842,2.801,7.271,7.509C369.561,291.712,369.097,287.618,371.424,284.624z"/>
	<path fill="#732728" d="M418.084,341.577c-9.783-20.738-15.409-41.212-11.162-48.054c4.354-7.011,18.837,0.065,29.697,14.626
		c-15.359-21.455-35.84-35.323-51.302-43.487c-4.311,4.605-11.606,12.487-14.104,15.701c-2.33,2.998-1.867,7.095-0.792,13.028
		c14.124,14.999,44.548,49.529,51.825,75.949c6.438,23.338,3.966,35.545,3.966,35.545S440.322,388.75,418.084,341.577z"/>
</g>
<path fill="#DC3F3F" d="M335.703,148.764c-1.86-27.125,7.136-53.978,14.193-79.273c10.636-38.114,3.104-61.164-11.076-61.164
	c-14.182,0-4.874,16.399-51.857,24.819c-29.124,5.219-45.651,3.991-78.449,42.108c-32.798,38.114-58.507,73.127-58.507,115.232
	s29.252,85.099,48.307,85.099c10.168,0,14.034-8.076,21.345-19.043c14.999-23.726,47.136-33.475,53.119-47.878
	c0,0-2.885,11.243-21.831,24.703c-10.829,7.697-15.992,18.458-18.479,26.771c9.504,1.046,31.783-15.807,48.73-32.754
	c8.79-8.787,15.359-11.713,19.773-9.805c5.366-14.726,8.179-30.862,17.458-45.707C322.543,163.653,326.675,152.285,335.703,148.764z
	"/>
<path fill="#DC3F3F" d="M348.568,190.045c-8.204-13.717-11.922-27.532-12.865-41.281c-9.028,3.521-13.16,14.889-17.272,23.109
	c-9.279,14.845-12.092,30.981-17.458,45.707c7.445,3.208,8.752,20.171,4.163,46.04c-7.314,41.218-42.553,81.105-42.553,81.105
	s-27.501,75.64-22.285,128.339l22.285-41.429c0,0,51.859-6.812,67.813-85.087c14.444-70.861,50.141-79.204,72.059-46.603
	C388.97,249.94,365.178,217.825,348.568,190.045z"/>
<path fill="#EE6A6A" d="M412.837,383.287c0-32.635-4.063-59.941-10.382-83.342c-21.198-32.833-63.691-24.258-78.136,46.603
	c-15.954,78.274-61.736,85.087-61.736,85.087l-22.285,41.429c0.861,8.681,2.625,16.719,5.526,23.717
	c4.636,1.08,9.749,2.524,15.437,4.407C339.228,526.975,412.837,468.387,412.837,383.287z"/>
<path fill="#732728" d="M411.007,411.142c1.194-8.821,1.83-18.106,1.83-27.854c0,3.784-0.201,7.493-0.479,11.171
	c0.617-12.731,0.413-26.013-0.617-39.722c4.993,152.588-126.55,141.057-126.55,141.057l-9.842,9.145
	c-4.671-0.956-9.37-2.193-14.087-3.75c-5.688-1.883-10.801-3.327-15.437-4.407c5.172,12.471,14.009,21.577,28.062,24.791
	c8.311,1.901,16.612,2.807,24.788,2.813l0.034,0.024c0.172,0,0.329-0.013,0.501-0.013c0.983-0.003,1.967-0.044,2.948-0.078
	C370.594,522.793,403.511,476.306,411.007,411.142z"/>
<path fill="#525252" d="M216.622,190.969c6.735-1.278,14.805-9.436,11.863-18.727c-2.941-9.292-14.952-1.416-16.443,7.709
	C210.62,188.648,214.134,191.448,216.622,190.969z"/>
<g>
	<path fill="#FFFFFF" d="M221.512,179.438c1.479,0.511,3.151-0.777,3.718-2.879c0.57-2.102-0.169-4.213-1.648-4.721
		c-1.491-0.507-3.154,0.786-3.73,2.885C219.288,176.816,220.023,178.934,221.512,179.438z"/>
</g>
<path fill="#DC3F3F" d="M299.816,277.027c0,0-5.651-12.298,11.967-23.099c17.617-10.805,19.111,4.319,19.111,4.319"/>
<path fill="#732728" d="M491.98,151.524c0,0-60.085,20.478-91.555,82.906l-5.194-7.155
	C395.231,227.275,418.215,174.056,491.98,151.524z"/>
<g>
	<path fill="#DC3F3F" d="M235.339,550.281c-0.83,24.933,33.268,44.742,15.503,53.285c16.622,2.215,21.94-7.537,21.94-7.537
		c22.602,3.327,21.493-16.177,21.493-16.177c10.604-7.011,9.683-16.333,0.022-25.571
		C272.363,536.138,236.169,525.44,235.339,550.281z"/>
	<path fill="#DC3F3F" d="M300.077,463.073c0.329-22.188-12.227-39.896-12.227-39.896s17.286-113.461-44.765-64.265
		c-62.053,49.197-52.909,115.62-39.223,137.395C227.016,529.882,288.373,514.595,300.077,463.073z"/>
	<path fill="#732728" d="M285.19,499.85c10.986-12.217,14.714-25.116,14.886-36.776c-11.704,51.521-72.156,64.052-96.214,33.625
		c16.509,26.261,38.998,20.882,28.807,39.718c-10.197,18.84,0.667,37.012,14.848,48.533s3.324,18.617,3.324,18.617
		c27.974-9.085-9.529-25.803-9.529-50.748c0-19.5,29.91-14.209,52.984,1.463c-2.86-2.731-6.443-5.457-10.77-8.113
		C264.582,534.534,254.607,533.87,285.19,499.85z"/>
</g>
<path fill="#732728" d="M272.782,596.029c8.088-10.19,1.216-18.06,1.216-18.06s10.112,4.101,7.991,18.06
	C281.989,596.029,277.989,598.138,272.782,596.029"/>
<path fill="#732728" d="M294.275,579.853c0-11.299-7.756-14.071-7.756-14.071s8.537,0.304,12.189,10.29
	C298.708,576.071,296.881,578.8,294.275,579.853"/>
<g>
	<path fill="#DC3F3F" d="M338.82,8.328c-14.182,0-4.874,16.399-51.857,24.819c-2.333,0.417-4.577,0.79-6.763,1.15
		c25.644-3.963,22.68,3.906,4.323,12.815c-23.002,11.158-36.623,1.081-68.945,46.745c-32.325,45.663-43.12,92.499-23.908,129.876
		c20.045,38.991,33.69,19.128,53.022,8.74l-0.006,0.006c12.527-8.762,24.647-15.519,28.093-23.813c0,0-2.885,11.243-21.831,24.703
		c-10.829,7.697-15.992,18.458-18.479,26.771c9.504,1.046,31.783-15.807,48.73-32.754c8.79-8.787,15.359-11.713,19.773-9.805
		c5.366-14.726,8.179-30.862,17.458-45.707c4.112-8.22,8.244-19.588,17.272-23.109c-1.86-27.125,7.136-53.978,14.193-79.273
		C360.532,31.377,353.001,8.328,338.82,8.328z"/>
</g>
<path fill="#612121" d="M251.7,234.117c18.946-13.461,21.079-25.452,21.079-25.452c-5.983,14.403-38.12,24.152-53.119,47.878
	c3.894,2.86,8.204,3.925,12.809,3.596C234.957,251.826,240.871,241.814,251.7,234.117z"/>
<path fill="none" d="M250.948,233.368c18.946-13.46,21.831-24.703,21.831-24.703c-3.063,7.371-12.972,13.526-23.933,20.957
	c0.407,1.497,1.056,2.8,1.895,3.916C250.817,233.481,250.876,233.422,250.948,233.368z"/>
<g>
	<path fill="#5A1D1A" d="M215.929,202.459c6.676-1.56,14.397-10.046,11.067-19.206c-3.333-9.16-15.001-0.789-16.107,8.396
		C209.83,200.395,213.464,203.045,215.929,202.459z"/>
	<g>
		<path fill="#FFFFFF" d="M220.328,190.737c1.5,0.451,3.117-0.909,3.593-3.036c0.486-2.118-0.344-4.201-1.842-4.642
			c-1.51-0.445-3.12,0.911-3.605,3.035C217.997,188.209,218.821,190.299,220.328,190.737z"/>
	</g>
</g>
<path fill="#DC3F3F" d="M308.418,264.989c0,0-48.642,29.434-62.002,113.365c-5.82,36.531,10.272,40.776,10.272,40.776
	s12.818,18.231,30.42,12.85c0,0,9.558,10.444,30.374,0.126c0,0-23.729-10.989-30.383-48.643
	c-6.66-37.657,10.219-78.578,22.154-92.668C322.615,275.016,321.635,256.13,308.418,264.989z"/>
<g>
	<path fill="#A5A5A5" d="M301.909,428.941l-0.736-0.526C301.646,428.778,301.909,428.941,301.909,428.941z"/>
	<path fill="#732728" d="M290.381,382.012c-5.539-31.341,2.966-63.907,12.856-82.089c-41.315,72.729-10.381,122.045-1.328,129.019
		c0,0-14.836,4.986-22.367-10.081c0,0,0.52,5.714,3.656,9.526c0,0-22.604,2.343-28.093-19.215c0,0-2.901,10.936,8.254,18.66
		c11.528,7.976,23.494,5.206,23.494,5.206s15.525,11.767,32.573-0.958C319.427,432.08,297.038,419.669,290.381,382.012z"/>
</g>
<path fill="#732728" d="M393.183,270.934c0,0,7.91-10.748-5.817-14.209c0,0-8.451-20.885-17.805-34.863
	c-0.022-0.028-0.048-0.06-0.069-0.091c-9.893-16.295-21.133-33.099-27.185-49.513c-9.316-29.158,4.837-30.593,7.693-38.001
	c4.477-11.584-12.42-6.938-8.028-31.792c1.971-8.047,4.332-16.095,6.819-24.111c9.335-30.082,13.962-70.025-9.971-70.025
	c0,0,17.176,2.346,6.205,36.078c-10.97,33.729-53.185,56.997-41.547,100.875c10.159,38.324,2.211,58.836-21.552,81.391
	c0,0,29.365-28.206,25.502,19.767c6.857-7.85,7.546-20.368,7.155-32.31c0.04-18.708,8.057-39.971,33.486-11.478
	c0.621,0.705,1.244,1.407,1.858,2.127c0.103,0.122,0.21,0.254,0.316,0.379c28.187,33.293,47.069,78.462,52.21,94.789
	C401.781,296.734,396.378,278.396,393.183,270.934z"/>
<path fill="#732728" d="M280.392,497.322c27.341-24.829,12.051-63.497,12.051-63.497h6.071c0,0,20.302,33.146,1.563,76.892"/>
<path fill="#732728" d="M403.078,248.793c-24.258-8.542-12.232-38.486-12.232-38.486c-10.985,14.162-15.415,31.05-15.415,31.05
	l10.096,14.748c0,0,12.086,8.154,12.81,7.427C399.06,262.805,427.337,257.339,403.078,248.793z"/>
<path fill="#612121" d="M254.109,260.196c0,0,22.607,6.115,39.094,17.63l-26.417,2.951c0,0-9.924-7.475-10.325-7.875
	C256.061,272.5,254.109,260.196,254.109,260.196z"/>
<path fill="#612121" d="M455.201,262.132c0,0-10.513-46.137-55.224-43.361c0,0,27.165-49.861,92.003-67.247
	C491.98,151.524,445.979,202.569,455.201,262.132z"/>
<path fill="#612121" d="M388.48,250.037c0,0,0.226-20.766,19.66-43.208l15.425-2.794l5.213,2.794
	C428.778,206.829,398.229,223.814,388.48,250.037z"/>
</svg>
