<?xml version="1.0" encoding="utf-8"?>
<!-- Generator: Adobe Illustrator 16.2.1, SVG Export Plug-In . SVG Version: 6.00 Build 0)  -->
<!DOCTYPE svg PUBLIC "-//W3C//DTD SVG 1.1//EN" "http://www.w3.org/Graphics/SVG/1.1/DTD/svg11.dtd">
<svg version="1.1" id="Layer_1" xmlns="http://www.w3.org/2000/svg" xmlns:xlink="http://www.w3.org/1999/xlink" x="0px" y="0px"
	 width="612px" height="612px" viewBox="0 0 612 612" enable-background="new 0 0 612 612" xml:space="preserve">
<path fill="#732728" d="M355.35,195.567c-68.974-32.907-69.765-85.82-69.765-85.82c-0.047,2.878-0.271,5.668-0.625,8.405
	c0.761,12.263-40.816,124.088,1.416,150.063c56.009,34.47,45.859-10.222,39.483,49.422c-6.866,64.302,26.165,115.347-50.69,110.963
	c-73.657-4.204-128.623-58.463-127.744-128.203c-3.527,12.049-5.574,25.243-5.574,39.954c0,93.187,77.391,159.524,172.954,154.788
	c94.131-4.666,147.681-73.25,147.681-152.423C462.485,269.271,428.017,230.225,355.35,195.567z"/>
<path fill="#DC3F3F" d="M396.626,238.347c-43.96-50.029-94.461-44.113-111.041-128.6c-8.93,70.502-112.904,104.476-138.161,190.65
	c-2.477,7.532-3.869,15.182-4.359,22.826l-0.248,0.1c-9.962,112.97,112.438,172.058,206.751,130.34
	C429.45,418.338,461.837,312.583,396.626,238.347z"/>
<path fill="#5A1D1A" d="M246.704,401.493c0.437,7.479-5.503,13.896-13.23,14.339c-7.727,0.431-14.344-5.268-14.77-12.747
	c-0.424-7.473,5.492-13.896,13.23-14.326C239.673,388.316,246.291,394.014,246.704,401.493z"/>
<path fill="#FFFFFF" d="M239.697,398.645c0.177,2.913-2.153,5.414-5.155,5.586c-3.008,0.176-5.597-2.053-5.75-4.967
	c-0.177-2.914,2.141-5.409,5.137-5.58C236.954,393.513,239.543,395.73,239.697,398.645z"/>
<path fill="#5A1D1A" d="M349.552,387.119c0.425,7.479-5.509,13.891-13.241,14.339c-7.733,0.43-14.345-5.273-14.775-12.753
	c-0.425-7.473,5.503-13.89,13.241-14.32C342.51,373.937,349.121,379.64,349.552,387.119z"/>
<path fill="#FFFFFF" d="M342.539,384.271c0.152,2.913-2.147,5.414-5.161,5.586c-3.014,0.176-5.592-2.06-5.745-4.973
	c-0.177-2.914,2.141-5.403,5.144-5.574C339.784,379.139,342.362,381.356,342.539,384.271z"/>
</svg>
