<?xml version="1.0" encoding="utf-8"?>
<!-- Generator: Adobe Illustrator 16.2.1, SVG Export Plug-In . SVG Version: 6.00 Build 0)  -->
<!DOCTYPE svg PUBLIC "-//W3C//DTD SVG 1.1//EN" "http://www.w3.org/Graphics/SVG/1.1/DTD/svg11.dtd">
<svg version="1.1" id="Layer_1" xmlns="http://www.w3.org/2000/svg" xmlns:xlink="http://www.w3.org/1999/xlink" x="0px" y="0px"
	 width="612px" height="612px" viewBox="0 0 612 612" enable-background="new 0 0 612 612" xml:space="preserve">
<g>
	<g>
		<path fill="#5A1D1A" d="M187.191,314.313c1.605-48.066,51.362-278.194,285.687-219.084
			C255.628,19.475,171.613,235.55,170.575,331.672c-0.675,61.634,11.866,18.544,11.866,18.544l12.76,5.654
			c-0.122-2.164-0.166-4.25-0.169-6.308C190.178,341.578,186.66,330.258,187.191,314.313z"/>
		<path fill="#5A1D1A" d="M326.827,301.841c-12.057-165.438,238.858-175.549,238.858-175.549
			C229.657-21.684,188.796,266.247,187.191,314.313c-0.531,15.944,2.987,27.265,7.841,35.249
			C194.763,248.174,326.827,301.841,326.827,301.841z"/>
	</g>
	<path fill="#5A1D1A" d="M225.18,191.663c-50.795,88.967-30.147,157.899-30.147,157.899l-9.065,2.219l-10.078-44.95l8.017-27.089
		l8.804-38.889c0,0,6.717-21.014,8.925-23.976c2.211-2.958,9.334-14.77,9.334-14.77"/>
</g>
<path fill="#732728" d="M326.687,478.614c-19.373,0.266-39.08-0.42-57.885,4.211c0.951,5.716,5.317,13.88,16.285,21.592
	c15.592,10.961-2.463,31.76,16.889,27.089c19.348-4.679,25.861-25.254,24.726-50.347C326.661,480.27,326.684,479.45,326.687,478.614
	z"/>
<path fill="#5A1D1A" d="M194.659,393.654l1.103,9.457C216.947,393.687,206.848,402.238,194.659,393.654z"/>
<path fill="#732728" d="M224.576,479.878c0,0-4.236,16.437-3.202,30.388c1.034,13.952-14.275,15.865-30.815-12.942"/>
<path fill="#DC3F3F" d="M368.696,402.58c-22.684-22.684-44.734-78.681-164.218-78.681l-48.253,7.661
	c-29.871,13.019-78.583,8.423-101.561,72.301s6.434,117.186,55.606,142.002c49.172,24.815,43.657,4.596,45.955-2.758
	c0,0,7.199,2.604,10.57-7.507s34.315-71.072,130.821-43.5c0,0,0.305,18.383,18.688,26.04c18.382,7.658,0,31.864,18.996,25.735
	s23.915-27.143,20.834-52.08c-5.819-47.086,54.838-21.757,63.724-73.532C419.857,418.262,394.151,428.034,368.696,402.58z"/>
<g>
	<path fill="#5A1D1A" d="M131.664,491.657c8.617-5.597,17.869-24.41,5.953-33.059c-14.235-10.326-21.527,6.438-18.479,20.127
		C122.032,491.779,128.479,493.74,131.664,491.657z"/>
	<g>
		<path fill="#FFFFFF" d="M136.493,472.004c1.831-1.457,1.512-4.631-0.74-7.062c-2.226-2.431-5.529-3.199-7.346-1.737
			c-1.831,1.479-1.5,4.642,0.732,7.079C131.374,472.697,134.676,473.487,136.493,472.004z"/>
	</g>
</g>
<path fill="#DC3F3F" d="M257.172,467.61l-56.984,12.231c0,0,20.859,15.316,33.102,32.779S265.444,517.572,257.172,467.61z"/>
<path fill="#732728" d="M357.509,458.318c-9.421,18.842-0.557,19.99-0.557,48.698c0-33.992,6.416-44.103,33.76-52.145
	c27.343-8.043,29.146-36.61,29.146-36.61C403.622,455.181,366.93,439.477,357.509,458.318z"/>
<path fill="#732728" d="M365.307,450.822c-22.044,10.828-15.373,30.934-13.617,40.698c3.217,17.887,3.281,39.02-6.478,46.835
	c0,0,11.622-6.48,12.76-31.339c1.139-24.859,2.696-41.295,27.466-50.472"/>
<path fill="#732728" d="M253.42,443.843c0,0,14.706,71.632-8.501,76.257c0,0,14.207,2.097,20.68-28.001
	C271.321,465.495,253.42,443.843,253.42,443.843z"/>
<path fill="#732728" d="M262.152,492.899c0,0,15.854-6.318,35.662,1.688c0,0-0.966-13.779,5.698-26.977
	c0,0-4.596,4.035-9.766,11.848s-14.936-5.285-30.56-3.677"/>
<path fill="#732728" d="M156.225,543.105c3.676-22.059,5.037-22.974,5.037-22.974s1.21,9.561,3.486,19.656
	C164.749,539.788,162.084,544.829,156.225,543.105"/>
<path fill="#DC3F3F" d="M54.664,403.861c14.095-33.296,41.267-65.422,86.195-81.391c59.329-21.089,136.789-9.607,192.315,40.526"/>
<g>
	<g>
		<path fill="#DC3F3F" d="M213.669,301.841c10.426-57.685,111.047-326.425,383.185-213.764
			C348.242-41.638,208.79,204.107,190.559,319.835c-11.69,74.211,11.04,24.457,11.04,24.457l14.397,9.076
			c0.233-2.636,0.553-5.155,0.905-7.633C212.456,335.241,210.212,320.974,213.669,301.841z"/>
		<path fill="#732728" d="M397.651,293.447C374.796,86.469,596.854,88.077,596.854,88.077
			C324.716-24.584,224.095,244.156,213.669,301.841c-3.457,19.133-1.213,33.4,3.231,43.895
			C234.471,223.412,397.651,293.447,397.651,293.447z"/>
	</g>
	<path fill="#DC3F3F" d="M281.13,160.629C204.173,258.952,216.9,345.735,216.9,345.735l-11.324,1.062l-4.215-55.982l14.451-31.25
		l17.478-45.345c0,0,11.815-24.151,15-27.333s13.862-16.17,13.862-16.17"/>
</g>
<path fill="#732728" d="M224.576,312.425"/>
<path fill="#612121" d="M397.651,293.447c0,0-2.064-113.459-110.914-139.847c0,0,104.088-154.901,310.116-65.522
	C596.854,88.077,386.515,86.038,397.651,293.447z"/>
<path fill="#612121" d="M233.495,241.762c0,0,37.414-90.919,102.523-136.555l6.086,14.652
	C342.104,119.858,272.553,163.3,233.495,241.762z"/>
</svg>
