<?xml version="1.0" encoding="utf-8"?>
<!-- Generator: Adobe Illustrator 16.2.1, SVG Export Plug-In . SVG Version: 6.00 Build 0)  -->
<!DOCTYPE svg PUBLIC "-//W3C//DTD SVG 1.1//EN" "http://www.w3.org/Graphics/SVG/1.1/DTD/svg11.dtd">
<svg version="1.1" id="Layer_1" xmlns="http://www.w3.org/2000/svg" xmlns:xlink="http://www.w3.org/1999/xlink" x="0px" y="0px"
	 width="612px" height="612px" viewBox="0 0 612 612" enable-background="new 0 0 612 612" xml:space="preserve">
<g>
	<path fill="#DC3F3F" d="M207.672,567.549c-20.313-2.97-50.297,9.042-38.264,23.35c-8.729-12.262,20.194-15.742,40.376-8.541
		c10.996,3.921,26.629,10.167,17.443,15.266C239.638,592.369,238.502,572.059,207.672,567.549z"/>
	<path fill="#732728" d="M210.733,578.404c-21.015-5.195-50.054,0.232-41.325,12.494c12.033,14.304,45.409,11.977,57.819,6.725
		C236.414,592.524,231.53,583.545,210.733,578.404z"/>
</g>
<path fill="#DC3F3F" d="M254.446,148.903c-81.215,100.735-34.004,175.966-26.922,194.386c7.082,18.412,10.862,17.471-19.831,42.965
	c-32.142,26.708-42.81,70.53-36.313,108.212c3.205,18.624,10.583,35.75,21.674,48.562c25.308,29.226,67.561,41.217,104.837,25.033
	c4.874-10.898,21.879-24.201,37.107-28.736c11.073-13.595,18.281-29.031,22.003-44.858c9.215-39.159-2.973-80.7-31.26-102.545
	c-32.739-25.275-59.495-16.525-73.189-30.22c-22.232-22.228,16.332-238.747,197.352-346.595l2.864-2.197
	C452.768,12.909,335.665,48.165,254.446,148.903z"/>
<g>
	<path fill="none" d="M304.179,313.221c-0.808,0.296-1.577,0.586-2.367,0.881c1.531-0.507,3.058-1.058,4.582-1.682
		C305.656,312.685,304.919,312.957,304.179,313.221z"/>
	<path fill="#732728" d="M405.432,154.648c-3.367-70.713-52.561-86.922-113.639,41.445
		c-53.651,112.771-23.512,129.205,10.019,118.008c0.79-0.295,1.559-0.585,2.367-0.881c0.741-0.264,1.478-0.536,2.215-0.801
		c0.039-0.018,0.074-0.032,0.113-0.042c0.088-0.039,0.176-0.06,0.264-0.096c52.317-18.991,103.104-39.942,98.778-152.048
		C405.475,158.323,405.468,156.518,405.432,154.648z"/>
	<path fill="#5A1D1A" d="M413.614,78.847c10.852-39.4,32.128-60.073,39.153-65.938l-2.864,2.197
		C266.839,123.12,230.32,339.474,252.552,361.701c-5.995-6.944-1.411-21.776,19.316-33.915c7.688-4.508,17.548-9.085,29.944-13.685
		c-33.531,11.197-60.235-13.429-8.608-118.008c55.94-113.319,108.861-112.159,112.228-41.445
		C404.713,123.494,408.189,98.519,413.614,78.847z"/>
	<path fill="#A09F9F" d="M306.394,312.42c0.126-0.049,0.25-0.091,0.377-0.138c-0.088,0.036-0.176,0.057-0.264,0.096
		C306.467,312.388,306.432,312.402,306.394,312.42z"/>
</g>
<g>
	<path fill="#732728" d="M297.873,568.061c4.877-10.898,21.883-24.201,37.11-28.736c11.074-13.595,18.286-29.031,22.004-44.858
		c9.215-39.159-2.974-80.7-31.265-102.545c-32.734-25.275-59.494-16.525-73.188-30.22c-0.23-0.229-0.441-0.512-0.653-0.782
		c9.847,14.678,27.466,14.532,46.188,29.312c22.433,17.708,33.647,47.763,31.638,83.61c-4.196,74.973-102.985,110.088-138.95,66.325
		c0.761,0.96,1.492,1.944,2.278,2.86C218.347,572.253,260.6,584.244,297.873,568.061z"/>
</g>
<path fill="#5A1D1A" d="M274.601,507.655c5.181-0.011,9.395-4.701,9.395-10.471c0.004-5.762-4.204-10.417-9.381-10.396
	c-5.181,0.015-9.377,4.701-9.377,10.464C265.234,503.021,269.424,507.677,274.601,507.655z"/>
<path fill="#5A1D1A" d="M204.688,503.77c-4.419,1.53-6.637,6.75-4.952,11.669c1.675,4.913,6.63,7.657,11.06,6.126
	c4.409-1.53,6.634-6.754,4.948-11.666C214.062,504.979,209.107,502.242,204.688,503.77z"/>
<path fill="#FFFFFF" d="M278.611,493.976c-0.007,2.018-1.64,3.672-3.665,3.675c-2.021,0.007-3.667-1.637-3.664-3.653
	c0-2.024,1.643-3.672,3.667-3.676C276.974,490.312,278.611,491.951,278.611,493.976z"/>
<path fill="#FFFFFF" d="M211.41,510.77c-0.003,2.024-1.65,3.668-3.675,3.672c-2.017,0.01-3.664-1.623-3.664-3.647
	c0.007-2.024,1.647-3.672,3.671-3.679C209.771,507.105,211.41,508.745,211.41,510.77z"/>
<path fill="#DC3F3F" d="M299.22,554.404c17.87-22.909,43.206-31.729,54.812-20.923c11.598,10.812-5.055,38.574-32.344,43.903
	C294.399,582.717,284.37,573.456,299.22,554.404z"/>
<path fill="#732728" d="M299.746,557.837c16.356-19.722,34.791-24.165,45.311-14.947c10.516,9.215-0.092,30.541-24.966,35.229
	C295.239,582.809,286.133,574.242,299.746,557.837z"/>
</svg>
