<?xml version="1.0" encoding="utf-8"?>
<!-- Generator: Adobe Illustrator 16.2.1, SVG Export Plug-In . SVG Version: 6.00 Build 0)  -->
<!DOCTYPE svg PUBLIC "-//W3C//DTD SVG 1.1//EN" "http://www.w3.org/Graphics/SVG/1.1/DTD/svg11.dtd">
<svg version="1.1" id="Layer_1" xmlns="http://www.w3.org/2000/svg" xmlns:xlink="http://www.w3.org/1999/xlink" x="0px" y="0px"
	 width="612px" height="612px" viewBox="0 0 612 612" enable-background="new 0 0 612 612" xml:space="preserve">
<g>
	<path fill="#E7E755" d="M521.369,160.26c-40.623,8.538-109.659,6.647-200.137,139.55c-21.711,31.892-39.022,35.407-58.73,37.598
		c0,0,45.877,15.604,57.563,39.532c-23.043,19.102-64.085,7.345-106.847-7.88c-4.403,6.692-9.29,13.005-13.731,18.317
		c-7.741,9.255-14.115,15.499-14.115,15.499l3.235-42.891l0.874-12.566l-19.366,8.883l-92.528,46.574L61.898,349.93l-6.59-22.25
		c0,0-18.128,28.84-24.718,66.746c-6.59,37.904-5.773,91.471-5.773,98.061c0,6.597-9.064,19.776-9.064,19.776
		c9.89,4.122,24.727,7.422,24.727,7.422s26.904,20.14,61.518,20.14c34.607,0,91.751,18.944,198.049-79.945
		c31.75-29.533,38.32-62.911,97.102-80.039c0,0-73.781-3.384-80.361-39.678c-0.688-3.79-0.104-6.692,1.458-8.918l-0.025-0.007
		c50.492-77.949,148.756-104.786,148.756-104.786s-64.321,28.353-82.571,70.74c-18.243,42.374,129.226,53.535,187.912-70.649
		c12.999-27.504,23.508-62.205,29.904-106.15C602.222,120.392,585.651,146.748,521.369,160.26z"/>
	<path fill="#E7E755" d="M327.19,393.442c0.059,0.025,0.106,0.055,0.165,0.084C328.903,392.665,329.613,392.042,327.19,393.442z"/>
	<path fill="#B8AE34" d="M403.326,327.68c50.438,13.963,126.084-12.828,168.991-101.138
		c-58.273,119.939-193.411,104.767-175.168,62.392c18.251-42.387,69.827-62.482,69.827-62.482s-98.264,26.837-148.756,104.786
		l0.025,0.007C355.914,283.015,363.885,316.761,403.326,327.68z"/>
</g>
<path fill="#B8AE34" d="M97.511,537.08c-3.506,11.851-3.777,17.979-3.777,17.979l-6.322,8.936l6.922-1.445l-0.119,6.541
	l10.734-4.093l7.016,4.441l2.022-8.177c5.951-11.261,17.283-21.669,25.946-28.553C126.189,534.093,111.397,536.702,97.511,537.08z"
	/>
<g>
	<polygon fill="none" points="61.898,349.93 61.898,349.926 61.898,349.926 55.308,327.68 61.898,349.93 	"/>
	<rect x="61.898" y="349.926" fill="#D3C845" width="0" height="0.004"/>
	<path fill="#D3C845" d="M68.82,373.286l-6.922-23.36v0.004l15.689,52.947l92.528-46.574l-0.022,0.01
		C112.952,347.175,68.82,373.286,68.82,373.286z"/>
	<path fill="#B8AE34" d="M188.607,359.986l-3.235,42.891c0,0,6.374-6.244,14.115-15.499c4.441-5.312,9.328-11.625,13.731-18.317
		c-8.184-2.913-16.428-5.955-24.621-8.929L188.607,359.986z"/>
	<path fill="#FFFFFF" d="M189.62,346.571l0.007-0.09l-19.512,9.821l19.366-8.883l0.049-0.684
		C189.53,346.736,189.572,346.655,189.62,346.571z"/>
	<polygon fill="#FFFFFF" points="189.481,347.42 188.607,359.986 189.559,347.385 	"/>
	<path fill="#FFFFFF" d="M189.62,346.571c-0.048,0.084-0.09,0.165-0.09,0.165l-0.049,0.684l0.078-0.035L189.62,346.571z"/>
</g>
<g>
	<path fill="#8D8431" d="M109.362,479.465c-3.674-1.307-5.361-6.006-3.764-10.493c1.6-4.493,5.874-7.073,9.541-5.773
		c3.674,1.307,5.358,6.009,3.765,10.499C117.303,478.188,113.036,480.771,109.362,479.465"/>
	<path fill="#FFFFFF" d="M116.506,470.969c0,1.261-1.032,2.287-2.3,2.287c-1.271,0-2.303-1.026-2.303-2.287
		c0-1.258,1.032-2.284,2.303-2.284C115.475,468.685,116.506,469.711,116.506,470.969z"/>
</g>
<g>
	<path fill="#8D8431" d="M38.364,471.236c-3.135,0.639-6.306-1.964-7.074-5.8c-0.774-3.838,1.145-7.46,4.28-8.09
		c3.142-0.632,6.303,1.972,7.083,5.807C43.422,466.988,41.506,470.607,38.364,471.236"/>
	<path fill="#FFFFFF" d="M40.461,463.995c0,1.038-0.845,1.877-1.884,1.877c-1.048,0-1.897-0.839-1.897-1.877
		c0-1.032,0.849-1.874,1.897-1.874C39.616,462.121,40.461,462.963,40.461,463.995z"/>
</g>
<polygon fill="#D3C845" points="61.898,349.93 61.898,349.926 55.308,327.68 "/>
<path fill="#B8AE34" d="M371.98,312.961c-25.769-13.637-66.102,23.031-41.961,47.171c0,0-12.296-6.516-15.187-19.728
	c-2.89-13.212,24.851-46.693,56.293-65.046c31.442-18.354,9.767,30.572,9.767,30.572"/>
<path fill="#CCBF46" d="M263.912,481.564c0,0-19.415-19.389-43.755-21.511c-24.343-2.119,7.606,27.479,7.606,27.479
	s3.564,6.387,4.513,7.066"/>
<g>
	<path fill="#CCBF46" d="M331.555,415.547c-32.182,32.182-62.034,70.733-124.981,88.255c-27.449,5.587-38.723-3.616-38.723-3.616
		s2.735,27.662-48.348,30.966c-22.331,1.444-36.371,6.045-45.103,10.764c12.477,3.664,29.366,6.303,52.222,6.303
		c35.197,0,67.149-10.39,94.873-25.228c0.087-0.038,0.168-0.077,0.255-0.116c22.476-10.354,41.452-25.378,58.509-41.861
		c19.853-17.943,34.759-35.49,43.768-47.08c23.456-25.985,45.764-48.231,73.123-54.093
		C397.149,379.84,363.759,383.343,331.555,415.547z"/>
	<path fill="#CCBF46" d="M167.851,500.186c-1.858,26.631-56.979,25.854-78.71,25.108c-9.809-0.339-23.328,5.605-23.328,5.605
		c-2.67-3.738-14.247-8.192-25.333-11.215c0,0,5.303,13.828,33.92,22.23c8.732-4.719,22.772-9.319,45.103-10.764
		C170.586,527.848,167.851,500.186,167.851,500.186z"/>
</g>
<path fill="#E7E755" d="M183.321,490.615c0,0,36.3,26.495,49.109,55.086l2.083,11.609l10.215-5.555l14.631,6.703l0.426-9.151
	l10.547-1.861l-9.025-8.551c0,0-3.868-64.32-35.92-91.244"/>
<polyline fill="#B8AE34" points="68.82,373.286 77.587,402.877 91.944,395.648 72.71,371.215 "/>
</svg>
