<?xml version="1.0" encoding="utf-8"?>
<!-- Generator: Adobe Illustrator 16.2.1, SVG Export Plug-In . SVG Version: 6.00 Build 0)  -->
<!DOCTYPE svg PUBLIC "-//W3C//DTD SVG 1.1//EN" "http://www.w3.org/Graphics/SVG/1.1/DTD/svg11.dtd">
<svg version="1.1" id="Layer_1" xmlns="http://www.w3.org/2000/svg" xmlns:xlink="http://www.w3.org/1999/xlink" x="0px" y="0px"
	 width="612px" height="612px" viewBox="0 0 612 612" enable-background="new 0 0 612 612" xml:space="preserve">
<g>
	<path fill="#B8AE34" d="M349.896,192.769c-69.296-33.06-70.089-86.219-70.089-86.219c-0.048,2.892-0.273,5.694-0.629,8.444
		c0.765,12.319-41.005,124.665,1.422,150.762c56.271,34.63,46.072-10.27,39.666,49.651c-6.897,64.602,26.288,115.884-50.925,111.48
		c-74-4.226-129.222-58.736-128.338-128.801c-3.543,12.106-5.6,25.363-5.6,40.139c0,93.622,77.752,160.268,173.759,155.511
		c94.568-4.688,148.368-73.592,148.368-153.134C457.529,266.816,422.9,227.588,349.896,192.769z"/>
	<path fill="#E7E755" d="M391.364,235.748c-44.166-50.261-94.901-44.318-111.558-129.198
		c-8.972,70.83-113.431,104.962-138.804,191.537c-2.489,7.567-3.888,15.253-4.379,22.933l-0.249,0.1
		c-10.008,113.495,112.962,172.858,207.715,130.946C424.34,416.577,456.878,310.329,391.364,235.748z"/>
	<path fill="#8D8431" d="M240.744,399.653c0.438,7.514-5.529,13.961-13.292,14.405c-7.762,0.434-14.411-5.293-14.837-12.806
		c-0.427-7.508,5.517-13.961,13.291-14.393C233.681,386.415,240.329,392.14,240.744,399.653z"/>
	<path fill="#FFFFFF" d="M233.704,396.792c0.178,2.927-2.163,5.439-5.179,5.61c-3.022,0.178-5.624-2.062-5.778-4.99
		c-0.177-2.927,2.151-5.433,5.162-5.605C230.948,391.637,233.55,393.864,233.704,396.792z"/>
	<path fill="#8D8431" d="M344.07,385.212c0.426,7.515-5.534,13.954-13.304,14.406c-7.769,0.433-14.41-5.298-14.843-12.812
		c-0.428-7.507,5.527-13.955,13.303-14.389C336.995,371.968,343.639,377.698,344.07,385.212z"/>
	<path fill="#FFFFFF" d="M337.025,382.349c0.152,2.928-2.158,5.44-5.187,5.613c-3.027,0.179-5.616-2.068-5.771-4.995
		c-0.179-2.929,2.15-5.429,5.166-5.6C334.258,377.193,336.847,379.423,337.025,382.349z"/>
</g>
</svg>
