<?xml version="1.0" encoding="utf-8"?>
<!-- Generator: Adobe Illustrator 16.2.1, SVG Export Plug-In . SVG Version: 6.00 Build 0)  -->
<!DOCTYPE svg PUBLIC "-//W3C//DTD SVG 1.1//EN" "http://www.w3.org/Graphics/SVG/1.1/DTD/svg11.dtd">
<svg version="1.1" id="Layer_1" xmlns="http://www.w3.org/2000/svg" xmlns:xlink="http://www.w3.org/1999/xlink" x="0px" y="0px"
	 width="612px" height="612px" viewBox="0 0 612 612" enable-background="new 0 0 612 612" xml:space="preserve">
<g>
	<path fill="#A09834" d="M320.875,434.177c0.093,0.093,0.432,0.28,0.979,0.553C321.662,434.036,319.91,433.213,320.875,434.177z"/>
	<path fill="#A09834" d="M321.854,427.812c0.204,0.735-1.348,1.32-9.79-0.552L126.39,460.125c0,0-16.935,1.726,1.695,16.811
		c18.635,15.085,86.632,50.575,211.477,24.993C444.12,480.508,333.067,433.404,321.854,427.812z"/>
</g>
<path fill="#A09834" d="M380.672,492.553c0,0,88.446-20.25,117.003-96.124c28.556-75.877-59.44-7.118-63.219-3.345
	c-3.781,3.778-29.888,16.996-35.417,19.661"/>
<path fill="#CCBF46" d="M475.985,420.633c2.326-2.711,3.922-4.809,4.901-6.389c7.827-10.975,12.512-21.32,12.512-21.32l-3.77-42.611
	L179.646,453.186c-23.356-5.264-50.654-10.42-61.631-8.65l-7.425-3.488c0,0-0.222,0.521-0.378,1.471
	c2.154,4.531,28.538,54.854,136.959,54.854c0.258,0,0.495,0,0.746,0c4.528,0.146,9.008,0.213,13.415,0.191
	c0.183,0.002,0.382,0.007,0.56,0.012c1.427-0.007,2.702-0.032,3.852-0.071c20.258-0.363,39.054-2.367,55.536-5.04
	c0.068-0.005,0.117-0.01,0.117-0.01l0.003-0.01c39.968-6.492,66.259-16.84,66.259-16.84c2.034-0.701,3.878-1.449,5.545-2.196
	l-0.05,0.211c0,0,43.524-10.93,77.595-47.19c0.021-0.027,0.046-0.053,0.071-0.077C472.629,424.521,474.351,422.599,475.985,420.633z
	"/>
<path fill="#D3C845" d="M499.844,296.567c0,0,13.107-40.433,65.981-55.541c0,0-73.078-4.65-91.297-17.534
	c0,0,45.451-46.708,135.284-54.282c0,0-82.907-11.744-172.395,41.607c-23.101,13.773-36.117,19.105-36.117,19.105
	s52.117,5.776,76.553,17.773c0,0-5.775,14.66-45.762,15.995C392.104,265.021,499.844,296.567,499.844,296.567z"/>
<path fill="#E7E755" d="M565.825,241.026c0,0-78.198-9.771-96.417-22.655c0,0,43.339-44.564,140.404-49.161
	c0,0-82.907-11.744-172.395,41.607c-23.101,13.773-36.117,19.105-36.117,19.105s52.117,5.776,76.553,17.773
	c0,0-5.775,14.66-45.762,15.995c-21.045,0.697-1.181,9.767,22.369,18.205C496.856,244.581,561.055,240.398,565.825,241.026z"/>
<path fill="#E7E755" d="M82.193,350.771c0,0-31.987,28.881-50.206,44.533c-18.214,15.656-14.66,29.431-12.438,53.424
	c2.219,23.989-2.222,39.541-19.549,48.87c0,0,33.766,1.779,31.987,31.102c0,0,31.546-31.544,59.093-19.993
	c0,0-14.663-16.886-11.995-27.104c2.667-10.22,12.874-25.128,21.327-32.874c5.333-4.888,7.196,3.113,22.302,9.334
	c15.108,6.22,16.625,8.197,31.149,13.203l23.958,4.28c0,0,32.525,29.366,142.621,4.607c0,0,22.54-2.976,52.006-12.39
	c4.439-1.421,5.879-5.309,10.73-6.546c57.094-14.587,80.856-33.692,105.061-70.556c47.627-72.53-20.176-100.252-20.176-100.252
	s-155.172-103.852-351.385,32.772C105.23,331.15,93.726,341.073,82.193,350.771z"/>
<path fill="#E7E755" d="M116.015,324.306L31.987,529.822c0,0,31.544-31.544,59.093-19.992c0,0-15.325-16.887-12.658-27.104
	c2.667-10.222,12.874-25.13,21.327-32.877c5.333-4.886,7.196,3.117,22.302,9.336c15.108,6.219,16.623,8.199,31.152,13.202
	C153.203,472.388,166.521,360.415,116.015,324.306z"/>
<g>
	<path fill="#E7E755" d="M558.273,402.755c-6.01-8.16-7.836-11.342-7.836-11.342s2.946-3.077,2.946-9.096
		c0-3.501,0.926-9.152,2.251-15.315c4.554-23.824-4.155-49.2-36.479-65.3c-3.123-1.457-6.339-2.879-9.56-4.229
		c-1.668-0.648-3.044-1.208-4.185-1.696c-12.475-4.935-24.423-8.346-30.416-7.208l8.422,75.531c0,0-4.107,22.387,11.761,41.319
		c14.533,17.33,0.207,37.502,0.207,37.502s22.647-10.791,55.436,11.418c0,0,8.782-32.479,38.107-32.925
		C588.929,421.415,567.345,415.079,558.273,402.755z"/>
</g>
<path fill="#E0D84B" d="M116.015,364.241"/>
<path fill="#E7E755" d="M299.682,457.402c0,0,2.845,4.017,8.445,9.777c6.848,7.045,17.325,9.043,15.104,23.992
	c-2.31,15.537-5.33,36.434-16.882,44.43c0,0,40.876-2.221,57.755,25.325c0,0,17.773-27.103,56.873-27.103
	c0,0-29.324-27.992-29.324-40.876c0-12.882,11.013-27.103,11.013-39.099c0-11.994-39.448-59.979-56.329-57.313"/>
<path fill="#CCBF46" d="M480.012,307.597c0,0,6.695,30.938-32.045,57.001c-37.471,25.215-85.455,4.965-146.2-4.051l92.741-43.596
	l0.963-3.865"/>
<path fill="#A09834" d="M410.464,208.805c-0.08-0.131-0.146-0.214-0.146-0.214S410.371,208.669,410.464,208.805z"/>
<path fill="#A09834" d="M317.351,357.57c0.704,0.233,1.371,0.433,2.026,0.621C319.214,357.58,318.746,357.57,317.351,357.57z"/>
<path fill="#A09834" d="M309.623,355.457c3.174,0.934,6.386,1.726,9.605,2.001C315.417,355.589,313.287,355.462,309.623,355.457z"/>
<path fill="#8D8431" d="M412.359,349.646c0.765-0.178,1.527-0.368,2.295-0.536C413.887,349.277,413.124,349.468,412.359,349.646
	c-0.653,0.499-1.299,1.018-1.937,1.578C411.061,350.663,411.706,350.145,412.359,349.646c-17.919,4.129-35.924,9.868-55.758,12.007
	c0.312,0.049,0.624,0.083,0.94,0.148c-0.316-0.065-0.628-0.1-0.94-0.148c-0.396,0.043-0.779,0.109-1.177,0.148
	c0.397-0.039,0.78-0.105,1.177-0.148c-9.681-1.511-17.663,3.646-27.288-1.228c-3.332-0.768-6.336-1.203-9.937-2.233
	c0.083,0.313,0.088,0.773,0.088,1.492c0-0.719-0.005-1.179-0.088-1.492c-0.655-0.188-1.322-0.388-2.026-0.621h2.114
	c-0.083-0.042-0.153-0.071-0.236-0.112c-3.22-0.275-6.432-1.067-9.605-2.001c-0.245,0-0.475-0.002-0.732-0.002
	c0.258,0,0.487,0.002,0.732,0.002c-10.974-3.239-21.515-8.158-30.418,0.878c8.04,5.169,20.719,11.857,38.029,16.569
	c31.091,8.46,72.563,6.874,117.074-19.028c5.011-2.912,9.579-5.792,13.769-8.625C436.5,341.105,423.611,340.999,412.359,349.646z"/>
<path fill="#A09834" d="M488.975,288.348c-3.095-9.546-13.342-6.445-13.342-6.445s0,0,7.785-8.443
	c7.787-8.443,7.763-15.106-2.459-15.106c-10.216,0-22.681,1.688-39.797-13.773c-16.104-14.545-29.207-33.578-30.698-35.775
	c0.673,1.114,2.406,5.956-24.837-1.99c-30.465-8.884-51.288-29.768-60.615-47.541c-9.33-17.773-17.327-11.995-23.549,0
	c-6.221,11.995-12.44,23.546-54.203,46.208c-41.768,22.658-75.085,5.776-81.755-2.222c-6.662-8-15.549-9.775-16.438,5.331
	c-0.889,15.107-2.665,24.881-10.662,48.43c-8,23.549-33.322,37.765-43.542,35.987c-10.221-1.776-19.549-2.663-16.887,3.559
	c2.668,6.224,13.328,26.209,13.328,26.209s-14.229,3.556-14.229,14.219c0,24.882,38.939,27.246,38.939,27.246
	c47.809-29.175,152.833-15.622,152.833-15.622s3.503,3.307,10.357,7.716c8.904-9.036,19.444-4.117,30.418-0.878
	c3.664,0.005,5.794,0.132,9.605,2.001c0.784,0.067,1.569,0.112,2.353,0.112c-0.783,0-1.568-0.045-2.353-0.112
	c0.083,0.041,0.153,0.07,0.236,0.112h-2.114c1.396,0,1.863,0.01,2.026,0.621c3.601,1.03,6.604,1.466,9.937,2.233
	c-0.46-0.234-0.921-0.458-1.386-0.741c0.465,0.283,0.926,0.507,1.386,0.741c1.552,0.355,3.167,0.776,4.96,1.376
	c-1.793-0.6-3.408-1.021-4.96-1.376c9.625,4.874,17.607-0.283,27.288,1.228c19.834-2.139,37.839-7.878,55.758-12.007
	c11.252-8.646,24.141-8.54,35.717-4.395C486.726,319.101,491.766,296.962,488.975,288.348z"/>
<path fill="#8D8431" d="M139.142,316.562l9.388,24.481c0,0-7.008,1.322-7.802,1.322c-0.792,0-10.178-6.743-12.029-10.975
	c-1.851-4.228-7.866-16.46-8.594-17.186"/>
<path fill="#A09834" d="M348.324,220.169c0,0,29.2,4.796,52.977-13.761c23.774-18.555,28.223-14.47,27.068,13.761
	c-1.162,28.226,14.786,47.366,14.786,47.366"/>
<path fill="#CCBF46" d="M82.193,350.771c0,0,27.666,19.493,15.993,45.658c-3.34,7.483-7.598,13.276-12.112,18.426h0.002
	c-2.682,2.945-4.556,5.623-5.866,8.134c-22.9,37.809-17.232,56.218-1.291,72.189c3.308,3.57,7.442,7.69,11.374,14.361
	c0.265,0.1,0.526,0.181,0.787,0.291c-8.034-12.826-13.891-24.943-7.416-36.616c4.421-8.141,11.269-16.662,17.276-22.172
	c5.332-4.888,13.096,6.075,18.579,10.674c12.514,10.504,19.768,12.82,34.294,17.83C153.814,479.546,157.901,336.861,82.193,350.771z
	"/>
<path fill="#E7E755" d="M136.628,341.443c0,0,23.878-24.881,62.201-24.881s54.805,24.881,54.805,24.881s-45.473,38.654-89.46,34.655
	C120.188,372.098,136.628,341.443,136.628,341.443z"/>
<path fill="#CCBF46" d="M253.333,448.174c-1.124-1.461-2.205-2.939-3.17-4.496c-15.145,5.926-41.572,12.788-41.572,12.788
	s-39.731,18.556-39.032,18.729c0.697,0.173,21.071,7.045,21.071,7.045c8.543-2.608,20.124-6.504,29.079-8.186
	c27.965-5.251,40.158-15.024,45.173-24.115c-3.206-0.833-6.404-1.701-9.596-2.573C255.683,448.34,254.092,449.156,253.333,448.174z"
	/>
<path fill="#E7E755" d="M266.594,429.181l-153.517,0.675c-5.91,19.994,4.991,19.554,17.985,27.376
	c14.957,9.008,23.729,29.709,23.729,29.709s27.714-21.495,64.917-26.152C272.448,454.184,266.594,429.181,266.594,429.181z"/>
<path fill="#8D8431" d="M476.349,280.804c0,0-6.078,6.526-13.854,25.212c-3.806,4.816-8.694,10.164-14.963,15.861
	c-25.073,22.794-66.86,35.14-66.86,35.14s52.162-4.176,84.071-40.454C490.026,287.817,489.642,280.804,476.349,280.804z"/>
<path fill="#8D8431" d="M428.369,221.166c-1.421,30.213,22.974,58.208,22.974,58.208s-9.089-18.175-7.793-32.723
	C443.55,246.651,436.157,242.168,428.369,221.166z"/>
<path fill="#8D8431" d="M396.627,209.743c0.34,0.083-0.582,0.375-0.876,0.556c-22.57,14.078-47.561,9.971-47.561,9.971
	s21.499-1.559,36.415-13.756C384.605,206.513,390.716,208.242,396.627,209.743z"/>
<path fill="#A09834" d="M210.346,249.521c0,0,20.272-12.716,22.27-37.393c2.037-25.044,6.48-26.891,24.153-10.231
	c16.37,15.427,44.998,15.9,44.998,15.9"/>
<g>
	<path fill="#8D8431" d="M255.622,200.823c16.367,15.427,46.145,16.974,46.145,16.974s-27.03-7.842-32.426-25.322l-6.813,4.282
		L255.622,200.823z"/>
	<path fill="#8D8431" d="M210.346,249.521c0,0,20.272-12.716,22.27-37.393c0,0-5.585,2.003-12.977,3.369
		C219.64,215.497,223.769,226.425,210.346,249.521z"/>
</g>
<path fill="#CCBF46" d="M186.374,488.826c0,0.536,2.86,1.822,5.679,2.958c2.487-0.191,4.974-0.341,7.466-0.446
	c4.085-4.582,14.607-14.402,34.056-20.608l-25.256-0.412l-4.002,0.412c0,0-26.633,6.664-28.784,8.818
	C173.38,481.696,186.374,487.769,186.374,488.826z"/>
<path fill="#CCBF46" d="M98.543,371.168c-4.964-12.717-21.022-16.034-21.022-16.034l4.672-4.363l16.76,3.359
	c0,0,5.025,5.904,5.995,8.638c0.97,2.733,1.764,5.113,1.764,5.113"/>
<path fill="#E7E755" d="M98.186,396.429c-12.1,23.808-33.232,43.104-33.232,69.151c0,26.043-5.445-54.986-3.544-56.883
	c1.897-1.898,18.109-6.593,20.489-12.269c2.38-5.676,3.306-8.189,3.306-8.189"/>
<path fill="#CCBF46" d="M89.801,508.212l-3.077-4.757l-0.207-0.303c-0.236-0.942-0.587-2.212-0.587-2.212l-10.575-16.723
	l-2.438,4.109c9.637,10.918,11.505,15.585,11.868,16.97c-2.787-0.695-25.62-5.201-52.798,24.525c0,0,30.503-29.198,59.093-19.992
	L89.801,508.212z"/>
<path fill="#CCBF46" d="M47.256,516.07c17.722-12.946,34.511-12.55,34.511-12.55s0.2-3.203-6.175-12.085
	c-6.373-8.879,3.155-1.854,3.155-1.854l7.771,13.571l-0.653,2.747c-0.794,0.795-1.983,1.119-1.983,1.119s-6.211-0.987-7.932-0.987
	c-1.717,0-3.106-0.46-3.966,0.397c-0.86,0.86-3.966,1.379-5.817,1.379c-1.852,0-3.041-0.056-4.098,1.001
	c-1.058,1.057-2.117,1.021-2.117,1.021"/>
<path fill="#A09834" d="M462.495,306.016c14.82-20.101,26.43-34.451,26.43-43.357c0,0-15.31,13.914-16.454,15.064
	c-1.146,1.145-2.733,4.67-6.171,8.107c-3.437,3.435-5.461,6.872-6.169,7.579"/>
<path fill="#A09834" d="M487.764,260.297c4.227,5.854-18.74,75.017-107.092,96.719c0,0,38.533-44.564,40.306-46.335
	c1.773-1.771,24.879-6.188,32.806-14.114c7.93-7.925,12.895-10.504,15.791-14.675s5.422-8.704,5.422-11.754c0-3.047,0-5.639,0-5.639
	L487.764,260.297z"/>
<path fill="#A09834" d="M78.697,298.163c-3.542-8.411-2.955-10.265,8.887-7.754c11.839,2.517,20.886-0.061,24.84-2.592
	c3.951-2.531,2.92,5.503,2.523,5.9c-0.395,0.397-10.838,5.021-11.5,5.684c-0.66,0.663-8.326,1.454-8.326,1.454"/>
<path fill="#D3C845" d="M556.59,359.786c0,0,11.418-52.191-69.755-70.697l-4.494,9.968
	C482.341,299.057,553.104,306.213,556.59,359.786z"/>
<path fill="#CCBF46" d="M396.625,474.369c-9.734,22.276-36.297,24.392-36.297,24.392s9.023,0.709,19.776-1.765
	c10.754-2.467,15.115,20.066,40.873,36.828c0,0-27.824-27.925-27.824-39.821c0-16.572,13.394-22.564,13.394-22.564"/>
<path fill="#8D8431" d="M445.974,325.774c-70.985,48.109-134.962,36.299-151.244,20.013c0,0,16.013,17.28,51.441,17.28
	c43.892,0,81.075-15.193,100.603-30.438"/>
<path fill="#8D8431" d="M396.747,356.252c27.819-8.466,49.867-11.568,26.088,3.534c0,0,35.53-15.262,55.274-39.407
	c19.741-24.153,11.91-37.67,4.17-38.776c0,0-0.998,9.6-5.095,13.7c-4.101,4.097-21.152,23.607-21.152,23.607l-9.259,10.896
	c0,0-23.659,12.835-28.287,14.616c-4.627,1.775-17.186,6.287-17.186,6.287"/>
<path fill="#8D8431" d="M482.279,281.603c-17.919,31.283-57.698,67.757-117.792,77.019c0,0,53.86-7.398,82.286-22.732
	c28.428-15.338,27.755-22.738,27.755-22.738s8.867-10.029,8.867-11.637c0-1.605,1.927-2.38,1.927-2.38"/>
<path fill="#8D8431" d="M266.981,355.853"/>
<path fill="#CCBF46" d="M274.245,418.123c0,0,2.916,22.73-27.317,36l10.068,5.079C280.189,442.382,274.245,418.123,274.245,418.123z
	"/>
<path fill="#CCBF46" d="M391.928,482.239c11.089-16.794,11.044-33.022,8.995-41.901c-2.049-8.877,6.854,0,6.854,0
	s2.326-16.845,8.962,3.34c6.641,20.182-31.712,41.938-20.732,58.956c10.976,17.018-5.353-5.06-5.353-5.06l-3.5-7.011"/>
<path fill="#CCBF46" d="M490.543,398.911c0,0-10.646-15.855-7.309-33.49c0,0-9.161,16.207-2.781,42.384"/>
<path fill="#CCBF46" d="M262.477,489.245c28.258-1.941,47.322-6.772,46.677-19.834c-0.641-13.06,4.496,2.735,4.496,3.969
	c0,1.232,1.812,10.321-0.73,12.869c-2.542,2.544-2.442,4.054-4.911,4.054c-2.467,0-3.751,1.352-3.751,1.352"/>
<path fill="#CCBF46" d="M410.157,447.202c0,0,36.472-11.354,56.581-31.466c11.152-11.146,11.525-29.125,11.525-29.125
	s1.34,8.18,2.189,9.035c0.854,0.851,1.888,11.102,1.888,12.158c0,1.06-2.96,5.338-4.146,6.526
	c-1.188,1.187-3.573,3.405-9.427,11.632c-5.856,8.227-34.312,21.239-34.312,21.239s-7.906,1.004-9.549,2.647
	c-1.645,1.643-7.963,2.729-9.374,2.729"/>
<path fill="#CCBF46" d="M364.104,560.927c0,0,16.134-25.09,56.873-27.103l-4.806-4.093l-9.32-9.951l-6.378-6.181
	c0,0-6.132-6.045-1.149,0.267c4.984,6.312,17.113,18.54,17.113,18.54s-35.544-1.213-52.333,24.701"/>
<path fill="#D3C845" d="M530.357,316.207c31.039,23.911,21.431,71.858-3.861,92.786c0,0,20.095-9.12,26.24-20.16
	c6.148-11.037,0.921-7.695,2.908-19.298c3.769-22.015,2.648-42.03-20.852-59.453"/>
<path fill="#D3C845" d="M550.731,387.713c0,0,5.532,22.106,38.197,33.702l-9.465-1.094c0,0-22.915-4.585-35.782-26.44"/>
<path fill="#D3C845" d="M588.929,421.415c0,0-25.508,1.196-38.107,32.925l-1.146-3.778c0,0,7.951-24.967,30.759-30.967"/>
<path fill="#8D8431" d="M166.255,204.077c22.862,27.636,57.76,24.197,57.76,24.197l8.602-16.146
	C232.616,212.128,197.84,226.425,166.255,204.077"/>
<path fill="#8D8431" d="M325.521,160.217c0,0,24.525,42.625,71.105,49.526l-17.668,5.048l-5.288,1.454
	C373.671,216.245,348.231,201.885,325.521,160.217z"/>
<path fill="#8D8431" d="M84.551,309.904l5.59,12.499c-24.764,9.521-7.949,28.367-7.949,28.367
	c22.192-3.717,35.045,6.952,35.045,6.952l27.368-7.41C129.103,350.312,97.898,333.772,84.551,309.904z"/>
<path fill="#8D8431" d="M143.637,311.429c0,0,6.007,9.299,20.258,12.319c0,0-14.275,6.768-23.347,14.148c-9.072,7.376,0,0,0,0
	l-4.032-12.453c0,0-1.264-4.45-1.264-5.33"/>
<path fill="#8D8431" d="M268.964,355.853c0,0,20.781-6.823,36.099-2.556l1.408-0.078c0,0-15.909-7.814-25.882-22.76
	c0,0,28.302-4.443,40.287-25.066c0,0-26.262,16.216-58.874,12.338l-6.17,10.577"/>
<path fill="#8D8431" d="M342.735,363.067l-2.026-3.098c-22.652,0-43.75-12.753-43.75-12.753l-10.45-2.794
	c0,0,1.625,1.763,4.999,4.207c-1.581-0.434-3.235-0.756-4.999-0.756c-3.983,0-13.751,0.355-14.105,0.355
	c-0.355,0-9.188,16.512,1.386,10.694c10.578-5.816,19.634-7.027,32.205-2.438v-0.006
	C314.917,360.071,327.053,363.067,342.735,363.067z"/>
<path fill="#8D8431" d="M300.556,354.819c-14.404-3.333-12.923,8.433,16.677,18.085c0,0-27.383-6.288-39.758-18.663
	c-12.373-12.377,14.757-5.266,14.757-5.266l6.214,1.588"/>
<path fill="#CCBF46" d="M266.44,346.213c0,0,14.455,10.999,20.019,14.776c0,0-26.616-2.822-62.311,19.849
	c-36.34,23.079-3.041-20.291-3.041-20.291l38.075-22.012"/>
<path fill="#CCBF46" d="M220.183,400.404c0,0,34.114-28.688,58.961-29.351c0,0-17.581-10.084-39.792-5.577
	c-16.261,3.303-24.635,2.699-24.635,2.699"/>
<path fill="#E7E755" d="M323.231,266.797c-39.542,36.435-87.448,47.544-87.448,47.544c2.746,11.107,13.001,23.1,13.001,23.1
	s-65.507,28.437-81.504,25.769c-15.993-2.665-37.319-42.65-37.319-42.65c12.44,0,27.546-8.439,27.546-8.439
	c-24.879-13.776-50.204-67.539-50.204-67.539c4.887,40.878,19.992,59.984,19.992,59.984c-11.554,5.332-25.772,4.44-25.772,4.44
	c15.551,27.101,24.438,39.098,24.438,39.098l-15.993-3.107l8.887,15.552c-8.446,7.996-8.446,29.767-8.887,44.431
	c-0.445,14.662-8.445,19.991-8.445,19.991s11.554,4.887,20.884,8.887c9.334,4,15.108,15.994,20.884,15.994
	s13.773-7.554,24.879-9.772c11.108-2.222,68.425-1.778,76.863-2.222c8.443-0.443,0-8,0-8l-2.665-44.873l14.221-14.662l-20.806,2.666
	c11.147-24.055,45.685-30.213,45.685-30.213c-8.887-6.668-14.662-19.552-14.662-19.552
	C301.462,309.893,323.231,266.797,323.231,266.797z"/>
<path fill="#8D8431" d="M196.496,416.613c-2.485-1.412-3.077-5.02-1.328-8.053c1.754-3.036,5.188-4.349,7.673-2.938
	c2.482,1.415,3.075,5.022,1.323,8.059C202.417,416.716,198.982,418.028,196.496,416.613"/>
<path fill="#FFFFFF" d="M202.108,411.614c0,0.934-0.76,1.686-1.698,1.686c-0.933,0-1.693-0.752-1.693-1.686
	c0-0.925,0.76-1.681,1.693-1.681C201.348,409.934,202.108,410.689,202.108,411.614z"/>
<path fill="#8D8431" d="M127.678,414.436c-2.594,1.235-5.919-0.336-7.425-3.505c-1.508-3.173-0.628-6.743,1.964-7.979
	c2.594-1.229,5.922,0.342,7.427,3.516C131.154,409.632,130.272,413.203,127.678,414.436"/>
<ellipse fill="#FFFFFF" cx="126.388" cy="408.429" rx="1.697" ry="1.681"/>
<path fill="#CCBF46" d="M177.904,438.822c-2.27,0.19-4.146,0.417-5.471,0.696c-13.135,2.758-23.366,10.331-29.142,10.331
	s-11.549-11.994-20.884-15.994c-1.566-0.673-5.413-2.309-9.386-4l-1.793-0.76c0,0-8.496,9.544-3.593,12.465
	c0,0,6.402-6.027,14.479-0.936c9.742,6.134,16.397,16.126,23.334,16.126c6.94,0,13.937-8.082,28.141-11.047
	c1.822-0.38,3.583-0.691,5.3-0.97c25.997-3.786,31.858,2.086,43.541,1.276c14.144-0.974,17.715-16.522,17.715-16.522
	C226.264,447.202,220.846,433.72,177.904,438.822z"/>
<path fill="#CCBF46" d="M401.851,459.999c3.681-27.074-18.673-66.915-18.673-66.915s32.268,35.746,35.045,56.766
	c2.777,21.021-8.329,13.061-8.329,13.061"/>
<path fill="#CCBF46" d="M308.905,492.424c5.008-2.399,8.81,1.272,14.177-0.255c1.495-5.571,0.383-13.577-1.686-16.81
	c-6.689-10.442-10.127-23.663-6.295-33.181c0,0-10.046,9.255-5.948,27.232c2.026,8.887-2.246,16.478-7.084,21.886
	C304.349,491.664,306.626,492.05,308.905,492.424z"/>
</svg>
