<?xml version="1.0" encoding="utf-8"?>
<!-- Generator: Adobe Illustrator 16.2.1, SVG Export Plug-In . SVG Version: 6.00 Build 0)  -->
<!DOCTYPE svg PUBLIC "-//W3C//DTD SVG 1.1//EN" "http://www.w3.org/Graphics/SVG/1.1/DTD/svg11.dtd">
<svg version="1.1" id="Layer_1" xmlns="http://www.w3.org/2000/svg" xmlns:xlink="http://www.w3.org/1999/xlink" x="0px" y="0px"
	 width="612px" height="612px" viewBox="0 0 612 612" enable-background="new 0 0 612 612" xml:space="preserve">
<g>
	<g>
		<path fill="#E7E755" d="M214.134,557.637c-20.387-2.98-50.478,9.074-38.402,23.434c-8.76-12.307,20.266-15.8,40.522-8.572
			c11.036,3.936,26.726,10.204,17.506,15.322C246.215,582.546,245.075,562.163,214.134,557.637z"/>
		<path fill="#B8AE34" d="M217.207,568.53c-21.091-5.213-50.234,0.233-41.474,12.54c12.076,14.355,45.573,12.02,58.028,6.75
			C242.98,582.702,238.078,573.691,217.207,568.53z"/>
	</g>
	<path fill="#E7E755" d="M261.077,137.484c-81.507,101.098-34.126,176.599-27.02,195.085c7.107,18.479,10.901,17.534-19.901,43.12
		c-32.258,26.804-42.964,70.783-36.445,108.602c3.217,18.69,10.622,35.878,21.753,48.736c25.398,29.33,67.803,41.364,105.214,25.122
		c4.892-10.937,21.958-24.287,37.241-28.839c11.113-13.644,18.348-29.136,22.082-45.02c9.248-39.302-2.983-80.991-31.373-102.914
		c-32.855-25.366-59.708-16.585-73.452-30.328C236.864,328.74,275.567,111.442,457.238,3.205L460.111,1
		C460.111,1,342.588,36.383,261.077,137.484z"/>
	<g>
		<path fill="none" d="M310.988,302.393c-0.811,0.297-1.582,0.587-2.375,0.885c1.536-0.51,3.069-1.062,4.598-1.688
			C312.472,301.855,311.731,302.127,310.988,302.393z"/>
		<path fill="#B8AE34" d="M412.606,143.25c-3.38-70.968-55.458-87.234-116.756,41.594
			c-53.844,113.178-20.889,129.671,12.763,118.434c0.793-0.297,1.564-0.587,2.375-0.885c0.743-0.266,1.483-0.538,2.223-0.804
			c0.039-0.018,0.074-0.032,0.113-0.042c0.089-0.039,0.178-0.06,0.266-0.095c52.506-19.06,103.477-40.087,99.134-152.596
			C412.649,146.938,412.643,145.125,412.606,143.25z"/>
		<path fill="#AA9E34" d="M420.818,67.175C431.709,27.634,453.062,6.886,460.111,1l-2.873,2.205
			C275.567,111.442,236.864,328.74,259.176,351.049c-6.017-6.97-1.416-21.855,19.385-34.038c7.716-4.523,17.612-9.117,30.052-13.733
			c-33.652,11.238-60.452-13.478-8.639-118.434C356.115,71.118,409.227,72.282,412.606,143.25
			C411.885,111.983,415.374,86.917,420.818,67.175z"/>
		<path fill="#9F9F9F" d="M313.211,301.589c0.128-0.049,0.252-0.092,0.379-0.138c-0.088,0.035-0.177,0.057-0.266,0.095
			C313.285,301.558,313.25,301.572,313.211,301.589z"/>
	</g>
	<g>
		<path fill="#B8AE34" d="M304.66,558.149c4.895-10.937,21.962-24.287,37.244-28.839c11.114-13.644,18.352-29.136,22.082-45.02
			c9.249-39.302-2.983-80.991-31.376-102.914c-32.852-25.366-59.708-16.585-73.452-30.328c-0.23-0.23-0.442-0.514-0.655-0.786
			c9.882,14.73,27.564,14.586,46.355,29.419c22.514,17.771,33.769,47.934,31.752,83.911
			c-4.212,75.243-103.356,110.483-139.451,66.564c0.765,0.962,1.497,1.95,2.287,2.87
			C224.848,562.357,267.253,574.392,304.66,558.149z"/>
	</g>
	<path fill="#8D8431" d="M281.304,497.527c5.199-0.011,9.429-4.718,9.429-10.508c0.003-5.783-4.219-10.455-9.415-10.435
		c-5.199,0.015-9.411,4.719-9.411,10.502C271.904,492.877,276.108,497.549,281.304,497.527z"/>
	<path fill="#8D8431" d="M211.14,493.627c-4.435,1.536-6.661,6.774-4.969,11.712c1.681,4.931,6.654,7.685,11.099,6.148
		c4.424-1.536,6.658-6.778,4.966-11.709C220.548,494.842,215.575,492.095,211.14,493.627z"/>
	<path fill="#FFFFFF" d="M285.328,483.799c-0.007,2.024-1.646,3.685-3.677,3.688c-2.028,0.008-3.681-1.642-3.677-3.667
		c0-2.031,1.649-3.684,3.681-3.688C283.686,480.121,285.328,481.767,285.328,483.799z"/>
	<path fill="#FFFFFF" d="M217.886,500.653c-0.004,2.031-1.657,3.681-3.688,3.685c-2.025,0.01-3.678-1.629-3.678-3.66
		c0.007-2.031,1.653-3.685,3.685-3.691C216.24,496.976,217.886,498.621,217.886,500.653z"/>
	<path fill="#E7E755" d="M306.013,544.445c17.934-22.991,43.36-31.844,55.008-20.999c11.642,10.852-5.071,38.714-32.459,44.062
		C301.174,572.859,291.108,563.564,306.013,544.445z"/>
	<path fill="#B8AE34" d="M306.54,547.889c16.415-19.792,34.915-24.251,45.473-14.999c10.555,9.248-0.092,30.65-25.055,35.354
		C302.016,572.951,292.878,564.354,306.54,547.889z"/>
</g>
</svg>
