<?xml version="1.0" encoding="utf-8"?>
<!-- Generator: Adobe Illustrator 16.2.1, SVG Export Plug-In . SVG Version: 6.00 Build 0)  -->
<!DOCTYPE svg PUBLIC "-//W3C//DTD SVG 1.1//EN" "http://www.w3.org/Graphics/SVG/1.1/DTD/svg11.dtd">
<svg version="1.1" id="Layer_1" xmlns="http://www.w3.org/2000/svg" xmlns:xlink="http://www.w3.org/1999/xlink" x="0px" y="0px"
	 width="612px" height="612px" viewBox="0 0 612 612" enable-background="new 0 0 612 612" xml:space="preserve">
<path fill="#CCBF46" d="M400.251,336.855c0,0,37.382,5.798,47.146,31.126c0,0,13.885-2.136,13.885-3.967s4.425-1.373-3.356-9.155
	c-7.781-7.781-21.666-14.953-23.192-16.479c-1.525-1.525-12.469-7.629-16.783-7.629c-10.146,0-1.297,4.73-1.297,4.73"/>
<path fill="#E7E755" d="M133.578,260.618c-54.465,27.743-68.357,54.166-68.357,54.166l-2.893-7.323
	c-18.413,21.438-35.767,66.815-35.767,66.815l58.759-51.258c0,0,2.795-13.667,46.485-47.853
	c46.208-36.154,113.46-24.885,113.46-24.885S189.996,231.88,133.578,260.618z"/>
<path fill="#B8AE34" d="M36.457,360.462c0,0,7.243-22.513,25.657-43.952l2.892,7.088c0,0,17.326-37.478,72.876-62.98
	c61.268-28.127,107.383-10.337,107.383-10.337s-62.946-11.27-109.155,24.885c-43.689,34.186-46.486,47.853-46.486,47.853"/>
<path fill="#CCBF46" d="M170.744,483.49l-29.24,14.057c0,0,4.777-14.348-2.63-17.643c-6.972-3.104-24.46-0.963-24.46-0.963
	s14.918-10.537,6.001-15.854c0,0,40.463-1.95,46.634,6.994C173.224,479.032,170.744,483.49,170.744,483.49z"/>
<path fill="#CCBF46" d="M149.241,536.226c0,0,4.263-8.53-11.298-11.515c0,0,30.055-3.963,31.462-19.444
	c0,0,7.227,14.757,0.032,20.513C162.243,531.534,149.241,536.226,149.241,536.226z"/>
<path fill="#E7E755" d="M219.389,501.156c65.978,0,69.233-23.568,134.234-42.479c65.242-18.981,55.478-72.682,123.399-87.71
	c0,0-4.148-23.436-45.727-40.797c0,0,50.595-49.133,180.401-30.957c0,0-52.764-80.15-126.917-53.906
	c-63.474,26.854-32.521,67.352-84.529,91.548c0,0,30.53-0.529,52.182,24.718c0,0-31.017,17.385-76.099,1.485
	c-45.085-15.899-93.036-62.768-203.707-45.631c-31.798,4.923-42.245-9.706-79.873,1.423c-32.255,9.539-50.424,33.761-64.054,52.385
	c-13.627,18.625-12.717,29.986-25.892,34.979c0,0,7.722,9.088,22.26,17.718c0,0-3.634,28.165,44.063,33.162
	c47.699,4.992,86.982,12.988,97.669,33.162c13.798,26.044-27.258,51.334-27.258,51.334s27.712-7.271,32.255,0
	c4.543,7.267-10.188,28.16-10.188,28.16s0,0,32.9-18.624C223.507,534.715,219.389,501.156,219.389,501.156z"/>
<g>
	<path fill="#8D8431" d="M54.135,410.69c-2.754-0.978-4.018-4.501-2.822-7.867c1.198-3.366,4.402-5.299,7.153-4.323
		c2.754,0.98,4.015,4.5,2.819,7.871C60.088,409.732,56.889,411.668,54.135,410.69"/>
	<path fill="#FFFFFF" d="M59.493,404.325c0,0.944-0.773,1.712-1.726,1.712c-0.952,0-1.729-0.768-1.729-1.712
		s0.776-1.717,1.729-1.717C58.72,402.608,59.493,403.381,59.493,404.325z"/>
</g>
<path fill="#B8AE34" d="M219.389,501.156c0-7.553-3.474-17.15-7.587-21.952c0,0,16.811,7.929,21.264,21.795L219.389,501.156z"/>
<path fill="#E7E755" d="M364.221,439.257c0,0,9.946,24.622,8.744,30.825c-1.199,6.209-21.43,20.608-24.691,25.581
	c-3.257,4.974,2.058,17.318,4.63,23.488c2.574,6.175,1.378,9.088-5.655,14.232c-7.033,5.146-42.35,34.803-42.35,34.803
	s3.603-16.46-3.258-20.402c-6.856-3.943-21.385-5.999-30.129-3.429c0,0,12.986-14.399,5.612-20.918
	c-7.374-6.513-19.374-5.998-19.374-5.998l43.72-15.091l-13.374-16.46c-15.258-16.803-28.461-30.516-14.916-55.72
	c13.545-25.205,29.146-34.463,29.146-34.463"/>
<path fill="#CCBF46" d="M271.51,544.355l34.435-36.447l-4.477-5.56l-43.72,15.091C257.748,517.439,288.238,517.974,271.51,544.355z"
	/>
<polygon fill="#CCBF46" points="301.468,502.349 314.655,516.214 291.584,505.763 "/>
<g>
	<path fill="#D3C845" d="M121.995,364.534c15.039-19.142,41.699-42.725,79.125-54.004c6.342-1.912,9.812-3.607,11.215-5.102
		c-12.289,0.035-25.473,7.862-39.708,10.065c-31.798,4.923-42.245-9.644-79.873,1.485c-28.794,8.518-43.165,25.13-56.297,43.482
		c-1.808,10.821-1.808,10.821-1.808,10.821S106.956,383.674,121.995,364.534z"/>
</g>
<g>
	<path fill="#CCBF46" d="M110.119,399.643l-70.845-24.211c0,0,41.543,6.676,77.152-12.611l-13.396-10.76
		c0,0,35.378-14.305,77.208-36.717c7.597-4.072,5.944,0.481,13.877-1.986c15.508-0.603,33.9-0.639,46.844,1.354
		c0,0-51.269-5.404-94.616,39.835l14.967,4.737c0,0-25.938,28.099-49.283,34.037"/>
</g>
<path fill="#E7E755" d="M65.747,401.436c18.548,6.962,44.372-1.793,44.372-1.793c21.764-15.404,34.174-39.647,34.174-39.647
	l-9.296-4.311c0,0,17.159-22.797,55.74-36.86c57.356-20.908,128.258-14.464,126.401-15.208
	c-1.855-0.742-69.467-14.367-140.928,7.789C126.296,326.88,99,350.279,99,350.279l13.396,10.755
	c-35.607,19.29-79.436,9.975-79.436,9.975l3.497,16c0,0,18.909,6.329,19.641,6.312C56.829,393.305,65.747,401.436,65.747,401.436z"
	/>
<path fill="#FFFFFF" d="M30,427.107"/>
<path fill="#CCBF46" d="M30,427.107c0,0,13.818,11.329,32.424,13.064c32.745,3.062,46.457-7.581,53.715,3.224
	c2.228,3.318,0.645,4.033,0.645,4.033s-2.371-4.835-9.679-4.835c-7.911,0-11.936,1.293-24.357,2.261
	c-12.42,0.963-31.132,0.319-41.778-5.007C30.323,434.526,30,427.107,30,427.107z"/>
<path fill="#E7E755" d="M62.114,316.51c0,0-17.721,21.237-27.465,54.816C24.904,404.907,30,383.545,30,383.545l2.075-15.792
	c0,0,7.858-18.31,14.8-31.508s7.324-13.656,7.324-13.656l3.433-5.111l2.212-1.983"/>
<path fill="#CCBF46" d="M280.652,496.564l14.014-2.589l-6.571-8.087c-15.258-16.803-28.461-30.516-14.916-55.72
	c0,0-12.19,11.915-16.714,26.119l-0.003-0.005c0,0-0.017,0.072-0.05,0.2c-0.088,0.281-0.151,0.567-0.234,0.849
	c-0.988,3.481-4.798,15.011-13.23,22.086c-8.903,7.329-24.201,4.54-32.354-8.597c-7.05-11.357-2.899-21.361-2.899-21.361
	c-11.896,24.403,19.812,46.065-2.81,82.046c-19.317,26.615-43.275,38.244-43.275,38.244s46.973-13.607,58.902-53.536
	c1.627-5.445,1.897-10.485,1.386-14.977c20.037,0.553,40.802-1.955,51.463-3.514c0.138,0.1,0.211,0.147,0.211,0.147l6.793-1.254
	c0.179-0.033,0.289-0.053,0.289-0.053H280.652z"/>
<path fill="#CCBF46" d="M370.164,455.792c0,0,23.054-6.861,47.686-38.679c24.63-31.821,36.154-39.806,59.173-46.146
	c0,0-29.935-0.37-56.746,31.003c-36.313,42.493-58.305,28.199-58.305,28.199L370.164,455.792z"/>
<path fill="#CCBF46" d="M431.296,330.17c0,0,65.022-95.758,180.401-30.957c0,0-120.814-16.081-176.144,32.817"/>
<path fill="#CCBF46" d="M142.826,356.318c0,0,83.384-34.199,168.42,4.144c0,0-76.493-46.231-158.276-18.186"/>
</svg>
