<?xml version="1.0" encoding="utf-8"?>
<!-- Generator: Adobe Illustrator 16.2.1, SVG Export Plug-In . SVG Version: 6.00 Build 0)  -->
<!DOCTYPE svg PUBLIC "-//W3C//DTD SVG 1.1//EN" "http://www.w3.org/Graphics/SVG/1.1/DTD/svg11.dtd">
<svg version="1.1" id="Layer_1" xmlns="http://www.w3.org/2000/svg" xmlns:xlink="http://www.w3.org/1999/xlink" x="0px" y="0px"
	 width="612px" height="612px" viewBox="0 0 612 612" enable-background="new 0 0 612 612" xml:space="preserve">
<g>
	
		<radialGradient id="SVGID_1_" cx="345.4189" cy="223.6216" r="204.3657" gradientTransform="matrix(1 0 0 1 0 -88)" gradientUnits="userSpaceOnUse">
		<stop  offset="0" style="stop-color:#8665A8"/>
		<stop  offset="1" style="stop-color:#434D9B"/>
	</radialGradient>
	<path fill="url(#SVGID_1_)" d="M380.75,449.197c-29.449-59.899-23.41-112.35-21.483-155.767
		c62.194-18.918,106.45-67.321,106.45-124.068c0-73.23-73.645-132.591-164.489-132.591c-90.849,0-161.859,82.862-161.859,156.084
		c0,67.255,59.93,102.973,140.092,108.35c-0.263,4.147-0.547,7.504-0.892,9.512c0,0-2.938,110.041-34.754,185.523
		c-13.285,31.509-50.608-3.654-69.272,17.705c-7.083,8.11-17.879,46.458,17.889,76.598c35.77,30.135,83.97,24.319,103.419-36.42
		c16.3-50.896,21.192-81.74,15.759-181.388c0.065,0.04,0.647-35.589,0.724-35.545c5.387,89.985,13.594,137.637,29.962,179.719
		c21.849,56.179,62.866,52.262,90.172,15.261c27.323-37,14.786-72.763,8.086-79.371C422.939,435.417,394.765,477.711,380.75,449.197
		z"/>
	<g>
		
			<radialGradient id="SVGID_2_" cx="-524.1792" cy="772.3418" r="45.0527" gradientTransform="matrix(-1 0 0 -1 -310.7432 937.8828)" gradientUnits="userSpaceOnUse">
			<stop  offset="0" style="stop-color:#8665A8"/>
			<stop  offset="1" style="stop-color:#434D9B"/>
		</radialGradient>
		<circle fill="url(#SVGID_2_)" cx="213.436" cy="165.541" r="45.052"/>
		
			<radialGradient id="SVGID_3_" cx="607.5049" cy="751.1016" r="55.5113" gradientTransform="matrix(1 0 0 -1 -384.3643 937.8828)" gradientUnits="userSpaceOnUse">
			<stop  offset="0" style="stop-color:#FFFFFF"/>
			<stop  offset="1" style="stop-color:#F6F6F6"/>
		</radialGradient>
		<path fill="url(#SVGID_3_)" d="M249.478,165.542c0-19.912-16.13-36.042-36.046-36.042c-19.904,0-36.039,16.13-36.039,36.042
			c0,19.894,16.135,36.036,36.039,36.036C233.348,201.578,249.478,185.436,249.478,165.542z"/>
		
			<radialGradient id="SVGID_4_" cx="588.3818" cy="765.3955" r="26.5939" gradientTransform="matrix(1 0 0 -1 -384.3643 937.8828)" gradientUnits="userSpaceOnUse">
			<stop  offset="0" style="stop-color:#585857"/>
			<stop  offset="1" style="stop-color:#3D3D3C"/>
		</radialGradient>
		<circle fill="url(#SVGID_4_)" cx="199.375" cy="162.313" r="17.259"/>
		
			<radialGradient id="SVGID_5_" cx="2738.251" cy="-350.7559" r="22.7433" gradientTransform="matrix(0.2011 -0.1966 -0.3189 -0.37 -455.8572 569.2067)" gradientUnits="userSpaceOnUse">
			<stop  offset="0" style="stop-color:#FFFFFF"/>
			<stop  offset="1" style="stop-color:#F6F6F6"/>
		</radialGradient>
		<path fill="url(#SVGID_5_)" d="M206.06,155.31c-2.601-3.023-6.038-4.17-7.682-2.567c-1.646,1.611-0.863,5.354,1.739,8.38
			c2.605,3.017,6.039,4.162,7.684,2.546C209.443,162.072,208.655,158.333,206.06,155.31z"/>
	</g>
	<g>
		
			<radialGradient id="SVGID_6_" cx="-646.0488" cy="939.084" r="45.0508" gradientTransform="matrix(-1 0 0 -0.6115 -310.7432 735.1024)" gradientUnits="userSpaceOnUse">
			<stop  offset="0" style="stop-color:#8665A8"/>
			<stop  offset="1" style="stop-color:#434D9B"/>
		</radialGradient>
		<ellipse fill="url(#SVGID_6_)" cx="335.305" cy="160.852" rx="45.05" ry="27.55"/>
		
			<radialGradient id="SVGID_7_" cx="729.3721" cy="867.1826" r="55.5205" gradientTransform="matrix(1 0 0 -0.6879 -384.3643 774.7567)" gradientUnits="userSpaceOnUse">
			<stop  offset="0" style="stop-color:#FFFFFF"/>
			<stop  offset="1" style="stop-color:#F6F6F6"/>
		</radialGradient>
		<ellipse fill="url(#SVGID_7_)" cx="335.305" cy="163.609" rx="36.036" ry="24.799"/>
		
			<radialGradient id="SVGID_8_" cx="710.2617" cy="765.3955" r="26.5859" gradientTransform="matrix(1 0 0 -1 -384.3643 937.8828)" gradientUnits="userSpaceOnUse">
			<stop  offset="0" style="stop-color:#585857"/>
			<stop  offset="1" style="stop-color:#3D3D3C"/>
		</radialGradient>
		<circle fill="url(#SVGID_8_)" cx="321.251" cy="162.313" r="17.259"/>
		
			<radialGradient id="SVGID_9_" cx="-616.5015" cy="122.23" r="22.7492" gradientTransform="matrix(-0.1777 0.218 0.3585 0.3318 166.4606 250.0239)" gradientUnits="userSpaceOnUse">
			<stop  offset="0" style="stop-color:#FFFFFF"/>
			<stop  offset="1" style="stop-color:#F6F6F6"/>
		</radialGradient>
		<path fill="url(#SVGID_9_)" d="M321.045,161.429c2.922,2.713,6.464,3.457,7.912,1.683c1.449-1.777,0.254-5.414-2.67-8.125
			c-2.93-2.699-6.469-3.458-7.926-1.667C316.916,155.087,318.109,158.716,321.045,161.429z"/>
	</g>
	
		<linearGradient id="SVGID_10_" gradientUnits="userSpaceOnUse" x1="249.1934" y1="321.8555" x2="293.7871" y2="321.8555" gradientTransform="matrix(1 0 0 1 0 -88)">
		<stop  offset="0" style="stop-color:#585857"/>
		<stop  offset="1" style="stop-color:#3D3D3C"/>
	</linearGradient>
	<path opacity="0.73" fill="url(#SVGID_10_)" enable-background="new    " d="M249.193,226.012h44.594
		C293.787,226.012,273.851,261.311,249.193,226.012z"/>
	<path fill="#AB97C8" d="M200.91,4.65c0.031-0.006-0.235,4.613,0.263,11.399c0.479,6.799,2.054,15.647,5.087,23.911
		c2.958,8.295,7.223,16.055,10.874,22.053c3.657,5.989,6.581,10.275,7.004,11.25c1.739,3.857-2.243,9.648-9.037,12.888
		c-6.791,3.23-13.892,2.521-15.792-1.724c-0.464-1.065-2.038-6.467-3.65-14.26c-1.612-7.778-3.085-18.07-2.862-28.161
		c0.139-10.103,2.069-19.685,4.148-26.432C199.013,8.807,200.94,4.664,200.91,4.65z"/>
	<path fill="#AB97C8" d="M418.67,5.401c-0.032-0.006-0.399,4.604-1.853,11.256c-1.428,6.663-4.219,15.211-8.385,22.965
		c-4.082,7.799-9.397,14.888-13.847,20.318c-4.452,5.413-7.955,9.252-8.514,10.156c-2.26,3.586,0.874,9.874,7.147,14.026
		c6.269,4.152,13.396,4.435,15.885,0.502c0.6-0.986,2.918-6.119,5.611-13.603c2.67-7.481,5.571-17.46,6.761-27.484
		c1.283-10.027,0.711-19.787-0.408-26.751C419.969,9.792,418.638,5.415,418.67,5.401z"/>
	<path fill="#AB97C8" d="M360.873,115.626c0.006,0.008-4.028,0.283-10.083,1.188c-6.033,0.885-14.075,2.39-21.895,4.237
		c-7.831,1.833-15.378,4.015-20.604,5.854c-5.296,1.84-8.087,3.255-8.712,3.497c-1.259,0.511-2.846,0.737-4.68,0.796
		c-1.817,0.051-3.917-0.037-5.721-0.445c-1.792-0.402-2.829-1.118-2.723-2.034c0.078-0.903,1.294-1.964,3.339-2.788
		c1.007-0.413,6.261-2.228,13.41-3.874c7.147-1.687,16.134-3.264,24.799-4.367c8.677-1.117,17.053-1.78,23.105-2.009
		C357.194,115.437,360.875,115.636,360.873,115.626z"/>
	<path fill="#AB97C8" d="M192.776,108.516c-0.006,0.004,3.764,0.203,9.414,0.989c5.646,0.762,13.152,2.113,20.465,3.797
		c7.309,1.681,14.363,3.706,19.24,5.444c4.947,1.733,7.558,3.092,8.137,3.319c1.173,0.486,2.657,0.674,4.368,0.704
		c1.695,0.015,3.663-0.118,5.35-0.558c1.674-0.437,2.639-1.172,2.546-2.084c-0.068-0.9-1.207-1.936-3.112-2.714
		c-0.938-0.395-5.852-2.103-12.527-3.609c-6.677-1.541-15.069-2.94-23.169-3.875c-8.106-0.947-15.93-1.444-21.583-1.551
		C196.21,108.254,192.773,108.52,192.776,108.516z"/>
</g>
</svg>
