<?xml version="1.0" encoding="utf-8"?>
<!-- Generator: Adobe Illustrator 16.2.1, SVG Export Plug-In . SVG Version: 6.00 Build 0)  -->
<!DOCTYPE svg PUBLIC "-//W3C//DTD SVG 1.1//EN" "http://www.w3.org/Graphics/SVG/1.1/DTD/svg11.dtd">
<svg version="1.1" id="Layer_1" xmlns="http://www.w3.org/2000/svg" xmlns:xlink="http://www.w3.org/1999/xlink" x="0px" y="0px"
	 width="612px" height="612px" viewBox="0 0 612 612" enable-background="new 0 0 612 612" xml:space="preserve">
<g>
	
		<radialGradient id="SVGID_1_" cx="346.5352" cy="299.1606" r="204.7044" gradientTransform="matrix(1 0 0 -1 0 435)" gradientUnits="userSpaceOnUse">
		<stop  offset="0" style="stop-color:#C64E7F"/>
		<stop  offset="1" style="stop-color:#833672"/>
	</radialGradient>
	<path fill="url(#SVGID_1_)" d="M381.925,449.934c-29.497-59.999-23.449-112.536-21.52-156.025
		c62.297-18.95,106.627-67.433,106.627-124.273c0-73.351-73.768-132.811-164.764-132.811c-90.999,0-162.127,83-162.127,156.344
		c0,67.366,60.029,103.143,140.324,108.529c-0.263,4.154-0.548,7.518-0.893,9.528c0,0-2.944,110.224-34.812,185.831
		c-13.307,31.561-50.691-3.661-69.387,17.734c-7.094,8.123-17.908,46.535,17.918,76.725c35.83,30.185,84.109,24.36,103.591-36.479
		c16.327-50.981,21.228-81.874,15.785-181.689c0.065,0.04,0.647-35.648,0.725-35.604c5.396,90.136,13.618,137.866,30.014,180.019
		c21.883,56.272,62.971,52.349,90.319,15.286c27.369-37.062,14.812-72.884,8.1-79.502
		C424.184,436.132,395.963,478.494,381.925,449.934z"/>
	<g>
		
			<radialGradient id="SVGID_2_" cx="-524.0762" cy="-70.0752" r="45.1272" gradientTransform="matrix(-1 0 0 1 -309.7432 235.8828)" gradientUnits="userSpaceOnUse">
			<stop  offset="0" style="stop-color:#C64E7F"/>
			<stop  offset="1" style="stop-color:#833672"/>
		</radialGradient>
		<circle fill="url(#SVGID_2_)" cx="214.333" cy="165.807" r="45.127"/>
		
			<radialGradient id="SVGID_3_" cx="608.418" cy="-48.7993" r="55.6052" gradientTransform="matrix(1 0 0 1 -384.3643 235.8828)" gradientUnits="userSpaceOnUse">
			<stop  offset="0" style="stop-color:#FFFFFF"/>
			<stop  offset="1" style="stop-color:#F6F6F6"/>
		</radialGradient>
		<path fill="url(#SVGID_3_)" d="M250.435,165.809c0-19.945-16.157-36.102-36.105-36.102c-19.938,0-36.099,16.157-36.099,36.102
			c0,19.927,16.161,36.096,36.099,36.096C234.278,201.903,250.435,185.736,250.435,165.809z"/>
		
			<radialGradient id="SVGID_4_" cx="589.2646" cy="-63.1172" r="26.6396" gradientTransform="matrix(1 0 0 1 -384.3643 235.8828)" gradientUnits="userSpaceOnUse">
			<stop  offset="0" style="stop-color:#585857"/>
			<stop  offset="1" style="stop-color:#3D3D3C"/>
		</radialGradient>
		<circle fill="url(#SVGID_4_)" cx="200.249" cy="162.574" r="17.288"/>
		
			<radialGradient id="SVGID_5_" cx="2531.0137" cy="1095.4688" r="22.7836" gradientTransform="matrix(0.2011 -0.1966 0.3189 0.37 -650.7842 253.1806)" gradientUnits="userSpaceOnUse">
			<stop  offset="0" style="stop-color:#FFFFFF"/>
			<stop  offset="1" style="stop-color:#F6F6F6"/>
		</radialGradient>
		<path fill="url(#SVGID_5_)" d="M206.945,155.56c-2.605-3.028-6.048-4.176-7.695-2.571c-1.648,1.614-0.864,5.363,1.742,8.394
			c2.609,3.021,6.048,4.169,7.697,2.551C210.333,162.333,209.545,158.587,206.945,155.56z"/>
	</g>
	<g>
		
			<radialGradient id="SVGID_6_" cx="-646.1475" cy="-179.8003" r="45.1255" gradientTransform="matrix(-1 0 0 0.6115 -309.7432 271.0588)" gradientUnits="userSpaceOnUse">
			<stop  offset="0" style="stop-color:#C64E7F"/>
			<stop  offset="1" style="stop-color:#833672"/>
		</radialGradient>
		<ellipse fill="url(#SVGID_6_)" cx="336.404" cy="161.111" rx="45.124" ry="27.595"/>
		
			<radialGradient id="SVGID_7_" cx="730.4873" cy="-124.1577" r="55.6114" gradientTransform="matrix(1 0 0 0.6879 -384.3643 263.9181)" gradientUnits="userSpaceOnUse">
			<stop  offset="0" style="stop-color:#FFFFFF"/>
			<stop  offset="1" style="stop-color:#F6F6F6"/>
		</radialGradient>
		<ellipse fill="url(#SVGID_7_)" cx="336.404" cy="163.872" rx="36.096" ry="24.84"/>
		
			<radialGradient id="SVGID_8_" cx="711.3447" cy="-63.1172" r="26.6312" gradientTransform="matrix(1 0 0 1 -384.3643 235.8828)" gradientUnits="userSpaceOnUse">
			<stop  offset="0" style="stop-color:#585857"/>
			<stop  offset="1" style="stop-color:#3D3D3C"/>
		</radialGradient>
		<circle fill="url(#SVGID_8_)" cx="322.326" cy="162.574" r="17.288"/>
		
			<radialGradient id="SVGID_9_" cx="-382.7236" cy="373.04" r="22.7836" gradientTransform="matrix(-0.1777 0.218 -0.3585 -0.3318 386.631 363.6427)" gradientUnits="userSpaceOnUse">
			<stop  offset="0" style="stop-color:#FFFFFF"/>
			<stop  offset="1" style="stop-color:#F6F6F6"/>
		</radialGradient>
		<path fill="url(#SVGID_9_)" d="M322.12,161.688c2.928,2.717,6.476,3.463,7.926,1.686c1.451-1.781,0.253-5.423-2.674-8.139
			c-2.936-2.704-6.48-3.464-7.94-1.669C317.985,155.336,319.181,158.972,322.12,161.688z"/>
	</g>
	
		<linearGradient id="SVGID_10_" gradientUnits="userSpaceOnUse" x1="250.1499" y1="200.7646" x2="294.8179" y2="200.7646" gradientTransform="matrix(1 0 0 -1 0 435)">
		<stop  offset="0" style="stop-color:#585857"/>
		<stop  offset="1" style="stop-color:#3D3D3C"/>
	</linearGradient>
	<path opacity="0.73" fill="url(#SVGID_10_)" enable-background="new    " d="M250.15,226.378h44.668
		C294.818,226.378,274.849,261.735,250.15,226.378z"/>
	<path fill="#EB809F" d="M201.786,4.65c0.031-0.006-0.236,4.621,0.264,11.418c0.48,6.81,2.058,15.674,5.095,23.951
		c2.963,8.309,7.236,16.082,10.893,22.089c3.664,5.999,6.592,10.292,7.016,11.27c1.742,3.863-2.246,9.664-9.052,12.909
		c-6.802,3.237-13.915,2.526-15.817-1.726c-0.465-1.066-2.041-6.478-3.657-14.283c-1.614-7.792-3.09-18.101-2.867-28.208
		c0.138-10.12,2.073-19.718,4.155-26.476C199.886,8.814,201.817,4.663,201.786,4.65z"/>
	<path fill="#EB809F" d="M419.908,5.402c-0.033-0.006-0.401,4.611-1.856,11.275c-1.43,6.674-4.227,15.236-8.399,23.003
		c-4.087,7.812-9.413,14.913-13.869,20.352c-4.46,5.422-7.968,9.269-8.528,10.172c-2.263,3.593,0.876,9.891,7.158,14.05
		c6.279,4.158,13.42,4.442,15.913,0.502c0.602-0.987,2.922-6.128,5.621-13.625c2.674-7.493,5.58-17.488,6.771-27.529
		c1.285-10.044,0.713-19.819-0.409-26.795C421.208,9.801,419.875,5.416,419.908,5.402z"/>
	<path fill="#EB809F" d="M362.014,115.809c0.007,0.008-4.034,0.284-10.099,1.19c-6.044,0.887-14.098,2.394-21.929,4.244
		c-7.846,1.836-15.405,4.022-20.638,5.864c-5.306,1.843-8.102,3.261-8.727,3.503c-1.261,0.511-2.851,0.738-4.688,0.797
		c-1.82,0.051-3.924-0.038-5.729-0.446c-1.795-0.403-2.833-1.12-2.727-2.038c0.077-0.904,1.295-1.967,3.344-2.792
		c1.009-0.413,6.271-2.231,13.433-3.881c7.159-1.689,16.16-3.269,24.841-4.373c8.69-1.12,17.078-1.783,23.143-2.013
		C358.33,115.62,362.018,115.82,362.014,115.809z"/>
	<path fill="#EB809F" d="M193.64,108.688c-0.006,0.003,3.771,0.203,9.429,0.99c5.656,0.763,13.174,2.116,20.5,3.804
		c7.32,1.683,14.386,3.711,19.272,5.453c4.955,1.736,7.57,3.097,8.15,3.325c1.174,0.486,2.661,0.675,4.375,0.705
		c1.698,0.015,3.668-0.118,5.358-0.559c1.677-0.438,2.644-1.174,2.551-2.087c-0.068-0.903-1.209-1.94-3.118-2.719
		c-0.939-0.396-5.86-2.106-12.547-3.615c-6.688-1.544-15.094-2.945-23.208-3.881c-8.119-0.949-15.956-1.447-21.619-1.554
		C197.079,108.426,193.636,108.692,193.64,108.688z"/>
</g>
</svg>
