<?xml version="1.0" encoding="utf-8"?>
<!-- Generator: Adobe Illustrator 16.2.1, SVG Export Plug-In . SVG Version: 6.00 Build 0)  -->
<!DOCTYPE svg PUBLIC "-//W3C//DTD SVG 1.1//EN" "http://www.w3.org/Graphics/SVG/1.1/DTD/svg11.dtd">
<svg version="1.1" id="Layer_1" xmlns="http://www.w3.org/2000/svg" xmlns:xlink="http://www.w3.org/1999/xlink" x="0px" y="0px"
	 width="612px" height="612px" viewBox="0 0 612 612" enable-background="new 0 0 612 612" xml:space="preserve">
<g>
	<g>
		<path fill="#FEC40D" d="M218.343,127.238c-1.581-5.093-6.202-13.233-8.518-16.521c-10.889-15.455-22.466-20.804-40.116-29.761
			c-11.855-5.796-10.618-6.167-23-10.382c-4.215-1.581-20.573-7.83-27.845-8.849c17.476,12.29,32.492,24.412,43.82,42.589
			c8.957,14.227,12.293,33.808,10.186,50.668c3.161-5.181,4.443-12.065,5.795-18.441c1.844-8.693,3.425-17.914,3.425-26.87
			c9.22,20.812,7.245,39.137,3.82,59.422c0,0-0.215,21.717,1.012,21.454c1.228-0.263,40.48,6.177,41.271,7.04
			s18.441-42.604,18.441-42.604L218.343,127.238"/>
		<g>
			<path fill="#4B4B4B" d="M220.25,126.727c-3.363-10.009-9.6-19.317-17.048-26.722c-8.25-8.203-18.858-13.42-29.117-18.614
				c-9.094-4.604-17.842-8.836-27.375-12.424c-8.791-3.308-17.834-7.022-27.151-8.503c-1.012-0.161-3.742,1.188-2.183,2.288
				c15.379,10.854,29.914,22.635,40.803,38.168c11.026,15.73,14.943,35.302,12.772,54.246c-0.213,1.86,3.16,0.958,3.724-0.039
				c3.572-6.313,4.811-13.496,6.278-20.516c1.731-8.282,2.962-16.653,3.06-25.125c-1.275,0.231-2.552,0.463-3.827,0.694
				c6.044,14.082,7.482,28.597,5.994,43.76c-0.511,5.207-2.153,10.639-2.193,15.841c-0.024,3.276-0.008,6.553,0.042,9.83
				c0.049,3.222,0.107,6.466,0.453,9.672c0.209,1.938,1.106,2.462,2.209,2.533c6.118,0.393,12.291,1.758,18.329,2.754
				c6.917,1.141,13.903,2.184,20.733,3.785c3.189,0.748,4.358-0.281,5.925-3.561c5.881-12.312,10.828-25.122,15.981-37.751
				c0.26-0.639,0.521-1.277,0.78-1.917c0.121-0.297,0.225-0.679-0.047-0.946c-9.431-9.249-18.861-18.497-28.291-27.745
				c-1.118-1.096-4.732,0.406-3.512,1.603c4.951,4.855,9.902,9.71,14.853,14.566c3.343,3.279,6.687,6.557,10.03,9.836
				c0.951,0.932,1.901,1.865,2.852,2.797c0.96,0.941,0.616-0.662,0.347-0.002c-2.946,7.243-5.929,14.471-8.953,21.682
				c-1.875,4.473-3.771,8.939-5.731,13.376c-0.693,1.57-1.402,3.134-2.142,4.684c-0.301,0.63-1.53,2.326-0.837,1.875
				c0.786-0.146,1.572-0.292,2.359-0.438c-5.683-1.356-14.27-2.91-20.949-4.031c-4.894-0.822-9.793-1.611-14.701-2.343
				c-1.553-0.232-3.107-0.455-4.666-0.645c-0.395-0.048-0.79-0.089-1.186-0.114c-1.671-0.107,0.823,0.966,0.581-0.041
				c-1.046-4.347-0.585-9.377-0.618-13.818c-0.035-4.679,0.398-8.735,1.108-13.398c2.761-18.127,2.387-35.801-4.938-52.864
				c-0.576-1.342-3.81-0.792-3.827,0.694c-0.091,7.887-1.202,15.636-2.705,23.367c-1.424,7.329-2.682,15.049-6.398,21.616
				c1.241-0.013,2.483-0.026,3.724-0.039c2.171-18.94-1.674-38.105-12.17-54.107c-10.79-16.448-26.376-28.78-42.268-39.995
				c-0.728,0.763-1.455,1.525-2.183,2.288c8.753,1.392,17.322,4.99,25.584,8.085c9.024,3.38,17.327,7.296,25.921,11.651
				c10.187,5.163,20.538,10.196,29.044,17.963c7.858,7.174,14.325,16.973,17.716,27.064
				C216.969,129.331,220.766,128.263,220.25,126.727L220.25,126.727z"/>
		</g>
	</g>
	<g>
		<path fill="#FEC40D" d="M470.63,171.701c5.005-13.963,10.906-27.52,14.067-42.009c4.479-20.021,4.216-38.901-4.478-56.815
			c-3.426-6.85-12.391-17.368-18.179-24.324c3.427,5.606,5.293,11.313,6.786,15.367c3.951,10.801,5.404,22.344,4.717,33.896
			c-0.253,4.281-2.809,15.806-10.346,14.809c-3.146-0.416-4.581-10.419-5.636-13.054c-0.722,4.178-1.489,14.24-1.813,18.442
			c-0.52,6.73-1.903,13.575-5.426,19.947l-12.254,12.718c0,0-10.363,10.362-9.836,10.538s7.024,18.969,6.85,19.671
			c-0.175,0.702,13.699,13.172,14.402,13.611C450.188,194.938,470.63,171.701,470.63,171.701z"/>
		<g>
			<path fill="#4B4B4B" d="M472.549,171.508c8.06-22.301,17.885-44.687,16.877-68.938c-0.446-10.718-2.611-22.058-7.975-31.489
				c-4.814-8.468-11.442-15.868-17.652-23.321c-0.943-1.133-4.437,0.008-3.516,1.586c8.187,14.026,11.918,30.698,11.433,46.839
				c-0.142,4.695-1.11,9.802-4.104,13.558c-4.923,6.177-7.225-8.067-8.144-10.682c-0.514-1.463-3.611-0.636-3.825,0.703
				c-1.696,10.618-1.117,21.544-4.383,31.881c-2.311,7.316-8.465,12.07-13.648,17.45c-3.543,3.678-7.343,7.16-10.604,11.097
				c-1.131,1.366-0.339,2.1,0.25,3.582c1.364,3.435,2.547,6.949,3.734,10.448c0.804,2.371,1.507,4.793,2.184,7.177
				c0.543,1.915,3.438,3.829,4.797,5.115c2.708,2.562,5.474,5.065,8.272,7.527c1.185,1.042,2.405,2.315,4.109,1.407
				c4.361-2.324,7.951-7.796,11.195-11.379c3.577-3.95,7.121-7.931,10.642-11.931c1.549-1.76-2.139-1.995-3.125-0.875
				c-3.085,3.505-6.192,6.991-9.315,10.462c-2.315,2.574-4.646,5.135-7.009,7.666c-0.832,0.892-1.675,1.774-2.527,2.647
				c-0.374,0.384-0.757,0.759-1.143,1.131c-1.198,1.158,0.446-0.76,1.781,0.227c-4.749-3.509-9.271-8.053-13.308-12.349
				c-0.857-0.913-1.097-2.811-1.602-4.395c-1.073-3.375-2.246-6.72-3.44-10.053c-0.729-2.033-1.378-4.205-2.441-6.097
				c0.438,0.781,1.112-0.644,1.852-1.447c1.295-1.406,2.634-2.773,3.969-4.143c3.182-3.265,6.371-6.518,9.534-9.801
				c2.016-2.092,4.031-4.184,6.047-6.276c2.556-2.652,3.669-7.447,4.616-10.905c2.524-9.215,1.897-19.146,3.4-28.55
				c-1.275,0.234-2.551,0.469-3.825,0.703c1.415,4.025,1.573,12.125,6.408,13.703c5.354,1.749,10.011-3.949,11.594-8.222
				c3.072-8.297,2.214-17.792,1.047-26.384c-1.47-10.826-5.4-21.988-10.906-31.42c-1.172,0.529-2.344,1.057-3.516,1.586
				c5.972,7.167,12.207,14.273,17.057,22.273c5.917,9.76,8.061,22.148,8.297,33.387c0.494,23.501-9.105,45.249-16.926,66.888
				C468.165,173.404,472.03,172.942,472.549,171.508z"/>
		</g>
	</g>
	<g>
		<path fill="#D9E4F4" d="M394.001,296.261c25.325-12.651,65.275,9.281,79.707,28.367c25.104,33.197,37.424,64.518,28.482,95.189
			c-9.111,31.257-37.939,59.04-73.008,40.577c-26.442-14.479-41.846-40.787-51.188-67.115
			C369.133,367.171,358.984,313.756,394.001,296.261z"/>
		<g>
			<path fill="#4B4B4B" d="M394.804,297.231c21.641-10.299,48.774,3.188,65.812,16.76c10.183,8.112,17.447,19.252,24.23,30.208
				c7.508,12.127,13.506,25.263,16.567,39.231c5.354,24.43-2.112,51.015-19.941,68.673c-8.838,8.753-20.554,13.735-33.041,12.796
				c-13.955-1.05-26.583-9.964-36.46-19.256c-21.274-20.015-33.315-49.381-38.435-77.711
				C369.104,343.406,369.406,310.365,394.804,297.231c2.327-1.203,0.211-2.88-1.605-1.94
				c-34.965,18.083-27.563,66.833-17.387,97.675c7.634,23.138,20.741,45.321,39.966,60.601
				c17.873,14.204,40.346,18.952,60.331,6.274c16.129-10.232,26.189-29.193,29.733-47.526c4.398-22.754-3.65-45.483-14.734-65.074
				c-5.802-10.256-12.507-20.814-20.781-29.268c-6.865-7.013-15.212-12.615-23.866-17.159c-15.905-8.352-36.233-13.627-53.262-5.523
				C390.824,296.42,392.97,298.104,394.804,297.231z"/>
		</g>
	</g>
	<g>
		<path fill="#222226" d="M481.784,399.869c2.458,8.43,6.674,16.156,9.132,24.938c2.811,8.781,6.322,23.885,3.161,33.369
			c-4.215,12.997-22.831-3.161-25.291-11.592c4.216,9.836,10.188,25.643-5.97,22.832c-14.402-2.459-12.997-8.78-16.51-21.427
			c1.055,6.323,5.62,17.915,0,23.184c-6.673,6.674-17.211-4.216-20.725-9.133c-12.995-17.563-7.376-35.126-5.971-54.445"/>
		<g>
			<path fill="#4B4B4B" d="M479.878,400.38c5.029,16.409,13.11,31.3,13.539,48.871c0.091,3.744-0.343,7.712-2.03,11.099
				c-1.882,3.776-6.926,0.589-9.267-0.891c-4.774-3.017-9.609-7.953-11.428-13.385c-1.271,0.341-2.542,0.681-3.812,1.021
				c1.605,3.771,3.106,7.573,4.069,11.564c0.431,1.784,0.617,3.599,0.559,5.43c-0.157,4.85-4.667,5.011-8.57,4.281
				c-4.823-0.902-8.951-2.908-11.099-7.476c-1.939-4.128-2.446-9.041-3.626-13.416c-0.255-0.946-4,0.013-3.812,1.021
				c1.25,6.744,4.686,14.604,1.414,21.229c-4.356,8.826-16.736-5.962-19.395-9.706c-11.228-15.813-6.306-35.144-4.902-52.939
				c0.052-0.658-3.717-0.195-3.812,1.021c-0.913,11.579-3.304,23.144-1.976,34.785c1.193,10.458,6.782,20.166,14.761,26.925
				c4.438,3.759,11.628,6.39,16.661,2.026c7.109-6.164,2.488-16.668,1.062-24.363c-1.271,0.341-2.542,0.681-3.812,1.021
				c1.465,5.435,1.96,11.735,5.397,16.375c3.496,4.719,11.623,5.98,17.033,5.634c13.686-0.877,7.096-16.842,3.861-24.436
				c-0.415-0.975-4.11,0.132-3.812,1.021c2.893,8.643,18.917,23.812,27.641,13.583c5.541-6.497,2.348-20.104,0.757-27.381
				c-2.577-11.795-8.071-22.469-11.587-33.939C483.39,398.377,479.595,399.455,479.878,400.38L479.878,400.38z"/>
		</g>
	</g>
	<g>
		<path fill="#222226" d="M444.432,407.36c0,15.016,8.529,35.038,24.015,29.242c13.914-5.27,11.221-27.926,10.324-41.098"/>
		<g>
			<path fill="#4B4B4B" d="M442.518,407.572c0.212,14.295,7.989,36.188,26.212,30.086c16.461-5.512,12.871-29.463,11.947-42.664
				c-0.097-1.39-3.923-0.553-3.812,1.021c0.805,11.511,3.696,28.422-5.491,37.463c-6.495,6.393-14.775,1.599-18.978-4.466
				c-4.279-6.176-5.941-14.476-6.05-21.864C446.319,405.421,442.498,406.199,442.518,407.572L442.518,407.572z"/>
		</g>
	</g>
	<g>
		<path fill="#D9E4F4" d="M480.57,368.897l13.699,46.806c-7.727-4.216-23.534,0.35-30.91,3.161
			c-14.753,5.972-29.856,17.563-38.638,30.56l-14.754-34.951l4.216-32.93"/>
	</g>
	<g>
		<g>
			<path fill="#4B4B4B" d="M426.479,449.4c7.841-11.292,18.603-20.153,30.659-26.645c9.384-5.052,25.267-11.166,35.597-6.193
				c1.001,0.481,4.52-1.021,3.068-1.719c-10.23-4.924-24.858-0.107-34.642,3.974c-15.062,6.282-28.89,17.223-38.198,30.63
				C422.049,450.765,425.847,450.313,426.479,449.4L426.479,449.4z"/>
		</g>
	</g>
	<g>
		<path fill="#FEC40D" d="M459.676,223.467c4.491,0.25,13.637-0.78,18.212-2.671c2.646-8.4,3.758-15.117,3.647-23.826
			c-0.172-7.393-0.639-16.91-4.232-24.468c-6.114-0.557-9.961-1.269-14.961-1.508c0,0-6.796,5.92-7.114,27.352
			C454.925,218.713,459.676,223.467,459.676,223.467z"/>
		<g>
			<path fill="#4B4B4B" d="M458.445,224.266c4.907,0.17,9.835-0.426,14.636-1.416c1.963-0.405,4.096-0.9,5.912-1.778
				c1.943-0.938,2.214-5.579,2.677-7.478c3.16-12.967,2.999-29.286-2.461-41.603c-0.112-0.254-0.443-0.266-0.676-0.289
				c-4.99-0.482-9.953-1.217-14.961-1.508c-1.137-0.066-2.43,0.358-3.221,1.189c-3.314,3.482-4.666,8.824-5.639,13.354
				c-2.076,9.672-1.996,20.309-0.311,30.03c0.514,2.966,1.281,7.056,3.479,9.357c0.692,0.726,4.218-0.655,3.588-1.314
				c-1.169-1.224-1.726-3.223-2.226-4.776c-2.067-6.429-2.16-13.521-2.11-20.199c0.058-7.688,0.47-21.133,6.938-26.969
				c-0.987,0.309-1.975,0.619-2.961,0.928c2.844,0.166,5.665,0.469,8.493,0.806c4.152,0.495,6.075,0.559,7.502,4.845
				c1.978,5.938,2.283,12.423,2.486,18.626c0.238,7.326-0.663,14.471-2.547,21.545c-0.602,2.26-0.181,2.944-2.544,3.588
				c-1.543,0.421-3.144,0.654-4.722,0.901c-2.917,0.458-5.923,0.665-8.874,0.562C460.074,222.639,456.534,224.2,458.445,224.266z"/>
		</g>
	</g>
	<g>
		<path fill="#222226" d="M284.306,234.542c2.108,3.425-0.249,15.171-1.581,21.866c33.535,4.759,69.496,12.389,103.006,7.904l0,0
			c-0.79-9.484-5.269-23.447,3.688-30.561"/>
		<g>
			<path fill="#4B4B4B" d="M282.4,235.053c2.848,5.914-0.375,15.498-1.583,21.583c-0.091,0.459,0.338,0.779,0.75,0.838
				c34.345,4.918,69.097,12.366,103.916,7.935c0.79-0.101,2.255-0.578,2.155-1.608c-0.926-9.627-5.164-22.277,3.319-29.706
				c1.68-1.472-2.106-1.535-3.074-0.688c-9.203,8.06-5.066,20.92-4.058,31.415c0.719-0.536,1.437-1.072,2.155-1.608
				c-23.072,2.937-46.28,0.429-69.168-2.892c-2.747-0.398-32.059-4.74-31.947-5.303c1.181-5.942,4.161-15.148,1.347-20.989
				C285.556,232.668,281.83,233.87,282.4,235.053L282.4,235.053z"/>
		</g>
	</g>
	<g>
		<path fill="#727886" d="M449.408,256.077c13.268-22.993,17.706-49.219,14.571-74.352c-1.047-8.376-2.935-16.629-5.627-24.596
			C432.098,75.687,324.613,52.504,255.064,94.655c-8.43,5.269-16.86,11.592-24.236,18.968c-5.269,5.268-10.538,10.537-15.177,17.294
			c-6.166,8.445-11.242,17.646-14.951,27.455c-3.71,9.813-6.053,20.233-6.755,31.122c0,9.484,0,20.022,2.105,29.848
			c1.595,8.493,4.242,16.8,8.482,24.459C287.223,253.404,366.7,252.729,449.408,256.077z"/>
		<g>
			<path fill="#4B4B4B" d="M451.17,256.069c24.751-43.671,19.646-101.284-13.542-139.226
				c-25.68-29.358-65.351-43.285-103.617-43.818c-44.574-0.621-86.795,17.919-115.679,52.042
				c-18.795,22.204-27.245,50.087-26.073,78.842c0.29,7.112,1.36,14.087,2.974,21.012c0.786,3.372,1.853,6.667,3.037,9.917
				c0.993,2.729,2.351,7.651,4.487,9.682c1.351,1.284,6.676,0.936,8.521,1.138c3.95,0.433,7.904,0.833,11.858,1.224
				c8.515,0.841,17.041,1.567,25.571,2.231c66.524,5.182,133.297,5.288,199.939,7.961c1.331,0.054,4.099-1.893,1.527-1.996
				c-65.709-2.636-131.529-2.832-197.134-7.75c-7.869-0.59-15.731-1.266-23.588-2.002c-3.951-0.37-7.899-0.77-11.846-1.181
				c-4.204-0.438-10.636,0.29-12.777-3.954c-6.609-13.1-8.601-28.124-8.922-42.613c-0.7-31.613,13.191-60.35,35.217-82.495
				c32.591-32.768,79.794-45.258,124.883-38.022c39.945,6.411,77.091,29.704,94.957,66.748
				c17.01,35.268,15.993,78.205-3.316,112.276C446.81,257.561,450.609,257.058,451.17,256.069z"/>
		</g>
	</g>
	<g>
		<path fill="#222226" d="M262.705,283.806c6.322-5.795,9.483-16.069,10.011-24.236c21.254,7.575,108.482,14.481,119.339,13.172
			c0.264,7.64,3.951,18.704,10.011,23.446"/>
		<g>
			<path fill="#4B4B4B" d="M263.992,284.762c6.808-6.663,9.909-15.968,10.662-25.311c-1.007,0.492-2.014,0.983-3.02,1.474
				c8.181,2.847,16.978,4.096,25.506,5.4c12.779,1.954,25.643,3.376,38.507,4.634c11.825,1.156,23.672,2.118,35.533,2.814
				c6.783,0.398,13.943,1.201,20.731,0.46c-0.599-0.458-1.196-0.915-1.795-1.372c0.501,8.843,3.568,18.565,10.493,24.477
				c1.393,1.189,4.646-0.821,2.912-2.301c-6.23-5.32-9.076-14.449-9.528-22.415c-0.054-0.941-0.866-1.473-1.795-1.372
				c-6.476,0.707-13.274-0.05-19.745-0.42c-11.861-0.679-23.707-1.671-35.532-2.814c-12.177-1.177-24.34-2.561-36.446-4.326
				c-8.895-1.297-18.152-2.508-26.678-5.475c-1.07-0.373-2.911,0.122-3.02,1.474c-0.672,8.336-3.23,17.162-9.36,23.161
				C259.577,284.65,262.536,286.187,263.992,284.762L263.992,284.762z"/>
		</g>
	</g>
	<g>
		<path fill="#727886" d="M427.883,282.752c5.494,28.937,12.03,61.646,13.083,78.506c2.107,30.559,1.373,45.487-1.788,75.521
			c-3.161,24.236-12.876,44.082-30.263,61.469c-28.452,27.926-64.808,35.829-103.27,33.722c-23.71-1.055-59.538-6.851-82.721-11.064
			c20.021-20.549,26.169-62.35,24.062-88.693c-3.688-37.936-15.456-101.162-33.546-159.469c57.08,0,136.358,4.913,154.018,6.124
			C370.479,279.073,425.476,282.418,427.883,282.752z"/>
		<g>
			<path fill="#4B4B4B" d="M425.977,283.263c4.866,25.604,11.009,51.46,13.015,77.496c2.039,26.463,1.771,53.444-2.181,79.736
				c-4.082,27.155-19.026,50.793-40.643,67.477c-22.798,17.597-51.411,23.733-79.707,23.57c-26.191-0.149-52.454-4.572-78.212-8.931
				c-2.836-0.48-5.669-0.976-8.501-1.476c-1.981-0.35-5.36,0.029-3.265-2.395c3.695-4.273,6.719-8.963,9.333-13.964
				c5.219-9.988,8.463-21.131,10.532-32.172c4.136-22.079,2.707-43.264-0.459-65.328c-3.932-27.409-9.429-54.606-15.887-81.525
				c-4.315-17.989-9.194-35.845-14.655-53.521c-1.051,0.417-2.102,0.833-3.153,1.25c46.837,0.033,93.701,2.383,140.441,5.25
				c24.449,1.499,49.023,2.436,73.41,4.703c0.088,0.008,0.176,0.018,0.264,0.029c0.874,0.106,4.087-1.307,3.148-1.421
				c-12.57-1.53-25.43-1.716-38.062-2.503c-10.948-0.682-21.895-1.385-32.842-2.073c-45.959-2.89-92.032-5.167-138.087-5.446
				c-1.926-0.012-3.853-0.015-5.779-0.016c-0.43,0-3.404,0.439-3.153,1.25c14.027,45.412,24.583,92.138,31.132,139.222
				c2.532,18.202,3.656,35.834,1.058,54.118c-2.732,19.219-8.835,40.093-22.518,54.483c-0.238,0.25-0.25,0.468,0.145,0.539
				c24.787,4.491,49.76,8.587,74.888,10.586c24.034,1.912,48.281,0.598,71.211-7.327c23.271-8.042,43.582-23.597,57.376-43.978
				c14.975-22.124,17.34-48.269,18.8-74.216c1.099-19.532,0.475-39.466-2.134-58.858c-2.959-21.998-7.56-43.786-11.702-65.581
				C429.652,281.518,425.812,282.399,425.977,283.263z"/>
		</g>
	</g>
	<g>
		<g>
			<path fill="#4B4B4B" d="M379.585,281.162c10.912,21.57,17.231,45.846,22.169,69.398c3.438,16.397,5.332,33.041,5.695,49.789
				c0.753,34.716-5.19,72.45-27.715,100.115c-12.628,15.509-30.159,25.598-49.377,30.592c-2.286,0.595-1.877,2.094,0.402,1.502
				c18.32-4.762,35.067-13.669,48.234-27.389c12.154-12.664,20.12-28.803,25.122-45.486c9.243-30.835,8.989-64.773,4.051-96.358
				c-2.312-14.786-5.873-29.401-10.018-43.771c-3.878-13.444-8.372-26.916-14.701-39.426
				C382.885,279.012,379.165,280.332,379.585,281.162L379.585,281.162z"/>
		</g>
	</g>
	<g>
		<path fill="#222226" d="M133.179,405.324c-8.078,9.835-15.104,28.803-11.943,41.448c3.161,12.997,7.026,2.46,9.134-3.863
			c0,10.89-5.621,28.451,0.702,38.638c8.431,13.699,27.398-13.347,30.559-21.427c-1.054,8.782-9.835,31.614,7.025,25.994
			c25.995-8.431,37.936-45.312,38.639-68.495"/>
		<g>
			<path fill="#4B4B4B" d="M131.395,405.25c-8.67,10.916-14.671,26.765-12.34,40.79c0.511,3.069,2.157,9.791,6.734,7.723
				c3.952-1.785,5.233-7.338,6.492-11.075c-1.274,0.148-2.548,0.295-3.822,0.443c-0.166,9.54-9.394,44.534,9.184,43.298
				c6.069-0.404,11.381-5.938,15.134-10.154c4.279-4.808,8.306-10.392,10.765-16.376c-1.274,0.148-2.548,0.295-3.822,0.443
				c-1.015,7.525-5.326,16.685-2.436,24.191c3.306,8.585,17.736,0.383,22.16-2.54c20.038-13.24,28.914-41.755,29.763-64.595
				c0.062-1.665-3.772-0.908-3.822,0.441c-0.747,20.087-7.442,42.012-21.365,56.915c-3.813,4.082-21.12,18.063-23.492,6.8
				c-1.474-6.999,2.086-14.768,3.015-21.656c0.238-1.764-3.371-0.655-3.822,0.443c-1.805,4.393-4.685,8.42-7.543,12.176
				c-3.265,4.292-8.335,10.765-14.048,11.67c-7.433,1.178-8.184-13.05-8.132-17.431c0.096-8.076,2.145-15.996,2.285-24.069
				c0.031-1.771-3.42-0.751-3.822,0.443c-0.626,1.859-1.274,3.706-2.053,5.509c-0.261,0.587-0.547,1.161-0.858,1.723
				c-0.149,0.247-0.298,0.493-0.447,0.74c-0.999,0.943-0.917,1.131,0.245,0.562c-3.622-2.778-3.086-12.075-2.768-15.9
				c0.901-10.819,5.668-21.907,12.385-30.365C136.069,404.006,132.205,404.23,131.395,405.25L131.395,405.25z"/>
		</g>
	</g>
	<g>
		<path fill="#D9E4F4" d="M273.505,315.418c-17.652-22.734-63.051-19.494-84.126-7.902c-36.658,20.162-60.941,44.083-65.684,76.574
			c-4.833,33.109,9.659,71.48,49.176,69.373c30.032-2.108,55.013-20.022,74.508-40.57
			C266.346,392.344,297.917,346.857,273.505,315.418z"/>
		<g>
			<path fill="#4B4B4B" d="M275.29,314.725c-12.28-15.272-34.141-18.083-52.493-16.823c-9.139,0.628-18.229,2.524-26.822,5.698
				c-10.286,3.798-19.83,10.303-28.794,16.506c-18.234,12.618-34.446,29.109-41.991,50.338c-6.591,18.544-5.933,40.778,2.66,58.551
				c8.411,17.396,25.259,26.163,44.233,25.378c24.138-0.998,46.618-13.957,64.435-29.4c15.86-13.747,29.275-30.684,38.686-49.464
				C284.843,356.271,289.07,333.063,275.29,314.725c-0.646-0.859-4.315,0.395-3.569,1.387c14.926,19.863,7.991,44.885-2.861,64.887
				c-11.168,20.583-27.526,38.69-46.394,52.459c-20.293,14.808-51.478,27.422-75.017,12.713
				c-17.09-10.68-22.917-32.731-22.729-51.693c0.374-37.752,28.165-64.307,58.538-82.427c14.163-8.448,28.979-12.531,45.524-12.604
				c15.559-0.07,32.784,4.035,42.94,16.666C272.405,316.963,276.052,315.673,275.29,314.725z"/>
		</g>
	</g>
	<g>
		<g>
			<path fill="#4B4B4B" d="M335.966,74.65c2.172,4.493,2.453,10.094,2.979,14.969c0.909,8.446,1.29,16.953,1.61,25.439
				c0.512,13.57,0.643,27.155,0.52,40.734c-0.285,31.562-0.232,64.061-5.749,95.219c-0.345,1.948,3.558,1.473,3.867-0.274
				c5.518-31.162,5.447-63.653,5.749-95.219c0.13-13.58-0.034-27.162-0.52-40.734c-0.301-8.382-0.747-16.766-1.556-25.116
				c-0.502-5.191-0.775-11.258-3.088-16.04C338.96,71.935,335.188,73.043,335.966,74.65L335.966,74.65z"/>
		</g>
	</g>
	<g>
		<path fill="#FEC40D" d="M250.497,165.046c-22.492,2.25-33.136-13.503-32.315-19.812c4.567-35.109,53.743-41.096,114.203-37.935
			c49.634,2.595,99.713-0.739,109.775,32.732c5.405,19.811-17.089,29.06-32.192,25.231c-9.689-2.456-24.908-14.638-68.29-15.155
			C296.75,149.574,287.895,161.306,250.497,165.046z"/>
		<g>
			<path fill="#4B4B4B" d="M251.332,164.312c-10.932,0.899-22.248-2.487-28.699-11.83c-4.255-6.162-2.096-13.13,1.111-19.333
				c9.436-18.248,34-22.501,52.342-24.488c26.905-2.914,54.11-0.566,81.057,0.441c22.377,0.835,48.837,0.364,68.573,12.553
				c7.707,4.76,13.417,12.518,15.097,21.466c2.27,12.094-8.243,20.638-19.233,22.05c-6.761,0.869-12.451-1.281-18.47-3.879
				c-6.547-2.826-13.19-5.279-20.088-7.11c-22.715-6.031-47.74-6.326-70.883-2.872C291.541,154.386,272.156,162.143,251.332,164.312
				c-0.942,0.098-4.167,1.728-1.669,1.468c20.312-2.116,39.221-9.196,59.21-12.72c24.72-4.358,52.052-3.301,76.126,4.019
				c12.246,3.723,23.159,11.518,36.489,9.353c7.63-1.239,15.082-4.345,19.962-10.548c5.962-7.579,3.209-17.857-1.504-25.254
				c-10.397-16.316-33.611-19.601-51.152-21.286c-12.912-1.241-25.884-1.624-38.841-2.097c-13.818-0.504-27.616-1.372-41.448-1.434
				c-21.412-0.096-43.985,0.984-64.183,8.761c-13.877,5.343-26.758,15.827-28.086,31.638c-0.439,5.236,4.654,10.459,8.349,13.405
				c7.035,5.609,16.376,6.879,25.078,6.164C250.615,165.702,253.838,164.106,251.332,164.312z"/>
		</g>
	</g>
	<g>
		<path fill="#B01E34" d="M257.721,156.355c-20.464,1.69-30.147-10.145-29.4-14.883c4.155-26.375,48.894-30.875,103.899-28.499
			c45.157,1.949,90.717-0.554,99.872,24.592c4.918,14.882-15.547,21.831-29.288,18.954c-8.814-1.847-21.822-10.919-61.291-11.307
			C300.639,144.81,291.745,153.544,257.721,156.355z"/>
		<g>
			<path fill="#4B4B4B" d="M258.392,155.696c-9.798,0.641-22.646-1.614-27.755-11.226c-3.074-5.782,3.23-13.771,7.259-17.353
				c7.538-6.701,18.373-9.289,28.013-11.061c12.935-2.377,26.227-2.874,39.349-2.969c14.358-0.104,28.701,0.709,43.047,1.14
				c13.334,0.4,26.691,0.727,39.962,2.169c10.856,1.18,22.319,3.184,31.753,8.999c7.217,4.449,14.3,13.926,9.721,22.503
				c-4.293,8.041-16.596,9.382-24.556,8.204c-3.418-0.506-6.698-1.924-9.927-3.09c-11.951-4.316-24.271-6.697-36.922-7.775
				c-17.832-1.52-36.038-0.905-53.66,2.261C289.178,150.281,274.145,154.336,258.392,155.696c-0.845,0.073-3.409,1.497-1.341,1.318
				c21.004-1.813,41.121-8.373,62.072-10.357c23.237-2.201,47.912-1.058,70.181,6.414c4.821,1.618,9.607,3.922,14.712,4.483
				c8.082,0.889,16.547-0.587,23.517-4.879c7.567-4.66,8.278-12.738,3.959-19.979c-4.273-7.164-12.302-11.014-19.933-13.501
				c-10.189-3.319-21.174-4.298-31.802-5.061c-13.199-0.946-26.449-1.104-39.671-1.558c-24.531-0.841-49.302-1.968-73.613,2.258
				c-13.679,2.378-30.894,7.067-37.714,20.51c-8.513,16.781,16.484,22.442,28.292,21.67
				C257.904,156.958,260.466,155.56,258.392,155.696z"/>
		</g>
	</g>
	<g>
		<path fill="#FFFFFF" d="M364.55,122.231c0.708,4.816,0.612,14.089,9.68,19.536c-2.838-6.957-3.283-11.215-1.368-13.757
			c1.37-2.064,6.47-5.669,12.348-6.108C379.469,119.233,371.576,119.286,364.55,122.231z"/>
	</g>
	<g>
		<path fill="#FEC40D" d="M195.85,218.354c-5.191,1.116-14.022-0.146-19.818-0.146c-3.82-6.586-4.214-14.621-3.952-21.471
			c0.527-8.957,1.317-18.178,6.06-26.212c5.796-1.054,13.615-2.107,19.675-3.425c0,0,4.562,2.239,3.771,25.291
			C200.813,214.912,195.85,218.354,195.85,218.354z"/>
		<g>
			<path fill="#4B4B4B" d="M196.097,217.25c-5.022,0.879-10.203,0.266-15.257-0.029c-3.344-0.195-3.696-0.751-4.913-3.931
				c-0.954-2.491-1.361-5.18-1.698-7.811c-1.439-11.231,0.169-24.937,5.693-34.888c-0.677,0.346-1.353,0.692-2.029,1.039
				c4.945-0.875,9.913-1.614,14.859-2.482c0.263-0.046,4.48-0.537,3.593-1.075c-0.344-0.209,0.176,0.211,0.27,0.323
				c2.502,2.963,2.609,8.426,2.908,12.018c0.798,9.616,0.304,19.824-1.75,29.269c-0.504,2.321-1.201,4.66-2.323,6.761
				c-0.217,0.406-1.408,1.752-0.794,1.3c-2.083,1.534,1.156,2.128,2.39,1.22c4.528-3.335,5.114-11.929,5.73-16.82
				c0.993-7.883,1.119-16.022,0.461-23.94c-0.287-3.454-0.746-7.358-2.502-10.429c-0.616-1.077-1.31-1.941-2.673-1.779
				c-4.444,0.526-8.914,1.648-13.344,2.361c-2.231,0.359-6.33,0.166-8.116,1.819c-2.303,2.132-3.424,7.184-4.233,10.038
				c-1.23,4.336-1.632,8.906-1.98,13.381c-0.668,8.582-0.411,17.377,3.738,25.124c0.242,0.452,0.669,0.607,1.176,0.615
				c6.738,0.094,13.605,1.297,20.301,0.125C197.445,219.137,198.719,216.791,196.097,217.25z"/>
		</g>
	</g>
	<g>
		<path fill="#FEC40D" d="M195.85,218.354c-5.191,1.116-14.022-0.146-19.818-0.146c3.162-5.707,5.796-14.489,6.06-21.339
			c0.527-8.958,0.658-19.495-3.952-26.344c5.796-1.054,13.615-2.107,19.675-3.425c0,0,4.562,2.239,3.771,25.291
			C200.813,214.912,195.85,218.354,195.85,218.354z"/>
		<g>
			<path fill="#4B4B4B" d="M196.164,217.501c-6.35,1.112-12.942-0.103-19.343-0.193c0.367,0.202,0.734,0.404,1.102,0.605
				c3.801-7.186,5.71-14.979,6.158-23.062c0.463-8.368,0.507-17.479-4.035-24.837c-0.74,0.455-1.48,0.909-2.221,1.364
				c4.945-0.875,9.913-1.615,14.859-2.482c1.57-0.275,3.004-1.644,3.912-0.57c2.75,3.256,2.75,9.431,3.01,13.353
				c0.636,9.573,0.194,19.651-2.038,29.006c-0.513,2.15-1.742,6.425-3.208,7.504c-1.641,1.209,2.194,0.908,2.979,0.33
				c1.997-1.471,2.872-4.538,3.556-6.75c3.024-9.775,3.036-21.008,2.524-31.112c-0.217-4.285-0.413-10.35-3.375-13.857
				c-0.482-0.571-1.179-0.708-1.916-0.554c-6.519,1.364-13.119,2.265-19.675,3.425c-0.289,0.051-2.65,0.668-2.221,1.364
				c4.301,6.968,4.39,15.365,4.106,23.307c-0.303,8.468-2.224,16.645-6.2,24.16c-0.298,0.564,0.87,0.602,1.102,0.605
				c6.746,0.094,13.587,1.273,20.294,0.099C197.175,218.921,198.823,217.036,196.164,217.501z"/>
		</g>
	</g>
	<g>
		<path fill="#BBC4DB" d="M204.835,523.188c-7.026-21.076-24.589-0.703-35.126-2.811c-3.512-0.703-6.322-6.323-10.538-7.025
			c-6.323-1.405-9.132,2.107-14.05,2.811c-2.811,0.703-4.918,2.811-8.43,3.512c-7.728-11.942-25.994-18.968-39.34-11.239
			c-3.513-20.373-25.291-2.81-22.481,11.239c-16.158-2.107-39.34,21.778-23.885,35.828c11.942,11.24,32.315-21.776,40.043-7.024
			c2.108,3.512-6.322,11.942-3.513,17.562c4.918,11.24,14.051-0.702,20.374-4.215c9.834-4.917,21.075-4.216,31.613-7.024
			c7.727,17.562,21.777,6.322,30.91-3.514c14.05,18.266,52.689-12.646,35.125-23.885"/>
		<g>
			<path fill="#4B4B4B" d="M206.742,522.677c-2.097-5.797-5.391-9.962-11.871-10.004c-5.724-0.037-11.316,3.199-16.446,5.321
				c-3.899,1.614-7.118,2.443-10.583-0.547c-3.065-2.644-5.019-4.57-9.101-5.234c-7.701-1.254-15.197,4.868-22.243,6.738
				c0.7,0.071,1.4,0.142,2.1,0.212c-9.225-13.525-27.755-18.988-42.376-11.095c1.012-0.048,2.024-0.097,3.036-0.145
				c-1.566-7.821-7.177-11.95-14.781-8.177c-7.362,3.653-12.856,12.083-11.513,20.438c1.039-0.461,2.078-0.922,3.118-1.383
				c-13.475-1.316-31.163,10.592-32.025,24.888c-0.394,6.531,3.495,13.662,10.289,14.97c5.359,1.032,11.135-2.404,15.464-5.066
				c4.186-2.572,12.761-10.939,17.692-6.801c3.461,2.905,1.133,6.708-0.383,9.977c-2.058,4.438-2.925,7.924-0.136,12.21
				c3.925,6.032,12.144,0.62,16.035-2.346c5.527-4.211,10.576-6.625,17.564-7.88c6.376-1.145,12.811-1.661,19.114-3.229
				c-0.7-0.071-1.4-0.142-2.1-0.212c8.412,17.787,25.045,6.022,34.56-4.101c-1.177,0.253-2.354,0.507-3.531,0.761
				c15.435,18.915,56.575-13.034,38.7-25.254c-0.965-0.66-4.311,0.865-3.574,1.369c15.907,10.874-17.754,39.424-31.551,22.516
				c-0.661-0.811-3,0.196-3.531,0.761c-3.693,3.93-7.625,7.7-12.384,10.313c-7.047,3.87-12.014-1.335-14.876-7.387
				c-0.31-0.656-1.592-0.338-2.1-0.212c-10.16,2.53-20.748,2.465-30.549,6.455c-2.914,1.187-5.305,3.12-7.753,5.052
				c-1.741,1.374-3.489,2.699-5.44,3.767c-3.536,1.935-5.605-2.413-6.513-4.784c-2.388-6.241,7.098-11.945,3.052-17.939
				c-2.292-3.398-6.418-3.255-9.928-2.171c-9.111,2.817-21.186,18.33-30.287,9.506c-13.375-12.968,7.409-34.82,21.768-33.417
				c0.655,0.063,3.292-0.299,3.118-1.383c-0.936-5.82,1.606-11.269,5.525-15.459c6.238-6.669,11.646-2.233,13.144,5.241
				c0.187,0.935,2.619,0.08,3.036-0.145c12.643-6.827,28.693,0.225,36.305,11.384c0.419,0.615,1.5,0.371,2.1,0.212
				c6.775-1.799,14.635-7.912,21.854-5.934c3.201,0.878,5.365,4.706,8.241,6.292c1.583,0.874,3.872,0.787,5.596,0.5
				c4.896-0.815,9.319-3.081,13.864-4.963c8.221-3.403,13.458-0.973,16.49,7.406C203.315,524.767,207.083,523.619,206.742,522.677
				L206.742,522.677z"/>
		</g>
	</g>
	<g>
		<path fill="#BBC4DB" d="M51.687,484.549c-21.777-5.62-12.646,22.48,4.918,18.265c12.645-2.81,46.366-23.183,15.455-23.885
			c0.702-15.455-14.051,3.513-18.968,1.405"/>
		<g>
			<path fill="#4B4B4B" d="M52.785,483.254c-7.138-1.689-17.036-0.402-15.598,9.175c1.378,9.177,11.609,13.415,19.772,11.705
				c9.391-1.966,19.623-7.865,26.424-14.547c1.859-1.826,4.561-5.369,2.721-8.065c-2.655-3.89-9.292-3.852-13.387-3.991
				c0.425,0.419,0.851,0.838,1.276,1.257c0.094-4.53-1.298-8.495-6.539-7.02c-2.198,0.619-4.193,2.039-6.075,3.279
				c-1.446,0.954-5.322,4.558-7.189,3.992c-1.654-0.501-4.502,1.892-2.195,2.59c3.316,1.005,6.516-1.247,9.17-2.973
				c1.884-1.226,3.697-2.551,5.671-3.633c3.289-1.803,3.349,1.282,3.292,4.047c-0.015,0.706,0.572,1.232,1.276,1.257
				c3.233,0.109,8.538-0.15,10.952,2.501c1.811,1.988-1.679,5.188-2.958,6.37c-5.243,4.852-12.083,8.304-18.675,10.908
				c-6.7,2.646-13.38,2.057-17.806-4.127c-1.544-2.157-2.568-5.231-1.774-7.859c1.187-3.929,6.475-2.979,9.447-2.276
				C52.244,486.235,55.105,483.803,52.785,483.254L52.785,483.254z"/>
		</g>
	</g>
	<g>
		<path fill="#BBC4DB" d="M41.149,452.936c-16.86-1.404-19.67,17.563-2.107,14.05c14.753-2.81,23.886-12.646,4.918-16.157"/>
		<g>
			<path fill="#4B4B4B" d="M41.833,451.641c-6.054-0.389-13.684,1.412-16.143,7.705c-2.204,5.642,3.013,9.035,8.002,9.357
				c6.961,0.449,16.453-2.604,21.219-7.882c5.994-6.641-5.048-10.259-9.832-11.204c-1.504-0.297-4.521,1.971-2.241,2.422
				c3.068,0.605,12.224,2.367,9.268,7.355c-2.647,4.465-10.712,6.159-15.351,6.661c-3.873,0.418-8.412-1.292-7.569-5.891
				c0.913-4.981,7.137-6.201,11.278-5.935C42.202,454.342,44.419,451.807,41.833,451.641L41.833,451.641z"/>
		</g>
	</g>
</g>
</svg>
