<?xml version="1.0" encoding="utf-8"?>
<!-- Generator: Adobe Illustrator 16.2.1, SVG Export Plug-In . SVG Version: 6.00 Build 0)  -->
<!DOCTYPE svg PUBLIC "-//W3C//DTD SVG 1.1//EN" "http://www.w3.org/Graphics/SVG/1.1/DTD/svg11.dtd">
<svg version="1.1" id="Layer_1" xmlns="http://www.w3.org/2000/svg" xmlns:xlink="http://www.w3.org/1999/xlink" x="0px" y="0px"
	 width="612px" height="612px" viewBox="0 0 612 612" enable-background="new 0 0 612 612" xml:space="preserve">
<g>
	<g>
		<path fill="#727886" d="M159.233,287.874c6.337-45.632,65.278-90.629,108.376-60.842c19.646,13.942,31.688,36.759,34.857,59.575
			c0.634,9.506,3.169,37.394-8.239,42.463"/>
		<g>
			<path fill="#4B4B4B" d="M161.171,287.756c5.994-40.181,51.767-80.673,93.482-65.609c23.277,8.405,38.49,33.126,44.216,56.063
				c2.085,8.354,2.431,17.07,2.326,25.65c-0.089,7.286-0.201,20.166-7.839,23.988c-2.321,1.161-0.252,3.442,1.741,2.444
				c6.86-3.433,8.621-11.661,9.481-18.63c1.03-8.341,0.393-16.822-0.175-25.173c-0.795-11.704-5.8-23.737-11.45-33.864
				c-6.051-10.845-14.734-20.578-25.048-27.525c-37.466-25.235-84.907,4.963-103.077,39.698c-3.787,7.239-6.331,15.12-7.535,23.194
				C156.989,290.038,160.896,289.599,161.171,287.756L161.171,287.756z"/>
		</g>
	</g>
	<g>
		<path fill="#727886" d="M452.309,287.874c-6.338-45.632-65.277-90.629-108.375-60.842c-19.647,13.942-31.689,36.759-34.857,59.575
			c-0.635,9.506-3.171,37.394,8.238,42.463"/>
		<g>
			<path fill="#4B4B4B" d="M454.215,287.363c-5.967-40.004-48.033-77.03-89.444-69.683c-42.799,7.593-65.266,60.745-56.873,100.062
				c1.007,4.718,3.095,9.71,7.62,11.974c0.995,0.498,4.029-1.076,3.594-1.295c-7.136-3.57-8.094-13.551-8.61-20.58
				c-0.628-8.527-0.338-17.613,1.188-26.034c4.394-24.249,19.708-49.461,42.795-59.796c21.33-9.548,45.928-0.224,63.236,13.191
				c16.655,12.909,29.544,32.143,32.683,53.182C450.516,289.145,454.359,288.329,454.215,287.363L454.215,287.363z"/>
		</g>
	</g>
	<g>
		<path fill="#FEC40D" d="M376.313,155.96c1.618-5.003,2.568-10.146,3.027-15.191c0.222-1.333,0.471-2.654,0.78-3.97
			c0.914-3.87,2.348-7.633,5.07-11.007c0.919-1.245,1.943-2.453,3.058-3.638c3.344-3.55,7.498-6.877,11.999-10.225
			c1.436-0.987,2.877-1.941,4.303-2.859c-1.901,0.735-3.804,0.735-5.523,0.927c-1.721-0.012-3.274-0.571-4.34-2.167
			c-0.516-1.897-0.649-3.055-0.601-4.043c0.048-0.989,0.275-1.808,0.48-3.03c2.378-15.203,12.834-29.166,26.834-39.038
			c1.342-0.98,2.722-1.924,4.136-2.831c2.825-1.811,5.797-3.464,8.887-4.934c-4.989,0.827-9.581,2.273-13.92,4.096
			c-1.446,0.607-2.866,1.258-4.265,1.939c-4.869,2.69-9.857,5.409-14.578,8.343c-1.182,0.732-2.345,1.479-3.487,2.242
			c-7.897,4.77-14.202,10.29-19.396,16.47c-1.039,1.237-2.033,2.5-2.987,3.788c-8.316,10.889-15.921,24.117-13.812,37.098
			c0.078,1.354,0.182,2.707,0.319,4.062c0.139,1.357,0.313,2.716,0.512,4.079c0.316,2.803,0.792,5.594,1.288,8.375
			c0.494,2.781,1.011,5.551,1.403,8.318c0.714,2.771,1.071,5.443,1.025,8.162c-0.045,2.718-0.496,5.488-1.396,8.454"/>
		<g>
			<path fill="#4B4B4B" d="M378.127,155.693c2.516-8.171,2.431-16.917,5.664-24.851c3.815-9.36,14.053-16.281,22.194-21.576
				c1.438-0.935-1.047-1.143-1.641-0.965c-4.084,1.229-7.716,0.982-8.415-3.938c-0.409-2.884,0.951-6.74,1.713-9.511
				c1.547-5.634,4.377-10.856,7.662-15.648c7.421-10.826,18.531-19.124,30.217-24.834c1.451-0.709,0.297-1.488-0.812-1.286
				c-12.984,2.375-24.246,8.622-35.322,15.569c-10.883,6.826-19.724,14.601-27.335,24.982c-7.358,10.035-13.58,22-11.898,34.783
				c0.799,6.079,1.334,12.128,2.417,18.183c1.42,7.945,2.957,15.057,0.744,23.045c-0.306,1.105,3.323,0.562,3.627-0.534
				c3.115-11.246-0.92-22.289-2.31-33.53c-0.727-5.868-1.594-11.766-0.743-17.661c0.958-6.636,4.18-12.903,7.616-18.559
				c6.156-10.135,14.133-18.995,23.825-25.83c11.548-8.142,24.78-16.144,38.807-18.708c-0.271-0.429-0.541-0.857-0.812-1.286
				c-13.913,6.798-27.213,17.265-34.728,31.056c-3.343,6.134-6.445,13.629-6.316,20.747c0.127,6.923,7.856,5.885,12.475,4.497
				c-0.547-0.322-1.094-0.643-1.641-0.965c-8.057,5.24-16.137,11.38-21.416,19.553c-5.208,8.063-4.443,18.847-7.2,27.802
				C374.17,157.301,377.789,156.789,378.127,155.693L378.127,155.693z"/>
		</g>
	</g>
	<g>
		<path fill="#FEC40D" d="M236.603,155.96c-1.619-5.003-2.57-10.146-3.028-15.191c-0.221-1.333-0.47-2.654-0.779-3.97
			c-0.914-3.87-2.349-7.633-5.07-11.007c-0.92-1.245-1.945-2.453-3.06-3.638c-3.342-3.55-7.496-6.877-12-10.225
			c-1.433-0.987-2.875-1.941-4.3-2.859c1.901,0.735,3.802,0.735,5.521,0.927c1.721-0.012,3.275-0.571,4.341-2.167
			c0.517-1.897,0.648-3.055,0.602-4.043c-0.049-0.989-0.277-1.808-0.482-3.03c-2.377-15.203-12.834-29.166-26.833-39.038
			c-1.342-0.98-2.721-1.924-4.135-2.831c-2.828-1.811-5.798-3.464-8.889-4.934c4.992,0.827,9.582,2.273,13.921,4.096
			c1.446,0.607,2.865,1.258,4.263,1.939c4.871,2.69,9.857,5.409,14.58,8.343c1.18,0.732,2.344,1.479,3.485,2.242
			c7.899,4.77,14.204,10.29,19.397,16.47c1.04,1.237,2.035,2.5,2.988,3.788c8.316,10.889,15.922,24.117,13.813,37.098
			c-0.077,1.354-0.181,2.707-0.32,4.062c-0.14,1.357-0.313,2.716-0.51,4.079c-0.317,2.803-0.792,5.594-1.289,8.375
			c-0.495,2.781-1.011,5.551-1.403,8.318c-0.714,2.771-1.071,5.443-1.026,8.162c0.045,2.718,0.497,5.488,1.396,8.454"/>
		<g>
			<path fill="#4B4B4B" d="M238.427,155.472c-2.639-8.568-2.049-18.549-6.46-26.494c-4.938-8.893-13.804-15.435-22.172-20.877
				c-0.837,0.694-1.675,1.388-2.512,2.082c3.074,0.925,11.614,2.397,12.782-2.535c1.701-7.181-1.441-15.198-4.563-21.608
				c-7.19-14.765-21.074-25.965-35.582-33.053c-0.837,0.694-1.675,1.388-2.512,2.082c13.15,2.404,24.862,9.193,35.906,16.477
				c10.669,7.036,18.946,15.14,26.189,25.676c3.856,5.609,6.957,11.676,8.817,18.232c1.688,5.949,0.983,12.041,0.313,18.082
				c-1.339,12.083-6.006,24.276-2.67,36.335c0.412,1.49,4.058,0.506,3.647-0.978c-3.457-12.496,1.787-25.83,2.973-38.436
				c0.577-6.139,0.632-11.585-1.071-17.585c-1.749-6.161-5.139-11.872-8.647-17.17c-7.031-10.616-15.861-19.405-26.695-26.095
				c-11.598-7.162-22.985-14.276-36.594-16.763c-0.866-0.159-4.337,1.19-2.512,2.082c11.29,5.516,21.405,13.235,29.151,23.17
				c3.73,4.785,6.56,10.186,8.548,15.904c0.818,2.354,1.335,4.797,1.762,7.248c0.304,1.75,0.516,3.324,0.264,5.095
				c-0.517,3.64-5.595,2.141-7.338,1.617c-0.99-0.298-4.172,1.002-2.512,2.082c7.904,5.141,15.742,11.096,20.918,19.112
				c5.048,7.816,4.246,18.605,6.923,27.298C235.238,157.937,238.876,156.931,238.427,155.472L238.427,155.472z"/>
		</g>
	</g>
	<g>
		<path fill="#222226" d="M497.084,593.312c-79.381-46.106,61.793-152.583,100.77-170.169c15.688-6.654,35.65-13.312,50.861-2.853
			c15.686,10.458,14.26,26.619,9.506,42.781c-9.031,28.044-24.241,55.612-40.879,79.379c-22.341,30.421-49.436,47.059-85.56,57.991"
			/>
		<g>
			<path fill="#4B4B4B" d="M498.607,592.414c-67.511-39.82,27.291-119.357,61.721-144.668c10.789-7.932,22.008-15.505,33.886-21.725
				c9.421-4.934,19.976-8.633,30.538-9.898c14.402-1.727,29.336,5.736,33.691,20.101c3.688,12.161-1.512,26.062-5.713,37.374
				c-5.522,14.875-12.642,29.131-20.555,42.866c-13.747,23.863-29.983,45.774-53.023,61.37
				c-14.53,9.836-30.897,16.587-47.613,21.701c-2.24,0.686-1.783,2.509,0.486,1.814c22.655-6.932,44.122-16.896,62.386-32.182
				c21.012-17.586,35.825-41.591,48.419-65.604c6.861-13.083,12.706-26.698,17.294-40.743c3.368-10.312,5.082-22.379,0.247-32.478
				c-4.865-10.163-16.146-15.507-26.854-16.449c-11.953-1.052-24.163,3.45-35.01,7.925c-11.014,4.543-21.225,11.434-31.014,18.127
				c-13.591,9.293-26.584,19.479-38.92,30.381c-12.911,11.41-25.12,23.766-35.665,37.415c-8.898,11.519-16.938,24.522-20.29,38.838
				c-4.811,20.547,5.43,37.304,22.941,47.632C496.588,594.817,500.121,593.307,498.607,592.414L498.607,592.414z"/>
		</g>
	</g>
	<g>
		<path fill="#D9E4F4" d="M491.271,339.377c-2.377,23.292,9.507,51.334,21.39,70.825c19.965,31.372,57.989,60.842,93.641,71.774
			c11.409,3.328,27.094,5.229,34.226-7.13c8.079-14.26,0.949-37.552-3.329-51.812c-17.111-55.137-61.793-86.985-108.375-116.456"/>
		<g>
			<path fill="#4B4B4B" d="M489.337,339.512c-2.276,25.736,9.288,52.98,23.239,74.08c14.782,22.354,36.085,40.743,58.945,54.439
				c10.87,6.513,22.629,12.122,34.842,15.587c9,2.554,19.06,3.688,27.732-0.52c9.662-4.687,12.104-16.234,12.032-25.979
				c-0.087-11.79-3.665-23.406-7.023-34.597c-16.239-54.12-63.315-88.246-108.817-117.066c-1.465-0.928-4.781,1.068-2.928,2.242
				c42.312,26.801,85.054,57.321,104.302,105.506c4.514,11.3,7.939,23.465,9.82,35.485c1.929,12.337,1.325,29.551-13.157,33.616
				c-11.498,3.228-25.097-2.602-35.463-7.051c-13.01-5.584-25.149-13.13-36.46-21.603c-17.45-13.072-33.324-29.295-44.318-48.221
				c-11.357-19.55-20.913-43.175-18.877-66.19C493.385,337.225,489.494,337.733,489.337,339.512L489.337,339.512z"/>
		</g>
	</g>
	<g>
		<path fill="#222226" d="M551.272,337.107c17.586,2.377,36.6,27.569,45.156,40.88c9.98,15.686,19.963,36.6,19.487,56.087
			c-2.851-0.949-4.277-2.851-6.654-5.702c-8.081-9.507-15.21-19.488-23.292-28.996c-24.718-28.995-53.712-52.286-84.134-74.627"/>
		<g>
			<path fill="#4B4B4B" d="M550.128,338.227c17.312,2.799,30.65,20.722,40.165,34.064c12.689,17.796,23.914,39.638,23.708,61.991
				c1.139-0.397,2.277-0.794,3.416-1.19c-5.211-2.123-8.903-8.455-12.306-12.701c-4.254-5.311-8.375-10.728-12.63-16.038
				c-8.563-10.689-17.985-20.672-27.82-30.194c-19.028-18.424-40.013-34.719-61.324-50.391c-1.116-0.822-4.599,0.789-3.002,1.963
				c21.63,15.907,42.757,32.512,62.065,51.206c9.866,9.553,19.134,19.706,27.72,30.422c4.255,5.311,8.375,10.728,12.63,16.038
				c3.278,4.091,6.618,9.604,11.665,11.66c0.837,0.341,3.403,0.169,3.416-1.19c0.207-22.525-10.762-44.024-23.316-62.137
				c-9.763-14.086-23.963-32.81-42.098-35.741C551.073,335.771,547.904,337.867,550.128,338.227L550.128,338.227z"/>
		</g>
	</g>
	<g>
		<g>
			<path fill="#4B4B4B" d="M607.85,403.344c-0.526,4.787-3.565,9.236-8.46,10.274c-2.369,0.503-1.722,2.747,0.604,2.254
				c6.233-1.322,10.998-6.585,11.694-12.915C611.88,401.203,608.015,401.845,607.85,403.344L607.85,403.344z"/>
		</g>
	</g>
	<g>
		<g>
			<path fill="#4B4B4B" d="M596.433,382.535c-1.045,6.178-5.633,9.702-11.185,11.896c-2.496,0.987-0.183,1.975,1.443,1.332
				c6.355-2.513,12.322-6.595,13.536-13.771C600.449,380.685,596.629,381.371,596.433,382.535L596.433,382.535z"/>
		</g>
	</g>
	<g>
		<g>
			<path fill="#4B4B4B" d="M583.143,362.901c-2.631,8.027-10.048,11.427-17.802,13.006c-2.373,0.483-1.727,2.699,0.596,2.227
				c9.167-1.866,17.955-6.208,21.042-15.625C587.48,360.978,583.613,361.466,583.143,362.901L583.143,362.901z"/>
		</g>
	</g>
	<g>
		<path fill="#B01E34" d="M420.555,277.216c-6.497-31.847,16.636-44.206,23.766-48.484c16.162-9.032,36.602-9.507,54.188-4.754
			c41.354,10.933,75.579,53.712,73.678,96.969c-1.427,30.42-24.718,47.532-53.714,42.779
			C472.842,357.071,430.188,324.442,420.555,277.216z"/>
		<g>
			<path fill="#4B4B4B" d="M422.12,276.796c-2.109-11.068-1.181-22.057,4.977-31.692c3.861-6.042,9.6-10.583,15.645-14.286
				c23.132-14.17,52.929-9.942,75.752,2.641c22.02,12.14,39.203,33.077,47.47,56.729c7.416,21.22,7.806,48.601-10.677,64.297
				c-11.23,9.538-26.199,10.063-40.013,7.646c-14.648-2.565-28.711-8.003-41.521-15.507
				C447.827,331.438,428.375,306.345,422.12,276.796c-0.257-1.212-3.396-0.414-3.131,0.839c9.76,46.108,50.526,78.653,95.782,86.576
				c18.529,3.245,37.537-0.54,49.627-15.938c13.797-17.574,10.67-43.549,3.197-63.01c-14.274-37.172-52.553-66.733-93.229-65.199
				c-15.509,0.585-30.213,5.699-42.095,15.735c-12.517,10.571-16.284,26.092-13.283,41.836
				C419.22,278.843,422.361,278.06,422.12,276.796z"/>
		</g>
	</g>
	<g>
		<path fill="#B01E34" d="M476.775,534.051c23.337-40.205,73.786-54.514,109.938-80.002c27.822-19.205,57.012-42.886,71.836-74.388
			c5.808-11.246,8.141-23.503,10.945-35.817c4.997,5.616,5.378,16.581,6.242,23.659c1.896,19.4,0.129,40.211-2.754,59.717
			c-6.384,49.625-23.252,95.744-56.488,133.327c-26.024,29.999-64.902,60.609-106.658,44.167
			c-26.149-10.213-49.097-49.068-30.16-74.37"/>
		<g>
			<path fill="#4B4B4B" d="M478.319,533.772c23.031-38.952,69.103-53.001,105.049-76.585c19.91-13.063,39.15-28.029,55.093-45.784
				c7.927-8.828,14.792-18.583,20.223-29.135c6.324-12.287,9.326-25.317,12.354-38.703c-1.007,0.271-2.014,0.54-3.02,0.81
				c3.641,4.506,4.587,10.387,5.317,15.97c0.889,6.795,1.403,13.635,1.58,20.483c0.404,15.656-1.245,31.34-3.499,46.812
				c-4.022,27.611-10.436,54.425-22.001,79.928c-11.368,25.068-27.641,47.533-47.226,66.817
				c-20.657,20.34-48.046,38.338-78.32,33.353c-18.405-3.031-33.178-14.905-42.333-30.844c-8.316-14.479-10.474-32.72-0.317-46.828
				c0.209-0.29-2.55-0.19-3.088,0.557c-13.007,18.069-5.727,41.157,7.139,57.115c14.623,18.139,37.631,24.913,60.204,21.041
				c24.126-4.14,44.931-20.006,61.813-36.886c18.803-18.799,34.07-40.755,45.215-64.881c11.688-25.303,18.433-52.653,22.045-80.212
				c2.124-16.198,3.874-32.303,3.451-48.673c-0.173-6.682-0.845-13.362-1.711-19.987c-0.689-5.28-1.912-10.611-5.318-14.827
				c-0.399-0.495-2.883,0.206-3.02,0.81c-2.919,12.901-5.896,25.285-11.64,37.266c-5.535,11.547-13.236,21.967-21.763,31.463
				c-16.325,18.183-36.525,33.417-57.066,46.516c-35.468,22.617-79.717,36.853-102.25,74.963
				C475.007,534.709,477.859,534.55,478.319,533.772L478.319,533.772z"/>
		</g>
	</g>
	<g>
		<path fill="#D9E4F4" d="M244.048,142.539c-3.643-2.852-8.556,0.316-10.773,3.644c-3.328,5.388-2.377,13.626,0.792,18.854
			c3.486,5.863,6.338,1.902,8.239-2.693c2.534-6.02,4.595-13.468,2.059-19.805"/>
		<g>
			<path fill="#4B4B4B" d="M245.571,141.636c-5.093-3.077-10.866,0.268-14.066,4.526c-3.866,5.144-2.597,14.613,0.789,19.611
				c2.945,4.347,7.243,3.938,10.184-0.225c4.438-6.282,6.301-16.264,3.794-23.52c-0.447-1.295-4.232-0.192-3.812,1.021
				c1.461,4.231,1.267,8.334,0.29,12.663c-0.294,1.3-3.565,11.865-5.22,10.744c-2.939-1.991-3.92-7.381-4.334-10.621
				c-0.548-4.297,2.114-16.754,9.331-12.394C243.553,144.062,247.087,142.552,245.571,141.636L245.571,141.636z"/>
		</g>
	</g>
	<g>
		<path fill="#FEC40D" d="M258.309,136.042c-5.229,0.793-11.091,0.159-16.32,0.159c-1.267,4.594-1.426,10.14-2.218,14.894
			c-0.793,4.911-1.427,9.981-3.328,14.576c-0.951,2.218-2.852,4.595-3.486,6.813c-0.633,2.377-0.475,2.218,1.901,4.12
			c7.289,5.545,15.685,10.299,24.401,13.31"/>
		<g>
			<path fill="#4B4B4B" d="M258.573,135.088c-5.28,0.642-10.563,0.19-15.861,0.128c-0.752-0.009-2.322,0.33-2.542,1.228
				c-1.588,6.476-1.926,13.256-3.011,19.835c-0.545,3.305-1.344,6.504-2.535,9.635c-1.053,2.77-3.016,4.888-3.73,7.812
				c-0.799,3.271,6.098,6.401,8.167,7.726c5.923,3.792,12.115,6.938,18.739,9.314c1.051,0.376,4.369-1.186,2.919-1.706
				c-5.515-1.978-10.729-4.483-15.776-7.455c-2.916-1.717-5.678-3.677-8.387-5.7c-3.102-2.316-1.664-4.446,0.122-7.508
				c5.702-9.776,4.511-21.765,7.13-32.441c-0.847,0.409-1.695,0.819-2.542,1.228c5.614,0.065,11.186,0.49,16.779-0.19
				C259.765,136.786,261.109,134.78,258.573,135.088L258.573,135.088z"/>
		</g>
	</g>
	<g>
		<path fill="#D9E4F4" d="M367.768,142.539c3.646-2.852,8.558,0.316,10.775,3.644c3.329,5.388,2.377,13.626-0.792,18.854
			c-3.486,5.863-6.338,1.902-8.239-2.693c-2.535-6.02-4.595-13.468-2.06-19.805"/>
		<g>
			<path fill="#4B4B4B" d="M368.896,142.898c5.414-3.269,9.245,6.624,9.72,9.916c0.674,4.676-0.855,9.718-3.465,13.569
				c-1.247,1.839-5.429-9.15-5.692-10.001c-1.443-4.656-1.72-9.504-0.116-14.146c0.325-0.942-3.41-0.463-3.779,0.605
				c-2.631,7.619-0.307,16.407,3.642,23.197c2.337,4.018,6.649,3.162,9.432,0.185c4.759-5.093,4.984-14.755,1.813-20.551
				c-2.784-5.09-9.125-6.32-13.81-3.492C364.455,143.498,367.899,143.499,368.896,142.898L368.896,142.898z"/>
		</g>
	</g>
	<g>
		<path fill="#FEC40D" d="M353.508,136.042c5.229,0.793,11.094,0.159,16.322,0.159c1.268,4.594,1.426,10.14,2.218,14.894
			c0.792,4.911,1.425,9.981,3.326,14.576c0.951,2.218,2.853,4.595,3.487,6.813c0.632,2.377,0.475,2.218-1.902,4.12
			c-7.289,5.545-15.686,10.299-24.399,13.31"/>
		<g>
			<path fill="#4B4B4B" d="M352.869,137.34c5.593,0.68,11.177,0.231,16.791,0.165c-0.552-0.272-1.103-0.543-1.654-0.815
				c2.444,9.959,1.108,21.995,6.363,31.124c0.864,1.501,4.238,5.603,2.397,7.185c-2.068,1.778-4.406,3.286-6.672,4.796
				c-5.543,3.692-11.599,6.654-17.861,8.901c-2.153,0.772-1.558,3.229,0.652,2.436c5.801-2.081,11.392-4.638,16.649-7.868
				c3.292-2.022,10.421-5.103,11.487-9.224c0.404-1.563-1.035-3.756-1.717-5.067c-2.057-3.953-3.463-7.399-4.347-11.778
				c-1.435-7.106-1.578-14.444-3.305-21.481c-0.177-0.718-1.055-0.822-1.654-0.815c-5.299,0.062-10.573,0.488-15.854-0.153
				C352.391,134.53,350.406,137.041,352.869,137.34L352.869,137.34z"/>
		</g>
	</g>
	<g>
		<path fill="#222226" d="M305.366,678.635c60.367,9.982,113.287-22.579,136.579-80.568c12.358-30.422,21.864-60.368,25.192-92.691
			c3.326-32.798,7.605-71.301,0.475-103.623l-41.829-71.773l-72.251-28.046l-48.009-3.802h-0.316l-48.008,3.802l-72.25,28.046
			l-41.83,71.773c-7.13,32.322-2.852,70.825,0.475,103.623c3.328,32.323,12.834,62.27,25.192,92.691
			C192.079,656.056,245,688.615,305.366,678.635"/>
		<g>
			<path fill="#4B4B4B" d="M304.158,679.518c43.423,6.945,86.659-8.17,115.534-41.497c17.02-19.645,26.361-43.987,34.645-68.28
				c4.951-14.522,8.95-29.359,11.782-44.441c2.747-14.634,3.946-29.556,5.273-44.373c1.291-14.416,2.149-28.879,1.961-43.358
				c-0.091-7.066-0.544-14.122-1.324-21.146c-0.38-3.419-0.912-6.817-1.51-10.204c-0.27-1.529-0.338-3.839-1.127-5.192
				c-5.516-9.465-11.032-18.931-16.548-28.396c-7.337-12.589-14.674-25.178-22.01-37.767c-0.718-1.231-2.106-5.156-3.568-5.723
				c-3.234-1.256-6.47-2.512-9.704-3.768c-14.308-5.554-28.615-11.107-42.924-16.661c-5.434-2.109-10.868-4.219-16.302-6.328
				c-2.01-0.78-3.479-1.325-5.605-1.493c-13.793-1.092-27.587-2.185-41.38-3.277c-8.967-0.71-17.942,0.619-26.895,1.328
				c-7.282,0.577-14.564,1.154-21.846,1.73c-2.416,0.191-4.805,0.179-7.076,1.061c-11.565,4.489-23.13,8.979-34.695,13.468
				c-11.791,4.577-23.581,9.153-35.371,13.729c-1.878,0.729-2.492,1.485-3.493,3.202c-2.581,4.429-5.162,8.857-7.743,13.285
				c-7.919,13.589-15.838,27.177-23.757,40.766c-2.661,4.565-5.322,9.132-7.984,13.698c-3.736,6.411-3.638,15.334-4.302,22.557
				c-2.659,28.912,0.624,58.435,3.91,87.168c3.518,30.758,13.219,60.39,24.781,88.972c11.113,27.473,29.946,51.474,55.638,66.618
				c24.854,14.649,54.266,18.807,82.531,14.287c1.646-0.264,3.297-2.121,0.633-1.695c-23.584,3.771-47.493,1.094-69.344-8.679
				c-21.152-9.459-38.795-25.627-51.633-44.757c-7.076-10.544-12.175-22.034-16.812-33.81c-5.66-14.373-10.644-29.011-14.639-43.936
				c-7.743-28.927-10.317-59.377-11.735-89.215c-0.728-15.311-0.503-30.703,1.656-45.896c0.829-5.831,1.631-9.692,4.44-14.512
				c7.187-12.331,14.374-24.662,21.56-36.994c5.794-9.942,11.589-19.886,17.384-29.828c0.751-1.289-1.98,0.806-0.168,0.103
				c1.622-0.63,3.245-1.26,4.867-1.89c6.077-2.358,12.154-4.717,18.23-7.076c13.902-5.396,27.803-10.793,41.705-16.189
				c1.736-0.674,3.473-1.348,5.209-2.022c0.416-0.161,0.831-0.322,1.246-0.483c1.017-0.395-2.169,0.296-0.825,0.19
				c5.431-0.43,10.862-0.86,16.293-1.291c7.745-0.613,15.49-1.227,23.234-1.84c2.877-0.228,6.233-0.788,8.883-0.578
				c13.497,1.069,26.994,2.138,40.491,3.207c2.834,0.225,5.619,0.204,7.477,0.925c4.515,1.752,9.028,3.504,13.542,5.256
				c14.497,5.627,28.994,11.255,43.491,16.883c4.345,1.686,8.689,3.372,13.034,5.059c1.162,0.451,0.574,0.016,0.803,0.408
				c0.719,1.233,1.438,2.467,2.157,3.701c7.104,12.191,14.21,24.384,21.315,36.575c5.928,10.171,11.854,20.342,17.782,30.512
				c1.467,2.517,1.488,6.168,1.953,8.994c1.231,7.479,1.803,15.061,2.117,22.628c0.644,15.508-0.319,31.063-1.632,46.511
				c-1.259,14.806-2.56,29.684-5.101,44.331c-2.623,15.115-6.708,29.949-11.521,44.503c-8.366,25.297-18.198,50.251-35.837,70.609
				c-27.213,31.409-67.978,45.081-108.733,38.563C305.607,677.598,302.129,679.193,304.158,679.518L304.158,679.518z"/>
		</g>
	</g>
	<g>
		<path fill="#222226" d="M113.649,593.312c79.38-46.106-61.793-152.583-100.771-170.169c-15.687-6.654-35.65-13.312-50.861-2.853
			c-15.686,10.458-14.26,26.619-9.507,42.781c9.032,28.044,24.243,55.612,40.879,79.379c22.34,30.421,49.435,47.059,85.56,57.991"/>
		<g>
			<path fill="#4B4B4B" d="M114.796,593.742c66.021-38.941-18.496-114.211-53.219-141.061c-11.46-8.861-23.397-17.214-35.933-24.488
				c-14.961-8.682-32.851-16.115-50.414-13.831c-10.258,1.334-19.906,7.696-24.857,16.772c-5.375,9.853-2.684,22.316,0.232,32.448
				c8.193,28.471,24.187,55.427,41.004,79.572c20.561,29.521,51.993,47.786,85.803,58.13c1.026,0.314,4.467-1.261,3.077-1.686
				c-24.013-7.347-46.516-18.246-65.21-35.245c-21.249-19.322-36.363-45.583-48.642-71.245
				c-10.185-21.287-28.293-58.206-0.74-74.061c13.38-7.699,31.071-1.004,44.049,4.351c5.069,2.092,9.875,4.844,14.582,7.639
				c27.752,16.478,53.656,37.491,75.73,61.002c17.95,19.118,43.024,49.444,33.206,77.851c-3.521,10.186-11.915,17.657-20.96,22.992
				C110.294,594.186,113.719,594.377,114.796,593.742L114.796,593.742z"/>
		</g>
	</g>
	<g>
		<path fill="#5B616C" d="M156.904,470.201c0-0.95,0-1.426-0.475-1.901c-2.853,4.753-2.377,12.358-2.377,18.064
			c-0.476,15.684,0,31.845,0.951,47.53c0.951,19.489-0.475,48.96,9.031,66.072c2.852-25.668,3.802-51.812,4.753-77.479
			c0.476-27.569-2.853-56.564,4.753-83.183"/>
		<g>
			<path fill="#4B4B4B" d="M158.811,469.69c0.124-0.713-0.035-1.347-0.475-1.901c-0.471-0.876-3.419,0.154-3.785,0.852
				c-2.058,3.922-2.342,8.213-2.429,12.566c-0.125,6.305-0.157,12.627-0.162,18.934c-0.011,13.173,0.913,26.287,1.336,39.443
				c0.643,19.965-0.877,42.71,8.832,60.894c0.454,0.852,3.714-0.121,3.812-1.021c2.934-26.858,4.562-54.144,4.795-81.164
				c0.229-26.527-2.476-53.405,4.684-79.328c0.21-0.763-3.498-0.261-3.758,0.682c-7.008,25.376-4.757,51.823-4.732,77.821
				c0.026,27.599-1.806,55.584-4.801,83.011c1.271-0.341,2.542-0.681,3.812-1.021c-9.48-17.755-8.269-40.02-8.792-59.54
				c-0.331-12.336-1.217-24.637-1.355-36.983c-0.069-6.145,0.19-12.285,0.16-18.428c-0.028-5.602-0.32-11.445,2.356-16.546
				c-1.262,0.284-2.523,0.567-3.785,0.852c0.44,0.555,0.599,1.188,0.475,1.901C155.032,471.36,158.865,470.725,158.811,469.69
				L158.811,469.69z"/>
		</g>
	</g>
	<g>
		<path fill="#5B616C" d="M185.424,440.256c0,34.223-3.328,67.972-2.376,102.195c0.476,16.161,0.476,32.323,2.852,48.483
			c0.951,5.705,0.951,13.785,5.229,18.54c1.901-4.755,1.426-9.508,1.901-14.737c0.951-19.963,0.951-39.45,1.901-58.939
			c2.377-40.88,5.229-81.758,7.13-122.637"/>
		<g>
			<path fill="#4B4B4B" d="M183.491,440.394c-0.055,30.144-2.547,60.222-2.546,90.366c0,14.91,0.374,29.921,1.377,44.799
				c0.449,6.651,1.393,13.215,2.203,19.825c0.653,5.329,1.418,10.63,4.86,14.938c0.817,1.022,3.131,0.647,3.57-0.615
				c2.109-6.075,1.911-12.731,2.186-19.094c0.37-8.55,0.565-17.106,0.773-25.661c0.414-17.044,1.213-34.034,2.252-51.051
				c2.054-33.619,4.251-67.231,5.828-100.878c0.095-2.021-3.785-1.485-3.867,0.275c-1.546,32.986-3.682,65.94-5.707,98.9
				c-1.005,16.369-1.869,32.714-2.278,49.11c-0.197,7.874-0.376,15.749-0.641,23.622c-0.263,7.803,0.389,16.854-2.2,24.311
				c1.19-0.205,2.38-0.41,3.57-0.615c-3.568-4.466-4.03-10.153-4.701-15.629c-0.883-7.206-1.79-14.339-2.23-21.595
				c-0.866-14.249-1.128-28.614-1.129-42.888c0-29.486,2.492-58.91,2.547-88.397C187.361,438.086,183.494,438.641,183.491,440.394
				L183.491,440.394z"/>
		</g>
	</g>
	<g>
		<path fill="#5B616C" d="M212.994,413.161c-4.278,43.256-5.229,87.462,0,130.717c1.901,15.211,4.278,30.421,7.605,45.632
			c1.426,6.179,2.376,14.26,6.178,19.489c3.329-6.655,1.902-16.637,2.377-24.242c0.476-28.996,0-58.468-1.426-87.462
			c-1.426-38.503-4.754-76.528-7.606-115.031"/>
		<g>
			<path fill="#4B4B4B" d="M211.099,413.444c-3.304,33.819-4.591,67.827-2.626,101.771c1.008,17.428,3.089,34.763,5.882,51.99
				c1.313,8.098,2.862,16.158,4.637,24.167c1.41,6.363,2.325,12.792,6.003,18.329c0.621,0.934,3.326-0.194,3.677-0.985
				c2.985-6.732,2.248-14.339,2.287-21.518c0.052-9.392,0.293-18.782,0.276-28.179c-0.035-19.463-0.532-38.924-1.416-58.367
				c-1.805-39.699-4.846-79.272-7.791-118.899c-0.074-1.002-3.907-0.251-3.812,1.021c2.896,38.985,5.808,77.916,7.699,116.965
				c0.91,18.789,1.375,37.599,1.491,56.409c0.06,9.707-0.007,19.414-0.159,29.119c-0.125,7.91,0.917,16.611-2.366,24.015
				c1.226-0.328,2.451-0.656,3.677-0.985c-3.546-5.337-4.471-11.798-5.754-17.946c-1.678-8.037-3.292-16.066-4.637-24.168
				c-2.752-16.575-4.664-33.273-5.762-50.038c-2.254-34.404-0.868-68.982,2.482-103.267
				C215.015,411.578,211.206,412.353,211.099,413.444L211.099,413.444z"/>
		</g>
	</g>
	<g>
		<path fill="#5B616C" d="M233.434,386.541c0,62.745,13.784,125.015,15.21,187.283c0,6.178-5.704,82.231,2.376,82.231
			c8.557-0.475,9.507-24.716,9.507-28.045c2.376-32.797,1.901-65.595,1.901-98.394c0.475-54.662-5.229-109.802-11.409-164.464"/>
		<g>
			<path fill="#4B4B4B" d="M231.514,386.729c0.071,31.847,3.525,63.513,7.196,95.108c1.865,16.055,3.758,32.105,5.277,48.197
				c1.387,14.693,3.111,29.831,2.725,44.602c-0.332,12.724-1.347,25.431-1.715,38.157c-0.238,8.227-0.345,16.466-0.064,24.692
				c0.184,5.395,0.268,11.19,1.941,16.376c1.116,3.459,4.022,4.347,7.217,2.416c5.89-3.559,6.896-12.725,7.682-18.852
				c1.32-10.3,1.447-20.894,1.865-31.249c0.662-16.389,0.748-32.797,0.75-49.196c0.004-31.521-0.102-62.952-2.135-94.421
				c-2.114-32.724-5.647-65.339-9.327-97.917c-0.174-1.541-4-0.641-3.812,1.021c3.679,32.582,7.157,65.194,9.326,97.917
				c2.201,33.207,2.152,66.416,2.103,99.679c-0.024,16.403-0.249,32.808-1,49.196c-0.43,9.378-0.603,19.012-2.028,28.315
				c-0.61,3.978-1.531,8.032-3.505,11.569c-1.615,2.894-2.55,2.893-3.456,0.086c-1.821-5.642-1.71-12.172-1.862-18.021
				c-0.698-26.854,2.602-53.514,1.052-80.351c-3.236-56.049-14.263-111.441-14.39-167.701
				C235.35,384.522,231.51,385.229,231.514,386.729L231.514,386.729z"/>
		</g>
	</g>
	<g>
		<path fill="#5B616C" d="M268.607,358.498c-0.951,66.545,12.359,132.143,7.604,198.688c-1.426,20.916-3.802,41.831-5.703,62.746
			c-0.476,8.555-4.278,27.094,0.476,35.175c5.704-6.181,7.13-18.538,8.555-26.62c7.131-33.272,10.933-67.021,13.31-100.771
			c3.802-63.22,6.653-126.438-1.901-188.705"/>
		<g>
			<path fill="#4B4B4B" d="M266.688,358.69c-0.651,53.376,7.595,106.322,8.562,159.639c0.487,26.862-1.961,53.524-4.589,80.227
				c-1.087,11.049-2.083,22.103-3.263,33.142c-0.831,7.771-1.975,17.018,1.828,24.202c0.543,1.025,2.783,0.275,3.32-0.355
				c5.816-6.835,7.08-16.275,8.501-24.834c2.275-13.695,5.261-27.237,7.27-40.992c4.064-27.828,6.165-55.859,7.705-83.925
				c3.059-55.736,4.345-111.838-3.168-167.293c-0.207-1.526-4.034-0.611-3.812,1.021c7.396,54.604,6.182,109.797,3.25,164.682
				c-1.431,26.781-3.428,53.495-6.998,80.087c-1.824,13.59-4.117,27.114-6.865,40.548c-1.996,9.756-2.272,21.919-9.006,29.831
				c1.107-0.118,2.213-0.236,3.32-0.355c-4.134-7.811-2.022-18.557-1.073-26.922c1.25-11.024,2.13-22.1,3.215-33.143
				c2.561-26.065,4.643-52.04,4.168-78.253c-0.955-52.67-9.169-104.958-8.526-157.69C270.548,356.5,266.707,357.21,266.688,358.69
				L266.688,358.69z"/>
		</g>
	</g>
	<g>
		<path fill="#D9E4F4" d="M122.098,339.377c2.375,23.292-9.507,51.334-21.391,70.825c-19.963,31.372-57.991,60.842-93.641,71.774
			c-11.408,3.328-27.093,5.229-34.224-7.13c-8.081-14.26-0.951-37.552,3.327-51.812c17.111-55.137,61.793-86.985,108.376-116.456"/>
		<g>
			<path fill="#4B4B4B" d="M120.191,339.888c2.4,27.151-10.806,56.388-26.449,77.904c-16.564,22.784-39.635,41.331-64.587,54.174
				c-11.4,5.868-24.476,11.578-37.522,11.486c-14.496-0.103-20.3-12.396-20.563-25.225c-0.256-12.487,3.751-25.184,7.478-36.968
				c3.938-12.458,9.722-24.263,16.786-35.235c21.989-34.158,56.665-57.607,90.375-78.958c2.175-1.378-1.192-1.693-2.324-0.976
				C42.697,331.86,1.667,360.863-19.11,405.906c-5.13,11.12-8.702,23.056-11.402,34.983c-2.518,11.124-4.096,23.991,1.449,34.468
				c10.455,19.754,41.463,6.591,55.757-0.072c26.635-12.415,50.69-31.809,68.694-55.001c8.878-11.437,15.628-24.506,20.939-37.937
				c5.428-13.728,8.988-28.654,7.677-43.481C123.904,337.739,120.072,338.535,120.191,339.888L120.191,339.888z"/>
		</g>
	</g>
	<g>
		<path fill="#222226" d="M59.461,337.107c-17.587,2.377-36.601,27.569-45.157,40.88c-9.981,15.686-19.963,36.6-19.488,56.087
			c2.852-0.949,4.277-2.851,6.654-5.702c8.081-9.507,15.211-19.488,23.292-28.996c24.717-28.995,53.712-52.286,84.134-74.627"/>
		<g>
			<path fill="#4B4B4B" d="M59.732,336.092c-18.204,2.942-31.962,20.375-42.103,34.392C4.324,388.872-7.304,411.398-7.09,434.585
				c0.009,0.958,2.271,0.387,2.649,0.233c3.935-1.604,6.207-4.679,8.886-7.856c4.79-5.68,9.284-11.606,13.87-17.45
				c8.817-11.235,18.35-21.811,28.517-31.839c19.616-19.35,41.42-36.339,63.585-52.64c1.725-1.27-2.11-1.253-3.042-0.568
				c-20.773,15.277-41.091,31.187-59.795,48.971c-9.083,8.637-17.713,17.768-25.792,27.351c-4.391,5.208-8.529,10.627-12.724,15.991
				c-2.291,2.929-4.609,5.834-6.965,8.71c-2.269,2.77-4.598,6.447-8.024,7.843c0.883,0.078,1.766,0.155,2.649,0.233
				c-0.199-21.695,10.384-42.556,22.352-60.063c5.048-7.387,10.674-14.415,16.951-20.794c6.263-6.365,14.071-13.113,23.165-14.583
				C60.973,337.835,62.372,335.665,59.732,336.092L59.732,336.092z"/>
		</g>
	</g>
	<g>
		<g>
			<path fill="#4B4B4B" d="M-0.747,404.353c0.743,6.052,6.994,8.963,12.347,10.011c0.855,0.168,1.892-0.145,2.662-0.499
				c0.279-0.128,1.337-0.776,0.48-0.944c-5.141-1.007-10.965-3.805-11.676-9.589C2.98,402.634-0.865,403.396-0.747,404.353
				L-0.747,404.353z"/>
		</g>
	</g>
	<g>
		<g>
			<path fill="#4B4B4B" d="M10.497,382.774c1.363,7.501,8.827,11.998,15.368,14.595c1.567,0.622,4.458-1.625,2.216-2.516
				c-5.891-2.338-12.547-6.364-13.771-13.101C13.997,380.032,10.175,381.004,10.497,382.774L10.497,382.774z"/>
		</g>
	</g>
	<g>
		<g>
			<path fill="#4B4B4B" d="M23.833,363.214c4.883,8.291,10.705,13.066,20.221,14.988c1.386,0.28,4.52-1.827,2.279-2.279
				c-9.064-1.831-14.359-6.433-18.98-14.279C26.621,360.4,22.933,361.685,23.833,363.214L23.833,363.214z"/>
		</g>
	</g>
	<g>
		<path fill="#B01E34" d="M190.177,277.216c6.497-31.847-16.637-44.206-23.766-48.484c-16.162-9.032-36.6-9.507-54.189-4.754
			c-41.354,10.933-75.577,53.712-73.677,96.969c1.427,30.42,24.718,47.532,53.713,42.779
			C137.891,357.071,180.544,324.442,190.177,277.216z"/>
		<g>
			<path fill="#4B4B4B" d="M191.759,277.08c3.477-18.246-2.527-34.458-17.708-45.184c-17.682-12.492-39.884-14.297-60.539-9.332
				c-44.168,10.617-81.073,56.868-76.188,102.992c1.732,16.349,11.579,30.348,26.797,36.679c16.697,6.946,36.528,2.145,52.823-3.637
				C153.512,345.624,183.607,315.588,191.759,277.08c0.312-1.474-2.884-1.047-3.163,0.272
				c-5.161,24.384-19.221,45.404-38.695,60.756c-18.438,14.537-43.861,25.53-67.659,25.31
				c-23.264-0.216-39.557-17.648-41.933-40.078c-2.68-25.306,9.267-50.912,25.828-69.345c22.117-24.617,57.948-39.153,90.442-28.254
				c8.729,2.928,17.396,8.56,23.583,15.387c9.075,10.014,10.894,23.312,8.434,36.224
				C188.312,278.841,191.506,278.404,191.759,277.08z"/>
		</g>
	</g>
	<g>
		<path fill="#222226" d="M187.033,268.818c-29.577,1.625-26.302-35.923,3.848-37.848
			C219.749,229.045,211.567,267.472,187.033,268.818z"/>
		<g>
			<path fill="#4B4B4B" d="M188.103,267.615c-9.781,0.367-18.66-4.621-19.048-15.152c-0.422-11.457,10.288-19.444,20.756-20.291
				c9.966-0.806,17.596,5.52,16.772,15.724C205.806,257.509,197.951,266.866,188.103,267.615c-1.54,0.117-5.562,2.666-2.14,2.405
				c11.984-0.912,22.553-8.578,25.352-20.578c3.065-13.14-7.359-20.258-19.365-19.675c-12.277,0.596-25.454,7.735-27.795,20.696
				c-2.45,13.561,10.16,19.994,21.808,19.557C187.529,269.962,191.542,267.486,188.103,267.615z"/>
		</g>
	</g>
	<g>
		<path fill="#B01E34" d="M133.956,534.05c-23.338-40.204-73.785-54.513-109.938-80.002c-27.822-19.205-57.009-42.885-71.835-74.387
			c-5.808-11.246-8.141-23.503-10.946-35.818c-4.996,5.614-5.379,16.582-6.243,23.659c-1.894,19.401-0.127,40.211,2.756,59.717
			c6.385,49.626,23.253,95.745,56.49,133.328c26.023,29.999,64.9,60.609,106.657,44.167c26.149-10.213,49.097-49.068,30.162-74.37"
			/>
		<g>
			<path fill="#4B4B4B" d="M135.411,533.442c-22.404-37.889-66.679-52.491-102.11-74.784c-20.213-12.719-39.69-27.85-55.985-45.343
				c-8.726-9.367-16.296-19.798-22.159-31.188c-6.325-12.287-9.326-25.318-12.355-38.704c-0.258-1.141-2.612-0.108-3.021,0.397
				c-6.832,8.453-6.504,22.765-6.981,33.07c-0.7,15.103,0.629,30.269,2.604,45.229c3.613,27.377,9.455,54.147,20.197,79.68
				c10.357,24.618,25.243,46.751,43.411,66.267c17.16,18.434,38.373,35.264,63.484,40.686c22.578,4.875,45.774-2.479,61.215-19.503
				c14.355-15.826,22.277-40.79,8.8-59.513c-0.606-0.843-3.636,0.206-2.91,1.215c14.411,20.021,3.641,46.263-12.257,61.837
				c-20.819,20.396-51.563,18.479-75.825,5.78c-23.859-12.487-43.62-33.845-59.222-55.434
				c-16.136-22.329-27.343-47.855-34.684-74.325c-5.643-20.35-8.811-41.478-10.774-62.478c-1.156-12.368-1.438-24.821-0.451-37.209
				c0.658-8.254,0.879-18.548,6.301-25.258c-1.007,0.133-2.014,0.265-3.021,0.397c3.043,13.448,6.186,26.293,12.355,38.704
				c5.283,10.627,12.382,20.284,20.206,29.165c15.773,17.905,35.296,32.586,55.08,45.763
				c35.965,23.954,82.013,37.569,105.189,76.763C133.011,535.521,136.063,534.544,135.411,533.442L135.411,533.442z"/>
		</g>
	</g>
	<g>
		<path fill="#5B616C" d="M453.827,470.201c0-0.95,0-1.426,0.477-1.901c2.852,4.753,2.376,12.358,2.376,18.064
			c0.476,15.684,0,31.845-0.95,47.53c-0.951,19.489,0.475,48.96-9.031,66.072c-2.851-25.668-3.803-51.812-4.753-77.479
			c-0.476-27.569,2.85-56.564-4.755-83.183"/>
		<g>
			<path fill="#4B4B4B" d="M455.761,470.062c0.123-0.51,0.246-1.021,0.369-1.531c-1.189,0.205-2.38,0.41-3.569,0.615
				c2.563,4.889,2.243,10.65,2.192,16.008c-0.058,6.14,0.204,12.284,0.159,18.428c-0.09,12.347-0.995,24.648-1.354,36.982
				c-0.566,19.396,0.735,41.525-8.686,59.171c1.244-0.094,2.488-0.187,3.732-0.279c-2.983-27.328-4.676-55.142-4.774-82.639
				c-0.094-26.094,2.304-52.539-4.733-78.023c-0.495-1.796-4.308-0.771-3.812,1.021c7.125,25.807,4.591,52.699,4.686,79.126
				c0.098,27.121,1.879,54.581,4.822,81.536c0.193,1.774,3.217,0.687,3.732-0.279c9.763-18.284,8.353-41.181,8.939-61.263
				c0.384-13.158,1.292-26.27,1.335-39.443c0.021-6.312-0.141-12.623-0.161-18.935c-0.016-4.548-0.453-9.029-2.591-13.104
				c-0.698-1.332-3.053-0.343-3.569,0.615c-0.538,0.995-0.521,1.077-0.584,2.271C451.787,472.357,455.668,471.822,455.761,470.062
				L455.761,470.062z"/>
		</g>
	</g>
	<g>
		<path fill="#5B616C" d="M425.309,440.256c0,34.223,3.326,67.972,2.376,102.195c-0.476,16.161-0.476,32.323-2.852,48.483
			c-0.951,5.705-0.951,13.785-5.228,18.54c-1.902-4.755-1.427-9.508-1.902-14.737c-0.95-19.963-0.95-39.45-1.902-58.939
			c-2.376-40.88-5.229-81.758-7.131-122.637"/>
		<g>
			<path fill="#4B4B4B" d="M423.402,440.767c0.053,28.832,2.332,57.602,2.538,86.43c0.106,14.855-0.299,29.793-1.109,44.625
				c-0.378,6.911-1.044,13.808-2.085,20.649c-0.901,5.931-0.979,12.137-4.895,17.041c1.22-0.183,2.44-0.365,3.66-0.548
				c-2.255-6.493-1.886-13.914-2.16-20.713c-0.347-8.54-0.532-17.087-0.74-25.632c-0.398-16.39-1.206-32.728-2.206-49.091
				c-2.053-33.619-4.251-67.231-5.829-100.878c-0.047-0.999-3.874-0.281-3.812,1.021c1.547,32.986,3.684,65.94,5.708,98.9
				c1.005,16.369,1.869,32.714,2.279,49.11c0.213,8.535,0.407,17.071,0.712,25.604c0.264,7.386-0.214,15.645,2.236,22.698
				c0.409,1.179,3.168,0.069,3.66-0.548c3.125-3.911,4.02-8.583,4.665-13.444c0.922-6.941,1.826-13.865,2.349-20.853
				c1.067-14.295,1.269-28.73,1.38-43.061c0.241-30.8-2.481-61.537-2.538-92.335C427.213,438.789,423.399,439.444,423.402,440.767
				L423.402,440.767z"/>
		</g>
	</g>
	<g>
		<path fill="#5B616C" d="M394.411,412.21c4.278,43.255,5.228,87.462,0,130.717c-1.901,15.211-4.279,30.422-7.606,45.633
			c-1.426,6.178-2.376,14.26-6.178,19.489c-3.328-6.655-1.902-16.638-2.377-24.242c-0.476-28.995,0-58.467,1.426-87.463
			c1.426-38.502,4.753-76.528,7.605-115.03"/>
		<g>
			<path fill="#4B4B4B" d="M392.505,412.721c3.234,33.096,4.523,66.368,2.727,99.592c-0.938,17.368-2.954,34.644-5.674,51.818
				c-1.312,8.282-2.874,16.521-4.646,24.718c-1.415,6.544-2.251,13.559-6.035,19.255c1.219-0.188,2.438-0.377,3.656-0.565
				c-2.959-6.675-2.235-14.17-2.274-21.29c-0.053-9.392-0.293-18.782-0.276-28.178c0.035-19.464,0.531-38.926,1.415-58.368
				c1.802-39.626,4.838-79.125,7.776-118.678c0.096-1.285-3.707-0.479-3.785,0.578c-2.903,39.059-5.818,78.063-7.713,117.186
				c-0.941,19.438-1.408,38.897-1.5,58.357c-0.045,9.522-0.212,19.11,0.236,28.624c0.36,7.657-0.896,15.564,2.309,22.79
				c0.468,1.056,3.189,0.137,3.656-0.565c3.398-5.115,4.523-11.046,5.729-16.973c1.603-7.883,3.265-15.733,4.613-23.666
				c2.925-17.196,4.938-34.535,6.078-51.939c2.265-34.557,0.885-69.281-2.48-103.717
				C396.221,410.707,392.384,411.486,392.505,412.721L392.505,412.721z"/>
		</g>
	</g>
	<g>
		<path fill="#5B616C" d="M375.873,387.018c0,62.743-13.785,125.012-15.212,187.281c0,6.179,5.706,82.232-2.376,82.232
			c-8.555-0.476-9.505-24.717-9.505-28.045c-2.379-32.798-1.902-65.595-1.902-98.393c-0.477-54.664,5.229-109.803,11.407-164.467"/>
		<g>
			<path fill="#4B4B4B" d="M373.943,387.169c-0.073,32.387-3.668,64.583-7.408,96.712c-1.868,16.052-3.745,32.103-5.231,48.194
				c-1.309,14.17-2.933,28.754-2.562,42.998c0.332,12.725,1.348,25.432,1.717,38.159c0.238,8.227,0.346,16.465,0.064,24.691
				c-0.181,5.288-0.096,11.445-2.101,16.44c-0.133,0.332-0.313,0.81-0.604,1.046c0.47-0.383-1.635-1.923-2.149-2.62
				c-2.104-2.851-2.858-6.83-3.537-10.226c-1.446-7.231-1.494-14.765-1.94-22.101c-1.714-28.167-1.433-56.414-1.389-84.617
				c0.087-57.126,5.006-113.641,11.411-170.371c0.219-1.936-3.668-1.394-3.859,0.303c-3.679,32.583-7.157,65.194-9.326,97.918
				c-2.165,32.663-2.144,65.317-2.118,98.034c0.02,25.769-0.518,52.232,2.763,77.846c0.761,5.936,1.987,15.224,8.25,17.97
				c3.747,1.644,5.903-1.671,6.793-4.724c1.574-5.399,1.557-11.42,1.724-16.991c0.249-8.317,0.069-16.648-0.183-24.963
				c-0.369-12.118-1.346-24.219-1.662-36.335c-0.369-14.169,1.297-28.664,2.568-42.76c1.452-16.095,3.361-32.145,5.231-48.194
				c3.743-32.129,7.335-64.326,7.407-96.713C377.808,384.886,373.947,385.482,373.943,387.169L373.943,387.169z"/>
		</g>
	</g>
	<g>
		<path fill="#5B616C" d="M338.797,358.021c0.951,66.549-12.357,132.143-7.605,198.69c1.427,20.914,3.804,41.829,5.704,62.743
			c0.476,8.556,4.278,27.094-0.477,35.176c-5.703-6.181-7.129-18.539-8.554-26.62c-7.131-33.273-10.934-67.021-13.31-100.771
			c-3.802-63.22-6.655-126.438,1.9-188.706"/>
		<g>
			<path fill="#4B4B4B" d="M336.891,358.532c0.644,52.726-7.393,105.032-8.526,157.692c-0.563,26.202,1.617,52.2,4.168,78.252
				c1.082,11.043,1.958,22.119,3.216,33.143c0.978,8.57,3.013,19.347-1.214,27.332c1.226-0.329,2.451-0.657,3.677-0.985
				c-6.086-7.153-6.905-17.575-8.439-26.466c-2.334-13.526-5.19-26.909-7.136-40.514c-3.89-27.193-5.923-54.573-7.428-81.987
				c-3.049-55.564-4.357-111.499,3.133-166.784c0.142-1.044-3.639-0.323-3.77,0.639c-7.421,54.773-6.225,110.135-3.283,165.192
				c1.501,28.085,3.632,56.098,7.534,83.963c1.902,13.583,4.288,27.097,7.137,40.513c1.945,9.164,2.31,19.303,8.668,26.774
				c0.646,0.759,3.292-0.259,3.677-0.985c3.724-7.034,2.457-16.213,1.689-23.793c-1.117-11.044-2.174-22.093-3.262-33.142
				c-2.631-26.718-4.983-53.351-4.589-80.225c0.782-53.326,9.213-106.257,8.561-159.641
				C340.694,356.778,336.876,357.378,336.891,358.532L336.891,358.532z"/>
		</g>
	</g>
	<g>
		<path fill="#727886" d="M305.393,235.178c87.276-0.029,129.896,19.064,129.896,19.064c49.435,21.391,68.449,89.52,72.727,138.957
			c2.854,30.42-12.834,66.07-36.6,85.56c-38.978,32.322-81.285-15.212-106.477-41.354c-6.179-6.655-43.541-63.002-59.573-63.627
			c-13.942-0.545-53.395,56.972-59.573,63.627c-25.194,26.142-67.5,73.676-106.477,41.354c-23.767-19.489-39.454-55.14-36.601-85.56
			c4.277-49.437,23.292-117.567,72.727-138.957C175.443,254.241,218.825,235.205,305.393,235.178z"/>
		<g>
			<path fill="#4B4B4B" d="M304.619,236.142c40.52,0.052,82.757,3.132,121.465,16.089c31.607,10.581,51.449,38.382,63.45,68.283
				c8.151,20.309,12.935,41.969,15.587,63.646c1.461,11.936,1.708,23.482-0.675,35.334c-2.568,12.774-7.782,25.021-14.635,36.063
				c-6.76,10.892-15.812,21.274-26.89,27.901c-10.988,6.573-23.622,6.215-35.352,2.027c-21.531-7.688-38.719-25.787-54.208-41.869
				c-9.871-10.249-17.789-21.805-26.471-33.061c-9.671-12.538-20.217-27.45-34.125-35.619c-10.32-6.062-19.805,3.851-26.664,10.766
				c-12.297,12.396-22.802,26.598-33.316,40.495c-9.9,13.086-21.233,24.788-33.359,35.87
				c-16.853,15.402-39.794,32.475-63.842,24.411c-11.706-3.925-21.145-13.598-28.616-23.061
				c-8.085-10.24-14.007-22.144-18.005-34.527c-7.242-22.43-4.251-45.472,0.264-68.12c8.033-40.289,26.409-88.433,67-105.906
				c6.693-2.881,13.848-4.828,20.876-6.674c19.326-5.076,39.192-8.022,59.063-9.899
				C272.268,236.771,288.451,236.173,304.619,236.142c1.271-0.002,4.112-1.933,1.547-1.928
				c-40.751,0.08-82.906,3.383-121.933,15.948c-29.063,9.357-49.055,32.001-62.036,59.068c-9.577,19.971-15.301,41.745-18.83,63.543
				c-1.646,10.168-3.095,20.6-2.847,30.919c0.299,12.446,3.553,24.751,8.308,36.195c8.5,20.456,24.915,43.435,47.389,49.412
				c19.591,5.211,39.25-5.384,54.386-16.859c8.932-6.772,17.035-14.61,24.896-22.577c5.144-5.211,10.517-10.341,15.021-16.128
				c9.927-12.759,19.418-25.828,29.962-38.1c5.301-6.17,10.841-12.321,17.264-17.352c1.719-1.347,4.149-3.372,6.441-3.543
				c2.656-0.197,5.636,1.903,7.688,3.302c13.971,9.522,24.66,24.968,34.756,38.244c4.43,5.825,8.727,11.748,13.138,17.587
				c4.312,5.708,9.524,10.677,14.515,15.786c15.271,15.633,32.478,32.125,53.838,38.742c47.029,14.567,79.776-45.221,82.021-84.05
				c0.599-10.349-1.009-20.9-2.57-31.109c-1.654-10.82-3.985-21.536-6.929-32.078c-5.831-20.89-14.562-41.301-27.726-58.654
				c-9.617-12.677-22.287-23.489-37.105-29.549c-8.259-3.377-16.973-5.714-25.623-7.829c-33.917-8.291-69.201-10.875-104.023-10.919
				C304.895,234.212,302.053,236.138,304.619,236.142z"/>
		</g>
	</g>
	<g>
		<path fill="#222226" d="M423.7,268.818c29.574,1.625,26.302-35.923-3.848-37.848C390.984,229.045,399.165,267.472,423.7,268.818z"
			/>
		<g>
			<path fill="#4B4B4B" d="M422.646,270.079c11.368,0.427,23.705-4.809,24.177-17.616c0.505-13.696-13.387-21.761-25.352-22.729
				c-11.178-0.904-22.553,4.51-22.541,16.899c0.013,12.51,11.225,22.512,23.15,23.419c1.353,0.103,5.99-2.261,3.238-2.471
				c-9.799-0.745-17.521-7.592-20.382-16.859c-3.113-10.084,2.342-19.05,13.296-18.518c10.624,0.516,20.678,7.047,23.079,17.77
				c0.894,3.994,0.186,8.304-2.025,11.748c-3.218,5.014-8.991,6.042-14.533,5.834C423.072,267.494,419.189,269.949,422.646,270.079z
				"/>
		</g>
	</g>
	<g>
		<path fill="#222226" d="M264.407,231.267c1.426-3.328,2.139-7.13,3.802-9.982c6.654,2.614,14.735,2.614,21.866,2.852
			c12.358,0.713,24.243,0.238,36.125-2.376c6.418-1.427,14.499-1.902,20.202-5.467c0.238,4.991,2.139,9.745,3.564,14.498
			l5.389,27.649l-51.574,22.103l-44.919-14.736L264.407,231.267z"/>
		<g>
			<path fill="#4B4B4B" d="M266.978,230.939c1.257-3.187,2.046-6.555,3.624-9.609c-1.481,0.397-2.962,0.793-4.443,1.19
				c6.335,2.267,12.885,2.729,19.561,2.957c7.753,0.265,15.434,0.526,23.187,0.066c7.717-0.458,15.162-2.152,22.751-3.46
				c5.7-0.982,11.266-2.146,16.336-5.042c-1.388-0.019-2.776-0.039-4.165-0.058c0.445,5.332,2.688,10.001,3.696,15.171
				c0.576,2.958,1.152,5.916,1.729,8.874c1.176,6.034,2.352,12.068,3.527,18.102c0.521-0.577,1.041-1.153,1.562-1.729
				c-17.191,7.368-34.383,14.735-51.574,22.103c1.021-0.065,2.041-0.13,3.062-0.195c-14.165-4.647-28.331-9.294-42.497-13.941
				c-0.729-0.239-1.459-0.479-2.188-0.718c0.294,0.096,0.204,1.351,0.485-0.396c0.625-3.896,1.25-7.791,1.876-11.686
				C264.663,245.357,265.821,238.148,266.978,230.939c0.319-1.988-4.865-1.076-5.143,0.655c-1.849,11.514-3.697,23.027-5.545,34.541
				c-0.062,0.389,0.122,0.777,0.521,0.908c8.902,2.92,17.805,5.841,26.707,8.762c5.104,1.674,10.208,3.349,15.312,5.022
				c2.194,0.72,4.001,1.596,6.294,0.614c17.081-7.32,34.161-14.641,51.242-21.96c0.636-0.272,1.729-0.867,1.562-1.729
				c-1.177-6.034-2.353-12.067-3.528-18.101c-0.576-2.958-1.153-5.917-1.729-8.875c-1.008-5.169-3.251-9.839-3.695-15.171
				c-0.13-1.555-3.553-0.408-4.165-0.058c-5.132,2.932-11.147,3.437-16.854,4.515c-6.119,1.156-12.118,2.206-18.336,2.668
				c-6.74,0.501-13.462,0.122-20.201-0.088c-6.484-0.202-12.987-0.383-19.159-2.592c-1.242-0.444-3.75-0.15-4.443,1.19
				c-1.711,3.312-2.618,6.899-3.98,10.354C261.184,233.247,266.314,232.622,266.978,230.939z"/>
		</g>
	</g>
	<g>
		<path fill="#D9E4F4" d="M305.366,243.705c14.34-0.204,34.193-8.408,49.195-7.697c3.001,0.142,6.003,0.333,9.009,0.57
			c28.939,2.962,60.312,6.109,83.598,28.083c2.438,2.087,4.799,4.294,7.072,6.63c2.73,2.637,5.397,5.443,7.937,8.388
			c2.223,2.577,4.346,5.261,6.327,8.033c1.98,2.773,3.82,5.632,5.471,8.562c8.849,16.689,15.504,40.815-0.658,54.452
			c-14.262,11.54-32.323,15.735-49.439,17.057c-3.336,0.192-6.666,0.368-9.991,0.522c-29.932,2.352-59.403,1.303-88.149-6.97
			c-3.245-0.856-9.752-35.388-20.37-35.161c-10.853,0.229-17.126,34.304-20.371,35.161c-28.747,8.272-58.218,9.321-88.149,6.97
			c-3.324-0.154-6.656-0.331-9.991-0.522c-17.117-1.321-35.179-5.519-49.439-17.057c-16.161-13.637-9.507-37.763-0.658-54.452
			c1.651-2.93,3.49-5.791,5.471-8.564c1.98-2.771,4.104-5.455,6.326-8.032c2.539-2.945,5.207-5.751,7.935-8.39
			c2.276-2.334,4.638-4.542,7.074-6.629c23.287-21.975,54.658-25.121,83.598-28.083c3.005-0.238,6.009-0.428,9.009-0.572
			C271.172,235.295,290.657,243.912,305.366,243.705z"/>
		<g>
			<path fill="#4B4B4B" d="M304.547,244.496c12.399-0.377,24.385-4.529,36.521-6.692c13.783-2.457,28.432,0.076,42.174,1.966
				c13.151,1.809,26.211,4.677,38.431,9.972c12.446,5.393,22.346,13.963,31.94,23.347c16.215,15.858,34.264,43.432,25.548,67.254
				c-5.009,13.69-22.158,20.312-35.07,23.65c-14.372,3.718-29.87,3.829-44.628,4.409c-16.712,0.655-33.49-0.164-50.007-2.831
				c-7.043-1.137-15.545-2.07-22.104-4.971c-1.646-0.728-2.576-5.134-3.108-6.602c-2.961-8.167-8.211-32.735-21.309-27.943
				c-6.075,2.222-9.034,9.447-11.343,14.923c-2.688,6.378-4.11,13.598-7.497,19.647c-0.808,1.443-5.044,1.657-6.619,2.051
				c-4.109,1.028-8.265,1.849-12.432,2.599c-8.485,1.529-17.075,2.395-25.676,2.915c-16.029,0.97-31.95-0.164-47.947-1.018
				c-21.557-1.151-55.668-7.527-61.259-32.581c-2.344-10.502,0.992-21.803,5.034-31.448c5.133-12.25,13.6-22.756,23.025-31.983
				c9.718-9.514,19.893-17.568,32.554-22.821c12.031-4.991,25.011-7.301,37.86-9.003c13.042-1.728,26.433-3.68,39.491-1.368
				c11.997,2.125,23.715,6.482,36.011,6.534c0.823,0.003,4.356-1.588,2.463-1.596c-13.608-0.057-26.634-5.294-40.014-7.189
				c-11.713-1.659-24.087,0.473-35.731,1.961c-23.948,3.06-47.789,8.918-66.581,24.904c-18.584,15.81-35.397,36.204-38.349,61.232
				c-1.305,11.064,2.147,21.624,11.005,28.598c10.268,8.084,23.111,12.314,35.817,14.593c13.675,2.451,28.053,2.719,41.911,3.102
				c14.75,0.406,29.512-0.376,44.119-2.469c7.029-1.007,13.987-2.465,20.874-4.188c2.708-0.677,6.558-0.876,8.211-3.482
				c3.625-5.713,4.943-13.408,7.497-19.646c1.501-3.665,3.231-7.344,5.665-10.49c2.694-3.482,5.077-3.11,7.94-0.088
				c5.396,5.698,7.769,14.764,10.303,21.98c0.979,2.789,1.9,5.625,3.167,8.301c1.572,3.321,5.886,3.219,9.098,4.021
				c14.731,3.686,29.917,5.41,45.069,5.99c14.964,0.572,29.863-0.544,44.793-1.367c12.2-0.673,24.4-3.027,35.755-7.592
				c10.01-4.024,20.485-10.149,25.283-20.21c4.657-9.766,2.552-21.642-0.645-31.472c-3.864-11.884-10.736-22.279-18.909-31.627
				c-8.769-10.031-19.016-19.383-30.671-25.914c-21.642-12.125-48.462-14.91-72.81-16.453c-18.329-1.162-35.113,6.96-53.209,7.51
				C305.146,242.945,302.016,244.573,304.547,244.496z"/>
		</g>
	</g>
	<g>
		<g>
			<path fill="#727886" d="M436.478,273.624c-2.293-0.531-4.574-0.983-6.858-1.361c-11.414-1.896-22.915-1.963-34.478-1.927
				c-2.776,0.009-5.556,0.022-8.337,0.021c-17.293,1.251-38.84,1.809-48.16,18.264c-6.76,10.685-2.783,23.991,4.559,33.198
				c7.351,8.376,17.24,12.642,28.205,16.995c2.279,0.893,4.578,1.737,6.894,2.542c6.938,2.409,14.01,4.454,21.146,6.382
				c2.488,0.738,4.938,1.433,7.397,2.09c12.228,3.27,24.664,5.589,37.167,5.935c2.658-0.012,5.225-0.212,7.658-0.703
				c3.648-0.739,6.997-2.144,9.911-4.448c1.457-1.149,2.809-2.527,4.044-4.16c12.601-22.947-1.088-54.604-21.025-69.46
				C442.115,275.722,439.413,274.597,436.478,273.624z"/>
			<g>
				<path fill="#4B4B4B" d="M437.656,272.631c-14.847-3.315-29.954-3.367-45.092-3.313c-10.808,0.038-21.91,0.811-32.43,3.407
					c-9.507,2.346-18.146,7.343-23.257,15.886c-6.435,10.753-3.25,23.015,3.612,32.714c7.354,10.396,21.431,15.423,32.826,19.686
					c14.005,5.238,28.803,9.308,43.407,12.469c11.814,2.558,26.945,5.799,38.734,1.504c10.982-4.001,15.485-13.035,16.719-24.2
					c1.286-11.637-2.354-23.438-7.857-33.562c-2.718-4.999-6.144-9.589-9.975-13.783c-4.79-5.244-9.641-8.379-16.342-10.706
					c-1.102-0.382-4.565,1.258-3.051,1.784c22.753,7.9,36.886,37.693,32.853,60.768c-1.189,6.804-3.984,12.824-9.993,16.573
					c-7.76,4.84-19.104,2.762-27.583,1.614c-15.904-2.151-31.69-6.891-46.922-11.833c-13.127-4.259-27.384-9.368-37.262-19.382
					c-10.275-10.417-11.816-26.65-2.571-38.004c7.941-9.754,22.256-11.247,33.907-12.236c14.95-1.27,30.431-1.194,45.346,0.436
					c4.231,0.462,8.42,1.237,12.572,2.165C436.44,274.872,439.788,273.107,437.656,272.631z"/>
			</g>
		</g>
		<g>
			<path fill="#FEC40D" d="M435.028,277.156c-1.948-0.471-3.885-0.872-5.823-1.206c-9.692-1.681-19.462-1.735-29.283-1.698
				c-2.354,0.007-4.717,0.023-7.079,0.023c-14.687,1.122-32.991,1.63-40.912,16.267c-5.749,9.509-2.379,21.341,3.854,29.522
				c6.238,7.447,14.637,11.238,23.946,15.104c1.938,0.794,3.889,1.545,5.854,2.258c5.889,2.143,11.897,3.953,17.954,5.666
				c2.115,0.653,4.198,1.272,6.284,1.858c10.385,2.897,20.946,4.955,31.562,5.255c2.261-0.012,4.441-0.189,6.508-0.631
				c3.099-0.657,5.943-1.908,8.422-3.956c1.237-1.025,2.384-2.248,3.435-3.704c10.713-20.415-0.899-48.563-17.822-61.766
				C439.817,279.019,437.522,278.021,435.028,277.156z"/>
			<g>
				<path fill="#4B4B4B" d="M436.578,276.354c-14.127-3.292-28.53-2.974-42.938-2.954c-9.645,0.014-20.306,1.441-29.271,5.055
					c-8.614,3.472-16.526,11.494-17.185,21.178c-0.884,13.013,6.933,23.552,17.635,30.009c11.847,7.147,25.651,10.728,38.752,14.734
					c12.585,3.85,27.535,8.095,40.819,6.499c4.961-0.596,9.398-2.086,13.408-5.113c4.57-3.451,6.272-9.071,7.338-14.451
					c2.196-11.096-0.896-22.766-5.885-32.663C454.316,288.857,447.019,280.147,436.578,276.354c-0.945-0.344-4.404,1.129-3.1,1.604
					c19.828,7.204,31.1,34.006,27.879,53.958c-1.135,7.023-4.225,13.375-11.146,16.242c-7.094,2.938-17.088,0.633-24.409-0.638
					c-13.568-2.355-27.235-6.687-40.139-11.438c-11.44-4.213-23.851-9.406-30.45-20.24c-6.332-10.396-5.535-22.915,3.222-31.589
					c7.857-7.784,20.803-8.161,31.133-8.918c14.406-1.056,29.814-0.661,43.911,2.624
					C434.453,278.185,437.833,276.646,436.578,276.354z"/>
			</g>
		</g>
		<g>
			<g>
				<path fill="#4B4B4B" d="M362.742,324.562c-0.503-13.258-3.161-26.302-3.926-39.539c-0.033-0.578-3.869,0.049-3.812,1.021
					c0.765,13.237,3.423,26.281,3.926,39.539C358.95,326.141,362.78,325.552,362.742,324.562L362.742,324.562z"/>
			</g>
		</g>
		<g>
			<g>
				<path fill="#4B4B4B" d="M371.817,330.584c0.673-8.523-0.077-16.98-1.255-25.426c-0.587-4.203-1.322-8.386-2.041-12.568
					c-0.734-4.274-2.097-8.814-1.866-13.164c0.108-2.058-3.777-1.555-3.873,0.256c-0.394,7.466,2.245,15.528,3.421,22.878
					c1.498,9.36,2.491,18.804,1.741,28.28C367.783,332.888,371.674,332.395,371.817,330.584L371.817,330.584z"/>
			</g>
		</g>
		<g>
			<g>
				<path fill="#4B4B4B" d="M382.501,334.743c2.517-19.483-1.691-39.845-5.617-58.885c-0.268-1.3-4.095-0.345-3.812,1.021
					c3.885,18.842,8.108,39.077,5.619,58.35C378.497,336.728,382.336,336.021,382.501,334.743L382.501,334.743z"/>
			</g>
		</g>
		<g>
			<g>
				<path fill="#4B4B4B" d="M394.595,338.731c3.242-21.317-1.147-43.338-6.93-63.843c-0.331-1.177-4.14-0.138-3.812,1.021
					c5.732,20.333,10.163,42.229,6.947,63.369C390.6,340.593,394.419,339.887,394.595,338.731L394.595,338.731z"/>
			</g>
		</g>
		<g>
			<g>
				<path fill="#4B4B4B" d="M408.082,343.365c0.229-11.96-0.972-23.805-3.016-35.58c-1.06-6.104-2.408-12.158-3.845-18.183
					c-1.243-5.217-3.384-10.408-4.155-15.7c-0.199-1.366-4.029-0.466-3.812,1.021c0.686,4.705,2.575,9.291,3.721,13.912
					c1.488,6.005,2.797,12.053,3.945,18.132c2.293,12.144,3.578,24.482,3.342,36.847C404.23,345.471,408.057,344.69,408.082,343.365
					L408.082,343.365z"/>
			</g>
		</g>
		<g>
			<g>
				<path fill="#4B4B4B" d="M418.805,345.93c1.39-12.262-1.187-24.391-3.125-36.447c-1.932-12.018-5.834-24.238-9.773-35.747
					c-0.396-1.161-4.179-0.047-3.812,1.021c3.768,11.01,7.179,22.513,9.446,33.924c2.431,12.235,4.889,25.324,3.474,37.808
					C414.865,347.799,418.679,347.044,418.805,345.93L418.805,345.93z"/>
			</g>
		</g>
		<g>
			<g>
				<path fill="#4B4B4B" d="M431.201,347.712c1.904-5.6,0.208-11.572-0.609-17.247c-1.053-7.314-2.045-14.635-3.37-21.908
					c-2.066-11.346-5.326-24.315-11.657-34.15c-0.662-1.029-4.203,0.415-3.812,1.021c6.027,9.363,9.145,21.574,11.311,32.341
					c1.334,6.627,2.248,13.338,3.193,20.028c0.913,6.454,3.33,14.187,1.172,20.535C427.122,349.229,430.847,348.756,431.201,347.712
					L431.201,347.712z"/>
			</g>
		</g>
		<g>
			<g>
				<path fill="#4B4B4B" d="M440.583,348.953c1.615-14.469-0.669-28.922-4.23-42.94c-1.72-6.77-3.666-13.688-6.279-20.174
					c-1.277-3.171-1.839-8.834-4.419-11.214c-0.858-0.792-4.388,0.637-3.566,1.394c2.355,2.174,3.076,7.893,4.173,10.842
					c2.251,6.052,4.133,12.246,5.831,18.474c3.898,14.296,6.359,29.375,4.704,44.195C436.655,350.79,440.462,350.03,440.583,348.953
					L440.583,348.953z"/>
			</g>
		</g>
		<g>
			<g>
				<path fill="#4B4B4B" d="M449.14,348.754c1.62-5.186,0.928-11.643,1.007-17.036c0.102-6.819-0.517-13.563-1.846-20.251
					c-1.374-6.913-3.742-13.623-6.049-20.267c-1.204-3.468-2.414-6.855-4.032-10.157c-0.585-1.193-1.324-3.768-2.331-4.67
					c-0.752-0.673-3.262,0.169-3.678,0.985c-0.104,0.205-0.208,0.41-0.312,0.614c-0.34,0.666,3.258,0.368,3.77-0.637
					c0.104-0.205,0.209-0.41,0.313-0.615c-1.226,0.328-2.451,0.657-3.677,0.985c1.201,1.076,2.231,4.622,2.919,6.025
					c1.334,2.722,2.219,5.637,3.215,8.49c2.118,6.067,4.121,12.158,5.637,18.407c1.469,6.051,2.076,12.26,2.243,18.471
					c0.082,3.019-0.016,6.043-0.115,9.06c-0.119,3.617,0.243,7.784-0.833,11.231C445.097,350.267,448.822,349.771,449.14,348.754
					L449.14,348.754z"/>
			</g>
		</g>
		<g>
			<g>
				<path fill="#4B4B4B" d="M459.715,343.725c0.15-18.611-1.957-37.269-7.6-55.052c-0.366-1.156-4.16-0.073-3.812,1.021
					c5.643,17.783,7.75,36.441,7.6,55.052C455.895,345.695,459.704,345.053,459.715,343.725L459.715,343.725z"/>
			</g>
		</g>
	</g>
	<g>
		<g>
			<path fill="#727886" d="M172.625,271.959c2.292-0.531,4.575-0.981,6.859-1.361c11.412-1.897,22.914-1.962,34.476-1.926
				c2.778,0.007,5.557,0.022,8.338,0.021c17.292,1.25,38.839,1.81,48.159,18.263c6.76,10.686,2.784,23.991-4.558,33.196
				c-7.35,8.379-17.239,12.644-28.204,16.997c-2.28,0.895-4.581,1.738-6.894,2.543c-6.938,2.41-14.011,4.453-21.144,6.381
				c-2.491,0.737-4.941,1.434-7.4,2.092c-12.226,3.269-24.664,5.587-37.167,5.932c-2.659-0.012-5.225-0.21-7.658-0.704
				c-3.649-0.734-6.998-2.142-9.911-4.445c-1.458-1.15-2.81-2.526-4.043-4.161c-12.602-22.948,1.087-54.603,21.025-69.459
				C166.986,274.058,169.688,272.933,172.625,271.959z"/>
			<g>
				<path fill="#4B4B4B" d="M173.002,273.369c15.629-3.487,31.565-3.217,47.484-3.182c11.379,0.025,24.007,1.207,34.557,5.638
					c13.374,5.617,19.81,19.527,15.147,33.246c-4.88,14.358-18.74,20.955-31.808,26.232c-14.655,5.919-30.31,10.221-45.711,13.709
					c-14.146,3.203-35.319,8.333-46.509-3.916c-3.846-4.21-5.066-11.699-5.504-17.186c-0.499-6.262,0.552-12.624,2.315-18.614
					c3.451-11.729,10.583-22.475,19.724-30.529C165.729,276.097,169.223,274.682,173.002,273.369
					c2.292-0.796,1.583-3.632-0.756-2.819c-5.537,1.923-9.814,4.128-14.122,8.098c-4.199,3.87-7.765,8.37-10.877,13.142
					c-6.014,9.219-9.798,19.939-10.5,30.935c-0.659,10.32,1.918,21.96,10.593,28.309c10.037,7.346,25.567,4.541,36.814,2.604
					c15.333-2.641,30.536-7.024,45.287-11.939c12.062-4.019,24.754-8.767,34.445-17.234c8.543-7.463,13.433-19.498,11.439-30.746
					c-1.856-10.474-11.145-17.965-20.512-21.57c-10.421-4.011-22.96-4.944-34.042-4.95c-16.293-0.009-32.529-0.216-48.524,3.353
					C169.836,271.087,170.62,273.901,173.002,273.369z"/>
			</g>
		</g>
		<g>
			<path fill="#FEC40D" d="M174.073,275.492c1.948-0.472,3.885-0.872,5.824-1.207c9.693-1.68,19.462-1.733,29.284-1.696
				c2.356,0.007,4.717,0.022,7.079,0.022c14.688,1.122,32.99,1.629,40.913,16.267c5.747,9.51,2.379,21.34-3.854,29.523
				c-6.238,7.446-14.636,11.238-23.946,15.104c-1.938,0.794-3.889,1.543-5.855,2.259c-5.89,2.141-11.897,3.954-17.955,5.664
				c-2.114,0.655-4.195,1.271-6.283,1.857c-10.384,2.9-20.946,4.957-31.562,5.256c-2.258-0.012-4.438-0.189-6.506-0.629
				c-3.1-0.658-5.944-1.909-8.422-3.958c-1.237-1.026-2.385-2.249-3.435-3.703c-10.714-20.417,0.897-48.563,17.822-61.767
				C169.284,277.356,171.579,276.358,174.073,275.492z"/>
			<g>
				<path fill="#4B4B4B" d="M174.37,276.602c13.555-3.164,28.55-3.722,42.415-2.682c9.909,0.743,20.2,1.244,29.12,6.079
					c11.212,6.078,14.578,19.094,10.111,30.515c-5.04,12.887-18.359,18.523-30.355,23.215c-12.675,4.958-26.251,8.842-39.589,11.536
					c-14.214,2.871-32.032,5.043-37.374-11.858c-6.329-20.027,6.086-49.676,26.169-56.979c2.487-0.904,0.246-2.536-1.587-1.869
					c-20.021,7.281-31.59,32.898-29.719,53.208c1.117,12.125,7.833,20.365,20.125,21.838c13.717,1.643,29.216-3.095,42.172-7.065
					c21.731-6.66,54.55-14.415,56.176-42.309c0.626-10.751-7.186-19.742-16.496-23.886c-9.082-4.042-20.513-4.938-30.345-4.951
					c-13.914-0.019-27.781-0.193-41.417,2.99C171.427,274.93,172.048,277.145,174.37,276.602z"/>
			</g>
		</g>
		<g>
			<g>
				<path fill="#4B4B4B" d="M250.193,323.247c0.502-13.259,3.159-26.302,3.924-39.54c0.111-1.917-3.759-1.314-3.854,0.325
					c-0.765,13.237-3.421,26.282-3.924,39.54C246.267,325.496,250.131,324.883,250.193,323.247L250.193,323.247z"/>
			</g>
		</g>
		<g>
			<g>
				<path fill="#4B4B4B" d="M241.127,328.538c-0.755-9.552,0.297-19.02,1.753-28.457c1.128-7.312,3.801-15.281,3.408-22.702
					c-0.046-0.87-3.876-0.178-3.812,1.021c0.205,3.881-0.926,7.771-1.576,11.577c-0.815,4.772-1.638,9.541-2.344,14.33
					c-1.233,8.361-1.909,16.809-1.241,25.251C237.385,330.453,241.221,329.721,241.127,328.538L241.127,328.538z"/>
			</g>
		</g>
		<g>
			<g>
				<path fill="#4B4B4B" d="M230.413,332.812c-2.482-19.238,1.761-39.463,5.64-58.266c0.378-1.832-3.517-1.324-3.855,0.317
					c-3.937,19.079-8.117,39.45-5.597,58.97C226.818,335.528,230.643,334.591,230.413,332.812L230.413,332.812z"/>
			</g>
		</g>
		<g>
			<g>
				<path fill="#4B4B4B" d="M218.311,336.831c-3.215-21.13,1.211-43.001,6.941-63.326c0.397-1.41-3.444-0.856-3.816,0.464
					c-5.783,20.513-10.182,42.557-6.937,63.884C214.701,339.186,218.532,338.284,218.311,336.831L218.311,336.831z"/>
			</g>
		</g>
		<g>
			<g>
				<path fill="#4B4B4B" d="M204.861,341.781c-0.227-11.865,0.984-23.615,3.012-35.295c1.06-6.104,2.408-12.158,3.844-18.184
					c1.246-5.227,3.381-10.388,4.154-15.701c0.281-1.932-3.613-1.417-3.862,0.294c-0.681,4.677-2.578,9.305-3.719,13.913
					c-1.488,6.005-2.797,12.053-3.946,18.132c-2.312,12.241-3.584,24.671-3.346,37.133
					C201.037,344.075,204.893,343.481,204.861,341.781L204.861,341.781z"/>
			</g>
		</g>
		<g>
			<g>
				<path fill="#4B4B4B" d="M194.098,344.036c-1.362-12.024,1.27-24.007,3.171-35.826c1.911-11.879,5.777-23.971,9.669-35.358
					c0.739-2.161-3.08-2.278-3.674-0.54c-3.807,11.14-7.253,22.762-9.546,34.312c-2.479,12.486-4.876,25.697-3.433,38.435
					C190.499,346.947,194.319,345.986,194.098,344.036L194.098,344.036z"/>
			</g>
		</g>
		<g>
			<g>
				<path fill="#4B4B4B" d="M181.692,345.846c-2.008-5.909,0.024-12.657,0.88-18.668c0.954-6.701,1.896-13.399,3.108-20.06
					c2.045-11.231,5.244-24.175,11.515-33.915c0.842-1.309-2.931-0.787-3.502,0.101c-6.09,9.459-9.266,21.695-11.454,32.579
					c-1.455,7.235-2.421,14.565-3.454,21.87c-0.871,6.156-2.974,13.032-0.905,19.115
					C178.263,347.994,182.044,346.881,181.692,345.846L181.692,345.846z"/>
			</g>
		</g>
		<g>
			<g>
				<path fill="#4B4B4B" d="M172.319,347.067c-1.6-14.322,0.701-28.638,4.225-42.511c1.679-6.61,3.773-13.112,6.026-19.546
					c1.073-3.061,1.995-9.217,4.403-11.436c0.937-0.863-2.752-0.507-3.484,0.167c-2.375,2.188-3.101,7.514-4.149,10.459
					c-2.263,6.359-4.349,12.749-6.125,19.264c-3.938,14.439-6.38,29.659-4.708,44.624
					C168.608,349.007,172.448,348.223,172.319,347.067L172.319,347.067z"/>
			</g>
		</g>
		<g>
			<g>
				<path fill="#4B4B4B" d="M163.754,346.899c-1.586-5.074-0.907-11.544-0.985-16.846c-0.1-6.747,0.514-13.425,1.829-20.04
					c1.249-6.28,3.337-12.39,5.413-18.435c0.996-2.901,1.965-5.81,3.111-8.655c0.754-1.873,2.087-6.242,3.628-7.623
					c-1.217,0.195-2.434,0.391-3.651,0.586c0.104,0.205,0.208,0.41,0.313,0.614c0.552,1.084,4.217-0.228,3.812-1.021
					c-0.104-0.205-0.208-0.41-0.312-0.614c-0.564-1.108-3.046,0.044-3.651,0.586c-0.823,0.738-0.972,2.099-1.462,3.071
					c-1.656,3.282-3.127,6.5-4.294,9.995c-2.242,6.717-4.604,13.344-6.275,20.237c-1.485,6.121-2.09,12.399-2.259,18.682
					c-0.098,3.616,0.044,7.24,0.186,10.854c0.125,3.202-0.177,6.555,0.785,9.632C160.272,348.979,164.066,347.896,163.754,346.899
					L163.754,346.899z"/>
			</g>
		</g>
		<g>
			<g>
				<path fill="#4B4B4B" d="M153.207,342.357c-0.151-18.61,1.957-37.269,7.599-55.052c0.462-1.458-3.39-0.945-3.826,0.429
					c-5.641,17.784-7.75,36.442-7.599,55.053C149.395,344.501,153.218,343.721,153.207,342.357L153.207,342.357z"/>
			</g>
		</g>
	</g>
	<g>
		<path fill="#222226" d="M267.974,203.697c1.663,4.041-3.327,14.499-5.466,19.014c29.946,7.369,61.794,11.884,90.79-1.426
			c-4.042-7.606-5.468-13.785-4.279-22.578"/>
		<g>
			<path fill="#4B4B4B" d="M265.401,204.387c1.726,5.807-3.032,13.631-5.445,18.727c-0.158,0.333,0.178,0.62,0.463,0.69
				c30.975,7.554,63.796,11.651,93.816-1.751c0.323-0.144,1.97-0.804,1.635-1.457c-3.719-7.227-5.257-14.163-4.302-22.292
				c0.19-1.612-4.938-0.595-5.102,0.806c-0.976,8.291,0.438,15.443,4.257,22.865c0.545-0.485,1.09-0.971,1.635-1.457
				c-19.123,8.537-39.678,9.27-60.174,6.563c-5.167-0.682-10.299-1.632-15.403-2.679c-2.336-0.479-4.661-1.008-6.984-1.54
				c-1.464-0.335-4.867-0.274-3.933-2.262c2.291-4.874,6.337-12.027,4.682-17.592C270.122,201.579,264.992,203.012,265.401,204.387
				L265.401,204.387z"/>
		</g>
	</g>
	<g>
		<path fill="#727886" d="M245.159,199.895c4.752-8.872,4.436-21.548,6.02-31.688c1.585-11.408,2.535-22.183,2.219-33.908
			c0-5.704,0.316-11.725,1.665-17.459c1.624-5.514,4.245-10.162,7.615-14.036c3.373-3.874,7.499-6.971,12.126-9.383
			c28.977-12.518,77.462-10.616,82.056,27.52c1.225,4.482,2.29,9.023,3.316,13.336c1.139,4.986,1.964,10.11,2.548,15.233
			c1.268,12.993,2.535,26.62,1.899,39.611c-0.632,17.429-12.991,21.548-28.203,23.768"/>
		<g>
			<path fill="#4B4B4B" d="M247.042,199.569c5.571-11.16,5.273-25.38,6.78-37.532c0.924-7.455,1.438-14.948,1.538-22.458
				c0.11-8.267-0.437-16.69,2.103-24.693c7.528-23.722,36.472-29.193,58.184-27.191c19.181,1.769,35.915,12.618,39.145,32.54
				c1.1,6.79,3.358,13.432,4.632,20.214c1.523,8.113,2.104,16.407,2.738,24.627c0.583,7.553,0.851,15.122,0.635,22.696
				c-0.179,6.246-1.324,12.067-5.723,16.729c-5.071,5.375-13.368,6.601-20.308,7.646c-1.566,0.235-3.37,1.887-0.689,1.483
				c8.358-1.258,17.092-3.045,23.703-8.66c8.718-7.403,7.12-21.299,6.754-31.414c-0.566-15.663-2.331-31.165-6.034-46.395
				c-2.343-9.637-3.661-18.862-10.268-26.674c-11.182-13.222-30.912-15.681-47.118-14.508c-19.109,1.383-39.55,7.863-48.21,26.455
				c-2.961,6.357-3.269,13.76-3.402,20.656c-0.157,8.166-0.116,16.222-0.879,24.372c-0.688,7.354-1.845,14.652-2.559,22.006
				c-0.69,7.118-1.558,14.281-4.788,20.752C242.959,200.853,246.547,200.56,247.042,199.569L247.042,199.569z"/>
		</g>
	</g>
	<g>
		<path fill="#222226" d="M242.94,194.666c4.12-7.922,4.436-17.745,8.557-25.668c36.441,6.656,73.834,11.725,109.326-1.901
			c7.287,16.162-6.972,36.125-19.647,44.365"/>
		<g>
			<path fill="#4B4B4B" d="M245.346,194.758c3.971-8.199,4.592-17.484,8.557-25.668c-1.323,0.453-2.645,0.906-3.967,1.359
				c37.228,6.768,75.625,11.386,111.923-2.221c-1.203-0.147-2.406-0.295-3.609-0.442c6.657,16.132-5.591,34.035-18.688,42.846
				c-2.897,1.95,1.523,2.806,3.229,1.659c13.964-9.394,27.794-28.466,20.606-45.884c-0.547-1.324-2.627-0.811-3.609-0.442
				c-34.473,12.923-71.438,7.998-106.729,1.582c-1.185-0.215-3.361,0.107-3.967,1.359c-3.972,8.199-4.593,17.484-8.557,25.668
				C239.414,196.885,244.575,196.351,245.346,194.758L245.346,194.758z"/>
		</g>
	</g>
	<g>
		<path fill="#727886" d="M251.813,145.707c8.872,9.507,3.484,19.014,2.534,30.422c32.323,5.387,66.23,7.922,98.552,1.267
			c9.19-1.901,7.605-0.951,6.34-9.506c-0.951-6.337-1.902-16.162,4.753-20.281c0.632,7.605,1.268,15.21,3.168,22.5
			c1.901,7.288,8.239,16.795,8.556,24.083c0,5.388-5.388,9.19-10.14,12.993c-21.865,17.112-57.675,20.28-83.342,13.942
			c-13.943-3.168-27.886-6.654-39.294-15.527c-5.704-4.438-6.971-4.12-4.12-10.774c6.339-13.627,10.775-32.957,10.775-48.484"/>
		<g>
			<path fill="#4B4B4B" d="M250.06,146.514c7.871,9.085,3.43,19.206,2.365,29.792c-0.076,0.751,0.629,1.004,1.235,1.104
				c28.38,4.677,57.258,7.09,85.908,3.468c5.793-0.732,11.528-1.84,17.241-3.033c1.771-0.37,4.634-0.976,5.188-3.061
				c0.761-2.862-0.784-6.786-1.157-9.635c-0.756-5.778-0.884-13.034,4.39-16.775c-1.048-0.085-2.095-0.17-3.143-0.255
				c0.927,11.095,2.186,21.528,6.784,31.748c1.982,4.407,4.048,8.795,4.833,13.6c1.003,6.146-6.325,10.629-10.469,13.795
				c-16.539,12.636-39.236,16.268-59.537,15.484c-21.309-0.822-44.307-7.011-61.446-19.832c-4.433-3.316-2.383-6.125-0.423-10.639
				c1.95-4.489,3.467-9.169,4.83-13.864c3.031-10.443,4.76-21.372,4.859-32.249c0.017-1.872-3.832-1.201-3.846,0.354
				c-0.114,12.563-2.488,25.009-6.291,36.958c-1.624,5.102-4.206,9.852-5.747,14.959c-0.939,3.114,1.432,4.888,3.646,6.559
				c18.353,13.858,43.19,19.812,65.978,20.411c20.96,0.551,43.275-4.105,60.45-16.611c3.765-2.741,7.505-5.733,10.241-9.528
				c2.956-4.098,1.303-9.179-0.263-13.45c-2.015-5.494-4.991-10.576-6.62-16.219c-2.093-7.253-2.543-15.016-3.168-22.5
				c-0.11-1.319-2.567-0.664-3.143-0.255c-6.728,4.772-6.552,13.043-5.58,20.471c0.252,1.931,2.368,7.302-0.119,7.96
				c-6.179,1.635-12.646,2.485-18.976,3.286c-27.615,3.492-55.715,0.792-83.045-3.711c0.412,0.368,0.823,0.736,1.235,1.104
				c1.121-11.146,5.532-21.546-2.703-31.053C252.525,143.696,248.885,145.158,250.06,146.514L250.06,146.514z"/>
		</g>
	</g>
	<g>
		<g>
			<path fill="#4B4B4B" d="M328.347,353.075c-0.216-12.537-2.122-25.202-3.785-37.604c-2.214-16.515-4.669-33.307-9.537-49.282
				c-1.575-5.169-5.975-19.253-13.807-12.65c-3.181,2.681-4.547,7.867-5.739,11.64c-2.254,7.137-3.722,14.534-5.094,21.881
				c-4.124,22.077-7.492,44.922-8.473,67.393c-0.07,1.606,3.76,0.833,3.816-0.465c0.527-12.078,2.164-24.183,3.692-36.163
				c2.11-16.538,4.451-33.246,8.788-49.369c1.217-4.524,2.502-10.494,5.832-14.024c0.499-0.528,0.792-0.173,1.854,1.004
				c1.586,1.757,2.527,4.11,3.404,6.272c5.882,14.512,7.955,30.957,10.255,46.335c2.263,15.139,4.718,30.714,4.981,46.054
				C324.556,355.335,328.373,354.58,328.347,353.075L328.347,353.075z"/>
		</g>
	</g>
	<g>
		<g>
			<path fill="#4B4B4B" d="M126.816,663.803c16.165,18.92,41.423,24.002,63.622,32.553c13.503,5.201,28.925,7.109,43.196,9.13
				c15.19,2.15,30.542,3.21,45.866,3.795c31.076,1.187,62.304-0.788,92.735-7.363c11.896-2.57,23.115-7.176,34.655-11
				c10.117-3.353,20.17-6.857,29.741-11.585c13.251-6.543,24.49-16.108,31.469-29.264c0.507-0.955-3.2-0.602-3.799,0.527
				c-11.782,22.209-35.335,31.106-57.874,38.597c-11.517,3.827-22.802,8.359-34.654,11c-16.523,3.682-33.404,5.718-50.29,6.734
				c-32.092,1.933-64.799,0.222-96.504-5.087c-7.361-1.232-14.675-2.735-21.939-4.444c-7.022-1.651-13.64-4.389-20.446-6.739
				c-11.679-4.033-23.465-7.826-34.335-13.8c-6.796-3.735-12.854-8.604-17.889-14.497
				C129.577,661.431,125.932,662.768,126.816,663.803L126.816,663.803z"/>
		</g>
	</g>
	<g>
		<path fill="#B01E34" d="M264.169,76.941c8.24,5.071,12.042,8.713,19.647,14.734c4.753,4.12,13.312,19.966,22.182,19.648
			c8.557-0.306,17.429-14.261,21.865-19.648c5.388-6.338,12.359-10.614,19.966-14.734c-8.873-4.119-16.478-7.13-25.984-7.447
			c-12.992-0.634-18.379-0.317-31.688,0C284.77,69.811,268.923,73.139,264.169,76.941z"/>
		<g>
			<path fill="#4B4B4B" d="M262.943,77.773c8.434,5.275,17.476,11.544,23.653,19.407c4.204,5.351,9.532,13.874,16.932,14.99
				c7.749,1.169,13.963-5.647,18.47-10.977c2.857-3.38,5.312-7.082,8.247-10.396c4.978-5.623,11.727-9.509,18.24-13.069
				c0.456-0.249,1.524-1.178,0.569-1.618c-7.466-3.435-14.946-6.366-23.153-7.388c-8.303-1.034-16.958-0.68-25.311-0.496
				c-11.957,0.264-27.303,0.74-37.427,8.124c-1.721,1.255,0.896,1.997,2.011,1.184c9.001-6.565,22.893-6.981,33.545-7.253
				c7.527-0.192,15.028-0.121,22.55,0.229c9.062,0.422,17.177,3.511,25.334,7.264c0.189-0.54,0.379-1.079,0.569-1.618
				c-8.081,4.417-15.992,9.253-21.74,16.605c-4.504,5.761-12.527,19.539-21.34,17.188c-7.426-1.98-12.516-11.773-17.179-17.231
				c-2.596-3.039-6.168-5.34-9.258-7.845c-3.917-3.175-7.986-6.09-12.261-8.764C264.378,75.473,261.544,76.898,262.943,77.773z"/>
		</g>
	</g>
	<g>
		<path fill="#B01E34" d="M92.419,630.073c37.394-77.323,160.98-89.997,234.499-86.829c73.518,3.801,152.106,29.153,192.667,95.066"
			/>
		<g>
			<path fill="#4B4B4B" d="M93.889,630.152c18.533-37.78,56.97-58.958,95.758-70.854c39.595-12.142,81.816-16.012,123.089-15.475
				c77.335,1.005,162.394,25.933,205.401,95.123c0.608,0.979,3.641-0.073,2.895-1.273c-50.039-80.504-152.876-99.719-240.786-95.114
				c-37.485,1.964-75.385,8.045-110.481,21.721c-32.529,12.674-63.088,33.653-78.816,65.714
				C90.241,631.438,93.391,631.167,93.889,630.152L93.889,630.152z"/>
		</g>
	</g>
	<g>
		<path fill="#FEC40D" d="M85.604,609.475c-9.982,1.899-19.964,0-19.014-12.835c0.476-20.439,31.372-40.403,48.959-44.682
			c23.767-6.179,42.781,0.951,46.107,27.569c6.655,52.763-60.367,91.74-105.523,77.004"/>
		<g>
			<path fill="#4B4B4B" d="M85.98,608.851c-5.369,0.938-11.6,1.002-15.396-3.525c-3.382-4.034-2.341-10.994-0.973-15.578
				c3.153-10.565,12.54-18.8,21.149-25.028c16.132-11.67,43.722-22.352,60.232-5.692c7.448,7.516,9.318,19.42,9.204,29.538
				c-0.115,10.132-3.341,19.953-8.321,28.696c-10.502,18.438-29.506,31.443-49.397,37.857c-14.292,4.609-30.153,5.331-44.543,0.786
				c-1.063-0.336-3.759,1.205-3.604,1.254c34.915,11.029,77.404-6.485,98.146-35.687c11.292-15.896,15.677-38.204,7.192-56.348
				c-8.273-17.69-28.905-17.598-45.211-13.429c-16.61,4.248-33.527,15.486-43.653,29.272c-4.814,6.554-8.671,16.747-4.589,24.549
				c3.41,6.516,13.062,5.622,19.011,4.582C86.684,609.845,88.671,608.38,85.98,608.851L85.98,608.851z"/>
		</g>
	</g>
	<g>
		<path fill="#FEC40D" d="M527.491,609.475c9.982,1.899,19.964,0,19.014-12.835c-0.477-20.439-31.373-40.403-48.96-44.682
			c-23.767-6.179-42.78,0.951-46.108,27.569c-6.653,52.763,60.368,91.74,105.524,77.004"/>
		<g>
			<path fill="#4B4B4B" d="M526.843,610.903c7.485,1.309,16.478,0.998,20.438-6.57c4.252-8.124-1.073-19.062-5.872-25.595
				c-11.771-16.024-32.628-27.415-52.194-29.928c-8.542-1.097-17.57-0.052-25.011,4.493c-7.523,4.595-11.623,12.437-13.708,20.759
				c-4.839,19.313,2.151,39.345,14.575,54.221c21.227,25.418,60.071,39.771,92.254,29.604c2.316-0.732,1.62-3.454-0.727-2.713
				c-38.344,12.112-87.394-12.425-100.641-50.377c-6.379-18.273-4.065-46.824,18.056-52.559
				c20.979-5.438,45.618,8.834,59.687,23.262c5.245,5.379,9.586,11.929,10.733,19.462c0.65,4.267,0.246,9.148-3.367,11.962
				c-3.419,2.663-9.01,1.806-12.926,1.121C526.207,607.708,524.292,610.458,526.843,610.903L526.843,610.903z"/>
		</g>
	</g>
	<g>
		<g>
			<path fill="#FEC40D" d="M273.53,145.38c-9.209,1.127-13.568-6.764-13.231-9.925c1.87-17.588,22.005-20.589,46.761-19.005
				c20.323,1.3,40.832-0.37,44.951,16.4c2.212,9.924-6.999,14.558-13.183,12.64c-3.967-1.231-10.198-7.334-27.961-7.594
				C292.47,137.628,288.844,143.506,273.53,145.38z"/>
			<g>
				<path fill="#4B4B4B" d="M273.761,144.215c-4.997,0.371-9.246-2.146-11.143-6.774c-1.254-3.061,0.527-7.153,2.032-9.794
					c4.354-7.642,14.69-9.304,22.605-10.051c10.333-0.975,20.838,0.137,31.172,0.627c8.916,0.423,19.553,0.598,26.74,6.639
					c6.875,5.779,7.344,22.7-5.194,19.511c-1.949-0.496-3.848-1.902-5.641-2.783c-2.822-1.387-5.8-2.405-8.837-3.201
					c-8.667-2.272-18.564-2.388-27.323-0.592C289.873,139.498,282.214,143.078,273.761,144.215
					c-1.925,0.259-3.088,2.683-0.462,2.329c10.461-1.408,19.983-6.256,30.498-7.271c11.087-1.07,21.461,1.083,31.229,6.179
					c5.673,2.96,12.692,1.648,16.89-3.241c5.891-6.862,0.249-16.902-6.087-21.034c-8.499-5.542-20.769-5.088-30.456-5.517
					c-11.539-0.512-23.28-1.693-34.719,0.568c-7.926,1.566-15.89,4.741-20.07,12.077c-3.881,6.811-2.089,13.99,5.18,17.321
					c2.363,1.083,5.001,1.106,7.536,0.918C275.267,146.398,276.391,144.02,273.761,144.215z"/>
			</g>
		</g>
		<g>
			<path fill="#B01E34" d="M278.914,137.969c-7.79,0.663-11.475-3.978-11.19-5.834c1.582-10.343,18.61-12.106,39.551-11.175
				c17.188,0.765,34.531-0.217,38.016,9.642c1.873,5.836-5.918,8.56-11.149,7.432c-3.355-0.723-8.306-4.28-23.331-4.433
				C295.252,133.443,291.866,136.868,278.914,137.969z"/>
			<g>
				<path fill="#4B4B4B" d="M279.052,136.817c-6.91,0.274-13.361-4.595-6.386-10.204c5.124-4.121,13.453-4.293,19.679-4.604
					c8.733-0.436,17.538,0.187,26.268,0.503c7.164,0.259,15.615,0.231,21.829,4.28c3.474,2.263,5.103,7.118,0.758,9.45
					c-2.679,1.437-5.838,0.961-8.538-0.033c-4.308-1.585-8.594-2.688-13.156-3.27c-7.276-0.928-14.852-0.692-22.072,0.532
					C291.262,134.518,285.312,136.222,279.052,136.817c-1.755,0.167-2.41,2.506-0.275,2.303c8.46-0.804,16.565-3.472,25.03-4.176
					c9.19-0.764,18.412,0.156,27.05,3.383c5.042,1.883,10.866,1.368,14.85-2.489c5.266-5.101-2.888-11.357-7.099-13.008
					c-9.4-3.686-20.909-2.605-30.792-3.014c-9.664-0.4-19.562-0.606-29.021,1.707c-5.464,1.336-10.811,4.205-12.49,9.887
					c-1.834,6.205,8.665,7.861,12.472,7.71C280.558,139.049,281.185,136.732,279.052,136.817z"/>
			</g>
		</g>
		<g>
			<path fill="#FFFFFF" d="M322.385,125.318c0.241,2.009,0.208,5.875,3.298,8.146c-0.966-2.899-1.119-4.675-0.467-5.736
				c0.467-0.86,2.204-2.364,4.206-2.546C327.466,124.07,324.779,124.091,322.385,125.318z"/>
		</g>
	</g>
</g>
</svg>
