<?xml version="1.0" encoding="utf-8"?>
<!-- Generator: Adobe Illustrator 16.2.1, SVG Export Plug-In . SVG Version: 6.00 Build 0)  -->
<!DOCTYPE svg PUBLIC "-//W3C//DTD SVG 1.1//EN" "http://www.w3.org/Graphics/SVG/1.1/DTD/svg11.dtd">
<svg version="1.1" id="Layer_1" xmlns="http://www.w3.org/2000/svg" xmlns:xlink="http://www.w3.org/1999/xlink" x="0px" y="0px"
	 width="612px" height="612px" viewBox="0 0 612 612" enable-background="new 0 0 612 612" xml:space="preserve">
<g>
	<g>
		<g>
			<path fill="#222226" d="M157.234,224.606c-4.981,36.298-24.2,87.546-51.246,121.709c99.645-29.181,237.006-45.551,354.454,16.371
				c-4.278-56.938-9.253-101.07-12.812-133.099"/>
			<g>
				<path fill="#4B4B4B" d="M155.31,224.779c-2.936,20.811-9.117,41.103-16.931,60.571c-8.611,21.456-19.668,42.252-33.966,60.477
					c-1.076,1.371,0.741,2.027,1.898,1.69c101.761-29.693,214.313-38.848,315.159-0.712c12.837,4.854,25.336,10.562,37.489,16.929
					c1.156,0.606,3.511,0.041,3.39-1.559c-3.355-44.458-7.887-88.792-12.812-133.099c-0.18-1.614-4.004-0.702-3.812,1.021
					c4.925,44.307,9.457,88.641,12.812,133.099c1.13-0.52,2.26-1.039,3.39-1.559c-96.32-50.463-209.438-50.851-313.473-27.597
					c-14.38,3.214-28.643,6.944-42.787,11.071c0.633,0.563,1.266,1.127,1.898,1.69c14.173-18.064,25.07-38.459,33.825-59.631
					c8.296-20.062,14.731-41.211,17.769-62.739C159.415,222.611,155.534,223.188,155.31,224.779L155.31,224.779z"/>
			</g>
		</g>
		<g>
			<path fill="#222226" d="M195.48,520.711c-2.438,7.311-5.605,14.379-8.042,21.444c-1.462,5.12-1.95,9.992-3.167,15.11
				c-0.976,4.387-4.631,12.673-9.504,6.825c-3.657-4.388-3.899-12.186-5.119-17.548c-0.731,4.632-5.361,17.303-10.479,18.035
				c-3.413-5.119-1.951-15.354-0.245-20.959c-0.73,3.656-2.924,7.067-4.874,10.234c-2.193,3.412-1.462,5.362-4.386,1.951
				c-3.899-4.63,0.243-21.933,1.948-26.32c3.657-10.725,8.53-16.329,14.135-26.076"/>
			<g>
				<path fill="#4B4B4B" d="M193.606,521.07c-2.067,6.042-4.511,11.939-6.77,17.91c-2.405,6.357-3.035,13.008-4.671,19.568
					c-0.446,1.788-1.226,3.465-2.133,5.058c-1.778,3.121-3.696-0.314-4.822-2.272c-2.575-4.478-2.627-10.352-3.658-15.302
					c-0.153-0.737-3.667,0.229-3.812,1.021c-0.548,2.996-1.604,5.864-2.788,8.661c-0.978,2.311-3.19,7.674-5.919,8.363
					c0.68-0.004,1.36-0.008,2.041-0.011c-3.528-6.095-2.122-14.391-0.277-20.808c-1.25,0.239-2.499,0.479-3.748,0.719
					c-0.691,2.698-1.808,5.047-3.183,7.46c-1.067,1.875-2.17,4.739-3.653,6.293c1.097-0.294,2.195-0.588,3.292-0.882
					c-3.953-0.291-3.598-8.205-3.491-10.615c0.216-4.854,1.286-9.728,2.587-14.393c2.962-10.62,9.542-19.408,15.02-28.793
					c0.196-0.335-3.216-0.193-3.748,0.719c-4.719,8.086-10.159,15.634-13.548,24.424c-2.197,5.7-3.448,11.819-4.039,17.886
					c-0.304,3.126-0.626,12.75,4.793,12.156c1.655-0.182,2.771-0.789,3.526-2.264c2.179-4.254,4.987-8.012,6.191-12.71
					c0.167-0.65-3.498-0.152-3.748,0.719c-1.882,6.55-3.377,14.91,0.213,21.11c0.295,0.511,1.642,0.091,2.041-0.011
					c7.637-1.929,10.992-12.165,12.25-19.046c-1.271,0.341-2.542,0.681-3.812,1.021c1.054,5.062,3.849,26.779,13.909,18.235
					c4.492-3.814,5.037-10.679,6.019-16.089c1.828-10.065,6.391-19.221,9.686-28.849
					C197.546,519.789,193.917,520.163,193.606,521.07L193.606,521.07z"/>
			</g>
		</g>
		<g>
			<path fill="#222226" d="M425.294,512.667c-7.068,11.943-14.379,24.371-19.984,37.045c-7.311,16.327,13.646,3.654,20.957,0.975
				c-1.461,3.655-10.478,15.353-7.554,19.009c3.169,4.143,16.573-9.017,19.497-11.21c-1.219,4.143-11.455,23.151-3.169,21.445
				c2.924-0.488,6.58-9.017,7.799-10.723c3.898-6.58,7.556-13.403,10.479-20.472c4.874-11.94,7.068-23.151,4.142-35.824"/>
			<g>
				<path fill="#4B4B4B" d="M423.401,512.958c-5.534,9.356-11.016,18.739-15.921,28.444c-1.521,3.008-8.586,13.321-4.445,16.705
					c2.373,1.938,7.17,0.101,9.594-0.691c4.953-1.617,9.484-4.279,14.34-6.135c-0.864-0.102-1.729-0.202-2.595-0.304
					c-1.379,3.1-13.761,19.792-5.024,20.415c7.701,0.55,14.919-8.488,20.352-12.732c-1.128,0.039-2.256,0.077-3.384,0.116
					c-1.979,6.112-5.776,11.756-6.365,18.28c-0.51,5.649,6.129,4.022,8.787,1.54c2.686-2.508,3.909-6.415,5.85-9.447
					c3.532-5.521,6.502-11.507,9.223-17.459c5.716-12.506,8.45-25.699,5.556-39.289c-0.225-1.057-4.054-0.112-3.812,1.021
					c4.474,21.005-5.178,39.46-15.27,57.182c-0.752,1.32-3.99,8.813-5.521,8.481c-2.16-0.47-0.565-5.427-0.235-6.618
					c1.373-4.946,4-9.413,5.574-14.273c0.405-1.251-3.005-0.18-3.384,0.116c-2.545,1.988-12.692,12.904-15.858,11.059
					c-4.272-2.491,6.046-16.159,7.299-18.974c0.453-1.019-2.339-0.401-2.595-0.304c-3.227,1.233-19.301,10.535-19.871,4.631
					c-0.223-2.301,1.392-5.042,2.283-7.028c1.825-4.068,3.854-8.043,5.923-11.99c4.155-7.926,8.732-15.629,13.287-23.328
					C427.623,511.637,424.016,511.921,423.401,512.958L423.401,512.958z"/>
			</g>
		</g>
		<g>
			<path fill="#D9E4F4" d="M181.913,442.237c-20.146,12.347-38.018,33.146-39.642,57.189c-0.976,13.973,1.624,26.646,6.823,39.317
				c1.95-10.723,16.572-18.521,26.971-14.946c8.447,2.6,13.646,13.646,12.022,22.096c11.374-7.149,16.573-21.122,20.472-33.145
				c3.899-12.998,4.548-24.045,1.625-37.042c-3.25-16.573-7.15-34.77-15.923-49.066"/>
			<g>
				<path fill="#4B4B4B" d="M180.463,442.217c-15.111,9.416-28.173,22.408-35.451,38.841c-8.205,18.528-5.149,39.942,2.177,58.197
					c0.308,0.767,3.622-0.144,3.783-0.859c2.388-10.584,14.253-17.226,24.478-13.534c8.178,2.953,11.938,13.608,10.731,21.543
					c-0.104,0.681,3.098-0.318,3.356-0.49c15.802-10.468,22.917-33.324,24.252-51.339c0.887-11.96-2.45-24.189-5.19-35.739
					c-2.703-11.393-6.403-22.615-12.433-32.706c-0.538-0.9-4.082,0.571-3.812,1.021c5.464,9.144,8.916,19.147,11.611,29.411
					c2.735,10.412,5.399,21.387,6.056,32.146c0.679,11.119-2.258,21.97-6.073,32.3c-3.542,9.591-8.583,19.082-17.312,24.864
					c1.119-0.163,2.238-0.327,3.356-0.49c1.767-11.624-6.579-23.8-18.969-23.185c-10.062,0.5-21.433,6.375-23.807,16.895
					c1.261-0.286,2.522-0.573,3.783-0.859c-7.21-17.966-9.956-38.067-2.807-56.499c6.479-16.703,20.207-30.153,35.169-39.477
					C184.937,441.277,181.109,441.814,180.463,442.217L180.463,442.217z"/>
			</g>
		</g>
		<g>
			<path fill="#D9E4F4" d="M398.974,446.461c-10.073,14.624-8.449,45.167-5.523,62.389c2.273,12.349,7.148,23.071,14.946,32.818
				c10.398-12.022,53.291-5.523,42.241,12.349c12.998-3.25,13.974-23.071,12.349-32.818c-2.274-16.572-8.449-33.47-14.621-48.742
				c-8.125-21.12-21.447-33.47-40.619-45.167"/>
			<g>
				<path fill="#4B4B4B" d="M397.096,446.806c-8.436,12.817-8.312,30.486-7.498,45.213c1.014,18.37,5.373,35.444,16.893,50.16
					c0.606,0.775,3.085-0.084,3.627-0.672c9.022-9.771,49.086-5.126,38.643,12.854c-0.381,0.656,1.879,0.253,2.026,0.21
					c23.93-6.997,12.979-43.829,7.967-59.653c-4.605-14.537-9.882-29.778-18.909-42.218c-7.921-10.915-18.926-19.053-30.299-26.051
					c-0.914-0.562-4.051,1.001-3.598,1.279c9.84,6.056,19.11,12.873,26.748,21.607c8.995,10.286,13.787,22.979,18.496,35.603
					c4.895,13.121,9.408,27.088,10.39,41.144c0.614,8.795-0.771,24.162-11.092,27.18c0.676,0.069,1.351,0.14,2.026,0.21
					c6.303-10.854-6.425-16.478-15.232-18.128c-9.481-1.777-23.531-1.379-30.607,6.285c1.209-0.224,2.418-0.448,3.627-0.672
					c-11.28-14.41-15.52-30.846-16.806-48.792c-1.075-15.002-1.229-33.207,7.354-46.249
					C401.092,445.752,397.7,445.888,397.096,446.806L397.096,446.806z"/>
			</g>
		</g>
		<g>
			<path fill="#222226" d="M178.775,445.443c-7.756,14.582-0.62,22.648,14.582,27.613c3.723,1.24,13.341,4.654,16.754,1.86
				c1.241-0.93,1.862-7.755,1.862-8.686c1.24-9.619,0-18.925-0.931-28.233"/>
			<g>
				<path fill="#4B4B4B" d="M176.982,445.337c-3.518,6.936-4.971,14.403,0.538,20.686c5.22,5.953,14.549,8.495,21.953,10.337
					c6.086,1.515,12.489,1.596,13.862-5.461c2.138-10.992,0.735-22.401-0.386-33.411c-0.147-1.451-3.975-0.575-3.812,1.021
					c0.975,9.576,1.284,18.717,0.906,28.317c-0.085,2.167-0.458,4.356-0.97,6.458c-0.858,3.528-9.936,0.141-11.937-0.484
					c-6.096-1.905-12.446-4.179-16.767-9.107c-4.664-5.318-2.652-12.52,0.199-18.143C181.46,443.79,177.617,444.084,176.982,445.337
					L176.982,445.337z"/>
			</g>
		</g>
		<g>
			<path fill="#222226" d="M387.266,455.061c0.311,8.377,8.688,17.064,17.064,16.134c19.235-2.172,38.16-27.302,18.615-40.953"/>
			<g>
				<path fill="#4B4B4B" d="M385.359,455.571c0.659,7.602,6.967,15.906,15.106,16.418c6.798,0.428,13.536-2.414,19.104-6.104
					c12.788-8.474,19.267-25.864,5.168-36.306c-0.879-0.65-4.208,0.861-3.586,1.322c11.003,8.149,9.457,20.675,0.942,30.101
					c-4.707,5.21-12.81,10.461-20.141,9.19c-7.14-1.236-12.196-8.891-12.782-15.644
					C389.104,453.768,385.265,454.487,385.359,455.571L385.359,455.571z"/>
			</g>
		</g>
		<g>
			<path fill="#727886" d="M347.244,392.7c11.168,22.337,19.855,44.987,33.507,66.395c6.515,10.239,23.579,5.585,33.195,0.931
				c6.517-3.103,27.613-17.685,23.581-26.992c-0.62-2.172-8.999-7.757-9.928-8.686c-8.999-7.757-17.685-15.514-26.992-22.65
				c-25.441-19.547-50.572-29.164-82.84-23.579"/>
			<g>
				<path fill="#4B4B4B" d="M345.338,393.211c6.876,13.833,13.016,28.016,19.851,41.869c3.071,6.226,6.353,12.345,9.849,18.343
					c2.703,4.638,5.229,9.852,10.63,11.738c16.343,5.709,35.544-6.138,46.846-17.097c4.064-3.941,10.636-11.734,5.707-17.346
					c-2.352-2.679-5.636-4.681-8.455-6.819c-6.029-4.571-11.521-10.009-17.316-14.879c-19.511-16.391-40.973-30.255-66.81-33.194
					c-9.197-1.047-18.546-0.416-27.649,1.091c-1.928,0.319-3.054,2.834-0.443,2.402c25.6-4.236,49.214,1.782,70.851,15.748
					c11.889,7.673,22.539,17.144,33.2,26.395c2.861,2.483,5.714,4.821,8.729,7.102c3.342,2.526,6.498,4.69,5.506,9.278
					c-1.742,8.05-12.031,14.671-18.415,18.805c-7.673,4.967-18.135,8.754-27.302,6.902c-6.096-1.232-8.671-6.837-11.559-11.698
					c-4.069-6.851-7.692-13.958-11.187-21.115c-6.235-12.772-11.892-25.817-18.22-38.546
					C348.424,390.728,344.689,391.906,345.338,393.211L345.338,393.211z"/>
			</g>
		</g>
		<g>
			<path fill="#727886" d="M227.175,408.834c-5.896,16.754-6.516,34.127-10.239,51.191c-0.62,2.792-1.24,8.377-4.343,9.617
				c-4.965,2.172-21.408-9.617-25.441-11.788c-7.135-4.034-17.685-8.999-22.959-15.824c-4.343-5.895,2.793-10.237,7.757-15.512
				c16.443-17.685,35.989-32.887,58.328-42.506c4.343-1.552,16.442-8.688,21.096-3.723"/>
			<g>
				<path fill="#4B4B4B" d="M225.266,409.061c-3.631,10.667-5.389,21.724-7.056,32.832c-0.521,3.478-2.552,27.647-7.656,26.741
					c-6.212-1.102-12.308-5.761-17.535-9.055c-6.48-4.084-13.433-7.348-19.772-11.662c-3.961-2.696-10.35-7.326-7.605-12.742
					c2.047-4.039,7.051-7.493,10.161-10.761c6.992-7.349,14.582-14.112,22.612-20.303c8.683-6.693,18.117-12.433,27.995-17.176
					c5.196-2.495,18.114-10.405,23.198-5.887c1.043,0.927,4.622-0.551,3.534-1.518c-5.391-4.79-14.134-0.516-19.644,1.937
					c-10.827,4.819-21.156,10.029-30.976,16.727c-10.361,7.066-19.846,15.375-28.623,24.313c-3.941,4.015-8.664,7.862-11.821,12.539
					c-2.808,4.161,0.216,7.922,3.207,10.84c6.768,6.604,16.017,10.106,23.92,15.084c6.243,3.934,13.34,9.345,20.916,10.054
					c8.701,0.813,9.156-12.997,10.156-18.555c2.647-14.726,3.96-29.617,8.809-43.862
					C229.552,407.236,225.715,407.739,225.266,409.061L225.266,409.061z"/>
			</g>
		</g>
		<g>
			<path fill="#D9E4F4" d="M234.553,493.579c19.497,30.543,40.618,59.789,77.012,70.188c13.321,3.899,28.595,5.85,42.241,0.975
				c6.823-2.274,9.099-6.823,11.373-13.973c13.646-39.968-9.098-86.108-24.371-121.854"/>
			<g>
				<path fill="#4B4B4B" d="M232.647,494.09c12.989,20.312,26.944,40.569,46.475,55.164c18.804,14.051,46.459,23.528,69.867,17.549
					c4.333-1.106,8.511-2.391,12.02-5.248c4.107-3.344,5.564-9.402,7.03-14.207c3.791-12.428,3.84-25.723,2.188-38.502
					c-3.521-27.238-15.552-52.714-26.322-77.672c-0.398-0.923-0.794-1.846-1.189-2.77c-0.399-0.933-4.11,0.327-3.812,1.021
					c9.451,22.067,19.564,43.979,25.105,67.441c2.751,11.646,4.034,23.638,3.14,35.588c-0.477,6.36-1.857,12.601-3.849,18.648
					c-2.395,7.275-5.146,11.785-12.956,14.086c-13.511,3.98-28.655,0.746-41.683-3.561c-10.723-3.544-20.562-9.351-29.394-16.324
					c-17.792-14.049-30.721-33.338-42.807-52.236C235.853,492.119,232.335,493.604,232.647,494.09L232.647,494.09z"/>
			</g>
		</g>
		<g>
			<path fill="#727886" d="M303.927,340.368c-32.655,2.924-64.825,13.647-79.446,46.304c-19.009,42.893,15.109,87.247,2.436,129.652
				c44.355,13.158,116.491,23.881,151.585-14.624c-6.338-10.235-13.648-18.521-16.572-30.707
				c-5.848-19.981-3.412-42.404-3.899-62.874c-0.487-18.036,3.412-40.943-10.234-54.591c-15.598-15.598-43.381-17.547-63.365-12.186
				"/>
			<g>
				<path fill="#4B4B4B" d="M304.096,338.97c-17.696,1.646-35.418,5.396-51.036,14.19c-15.896,8.95-27.757,23.581-33.253,40.967
					c-12.881,40.749,16.862,81.445,5.178,122.342c-0.146,0.51,0.402,1.016,0.832,1.143c26.191,7.718,53.504,12.637,80.879,12.159
					c26.67-0.465,54.679-7.349,73.402-27.506c0.375-0.403,0.439-0.943,0.149-1.405c-5.278-8.4-11.452-16.229-14.983-25.595
					c-4.134-10.962-5.057-23.162-5.345-34.756c-0.498-20.052,1.408-40.377-0.058-60.385c-0.601-8.188-2.247-16.089-6.73-23.078
					c-4.387-6.838-11.905-11.443-19.192-14.6c-15.375-6.661-33.857-6.55-49.858-2.412c-2.364,0.61-1.656,3.228,0.701,2.617
					c22.333-5.774,56.15-3.208,67.366,20.574c5.274,11.186,4.178,24.635,3.954,36.641c-0.265,14.211-0.354,28.549-0.001,42.758
					c0.332,13.346,1.803,27.822,8.034,39.846c2.901,5.596,6.498,10.743,9.988,15.978c2.426,3.638,1.752,3.964-1.345,6.835
					c-2.136,1.979-4.446,3.759-6.811,5.453c-18.401,13.188-42.33,16.375-64.401,16.274c-22.555-0.104-45.154-4.184-66.868-10.069
					c-1.244-0.337-5.786-0.984-5.417-2.276c0.853-2.985,1.384-6.055,1.818-9.124c0.877-6.212,0.745-12.522,0.297-18.762
					c-0.938-13.077-4.168-25.914-6.814-38.716c-2.721-13.168-4.846-26.506-3.71-39.982c1.139-13.532,6.573-26.32,15.057-36.859
					c15.363-19.085,40.239-26.348,63.635-29.034c1.396-0.16,2.795-0.29,4.194-0.42C305.894,341.567,306.697,338.729,304.096,338.97
					L304.096,338.97z"/>
			</g>
		</g>
		<g>
			<path fill="#222226" d="M336.764,345.575c-15.695-8.129-36.468-8.488-52.333-4.232l19.496-0.975
				c-13.503,1.209-26.917,3.759-39.048,8.634c7.447,3.229,16.669,4.691,22.477,5.015c13.404,0.73,27.295-0.487,40.212-4.875
				C330.405,348.195,333.665,347.066,336.764,345.575z"/>
			<g>
				<path fill="#4B4B4B" d="M338.313,344.773c-16.571-8.265-36.368-8.701-54.074-4.145c-1.039,0.268-2.708,1.693-0.605,1.588
					c6.499-0.325,12.997-0.649,19.496-0.975c0.531-0.583,1.062-1.165,1.594-1.748c-13.866,1.305-27.53,3.865-40.536,8.955
					c-0.421,0.165-1.877,0.935-0.858,1.354c23.012,9.477,52.337,6.333,74.561-3.87c2.306-1.059-1.241-1.183-2.254-0.717
					c-20.649,9.48-47.908,11.756-69.208,2.983c-0.286,0.452-0.572,0.903-0.858,1.354c12.05-4.717,24.711-7.103,37.56-8.312
					c1.066-0.101,4.178-1.877,1.594-1.748c-6.499,0.325-12.997,0.649-19.496,0.975c-0.202,0.529-0.404,1.059-0.605,1.588
					c16.642-4.283,35.08-3.417,50.591,4.32C336.106,346.821,339.624,345.428,338.313,344.773z"/>
			</g>
		</g>
		<g>
			<path fill="#222226" d="M330.367,342.771c-14.649-5.343-32.148-5.128-45.936-1.428l19.496-0.975
				c-9.652,0.864-19.257,2.419-28.383,5.011c4.935,1.629,10.109,2.484,12.543,2.789c11.21,1.705,23.638,1.462,34.606-2.438
				C324.688,345.004,327.526,344.042,330.367,342.771z"/>
			<g>
				<path fill="#4B4B4B" d="M331.885,341.85c-15.326-5.347-32.05-5.48-47.708-1.458c-1.172,0.301-2.604,2.136-0.487,2.03
					c6.499-0.325,12.998-0.649,19.496-0.975c0.334-0.711,0.669-1.422,1.003-2.132c-9.776,0.923-19.426,2.502-28.899,5.112
					c-0.914,0.252-2.59,1.462-0.913,1.985c18.804,5.866,38.682,4.867,56.744-2.861c2.447-1.047,0.204-2.294-1.506-1.562
					c-16.915,7.238-35.352,7.831-52.902,2.355c-0.304,0.662-0.609,1.323-0.913,1.985c9.139-2.518,18.438-4.019,27.867-4.909
					c1.328-0.125,3.357-2.25,1.003-2.132c-6.499,0.325-12.998,0.649-19.496,0.975c-0.163,0.677-0.325,1.354-0.487,2.03
					c14.459-3.714,30.013-3.539,44.164,1.397C330.004,344.095,333.461,342.399,331.885,341.85z"/>
			</g>
		</g>
		<g>
			<g>
				<path fill="#4B4B4B" d="M298.582,354.487c-1.894,28.941-2.267,57.948-1.195,86.932c0.558,15.074,1.565,30.129,2.909,45.152
					c1.258,14.062,4.002,28.2,4.146,42.323c0.01,1,3.827,0.323,3.813-1.021c-0.137-13.473-2.706-26.96-3.966-40.366
					c-1.35-14.363-2.297-28.763-2.93-43.175c-1.322-30.119-0.951-60.31,1.017-90.392
					C302.466,352.562,298.655,353.368,298.582,354.487L298.582,354.487z"/>
			</g>
		</g>
		<g>
			<path fill="#D9E4F4" d="M176.449,130.945c-11.514,14.622-21.672,34.768-23.705,52.965c-2.71,22.42,8.805,47.766,19.979,66.938
				c13.545,23.07,42.331,47.44,68.744,54.589c15.24,3.899,30.817,3.899,46.054,0.976c12.532-2.6,23.706-8.448,35.897-11.373
				c23.365-5.525,45.717-10.723,68.406-19.171c17.271-6.499,26.752-16.247,35.558-31.52c7.789-13.322,12.527-29.895,15.577-44.841
				c6.435-29.895,14.562-61.414-10.838-86.108C393.519,75.705,328.161,83.504,278.72,86.428
				c-22.351,1.625-46.734,3.899-66.374,13.972c-8.467,4.55-16.933,9.424-24.721,14.949c-5.758,3.899-16.933,9.748-19.98,16.571"/>
			<g>
				<path fill="#4B4B4B" d="M174.654,130.83c-16.524,21.283-27.881,47.762-22.676,74.981c4.929,25.775,19.62,51.396,38.112,69.788
					c18.822,18.719,42.309,32.046,69.077,33.918c14.477,1.013,28.863-1.292,42.513-6.046c6.756-2.353,13.393-4.996,20.3-6.892
					c7.795-2.14,15.762-3.746,23.609-5.686c14.67-3.626,29.202-7.736,43.448-12.79c10.831-3.843,20.564-9.147,28.557-17.516
					c18.03-18.88,23.917-45.495,29.197-70.141c4.982-23.253,8.654-48.171-5.437-69.076c-12.9-19.141-36.375-29.585-58.142-34.473
					c-35.5-7.971-73.423-4.048-109.332-1.29c-21.229,1.631-43.047,4.223-62.328,13.864c-9.462,4.731-18.159,10.694-27.023,16.409
					c-6.699,4.319-14.917,8.516-18.682,15.923c-0.901,1.774,2.945,1.502,3.591,0.231c2.743-5.398,8.182-8.794,13.123-11.983
					c5.619-3.626,11.135-7.416,16.834-10.914c13.291-8.158,26.718-14.005,42.022-17.147c25.07-5.147,51.67-5.68,77.198-6.712
					c24.479-0.99,49.533-0.396,73.151,6.742c23.655,7.149,47.163,23.117,53.86,48.082c3.265,12.168,1.984,25.128-0.055,37.382
					c-2.153,12.943-4.957,26.007-8.506,38.636c-3.796,13.506-9.462,26.359-17.709,37.746c-7.616,10.516-18.056,17.287-30.115,21.734
					c-15.021,5.539-30.523,9.695-46.051,13.534c-7.256,1.793-14.557,3.414-21.804,5.239c-7.505,1.891-14.701,4.942-21.995,7.482
					c-15.841,5.516-32.917,6.74-49.449,4.017c-13.726-2.262-26.212-8.576-37.612-16.342c-25.378-17.288-42.854-42.656-52.899-71.444
					c-5.206-14.919-6.598-30.101-2.632-45.467c3.899-15.107,11.927-29.301,21.443-41.558
					C179.391,129.584,175.508,129.729,174.654,130.83L174.654,130.83z"/>
			</g>
		</g>
		<g>
			<path fill="#FEC40D" d="M390.745,147.842c-19.084-8.76-76.091-5.382-83.797-5.073c-1.242,0.05-2.482,0.094-3.723,0.134
				c-1.24-0.04-2.48-0.084-3.723-0.134c-7.707-0.309-64.712-3.687-83.796,5.073c-25.609,11.759-31.148,31.744-31.172,46.377
				c-0.075,42.549,34.926,42.655,50.494,33.51c20.185-13.02,44.122-19.832,68.197-19.461c24.074-0.371,48.011,6.441,68.197,19.461
				c15.568,9.145,50.569,9.039,50.494-33.51C421.891,179.586,416.354,159.601,390.745,147.842z"/>
			<g>
				<path fill="#4B4B4B" d="M392.401,146.702c-15.78-6.971-35.578-6.208-52.454-6.227c-14.125-0.016-28.339,1.429-42.444,0.77
					c-16.871-0.789-33.794-1.167-50.667-0.223c-19.315,1.081-37.112,4.576-51.165,19.034
					c-13.009,13.383-16.222,34.237-10.919,51.727c4.436,14.629,17.371,22.392,32.178,22.175c6.126-0.089,12.392-1.705,17.836-4.496
					c5.478-2.809,10.562-6.251,16.166-8.876c7.062-3.308,14.485-5.753,22.045-7.629c29.231-7.25,61.297-3.154,87.919,10.713
					c5.514,2.872,10.396,6.533,16.358,8.439c4.588,1.468,9.438,1.966,14.234,1.832c10.515-0.295,20.197-5.354,26.113-14.059
					c7.36-10.831,7.824-26.366,4.978-38.756C418.902,165.117,406.864,153.546,392.401,146.702c-1.477-0.698-5.284,1.346-3.312,2.279
					c11.071,5.239,20.571,12.938,26.023,24.088c4.128,8.444,5.104,17.95,4.441,27.215c-0.672,9.417-3.882,19.194-11.435,25.299
					c-5.736,4.637-13.273,6.002-20.464,5.452c-8.512-0.651-14.677-4.782-21.939-8.831c-11.68-6.511-24.663-11.036-37.823-13.347
					c-27.115-4.761-55.344-1.413-80.302,10.277c-8.305,3.89-15.442,9.884-24.645,11.509c-7.049,1.245-14.434,0.37-20.772-3.024
					c-16.625-8.902-17.997-33.128-13.208-49.18c3.314-11.11,11.226-19.838,20.882-25.932c8.331-5.257,17.462-6.932,27.104-7.958
					c18.321-1.951,36.936-1.463,55.314-0.677c13.274,0.568,26.461-0.362,39.741-0.559c10.224-0.151,20.464,0.012,30.665,0.732
					c8.755,0.618,18.29,1.345,26.418,4.936C390.575,149.638,394.377,147.575,392.401,146.702z"/>
			</g>
		</g>
		<g>
			<path fill="#B01E34" d="M376.121,150.767c-22.42-1.95-44.841-1.95-67.356-0.288c-1.848,0.082-3.695,0.148-5.539,0.202
				c-1.845-0.054-3.69-0.121-5.539-0.202c-22.516-1.662-44.937-1.662-67.358,0.288c-8.773,0.974-37.633,11.69-35.286,48.089
				c1.236,19.162,19.163,32.762,43.021,19.418c19.867-11.811,42.502-17.597,65.162-17.461c22.66-0.136,45.294,5.65,65.163,17.461
				c23.854,13.344,41.782-0.256,43.018-19.418C413.757,162.457,384.896,151.741,376.121,150.767z"/>
			<g>
				<path fill="#4B4B4B" d="M377.214,149.921c-15.937-1.345-31.909-1.768-47.896-1.335c-7.857,0.212-15.687,0.886-23.539,1.171
					c-8.371,0.305-16.869-0.806-25.245-1.108c-16.506-0.597-33.041-0.136-49.497,1.253c-4.767,0.402-9.455,2.295-13.691,4.408
					c-15.652,7.805-23.852,23.304-24.179,40.473c-0.189,9.944,3.026,19.516,11.353,25.449c7.636,5.441,17.668,4.95,26.182,2.197
					c5.762-1.864,10.818-5.275,16.179-8.004c7.548-3.843,15.58-6.686,23.755-8.851c15.294-4.049,31.461-4.767,47.146-3.061
					c15.009,1.633,29.574,6.252,43.004,13.089c9.97,5.076,19.604,10.901,31.272,8.236c20.814-4.753,24.44-27.675,18.804-45.466
					c-4.338-13.692-16.395-24.2-30.154-27.775C379.559,150.298,378.393,150.066,377.214,149.921
					c-0.939-0.115-4.071,1.46-2.186,1.692c14.027,1.726,26.354,12.781,31.562,25.506c4.042,9.878,4.768,22.563,0.523,32.441
					c-5.813,13.531-20.358,15.281-32.732,10.216c-6.45-2.64-12.343-6.676-18.753-9.488c-6.493-2.849-13.321-5.089-20.222-6.714
					c-13.762-3.24-27.821-4.227-41.918-3.268c-13.26,0.901-26.297,4.021-38.667,8.83c-13.279,5.163-26.055,16.848-41.123,12.618
					c-18.671-5.241-19.473-29.249-14.256-44.278c4.184-12.056,14.648-21.503,26.811-25.086c9.032-2.661,19.758-1.923,29.089-2.154
					c13.758-0.34,27.528,0.106,41.252,1.09c12.327,0.883,24.899-0.921,37.251-1.142c13.742-0.245,27.489,0.273,41.183,1.43
					C375.961,151.692,379.088,150.079,377.214,149.921z"/>
			</g>
		</g>
		<g>
			<path fill="#FFFFFF" d="M351.203,171.281c0.99,7.243,1.419,21.241,10.945,29.116c-3.279-10.391-3.97-16.8-2.167-20.709
				c1.275-3.167,6.258-8.802,12.212-9.688C366.206,166.19,358.183,166.568,351.203,171.281z"/>
		</g>
		<g>
			<g>
				<path fill="#4B4B4B" d="M158.064,211.031c-0.089,0.089-0.179,0.175-0.272,0.259c-0.094,0.085,0.269-0.009-0.122,0.009
					c-0.366,0.017-1.001,0.261-1.094,0.67c-0.102,0.451,0.58,0.452,0.841,0.44c0.867-0.04,1.599-0.43,2.205-1.031
					c0.288-0.286,0.224-0.621-0.191-0.714C158.991,210.567,158.389,210.708,158.064,211.031L158.064,211.031z"/>
			</g>
		</g>
		<g>
			<path fill="#FEC40D" d="M151.533,214.779c-5.85-4.224-21.447,1.95-27.946-3.249c-5.523-4.225,1.95-27.619,3.25-31.519
				c4.171-10.589,12.29-19.04,16.897-29.57c-14.948,2.924-27.946,26.97-33.469,38.992c-4.224,9.748-7.799,20.147-10.723,30.545
				c6.823,0.648,14.297-0.65,21.121-0.976c10.398-0.325,21.121,0,31.519-2.275"/>
			<g>
				<path fill="#4B4B4B" d="M153.002,213.675c-5.725-3.532-13.703-1.454-20.01-1.333c-3.847,0.073-8.262-0.459-9.242-4.725
					c-0.764-3.322-0.019-7.145,0.527-10.443c1.023-6.187,2.597-12.632,5.006-18.438c4.158-10.021,11.765-18.202,16.275-28.072
					c0.637-1.394-1.23-1.751-2.176-1.535c-12.208,2.793-20.446,14.522-26.667,24.52c-8.902,14.306-14.511,30.347-19.105,46.475
					c-0.2,0.704,0.72,1.208,1.274,1.249c8.453,0.606,16.849-0.867,25.293-1.059c9.529-0.216,18.982-0.357,28.356-2.271
					c2.408-0.491,1.66-3.109-0.704-2.627c-8.4,1.714-16.925,1.897-25.467,2.057c-8.704,0.163-17.466,1.739-26.162,1.115
					c0.425,0.417,0.849,0.833,1.274,1.249c4.058-14.244,9.021-28.241,16.228-41.212c5.681-10.223,14.098-24.058,26.384-26.868
					c-0.726-0.512-1.451-1.023-2.176-1.535c-4.74,10.372-13.415,19.056-17.016,29.928c-2.105,6.355-3.845,12.886-4.827,19.512
					c-0.86,5.805-1.221,12.06,5.003,14.539c7.734,3.081,17.91-2.686,24.993,1.684C151.501,216.769,154.842,214.81,153.002,213.675
					L153.002,213.675z"/>
			</g>
		</g>
		<g>
			<path fill="#FEC40D" d="M448.526,211.368c5.199-0.324,12.349-1.624,17.872-2.274c4.875-0.976,14.622-0.976,18.846-4.549
				c1.302-1.624,1.626-6.824,1.626-8.448c0.974-11.048-0.651-23.396-4.55-33.794c-3.249-8.773-8.774-15.597-13.974-23.071
				c-1.297-1.624-2.6-2.924-3.248-4.874c13.648,6.174,26.645,21.771,31.194,35.744c2.6,8.448,2.6,17.546,2.6,25.995
				c0,4.875,0.973,13.322-1.624,17.547c-2.275,4.224-1.627,2.274-4.875,3.574c-3.575,0-6.823,0-10.073-0.325
				c-6.499,0-12.998,0-19.497-0.324c-8.773,0-17.546-0.326-26.319,0.324"/>
			<g>
				<path fill="#4B4B4B" d="M448.334,212.676c9.584-0.729,19.394-2.172,28.873-3.804c3.315-0.571,6.548-1.522,9.28-3.536
					c2.254-1.661,2.177-6.308,2.295-8.746c0.554-11.392-0.359-22.336-3.987-33.226c-1.651-4.956-4.173-9.518-6.979-13.901
					c-3.303-5.162-8.346-10.035-10.812-15.617c-1.129,0.522-2.259,1.043-3.388,1.565c10.635,5.046,18.998,13.737,25.254,23.576
					c7.548,11.871,7.945,24.724,8.109,38.374c0.061,5.013,0.781,10.333-1.02,15.142c-1.278,3.416-2.638,3.417-6.365,3.394
					c-3.508-0.022-6.983-0.312-10.494-0.315c-14.133-0.017-28.281-0.936-42.405,0.002c-2.084,0.138-2.997,2.79-0.385,2.616
					c17.258-1.146,34.654,0.019,51.923,0.312c2.982,0.051,7.184,0.287,9.348-2.213c3.626-4.19,3.493-10.338,3.368-15.501
					c-0.333-13.722,0.083-26.91-6.304-39.47c-5.963-11.727-16.132-22.362-28.066-28.025c-0.832-0.395-4.094-0.033-3.388,1.565
					c1.512,3.424,4.176,6.294,6.345,9.332c2.931,4.106,5.78,8.235,8.209,12.664c5.355,9.768,7.302,21.636,7.474,32.644
					c0.055,3.454-0.159,6.979-0.524,10.416c-0.193,1.831-0.339,3.766-2.095,4.767c-2.255,1.286-5.167,1.622-7.684,1.995
					c-8.668,1.287-17.464,2.71-26.198,3.375C446.641,210.218,445.722,212.875,448.334,212.676L448.334,212.676z"/>
			</g>
		</g>
		<g>
			<path fill="#727886" d="M159.481,202.896c5.535-73.576,80.266-91.901,149.157-91.447c49.392,0.326,135.5,16.571,132.252,96.832
				c3.899-2.924,7.799-4.874,9.458-8.414c2.143-3.54,3.845-7.636,4.425-12.105c14.386-110.594-89.92-147.638-148.409-147.638
				c-59.481,0-173.517,28.757-152.559,157.92"/>
			<g>
				<path fill="#4B4B4B" d="M161.419,202.693c1.719-21.078,9.618-40.521,24.91-55.369c14.755-14.327,34.497-22.479,54.14-27.507
					c21.522-5.509,43.99-7.186,66.144-7.155c16.341,0.022,32.702,1.653,48.678,5.109c21.01,4.544,41.992,12.666,58.255,27.077
					c18.357,16.266,26.236,39.495,25.407,63.638c-0.053,1.523,2.421,1.033,3.167,0.493c4.944-3.582,8.689-6.259,11.557-11.753
					c2.939-5.633,3.414-11.989,3.924-18.208c0.86-10.502,0.534-21.106-0.987-31.531c-2.654-18.189-9.879-35.449-20.794-50.212
					c-19.956-26.992-51.412-43.632-83.297-52.14c-26.827-7.158-54.428-7.709-81.725-3.092C241.284,47.035,212.063,57.965,189,77.447
					c-14.919,12.603-26.108,28.951-32.68,47.316c-8.432,23.567-8.322,49.352-4.442,73.799c0.239,1.507,4.109,0.568,3.855-1.033
					c-6.202-39.076-0.917-80.026,26.768-110.031c21.406-23.2,51.991-35.89,82.415-42.037c59.489-12.02,131.372,3.756,168.584,55.094
					c9.783,13.498,15.978,29.204,18.871,45.571c1.699,9.609,2.068,19.407,1.62,29.14c-0.245,5.316-0.617,10.782-1.791,15.98
					c-0.686,3.034-2.124,5.838-3.667,8.509c-2.054,3.556-5.638,5.487-8.873,7.831c1.056,0.165,2.111,0.329,3.167,0.493
					c0.648-18.865-3.564-37.272-14.715-52.721c-9.974-13.817-24.693-23.537-40.127-30.273
					c-31.629-13.806-67.418-16.188-101.468-14.288c-29.467,1.644-59.966,7.252-85.695,22.378
					c-25.667,15.09-40.87,40.377-43.279,69.927C157.401,204.854,161.299,204.167,161.419,202.693L161.419,202.693z"/>
			</g>
		</g>
		<g>
			<path fill="#727886" d="M159.403,239.8c0.75,6.824,1.844,13.116,3.939,19.457c14.216,36.677,48.271,64.684,87.517,77.875
				c6.54,2.198,13.224,3.985,19.942,5.35c65.654,14.947,132.175-25.021,162.541-79.61c2.875-5.361,5.318-10.855,7.363-16.443
				c2.042-5.593,2.055-4.422,3.279-10.166c5.455,0,8.26,0.219,13.865-0.516c0.128-3.422,3.308-45.39,4.486-49.885
				c-6.324-0.743-14.505-1.279-20.986-1.604c0.256,7.676-2.319,17.335-4.168,24.686c-1.848,7.352-5.182,14.323-9.317,20.697
				c-3.634,5.376-7.834,10.019-12.499,14.017c-5.475,4.501-11.289,8.172-17.371,11.17c-58.467,22.665-123.968,24.615-183.737,1.995
				c-5.15-1.99-10.197-4.246-15.111-6.793c-4.915-2.55-9.699-5.392-14.325-8.554c-5.026-3.767-9.735-8.006-14.073-12.764
				c-3.582-5.32-6.055-11.331-7.249-17.831c-1.706-8.772-2.039-17.418-1.365-26.319c-2.729,0.65-14.907,2.6-17.399,3.574
				c-0.351,5.606,1.273,40.131,2.389,48.091C150.557,237.363,156.333,238.826,159.403,239.8z"/>
			<g>
				<path fill="#4B4B4B" d="M157.478,240.316c1.599,13.833,5.797,25.789,13.012,37.666c6.143,10.111,13.976,19.145,22.628,27.176
					c18.783,17.435,42.323,29.315,66.963,35.92c47.515,12.735,96.263-0.038,134.337-30.468
					c22.939-18.333,45.063-45.432,51.462-74.702c-1.052,0.367-2.104,0.733-3.155,1.1c4.796,0.018,9.509,0.032,14.277-0.537
					c0.595-0.071,2.736-0.379,2.773-1.241c0.342-7.828,1.116-15.658,1.76-23.464c0.708-8.579,0.692-17.854,2.696-26.259
					c0.055-0.229-0.059-0.335-0.306-0.363c-7.084-0.797-14.198-1.264-21.316-1.632c-0.618-0.032-3.194,0.345-3.186,1.262
					c0.126,13.639-4.208,28.797-10.729,40.715c-7.783,14.228-21.289,25.288-36.429,30.867
					c-29.821,10.989-61.631,16.19-93.383,15.691c-30.439-0.479-61.638-6.525-89.611-18.678c-6.785-2.947-13.282-6.516-19.526-10.473
					c-6.351-4.025-13.805-9.663-17.946-16.044c-8.022-12.364-8.707-28.555-7.742-42.806c0.028-0.408-1.419-0.17-1.553-0.14
					c-6.088,1.359-12.502,1.818-18.423,3.848c-0.368,0.126-1.25,0.4-1.275,0.898c-0.391,7.677,0.277,15.498,0.645,23.163
					c0.397,8.292,0.649,16.692,1.745,24.929c0.072,0.126,0.184,0.194,0.335,0.201c4.063,1.294,8.203,2.326,12.28,3.574
					c0.842,0.258,4.226-1.115,3.181-1.435c-3.216-0.984-6.469-1.843-9.7-2.776c-2.901-0.838-2.486-2.486-2.717-5.12
					c-0.456-5.205-0.745-10.426-1.029-15.643c-0.501-9.227-1.358-18.68-0.888-27.925c-0.425,0.299-0.85,0.599-1.275,0.898
					c5.218-1.79,11-2.1,16.375-3.299c-0.518-0.047-1.035-0.093-1.553-0.14c-0.989,14.611,0.036,29.994,7.742,42.806
					c3.137,5.215,8.977,9.474,13.69,13.193c6.208,4.898,13.541,8.643,20.646,12.045c26.228,12.56,56.224,18.405,85.089,20.084
					c28.617,1.665,57.446-1.82,85.066-9.337c13.023-3.544,26.012-7.561,37.375-14.99c11.475-7.503,20.136-17.94,25.822-30.375
					c4.695-10.27,7.744-23.445,7.639-34.762c-1.062,0.42-2.124,0.841-3.186,1.262c5.348,0.276,10.69,0.618,16.024,1.094
					c0.836,0.075,4.334-0.04,4.18,0.809c-0.133,0.728-0.236,1.458-0.336,2.191c-0.729,5.38-1.158,10.809-1.637,16.215
					c-0.91,10.291-1.947,20.626-2.397,30.95c0.924-0.414,1.849-0.828,2.773-1.241c-4.494,0.536-8.938,0.513-13.453,0.496
					c-0.62-0.002-2.977,0.28-3.155,1.1c-5.175,23.674-21.068,45.556-37.872,62.44c-18.461,18.551-41.516,32.797-66.604,40.34
					c-51.373,15.444-110.446-3.719-147.217-41.75c-7.436-7.691-13.782-16.391-18.982-25.73
					c-5.743-10.313-8.731-20.932-10.084-32.633C161.253,238.624,157.368,239.373,157.478,240.316z"/>
			</g>
		</g>
		<g>
			<path fill="#222226" d="M336.457,270.586c-9.84,1.577-17.094-14.051-31.554-13.808c-15.613,0.263-20.357,16.512-32.152,14.333
				c0,0,13.996,16.679,32.944,16.679S336.457,270.586,336.457,270.586z"/>
			<g>
				<path fill="#4B4B4B" d="M336.632,269.21c-5.921,0.637-11.107-4.997-15.545-8.178c-4.627-3.317-10.188-5.904-16.01-5.629
					c-5.881,0.278-10.873,2.463-15.578,5.912c-4.887,3.583-9.396,9.378-16.084,8.428c-0.907-0.129-3.499,0.922-2.411,2.203
					c8.247,9.71,21.542,17.52,34.517,17.22c12.732-0.294,25.259-7.591,32.528-18.031c1.385-1.989-2.199-2.51-3.184-1.097
					c-6.246,8.972-16.603,15.586-27.552,16.343c-12.194,0.842-25.109-7.03-32.816-16.104c-0.804,0.734-1.607,1.469-2.411,2.203
					c12.35,1.755,18.604-12.162,29.996-14.12c14.141-2.43,20.972,15.025,34.2,13.603C338.392,271.735,339.233,268.93,336.632,269.21
					z"/>
			</g>
		</g>
		<g>
			<g>
				<path fill="#4B4B4B" d="M304.93,110.4c0.015-12.606,0.198-25.209,0.055-37.816c-0.083-7.234-0.22-14.479-0.711-21.698
					c-0.116-1.705,0.176-8.708-2.068-9.466c-0.791-0.268-3.492,0.943-2.405,1.311c1.671,0.565,1.514,9.206,1.596,10.5
					c0.446,7.059,0.541,14.143,0.622,21.213c0.139,12.253-0.052,24.503-0.066,36.755C301.951,111.928,304.929,111.424,304.93,110.4
					L304.93,110.4z"/>
			</g>
		</g>
		<g>
			<g>
				<path fill="#4B4B4B" d="M162.532,240.263c2.022-5.391,4.017-10.789,5.85-16.247c0.534-1.588-2.438-1.449-2.831-0.277
					c-1.833,5.458-3.828,10.857-5.85,16.247C159.114,241.55,162.097,241.422,162.532,240.263L162.532,240.263z"/>
			</g>
		</g>
		<g>
			<g>
				<path fill="#4B4B4B" d="M432.576,221.026c2.505,6.217,5.227,12.317,8.449,18.198c0.454,0.829,3.29-0.23,2.979-0.798
					c-3.223-5.881-5.943-11.981-8.449-18.198C435.223,219.403,432.3,220.342,432.576,221.026L432.576,221.026z"/>
			</g>
		</g>
	</g>
</g>
</svg>
