<?xml version="1.0" encoding="utf-8"?>
<!-- Generator: Adobe Illustrator 16.2.1, SVG Export Plug-In . SVG Version: 6.00 Build 0)  -->
<!DOCTYPE svg PUBLIC "-//W3C//DTD SVG 1.1//EN" "http://www.w3.org/Graphics/SVG/1.1/DTD/svg11.dtd">
<svg version="1.1" id="Layer_1" xmlns="http://www.w3.org/2000/svg" xmlns:xlink="http://www.w3.org/1999/xlink" x="0px" y="0px"
	 width="612px" height="612px" viewBox="0 0 612 612" enable-background="new 0 0 612 612" xml:space="preserve">
<g>
	<g>
		<path fill="#B01E34" d="M272.108,648.069c-4.54-4.972-6.81-10.876-12.322-15.226c-8.43-7.145-20.426-12.429-31.451-15.225
			c-12.646-3.105-24.967-2.173-37.612-0.31c2.595-3.728-3.242-15.225-4.214-19.573c-2.271-12.429-2.918-26.099-0.973-38.527
			c1.296-8.079,5.511-15.225,12.969-18.642c20.104-9.321,45.719-9.944,67.442-12.429c32.1-3.417,65.821-2.797,98.245-1.553
			c23.994,0.932,47.341,3.728,70.362,9.941c5.187,1.553,17.509,2.176,20.102,7.769c1.298,2.173-0.647,7.457-0.973,9.63
			c-0.972,9.321-1.62,18.644-2.27,27.965c-1.297,12.426-3.891,25.476-8.105,37.284c-5.513-4.973-19.778,1.553-25.291,3.729
			c-20.428,8.389-38.262,20.505-54.148,35.108c-22.373,20.816-53.177,14.292-79.115,1.552"/>
		<g>
			<path fill="#4B4B4B" d="M273.581,647.524c-4.744-5.462-7.878-11.578-13.55-16.233c-6.122-5.023-13.481-8.5-20.833-11.309
				c-15.693-5.996-31.815-5.645-48.195-3.292c0.422,0.118,0.845,0.236,1.267,0.354c1.743-3.275-0.07-7.664-1.14-10.874
				c-1.828-5.482-3.398-10.282-4.171-16.074c-1.81-13.576-3.37-32.13,5.382-43.703c4.615-6.104,13.22-8.322,20.24-10.292
				c7.939-2.229,16.166-3.426,24.338-4.413c14.457-1.747,29.05-3.178,43.573-4.206c32.381-2.295,65.396-1.731,97.763,0.623
				c16.074,1.17,32.046,3.514,47.737,7.199c5.142,1.208,10.205,2.501,15.383,3.547c4.422,0.894,11.511,2.254,12.152,7.705
				c0.255,2.159-0.731,4.717-1.23,6.803c-0.509,2.126-0.523,4.41-0.727,6.579c-0.64,6.826-1.114,13.668-1.593,20.508
				c-0.925,13.214-3.86,26.498-8.217,38.993c1.006-0.27,2.013-0.539,3.02-0.81c-7.149-5.486-19.547,0.726-26.582,3.584
				c-14.781,6.005-28.532,14.063-41.235,23.695c-5.913,4.483-11.3,9.532-16.946,14.325c-7.431,6.309-16.774,9.583-26.393,10.387
				c-16.353,1.367-32.925-4.579-47.398-11.603c-0.846-0.41-3.375,0.88-2.944,1.09c23.575,11.438,52.137,18.285,75.608,2.916
				c6.042-3.956,11.107-9.438,16.7-13.99c6.957-5.661,14.379-10.737,22.079-15.327c7.459-4.446,15.31-8.126,23.344-11.396
				c5.784-2.354,15.126-6.963,20.822-2.591c0.596,0.456,2.764-0.076,3.02-0.81c4.849-13.903,7.48-28.369,8.517-43.032
				c0.535-7.58,0.566-15.579,2.021-23.048c0.802-4.121,2.513-7.882-0.922-11.188c-2.887-2.78-7.967-3.528-11.695-4.281
				c-6.004-1.213-11.896-2.797-17.87-4.155c-14.673-3.336-29.645-5.272-44.635-6.438c-31.32-2.434-63.25-2.69-94.608-0.865
				c-14.684,0.854-29.367,2.504-43.992,4.066c-12.784,1.365-25.534,3.392-37.685,7.713c-5.871,2.088-11.858,4.793-15.436,10.16
				c-4.85,7.277-5.412,16.027-5.696,24.537c-0.293,8.763-0.058,18.839,2.514,27.281c1.477,4.848,6.483,12.889,3.808,17.914
				c-0.285,0.535,1.119,0.376,1.267,0.354c17.163-2.465,33.165-1.979,49.384,4.562c6.659,2.686,12.939,6.344,18.488,10.897
				c5.129,4.209,8.023,10.275,12.322,15.226C271.173,649.231,274.115,648.14,273.581,647.524L273.581,647.524z"/>
		</g>
	</g>
	<g>
		<path fill="#5B616C" d="M195.262,455.745c-7.783,13.048-4.54,31.69-1.945,45.36c4.539,22.682,12.645,44.432,17.509,67.113
			c3.566,16.467,8.105,33.555,7.458,50.643c0,2.796-1.945,8.7-0.325,10.875c0.649-0.932,1.298-1.863,2.271-3.107
			c3.242-4.972,4.215-12.738,5.512-18.33c3.566-15.846,7.134-32.003,9.403-48.16c3.891-27.962,8.43-62.761-7.458-88.237
			c-3.243-5.283-16.537-21.75-24.966-16.156"/>
		<g>
			<path fill="#4B4B4B" d="M193.455,455.584c-6.199,11.033-5.511,24.012-3.767,36.133c2.258,15.692,6.751,30.96,11.134,46.158
				c4.705,16.315,8.701,32.747,12.147,49.375c1.784,8.606,3.118,17.299,3.423,26.092c0.119,3.431-0.056,6.729-0.613,10.104
				c-0.368,2.227-0.787,4.713,0.273,6.801c0.738,1.454,2.965,0.719,3.714-0.35c4.785-6.826,6.11-13.728,7.898-21.774
				c2.556-11.503,5.113-22.999,7.22-34.595c3.399-18.707,6.044-37.979,5.9-57.023c-0.123-16.289-3.074-33.524-12.51-47.167
				c-5.346-7.728-16.352-20.349-26.793-14.365c-2.236,1.282,1.007,2.387,2.477,1.545c5.524-3.166,13.255,5.475,16.445,8.979
				c4.09,4.492,7.182,9.569,9.675,15.104c6.632,14.726,7.384,31.538,6.624,47.419c-0.797,16.646-3.329,33.366-6.376,49.729
				c-1.797,9.653-3.932,19.242-6.081,28.822c-1.868,8.329-3.105,15.887-8.095,23.004c1.238-0.116,2.476-0.233,3.714-0.35
				c-1.155-2.275-0.432-4.963-0.034-7.369c0.486-2.944,0.454-5.887,0.409-8.866c-0.117-7.732-1.304-15.427-2.716-23.013
				c-2.988-16.06-6.872-32.01-11.335-47.717c-4.308-15.159-8.898-30.239-11.725-45.765c-2.423-13.308-4.31-28.279,2.607-40.59
				C198.075,454.116,194.206,454.248,193.455,455.584L193.455,455.584z"/>
		</g>
	</g>
	<g>
		<path fill="#5B616C" d="M461.466,454.812c-1.297,9.32-4.863,18.642-6.485,27.963c-3.567,21.127-5.514,42.256-9.078,63.382
			c-2.595,15.537-4.217,31.071-6.485,46.296c-0.973,6.524-2.594,18.019-7.458,22.991c-3.241,3.729-11.023,4.971-15.887,5.28
			c-18.159,1.865-22.372-30.136-24.968-42.254c-7.781-38.838-5.188-78.297,7.458-115.891c3.567-10.563,8.105-20.817,11.349-31.382
			c0.974-3.107,2.27-5.592,1.621-8.7"/>
		<g>
			<path fill="#4B4B4B" d="M459.569,455.09c-1.175,7.597-3.476,14.921-5.312,22.37c-1.999,8.108-2.924,16.536-4.059,24.8
				c-2.204,16.038-4.27,32.07-6.821,48.059c-2.432,15.232-4.001,30.588-6.375,45.829c-0.837,5.366-1.958,10.732-4.273,15.674
				c-3.146,6.712-12.289,8.769-19.144,7.87c-8.772-1.148-13.004-12.271-15.375-19.426c-2.598-7.838-3.977-16.069-5.562-24.155
				c-6.089-31.056-5.114-63.194,2.107-93.958c2.57-10.95,6.17-21.57,10.172-32.069c1.98-5.196,3.967-10.385,5.754-15.651
				c1.361-4.014,3.25-8.143,2.757-12.444c-0.122-1.068-3.959-0.253-3.812,1.021c0.75,6.553-3.604,14.66-5.849,20.688
				c-2.819,7.567-5.803,15.059-8.285,22.747c-4.78,14.804-7.871,30.122-9.521,45.581c-2.801,26.246-0.067,52.242,5.45,77.938
				c1.771,8.247,4.062,16.646,8.721,23.771c4.38,6.697,10.463,8.455,18.057,7.692c4.555-0.458,9.176-1.621,13.118-3.991
				c3.925-2.359,5.806-7.025,7.15-11.16c4.214-12.953,4.696-27.579,6.477-40.998c2.477-18.658,5.574-37.223,8.02-55.89
				c1.177-8.982,2.424-17.953,3.913-26.89c1.574-9.454,5.018-18.478,6.485-27.963C463.562,453.247,459.746,453.952,459.569,455.09
				L459.569,455.09z"/>
		</g>
	</g>
	<g>
		<path fill="#222226" d="M197.855,455.434c1.459,20.04,2.918,40.079,5.836,60.12c2.918,19.574,10.213,38.216,11.673,57.79
			c1.945,27.498-4.864,57.79-7.782,85.289c-1.945,16.312-7.295,33.089,6.809,44.74c21.887,17.709,48.637,17.244,75.874,15.846
			c50.095-2.797,90.95-19.574,122.564-56.859c10.7-12.584,18.967-23.301,24.318-38.683c6.321-17.709,0.485-35.42,0-53.594
			c-1.461-35.422,7.294-68.511,13.617-102.998c2.918-15.846,1.459-30.759-6.323-45.207c-10.213-17.71-32.585-21.438-52.039-20.042"
			/>
		<g>
			<path fill="#4B4B4B" d="M195.949,455.944c1.179,16.185,2.389,32.366,4.295,48.483c1.85,15.642,5.581,30.622,9.23,45.907
				c3.688,15.443,4.835,30.655,3.83,46.488c-0.978,15.382-3.505,30.634-5.639,45.883c-1.807,12.917-4.558,26.425-4.641,39.482
				c-0.08,12.536,6.579,20.677,16.749,27.169c21.949,14.01,50.196,12.749,75.098,10.969c24.062-1.72,47.908-7.25,69.624-17.901
				c21.981-10.782,39.872-27.031,55.251-45.862c8.097-9.913,14.897-20.56,19.229-32.655c5.008-13.984,2.511-28.763,0.914-43.11
				c-3.562-31.986,2.976-63.929,9.196-95.156c4.604-23.117,9.816-48.862-6.053-69.195c-11.574-14.83-33.054-17.166-50.466-16.027
				c-2.168,0.142-2.925,3.006-0.326,2.836c12.308-0.804,25.12,0.188,36.249,5.931c12.533,6.467,18.396,19.475,20.847,32.785
				c2.816,15.295-1.514,30.876-4.488,45.809c-3.068,15.404-6.1,30.816-8.011,46.415c-1.856,15.164-2.41,30.541-0.956,45.762
				c1.598,16.736,4.127,32.023-2.312,48.123c-5.067,12.668-13.599,23.393-22.338,33.702c-8.29,9.777-17.658,18.52-28.024,26.059
				c-20.456,14.878-44.669,23.524-69.502,27.528c-13.158,2.121-26.539,2.834-39.853,3.026c-14.1,0.203-28.272-1.089-41.473-6.328
				c-6.71-2.663-13.416-6.646-18.598-11.712c-4.993-4.88-6.729-11.682-6.89-18.442c-0.139-5.845,0.946-11.719,1.809-17.476
				c1.096-7.313,1.821-14.681,2.833-22.007c4.141-29.983,9.142-59.514,2.581-89.526c-3.478-15.909-7.776-31.354-9.818-47.557
				c-2.11-16.745-3.307-33.595-4.533-50.423C199.632,453.153,195.812,454.076,195.949,455.944L195.949,455.944z"/>
		</g>
	</g>
	<g>
		<path fill="#5B616C" d="M237.737,474.075c-4.377,9.788-4.377,21.905-5.836,32.158c-2.917,18.642-4.863,37.749-7.295,56.393
			c-3.404,28.895-7.782,60.587-3.404,89.946c0.972,5.593,1.945,16.312,9.727,17.245c11.672,1.399,12.645-20.507,13.618-26.566
			c4.863-37.283,3.404-75.032,5.35-112.318c0.973-28.896,5.35-58.255,5.836-87.15"/>
		<g>
			<path fill="#4B4B4B" d="M235.902,473.812c-5.261,12.512-5.178,26.996-7.095,40.281c-2.335,16.18-4.041,32.443-6.139,48.654
				c-3.863,29.842-8.246,61.252-3.227,91.211c1.156,6.902,3.006,17.723,12.24,17.401c7.229-0.252,10.646-6.881,12.283-13.115
				c2.422-9.226,3.119-19.186,4.021-28.634c1.538-16.104,2.035-32.296,2.408-48.462c0.521-22.584,0.823-45.18,2.375-67.725
				c1.601-23.263,4.44-46.431,4.902-69.765c0.042-2.09-3.839-1.593-3.875,0.244c-0.64,32.331-4.992,64.486-6.27,96.803
				c-1.277,32.308-0.646,64.692-4.211,96.877c-0.92,8.31-1.437,17.382-4.741,25.142c-2.07,4.862-6.987,8.008-11.254,3.149
				c-3.114-3.546-3.465-9.365-4.211-13.813c-5.238-31.267,0.255-64.247,4.176-95.357c1.8-14.285,3.384-28.597,5.399-42.854
				c1.833-12.971,1.762-27.32,6.889-39.512C240.447,472.255,236.604,472.144,235.902,473.812L235.902,473.812z"/>
		</g>
	</g>
	<g>
		<path fill="#5B616C" d="M278.592,449.84c-8.269,33.556-11.673,65.247-10.701,100.201c0.973,31.228-3.404,69.443,10.214,99.27
			c13.131,29.827,16.536-20.506,17.509-29.361c7.782-63.383,8.268-127.232,14.104-190.614"/>
		<g>
			<path fill="#4B4B4B" d="M276.658,449.976c-7.404,30.348-11.062,61.245-10.845,92.484c0.19,27.298-1.582,55.421,2.963,82.438
				c0.781,4.645,9.355,45.015,20.708,33.091c3.651-3.834,4.466-11.006,5.355-15.939c1.165-6.465,1.816-13.018,2.442-19.553
				c2.909-30.374,5.854-60.629,7.649-91.104c2.009-34.08,3.62-68.188,6.723-102.193c0.184-2.012-3.707-1.503-3.869,0.271
				c-2.982,32.694-4.603,65.487-6.492,98.258c-1.805,31.286-4.62,62.365-7.733,93.537c-0.616,6.165-1.208,12.325-2.154,18.45
				c-0.766,4.961-1.341,13.759-5.396,17.361c-2.487,2.21-10.791-21.48-11.346-23.555c-3.716-13.889-4.488-28.452-4.729-42.76
				c-0.177-10.483,0.079-20.97,0.047-31.454c-0.037-12.021-0.465-23.998-0.02-36.021c0.92-24.835,4.68-49.456,10.566-73.584
				C280.988,447.811,277.079,448.251,276.658,449.976L276.658,449.976z"/>
		</g>
	</g>
	<g>
		<path fill="#5B616C" d="M384.133,463.822c-9.242,7.924-13.618,38.683-16.537,51.731c-4.863,23.769-8.269,48.004-11.673,72.239
			c-2.431,16.777-7.295,39.147,0.486,55.458c3.892,7.457,11.673,14.449,20.915,13.05c14.105-1.397,12.646-18.642,13.131-28.896
			c1.947-38.681-2.432-76.896,1.947-115.579c4.376-34.487,14.59-67.578,30.64-98.337"/>
		<g>
			<path fill="#4B4B4B" d="M382.867,462.946c-6.015,5.515-8.359,14.235-10.48,21.832c-2.685,9.613-4.322,19.476-6.358,29.235
				c-6.129,29.385-10.119,59.237-14.303,88.949c-1.771,12.578-2.748,25.853,1.595,38.026c3.549,9.947,12.984,17.829,23.836,16.714
				c8.389-0.862,12.678-6.957,14.221-14.749c0.832-4.201,0.813-8.566,0.915-12.83c0.178-7.502,0.555-14.988,0.613-22.495
				c0.269-34.354-2.638-68.914,2.418-103.062c4.691-31.692,14.819-62.425,29.543-90.856c0.997-1.927-2.87-1.945-3.648-0.443
				c-13.492,26.056-22.954,53.904-28.288,82.752c-5.877,31.776-4.41,64.093-3.963,96.229c0.197,14.126-0.202,28.208-0.648,42.322
				c-0.143,4.5-0.503,9.067-2.088,13.315c-2.604,6.976-9.956,8.416-16.473,6.02c-14.144-5.2-15.986-24.088-15.568-36.732
				c0.453-13.712,3.361-27.443,5.283-41.002c3.201-22.568,6.987-44.962,11.405-67.32c1.529-7.739,3.04-15.479,5.036-23.114
				c1.8-6.887,4.007-16.016,9.484-21.039C387.303,462.953,384.287,461.644,382.867,462.946L382.867,462.946z"/>
		</g>
	</g>
	<g>
		<path fill="#5B616C" d="M419.8,461.803c-15.077,26.564-15.077,64.314-16.535,94.143c-0.973,17.243-1.461,34.953,0,52.197
			c0.972,6.99,1.458,24.699,7.781,30.293c14.104,13.517,17.022-47.07,17.509-53.596c1.946-34.021-0.973-68.977,3.404-102.997
			c2.918-24.234,10.699-47.071,16.536-70.374"/>
		<g>
			<path fill="#4B4B4B" d="M417.922,462.146c-12.722,22.941-14.51,50.269-15.747,75.932c-1.317,27.355-2.938,54.637,0.425,81.91
				c0.814,6.61,1.964,17.816,9.214,20.805c3.267,1.346,7.041-0.744,8.986-3.309c3.659-4.824,4.729-11.993,5.82-17.768
				c1.37-7.25,2.184-14.606,2.848-21.95c2.332-25.818,1.491-51.735,1.906-77.622c0.307-19.154,1.675-38.255,5.552-57.043
				c3.618-17.533,9.064-34.633,13.447-51.977c0.193-0.766-3.522-0.238-3.756,0.688c-3.779,14.954-8.25,29.725-11.829,44.729
				c-3.543,14.858-5.56,29.919-6.516,45.155c-1.796,28.621,0.071,57.338-1.777,85.958c-0.89,13.779-1.908,27.881-5.553,41.246
				c-0.74,2.714-1.674,5.395-3.013,7.872c-0.531,0.982-1.186,1.877-1.999,2.642c-0.77,0.724,0.562,0.321-0.346,0.137
				c-0.683-0.138-1.303-0.599-1.855-0.994c-7.231-5.172-7.282-18.568-8.066-26.472c-2.584-26.028-0.824-52.15,0.481-78.21
				c1.229-24.553,3.386-50.511,15.533-72.417C421.935,460.997,418.445,461.203,417.922,462.146L417.922,462.146z"/>
		</g>
	</g>
	<g>
		<path fill="#5B616C" d="M324.796,474.542c0.487,46.604-12.646,96.473,4.864,141.679c4.864,13.05,11.673,27.03,22.372,37.283
			c3.891,3.264,16.536,13.984,22.858,12.117c18.484-4.66-10.699-50.333-14.59-57.79c-16.049-30.759-23.832-64.314-22.859-98.336
			c0.486-37.285,14.591-70.84,26.264-105.794"/>
		<g>
			<path fill="#4B4B4B" d="M322.89,475.053c0.204,29.829-4.604,59.438-4.241,89.273c0.345,28.32,7.023,57.795,23.906,81.044
				c5.867,8.078,14.045,15.049,23.019,19.469c4.842,2.386,11.288,2.435,15.153-1.849c3.846-4.262,1.909-11.646,0.538-16.469
				c-2.293-8.067-6.151-15.721-10.054-23.107c-5.448-10.312-11.356-20.106-15.985-30.864c-8.481-19.709-13.53-40.803-15.332-62.162
				c-1.835-21.743,0.289-43.378,5.518-64.522c5.259-21.269,13.216-41.771,20.171-62.514c0.215-0.641-3.441-0.232-3.754,0.699
				c-9.468,28.237-20.542,56.139-24.752,85.793c-4.198,29.577-0.7,60.308,8.603,88.595c6.058,18.422,15.918,34.231,24.49,51.385
				c3.614,7.233,7.037,14.854,8.497,22.855c0.533,2.923,0.67,6.036-0.371,8.859c-2.145,5.818-8.538,2.497-12.338,0.309
				c-27.402-15.785-39.184-51.103-42.469-80.792c-3.943-35.638,3.458-71.362,3.214-107.023
				C326.698,473.484,322.883,474.021,322.89,475.053L322.89,475.053z"/>
		</g>
	</g>
	<g>
		<path fill="#D9E4F4" d="M153.957,335.983c-46.565,25.308-79.639,68.185-94.976,116.264c-2.124,5.908-4.075,11.854-5.779,17.843
			c-1.715,5.992-3.172,12.035-4.357,18.107c-1.302,5.777-2.438,11.602-3.42,17.459c-6.875,41.009-6.223,83.695-2.274,123.721
			c1.755,5.99,4.143,11.678,7.314,16.934c3.171,5.258,7.128,10.084,12.025,14.355c4.897,4.271,10.734,7.985,17.693,11.032
			c23.316-2.813,32.071-32.64,35.961-52.214c4.864-32.624,4.864-64.314,12.794-94.87c1.502-5.855,3.133-11.698,4.928-17.524
			c1.794-5.827,3.752-11.636,5.908-17.426c1.777-4.572,3.706-9.088,5.812-13.55c2.105-4.463,4.389-8.873,6.875-13.225
			c2.756-4.66,5.593-9.321,8.571-13.981c8.613-13.981,19.313-27.03,30.339-40.08c2.431-3.107,5.309-6.409,8.328-9.845
			c9.059-10.312,19.394-21.847,22.798-33.032c4.54-14.292-1.296-32.935-14.915-41.013c-5.836-3.262-12.402-4.156-19.221-3.457
			c-6.819,0.699-13.896,2.991-20.812,6.085c-12.495,5.763-25.141,13.219-36.18,21.471"/>
		<g>
			<path fill="#4B4B4B" d="M152.744,335.306c-43.962,24.126-77.03,64.337-93.773,111.459C38.011,505.758,35.224,568,41.245,629.888
				c0.56,5.752,4.583,12.291,7.459,17.203c3.689,6.299,8.701,11.713,14.353,16.287c4.741,3.837,10.083,6.81,15.627,9.309
				c2.905,1.309,8.649-1.521,11.27-2.758c17.264-8.148,23.717-30.406,27.45-47.479c3.196-14.616,3.842-29.984,5.262-44.853
				c1.473-15.42,3.194-30.82,6.462-45.978c3.306-15.333,7.935-30.721,13.8-45.269c5.771-14.315,13.575-27.446,21.843-40.43
				c12.478-19.595,28.349-36.86,43.385-54.472c11.637-13.63,21.244-28.433,16.215-46.913c-1.902-6.989-6.173-13.88-11.961-18.286
				c-7.45-5.67-16.434-6.847-25.533-5.742c-9.995,1.213-19.41,5.604-28.268,10.138c-9.957,5.097-19.464,11.063-28.454,17.713
				c-2.083,1.541,1.119,2.322,2.426,1.355c12.597-9.317,26.341-17.676,40.965-23.397c15.198-5.946,31.791-5.513,41.981,8.565
				c7.298,10.081,8.375,23.869,3.592,35.171c-5.795,13.69-17.731,24.449-27.116,35.66c-19.505,23.301-38.087,47.387-50.506,75.337
				c-12.286,27.652-18.566,57.69-21.735,87.639c-2.764,26.124-2.878,53.648-13.636,78.086c-4.276,9.713-11.013,19.443-21.537,22.861
				c-5.831,1.894-12.517-3.77-17.057-7.092c-6.215-4.548-11.261-10.506-15.307-17.015c-3.778-6.078-6.85-13.229-7.524-20.366
				c-0.767-8.113-1.35-16.243-1.8-24.38c-0.911-16.463-1.024-32.967-0.312-49.439c1.346-31.108,6.107-62.563,15.845-92.194
				c8.366-25.456,19.373-49.157,35.767-70.494c16.414-21.361,37.376-39.049,60.967-51.995
				C157.427,335.422,154.111,334.556,152.744,335.306L152.744,335.306z"/>
		</g>
	</g>
	<g>
		<path fill="#D9E4F4" d="M448.3,371.649c2.778-4.305,6.328-8.082,10.402-11.267c4.045-3.182,8.709-5.789,13.752-7.756
			c20.176-7.871,46.403-5.522,61.968,11.461c20.104,22.37,25.94,54.684,26.587,82.646c0.648,34.8,0,69.597,0,105.016
			c0,3.445,0.026,8.315-0.054,14.125c-5.136,39.627,7.51,92.758-27.509,121.652c-3.891,3.728-10.699,0-16.535-2.797
			c-17.509-11.65-26.993-27.729-31.92-45.336c-1.638-5.877-2.769-11.924-3.501-17.996c-0.57-7.508-1.544-14.964-0.57-22.421
			c3.891-53.129,6.809-106.261-3.109-158.812c-1.085-4.326-2.437-8.574-4.142-12.708c-3.41-8.273-8.232-16.104-15.122-23.29
			c-5.836-4.661-13.618,0-19.557,1.98"/>
		<g>
			<path fill="#4B4B4B" d="M450.174,371.289c16.665-24.715,53.821-29.312,77.136-11.506c10.281,7.854,17.109,20.579,21.862,32.346
				c4.802,11.89,7.344,24.629,8.782,37.328c1.611,14.224,1.355,28.639,1.418,42.93c0.071,16.18-0.051,32.359-0.149,48.538
				c-0.093,15.152,0.009,30.31-0.174,45.461c-0.062,5.099-1.001,10.3-1.221,15.42c-0.252,5.868-0.287,11.746-0.33,17.619
				c-0.166,22.682,0.213,46.609-9.653,67.59c-2.231,4.744-5.146,9.127-8.473,13.167c-1.98,2.404-4.229,4.566-6.561,6.626
				c-3.64,3.216-8.971-0.232-12.62-1.988c-11.504-5.532-20.64-17.516-26.498-28.518c-6.394-12.006-9.468-25.704-10.604-39.164
				c-1.347-15.947,0.749-31.886,1.702-47.824c1.93-32.272,2.586-64.679-0.455-96.904c-1.801-19.084-3.958-38.585-13.737-55.443
				c-3.221-5.552-7.896-13.56-14.455-15.319c-5.749-1.543-12.614,2.323-17.788,4.159c-2.576,0.914-0.112,1.176,1.27,0.686
				c4.253-1.509,8.674-4.001,13.36-3.462c4.148,0.477,6.883,5.153,9.214,8.152c4.368,5.617,7.646,11.979,10.272,18.565
				c5.896,14.784,6.998,31.825,8.407,47.545c2.888,32.227,1.837,64.685-0.136,96.93c-0.476,7.778-1.024,15.551-1.588,23.323
				c-0.598,8.251-0.229,16.123,0.429,24.364c1.045,13.104,5.303,26.492,11.679,37.954c5.596,10.06,14.791,21.116,25.322,26.205
				c3.841,1.856,8.613,4.498,13.078,3.602c4.535-0.909,7.391-3.801,10.59-7.04c15.448-15.644,19.354-38.205,20.528-59.28
				c0.641-11.492,0.446-23.016,0.636-34.52c0.192-11.738,1.513-23.354,1.501-35.088c-0.033-31.974,0.503-63.945,0.168-95.918
				c-0.275-26.29-2.38-52.703-14.566-76.511c-4.794-9.367-11.286-18.312-19.903-24.479c-8.294-5.936-18.53-8.546-28.577-9.163
				c-20.193-1.238-42.111,7.282-53.613,24.339C446.254,372.266,449.571,372.182,450.174,371.289L450.174,371.289z"/>
		</g>
	</g>
	<g>
		<g>
			<path fill="#4B4B4B" d="M482.078,514.475c6.964,5.722,17.38,6.45,26.036,6.535c9.113,0.089,19.881-2.53,26.402-9.237
				c1.614-1.66-2.11-1.858-3.111-0.828c-5.715,5.877-15.044,7.723-22.969,7.646c-7.444-0.073-16.853-0.766-22.839-5.684
				C484.446,511.96,480.878,513.489,482.078,514.475L482.078,514.475z"/>
		</g>
	</g>
	<g>
		<path fill="#B01E34" d="M219.742,310.022c-21.887-0.466-41.828-8.855-64.687-6.99c-6.323,0.466-24.805,0-29.183,6.058
			c-1.458,2.33,0.487,12.583,0.487,14.448c1.945,16.311,4.864,33.088,12.159,48.003c18.969,40.081,62.741,57.792,106.515,48.471"/>
		<g>
			<path fill="#4B4B4B" d="M220.311,308.986c-14.614-0.452-28.777-4.18-43.2-6.189c-11.157-1.554-22.431-1.014-33.629-0.208
				c-4.66,0.335-17.948,0.961-19.421,7.178c-0.867,3.656-0.011,7.812,0.453,11.475c0.783,6.187,1.501,12.361,2.572,18.512
				c4.369,25.106,15.173,48.229,35.443,64.254c17.493,13.827,39.957,19.816,62.001,19.442c6.984-0.118,13.927-1.074,20.759-2.482
				c1.954-0.402,1.404-2.305-0.512-1.91c-22.751,4.688-46.534,2.256-67.224-8.584c-21.548-11.291-36.089-31.307-43.26-54.233
				c-3.647-11.658-5.141-23.769-6.649-35.838c-0.54-4.316-2.497-10.556,2.134-13.022c4.276-2.277,9.812-2.47,14.543-2.81
				c11.17-0.804,22.271-1.006,33.39,0.543c13.865,1.932,27.405,5.512,41.461,5.946C220.551,311.102,222.434,309.052,220.311,308.986
				L220.311,308.986z"/>
		</g>
	</g>
	<g>
		<path fill="#B01E34" d="M445.227,319.339c13.32-4.653,27.91-8.382,42.254-7.331c4.132-0.059,8.246-0.023,12.331,0.169
			c12.257,0.576,24.234,2.562,35.517,7.628c1.467,2.334-0.479,12.589-0.479,14.452c-1.944,16.312-4.863,33.09-12.158,48.003
			c-18.968,40.081-62.741,57.79-106.515,48.47"/>
		<g>
			<path fill="#4B4B4B" d="M445.803,319.825c6.835-2.355,13.738-4.376,20.839-5.757c7.382-1.437,14.513-1.252,21.962-1.332
				c13.685-0.148,27.356,1.112,40.334,5.666c2.23,0.783,5.01,1.254,5.325,3.862c0.252,2.083-0.081,4.261-0.299,6.334
				c-0.453,4.308-0.985,8.619-1.572,12.91c-1.688,12.349-4.341,24.568-9.057,36.136c-8.042,19.727-22.827,35.729-41.818,45.314
				c-19.79,9.989-42.884,11.459-64.352,7.035c-0.811-0.167-3.655,1.125-1.979,1.471c21.949,4.523,44.848,2.703,65.373-6.519
				c20.53-9.225,35.969-25.79,45.183-46.149c6.11-13.504,8.61-28.432,10.448-43.03c0.469-3.727,1.039-7.521,1.196-11.274
				c0.071-1.704,0.222-3.515-0.493-5.107c-0.733-1.633-7.216-2.961-8.883-3.504c-13.586-4.419-27.663-4.295-41.756-4.73
				c-14.322-0.443-28.158,3.066-41.604,7.702C442.554,319.574,444.512,320.271,445.803,319.825L445.803,319.825z"/>
		</g>
	</g>
	<g>
		<path fill="#222226" d="M387.537,337.057c0-13.982,4.865-27.964,4.865-41.945c-24.32-10.253-51.556-13.981-77.333-13.05
			c-15.563,0.466-36.477,0-50.582,7.457l0,0c-3.892,18.177-6.323,45.675,3.404,62.917"/>
		<g>
			<path fill="#4B4B4B" d="M389.443,336.546c0.208-14.144,4.657-27.796,4.865-41.945c-0.067-0.179-0.192-0.3-0.376-0.364
				c-33.597-13.922-71.721-15.865-107.561-11.686c-7.334,0.855-14.63,2.535-21.352,5.637c-2.834,1.309-2.618,2.385-3.205,5.436
				c-0.81,4.208-1.399,8.455-1.869,12.713c-1.705,15.441-1.524,32.629,6.039,46.608c0.654,1.21,4.322-0.081,3.812-1.021
				c-8.224-15.2-7.684-33.87-5.524-50.515c0.475-3.656,1.124-7.289,1.851-10.902c0.692-3.439,12.35-4.869,15.023-5.349
				c9.038-1.624,18.309-1.752,27.463-1.957c20.475-0.458,40.438,0.46,60.399,5.451c5.136,1.284,10.181,2.908,15.161,4.697
				c3.038,1.092,6.41,1.359,6.228,5.673c-0.129,3.053-0.547,6.096-0.974,9.118c-1.386,9.828-3.647,19.455-3.794,29.426
				C385.615,338.597,389.423,337.936,389.443,336.546L389.443,336.546z"/>
		</g>
	</g>
	<g>
		<path fill="#B01E34" d="M310.53,91.136c-5.998-0.932-3.405-14.603,3.567-14.137c7.619,0.466,2.432,11.497,1.134,14.137"/>
		<g>
			<path fill="#4B4B4B" d="M311.458,90.169c-5.042-1.078-2.625-12.227,2.068-12.141c6.114,0.113,1.544,10.291,0.226,12.991
				c-0.737,1.509,2.422,1.332,2.959,0.232c1.535-3.142,3.032-6.633,3.024-10.184c-0.008-3.913-3.747-5.921-7.351-4.902
				c-3.675,1.039-5.77,4.191-6.565,7.785c-0.713,3.22,0.106,7.366,3.783,8.152C310.794,92.357,313.316,90.567,311.458,90.169
				L311.458,90.169z"/>
		</g>
	</g>
	<g>
		<path fill="#D9E4F4" d="M300.966,109.468c-4.054-6.681-3.243-14.603-5.513-21.75c1.783-0.621,3.891-0.777,5.836-0.933
			c6.647-0.621,14.268-0.776,20.914,1.088c2.756,0.777,5.188,2.02,7.458,3.728c-0.325,2.642-1.784,5.438-2.433,8.079
			c-0.649,2.797-1.135,5.437-1.135,8.233c0,0.776-0.162,1.554,0.162,0.932"/>
		<g>
			<path fill="#4B4B4B" d="M302.872,108.958c-3.718-6.763-3.43-14.481-5.513-21.75c-0.546,0.504-1.092,1.009-1.638,1.513
				c8.521-2.364,19.961-2.095,28.133,1.256c5.312,2.178,2.715,5.678,1.464,9.93c-0.907,3.087-1.201,6.452-1.155,9.657
				c0.019,1.3,3.02,0.31,3.444-0.163c0.062-0.069,0.124-0.138,0.187-0.207c1.521-1.693-2.189-1.682-3.076-0.695
				c-0.062,0.069-0.124,0.138-0.187,0.207c1.148-0.054,2.297-0.109,3.445-0.163c-0.09-6.146,2.438-11.302,3.595-17.167
				c0.07-0.359-0.135-0.536-0.399-0.721c-9.597-6.726-24.96-6.999-35.987-3.938c-0.557,0.154-1.872,0.698-1.638,1.513
				c2.083,7.268,1.794,14.987,5.513,21.75C299.796,111.32,303.487,110.077,302.872,108.958L302.872,108.958z"/>
		</g>
	</g>
	<g>
		<path fill="#FEC40D" d="M187.939,182.521c22.389-72.085,14.328-85.387,9.457-113.074c-35.532-4.1-86.114,12.678-108.297,33.556
			c15.85-2.15,58.174-10.158,79.114-2.796c-20.454,1.493-55.958,5.221-83.331,29.827c29.321-5.725,68.279-12.588,93.055-3.006
			c3.135,21.597,3.246,49.302-1.293,69.186"/>
		<g>
			<path fill="#4B4B4B" d="M189.766,182.756c7.336-23.734,14.688-48.512,15.058-73.557c0.203-13.731-3.138-26.848-5.521-40.262
				c-0.097-0.548-0.769-0.851-1.254-0.903c-19.99-2.154-40.358,1.382-59.447,7.26c-18.101,5.575-36.726,13.82-50.775,26.811
				c-1.121,1.036-0.505,2.547,1.111,2.325c11.852-1.632,23.639-3.596,35.551-4.771c13.851-1.366,29.207-2.643,42.63,1.855
				c0.418-0.911,0.837-1.823,1.255-2.734c-30.651,2.265-61.156,9.504-84.764,30.355c-1.562,1.38,0.078,2.539,1.631,2.236
				c25.619-4.99,52.694-10.403,78.82-6.395c3.056,0.469,6.062,1.188,9.026,2.062c3.685,1.085,3.328,3.159,3.739,6.674
				c0.884,7.555,1.279,15.161,1.406,22.763c0.222,13.333-0.641,26.832-3.521,39.875c-0.422,1.911,3.485,1.457,3.867-0.273
				c4.992-22.6,4.484-46.739,1.266-69.56c-0.055-0.389-0.483-0.674-0.812-0.797c-14.278-5.318-29.93-5.423-44.946-4.415
				c-16.672,1.12-33.184,4.2-49.562,7.391c0.544,0.745,1.087,1.491,1.631,2.236c22.875-20.205,52.213-27.104,81.897-29.298
				c1.26-0.093,3.291-2.052,1.255-2.734c-12.779-4.283-27.06-3.504-40.294-2.467c-13.34,1.045-26.511,3.32-39.753,5.144
				c0.37,0.775,0.74,1.55,1.111,2.325c16.145-14.929,38.129-23.431,59.128-28.797c11.662-2.979,23.662-4.705,35.702-4.849
				c2.988-0.036,5.971,0.111,8.949,0.345c2.097,0.165,1.628,0.986,1.997,2.924c0.515,2.706,1.076,5.403,1.624,8.103
				c2.353,11.586,3.678,23.008,2.9,34.849c-1.471,22.393-7.969,44.494-14.558,65.811
				C185.451,184.423,189.253,184.415,189.766,182.756L189.766,182.756z"/>
		</g>
	</g>
	<g>
		<path fill="#FEC40D" d="M430.08,182.521c-22.389-72.085-14.327-85.387-9.456-113.074c35.532-4.1,86.114,12.678,108.298,33.556
			c-15.851-2.15-58.176-10.158-79.115-2.796c20.453,1.493,55.958,5.221,83.33,29.827c-29.319-5.725-68.277-12.588-93.054-3.006
			c-3.136,21.597-3.246,49.302,1.293,69.186"/>
		<g>
			<path fill="#4B4B4B" d="M431.986,182.011c-7.221-23.361-14.392-47.713-14.938-72.35c-0.307-13.825,3.069-27.001,5.469-40.5
				c-0.733,0.39-1.467,0.779-2.2,1.169c19.709-2.125,39.885,1.649,58.637,7.589c17.226,5.457,34.793,13.399,48.185,25.782
				c0.995-0.536,1.99-1.071,2.984-1.607c-13.248-1.824-26.416-4.026-39.754-5.144c-13.602-1.139-28.152-1.75-41.27,2.646
				c-0.667,0.224-1.965,1.411-0.494,1.52c29.979,2.215,59.648,9.213,82.748,29.616c0.995-0.536,1.99-1.071,2.984-1.607
				c-16.762-3.265-33.601-6.265-50.66-7.411c-14.822-0.996-30.241-0.534-44.302,4.703c-0.331,0.124-1.125,0.463-1.187,0.897
				c-3.211,22.768-3.699,46.863,1.28,69.41c0.239,1.084,4.066,0.126,3.812-1.021c-2.767-12.526-3.567-25.38-3.537-38.181
				c0.017-7.153,0.428-14.301,1.1-21.421c0.1-1.052,0.269-8.583,1.175-8.92c3.537-1.317,7.271-2.101,10.98-2.734
				c25.901-4.423,53.524,1.547,78.936,6.497c0.51,0.099,3.966-0.74,2.984-1.607c-23.382-20.653-53.556-27.793-83.912-30.037
				c-0.165,0.506-0.329,1.013-0.494,1.52c13.068-4.38,28.189-2.941,41.654-1.677c11.917,1.119,23.703,3.139,35.553,4.771
				c0.484,0.066,3.975-0.691,2.984-1.607c-13.925-12.876-32.229-20.841-50.104-26.504c-19.089-6.047-39.662-9.392-59.671-7.236
				c-0.562,0.061-2.072,0.448-2.2,1.169c-2.33,13.109-5.512,25.88-5.514,39.286c-0.003,25.122,7.613,50.254,14.957,74.012
				C428.52,184.151,432.315,183.076,431.986,182.011L431.986,182.011z"/>
		</g>
	</g>
	<g>
		<path fill="#FEC40D" d="M205.15,168.138c-8.268-1.876-18.968-4.539-27.966-3.286c-7.782,1.097-8.511,12.833-9.241,16.901
			c-1.703,8.137-0.973,16.118,0.729,24.256c1.703,7.199,4.134,15.805,13.132,20.657c9.727,5.165,23.102,3.912,33.316,0.312
			c3.891-1.408,16.292-5.476,16.292-8.606"/>
		<g>
			<path fill="#4B4B4B" d="M206.281,166.964c-10.54-2.404-30.895-9.442-37.39,3.183c-2.361,4.589-2.764,10.505-3.485,15.538
				c-1.264,8.819,0.32,18.292,2.963,26.716c4.855,15.475,19.56,20.129,34.474,18.621c6.726-0.681,13.126-2.975,19.399-5.373
				c3.253-1.244,10.312-3.352,11.093-7.464c0.326-1.72-3.552-1.147-3.841,0.374c-0.575,3.027-8.505,5.024-10.989,5.948
				c-5.491,2.042-10.977,3.595-16.83,4.188c-14.108,1.427-25.587-4.866-29.868-18.511c-3.548-11.309-3.23-22.746-1.019-34.24
				c0.431-2.24,1.124-4.387,2.168-6.416c2.044-3.974,6.196-3.786,10.113-3.721c7.08,0.118,14.087,1.939,20.952,3.505
				C205.466,169.641,208.542,167.479,206.281,166.964L206.281,166.964z"/>
		</g>
	</g>
	<g>
		<path fill="#FEC40D" d="M413.074,167.512c8.27-1.877,18.969-4.539,27.967-3.287c7.783,1.096,8.512,12.833,9.241,16.902
			c1.703,8.137,0.974,16.118-0.729,24.255c-1.702,7.197-4.134,15.806-13.131,20.657c-9.728,5.164-23.104,3.911-33.317,0.312
			c-3.891-1.407-16.293-5.477-16.293-8.607"/>
		<g>
			<path fill="#4B4B4B" d="M413.355,168.563c6.348-1.448,12.672-2.868,19.175-3.397c7.206-0.587,11.884,0.776,14.188,7.891
				c3.601,11.114,3.159,23.675,0.353,34.853c-1.544,6.148-4.116,11.846-9.225,15.83c-6.087,4.747-14.628,4.988-21.954,4.247
				c-5.479-0.554-10.687-2.367-15.826-4.237c-2.732-0.994-10.703-3.115-11.349-6.515c-0.273-1.441-4.1-0.491-3.812,1.021
				c0.763,4.018,8.319,5.979,11.46,7.179c5.897,2.255,11.81,4.054,18.09,4.881c13.881,1.829,29.186-2.853,34.541-16.876
				c5.084-13.313,5.927-29.843,0.854-43.355c-2.013-5.362-5.96-6.964-11.33-7.312c-8.626-0.558-17.394,1.787-25.728,3.688
				C410.451,166.996,411.045,169.09,413.355,168.563L413.355,168.563z"/>
		</g>
	</g>
	<g>
		<path fill="#727886" d="M196.74,271.027c23.717,17.56,79.439,22.537,113.809,22.537c58.365,0,83.312-8.239,109.948-20.988
			c3.032-48.304,10.813-106.094-21.039-146.699c-4.524-4.688-9.688-8.752-15.329-12.224
			c-28.199-17.362-68.319-19.969-100.318-12.356c-6.827,1.415-13.46,3.299-19.781,5.64c-5.778,1.875-11.359,4.115-16.691,6.689
			c-26.682,12.976-47.166,34.151-50.686,65.78c-1.005,5.917-1.577,11.964-1.855,18.086
			C193.685,221.979,197.297,247.65,196.74,271.027z"/>
		<g>
			<path fill="#4B4B4B" d="M194.94,271.663c15.521,11.227,36.061,15.202,54.583,18.161c21.001,3.354,42.37,4.57,63.621,4.469
				c21.763-0.104,43.721-1.35,65.026-6.035c15.11-3.323,29.476-8.829,43.412-15.477c0.288-0.137,0.796-0.334,0.82-0.715
				c1.631-25.64,4.178-51.303,2.511-77.011c-0.824-12.713-2.909-25.346-6.739-37.507c-1.813-5.756-4.17-11.326-6.896-16.706
				c-2.647-5.225-5.873-11.397-10.021-15.6c-18.253-18.489-44.088-26.292-69.414-28.305c-26.222-2.085-52.615,3.129-76.972,12.703
				c-25.292,9.941-47.898,28.085-56.757,54.495c-5.191,15.476-5.633,32.909-5.389,49.058c0.294,19.466,2.483,38.863,2.108,58.346
				c-0.01,0.513,3.792,0.025,3.812-1.021c0.302-15.645-0.991-31.252-1.726-46.868c-0.735-15.632-0.049-30.741,1.819-46.251
				c2.97-24.664,18.429-44.689,39.024-57.684c24.761-15.622,56.124-22.43,85.172-21.639c14.102,0.384,28.206,2.889,41.495,7.636
				c12.147,4.339,26.035,11.492,34.073,21.912c15.734,20.399,21.326,46.342,22.787,71.553c0.753,13,0.33,26.051-0.376,39.042
				c-0.334,6.154-0.766,12.304-1.199,18.452c-0.213,3.009-0.427,6.019-0.636,9.028c-0.104,1.483-0.202,2.966-0.301,4.449
				c-0.149,2.236-0.048,2.551-2.028,3.483c-40.048,18.834-84.653,20.944-128.27,18.504c-16.79-0.939-33.578-2.876-50.038-6.359
				c-13.819-2.924-28.312-6.998-39.904-15.383C197.705,269.788,194.476,271.326,194.94,271.663z"/>
		</g>
	</g>
	<g>
		<g>
			<path fill="#FEC40D" d="M235.437,190.284c-20.762,1.99-30.587-11.942-29.83-17.522c4.216-31.056,49.61-36.352,105.421-33.555
				c45.815,2.295,92.044-0.654,101.332,28.954c4.99,17.523-15.773,25.706-29.716,22.317c-8.944-2.174-22.992-12.949-63.041-13.405
				C278.133,176.6,269.958,186.976,235.437,190.284z"/>
			<g>
				<path fill="#4B4B4B" d="M235.701,189.243c-10.333,0.796-22.332-2.6-27.255-12.584c-3.143-6.373,2.159-15.208,6.406-19.811
					c6.317-6.845,15.583-10.299,24.369-12.621c11.77-3.109,24.133-4.023,36.253-4.442c13.826-0.478,27.622,0.209,41.432,0.788
					c13.321,0.559,26.659,0.793,39.958,1.798c19.534,1.476,46.368,4.618,53.59,26.298c5.979,17.954-17.671,24.462-30.497,19.489
					c-11.911-4.619-23.356-8.651-36.106-10.487c-19.23-2.769-39.577-2.568-58.657,1.241
					C268.568,182.233,252.669,187.545,235.701,189.243c-1.85,0.186-3.175,2.347-0.528,2.082c20.474-2.05,39.707-9.442,60.042-12.026
					c23.543-2.991,49.119-1.581,71.545,6.625c4.777,1.748,9.376,4.097,14.283,5.469c7.452,2.083,16.558,0.796,23.316-2.885
					c7.527-4.1,11.853-10.903,10.227-19.593c-1.557-8.313-8.191-14.933-15.184-19.054c-8.674-5.113-19.162-7.042-28.996-8.387
					c-12.319-1.685-24.808-2.059-37.219-2.498c-26.21-0.927-52.541-2.946-78.667,0.389c-16.253,2.075-35.65,6.518-45.812,20.625
					c-3.399,4.718-6.539,12.004-4.077,17.69c3.08,7.113,10.832,11.234,17.972,12.995c4.098,1.011,8.391,0.971,12.568,0.65
					C237.037,191.182,238.346,189.04,235.701,189.243z"/>
			</g>
		</g>
		<g>
			<path fill="#B01E34" d="M242.105,182.596c-18.89,1.495-27.829-8.972-27.139-13.164c3.835-23.33,45.133-27.31,95.91-25.208
				c41.684,1.724,83.74-0.49,92.19,21.752c4.54,13.164-14.351,19.311-27.034,16.765c-8.14-1.632-20.145-9.657-56.58-10
				C281.722,172.385,273.513,180.111,242.105,182.596z"/>
			<g>
				<path fill="#4B4B4B" d="M242.259,181.505c-8.121,0.497-23.135-1.25-25.676-11.208c-0.74-2.899,1.901-7.091,3.539-9.297
					c2.519-3.393,6.184-5.766,9.904-7.641c9.53-4.803,20.712-6.306,31.195-7.366c13.906-1.406,27.959-1.336,41.914-0.94
					c14.3,0.406,28.62,0.814,42.911,1.466c12.248,0.558,24.777,1.385,36.571,4.958c8.481,2.57,19.418,8.691,19.55,18.868
					c0.147,11.333-18.34,13.005-26.108,11.181c-6.329-1.486-12.354-4.188-18.683-5.765c-12.926-3.218-26.416-4.144-39.695-4.125
					c-12.971,0.02-25.719,1.183-38.436,3.724C266.93,177.822,254.809,180.464,242.259,181.505c-1.716,0.143-2.451,2.359-0.308,2.182
					c21.352-1.772,41.866-8.353,63.281-9.577c21.738-1.243,43.326,0.698,63.918,7.854c11.04,3.836,33.221,4.099,36.096-10.916
					c1.472-7.687-6.241-14.647-12.124-17.986c-8.636-4.901-19.166-6.375-28.875-7.47c-22.109-2.491-44.812-2.467-67.042-2.881
					c-19.285-0.359-39.301-0.133-58.029,5.005c-10.735,2.945-22.307,8.653-25.455,20.216c-1.192,4.381,1.833,7.697,5.088,10.267
					c6.406,5.057,15.298,5.967,23.142,5.487C243.679,183.581,244.402,181.375,242.259,181.505z"/>
			</g>
		</g>
		<g>
			<path fill="#FFFFFF" d="M345.26,152.724c0.652,4.26,0.564,12.463,8.936,17.28c-2.622-6.153-3.032-9.92-1.266-12.168
				c1.268-1.826,5.974-5.014,11.399-5.403C359.03,150.073,351.744,150.119,345.26,152.724z"/>
		</g>
	</g>
	<g>
		<path fill="#727886" d="M201.284,309.56c6.013-2.098,12.241-3.524,18.592-4.53c12.533-1.082,25.123-1.951,37.747-2.616
			c51.653-2.641,103.684-3.573,154.495,4.249c8.069,1.445,16.092,3.193,24.056,5.306c5.387,1.555,10.319,4.971,13.485,6.912
			c8.843,31.872,16.692,90.881,12.877,132.442c-0.394,5.553-3.061,27.568-4.041,33.006c-77.441,15.846-170.5,27.342-276.843-2.797
			c-1.955-79.849,1.964-109.055,12.625-151.049C196.13,323.346,198.339,316.316,201.284,309.56z"/>
		<g>
			<path fill="#4B4B4B" d="M201.559,310.585c15.005-5.068,30.683-5.542,46.36-6.51c16.722-1.032,33.472-1.716,50.22-2.13
				c32.633-0.807,65.341-0.079,97.781,3.747c8.175,0.964,16.272,2.195,24.333,3.862c8.08,1.672,16.126,3.301,23.335,7.461
				c2.736,1.579,4.224,2.534,5.044,5.652c0.617,2.342,1.181,4.697,1.732,7.055c1.337,5.718,2.479,11.48,3.538,17.255
				c4.798,26.15,7.526,52.855,7.707,79.447c0.132,19.341-1.711,39.062-5.026,58.124c0.545-0.415,1.091-0.83,1.637-1.245
				c-52.331,10.677-105.403,17.424-158.902,15.516c-30.896-1.103-61.63-5.207-91.774-12.041c-7.654-1.734-15.255-3.697-22.818-5.792
				c-2.35-0.651-1.38-9.607-1.415-11.478c-0.088-4.658-0.146-9.317-0.189-13.977c-0.115-12.591-0.025-25.186,0.411-37.77
				c0.611-17.669,2.116-35.296,5.076-52.733c3.175-18.711,7.145-38.2,14.587-55.688c0.553-1.301-3.268-0.865-3.823,0.439
				c-5.702,13.399-8.93,27.758-11.953,41.964c-2.409,11.32-4.23,22.751-5.495,34.255c-3.499,31.836-2.947,64.081-2.179,96.044
				c0.008,0.332,0.518,0.51,0.752,0.575c48.722,13.704,99.109,19.812,149.688,18.699c43.299-0.952,86.21-7.318,128.583-15.963
				c0.577-0.118,1.521-0.582,1.637-1.245c7.721-44.386,5.594-89.593-1.931-133.854c-1.822-10.721-4.03-21.396-6.91-31.886
				c-0.327-1.193-3.963-2.668-4.962-3.271c-2.408-1.455-4.991-2.827-7.675-3.697c-7.708-2.498-15.843-3.989-23.795-5.484
				c-31.356-5.898-64.088-6.637-95.901-6.54c-20.467,0.062-40.929,0.876-61.367,1.912c-19.011,0.964-38.665,1.102-56.856,7.246
				C198.783,309.286,199.28,311.354,201.559,310.585z"/>
		</g>
	</g>
	<g>
		<path fill="#D9E4F4" d="M436.791,364.178c0.61-7.099,1.167-15.146,0.952-22.999c-0.109-7.694-0.596-15.309-0.596-21.832
			c-0.055-2.379-0.114-4.758-0.173-7.134c-0.268-0.081-0.533-0.167-0.801-0.245c-7.964-2.112-15.986-3.86-24.056-5.306
			c-50.812-7.822-102.842-6.89-154.495-4.249c-12.625,0.666-25.214,1.534-37.747,2.616c-0.524,0.083-1.044,0.174-1.566,0.263
			c-2.94,13.273-4.737,27.234-5.54,39.533c-0.325,3.105-1.135,9.009-1.375,14.829c-3.813,14.687,10.946,20.828,24.396,23.075
			c52.608,8.788,127.983,8.788,179.901-1.7C428.093,378.523,435.707,376.832,436.791,364.178z"/>
		<g>
			<path fill="#4B4B4B" d="M438.688,363.905c1.469-17.415,0.624-34.759,0.192-52.203c-0.067-0.175-0.191-0.291-0.372-0.35
				c-16.901-5.173-34.794-7.287-52.319-9.011c-18.319-1.803-36.734-2.562-55.136-2.765c-18.991-0.209-37.986,0.316-56.958,1.12
				c-9.653,0.409-19.302,0.905-28.944,1.517c-8.774,0.556-17.871,0.69-26.549,2.143c-0.625,0.104-2.02,0.426-2.19,1.208
				c-3.129,14.411-4.301,28.861-5.987,43.464c-1.227,10.632-4.096,21.167,5.857,28.208c8.353,5.909,19.807,6.795,29.612,8.147
				c12.389,1.707,24.857,2.799,37.336,3.578c27.386,1.71,54.931,1.526,82.295-0.48c12.477-0.914,24.919-2.293,37.276-4.246
				c9.263-1.464,20.122-2.435,28.434-7.115C436.18,374.335,438.105,369.301,438.688,363.905c0.146-1.356-3.671-0.601-3.795,0.545
				c-0.555,5.129-2.098,9.573-6.811,12.228c-4.703,2.649-11.001,3.228-16.208,4.215c-11.816,2.24-23.771,3.735-35.739,4.876
				c-26.56,2.531-53.352,2.911-79.999,1.829c-13.035-0.529-26.05-1.528-39.013-3c-11.071-1.258-23.014-2.12-33.326-6.615
				c-4.727-2.061-8.816-5.414-10.541-10.379c-0.922-2.656-0.565-5.548,0.036-8.222c0.767-3.412,0.535-7.392,0.928-10.897
				c1.633-14.605,2.859-29.059,5.987-43.465c-0.73,0.403-1.46,0.806-2.19,1.209c10.816-1.812,22.211-1.888,33.157-2.528
				c11.047-0.646,22.107-1.121,33.167-1.517c22.885-0.818,45.797-0.995,68.681-0.057c22.447,0.921,45.167,2.732,67.195,7.289
				c2.475,0.512,4.938,1.077,7.398,1.651c2.342,0.547,7.423,0.451,7.497,3.438c0.13,5.277,0.195,10.553,0.386,15.828
				c0.412,11.432,0.357,22.71-0.604,34.116C434.777,365.824,438.593,365.041,438.688,363.905z"/>
		</g>
	</g>
	<g>
		<path fill="#B01E34" d="M60.7,656.301c-16.536-25.167-25.291-47.537-26.263-77.364c-1.459-25.167-2.432-53.129,12.646-75.034
			c11.672-16.778,28.696-11.186,35.991,6.991c11.187,26.099,13.132,55.461,13.619,82.957c0,18.177-0.973,35.42-1.945,53.129
			c-1.459,17.245-1.945,35.422-9.241,51.732"/>
		<g>
			<path fill="#4B4B4B" d="M62.159,655.706c-15.089-23.125-24.75-47.712-26.092-75.477c-0.676-13.976-1.432-27.913,0.245-41.854
				c1.63-13.557,6.051-28.857,15.859-38.83c11.545-11.74,24.54,0.428,29.336,11.769c5.773,13.648,9.086,28.058,11.058,42.71
				c4.157,30.889,2.323,62.178,0.62,93.171c-0.956,17.397-2.259,35.568-9.241,51.732c-0.384,0.888,2.704,0.536,3.121-0.43
				c5.901-13.661,7.411-28.354,8.557-43.045c1.206-15.449,1.977-30.941,2.415-46.432c0.819-29.025-0.299-59.048-9.069-86.936
				c-3.282-10.437-7.438-22.283-17.902-27.451c-7.357-3.633-15.687-0.702-21.379,4.493c-8.914,8.137-13.218,21.865-15.49,33.301
				c-2.539,12.779-2.324,26.029-1.748,38.982c0.69,15.521,2.01,30.604,6.742,45.487c4.542,14.286,11.892,27.494,20.05,39.998
				C59.767,657.701,62.812,656.707,62.159,655.706L62.159,655.706z"/>
		</g>
	</g>
	<g>
		<path fill="#B01E34" d="M506.698,681.469c-11.188-7.456-11.188-25.168-13.134-36.818c-1.945-11.186-2.918-21.438-2.918-32.623
			c0-22.838,3.891-41.013,11.674-62.451c6.322-16.779,16.051-38.683,33.072-48.004c17.508-9.788,29.181-4.66,35.018,14.447
			c8.756,29.362-2.432,66.646-10.699,95.075c-5.35,19.106-13.619,37.284-20.914,55.459c-6.809,15.848-12.159,34.022-24.805,46.607"
			/>
		<g>
			<path fill="#4B4B4B" d="M508.172,680.928c-9.348-6.699-10.731-19.049-12.066-29.611c-1.758-13.912-3.95-27.467-3.885-41.55
				c0.127-27.507,7.588-55.06,19.9-79.591c5.872-11.701,13.799-22.747,25.516-29.096c5.54-3.002,11.769-4.809,17.907-2.68
				c5.137,1.781,8.481,6.753,10.768,11.381c5.764,11.665,6.202,25.876,5.453,38.595c-0.859,14.595-4.207,28.998-7.954,43.084
				c-5.944,22.348-13.55,43.773-22.379,65.132c-7.929,19.18-14.043,41.481-28.86,56.673c-0.69,0.707,2.306,0.344,2.842-0.207
				c8.937-9.162,14.299-20.671,19.078-32.387c5.445-13.348,10.979-26.664,16.352-40.041c10.569-26.312,19.16-54.734,23.027-82.882
				c1.785-12.998,1.966-26.313-1.071-39.136c-2.094-8.836-6.426-18.588-15.611-21.773c-7.518-2.607-16.526,0.973-22.999,4.667
				c-9.801,5.595-16.777,14.438-22.383,24.06c-14.119,24.235-21.716,53.519-22.648,81.414c-0.512,15.322,1.917,30.055,3.817,45.176
				c1.343,10.685,2.812,23.091,12.25,29.854C505.954,682.532,508.665,681.282,508.172,680.928L508.172,680.928z"/>
		</g>
	</g>
	<g>
		<path fill="#FEC40D" d="M573.278,531.981c-0.436-5.501-1.344-10.854-2.868-15.962c-5.837-19.107-17.51-24.235-35.018-14.447
			c-4.721,2.585-8.878,6.138-12.559,10.281C523.975,532.948,558.756,545.985,573.278,531.981z"/>
		<g>
			<path fill="#4B4B4B" d="M575.185,531.471c-1.159-13.013-4.756-32.182-19.996-35.413c-5.544-1.176-11.54,0.696-16.576,2.873
				c-3.61,1.562-6.969,3.634-10.121,5.972c-1.39,1.029-7.711,5.623-7.563,7.462c1.833,22.896,37.404,34.865,53.853,19.83
				c1.571-1.437-2.211-1.15-3.004-0.426c-14.394,13.157-42.506,0.035-46.64-17.423c-1.454-6.139,10.349-11.977,14.909-14.121
				c5.491-2.582,11.439-3.548,17.017-0.785c10.951,5.425,13.364,22.446,14.31,33.053C571.466,533.544,575.3,532.763,575.185,531.471
				z"/>
		</g>
	</g>
	<g>
		<path fill="#FEC40D" d="M83.073,510.894c-7.295-18.177-24.318-23.77-35.991-6.991c-4.774,6.935-7.935,14.479-9.985,22.349
			c9.211,10.782,29.152,6.636,39.653-0.911c3.788-2.878,6.372-6.634,7.821-10.734C84.085,513.363,83.599,512.121,83.073,510.894z"/>
		<g>
			<path fill="#4B4B4B" d="M84.979,510.383c-4.241-10.026-12.581-19.229-24.406-17.384c-13.748,2.146-20.752,18.515-24.44,30.114
				c-1.156,3.634-1.126,3.97,1.793,6.359c2.025,1.658,4.446,2.647,6.913,3.433c5.639,1.795,11.952,1.123,17.618-0.106
				c5.517-1.197,10.866-3.607,15.498-6.812c2.722-1.883,4.84-4.551,6.574-7.327C86.629,515.295,86.457,513.92,84.979,510.383
				c-0.599-1.436-4.362-0.293-3.812,1.021c4.405,10.549-11.315,17.321-19.271,19.299c-4.44,1.104-9.122,1.227-13.596,0.301
				c-2.222-0.46-4.232-1.418-6.149-2.594c-3.346-2.052-2.73-4.031-1.664-7.385c3.038-9.552,9.434-24.145,20.686-25.901
				c9.655-1.508,16.789,8.701,19.995,16.28C81.773,512.838,85.533,511.691,84.979,510.383z"/>
		</g>
	</g>
	<g>
		<g>
			<path fill="#4B4B4B" d="M52.958,465.265c2.952,6.1,8.477,11.179,13.602,15.444c8.242,6.86,17.197,11.958,27.447,15.124
				c9.267,2.862,19,4.664,28.671,5.364c4.406,0.319,11.763,1.131,15.222-2.427c1.635-1.682-2.078-2.011-3.137-0.922
				c-1.355,1.395-5.383,0.98-7.101,0.974c-3.473-0.014-6.945-0.396-10.386-0.829c-8.678-1.09-17.261-3.179-25.535-5.993
				c-8.532-2.901-16.261-8.238-23.043-14.072c-4.404-3.788-9.353-8.366-11.927-13.685C56.032,462.719,52.284,463.874,52.958,465.265
				L52.958,465.265z"/>
		</g>
	</g>
	<g>
		<g>
			<path fill="#4B4B4B" d="M75.817,412.135c4.384,13.838,18.426,25.267,29.929,33.098c7.775,5.293,16.444,9.373,25.583,11.629
				c4.161,1.027,8.47,1.365,12.707,1.948c3.82,0.524,7.82,0.995,11.58-0.096c2.31-0.671,1.692-3.04-0.634-2.365
				c-3.908,1.135-8.422,0.067-12.364-0.485c-4.494-0.63-8.855-1.235-13.222-2.535c-8.322-2.479-16.011-6.869-23.081-11.833
				c-10.201-7.163-22.764-18.005-26.686-30.382C79.119,409.503,75.317,410.557,75.817,412.135L75.817,412.135z"/>
		</g>
	</g>
	<g>
		<g>
			<path fill="#4B4B4B" d="M104.512,373.919c1.423,14.251,12.276,28.036,21.732,38.01c11.68,12.319,27.214,22.494,44.691,22.528
				c2.179,0.005,2.926-2.782,0.34-2.787c-17.157-0.034-32.169-11.257-43.328-23.329c-8.67-9.379-18.309-22.289-19.623-35.443
				C108.15,371.15,104.328,372.081,104.512,373.919L104.512,373.919z"/>
		</g>
	</g>
	<g>
		<g>
			<path fill="#4B4B4B" d="M477.325,442.974c17.36,3.229,35.48-0.777,51.42-7.827c7.087-3.135,14.181-7.081,19.713-12.57
				c4.126-4.094,9.805-10.324,9.268-16.59c-0.11-1.294-3.94-0.465-3.812,1.021c0.502,5.859-5.562,11.966-9.347,15.722
				c-4.788,4.751-11.286,8.006-17.342,10.797c-14.555,6.711-31.658,10.298-47.575,7.338
				C478.408,440.634,475.144,442.567,477.325,442.974L477.325,442.974z"/>
		</g>
	</g>
	<g>
		<g>
			<path fill="#4B4B4B" d="M481.674,472.228c14.961,3.736,31.822,3.789,46.905,0.675c14.933-3.082,24.931-13.779,34.35-24.948
				c0.991-1.175-2.803-0.803-3.518,0.045c-9.46,11.216-18.835,21.101-33.939,23.742c-13.363,2.338-28.264,1.875-41.417-1.41
				C482.987,470.064,479.588,471.706,481.674,472.228L481.674,472.228z"/>
		</g>
	</g>
	<g>
		<path fill="#B01E34" d="M418.991,557.966c-20.752,2.796-40.855,3.107-61.607,3.107c-46.366,0-95.003,1.241-140.397-6.215
			c-9.943-1.656-20.304-6.491-21.121-12.844c-5.824,3.766-9.194,10.123-10.329,17.194c-1.945,12.429-1.298,26.099,0.973,38.527
			c0.973,4.349,6.809,15.846,4.214,19.573c12.646-1.863,24.967-2.796,37.612,0.31c11.025,2.796,23.021,8.08,31.451,15.225
			c5.512,4.35,7.782,10.254,12.322,15.226l12.646,11.494c25.938,12.74,56.742,19.265,79.115-1.552
			c15.887-14.604,33.721-26.72,54.148-35.108c5.513-2.176,19.778-8.701,25.291-3.729c4.215-11.809,6.809-24.858,8.105-37.284
			c0.649-9.321,1.298-18.644,2.27-27.965c0.11-0.738,0.409-1.844,0.702-3.059C444.41,555.666,428.539,556.352,418.991,557.966z"/>
		<g>
			<path fill="#4B4B4B" d="M419.126,556.805c-19.152,2.512-38.428,3.045-57.724,3.104c-19.062,0.058-38.13,0.181-57.192-0.001
				c-19.601-0.187-39.202-0.872-58.727-2.655c-9.358-0.855-18.683-2.047-27.958-3.545c-6.821-1.102-18.434-4.166-20.094-12.112
				c-0.236-1.131-1.982-0.745-2.607-0.308c-12.235,8.549-12.356,24.709-11.937,38.232c0.213,6.884,0.579,14.467,2.778,21.025
				c1.456,4.341,5.963,12.062,3.56,16.577c-0.459,0.863,0.643,1.452,1.364,1.349c15.968-2.294,31.089-2.339,46.428,3.206
				c6.792,2.455,13.224,5.847,19.063,10.089c5.496,3.991,8.689,9.302,12.642,14.646c3.66,4.949,9.079,8.839,13.604,12.952
				c2.759,2.508,6.619,3.686,10.015,5.121c5.791,2.448,11.82,4.487,17.952,5.888c10.91,2.492,22.011,3.096,32.936,0.367
				c12.575-3.14,21.009-11.818,30.663-19.809c10.842-8.974,22.715-16.629,35.338-22.842c4.88-2.402,9.917-4.482,14.986-6.447
				c5.004-1.939,13.062-5.258,17.887-1.556c0.735,0.564,2.384,0.193,2.704-0.724c3.65-10.468,6.041-21.255,7.558-32.229
				c1.654-11.973,0.72-24.624,3.607-36.382c0.298-1.21-1.698-1.089-2.284-0.822C442.894,554.834,430.657,554.945,419.126,556.805
				c-1.718,0.277-2.389,2.664-0.27,2.322c12.123-1.955,24.873-2.163,36.227-7.322c-0.762-0.273-1.522-0.548-2.284-0.822
				c-2.6,10.581-1.987,22.002-3.166,32.803c-1.306,11.969-3.858,23.832-7.823,35.202c0.901-0.241,1.803-0.482,2.704-0.724
				c-6.593-5.06-17.138-0.316-23.789,2.324c-11.935,4.74-23.238,10.655-33.942,17.75c-5.659,3.751-11.054,7.892-16.281,12.219
				c-5.746,4.756-10.862,10.111-17.396,13.826c-11.784,6.702-25.796,6.846-38.766,4.339c-6.43-1.243-12.68-3.373-18.756-5.779
				c-4.256-1.687-8.486-3.256-11.881-6.341c-2.711-2.465-5.422-4.929-8.133-7.393c-3.32-3.018-5.7-6.601-8.249-10.287
				c-7.264-10.51-19.959-16.494-31.71-20.505c-13.973-4.769-28.398-4.498-42.858-2.54c-0.631,0.09-1.263,0.181-1.895,0.271
				c0.455,0.449,0.91,0.898,1.364,1.349c1.83-3.438,0.034-7.95-1.091-11.326c-1.828-5.482-3.398-10.282-4.171-16.074
				c-1.961-14.711-3.932-37.656,9.947-47.354c-0.869-0.103-1.738-0.205-2.607-0.308c1.241,5.94,7.421,8.962,12.555,11.022
				c8.192,3.288,17.617,3.853,26.29,4.905c20.303,2.463,40.773,3.337,61.208,3.731c20.336,0.393,40.678,0.161,61.016,0.142
				c21.22-0.021,42.418-0.345,63.488-3.108C420.596,558.898,421.254,556.525,419.126,556.805z"/>
		</g>
	</g>
	<g>
		<path fill="#1F2020" d="M257.427,225.903c8.025,2.563,15.807,5.36,24.318,5.592c6.565,0.466,13.132,0.233,19.698,0.233
			c13.861,0,26.415,0.875,40.278-0.523c12.645-1.398,30.937,0,29.597-18.118c-1.297,10.563-11.025,11.185-20.752,11.807
			c-31.127,1.864-62.254,0.621-92.734,0.621"/>
		<g>
			<path fill="#4B4B4B" d="M256.26,226.939c6.247,2.008,12.444,4.058,18.937,5.117c7.061,1.151,14.44,0.837,21.565,0.775
				c14.252-0.125,28.497,0.749,42.728-0.385c13.851-1.103,34.64-0.918,33.734-19.871c-0.061-1.267-3.629-0.36-3.812,0.75
				c-1.508,9.113-9.474,9.887-17.26,10.425c-10.847,0.75-21.739,0.954-32.608,1.055c-20.324,0.188-40.646-0.357-60.97-0.374
				c-1.427-0.001-4.06,2.163-1.482,2.165c24.954,0.021,49.906,0.77,74.857,0.139c9.599-0.243,19.633-0.122,29.08-2.043
				c6.449-1.312,11.104-5.238,12.196-11.844c-1.271,0.25-2.542,0.5-3.812,0.75c0.425,8.887-4.321,13.566-12.8,15.094
				c-8.338,1.502-17.345,1.879-25.772,2.146c-12.164,0.386-24.364-0.229-36.535-0.14c-6.173,0.045-12.428-0.006-18.532-1.002
				c-5.863-0.956-11.542-3.018-17.179-4.83C257.389,224.479,254.12,226.251,256.26,226.939L256.26,226.939z"/>
		</g>
	</g>
	<g>
		<g>
			<path fill="#4B4B4B" d="M369.531,213.773c2.114,2.78,3.706,5.94,5.067,9.145c0.462,1.087,4.189-0.134,3.812-1.021
				c-1.419-3.342-3.104-6.599-5.308-9.497C372.468,211.565,368.808,212.823,369.531,213.773L369.531,213.773z"/>
		</g>
	</g>
</g>
</svg>
