<?xml version="1.0" encoding="utf-8"?>
<!-- Generator: Adobe Illustrator 16.2.1, SVG Export Plug-In . SVG Version: 6.00 Build 0)  -->
<!DOCTYPE svg PUBLIC "-//W3C//DTD SVG 1.1//EN" "http://www.w3.org/Graphics/SVG/1.1/DTD/svg11.dtd">
<svg version="1.1" id="Layer_1" xmlns="http://www.w3.org/2000/svg" xmlns:xlink="http://www.w3.org/1999/xlink" x="0px" y="0px"
	 width="612px" height="612px" viewBox="0 0 612 612" enable-background="new 0 0 612 612" xml:space="preserve">
<g>
	<g>
		<path fill="#B01E34" d="M169.052,574.039c-20.256-24.932-48.303-83.621-22.333-113.227c14.023-15.584,40.513-9.869,55.575,2.076
			c22.333,17.141,21.295,48.822,20.255,74.793"/>
		<g>
			<path fill="#4B4B4B" d="M170.502,573.414c-12.588-15.646-22.061-34.191-27.994-53.34c-5.951-19.209-8.631-44.031,6.385-59.939
				c16.75-17.742,48.233-3.938,60.62,12.166c13.905,18.076,12.319,44.117,11.465,65.564c-0.054,1.354,3.094,0.729,3.138-0.369
				c0.858-21.557,1.951-45.332-10.167-64.26c-10.772-16.826-34.074-26.248-53.461-21.613c-19.83,4.74-26.444,26.389-25.722,44.445
				c0.873,21.805,10.298,43.314,21.268,61.83c3.462,5.844,7.309,11.473,11.567,16.766
				C168.31,575.543,171.32,574.432,170.502,573.414L170.502,573.414z"/>
		</g>
	</g>
	<g>
		<path fill="#FEC40D" d="M122.092,682.121c2.42-11.242-4.788-29.258-6.094-41.131c-2.613-23.75-1.727-48.928,2.428-72.9
			c3.633-19.209,15.132-63.496,36.594-72.65c2.618,19.045,4.221,39.943,3.741,59.328c-2.058,47.777-5.032,96.699-12.423,143.494"/>
		<g>
			<path fill="#4B4B4B" d="M124.03,682.002c1.355-7.381-0.375-15.008-2.02-22.199c-1.897-8.299-3.878-16.328-4.647-24.828
				c-2.02-22.309-0.74-44.945,3-67.004c2.224-13.111,6.131-26.176,11.027-38.52c4.835-12.195,11.847-27.082,24.499-32.793
				c-0.926-0.236-1.851-0.473-2.776-0.709c2.234,16.502,3.613,33.098,3.785,49.752c0.176,17.127-1.194,34.354-2.212,51.443
				c-2.019,33.867-5.037,67.705-10.288,101.236c-0.319,2.037,3.589,1.6,3.877-0.238c5.352-34.174,8.345-68.648,10.402-103.162
				c1.018-17.08,2.255-34.258,2.079-51.373c-0.168-16.279-1.647-32.555-3.831-48.68c-0.165-1.221-2.025-1.047-2.776-0.709
				c-11.752,5.305-18.746,17.615-23.921,28.82c-5.996,12.984-9.924,26.992-12.897,40.951c-4.462,20.949-5.468,42.863-4.342,64.207
				c0.48,9.111,1.665,17.883,3.8,26.746c2.113,8.771,5.03,18.223,3.364,27.297C119.783,684.256,123.695,683.828,124.03,682.002
				L124.03,682.002z"/>
		</g>
	</g>
	<g>
		<path fill="#D9E4F4" d="M149.537,347.715c-3.636,13.506-8.31,27.529-10.387,41.553c-2.078,15.062,1.558,29.086,4.155,43.631
			c3.116,16.1,5.193,32.201,5.713,48.301c0,11.428-1.558,23.373,0,34.801c3.636,28.564,28.047,12.465,37.916-3.637
			c26.488-44.148,36.877-105.436,11.946-151.662"/>
		<g>
			<path fill="#4B4B4B" d="M147.703,347.453c-3.935,14.471-8.887,28.871-10.721,43.814c-1.803,14.689,2.049,29.744,4.785,44.074
				c3.096,16.213,5.577,33.066,5.267,49.605c-0.243,12.961-2.865,27.795,2.292,40.148c6.903,16.539,25.839,3.734,33.597-4.658
				c7.393-7.998,12.155-18.674,16.519-28.512c5.213-11.752,9.077-24.086,11.806-36.639c6.934-31.895,4.822-66.301-10.629-95.447
				c-0.854-1.611-4.459-0.125-3.479,1.725c12.735,24.025,15.909,51.477,12.845,78.24c-2.921,25.527-11.61,53.176-26.337,74.471
				c-4.659,6.736-12.229,14.451-20.689,15.824c-12.41,2.012-12.6-17.658-12.694-25.17c-0.093-7.35,0.541-14.697,0.679-22.045
				c0.146-7.793-0.73-15.709-1.565-23.449c-1.702-15.781-5.333-31.203-7.742-46.869c-3.463-22.52,3.903-43.141,9.735-64.59
				C151.969,345.781,148.177,345.707,147.703,347.453L147.703,347.453z"/>
		</g>
	</g>
	<g>
		<path fill="#5B616C" d="M149.712,660.215c-10.388-16.1-18.873-61.635-15.237-79.293c3.636-20.775,8.83-47.783,25.45-62.324
			c15.582-14.025,27.008-6.234,25.969,12.984c-1.038,26.486-8.31,52.457-10.387,78.426c-1.558,27.008-1.039,52.979,2.077,79.467"/>
		<g>
			<path fill="#4B4B4B" d="M151.618,659.705c-4.834-7.705-7.502-16.732-9.819-25.455c-2.81-10.578-4.698-21.441-5.728-32.336
				c-0.908-9.611-0.254-18.518,1.489-27.975c2.202-11.947,5.002-23.842,9.854-35.018c2.419-5.572,5.555-10.801,9.417-15.488
				c4.092-4.967,11.339-12.268,18.393-10.934c11.987,2.266,8.726,22.855,7.988,30.711c-1.471,15.68-4.669,31.148-7.098,46.691
				c-2.39,15.295-3.211,30.576-3.354,46.043c-0.166,18.055,0.848,36.105,2.917,54.039c0.103,0.896,3.943,0.111,3.812-1.021
				c-3.723-32.283-4.644-65.607,0.117-97.82c2.302-15.574,5.463-31.006,7.188-46.666c1.062-9.633,3.624-23.158-3.81-30.994
				c-4.853-5.115-13.491-2.633-18.625,0.561c-9.62,5.98-16.109,15.336-20.722,25.494c-5.021,11.059-7.625,23.143-9.854,35.02
				c-1.649,8.785-2.356,16.996-1.728,25.943c0.793,11.295,2.852,22.539,5.603,33.512c2.291,9.135,5.101,18.676,10.145,26.715
				C148.457,661.766,152.016,660.338,151.618,659.705L151.618,659.705z"/>
		</g>
	</g>
	<g>
		<path fill="#FEC40D" d="M213.296,335.709c-3.598-20.037-42.426-56.194-68.552-44.952c-21.853,9.176-30.828,38.159-29.087,57.374
			c2.802,25.334,20.769,46.443,44.781,62.504"/>
		<g>
			<path fill="#4B4B4B" d="M215.203,335.197c-3.413-17.113-20.294-31.781-34.562-40.174c-16.362-9.625-34.566-10.238-49.011,3.057
				c-14.298,13.159-20.438,36.004-17.259,54.825c4.094,24.234,22.561,43.195,41.86,56.82c0.892,0.623,1.789,1.236,2.692,1.84
				c1.044,0.707,4.569-0.818,3.03-1.859c-18.517-12.52-35.342-29.066-42.116-50.904c-5.657-18.236-1.204-39.451,10.048-54.684
				c5.741-7.771,14.519-14.077,24.42-14.384c9.051-0.28,17.891,3.82,25.438,8.429c13.116,8.008,28.502,22.29,31.647,38.057
				C211.656,337.555,215.483,336.604,215.203,335.197L215.203,335.197z"/>
		</g>
	</g>
	<g>
		<path fill="#222226" d="M183.773,429.607c-2.426,6.475-4.578,13.049-6.412,19.646c-18.187,65.402-2.604,135,24.938,195.238
			c2.756,5.984,5.727,12.201,8.975,18.377c16.244,30.875,39.399,60.668,78.786,53.311c23.891-4.674,43.628-18.18,49.343-42.072
			c3.634-16.619,2.596-33.24,6.232-49.859c2.596-13.504,7.27-27.01,7.27-41.031c0-10.908-7.27-15.582-14.023-23.893
			c-7.79-10.908-7.271-23.893-17.14-32.723c-2.598-2.076-6.232-3.635-6.75-6.232c-2.08-6.752,7.789-17.658,10.905-21.814
			c9.868-14.021,20.256-28.047,29.604-42.59c11.946-18.176,25.97-42.588,23.893-64.924c-1.559-16.619-7.271-33.76-20.256-44.666
			c-29.086-22.854-64.404-16.1-97.125-6.754"/>
		<g>
			<path fill="#4B4B4B" d="M181.968,429.455c-20.86,56.322-16.734,116.223,1.578,172.646c8.518,26.242,19.585,52.521,34.222,75.975
				c11.253,18.031,26.839,34.695,48.363,39.34c20.396,4.4,44.028-3.039,59.461-16.707c21.533-19.07,16.748-49.137,21.566-74.723
				c2.776-14.742,8.127-29.365,7.615-44.541c-0.41-12.203-12.968-19.115-17.812-29.377c-5.167-10.943-6.675-21.76-17.317-29.008
				c-9.428-6.422,6.094-21.582,10.259-27.469c14.855-21,30.881-41.738,42.165-64.969c4.861-10.008,8.494-20.758,9.349-31.898
				c0.82-10.697-1.772-22.07-5.668-31.965c-7.91-20.092-26.923-32.367-47.766-35.828c-22.341-3.709-44.842,1.424-66.285,7.514
				c-2.314,0.656-1.696,3.014,0.631,2.354c26.293-7.469,55.21-13.732,81.266-2.035c13.181,5.916,22.763,15.742,28.341,29.018
				c5.137,12.225,6.97,26.221,4.603,39.256c-2.563,14.113-9.59,27.279-16.921,39.439c-7.861,13.041-16.709,25.49-25.541,37.883
				c-3.921,5.502-7.686,11.16-11.89,16.449c-3.081,3.875-6.07,7.857-8.105,12.396c-1.472,3.281-1.974,6.967,0.267,9.979
				c1.653,2.223,4.787,3.414,6.775,5.303c2.759,2.621,4.649,6.066,6.205,9.486c2.445,5.383,3.94,11.135,6.47,16.492
				c2.678,5.672,7.135,9.852,11.184,14.523c10.062,11.607,5.094,27.859,1.911,41.326c-3.68,15.566-5.523,30.805-6.93,46.713
				c-1.231,13.934-3.807,27.119-12.988,38.094c-15.461,18.484-45.043,25.705-67.347,17.338
				c-21.613-8.109-35.551-29.77-45.954-49.178c-37.828-70.568-56.626-156.482-28.095-233.521
				C186.307,427.795,182.495,428.031,181.968,429.455L181.968,429.455z"/>
		</g>
	</g>
	<g>
		<path fill="#5B616C" d="M169.177,452.982c-3.249,23.105-2.527,45.129,2.527,68.236c3.609,17.691,9.026,37.91,19.857,52.711
			c0.723-16.607-6.138-35.02-7.22-51.627c-2.167-28.885,0-56.684,6.137-84.484"/>
		<g>
			<path fill="#4B4B4B" d="M167.248,453.139c-3.033,22.301-2.358,44.613,2.138,66.668c3.906,19.16,8.901,38.811,20.426,54.953
				c0.787,1.102,3.636,0.455,3.677-0.984c0.286-10.045-1.667-19.877-3.667-29.672c-2.41-11.791-3.862-23.314-4.251-35.361
				c-0.771-23.877,1.761-47.758,6.835-71.078c0.399-1.836-3.498-1.342-3.857,0.311c-4.951,22.756-7.327,45.885-6.884,69.176
				c0.21,11.043,1.162,21.895,3.283,32.738c2.212,11.312,5.015,22.586,4.685,34.197c1.226-0.328,2.451-0.658,3.677-0.986
				c-10.997-15.4-15.928-34.104-19.699-52.391c-4.645-22.529-5.607-45.068-2.504-67.881
				C171.364,450.924,167.476,451.463,167.248,453.139L167.248,453.139z"/>
		</g>
	</g>
	<g>
		<path fill="#5B616C" d="M212.5,434.211c-10.108,28.881-14.08,64.264-10.831,94.949c2.167,18.777,4.333,40.076,13.358,57.406
			c3.249-16.967,2.528-35.02,5.416-52.35c6.137-35.742,15.886-70.762,24.188-106.145"/>
		<g>
			<path fill="#4B4B4B" d="M210.58,434.396c-8.632,25.033-12.365,51.686-11.887,78.127c0.224,12.416,1.766,24.816,3.574,37.09
				c1.904,12.92,4.925,25.754,10.854,37.463c0.69,1.363,3.559,0.768,3.827-0.697c2.371-12.963,2.691-26.143,3.808-39.244
				c1.144-13.412,3.997-26.65,6.809-39.793c5.697-26.633,12.748-52.951,18.988-79.457c0.395-1.678-3.485-1.137-3.841,0.373
				c-6.24,26.508-13.228,52.838-18.987,79.457c-2.846,13.152-5.571,26.381-6.809,39.793c-1.209,13.104-1.435,26.27-3.809,39.244
				c1.276-0.232,2.551-0.465,3.827-0.697c-5.686-11.229-8.598-23.408-10.593-35.771c-2.122-13.154-3.598-26.525-3.838-39.852
				c-0.467-25.801,3.503-52.006,11.918-76.408C214.958,432.467,211.084,432.936,210.58,434.396L210.58,434.396z"/>
		</g>
	</g>
	<g>
		<path fill="#5B616C" d="M258.713,454.787c-1.082,1.805-3.611,10.111-4.693,13.721c-6.858,22.385-11.914,45.129-15.524,68.234
			c-3.611,23.107-6.859,47.658-3.611,71.125c6.138-15.162,10.109-32.854,15.525-48.738c12.635-36.467,23.828-72.93,30.687-110.838"
			/>
		<g>
			<path fill="#4B4B4B" d="M256.817,455.066c-4.433,8.451-6.408,19.174-8.893,28.291c-3.814,13.992-6.888,28.18-9.453,42.451
				c-4.858,27.039-9.09,55.123-5.493,82.57c0.161,1.229,3.485,0.006,3.802-0.789c4.79-12.043,8.12-24.576,11.805-36.982
				c3.91-13.16,8.673-26.061,12.881-39.129c8.813-27.371,16.349-55.168,21.526-83.467c0.23-1.254-3.583-0.582-3.791,0.557
				c-5.064,27.68-12.424,54.836-20.941,81.639c-4.173,13.131-8.94,26.074-12.954,39.254c-3.944,12.951-7.306,26.086-12.317,38.686
				c1.267-0.264,2.535-0.527,3.802-0.789c-3.662-27.945,0.862-56.451,5.807-83.969c2.453-13.652,5.524-27.191,9.118-40.59
				c2.443-9.107,4.469-19.854,8.893-28.289C261.07,453.629,257.391,453.973,256.817,455.066L256.817,455.066z"/>
		</g>
	</g>
	<g>
		<path fill="#5B616C" d="M286.152,465.619c-5.055,27.799-11.914,55.238-18.052,82.678c-3.249,15.525-9.747,31.77-11.552,47.658
			c8.304-8.307,13.357-23.107,17.69-33.578c14.08-35.021,24.551-71.125,31.772-107.951"/>
		<g>
			<path fill="#4B4B4B" d="M284.272,465.959c-4.145,22.604-9.41,44.971-14.567,67.359c-2.531,10.986-4.924,21.965-8.028,32.809
				c-2.863,10.002-5.75,19.988-7.036,30.338c-0.095,0.766,3.303-0.316,3.631-0.66c6.972-7.287,10.958-16.738,14.699-25.959
				c4.833-11.912,9.462-23.891,13.646-36.049c8.959-26.025,15.937-52.715,21.271-79.709c0.17-0.857-3.576-0.246-3.758,0.678
				c-5.096,25.783-11.75,51.213-20.065,76.148c-4.006,12.016-8.524,23.83-13.24,35.582c-4.149,10.342-8.163,21.414-16.002,29.607
				c1.21-0.221,2.421-0.439,3.631-0.66c1.347-10.84,4.49-21.289,7.488-31.76c2.934-10.248,5.134-20.66,7.522-31.043
				c5.149-22.391,10.422-44.756,14.567-67.359C288.191,464.41,284.44,465.043,284.272,465.959L284.272,465.959z"/>
		</g>
	</g>
	<g>
		<path fill="#5B616C" d="M309.62,477.172c-6.5,23.107-11.914,46.936-17.331,70.402c-2.526,10.83-5.415,21.301-8.303,31.771
			c-0.723,3.25-3.25,7.943-1.807,11.191c10.109-0.359,15.526-19.857,18.414-26.715c12.998-31.049,21.661-62.822,25.273-96.76"/>
		<g>
			<path fill="#4B4B4B" d="M307.705,477.375c-5.488,19.611-10.174,39.428-14.761,59.266c-2.317,10.02-4.674,20.014-7.33,29.949
				c-1.271,4.754-2.609,9.488-3.887,14.24c-0.943,3.508-2.5,6.561-1.453,10.219c0.192,0.67,1.125,0.723,1.68,0.672
				c7.491-0.699,11.7-7.418,14.724-13.59c4.396-8.973,7.704-18.777,11.226-28.111c10.101-26.766,16.771-54.729,19.879-83.16
				c0.186-1.705-3.674-1.041-3.832,0.408c-2.715,24.846-8.196,49.211-16.201,72.883c-3.282,9.705-7.341,19.088-10.911,28.68
				c-2.33,6.26-6.358,19.771-14.433,20.525c0.561,0.223,1.12,0.447,1.68,0.672c-1.069-3.734,0.858-7.324,1.816-10.887
				c1.33-4.943,2.718-9.871,4.04-14.818c2.654-9.93,4.948-19.938,7.263-29.949c4.444-19.219,9.015-38.408,14.33-57.406
				C311.97,475.416,308.104,475.947,307.705,477.375L307.705,477.375z"/>
		</g>
	</g>
	<g>
		<path fill="#D9E4F4" d="M234.312,681.207c2.424-4.5,2.424-9.695,4.156-14.541c2.77-8.311,7.616-16.275,12.464-23.893
			c12.811-19.045,29.779-35.664,49.516-47.785c15.928-9.693,34.971-16.619,53.669-18.35c10.246,16.094,33.713,59.725,21.813,112.188
			"/>
		<g>
			<path fill="#4B4B4B" d="M236.129,681.4c2.682-5.648,3.131-12.014,5.37-17.846c2.37-6.176,5.847-11.92,9.316-17.521
				c6.633-10.711,14.874-20.422,23.865-29.221c19.153-18.74,43.194-32.277,69.562-37.471c0.43-0.086,8.223-1.725,8.484-1.311
				c0.804,1.268,1.579,2.553,2.347,3.844c1.74,2.928,3.363,5.922,4.922,8.951c4.204,8.164,7.634,16.721,10.425,25.465
				c7.507,23.521,8.88,48.564,3.583,72.693c-0.4,1.822,3.496,1.322,3.855-0.316c8.546-38.926-0.856-79.494-21.992-112.857
				c-0.298-0.469-1.074-0.572-1.567-0.521c-28.58,2.883-54.827,15.902-76.378,34.566c-10.512,9.104-19.727,19.623-27.653,31.033
				c-4.165,5.994-7.879,12.41-10.997,19.008c-3.211,6.797-3.597,14.424-6.775,21.115C231.578,682.947,235.432,682.869,236.129,681.4
				L236.129,681.4z"/>
		</g>
	</g>
	<g>
		<path fill="#D9E4F4" d="M146.186,685.57c-33.757-46.26-14.02-110.664,21.299-150.139c64.404,42.59,60.249,138.158,0.623,183.508"
			/>
		<g>
			<path fill="#4B4B4B" d="M147.925,684.709c-33.215-46.338-13.741-109.26,21.17-148.658c-1.023,0.174-2.046,0.348-3.069,0.521
				c29.857,20.01,46.435,53.369,46.35,89.098c-0.085,35.82-17.194,70.506-45.552,92.328c-2.052,1.58,0.996,3.09,2.566,1.881
				c28.886-22.229,46.011-56.875,46.845-93.246c0.844-36.82-16.628-71.793-47.292-92.344c-0.968-0.648-2.329-0.314-3.069,0.521
				c-35.623,40.201-55.281,104.393-21.428,151.621C145.517,687.926,149.128,686.387,147.925,684.709L147.925,684.709z"/>
		</g>
	</g>
	<g>
		<path fill="#5B616C" d="M438.086,646.58c6.232-15.582,53.496-104.916,67.52-78.426c15.062,27.008,7.272,65.441-2.597,92.969"/>
		<g>
			<path fill="#4B4B4B" d="M439.985,646.316c4.653-11.496,10.986-22.469,17.188-33.174c8.042-13.881,16.713-27.895,27.657-39.703
				c3.077-3.318,7.995-8.859,12.919-9.156c6.756-0.408,9.767,12.395,11.127,16.797c7.75,25.068,1.399,53.488-6.82,77.609
				c-0.31,0.902-0.626,1.801-0.947,2.697c-0.411,1.158,3.376,0.664,3.799-0.527c8.401-23.664,14.194-49.875,9.256-74.926
				c-2.073-10.518-6.929-28.643-20.904-22.08c-11.494,5.395-19.79,18.484-26.664,28.574c-8.896,13.055-16.758,26.855-23.981,40.896
				c-2.278,4.428-4.558,8.898-6.428,13.52C435.741,647.945,439.509,647.494,439.985,646.316L439.985,646.316z"/>
		</g>
	</g>
	<g>
		<path fill="#222226" d="M208.468,315.453c8.034-18.642,36.146-26.947,61.119-30.663c6.242-0.93,12.293-1.584,17.837-2.101
			c5.394-0.48,10.941-1.126,16.588-1.823c5.642-0.688,11.383-1.424,17.167-2.057c34.324-3.072,75.876-6.188,99.768,23.938
			c3.117,3.116-3.116,6.231-6.06,9.042"/>
		<g>
			<path fill="#4B4B4B" d="M210.367,315.188c8.041-17.598,30.258-23.748,47.555-27.432c10.82-2.305,21.84-3.373,32.833-4.448
				c11.414-1.116,22.754-2.895,34.18-3.894c18.279-1.599,36.878-2.69,54.988,0.972c9.16,1.852,17.965,5.328,25.753,10.506
				c3.916,2.604,7.413,5.78,10.62,9.205c2.153,2.3,4.869,4.557,1.944,7.457c-1.481,1.469-3.302,2.609-4.865,3.992
				c-1.612,1.426,2.181,1.23,3.02,0.488c2.472-2.188,6.753-4.268,7.298-7.853c0.444-2.92-6.018-7.819-7.905-9.569
				c-7.468-6.924-16.812-11.5-26.492-14.407c-19.214-5.771-39.952-4.644-59.688-3.058c-12.804,1.029-25.506,2.926-38.28,4.239
				c-12.384,1.274-24.676,2.606-36.847,5.308c-17.695,3.929-39.763,11.188-47.912,29.026
				C206.097,316.75,209.839,316.344,210.367,315.188L210.367,315.188z"/>
		</g>
	</g>
	<g>
		<path fill="#B01E34" d="M295.773,276.777c-37.916-18.179-104.917-36.876-109.072-87.257
			c-4.155-52.458-0.52-116.343-49.861-150.104c39.474-2.596,80.505,14.543,117.381,26.489c21.295,7.271,41.552,14.023,58.69,28.566
			c4.156-6.232,10.908-9.868,16.621-13.504c18.179-10.907,37.397-20.256,57.652-27.527c25.45-8.31,54.017-15.062,81.024-15.582
			c-17.659,12.465-30.124,27.009-38.954,47.265c-15.062,33.241-6.232,65.962-12.467,100.241
			c-4.673,26.489-20.774,47.264-43.107,61.807c-21.296,14.024-47.265,18.179-69.598,32.203"/>
		<g>
			<path fill="#4B4B4B" d="M297.014,276c-17.529-8.356-35.768-15.111-53.133-23.834c-17.68-8.88-35.396-20.006-46.55-36.779
				c-11.806-17.75-9.94-40.606-11.247-60.98c-1.441-22.482-3.7-45.219-11.202-66.602c-6.995-19.934-19.41-37.074-36.8-49.166
				c-0.481,0.56-0.963,1.12-1.445,1.679c31.997-1.866,63.126,8.382,93.025,18.522c27.984,9.491,58.637,16.957,81.799,36.253
				c0.793,0.661,2.353,0.214,2.914-0.57c7.293-10.182,21.2-16.253,31.975-22.015c12.262-6.557,24.992-12.227,38.002-17.122
				c26.21-9.862,55.264-15.928,83.258-16.608c-0.126-0.473-0.253-0.945-0.38-1.417c-19.573,13.974-34.006,32.32-42.373,54.939
				c-10.174,27.502-5.097,57.527-8.532,86.056c-3.212,26.672-17.038,48.992-38.582,64.852
				c-22.518,16.576-51.007,21.11-74.639,35.669c-1.807,1.113,0.917,1.637,1.96,0.994c23.229-14.31,50.882-19.086,73.4-34.782
				c19.14-13.341,33.483-32.575,38.972-55.384c6.744-28.033,1.094-57.388,7.058-85.567c5.701-26.941,22.54-49.965,44.697-65.783
				c0.77-0.549,0.737-1.445-0.38-1.417c-28.948,0.704-58.578,7.066-85.716,17.089c-13.864,5.121-27.285,11.381-40.312,18.347
				c-10.769,5.758-24.031,11.85-31.334,22.045c0.972-0.19,1.943-0.38,2.914-0.57c-23.478-19.56-54.435-27.119-82.798-36.762
				c-30.44-10.348-61.959-20.473-94.52-18.574c-0.667,0.039-2.535,0.921-1.445,1.679c40.281,28.008,45.195,78.169,47.853,123.209
				c0.633,10.726,0.593,21.792,2.469,32.387c1.584,8.947,5.69,17.23,11.064,24.485c11.606,15.67,29.488,26.036,46.634,34.554
				c16.656,8.276,34.132,14.726,50.913,22.725C295.491,278.01,298.354,276.639,297.014,276L297.014,276z"/>
		</g>
	</g>
	<g>
		<path fill="#727886" d="M272.748,219.991c-5.54,25.278-1.385,51.939-6.926,77.563c-2.423,10.733-7.963,24.928-16.273,32.895
			c18.004,4.154,37.396,0.691,55.4-2.078c6.925-1.039,24.93-2.771,27.354-10.043c0.348-1.383-1.385-6.232-1.385-7.963
			c-0.692-4.156-0.692-8.311-0.692-12.465c0.347-11.08,2.425-21.468,5.193-32.202c4.155-16.621,10.388-32.548,10.042-49.861
			c-11.772-2.078-24.585,1.731-36.011,2.077c-12.465,0.347-24.238-0.691-36.358-1.384"/>
		<g>
			<path fill="#4B4B4B" d="M270.853,220.353c-4.061,19.368-2.958,39.19-4.353,58.819c-1.268,17.848-5.542,38.301-18.685,51.463
				c-0.257,0.258-0.242,0.438,0.139,0.52c18.193,3.936,36.686,0.945,54.811-1.871c9.45-1.469,23.064-1.646,30.105-9.121
				c1.518-1.611,1.484-2.961,1.076-5.021c-0.712-3.584-1.409-6.963-1.663-10.635c-0.743-10.751,0.979-21.591,3.3-32.053
				c4.217-19.003,11.938-37.4,11.807-57.133c-0.073-0.123-0.184-0.186-0.333-0.189c-10.661-1.628-21.186,0.635-31.777,1.745
				c-13.504,1.416-27.421-0.284-40.92-1.075c-0.747-0.043-4.389,1.35-2.531,1.459c15.005,0.879,30.141,2.412,45.133,0.65
				c7.384-0.868,14.669-2.134,22.134-1.901c5.991,0.188,4.451,5.043,4.045,9.499c-0.435,4.759-1.408,9.469-2.479,14.117
				c-3.291,14.274-8.112,28.105-10.673,42.562c-1.264,7.139-1.79,14.329-1.634,21.571c0.063,2.971,0.343,5.987,0.903,8.905
				c0.474,2.469,1.843,5.043,0.467,7.41c-2.579,4.436-10.253,5.377-14.764,6.215c-4.988,0.926-10.058,1.516-15.071,2.293
				c-8.334,1.293-16.685,2.467-25.113,2.926c-3.721,0.201-7.446,0.156-11.167-0.018c-0.763-0.035-12.186-1.293-11.18-2.387
				c19.396-21.102,18.139-52.917,19.038-79.545c0.339-10.049,1.11-20.071,3.177-29.927
				C274.794,218.91,271.037,219.475,270.853,220.353L270.853,220.353z"/>
		</g>
	</g>
	<g>
		<path fill="#222226" d="M276.557,240.075c-1.04,14.542-0.693,51.94,23.199,45.013c19.737-5.194,32.896-31.163,30.124-50.208"/>
		<g>
			<path fill="#4B4B4B" d="M274.619,240.194c-0.971,14.198-1.875,43.737,16.911,47.065c11.317,2.005,22.789-7.147,29.288-15.337
				c8.199-10.333,12.645-24.42,10.969-37.552c-0.24-1.888-4.061-0.921-3.812,1.021c1.485,11.64-2.354,23.506-8.817,33.119
				c-5.551,8.258-17.374,18.746-28.28,15.348c-7.867-2.451-10.318-12.944-11.543-19.974c-1.369-7.854-1.379-15.994-0.837-23.928
				C278.638,237.869,274.746,238.339,274.619,240.194L274.619,240.194z"/>
		</g>
	</g>
	<g>
		<path fill="#727886" d="M244.354,120.961c-15.063,21.814-29.086,43.628-20.256,70.636c5.193,17.14,17.66,32.203,30.124,44.668
			c12.985,12.984,33.76,30.644,53.497,29.605c22.334-1.559,52.978-27.528,60.249-47.784c13.504-37.397,7.271-93.49-23.372-120.499"
			/>
		<g>
			<path fill="#4B4B4B" d="M242.588,121.028c-7.486,10.861-14.891,21.9-19.503,34.34c-4.699,12.673-4.462,25.566-0.406,38.346
				c4.148,13.072,12.66,24.545,21.634,34.701c8.631,9.769,18.304,18.855,28.964,26.375c9.5,6.701,20.405,11.855,32.197,12.033
				c9.416,0.142,18.965-4.315,26.923-8.908c18.229-10.52,33.943-26.862,39.783-47.346c10.626-37.274,4.217-86.723-25.778-113.679
				c-0.864-0.776-4.408,0.679-3.611,1.396c17.161,15.421,25.593,37.931,28.749,60.325c2.976,21.119,1.977,46.674-8.277,65.889
				c-5.615,10.523-14.742,19.357-24.104,26.543c-9.649,7.405-21.991,14.601-34.563,13.869c-13.747-0.801-26.37-9.879-36.604-18.335
				c-10.243-8.464-19.634-18.281-27.715-28.817c-11.133-14.516-18.887-32.326-16.445-50.901
				c2.246-17.085,12.763-32.144,22.29-45.964C246.977,119.65,243.177,120.173,242.588,121.028L242.588,121.028z"/>
		</g>
	</g>
	<g>
		<path fill="#B01E34" d="M329.533,80.967c-5.713,3.637-12.465,7.272-16.621,13.504c-17.139-14.542-37.395-21.295-58.69-28.566
			c-36.876-11.946-77.907-29.085-117.381-26.489c29.197,19.976,39.843,50.5,44.53,82.963c33.321-5.495,67.704-5.438,98.302,10.527
			c9.349,5.194,20.256,12.465,29.605,17.139c33.76-6.751,68.559-43.109,92.97-64.922c17.126-15.773,42.462-35.062,65.155-46.677
			c0.271-0.194,0.534-0.394,0.808-0.588c-27.008,0.52-55.574,7.272-81.024,15.582C366.931,60.711,347.712,70.061,329.533,80.967z"/>
		<g>
			<path fill="#4B4B4B" d="M328.492,80.242c-6.25,3.937-12.516,7.649-16.893,13.759c0.84-0.146,1.679-0.293,2.518-0.439
				c-23.416-19.507-54.321-27.047-82.603-36.661c-30.414-10.339-61.999-20.54-94.538-18.642c-0.857,0.05-2.548,1.228-1.341,2.068
				c27.754,19.325,39.406,50.139,44.169,82.473c0.085,0.577,0.956,0.815,1.43,0.739c29.962-4.85,60.934-5.229,89.4,6.592
				c6.896,2.864,13.229,6.766,19.6,10.618c5.726,3.462,11.815,8.093,18.142,10.362c2.988,1.072,9.472-2.13,12.28-3.193
				c6.021-2.281,11.74-5.143,17.3-8.382c22.096-12.873,40.648-31.08,59.362-48.269c20.411-18.749,42.145-36.211,66.497-49.619
				c1.823-1.004,3.75-1.835,5.436-3.062c1.165-0.848,0.233-1.912-0.905-1.884c-49.217,1.196-97.548,18.3-139.509,43.332
				c-1.82,1.085-0.154,2.793,1.393,1.87C371.73,57.146,419.392,40.2,468.074,39.017c-0.302-0.628-0.604-1.256-0.905-1.884
				c-5.099,3.711-11.306,6.312-16.695,9.648c-6.431,3.979-12.658,8.281-18.778,12.719c-11,7.977-21.348,16.704-31.459,25.767
				c-19.062,17.086-37.218,35.297-58.754,49.352c-5.382,3.512-11.024,6.604-16.878,9.253c-2.908,1.316-5.905,2.414-8.944,3.384
				c-3.932,1.255-5.791,1.615-9.479-0.383c-12.424-6.73-23.844-14.969-37.042-20.211c-26.612-10.57-56.238-10.161-84.121-5.998
				c-1.171,0.179-2.342,0.365-3.511,0.558c0.477,0.246,0.953,0.493,1.43,0.739c-4.827-32.767-16.803-63.897-44.89-83.454
				c-0.447,0.689-0.894,1.379-1.341,2.068c32.019-1.867,63.081,8.305,93.007,18.454c28.066,9.519,58.772,17.006,81.995,36.353
				c0.658,0.548,2.047,0.218,2.518-0.439c4.234-5.911,10.315-9.449,16.35-13.25C332.368,80.563,329.786,79.427,328.492,80.242z"/>
		</g>
	</g>
	<g>
		<path fill="#FEC40D" d="M339.403,74.215c-5.715,3.636-16.37,11.187-26.491,20.256c-17.139-14.542-42.07-28.046-63.365-35.318
			c-36.876-11.946-73.233-22.333-112.707-19.737c0.451,0.31,0.889,0.626,1.332,0.941c38.28,1.242,74.732,18,108.258,40.61
			c26.489,18.18,49.342,39.475,62.846,69.079c33.76-6.751,68.559-43.109,92.97-64.922c17.126-15.773,42.462-35.062,65.155-46.677
			c0.271-0.194,0.534-0.394,0.808-0.588c-27.008,0.52-55.574,7.272-81.024,15.582C366.931,60.711,357.58,63.309,339.403,74.215z"/>
		<g>
			<path fill="#4B4B4B" d="M337.916,74.056c-9.457,6.076-18.345,13.031-26.749,20.485c1.177-0.253,2.354-0.505,3.532-0.758
				c-23.291-19.529-50.839-31.665-79.643-40.511c-31.622-9.713-64.165-16.763-97.424-14.749c-0.297,0.018-3.556,0.891-2.578,1.581
				c2.575,1.819,5.659,1.291,8.746,1.521c4.542,0.338,9.059,0.968,13.55,1.719c9.49,1.585,18.788,4.221,27.866,7.375
				c18.317,6.365,35.54,15.606,51.874,25.976c29.092,18.468,55.575,42.139,70.28,73.861c0.236,0.51,1.154,0.426,1.59,0.334
				c30.347-6.415,55.04-29.208,77.22-49.51c12.143-11.116,24.101-22.396,37.015-32.629c7.278-5.769,14.809-11.218,22.522-16.388
				c4.17-2.795,8.432-5.45,12.754-8.003c3.658-2.162,7.797-3.847,11.226-6.343c0.911-0.664,0.059-1.071-0.695-1.052
				c-24.975,0.607-49.567,5.862-73.421,13.033c-19.861,5.971-39.449,13.208-57.311,23.839c-2.195,1.307,1.248,1.36,2.266,0.755
				c17.316-10.308,36.213-17.249,55.438-23.123c23.166-7.077,47.167-12.128,71.443-12.719c-0.231-0.351-0.464-0.701-0.695-1.052
				c-3.182,2.316-7.107,3.925-10.516,5.906c-3.576,2.078-7.079,4.284-10.554,6.526c-7.338,4.734-14.429,9.85-21.37,15.144
				c-11.885,9.064-22.957,19.056-33.932,29.184c-11.806,10.895-23.627,21.778-36.375,31.576
				c-13.151,10.108-27.935,19.69-44.383,23.167c0.53,0.111,1.061,0.223,1.59,0.334c-14.549-31.385-40.412-54.672-69.002-73.241
				c-15.45-10.035-31.791-18.754-48.983-25.404c-8.576-3.317-17.409-5.937-26.382-7.932c-4.004-0.891-8.051-1.579-12.11-2.165
				c-2.254-0.325-4.52-0.562-6.785-0.784c-2.649-0.26-7.036,0.314-9.294-1.281c-0.859,0.527-1.719,1.054-2.578,1.581
				c32.799-1.986,64.723,5.095,95.915,14.588c28.64,8.716,56.034,20.869,79.164,40.262c0.889,0.745,2.826-0.132,3.531-0.758
				c8.229-7.297,16.976-14.08,26.232-20.027C342.571,73.294,338.713,73.544,337.916,74.056z"/>
		</g>
	</g>
	<g>
		<path fill="#FEC40D" d="M241.854,198.016c-16.472,1.622-24.265-9.748-23.663-14.301c3.344-25.341,39.354-29.663,83.628-27.382
			c36.347,1.874,73.019-0.533,80.386,23.628c3.959,14.299-12.513,20.975-23.572,18.21c-7.096-1.773-18.24-10.566-50.009-10.938
			C275.725,186.847,269.241,195.315,241.854,198.016z"/>
		<g>
			<path fill="#4B4B4B" d="M241.966,196.937c-6.125,0.458-11.878-0.601-16.882-4.285c-2.625-1.933-5.708-5.524-5.464-9.03
				c0.634-9.125,7.884-15.742,15.583-19.485c9.989-4.856,21.688-6.091,32.62-6.824c13.931-0.934,27.851-0.097,41.775,0.454
				c12.922,0.511,25.898,0.675,38.729,2.434c10.361,1.42,21.801,4.225,28.677,12.725c3.294,4.071,5.277,9.737,3.857,14.902
				c-1.602,5.83-8.043,8.749-13.488,9.637c-6.914,1.127-12.521-2.069-18.691-4.492c-17.32-6.8-36.791-7.836-55.156-6.276
				C275.961,188.188,259.505,195.108,241.966,196.937c-1.604,0.167-2.133,2.358-0.223,2.159c10.283-1.071,20.135-3.494,30.091-6.185
				c11.45-3.094,22.908-4.564,34.773-4.61c12.275-0.048,24.679,1.313,36.374,5.158c5.083,1.671,9.948,4.625,15.177,5.78
				c7.331,1.621,16.621,0.084,21.98-5.587c6.178-6.537,4.384-15.272-0.568-21.994c-5.192-7.049-14.154-10.199-22.318-12.14
				c-11.998-2.854-24.63-3.074-36.895-3.529c-17.431-0.647-34.872-1.868-52.312-0.836c-12.787,0.756-26.492,2.598-37.738,9.153
				c-6.867,4.003-14.645,12.613-13.461,21.281c1.471,10.773,16.244,14.155,24.896,13.508
				C243.362,198.975,243.879,196.793,241.966,196.937z"/>
		</g>
	</g>
	<g>
		<path fill="#B01E34" d="M247.145,191.741c-14.985,1.22-22.076-7.322-21.529-10.743c3.043-19.038,35.803-22.285,76.083-20.571
			c33.067,1.408,66.432-0.399,73.134,17.751c3.602,10.741-11.383,15.757-21.444,13.68c-6.457-1.333-15.982-7.88-44.885-8.161
			C278.572,183.409,272.06,189.713,247.145,191.741z"/>
		<g>
			<path fill="#4B4B4B" d="M247.648,191.29c-7.626,0.443-23.871-2.772-20.037-13.742c3.307-9.462,14.992-12.814,23.718-14.589
				c13.312-2.708,27.213-2.654,40.734-2.367c14.195,0.301,28.466,0.688,42.636,1.592c11.077,0.707,23.969,1.698,33.2,8.549
				c3.486,2.587,6.111,6.625,6.324,11.009c0.391,8.029-10.844,10.257-16.71,10.082c-5.998-0.179-11.938-3.456-17.658-5.002
				c-11.154-3.015-22.878-3.637-34.375-3.585C285.726,183.326,267.185,189.602,247.648,191.29c-0.583,0.051-2.526,1.033-1.008,0.902
				c10.248-0.886,20.149-3.062,30.194-5.163c13.129-2.745,26.482-3.315,39.855-2.562c9.672,0.544,19.184,2.253,28.339,5.417
				c5.943,2.054,11.014,3.406,17.422,2.46c6.459-0.953,14.399-4.717,14.032-12.262c-0.418-8.586-10.704-13.34-17.616-15.437
				c-11.407-3.46-23.936-3.589-35.743-4.001c-14.355-0.501-28.743-1.237-43.108-1.036c-15.839,0.222-36.076,0.612-49.179,10.95
				c-3.669,2.895-8.122,9.023-5.53,13.752c3.909,7.132,14.195,8.295,21.335,7.881C247.23,192.158,249.172,191.202,247.648,191.29z"
				/>
		</g>
	</g>
	<g>
		<path fill="#FFFFFF" d="M325.375,167.112c0.516,3.476,0.447,10.169,7.086,14.099c-2.078-5.02-2.404-8.094-1.001-9.928
			c1.003-1.49,4.736-4.092,9.041-4.409C336.298,164.948,330.52,164.985,325.375,167.112z"/>
	</g>
	<g>
		<path fill="#B01E34" d="M111.678,238.926C161.17,264.748,226.443,288.419,268.763,325c52.364-20.083,101.138-45.189,157.087-55.23
			c36.58-7.174,78.184-14.347,115.482-7.891c-32.994,10.758-53.079,43.038-72.445,68.859
			c-39.451,53.08-68.859,128.396-125.525,165.693c-14.347,9.326-30.844,20.801-48.058,13.629
			c-19.367-7.174-32.995-23.67-53.796-29.41c-28.692-7.889-55.231-5.02-73.881,18.65c-11.477-7.891-14.712-31.658-13.994-43.854
			c2.151-27.258,14.443-75.236,17.312-102.494c2.152-23.67,3.81-23.891-4.753-45.168
			C156.239,283.056,131.761,256.14,111.678,238.926"/>
		<g>
			<path fill="#4B4B4B" d="M110.444,239.73c52.58,27.336,111.308,46.832,156.871,85.907c0.591,0.508,1.421,0.354,2.09,0.096
				c43.183-16.617,85.035-36.956,129.838-49.061c22.589-6.104,46.027-10.129,69.196-13.298c23.803-3.255,48.155-4.556,71.951-0.579
				c0.235-0.597,0.472-1.193,0.707-1.79c-22.219,7.491-38.739,23.958-53.017,41.945c-14.887,18.755-28.842,38.445-41.554,58.732
				c-26.369,42.082-49.461,88.17-87.35,121.406c-6.965,6.111-14.515,11.344-22.287,16.357c-9.458,6.1-19.779,12.168-31.402,11.852
				c-9.881-0.268-19.738-6.871-27.732-12.139c-7.688-5.064-15.078-10.525-23.293-14.738c-14.656-7.516-33.136-10.145-49.396-7.965
				c-15.698,2.105-29.067,10.559-38.912,22.766c0.901-0.242,1.802-0.482,2.704-0.725c-8.724-6.41-11.5-18.74-12.962-28.854
				c-1.472-10.182-0.288-20.098,1.237-30.193c3.655-24.193,9.364-48.027,13.361-72.162c1.769-10.682,3.026-21.537,3.667-32.348
				c0.546-9.215-2.409-17.473-5.75-25.938c-9.759-24.722-28.29-45.72-47.444-63.694c-2.559-2.401-5.186-4.728-7.843-7.02
				c-0.909-0.784-3.847,0.453-2.895,1.274c20.488,17.672,40.044,38.713,52.001,63.216c4.392,9,8.773,19.418,8.87,29.596
				c0.099,10.383-1.585,21.141-3.135,31.387c-3.651,24.133-9.365,47.906-13.335,71.986c-3.165,19.197-5.014,40.336,5.616,57.77
				c1.591,2.611,3.693,4.785,6.145,6.586c0.793,0.584,2.186-0.082,2.704-0.725c8.799-10.91,20.354-18.316,34.223-20.799
				c12.868-2.303,26.377-0.178,38.793,3.438c23.5,6.84,41.318,33.053,67.323,31.088c12.338-0.934,23.538-8.713,33.567-15.25
				c9.804-6.389,18.812-13.787,27.18-21.961c17.422-17.02,31.584-37.156,44.685-57.586c18.137-28.283,34.058-58.016,53.829-85.236
				c19.517-26.869,39.78-59.161,72.87-70.318c0.616-0.207,2.262-1.53,0.707-1.79c-23.127-3.865-46.611-2.843-69.79,0.021
				c-23.501,2.903-47.233,7.183-70.187,13.012c-46.425,11.789-89.643,33.131-134.177,50.27c0.697,0.033,1.394,0.064,2.09,0.096
				c-45.727-39.216-104.53-58.807-157.299-86.242C111.912,237.602,109.06,239.01,110.444,239.73L110.444,239.73z"/>
		</g>
	</g>
	<g>
		<g>
			<path fill="#4B4B4B" d="M203.784,461.73c3.026-45.727,31.101-85.342,54.96-122.748c1.003-1.574-2.854-1.283-3.571-0.16
				c-23.952,37.553-52.174,77.43-55.213,123.344C199.85,463.83,203.693,463.104,203.784,461.73L203.784,461.73z"/>
		</g>
	</g>
	<g>
		<path fill="#222226" d="M429.774,384.27c-11.426,5.662-18.697,26.037-33.24,24.906c-23.372-1.133-16.102-39.057-11.946-53.207
			c8.83-27.172,28.048-52.077,53.498-61.699c5.713-2.267,18.697-7.359,23.372-1.7c7.271,9.058-5.194,30.002-9.35,36.227"/>
		<g>
			<path fill="#4B4B4B" d="M428.332,384.281c-7.926,4.229-12.741,12.432-18.985,18.6c-4.631,4.574-10.223,6.838-16.575,4.523
				c-3.73-1.357-6.295-4.506-7.968-7.979c-3.552-7.367-3.042-16.586-2.215-24.482c0.899-8.584,2.882-17.049,5.923-25.119
				c8.964-23.789,26.507-45.957,50.651-55.384c5.501-2.147,12.272-5.191,18.155-2.995c4.647,1.734,4.711,8.167,4.222,12.167
				c-1.108,9.066-6.348,18.044-11.306,25.546c-0.175,0.266,3.155,0.174,3.748-0.721c5.339-8.08,22.64-40.668,0.676-39.115
				c-8.979,0.635-18.064,4.473-25.975,8.561c-10.304,5.325-19.072,13.298-26.419,22.183c-13.128,15.877-21.133,35.514-23.489,55.898
				c-1.645,14.234-0.015,34.607,18.742,33.928c15.943-0.578,21.257-18.994,33.699-25.633
				C432.795,383.418,428.961,383.945,428.332,384.281L428.332,384.281z"/>
		</g>
	</g>
	<g>
		<path fill="#D9E4F4" d="M449.125,329.24c-46.358,23.887-43.241,82.059-32.777,125.73c0.806,4.354,1.618,8.711,2.374,13.094
			c1.515,8.768,2.804,17.643,3.352,26.799c0.282,4.92,0.474,9.838,0.54,14.758c0.202,14.762-0.701,29.557-3.551,44.58
			c0.346,6.949,1.364,15.9,4.675,22.262c3.311,6.365,8.895,10.129,18.504,6.754c5.454-1.949,10.062-5.584,14.007-10.242
			c3.943-4.658,7.223-10.34,10.015-16.379c2.403-6.189,4.745-12.385,7.03-18.58c29.196-47.771,44.778-109.059,31.573-164.307
			c-2.024-6.906-4.745-13.686-8.051-20.27c-3.937-6.061-8.608-11.74-14.062-16.934c-3.116-3.117-7.791-3.895-12.808-3.684
			c-5.016,0.209-10.376,1.406-14.861,2.246"/>
		<g>
			<path fill="#4B4B4B" d="M447.998,328.885c-18.242,9.611-30.468,25.5-36.1,45.238c-5.7,19.98-4.565,41.602-1.369,61.896
				c1.918,12.178,4.899,24.154,6.92,36.32c2.606,15.695,3.507,31.527,3.224,47.426c-0.148,8.354-0.816,16.689-1.908,24.973
				c-0.409,3.102-1.78,6.881-1.608,9.975c0.196,3.547,0.534,7.061,1.088,10.57c1.365,8.656,5.517,20.186,16.086,20.062
				c10.708-0.127,19.496-6.92,25.746-15.092c8.779-11.479,11.342-25.928,18.477-38.223c13.818-23.814,23.651-49.988,28.985-76.99
				c5.219-26.42,5.487-53.889-0.386-80.215c-3-13.451-9.683-25.295-18.96-35.33c-4.111-4.447-7.656-6.943-13.753-7.518
				c-6.323-0.592-12.876,1.094-19.032,2.27c-1.601,0.305-3.305,2.148-0.646,1.641c7.429-1.418,15.475-3.646,22.852-0.971
				c3.256,1.182,5.895,4.74,8.167,7.199c3.008,3.254,5.699,6.795,8.208,10.441c8.051,11.705,10.771,27.582,12.463,41.379
				c3.482,28.42-0.282,57.42-8.375,84.75c-3.998,13.5-9.282,26.605-15.458,39.248c-2.923,5.984-6.133,11.822-9.512,17.559
				c-4.211,7.15-5.961,15.541-9.506,23.043c-5.112,10.824-22.018,35.205-35.512,21.053c-4.122-4.324-5.385-11.234-6.277-16.893
				c-1.312-8.318,0.518-16.139,1.443-24.402c2.638-23.527,1.349-47.453-2.626-70.74c-2.946-17.266-7.26-34.121-8.48-51.656
				c-2.34-33.605,6.132-69.457,38.104-86.303C452.505,328.408,449.003,328.355,447.998,328.885L447.998,328.885z"/>
		</g>
	</g>
	<g>
		<path fill="#222226" d="M459.381,576.984c-24.412,4.672-20.257-42.072-10.389-52.459c8.83-9.35,19.218-8.311,24.412,4.154
			c8.31,18.697-4.156,41.031-16.621,54.537"/>
		<g>
			<path fill="#4B4B4B" d="M459.599,575.77c-21.788,3.654-17.195-33.469-12.496-45.002c2.018-4.949,5.705-9.15,10.924-10.873
				c9.395-3.102,14.348,9.805,15.687,16.641c3.292,16.809-7.728,34.393-18.49,46.252c-1.569,1.729,2.13,1.951,3.121,0.859
				c12.806-14.111,24.484-34.582,17.565-54.031c-2.259-6.352-7.284-12.889-14.714-12.523c-6.398,0.314-12.35,4.344-15.778,9.662
				c-8.722,13.529-11.851,55.738,13.746,51.445C461.099,577.873,462.207,575.332,459.599,575.77L459.599,575.77z"/>
		</g>
	</g>
	<g>
		<path fill="#B01E34" d="M465.671,602.326c42.88-14.215,61.191-69.061,56.351-110.539c-1.825-16.074-12.341-23.691-28.415-21.865
			c-33.694,4.193-34.514,48.881-36.68,74.889"/>
		<g>
			<path fill="#4B4B4B" d="M465.921,603.262c40.423-13.842,58.607-59.639,58.429-99.463c-0.042-9.279-0.477-19.395-6.355-27.025
				c-5.363-6.961-14.607-8.535-22.849-7.996c-18.074,1.182-28.688,15.568-33.606,31.637c-4.403,14.387-4.967,29.664-6.188,44.553
				c-0.12,1.467,3.051,0.928,3.152-0.312c1.5-18.285,1.974-37.656,10.017-54.52c4.219-8.846,11.164-15.764,20.744-18.41
				c11.046-3.051,23.332,0.062,28.616,10.797c4.526,9.197,3.658,21.727,3.007,31.66c-0.708,10.787-2.899,21.467-6.24,31.738
				c-6.876,21.139-20.213,41.154-40.259,51.686c-2.875,1.51-5.898,2.736-8.967,3.787
				C463.578,602.023,464.035,603.906,465.921,603.262L465.921,603.262z"/>
		</g>
	</g>
	<g>
		<path fill="#5B616C" d="M433.546,646.061c-8.053-30.125-12.655-111.668,26.461-104.916c47.554,8.311,35.282,81.025,30.296,127.25"
			/>
		<g>
			<path fill="#4B4B4B" d="M435.452,645.551c-4.019-15.27-5.415-31.387-5.481-47.133c-0.066-15.752,0.963-34.445,10.036-47.945
				c9.728-14.473,29.21-8.229,39.382,2.57c12.213,12.967,13.888,33.486,14.174,50.359c0.37,21.84-2.812,43.584-5.163,65.242
				c-0.16,1.475,3.672,0.738,3.807-0.5c2.147-19.781,4.821-39.529,5.162-59.453c0.294-17.242-0.823-36.07-9.967-51.193
				c-7.325-12.115-22.82-20.266-36.999-17.086c-13.091,2.938-18.732,17.066-21.407,28.738c-3.062,13.361-3.225,27.422-2.541,41.051
				c0.611,12.193,2.073,24.545,5.186,36.371C431.977,647.852,435.791,646.836,435.452,645.551L435.452,645.551z"/>
		</g>
	</g>
	<g>
		<path fill="#FEC40D" d="M423.023,633.076c-17.66-29.086-31.163-72.715-12.984-104.396c9.349-17.141,32.721-32.723,48.822-14.023
			c-31.683,36.877-22.854,99.723-14.543,143.871"/>
		<g>
			<path fill="#4B4B4B" d="M424.93,632.566c-13.433-22.354-23.015-48.748-21.433-75.148c0.761-12.705,4.962-25.34,12.729-35.484
				c8.13-10.617,22.363-19.516,35.244-11.588c2.241,1.379,6.101,3.754,3.89,6.477c-1.721,2.117-3.266,4.371-4.749,6.658
				c-3.02,4.656-5.448,9.672-7.526,14.811c-4.403,10.889-6.58,22.596-7.703,34.242c-2.277,23.613,0.425,47.551,4.247,70.857
				c0.857,5.227,1.807,10.439,2.783,15.646c0.199,1.064,4.033,0.154,3.812-1.021c-4.528-24.141-8.175-48.57-7.761-73.197
				c0.418-24.863,5.751-50.768,22.148-70.213c0.18-0.215,0.228-0.432,0.032-0.648c-8.453-9.326-20.53-10.953-31.66-5.34
				c-12.733,6.422-21.208,18.225-25.816,31.477c-10.729,30.848,1.949,66.867,17.949,93.494
				C421.787,634.703,425.391,633.332,424.93,632.566L424.93,632.566z"/>
		</g>
	</g>
	<g>
		<path fill="#222226" d="M170.256,530.238c-3.117,4.502-5.259,9.998-6.634,16.014c-1.374,6.018-1.98,12.553-2.022,19.133
			c0.172,5.756,0.432,11.699,1.03,17.629c2.776,23.055,12.126,57.334,38.095,57.334c17.659-1.037,22.853-23.891,25.96-39.439"/>
		<g>
			<path fill="#4B4B4B" d="M168.495,530.25c-11.06,16.764-9.92,39.762-7.009,58.773c2.208,14.416,6.355,29.66,15.692,41.184
				c7.945,9.805,21.689,14.449,33.165,8.064c12.52-6.965,15.69-24.93,18.242-37.629c0.263-1.311-3.559-0.66-3.798,0.531
				c-2.383,11.855-4.983,26.125-14.502,34.52c-12.179,10.738-27.722-2.789-33.978-13.289c-6.547-10.99-9.519-24.113-11.343-36.643
				c-2.61-17.924-3.344-39.771,7.053-55.533C172.927,528.85,169.12,529.303,168.495,530.25L168.495,530.25z"/>
		</g>
	</g>
	<g>
		<path fill="#B01E34" d="M169.216,519.85c5.887,33.242,74.099,57.135,106.301,50.9c16.621-3.115,73.234-30.643,41.032-49.861
			c20.256,6.754,29.604,32.723,34.279,51.42c-24.931-9.35-50.38,9.867-67.521,25.971c-13.504,12.465-27.527,27.006-34.799,44.146
			c-2.078,4.676-2.078,8.83-6.751,10.389c-51.42-5.193-82.583-59.211-77.688-108.246
			C164.819,534.914,166.561,526.082,169.216,519.85z"/>
		<g>
			<path fill="#4B4B4B" d="M167.651,520.27c3.329,17.166,19.979,28.596,34.418,36.154c17.13,8.969,36.643,14.645,55.956,15.836
				c14.576,0.898,27.306-3.09,40.222-9.555c10.694-5.354,28.691-14.883,29.594-28.627c0.409-6.229-5.07-10.801-9.819-13.732
				c-0.918,0.389-1.836,0.777-2.755,1.164c20.718,7.377,29.082,31.807,33.996,51.219c0.949-0.348,1.898-0.695,2.848-1.043
				c-23.304-8.184-46.2,5.914-63.424,20.572c-10.327,8.789-20.177,18.469-28.656,29.057c-3.868,4.83-7.283,10-10.232,15.438
				c-1.51,2.781-2.813,5.691-3.886,8.668c-0.441,1.223-0.85,2.438-1.351,3.637c-1.439,3.447-4.031,2.873-6.952,2.395
				c-46.057-7.525-73.126-55.736-72.452-99.387c0.168-10.869,1.489-22.352,5.606-32.482c0.243-0.598-2.759-0.287-3.093,0.535
				c-8.514,20.949-7.095,46.893-0.506,68.135c6.332,20.414,18.963,39.051,36.464,51.455c8.604,6.1,18.479,10.244,28.76,12.484
				c2.901,0.631,7.385,2.098,10.279,0.857c4.843-2.076,5.528-6.352,7.388-10.891c5.47-13.342,15.151-24.66,25.15-34.83
				c9.661-9.826,20.015-19.271,31.629-26.74c12.849-8.26,27.811-12.891,42.711-7.658c0.477,0.168,3.052-0.234,2.848-1.041
				c-4.998-19.746-13.524-44.133-34.562-51.623c-0.585-0.209-3.347,0.799-2.755,1.164c6.028,3.721,11.241,9.158,9.049,16.701
				c-2.125,7.312-9.51,12.826-15.449,16.932c-12.967,8.967-28.451,16.064-44.425,16.016c-19.952-0.064-40.423-6.328-58.145-15.18
				c-14.763-7.373-31.958-19.107-35.325-36.469C170.645,518.723,167.494,519.463,167.651,520.27z"/>
		</g>
	</g>
	<g>
		<path fill="#FEC40D" d="M398.537,405.432c-16.395-25.9-7.716-58.537,12.021-82.43c24.411-30.125,70.118-30.644,100.762-9.348
			c31.683,21.812,33.76,65.441,5.713,91.412C487.427,432.072,419.602,438.707,398.537,405.432z"/>
		<g>
			<path fill="#4B4B4B" d="M400.312,404.699c-14.812-24.137-8.093-53.184,7.165-75.32c14.729-21.371,38.207-31.579,63.92-29.055
				c23.007,2.257,46.368,14.702,57.27,35.651c10.429,20.043,6.821,44.453-6.805,61.977c-14.731,18.945-40.979,27.238-64.07,28.75
				C436.992,428.064,412.478,423.355,400.312,404.699c-0.658-1.008-4.365,0.211-3.549,1.463
				c9.758,14.963,27.86,21.189,44.963,22.477c19.552,1.473,39.647-2.291,57.394-10.615c17.99-8.439,32.176-22.924,37.529-42.373
				c5.591-20.312-1.069-42.062-16.004-56.609c-24.032-23.407-65.049-27.734-93.89-11.406c-16.119,9.125-27.498,25.828-33.997,42.822
				c-7.026,18.373-6.384,38.775,4.005,55.705C397.385,407.178,401.1,405.984,400.312,404.699z"/>
		</g>
	</g>
	<g>
		<path fill="#B01E34" d="M230.074,205.744c-9.054,5.659-17.73,14.712-19.993,25.274"/>
		<g>
			<path fill="#4B4B4B" d="M228.875,205.697c-9.391,6.051-17.619,14.469-20.338,25.596c-0.167,0.685,2.898,0.23,3.089-0.551
				c2.643-10.813,10.496-19.055,19.648-24.952C232.584,204.946,229.434,205.336,228.875,205.697L228.875,205.697z"/>
		</g>
	</g>
	<g>
		<path fill="#B01E34" d="M371.157,209.139c8.676,5.658,16.221,14.334,20.37,23.765"/>
		<g>
			<path fill="#4B4B4B" d="M369.694,209.719c8.798,5.919,15.836,13.946,20.268,23.604c0.439,0.958,3.489-0.059,3.131-0.839
				c-4.478-9.76-11.571-17.936-20.473-23.925C371.782,207.996,369,209.251,369.694,209.719L369.694,209.719z"/>
		</g>
	</g>
	<g>
		<path fill="#222226" d="M296.713,234.414c6.791,0,14.841,0,21.631,0c0.378,2.262,0.378,4.148,0.378,6.411
			c-7.168,1.133-14.712,1.51-21.879,1.133C296.844,239.317,296.713,236.677,296.713,234.414z"/>
		<g>
			<path fill="#4B4B4B" d="M295.932,235.345c7.21,0,14.421,0,21.631,0c-0.375-0.14-0.75-0.28-1.124-0.42
				c0.286,2.146,0.37,4.248,0.378,6.411c0.736-0.466,1.475-0.932,2.211-1.398c-4.319,0.645-8.643,1.035-13.008,1.189
				c-1.028,0.037-7.266,0.688-7.283-1.261c-0.017-1.988-0.098-3.975-0.117-5.962c-0.009-0.933-3.825-0.276-3.812,1.021
				c0.024,2.515,0.108,5.029,0.13,7.544c0.002,0.269,0.535,0.395,0.706,0.402c7.638,0.339,15.212-0.028,22.774-1.158
				c0.688-0.103,2.215-0.484,2.211-1.398c-0.008-2.164-0.092-4.265-0.378-6.411c-0.057-0.423-0.853-0.42-1.124-0.42
				c-7.211,0-14.421,0-21.632,0C296.267,233.483,293.37,235.345,295.932,235.345z"/>
		</g>
	</g>
	<g>
		<path fill="#B01E34" d="M364.849,127.712c18.179-4.674,35.838-7.79,55.056-7.79"/>
		<g>
			<path fill="#4B4B4B" d="M365.073,128.552c17.806-4.531,35.823-7.594,54.235-7.693c1.231-0.006,3.31-1.885,1.191-1.873
				c-18.967,0.102-37.533,3.219-55.876,7.887C362.724,127.356,363.183,129.033,365.073,128.552L365.073,128.552z"/>
		</g>
	</g>
</g>
</svg>
