<?xml version="1.0" encoding="utf-8"?>
<!-- Generator: Adobe Illustrator 16.2.1, SVG Export Plug-In . SVG Version: 6.00 Build 0)  -->
<!DOCTYPE svg PUBLIC "-//W3C//DTD SVG 1.1//EN" "http://www.w3.org/Graphics/SVG/1.1/DTD/svg11.dtd">
<svg version="1.1" id="Layer_1" xmlns="http://www.w3.org/2000/svg" xmlns:xlink="http://www.w3.org/1999/xlink" x="0px" y="0px"
	 width="612px" height="612px" viewBox="0 0 612 612" enable-background="new 0 0 612 612" xml:space="preserve">
<g>
	<g>
		<path fill="#D9E4F4" d="M219.932,697.899c-8.135-22.708-10.846-46.434-6.102-70.497c2.713-13.557,8.135-27.793,14.914-39.656
			c3.389-5.761,10.845-18.302,18.641-19.996c23.048-4.746,28.47,45.417,29.149,56.603c1.355,31.182,0,63.378-4.406,94.222"/>
		<g>
			<path fill="#4B4B4B" d="M221.838,697.389c-10.621-30.2-11.174-61.977,0.371-91.993c4.371-11.364,10.352-23.378,18.886-32.235
				c7.344-7.622,15.602-4.044,20.914,3.477c8.712,12.335,10.958,29.946,12.337,44.621c2.724,28.972,0.565,59.21-2.885,88.023
				c-0.379,3.166-0.81,6.324-1.254,9.481c-0.247,1.753,3.626,1.143,3.84-0.377c4.406-31.313,5.709-62.96,4.393-94.544
				c-0.587-14.098-3.415-29.243-9.207-42.125c-2.557-5.687-6.418-11.896-12.452-14.349c-7.028-2.858-13.612-0.099-18.815,4.897
				c-8.149,7.825-13.63,19.336-18.005,29.531c-5.778,13.465-9.195,27.78-10.169,42.391c-1.227,18.422,2.136,36.885,8.234,54.223
				C218.574,699.968,222.366,698.888,221.838,697.389L221.838,697.389z"/>
		</g>
	</g>
	<g>
		<path fill="#D9E4F4" d="M417.529,665.701c4.067-21.015,16.607-78.294,49.145-68.804c13.897,3.729,17.624,20.676,21.015,32.877
			c5.422,19.658,8.812,39.995,10.167,60.669"/>
		<g>
			<path fill="#4B4B4B" d="M419.451,665.52c2.311-11.891,5.144-23.709,9.339-35.089c4.344-11.784,10.808-26.101,22.859-31.716
				c6.477-3.018,14.489-1.57,20.167,2.451c6.925,4.903,9.767,14.372,12.023,22.102c6.453,22.096,10.534,44.721,12.109,67.687
				c0.105,1.548,3.929,0.676,3.812-1.021c-1.705-24.869-5.919-50.15-14.033-73.787c-2.752-8.015-7.139-15.828-15.149-19.46
				c-5.719-2.592-12.573-2.737-18.476-0.762c-13.007,4.354-20.42,18.351-25.339,30.164c-5.303,12.732-8.533,26.29-11.157,39.795
				C415.27,667.623,419.151,667.063,419.451,665.52L419.451,665.52z"/>
		</g>
	</g>
	<g>
		<path fill="#222226" d="M257.341,416.644c-21.783,15.696-21.783,47.089-9.931,68.872c2.883,5.123,6.085,10.249,10.572,14.414
			c2.562,2.242,4.271,3.1,4.91,6.305c0.961,4.164-2.028,7.789-0.746,12.274c1.601,8.328,6.726,16.337,13.132,22.103
			c16.979,15.377,45.808,17.939,67.591,16.016c22.744-2.562,54.777-18.898,50.933-46.446c-1.281-8.009-9.952-16.692-17.961-17.652
			c1.858-7.429-2.101-14.188-5.082-14.934c8.009-23.063-0.342-56.146-17.959-73.124c-14.096-13.774-34.277-21.142-53.176-23.064
			c-9.931-1.28-20.502-1.28-29.47,2.562c-8.97,3.845-13.774,11.853-18.9,19.859"/>
		<g>
			<path fill="#4B4B4B" d="M256.081,415.79c-17.49,13.042-21.47,35.434-16.324,55.706c2.65,10.44,8.441,22.47,16.753,29.524
				c2.783,2.361,4.713,4.156,4.598,8.076c-0.081,2.756-1.235,5.286-1.172,8.098c0.132,5.899,3.807,12.203,7.048,16.921
				c13.37,19.463,40.034,24.137,61.947,24.438c19.433,0.267,40.117-4.69,54.689-18.319c7.511-7.024,12.443-15.949,12.421-26.403
				c-0.023-10.93-8.816-20.858-19.535-22.671c0.421,0.406,0.843,0.812,1.265,1.219c1.062-5.488,0.11-13.687-5.907-16.054
				c0.238,0.492,0.478,0.985,0.716,1.479c10.239-30.809-3.862-67.148-30.924-84.206c-15.295-9.64-34.087-13.999-52.022-14.323
				c-8.61-0.156-17.289,1.426-24.694,5.958c-6.903,4.226-11.266,11.752-15.505,18.389c-1.129,1.769,2.761,1.793,3.641,0.416
				c4.068-6.368,8.058-12.732,14.385-17.098c8.322-5.743,20.172-5.362,29.742-4.376c16.813,1.734,33.021,6.84,46.82,16.799
				c22.962,16.573,33.846,51.159,24.917,78.025c-0.232,0.7,0.022,1.206,0.716,1.479c4.895,1.926,5.059,9.667,4.257,13.813
				c-0.146,0.755,0.681,1.12,1.265,1.219c14.312,2.42,19.485,18.009,15.482,30.371c-3.326,10.27-12.363,17.687-21.504,22.695
				c-20.28,11.113-46.028,11.046-67.919,5.211c-12.725-3.392-24.154-10.115-31.695-21.093c-3.913-5.695-6.655-12.772-5.056-19.643
				c1.178-5.062-0.1-8.467-3.985-11.713c-9.575-8.001-15.291-21.151-17.828-33.113c-2.383-11.229-1.512-23.223,3.227-33.719
				c2.795-6.191,7.29-11.361,12.703-15.397C260.68,415.946,257.574,414.677,256.081,415.79L256.081,415.79z"/>
		</g>
	</g>
	<g>
		<path fill="#222226" d="M141.978,497.929c-3.432,2.796-6.736,7.245-9.278,11.058c-1.907,2.797-4.068,6.863-4.703,10.296
			c-0.764,4.32,0.127,9.277,0.381,13.6c0.382,4.829,1.017,9.659,2.67,14.234c2.668,7.372,6.227,14.616,12.074,19.955
			c6.991,6.355,17.032,9.913,26.563,9.151c6.482-0.637,12.202-2.67,14.871-8.897c2.288-5.465,3.432-11.821,4.576-17.54
			c2.034-9.659,2.669-21.861-0.763-31.139c-7.117-19.827-30.122-28.725-48.934-19.955"/>
		<g>
			<path fill="#4B4B4B" d="M140.237,498.02c-8.242,7.168-14.922,17.411-14.338,28.572c0.661,12.63,3.038,24.434,10.18,35.082
				c5.926,8.835,15.641,13.875,25.999,15.286c7.92,1.079,17.796-0.636,22.894-7.305c3.159-4.133,4.042-10.435,5.088-15.388
				c1.108-5.248,2.065-10.484,2.485-15.836c0.833-10.621-1.079-21.087-7.437-29.78c-10.72-14.656-30.998-17.312-46.796-10.302
				c-2.313,1.026,1.25,1.126,2.246,0.684c15.74-6.984,34.137-0.292,43.046,14.055c9.405,15.146,5.222,37.227-0.34,53.034
				c-4.105,11.667-18.285,10.366-27.774,6.84c-9.612-3.572-15.973-11.493-20.185-20.52c-4.225-9.056-5.168-18.745-5.684-28.609
				c-0.518-9.888,6.971-19.798,14.096-25.995C144.645,497.032,140.978,497.375,140.237,498.02L140.237,498.02z"/>
		</g>
	</g>
	<g>
		<path fill="#FEC40D" d="M492.095,399.977c-11.186,11.863-21.015,21.354-27.453,36.945c-8.474,20.674-11.863,44.06-8.135,66.091
			c3.389,22.708,36.604,23.387,54.229,22.708c0.339-10.846,8.812-21.691,13.557-30.843c10.169-18.643,19.997-37.282,23.387-57.956
			c3.39-20.336,4.406-44.739-10.846-60.33c-7.456-7.458-15.93-12.881-26.775-13.219c-14.914-0.678-20.677,8.474-25.42,21.352"/>
		<g>
			<path fill="#4B4B4B" d="M490.822,399.967c-12.178,12.885-23.202,25.214-29.461,42.082c-6.815,18.373-9.209,38.406-6.756,57.842
				c1.596,12.644,9.039,19.726,20.981,23.438c11.067,3.44,23.127,3.558,34.607,3.137c0.475-0.017,1.865-0.24,1.911-0.927
				c0.76-11.493,8.231-20.828,13.46-30.651c5.413-10.17,10.896-20.247,15.381-30.876c8.087-19.167,12.353-41.508,9.279-62.274
				c-2.706-18.277-16.01-34.858-34.595-38.598c-6.905-1.39-14.498-0.521-20.439,3.373c-6.264,4.105-9.4,11.668-11.922,18.394
				c-0.322,0.859,2.409,0.515,2.738-0.363c2.659-7.095,5.87-14.487,12.729-18.423c9.246-5.306,21.866-0.664,29.799,4.918
				c15.701,11.047,20.329,29.009,19.8,47.308c-0.549,18.99-5.786,37.079-13.762,54.214c-4.391,9.433-9.334,18.729-14.587,27.71
				c-4.688,8.015-9.989,16.112-10.619,25.633c0.637-0.309,1.274-0.618,1.911-0.927c-10.946,0.4-22.044,0.143-32.685-2.703
				c-5.553-1.485-10.875-4.039-15.02-8.07c-5.108-4.968-5.902-11.827-6.639-18.555c-1.993-18.207,1.058-36.795,7.164-53.963
				c5.968-16.775,17.27-29.004,29.268-41.698C494.145,399.164,491.398,399.357,490.822,399.967L490.822,399.967z"/>
		</g>
	</g>
	<g>
		<path fill="#222226" d="M461.609,389.362c-2.392,15.021,10.827,30.273,26.079,29.257c2.034,0,5.085-1.019,7.118-2.033
			c6.1-5.085,13.218-9.151,16.269-16.271c2.033-5.084,4.067-9.15,4.067-14.235c-1.017-7.116-7.118-12.2-12.515-16.168
			c-5.872-3.083-13.053-4.146-20.14-3.961c-7.086,0.186-14.076,1.615-19.542,3.521"/>
		<g>
			<path fill="#4B4B4B" d="M459.703,389.873c-1.685,13.159,7.044,25.346,19.666,28.854c11.468,3.188,22.529-4.557,29.686-12.859
				c4.635-5.378,7.684-13.198,7.994-20.299c0.273-6.253-7.219-12.174-11.533-15.482c-5.835-4.475-14.728-4.951-21.78-4.872
				c-7.273,0.08-14.555,1.587-21.433,3.882c-2.592,0.864-0.121,1.222,1.287,0.752c12.741-4.25,29.43-5.63,40.514,3.219
				c4.042,3.228,7.389,7.108,8.863,12.127c1.561,5.314-2.486,13.452-5.093,18.007c-2.571,4.495-7.257,7.689-11.28,10.778
				c-6.956,5.338-14.198,4.461-21.176,0.211c-8.563-5.216-13.155-15.547-11.902-25.339
				C463.563,388.477,459.844,388.77,459.703,389.873L459.703,389.873z"/>
		</g>
	</g>
	<g>
		<path fill="#D9E4F4" d="M340.93,341.681c4.745-8.134,9.489-18.979,18.98-22.031c14.235-4.405,30.844,0,44.4,3.392
			c16.269,3.727,32.2,8.811,47.79,14.572c5.253,2.033,10.846,4.067,16.226,6.525c5.38,2.456,10.549,5.338,14.956,9.065
			c4.406,4.661,7.203,10.127,8.537,15.798c1.335,5.682,1.207,11.572-0.225,17.149c-3.906,19.249-24.241,29.416-42.544,28.4
			c-18.303-2.032-32.537-13.218-48.029-22.026c-4.697-2.531-9.455-4.842-14.429-6.62c-4.974-1.774-10.165-3.018-15.732-3.404
			c-4.456-0.129-8.986,0.314-13.61,1.491"/>
		<g>
			<path fill="#4B4B4B" d="M342.688,341.656c2.735-4.752,5.246-9.619,8.534-14.025c5.743-7.695,14.227-9.007,23.328-8.825
				c15.591,0.312,31.994,5.667,46.848,9.958c14.837,4.285,29.588,9.395,43.774,15.508c6.769,2.918,13.852,6.471,18.575,12.264
				c5.243,6.43,7.353,14.925,7.032,23.079c-0.505,12.852-7.839,23.512-19.022,29.459c-12.848,6.833-26.925,4.92-39.78-0.674
				c-23.887-10.392-44.912-32.306-73.219-25.641c-0.576,0.136-1.152,0.271-1.729,0.407c-2.293,0.539-1.824,2.187,0.443,1.652
				c31.446-7.403,53.924,21.26,81.987,29.078c17.959,5.002,41.938-1.898,50.898-19.349c5.928-11.543,5.655-25.337-0.993-36.479
				c-6.899-11.562-22.299-16.172-34.144-20.703c-14.401-5.508-29.151-10.156-44.101-13.928c-13.701-3.455-27.737-7.457-42.002-6.394
				c-6.439,0.48-12.544,2.188-17.516,6.405c-5.625,4.771-8.824,11.988-12.431,18.256
				C338.347,343.138,342.137,342.614,342.688,341.656L342.688,341.656z"/>
		</g>
	</g>
	<g>
		<path fill="#B01E34" d="M335.828,331.451c5.944-7.998,20.213-11.726,27.397-3.97c7.049,7.267,4.696,15.843-1.903,22.44"/>
		<g>
			<path fill="#4B4B4B" d="M336.78,331.819c5.101-6.364,14.125-9.649,21.875-6.413c11.045,4.613,8.146,17.344,1.715,24.147
				c-0.987,1.043,1.167,1.518,1.904,0.736c7.831-8.283,8.932-20.521-2.338-26.474c-8.312-4.393-19.666,0.533-25.061,7.267
				C333.969,332.214,336.098,332.672,336.78,331.819L336.78,331.819z"/>
		</g>
	</g>
	<g>
		<path fill="#727886" d="M284.668,323.718c-11.463,0.317-18.64,1.356-30.163,2.373c-14.914,1.694-32.198,4.067-46.772,7.795
			c-33.215,8.474-36.945,34.91-27.793,65.076c9.151,31.182,14.914,56.262,36.604,84.394c10.573,13.711,28.811,20.676,45.756,18.979
			c-12.54-15.93,5.762-35.249,7.796-38.638c14.233-19.996,45.755-27.453,70.836-25.419c12.459,1.009,21.354,6.438,29.487,19.318
			c4.179,6.616,3.729,13.558,0.34,19.998c10.507-5.085,7.795-9.151,11.522-20.677c5.763-18.64,5.085-38.977,4.067-58.295
			c-1.693-28.133-13.556-57.279-34.231-67.109C323.085,317.711,309.072,323.041,284.668,323.718z"/>
		<g>
			<path fill="#4B4B4B" d="M285.414,322.61c-13.661,0.435-27.336,1.906-40.888,3.636c-13.792,1.759-27.981,3.699-41.282,7.885
				c-18.555,5.838-29.452,20.36-29.543,39.781c-0.052,11.04,3.159,21.55,6.193,32.044c3.654,12.64,7.244,25.302,11.997,37.583
				c8.857,22.885,22.51,48.872,47.083,57.296c7.411,2.541,15.292,3.246,23.066,2.583c0.679-0.058,2.802-0.816,2.048-1.842
				c-8.505-11.561-2.037-24.594,5.494-34.69c7.968-10.684,17.309-17.798,29.91-22.428c13.952-5.128,30.9-7.167,45.574-4.372
				c7.185,1.369,13.134,5.437,17.998,10.753c7.116,7.779,10.766,16.729,5.897,26.707c-0.71,1.455,1.86,1.213,2.562,0.857
				c6.173-3.126,9.152-6.577,10.579-13.331c2.392-11.316,5.642-21.961,6.482-33.604c1.638-22.669,0.425-46.952-7.903-68.291
				c-3.482-8.922-8.518-17.341-15.25-24.183c-6.837-6.948-16.122-10.942-25.268-13.874
				C321.867,319.256,304.176,322.015,285.414,322.61c-1.441,0.046-4.091,2.298-1.492,2.215c16.705-0.53,32.989-3.242,49.449,1.075
				c9.861,2.587,19.934,6.762,27.528,13.691c6.913,6.308,11.713,14.707,15.356,23.222c8.283,19.355,9.168,41.002,8.794,61.76
				c-0.208,11.538-1.717,22.947-5.131,33.984c-2.385,7.71-1.861,14.146-9.926,18.229c0.854,0.286,1.708,0.572,2.562,0.857
				c4.162-8.531,3.083-15.846-2.169-23.546c-4.688-6.876-10.999-12.298-18.902-15.031c-14.933-5.164-34.18-2.102-48.926,2.25
				c-14.653,4.323-26.506,12.183-35.693,24.312c-8.244,10.884-15.632,24.855-6.355,37.466c0.683-0.614,1.366-1.228,2.048-1.842
				c-13.343,1.139-26.576-2.906-37.034-11.254c-10.318-8.235-17.584-21.608-23.446-33.186c-5.631-11.122-9.698-22.955-13.339-34.851
				c-3.551-11.599-7.462-23.351-9.791-35.266c-1.852-9.471-2.11-19.397,0.929-28.645c3.248-9.884,11.148-16.73,20.506-20.705
				c12.891-5.475,28.109-6.86,41.874-8.706c13.785-1.849,27.758-3.373,41.665-3.815C285.363,324.779,288.013,322.527,285.414,322.61
				z"/>
		</g>
	</g>
	<g>
		<path fill="#D9E4F4" d="M339.575,351.851c-8.816-14.696-19.113-25.385-34.036-29.419c-6.452,0.391-13.14,1.072-20.871,1.286
			c-10.845,0.302-17.861,1.247-28.345,2.209c-4.707,1.991-8.87,4.681-11.986,8.3c-17.625,20.673-12.541,50.499-3.729,74.225
			c6.439,18.304,13.219,35.588,21.353,52.874c0.952,1.99,2.457,4.756,4.089,7.891c1.895-2.684,3.518-4.64,4.045-5.519
			c14.233-19.996,45.755-27.453,70.836-25.419c2.515,0.203,4.878,0.597,7.123,1.186
			C350.123,409.148,355.179,378.221,339.575,351.851z"/>
		<g>
			<path fill="#4B4B4B" d="M341.347,351.109c-5.37-8.828-11.649-17-20.159-23.008c-3.501-2.471-7.357-4.317-11.384-5.75
				c-4.542-1.615-9.227-0.593-13.955-0.249c-11.916,0.866-23.792,1.281-35.692,2.448c-10.279,1.008-17.813,8.531-22.815,17.143
				c-10.314,17.757-7.179,40.144-1.511,58.836c7.17,23.648,16.856,47.318,28.314,69.197c0.635,1.212,3.06,0.378,3.679-0.479
				c3.897-5.397,7.744-10.542,12.941-14.779c6.108-4.979,13.496-8.351,20.932-10.806c13.924-4.597,30.799-6.591,45.188-3.175
				c0.752,0.178,3.001-0.2,3.076-1.268c2.062-29.472,6.988-60.975-8.479-87.88c-0.729-1.271-4.392,0.015-3.812,1.021
				c15.389,26.77,10.534,58.007,8.48,87.347c1.025-0.423,2.051-0.845,3.076-1.268c-15.868-3.767-34.095-1.251-49.396,3.801
				c-7.044,2.326-13.972,5.588-19.961,9.998c-6.404,4.717-10.975,10.553-15.591,16.945c1.227-0.16,2.453-0.319,3.679-0.479
				c-10.197-19.471-18.132-40.061-25.442-60.765c-6.426-18.202-11.089-37.911-5.53-56.976c2.605-8.934,10.335-23.184,20.89-24.17
				c10.726-1.001,21.395-1.645,32.145-2.275c5.158-0.303,11.761-1.94,16.745-0.341c4.753,1.525,9.134,4.05,13.111,7.028
				c7.496,5.613,13.112,13.468,17.929,21.385C338.446,353.648,342.158,352.443,341.347,351.109z"/>
		</g>
	</g>
	<g>
		<path fill="#222226" d="M260.604,260.338c2.035,17.964,1.695,35.588-0.676,53.213c-0.34,4.066-2.713,9.829,0,12.54
			c6.777,6.778,28.809,4.405,36.604,2.372c2.711-0.678,5.761-2.033,8.473-3.05c-2.033-3.729-3.051-7.456-3.389-11.862
			c-1.357-19.658,5.421-39.994,10.506-58.975"/>
		<g>
			<path fill="#4B4B4B" d="M258.698,260.849c1.445,13.307,1.667,26.639,0.716,39.989c-0.476,6.678-1.49,13.202-2.519,19.797
				c-0.609,3.905,0.702,6.305,4.122,8.115c6.311,3.339,14.76,2.918,21.648,2.496c8.168-0.501,15.419-2.361,23.027-5.293
				c0.233-0.09,1.456-0.588,1.219-1.051c-5.472-10.703-3.774-23.663-1.824-35.082c2.058-12.047,5.744-23.772,8.924-35.551
				c0.27-1-3.493-0.44-3.777,0.612c-3.344,12.392-7.067,24.687-9.231,37.358c-1.871,10.957-3.119,23.482,2.097,33.683
				c0.406-0.35,0.812-0.7,1.219-1.051c-7.508,2.893-14.487,4.402-22.531,4.781c-5.791,0.273-18.399,0.797-21.026-6.029
				c-1.367-3.553,1.078-10.434,1.533-14.158c0.622-5.09,1.013-10.207,1.289-15.326c0.618-11.444,0.166-22.926-1.072-34.313
				C262.413,258.924,258.573,259.701,258.698,260.849L258.698,260.849z"/>
		</g>
	</g>
	<g>
		<path fill="#FEC40D" d="M239.591,116.631c-17.625-35.249-57.619-48.128-93.545-54.229
			c32.538,63.042,10.845,155.909-39.994,205.393c6.779,12.88,28.47,22.369,41.35,27.793c46.094,17.625,94.901-2.712,127.439-37.283"
			/>
		<g>
			<path fill="#4B4B4B" d="M240.963,116.263c-18.033-35.224-57.542-48.405-94.1-54.691c-0.472-0.081-2.683,0.228-2.189,1.197
				c16.732,32.857,18.527,71.164,11.406,106.85c-7.258,36.371-24.559,71.747-51.15,97.866c-0.272,0.267-0.324,0.554-0.143,0.878
				c7.24,12.923,23.124,19.896,36.052,25.598c14.814,6.535,30.384,9.54,46.577,8.844c33.976-1.461,65.562-20.013,88.549-44.19
				c1.155-1.215-1.518-1.385-2.246-0.619c-18.874,19.851-42.688,35.012-69.626,40.925c-26.786,5.879-52.495-0.758-76.067-13.717
				c-5.247-2.884-10.261-6.231-14.665-10.3c-1.837-1.698-3.428-3.623-4.852-5.672c-1.651-2.377,2.724-5.223,4.296-6.911
				c7.575-8.134,14.18-17.156,20.037-26.588c12.343-19.877,20.818-42.147,25.708-64.987c7.717-36.043,5.793-75.476-11.131-108.711
				c-0.73,0.399-1.46,0.798-2.189,1.197c35.983,6.188,75.213,19.042,92.991,53.768C238.76,118.055,241.445,117.204,240.963,116.263
				L240.963,116.263z"/>
		</g>
	</g>
	<g>
		<path fill="#FEC40D" d="M323.646,92.229c27.794-5.424,62.364-14.236,91.512-5.424c-29.147,20.336-14.235,79.31-9.489,107.104
			c5.423,37.96,4.066,70.498-14.235,105.068c-17.624-25.082-73.886-14.235-96.934-10.168"/>
		<g>
			<path fill="#4B4B4B" d="M323.893,93.149c29.434-5.783,60.753-14.058,90.469-5.434c-0.036-0.507-0.073-1.014-0.109-1.521
				c-12.037,8.69-16.367,23.075-17.64,37.266c-1.48,16.52,0.989,33.341,3.809,49.586c3.288,18.94,6.628,37.513,6.647,56.85
				c0.025,24.172-5.761,47.518-16.945,68.933c0.855-0.15,1.711-0.301,2.566-0.452c-10.233-14.013-29.676-16.197-45.712-16.398
				c-17.735-0.222-35.324,2.831-52.726,5.908c-1.74,0.308-1.2,2.141,0.494,1.842c15.982-2.826,32.008-5.433,48.271-5.762
				c16.2-0.328,36.76,1.371,47.158,15.609c0.599,0.82,2.165,0.316,2.566-0.452c10.261-19.649,15.946-40.737,16.96-62.879
				c0.865-18.904-1.686-37.64-5.133-56.169c-3.037-16.329-5.739-32.84-5.538-49.5c0.189-15.723,3.491-33.386,17.031-43.162
				c0.572-0.413,0.697-1.287-0.109-1.521c-30.448-8.836-62.384-0.513-92.555,5.415C321.667,91.648,322.196,93.482,323.893,93.149
				L323.893,93.149z"/>
		</g>
	</g>
	<g>
		<path fill="#D9E4F4" d="M247.048,223.563c-14.236-1.354-24.064,14.575-28.641,26.098c-3.897,9.999-3.728,21.523-1.016,31.86
			c2.711,10.168,7.758,19.097,18.264,22.996c8.812,3.22,11.747,4.081,20.724,5.856c9.686,1.914,23.203,2.253,35.408-3.771
			c12.314-6.078,22.029-11.015,25.081-25.082c6.948-31.69-29.149-46.095-53.89-51.688"/>
		<g>
			<path fill="#4B4B4B" d="M247.741,222.3c-21.591-1.282-33.899,26.202-34.251,44.204c-0.223,11.411,3.014,24.251,10.964,32.749
				c7.438,7.95,20.584,10.262,30.798,12.305c11.448,2.29,23.193,1.598,34.133-2.538c8.683-3.281,19.241-8.741,24.642-16.586
				c5.509-8.001,6.967-18.5,4.38-27.808c-2.344-8.432-8.702-15.052-15.575-20.101c-11.243-8.257-25.275-12.788-38.726-15.875
				c-1.465-0.336-4.522,1.85-2.255,2.37c17.369,3.987,36.958,10.543,48.09,25.353c6.166,8.203,7.02,18.46,4.281,28.116
				c-3.297,11.624-14.763,17.151-24.842,21.878c-12.763,5.986-27.319,4.236-40.508,0.922c-5.733-1.441-11.888-3.32-16.936-6.402
				c-5.312-3.243-8.662-8.852-10.909-14.475c-5.07-12.685-4.979-27.383,0.562-39.838c4.389-9.865,12.507-22.473,24.767-21.745
				C248.049,224.928,250.327,222.454,247.741,222.3L247.741,222.3z"/>
		</g>
	</g>
	<g>
		<path fill="#D9E4F4" d="M174.515,157.556c0.763-4.957,2.098-10.359,3.945-15.855c1.847-5.497,4.205-11.089,7.018-16.428
			c23.608-46.264,86.65-56.432,132.407-39.146c12.201,5.084,22.369,12.202,31.266,22.369c2.67,3.559,4.099,7.61,4.544,11.837
			c1.335,12.677-6.196,26.928-15.729,34.172c-12.456,9.406-28.979,10.677-44.231,11.185c-24.148,1.017-48.552-3.05-72.446-4.575"/>
		<g>
			<path fill="#4B4B4B" d="M176.434,157.367c4.188-25.359,17.296-48.617,39.142-62.574c18.881-12.062,42.184-16.234,64.292-15.142
				c25.039,1.237,49.108,9.688,66.407,28.385c10.549,11.401,4.818,29.286-3.678,39.994c-9.35,11.783-24.89,14.832-39.067,15.945
				c-27.328,2.146-54.346-2.295-81.543-4.103c-1.669-0.111-3.983,2.314-1.396,2.486c30.158,2.005,60.304,7.221,90.546,3.258
				c11.555-1.515,22.977-5.357,31.604-13.44c7.997-7.494,13.846-19.792,12.977-30.885c-1.03-13.161-11.793-21.816-22.092-28.694
				c-9.557-6.383-20.385-10.139-31.529-12.618c-20.181-4.488-41.553-3.993-61.5,1.402c-15.466,4.184-29.946,11.908-41.555,22.99
				c-14.478,13.821-23.223,33.858-26.445,53.374C172.309,159.477,176.184,158.882,176.434,157.367L176.434,157.367z"/>
		</g>
	</g>
	<g>
		<path fill="#727886" d="M210.612,109.344c-33.893,37.961,39.766,50.234,63.719,49.485c43.385-1.356,89.478-36.604,49.314-66.601
			c57.448-0.169,55.584,84.731,50.841,117.269c-6.779,41.351-25.42,86.09-84.319,97.284c5.347-7.576,2.69-15.303-5.042-17.634
			c-8.548-2.576-21.602-1.897-28.031,1.237c-7.381,3.597-12.615,14.923-1.263,19.919c-26.934-1.958-46.652-17.362-55.465-26.853
			c-19.658-21.691-31.273-48.193-33.984-77.342c-2.712-29.149-3.389-67.109,14.913-91.512c4.744-6.101,21.691-21.014,27.792-17.624"
			/>
		<g>
			<path fill="#4B4B4B" d="M208.984,108.722c-9.035,10.325-13.037,23.029-1.974,33.374c10.626,9.937,27.286,13.568,41.14,16.001
				c16.809,2.952,33.429,3.063,49.953-1.738c17.254-5.013,39.318-16.73,42.679-36.295c2.07-12.058-6.813-22.201-15.661-28.987
				c-0.542,0.878-1.085,1.756-1.627,2.634c38.968,0.261,49.299,42.825,50.921,74.388c1.74,33.832-3.587,70.875-23.142,99.279
				c-14.453,20.994-36.818,33.164-61.48,38.006c0.667,0.673,1.334,1.346,2.002,2.019c4.141-6.433,4.401-14.015-2.681-18.369
				c-6.758-4.155-17.559-3.409-24.995-2.2c-6.479,1.053-11.944,3.749-15.342,9.525c-3.766,6.402-0.014,12.372,5.955,15.296
				c0.583-0.939,1.166-1.88,1.749-2.819c-49.568-4.148-80.673-50.892-87.406-96.69c-3.352-22.801-3.723-47.579,1.693-70.065
				c2.514-10.437,6.955-21.35,14.297-29.337c3.271-3.559,7.035-6.701,10.912-9.573c2.708-2.006,8.355-6.475,12.01-4.845
				c1.705,0.76,4.464-1.694,2.197-2.705c-6.577-2.933-15.019,4.174-19.728,7.906c-7.633,6.048-13.359,13.097-17.658,21.849
				c-10.823,22.036-10.725,48.528-9.071,72.449c1.808,26.145,8.833,50.583,23.685,72.388c12.493,18.341,29.702,32.176,51.143,38.555
				c5.415,1.611,11.004,2.533,16.625,3.004c1.537,0.128,3.912-1.759,1.749-2.819c-5.14-2.519-7.008-6.869-4.445-12.074
				c2.389-4.852,7.761-6.495,12.684-7.294c5.531-0.899,11.267-0.667,16.752,0.383c8.526,1.634,11.202,9.077,6.619,16.194
				c-0.98,1.523,0.648,2.284,2.002,2.019c21.649-4.252,41.534-13.863,56.574-30.233c12.99-14.138,20.739-32.225,25.573-50.593
				c7.938-30.158,8.925-65.064,0.051-95.096c-3.271-11.068-8.58-21.671-16.978-29.725c-8.624-8.271-20.227-11.708-31.965-11.786
				c-1.204-0.008-3.015,1.57-1.627,2.634c8.58,6.58,16.137,15.463,14.695,26.939c-1.307,10.41-10.353,18.381-18.571,23.806
				c-17.01,11.228-38.021,14.575-57.984,12.546c-15.135-1.539-31.41-4.733-44.611-12.64c-5.161-3.091-9.958-7.413-11.514-13.417
				c-1.992-7.684,3.295-15.208,8.054-20.647C213.864,108.11,210.196,107.338,208.984,108.722L208.984,108.722z"/>
		</g>
	</g>
	<g>
		<path fill="#FEC40D" d="M348.064,189.24c-7.355-4.115-14.705-4.115-22.056-1.376c-9.187,3.424-39.189,15.163-55.039,15.163
			c-15.837,0-46.585-11.739-55.773-15.163c-7.35-2.738-14.7-2.738-22.056,1.376c-3.669,2.731-11.167,12.417-9.093,23.352
			c6.126,32.865,41.844,28.179,66.219,27.07c5.447,0.209,36.623-0.172,42.069-0.381c24.377,1.107,59.712,5.159,65.838-27.707
			C359.775,197.178,351.733,191.971,348.064,189.24z"/>
		<g>
			<path fill="#4B4B4B" d="M349.155,188.573c-9.979-5.157-18.848-3.088-28.8,0.638c-10.1,3.781-20.3,7.321-30.735,10.065
				c-10.75,2.827-20.39,3.525-31.287,1.249c-10.969-2.292-21.675-5.936-32.209-9.704c-8.432-3.016-17.206-7.438-26.38-4.944
				c-9.879,2.687-15.717,10.424-17.271,20.52c-1.408,9.146,3.672,19.516,10.377,25.489c6.143,5.472,14.564,7.686,22.523,8.724
				c14.726,1.921,29.912-0.052,44.718-0.114c15.603-0.065,31.077-0.229,46.664,0.25c14.784,0.455,31.73-0.261,43.264-10.766
				c5.84-5.32,9.85-14.154,9.733-22.055c-0.125-8.516-3.749-14.3-10.414-19.224c-0.788-0.582-3.309,0.515-2.547,1.077
				c8.196,6.055,11.848,14.264,9.442,24.585c-2.402,10.309-9.346,17.855-19.134,21.591c-16.153,6.164-34.782,2.417-51.624,2.708
				c-16.577,0.286-33.103,0.333-49.664,0.958c-18.717,0.706-41.101-0.936-48.73-21.159c-3.312-8.78-2.057-17.406,3.363-25.007
				c7.022-9.85,19.2-6.562,28.688-3.052c13.417,4.965,27.113,9.74,41.21,12.35c13.331,2.467,26.124-0.829,38.871-4.718
				c6.54-1.996,12.995-4.277,19.411-6.636c2.452-0.901,4.895-1.827,7.341-2.745c7.271-2.729,14.164-2.284,21.009,1.253
				C347.776,190.322,350.299,189.164,349.155,188.573z"/>
		</g>
	</g>
	<g>
		<path fill="#B01E34" d="M343.161,197.449c-6.128-4.107-12.252-4.107-18.817-1.306c-5.427,1.745-40.178,11.652-53.741,11.652
			c-13.61,0-48.315-9.908-53.742-11.652c-6.566-2.801-12.69-2.801-18.816,1.306c-2.449,2.739-4.9,5.478-4.9,9.585
			c0,30.126,37.977,28.091,58.379,27.877c6.708-0.114,31.448-0.114,38.157,0c20.4,0.214,58.379,2.25,58.379-27.877
			C348.061,202.927,345.95,200.24,343.161,197.449z"/>
		<g>
			<path fill="#4B4B4B" d="M344.213,197.027c-8.462-5.202-15.318-2.701-24.074-0.152c-8.743,2.545-17.573,4.819-26.454,6.83
				c-8.972,2.031-18.28,4.159-27.52,3.199c-9.771-1.016-19.452-3.478-28.957-5.876c-7.656-1.933-15.184-4.14-22.688-6.555
				c-8.823-2.839-18.732,1.093-22.074,9.876c-2.806,7.373,2.312,17.195,7.755,21.931c5.847,5.087,14.002,7.049,21.468,8.179
				c12.116,1.833,24.519,1.026,36.723,0.967c13.69-0.067,27.375,0.147,41.065,0.167c12.274,0.018,25.396-0.591,36.512-6.338
				c4.981-2.576,8.907-6.62,11.219-11.723C350.492,210.234,349.777,202.776,344.213,197.027c-0.498-0.514-2.623,0.306-2.104,0.844
				c4.706,4.861,5.468,9.635,4.091,16.12c-0.983,4.633-3.595,8.654-7.136,11.734c-7.249,6.306-18.001,7.699-27.215,8.37
				c-17.031,1.242-34.419,0.111-51.485,0.174c-16.51,0.061-34.307,1.935-50.021-4.159c-8.416-3.264-14.216-9.755-15.738-18.708
				c-1.642-9.655,4.747-17.366,15.118-16.516c3.803,0.312,8.042,2.344,11.793,3.419c9.516,2.729,19.123,5.181,28.803,7.25
				c8.692,1.858,17.332,3.39,26.215,2.351c10.704-1.251,21.303-4.002,31.712-6.708c4.295-1.117,8.575-2.297,12.836-3.537
				c1.135-0.331,2.268-0.668,3.394-1.026c6.494-2.062,11.666-2.433,17.634,1.237C342.741,198.259,344.728,197.344,344.213,197.027z"
				/>
		</g>
	</g>
	<g>
		<path fill="#FFFFFF" d="M302.104,210.392c-0.727,6.245,1.725,14.462,7.85,18.569c-4.9-9.586,0-19.171,9.799-19.172
			c-2.45-1.371-6.125-1.368-7.998-2.002C308.604,207.955,305.276,208.82,302.104,210.392z"/>
	</g>
	<g>
		<path fill="#B01E34" d="M215.442,81.72c-15.481-0.912-23.894,22.877-13.473,33.3c9.407,8.896,20.336,5.083,26.946-4.83
			C236.033,99.259,230.803,82.624,215.442,81.72z"/>
		<g>
			<path fill="#4B4B4B" d="M215.891,81.119c-21.24-0.478-27.803,34.219-5.773,39.258c10.669,2.441,20.831-8.003,22.766-17.63
				c2.238-11.134-5.874-20.625-16.744-21.608c-0.653-0.059-2.638,1.049-1.396,1.161c8.798,0.794,14.881,6.719,16.064,15.428
				c1.438,10.581-8.141,22.984-19.294,21.488c-19.907-2.67-15.366-37.321,3.479-36.896
				C215.791,82.338,217.412,81.153,215.891,81.119z"/>
		</g>
	</g>
	<g>
		<path fill="#B01E34" d="M330.556,81.72c15.482-0.912,23.895,22.877,13.474,33.3c-9.406,8.896-20.337,5.083-26.945-4.83
			C309.966,99.259,315.194,82.624,330.556,81.72z"/>
		<g>
			<path fill="#4B4B4B" d="M329.815,82.143c16.341-0.368,23.466,23.939,11.966,34.078c-10.441,9.205-23.469-2.059-26.198-12.534
				c-2.619-10.055,3.888-20.602,14.473-21.558c0.532-0.048,2.474-0.95,1-0.816c-9.491,0.857-16.794,6.667-18.118,16.417
				c-1.472,10.83,8.866,24.204,20.47,22.648c10.396-1.395,16.929-9.409,16.278-19.83c-0.614-9.849-7.989-19.484-18.39-19.25
				C330.871,81.306,328.753,82.167,329.815,82.143z"/>
		</g>
	</g>
	<g>
		<g>
			<path fill="#4B4B4B" d="M259.51,315.648c13.778,5.235,33.263,2.894,42.735-9.332c0.851-1.098-2.166-0.907-2.785-0.107
				c-8.312,10.729-25.538,12.533-37.591,7.953C260.928,313.805,258.228,315.16,259.51,315.648L259.51,315.648z"/>
		</g>
	</g>
	<g>
		<g>
			<path fill="#4B4B4B" d="M258.227,320.855c12.758,5.903,33.819,6.547,44.456-3.943c1.336-1.316-1.538-1.866-2.502-0.915
				c-9.473,9.341-29.044,7.997-40.244,2.815C258.667,318.225,256.495,320.055,258.227,320.855L258.227,320.855z"/>
		</g>
	</g>
	<g>
		<path fill="#222226" d="M184.99,346.382c-11.54,12.585-11.391,31.687-5.051,52.58c4.366,14.878,7.965,28.366,12.887,41.46
			c8.104-2.871,13.602-11.068,16.263-18.752c7.455-19.998,2.033-43.722-8.135-61.686
			C196.967,353.062,191.164,346.926,184.99,346.382z"/>
		<g>
			<path fill="#4B4B4B" d="M183.239,346.433c-10.077,11.468-10.703,26.699-8.162,41.09c1.58,8.951,4.616,17.688,7.143,26.401
				c2.636,9.089,5.404,18.135,8.699,27.009c0.309,0.832,2.085,0.31,2.613,0.1c17.534-6.964,21.87-28.892,20.697-45.712
				c-0.767-11-4.294-21.751-9.111-31.604c-3.838-7.851-9.596-16.823-18.926-18.243c-1.005-0.153-4.457,1.504-2.403,1.816
				c9.211,1.402,14.543,11.366,18.228,18.904c3.881,7.938,6.449,16.489,7.833,25.202c2.523,15.901-0.294,41.49-17.73,48.415
				c0.871,0.033,1.742,0.066,2.613,0.1c-6.016-16.204-11.265-33.206-15.155-50.05c-3.424-14.824-3.377-31.534,7.164-43.53
				C187.698,345.242,183.937,345.639,183.239,346.433z"/>
		</g>
	</g>
	<g>
		<path fill="#B01E34" d="M188.489,374.118c-5.593-1.02-17.803-5.355-20.887-10.763c-3.644-6.24,4.959-12.531,9.552-14.87
			c7.585-2.371,16.338-4.839,23.412,3.586c3.974,7.165-3.723,17.145-8.014,21.53"/>
		<g>
			<path fill="#4B4B4B" d="M189.411,373.666c-6.066-1.209-12.111-3.527-17.207-7.053c-8.149-5.638-2.438-12.948,3.94-17.019
				c7.054-4.503,21.353-4.461,24.18,5.125c1.97,6.677-4.622,14.575-8.796,18.951c-0.504,0.528,1.661,0.267,2.048-0.139
				c2.999-3.144,5.556-6.572,7.497-10.469c1.408-2.826,3.068-8.621,0.553-11.384c-6.584-7.229-14.726-6.527-23.366-3.946
				c-6.13,1.831-15.105,8.779-11.784,15.924c3.003,6.462,14.805,9.659,21.092,10.913
				C188.116,374.68,190.083,373.801,189.411,373.666L189.411,373.666z"/>
		</g>
	</g>
	<g>
		<path fill="#D9E4F4" d="M128.761,517.927c-15.513-1.722-1.291-27.476-2.034-35.928c-1.173-13.323-4.406-25.759-4.406-39.316
			c0.338-26.776,9.829-58.297,31.521-75.242c3.728-2.881,8.473-4.83,13.43-5.719c4.957-0.891,10.125-0.72,14.701,0.635
			c27.113,14.573,23.046,54.229,17.672,80.665c-0.889,6.61-1.742,13.219-2.547,19.827c-0.805,6.61-1.567,13.22-2.245,19.828
			c-1.355,14.235,1.186,24.911,1.524,39.147c0,7.456,0.335,15.678-7.46,19.068c1.439-9.744,0.307-17.472-5.604-23.83
			C169.84,502.573,141.216,504.791,128.761,517.927z"/>
		<g>
			<path fill="#4B4B4B" d="M129.414,516.514c-9.793-1.473-5.213-15.115-3.528-21.292c0.974-3.571,2.096-7.123,2.659-10.789
				c0.877-5.718-0.999-12.262-1.856-17.896c-2.184-14.363-3.073-28.103-0.793-42.494c1.981-12.499,6.064-24.671,12.276-35.702
				c6.947-12.335,17.5-24.056,32.266-25.629c13.22-1.408,22.33,8.947,26.905,20.202c8.144,20.032,2.866,41.598,0.127,62.047
				c-2.229,16.639-5.403,33.769-4.857,50.59c0.266,8.182,1.411,16.312,1.772,24.49c0.307,6.94,0.903,16.081-6.319,19.697
				c0.929,0.34,1.857,0.679,2.786,1.018c1.135-8.444,0.535-16.547-4.853-23.469c-4.247-5.456-11.141-8.917-17.766-10.413
				c-14.145-3.194-30.642-0.069-41.072,10.468c-1.692,1.71,1.98,2.404,3.203,1.17c8.998-9.091,23.181-11.441,35.344-9.088
				c6.492,1.257,12.452,4.6,16.805,9.56c5.361,6.109,5.495,14.435,4.472,22.046c-0.195,1.451,1.955,1.434,2.786,1.018
				c10.438-5.227,8.833-17.923,8.174-27.814c-0.459-6.906-1.296-13.773-1.521-20.695c-0.27-8.326,0.936-16.627,1.897-24.877
				c1.503-12.908,3.587-25.656,5.497-38.495c1.505-10.119,2.122-20.368,1.271-30.574c-0.804-9.634-3.469-19.19-9.002-27.2
				c-2.52-3.648-5.842-6.703-9.46-9.229c-4.711-3.288-10.257-3.626-15.865-3.3c-24.055,1.398-38.552,28.043-44.929,48.279
				c-3.391,10.76-5.079,22.03-5.418,33.29c-0.208,6.883,0.663,13.785,1.629,20.585c0.987,6.945,2.902,14.282,2.767,21.317
				c-0.189,9.812-13.861,33.425,3.299,36.007C130.019,519.627,131.976,516.899,129.414,516.514z"/>
		</g>
	</g>
	<g>
		<path fill="#FEC40D" d="M150.563,668.986c-8.585-28.705-29.938-53.108-34.45-82.394c-1.336-6.724-2.115-13.47-2.258-20.28
			c-0.115-6.806,0.407-13.673,1.777-20.626c2.534-8.382,6.291-16.213,11.883-22.145c2.487,5.805,5.379,10.548,8.53,14.38
			c3.15,3.831,6.561,6.753,10.083,8.917c7.045,4.327,14.541,5.624,21.32,5.115c4.915-0.339,9.17-0.729,12.816-2.464
			c3.646-1.738,6.684-4.822,9.163-10.552c4.66,10.847,8.155,22.349,10.367,34.141c1.104,5.896,1.887,11.863,2.34,17.856
			c2.885,29.01-1.182,60.529-14.514,86.751"/>
		<g>
			<path fill="#4B4B4B" d="M151.935,668.619c-7.258-23.571-22.265-43.682-30.497-66.85c-8.659-24.37-11.182-57.81,7.339-78.258
				c-0.878,0.133-1.756,0.266-2.634,0.397c6.494,14.645,17.448,26.565,34.016,28.629c6.247,0.778,13.256-0.04,19.221-2.006
				c5.587-1.842,9.055-6.683,11.41-11.797c-0.912,0.19-1.823,0.381-2.735,0.57c18.209,43.05,19.313,96.34-1.798,138.584
				c-0.32,0.64,2.333,0.381,2.727-0.406c21.14-42.302,20.046-95.813,1.816-138.912c-0.364-0.859-2.45-0.051-2.735,0.57
				c-2.847,6.182-6.576,10.12-13.515,11.457c-6.905,1.331-14.048,1.001-20.716-1.195c-12.099-3.984-20.012-15.103-24.945-26.229
				c-0.371-0.837-2.229-0.05-2.634,0.397c-17.921,19.786-15.894,50.347-9.033,74.352c7.213,25.233,24.247,46.346,31.97,71.43
				C149.444,670.175,152.176,669.402,151.935,668.619L151.935,668.619z"/>
		</g>
	</g>
	<g>
		<path fill="#727886" d="M263.993,669.768c-9.829-18.641-22.03-37.621-41.688-46.434c-1.356-0.678-8.135-2.372-8.813-3.729
			c-1.017-1.694,0.678-6.778,1.018-8.473c1.355-7.795,2.712-15.592,4.745-23.047c5.422-22.37,16.947-55.585,33.555-72.193
			c7.794-1.694,27.115-2.711,31.858-2.711c3.73,0.339,3.39,0.677,6.779,2.711c9.49,5.084,20.337,7.456,30.844,7.118
			c12.201-0.339,31.182-2.712,39.316-12.881c2.711-3.727,2.711-10.506,5.423-13.558c3.727-4.066,19.318-6.099,24.741-7.117
			c5.762-1.016,3.391-0.677,7.796,1.356c11.862,5.423,24.74,14.914,33.555,24.402c15.25,16.947,31.521,38.639,39.315,59.991
			c2.71,7.118,4.745,14.235,6.439,21.692c0.678,1.355,2.033,5.423,1.695,6.778c-0.678,2.373-5.084,4.744-6.779,6.44
			c-6.778,5.762-12.879,11.523-18.642,17.962c-7.794,8.813-15.93,18.643-21.014,29.487c-5.762,11.525-5.762,23.728-6.778,36.605"/>
		<g>
			<path fill="#4B4B4B" d="M265.921,669.251c-5.877-11.083-12.351-21.854-20.841-31.155c-7.779-8.522-16.797-13.763-27.418-17.762
				c-4.813-1.812-1.286-9.255-0.613-13.099c1.292-7.374,2.902-14.629,4.721-21.888c2.939-11.723,6.756-23.241,11.38-34.406
				c4.766-11.507,10.644-22.826,18.798-32.313c1.824-2.121,1.36-2.094,4.21-2.524c2.582-0.391,5.186-0.643,7.785-0.885
				c5.167-0.48,10.352-0.794,15.536-1.018c1.786-0.077,3.556-0.176,5.337,0.02c2.362,0.258,4.576,2.239,6.659,3.313
				c6.457,3.331,13.621,5.124,20.794,6.02c10.494,1.311,21.881-0.068,32.063-2.733c8.778-2.298,18.465-6.679,21.327-15.942
				c0.891-2.881,1.301-5.886,3.134-8.378c1.395-1.896,5.093-2.57,7.19-3.156c4.833-1.349,9.832-2.05,14.767-2.91
				c2.432-0.424,3.716-0.704,5.876,0.514c2.815,1.586,5.812,2.85,8.634,4.441c6.713,3.786,12.938,8.438,18.761,13.467
				c10.894,9.407,19.949,21.452,28.207,33.165c8.895,12.614,15.964,26.16,20.777,40.831c2.001,6.097,3.597,12.37,5.326,18.53
				c0.998,3.555-1.814,5.288-4.364,7.188c-2.543,1.896-4.862,4.127-7.225,6.241c-10.658,9.537-20.391,20.461-28.396,32.321
				c-7.726,11.445-11.157,23.504-12.175,37.17c-0.252,3.39-0.469,6.781-0.726,10.17c-0.095,1.245,3.744,0.429,3.822-0.602
				c1.11-14.625,2.001-28.065,9.135-41.191c7.002-12.885,17.544-24.405,28.071-34.5c4.399-4.219,9.521-7.719,13.864-11.941
				c3.84-3.734,1.075-7.222,0.033-11.714c-3.413-14.709-8.938-28.611-16.581-41.624c-14.389-24.503-33.892-48.112-59.436-61.345
				c-2.516-1.303-5.433-3.578-8.393-3.539c-4.103,0.056-8.626,1.379-12.654,2.13c-6.979,1.302-16.927,2.475-19.915,9.919
				c-1.045,2.603-1.48,5.436-2.457,8.072c-1.079,2.914-3.774,4.949-6.241,6.643c-5.658,3.886-12.955,5.349-19.616,6.352
				c-14.444,2.174-30.376,1.164-43.075-6.706c-6.349-3.936-15.534-1.855-22.605-1.327c-4.549,0.34-9.101,0.773-13.612,1.456
				c-4.545,0.688-6.115,2.662-9.07,6.237c-15.007,18.159-23.011,42.676-28.771,65.159c-1.706,6.657-3.18,13.328-4.403,20.091
				c-0.688,3.805-3.352,10.254-1.98,14.081c0.812,2.266,6.735,3.131,8.681,3.822c6.244,2.22,12.001,6.817,16.867,11.199
				c10.738,9.67,18.254,22.504,24.954,35.141C262.65,671.386,266.34,670.042,265.921,669.251L265.921,669.251z"/>
		</g>
	</g>
	<g>
		<path fill="#D9E4F4" d="M390.33,644.855c16.523-28.47,20.591-61.007,7.541-93.037c2.712-3.388,6.101-6.777,9.15-10.167
			c6.441-7.457,18.98-18.303,21.015-28.132l0.784-2.625c-8.422-7.965-19.197-15.485-29.254-20.083
			c-4.405-2.033-2.034-2.372-7.796-1.356c-5.423,1.019-21.015,3.051-24.741,7.117c-2.712,3.052-2.712,9.831-5.423,13.558
			c-8.135,10.169-27.115,12.542-39.316,12.881c-10.507,0.338-21.354-2.034-30.844-7.118c-3.39-2.034-3.049-2.372-6.779-2.711
			c-4.743,0-24.064,1.017-31.858,2.711c-8.496,8.496-15.658,21.341-21.357,34.854c12.763,11.829,44.582,14.334,61.775,15.307
			c12.455,28.979,45.5,70.159,63.549,76.77c21.305,7.801-53.128,11.692-47.027,33.384c0,0-0.042,0.137-0.116,0.379l117.726,17.585
			c1.017-12.878,1.017-25.08,6.778-36.605c0.529-1.128,1.1-2.243,1.69-3.35L390.33,644.855z"/>
		<g>
			<path fill="#4B4B4B" d="M392.213,644.527c13.536-23.709,18.696-50.679,12.616-77.476c-0.671-2.957-1.549-5.863-2.474-8.749
				c-0.567-1.771-1.226-3.51-1.883-5.248c-0.889-2.35,1.123-3.738,2.411-5.177c4.036-4.508,8.178-8.937,12.348-13.319
				c6.968-7.323,12.556-14.233,15.472-23.992c0.062-0.134,0.031-0.243-0.089-0.329c-9.519-8.86-19.992-14.785-31.203-21.103
				c-2.521-1.42-4.45-0.912-7.294-0.412c-4.141,0.729-8.288,1.399-12.4,2.28c-6.965,1.492-14.299,2.953-16.713,10.379
				c-0.876,2.693-1.394,5.408-2.604,7.989c-1.256,2.678-4.331,4.656-6.731,6.156c-5.495,3.433-12.25,4.771-18.562,5.723
				c-13.773,2.072-27.608,0.853-40.271-5.192c-3.58-1.708-5.735-3.732-9.871-3.665c-3.914,0.064-7.825,0.293-11.731,0.542
				c-4.75,0.303-9.505,0.686-14.226,1.293c-3.291,0.424-6.589,0.418-8.982,2.878c-9.215,9.472-15.323,21.956-20.455,33.97
				c-0.062,0.134-0.032,0.243,0.088,0.329c7.494,6.646,17.826,9.393,27.4,11.413c10.435,2.203,21.133,3.165,31.76,3.846
				c3.088,0.198,3.273,1.698,4.521,4.334c1.109,2.342,2.318,4.636,3.549,6.915c2.881,5.341,6.094,10.499,9.436,15.562
				c6.37,9.646,13.479,18.831,21.166,27.463c6.443,7.234,13.485,14.299,21.664,19.57c1.041,0.671,10.875,4.262,9.307,6.211
				c-2.354,2.929-9.162,3.826-12.51,4.825c-6.365,1.9-12.745,3.764-18.957,6.129c-5.146,1.958-10.264,4.297-14.574,7.771
				c-1.679,1.353-3.111,3.027-4.078,4.957c-1.145,2.281,0.054,4.413-0.591,6.515c-0.072,0.236,0.082,0.39,0.32,0.425
				c39.242,5.862,78.483,11.724,117.726,17.585c0.812,0.122,3.383-0.122,3.469-1.264c1.062-13.979,1.851-27.114,8.445-39.772
				c0.122-0.235-0.131-0.386-0.32-0.425c-15.166-3.12-30.331-6.24-45.497-9.36c-0.912-0.188-4.237,1.277-3.125,1.506
				c11.33,2.331,22.659,4.662,33.989,6.993c2.651,0.546,5.304,1.091,7.955,1.637c0.869,0.179,1.738,0.357,2.607,0.536
				c1.485,0.306,0.592-0.166-0.243,1.437c-6.26,12.017-6.621,25.259-7.624,38.471c1.156-0.421,2.312-0.843,3.469-1.264
				c-23.058-3.444-46.116-6.889-69.174-10.333c-13.428-2.006-26.855-4.012-40.283-6.018c-2.698-0.402-5.396-0.806-8.095-1.209
				c0.254,0.038-0.108-3.113,0.084-4.187c0.441-2.462,2.161-4.463,3.955-6.086c8.381-7.588,21.778-10.078,32.288-13.229
				c1.522-0.456,17.741-4.682,14.349-8.264c-0.976-1.03-2.409-1.532-3.706-2.023c-3.177-1.205-6.039-3.078-8.782-5.055
				c-7.226-5.207-13.492-11.794-19.393-18.42c-13.987-15.705-26.595-33.722-35.03-53.053c-0.108-0.249-0.448-0.275-0.676-0.288
				c-11.029-0.634-22.04-1.602-32.905-3.669c-5.308-1.011-10.542-2.391-15.622-4.235c-2.581-0.937-5.052-2.118-7.444-3.46
				c-3.202-1.797-5.415-2.916-3.698-6.834c2.862-6.527,6.188-12.844,9.986-18.873c1.996-3.168,4.239-6.167,6.64-9.037
				c2.217-2.649,2.287-2.824,5.783-3.311c5.177-0.721,10.417-1.063,15.63-1.396c4.057-0.259,10.1-1.499,13.906,0.295
				c5.577,2.629,10.401,5.426,16.457,7.082c6.31,1.727,12.896,2.16,19.406,1.949c9.726-0.315,20.031-1.649,29.016-5.576
				c4.099-1.792,7.841-4.041,10.953-7.286c3.946-4.115,2.494-11.763,7.038-15.193c3.986-3.01,10.589-3.548,15.354-4.407
				c1.919-0.346,3.845-0.654,5.766-0.989c3.287-0.573,4.249-0.228,7.047,1.154c7.137,3.523,13.802,7.557,20.161,12.357
				c1.035,0.782,9.261,6.539,8.923,7.67c-0.595,1.988-1.093,3.995-1.86,5.927c-2.666,6.713-8.349,12.24-13.224,17.394
				c-5.301,5.602-10.727,11.178-15.631,17.131c-0.129,0.099-0.188,0.226-0.177,0.382c12.324,30.995,8.919,64.065-7.518,92.854
				C388.136,645.729,391.658,645.498,392.213,644.527z"/>
		</g>
	</g>
	<g>
		<g>
			<path fill="#4B4B4B" d="M343.186,521.176c4.588,11.176,7.854,22.988,11.406,34.523c4.027,13.08,7.817,26.239,11.218,39.498
				c3.28,12.796,6.003,25.73,8.799,38.638c1.316,6.073,2.533,12.19,4.106,18.202c1.55,5.924,3.705,11.811,3.029,18.028
				c-0.143,1.316,2.645,0.88,2.768-0.254c0.521-4.802-0.562-9.395-1.803-14.013c-1.679-6.247-3.134-12.514-4.517-18.835
				c-2.963-13.544-5.812-27.112-9.152-40.57c-3.3-13.293-7.146-26.456-11.131-39.558c-3.7-12.16-7.147-24.626-11.979-36.395
				C345.461,519.299,342.743,520.098,343.186,521.176L343.186,521.176z"/>
		</g>
	</g>
	<g>
		<g>
			<path fill="#4B4B4B" d="M266.109,471.714c14.456-10.767,31.408-17.131,49.001-20.566c8.357-1.632,16.865-2.488,25.365-2.874
				c7.204-0.327,16.456-1.392,22.834,2.525c0.757,0.465,3.295-0.639,2.186-1.32c-6.427-3.947-15.145-3.019-22.354-2.809
				c-9.822,0.284-19.609,1.4-29.252,3.283c-17.96,3.508-35.254,10.353-49.978,21.319
				C262.664,472.202,265.42,472.228,266.109,471.714L266.109,471.714z"/>
		</g>
	</g>
	<g>
		<g>
			<path fill="#4B4B4B" d="M260.13,485.036c7.134-5.871,16.362-9.791,24.831-13.284c9.002-3.713,18.349-6.383,27.854-8.445
				c9.435-2.046,19.047-3.364,28.633-4.459c9.588-1.094,18.853-1.561,28.334,0.398c0.828,0.171,3.232-1.119,1.695-1.438
				c-19.097-3.945-40.186,0.292-59.01,4.202c-10.394,2.158-20.491,5.354-30.299,9.399c-8.303,3.424-17.249,7.489-24.224,13.229
				C256.741,485.63,259.484,485.568,260.13,485.036L260.13,485.036z"/>
		</g>
	</g>
	<g>
		<g>
			<path fill="#4B4B4B" d="M259.565,495.846c15.892-9.902,34.345-15.47,52.409-19.979c9.479-2.367,19.138-3.811,28.793-5.229
				c10.265-1.508,20.629-3.239,31.041-2.723c1.331,0.065,2.807-1.903,0.949-1.996c-10.062-0.499-20.046,0.981-29.974,2.449
				c-9.923,1.467-19.82,2.936-29.599,5.204c-19.127,4.438-38.693,10.587-55.44,21.021
				C256.168,495.574,258.439,496.547,259.565,495.846L259.565,495.846z"/>
		</g>
	</g>
	<g>
		<g>
			<path fill="#4B4B4B" d="M263.096,503.026c8.267-6.377,18.104-9.973,27.944-13.152c7.884-2.549,15.815-5.069,23.901-6.901
				c8.965-2.031,18.154-3.224,27.252-4.497c9.294-1.3,18.473-1.822,27.751-0.041c1.028,0.197,3.253-1.367,1.629-1.68
				c-18.234-3.5-37.933,0.584-55.861,4.316c-9.033,1.88-17.861,4.819-26.629,7.654c-9.779,3.16-19.549,6.929-27.751,13.256
				C259.855,503.121,262.128,503.772,263.096,503.026L263.096,503.026z"/>
		</g>
	</g>
	<g>
		<g>
			<path fill="#4B4B4B" d="M263.961,508.794c18.833-8.658,38.859-14.373,58.997-19.075c16.525-3.857,34.931-6.535,51.886-4.246
				c0.693,0.093,3.197-1.072,1.74-1.27c-16.77-2.263-34.782,0.312-51.184,3.843c-21.536,4.638-43.026,10.99-63.069,20.205
				C260.671,509.014,263.216,509.137,263.961,508.794L263.961,508.794z"/>
		</g>
	</g>
	<g>
		<g>
			<path fill="#4B4B4B" d="M278.063,514.202c16.254-5.924,32.854-10.627,49.807-14.08c13.76-2.803,28.287-5.42,42.4-5.047
				c1.274,0.033,2.828-1.871,0.971-1.92c-14.069-0.371-28.317,2.156-42.072,4.819c-17.823,3.451-35.25,8.479-52.299,14.694
				C275.096,513.315,276.676,514.708,278.063,514.202L278.063,514.202z"/>
		</g>
	</g>
	<g>
		<g>
			<path fill="#4B4B4B" d="M297.259,517.81c21.574-7.106,42.554-13.485,65.489-13.731c0.568-0.006,3.121-1.128,1.781-1.113
				c-23.92,0.256-45.712,6.816-68.218,14.229C294.449,517.808,296.218,518.152,297.259,517.81L297.259,517.81z"/>
		</g>
	</g>
	<g>
		<path fill="#222226" d="M457.601,565.766c-10.002-4.775-14.776-17.505-14.094-27.963c0.682-16.368,12.05-26.599,27.963-27.052
			c25.232-0.455,43.646,14.095,54.558,35.919c5.685,11.139,11.367,26.143,4.093,37.964c-9.319,15.232-28.417,22.507-44.558,28.188"
			/>
		<g>
			<path fill="#4B4B4B" d="M459.387,565.078c-16.287-8.463-18.522-33.7-6.281-46.436c14.126-14.697,40.705-5.032,53.889,5.995
				c6.938,5.803,12.264,13.329,16.477,21.268c4.911,9.255,9.206,19.751,7.884,30.42c-1.251,10.099-10.055,17.886-18.028,23.177
				c-8.67,5.754-18.711,9.307-28.46,12.748c-2.548,0.9-0.164,1.693,1.393,1.145c18.43-6.508,46.253-16.479,49.062-39.161
				c1.419-11.446-4.568-23.45-10.093-33.071c-5.174-9.011-12.26-16.864-20.951-22.578c-14.811-9.736-37.937-13.181-52.683-1.587
				c-15.172,11.929-13.012,40.503,4.22,49.456C456.873,567.003,460.078,565.438,459.387,565.078L459.387,565.078z"/>
		</g>
	</g>
	<g>
		<path fill="#D9E4F4" d="M509.136,570.038c-15.591,15.93-33.216,43.045-38.979,65.075c8.475,3.051,29.487,19.32,32.878,17.964
			c2.372-0.679,30.843-51.857,34.572-59.992C528.455,584.952,519.643,576.139,509.136,570.038z"/>
		<g>
			<path fill="#4B4B4B" d="M507.537,569.465c-17.495,18.084-32.685,41.355-39.312,65.79c-0.146,0.539,0.409,0.99,0.835,1.153
				c10.668,4.1,19.305,12.403,29.641,17.223c6.157,2.871,8.449-3.039,11.225-7.519c10.524-16.985,21.074-34.666,29.508-52.802
				c0.249-0.536,0.051-0.969-0.357-1.333c-9.125-8.151-17.907-16.738-28.472-23.047c-1.454-0.868-4.79,1.107-2.936,2.215
				c5.508,3.289,10.537,7.17,15.408,11.332c2.67,2.281,5.259,4.656,7.856,7.018c1.116,1.014,4.839,3.405,4.385,4.343
				c-2.483,5.12-5.278,10.101-8.009,15.092c-7.307,13.358-14.635,26.815-22.862,39.637c-0.695,1.084-1.667,2.767-2.478,3.505
				c0.82-0.747,0.53-0.394-0.449-0.765c-0.823-0.312-1.616-0.735-2.393-1.143c-1.785-0.937-3.504-2.001-5.222-3.054
				c-7.217-4.423-14.171-9.703-21.991-13.039c-0.1-0.042,5.619-14.229,6.232-15.594c2.673-5.951,5.846-11.673,9.208-17.258
				c6.617-10.993,14.455-21.384,23.38-30.608C512.406,568.883,508.734,568.228,507.537,569.465z"/>
		</g>
	</g>
	<g>
		<path fill="#D9E4F4" d="M492.478,554.247c-6.543,9.474-44.738,54.906-42.705,63.041c2.033,8.812,28.13,19.998,35.927,17.964
			c4.745-1.017,36.267-64.396,34.232-68.463C516.202,560.348,498.917,556.281,492.478,554.247z"/>
		<g>
			<path fill="#4B4B4B" d="M490.712,554.24c-8.759,12.544-18.863,24.164-27.888,36.524c-4.601,6.3-9.234,12.73-12.814,19.681
				c-2.416,4.688-3.062,7.847,0.711,11.996c5.838,6.422,15.446,10.282,23.569,12.652c3.903,1.139,10.547,2.996,13.966-0.314
				c3.476-3.365,5.82-8.256,8.186-12.401c3.91-6.853,7.527-13.874,11.048-20.933c5.112-10.25,10.761-20.864,13.973-31.91
				c1.194-4.105-1.503-5.897-4.962-8.025c-6.773-4.169-14.981-5.828-22.496-8.151c-1.103-0.341-4.548,1.315-3.053,1.777
				c8.599,2.657,19.643,4.399,26.207,11.037c2.598,2.627-1.324,9.188-2.428,11.885c-6.113,14.937-13.495,29.499-21.397,43.56
				c-2.377,4.229-4.779,9.406-8.315,12.83c-0.355,0.344-0.293,0.153,0.444-0.082c-0.804,0.257-1.999,0.095-2.8,0.021
				c-2.151-0.199-4.29-0.769-6.355-1.371c-4.857-1.417-9.522-3.55-13.931-6.014c-5.464-3.054-12.569-7.549-9.776-14.49
				c2.758-6.853,7.58-13.103,11.834-19.07c9.525-13.363,20.422-25.741,29.81-39.187C495.202,552.88,491.382,553.281,490.712,554.24z
				"/>
		</g>
	</g>
	<g>
		<path fill="#D9E4F4" d="M441.354,514.397c-7.796,15.93-17.625,60.33-16.608,64.396c7.118,0,21.015-3.389,26.776-7.117
			c6.778-4.406,16.269-51.856,11.862-56.602C458.301,509.991,446.778,513.042,441.354,514.397z"/>
		<g>
			<path fill="#4B4B4B" d="M439.467,514.706c-5.593,11.678-8.708,24.713-11.752,37.237c-1.436,5.909-2.737,11.854-3.825,17.838
				c-0.524,2.883-1.599,6.562-1.05,9.523c0.073,0.396,0.851,0.35,1.104,0.345c6.431-0.132,12.844-1.617,18.968-3.494
				c3.73-1.144,8.856-2.537,11.486-5.668c5.467-6.511,7.064-17.69,8.801-25.69c1.896-8.73,4.222-18.774,2.991-27.765
				c-1.319-9.635-19.374-4.741-25.021-3.327c-2.255,0.565-1.871,1.946,0.371,1.385c5.308-1.329,19.375-5.306,20.837,2.964
				c1.016,5.74-0.28,12.16-1.167,17.828c-1.15,7.356-2.788,14.657-4.88,21.802c-1.179,4.025-2.646,11.198-6.287,13.865
				c-4.142,3.033-10.317,4.194-15.231,5.244c-2.363,0.505-4.759,0.856-7.165,1.063c-1.398,0.121-1.101,0.296-1.049-1.066
				c0.222-5.839,1.818-11.804,3.053-17.483c3.295-15.152,6.86-31.162,13.592-45.218C443.605,513.33,439.962,513.672,439.467,514.706
				z"/>
		</g>
	</g>
	<g>
		<path fill="#D9E4F4" d="M469.963,532.865c-10.167,9.15-41.688,64.396-41.688,67.446c0,4.407,22.709,17.964,27.453,15.931
			c6.44-2.713,41.35-51.18,42.366-54.908C498.773,556.59,476.404,537.27,469.963,532.865z"/>
		<g>
			<path fill="#4B4B4B" d="M468.415,532.481c-4.374,4.054-7.729,9.357-11.044,14.263c-5.066,7.497-9.794,15.226-14.424,22.998
				c-4.187,7.029-8.262,14.131-12.131,21.341c-1.362,2.539-4.779,6.995-4.405,10.087c0.275,2.285,3.539,4.429,5.134,5.684
				c3.397,2.671,7.145,4.9,10.967,6.901c4.157,2.177,10.597,5.686,15.159,2.719c4.38-2.848,7.791-7.797,11.052-11.766
				c5.496-6.688,10.702-13.618,15.82-20.597c3.954-5.391,7.841-10.837,11.557-16.395c1.362-2.037,4.494-5.346,3.741-8.028
				c-1.584-5.644-8.597-10.894-12.651-14.682c-4.962-4.636-10.144-9.227-15.723-13.114c-1.119-0.78-4.611,0.828-3.008,1.945
				c6.947,4.842,13.329,10.743,19.34,16.684c2.639,2.608,5.244,5.34,7.323,8.424c1.367,2.029,1.058,2.791-0.075,4.668
				c-7.853,13.013-17.449,25.252-26.867,37.147c-3.807,4.808-7.733,10.413-12.636,14.204c-1.604,1.241-6.309-1.375-8.151-2.229
				c-4.158-1.927-8.109-4.36-11.813-7.05c-1.217-0.883-5.759-3.884-5.35-5.844c0.349-1.674,1.454-3.356,2.217-4.859
				c3.343-6.588,7.038-13.006,10.747-19.393c4.969-8.558,10.115-17.017,15.524-25.303c3.799-5.817,7.655-12.276,12.793-17.038
				C473.18,531.702,469.416,531.554,468.415,532.481z"/>
		</g>
	</g>
</g>
</svg>
