<?xml version="1.0" encoding="utf-8"?>
<!-- Generator: Adobe Illustrator 16.2.1, SVG Export Plug-In . SVG Version: 6.00 Build 0)  -->
<!DOCTYPE svg PUBLIC "-//W3C//DTD SVG 1.1//EN" "http://www.w3.org/Graphics/SVG/1.1/DTD/svg11.dtd">
<svg version="1.1" id="Layer_1" xmlns="http://www.w3.org/2000/svg" xmlns:xlink="http://www.w3.org/1999/xlink" x="0px" y="0px"
	 width="612px" height="612px" viewBox="0 0 612 612" enable-background="new 0 0 612 612" xml:space="preserve">
<g>
	<g>
		
			<radialGradient id="SVGID_1_" cx="354.1895" cy="384.748" r="209.4833" gradientTransform="matrix(1 0 0 1 0 -88)" gradientUnits="userSpaceOnUse">
			<stop  offset="0" style="stop-color:#77CAE3"/>
			<stop  offset="1" style="stop-color:#1992D1"/>
		</radialGradient>
		<path fill="url(#SVGID_1_)" d="M538.648,371.259c0,126.984-102.938,229.927-229.917,229.927
			c-126.982,0-229.924-102.943-229.924-229.927c0-126.975,102.942-229.913,229.924-229.913
			C435.711,141.343,538.648,244.284,538.648,371.259z"/>
		<g>
			
				<radialGradient id="SVGID_2_" cx="339.5576" cy="457.1855" r="34.8921" gradientTransform="matrix(1 0 0 1 0 -88)" gradientUnits="userSpaceOnUse">
				<stop  offset="0" style="stop-color:#FFFFFF"/>
				<stop  offset="1" style="stop-color:#F6F6F6"/>
			</radialGradient>
			<path fill="url(#SVGID_2_)" d="M374.451,396.324c0,4.278-3.48,7.752-7.758,7.752h-54.269c-4.284,0-7.761-3.474-7.761-7.752
				V342.05c0-4.283,3.477-7.755,7.761-7.755h54.269c4.277,0,7.758,3.472,7.758,7.755V396.324z"/>
			
				<radialGradient id="SVGID_3_" cx="330.707" cy="470.5859" r="13.4053" gradientTransform="matrix(1 0 0 1 0 -88)" gradientUnits="userSpaceOnUse">
				<stop  offset="0" style="stop-color:#585857"/>
				<stop  offset="1" style="stop-color:#3D3D3C"/>
			</radialGradient>
			<path fill="url(#SVGID_3_)" d="M344.111,388.231c0,4.288-3.48,7.761-7.759,7.761H325.06c-4.288,0-7.756-3.473-7.756-7.761
				v-11.294c0-4.275,3.468-7.758,7.756-7.758h11.293c4.278,0,7.759,3.482,7.759,7.758V388.231L344.111,388.231z"/>
			
				<radialGradient id="SVGID_4_" cx="336.1016" cy="466.0391" r="4.9702" gradientTransform="matrix(1 0.0057 -0.0057 1 1.875 -89.3124)" gradientUnits="userSpaceOnUse">
				<stop  offset="0" style="stop-color:#FFFFFF"/>
				<stop  offset="1" style="stop-color:#F6F6F6"/>
			</radialGradient>
			<path fill="url(#SVGID_4_)" d="M340.274,380.764c-0.012,1.583-1.307,2.87-2.892,2.861l-4.184-0.028
				c-1.59-0.01-2.865-1.295-2.855-2.893l0.02-4.182c0.016-1.591,1.312-2.866,2.897-2.86l4.176,0.023
				c1.587,0.016,2.872,1.302,2.866,2.891L340.274,380.764z"/>
		</g>
		<g>
			
				<radialGradient id="SVGID_5_" cx="235.3037" cy="457.1855" r="34.8916" gradientTransform="matrix(1 0 0 1 0 -88)" gradientUnits="userSpaceOnUse">
				<stop  offset="0" style="stop-color:#FFFFFF"/>
				<stop  offset="1" style="stop-color:#F6F6F6"/>
			</radialGradient>
			<path fill="url(#SVGID_5_)" d="M270.196,396.324c0,4.278-3.471,7.752-7.758,7.752h-54.27c-4.282,0-7.757-3.474-7.757-7.752
				V342.05c0-4.283,3.475-7.755,7.757-7.755h54.27c4.291,0,7.758,3.472,7.758,7.755V396.324z"/>
			
				<radialGradient id="SVGID_6_" cx="244.9976" cy="470.5859" r="13.4053" gradientTransform="matrix(1 0 0 1 0 -88)" gradientUnits="userSpaceOnUse">
				<stop  offset="0" style="stop-color:#585857"/>
				<stop  offset="1" style="stop-color:#3D3D3C"/>
			</radialGradient>
			<path fill="url(#SVGID_6_)" d="M258.402,388.231c0,4.288-3.469,7.761-7.757,7.761H239.35c-4.282,0-7.757-3.473-7.757-7.761
				v-11.294c0-4.275,3.475-7.758,7.757-7.758h11.294c4.288,0,7.757,3.482,7.757,7.758V388.231z"/>
			
				<radialGradient id="SVGID_7_" cx="250.3984" cy="466.5273" r="4.9683" gradientTransform="matrix(1 0.0057 -0.0057 1 1.875 -89.3124)" gradientUnits="userSpaceOnUse">
				<stop  offset="0" style="stop-color:#FFFFFF"/>
				<stop  offset="1" style="stop-color:#F6F6F6"/>
			</radialGradient>
			<path fill="url(#SVGID_7_)" d="M254.57,380.764c-0.007,1.583-1.302,2.87-2.892,2.861l-4.186-0.028
				c-1.586-0.01-2.869-1.295-2.852-2.893l0.02-4.182c0.006-1.591,1.302-2.866,2.891-2.86l4.184,0.023
				c1.586,0.016,2.872,1.302,2.856,2.891L254.57,380.764z"/>
		</g>
		<rect x="308.731" y="307.08" fill="#010101" width="65.72" height="11.125"/>
		<rect x="197.453" y="307.08" fill="#010101" width="65.715" height="11.125"/>
		<g>
			
				<radialGradient id="SVGID_8_" cx="1082.0283" cy="221.2432" r="242.7766" gradientTransform="matrix(0.3733 -0.4443 0.6674 0.5608 -226.0619 388.624)" gradientUnits="userSpaceOnUse">
				<stop  offset="0" style="stop-color:#30565F"/>
				<stop  offset="1" style="stop-color:#003049"/>
			</radialGradient>
			<path fill="url(#SVGID_8_)" d="M246.034,8.172c0,0,1.611,2.16,4.536,5.909c2.885,3.768,7.208,9.071,11.787,15.912
				c1.127,1.691,2.302,3.537,3.367,5.409c1.087,1.826,2.244,3.855,3.267,5.926c2.078,4.153,3.832,8.638,5.046,13.216
				c2.493,9.199,2.681,18.536,2.016,27.208c-0.327,4.356-0.832,8.593-1.319,12.713c-0.195,1.732-0.275,3.847-0.31,5.811
				c-0.039,1.992-0.005,3.996,0.071,5.995c0.299,7.99,1.406,15.773,3.065,22.424c1.629,6.662,3.875,12.146,5.857,15.716
				c1.984,3.616,3.524,5.348,3.97,5.962c1.817,2.403,2.578,4.392,3.802,7.201c1.123,2.724,2.582,5.963,2.225,8.692
				c-0.326,2.688-2.818,4.375-7.692,3.247c-2.384-0.563-5.311-1.88-8.237-3.951c-2.935-2.047-5.794-4.815-8.056-7.843
				c-1.131-1.485-4.24-6.036-6.714-12.12c-2.535-6.09-4.397-13.538-5.159-21.364c-0.783-7.837-0.583-16.137,0.552-24.417
				c0.29-2.073,0.638-4.145,1.058-6.211c0.433-2.089,0.862-4.052,1.547-6.25c1.217-3.754,2.427-7.483,3.455-11.238
				c2.069-7.498,3.29-15.217,2.397-23.069c-0.424-3.917-1.356-7.838-2.672-11.61c-0.654-1.895-1.415-3.715-2.239-5.582
				c-0.776-1.84-1.601-3.556-2.458-5.243c-3.455-6.722-7.076-12.346-9.442-16.27C247.351,10.418,246.034,8.172,246.034,8.172z"/>
			
				<radialGradient id="SVGID_9_" cx="1069.4883" cy="223.6353" r="242.7753" gradientTransform="matrix(0.5248 -0.6245 0.7383 0.6204 -372.6665 513.4764)" gradientUnits="userSpaceOnUse">
				<stop  offset="0" style="stop-color:#30565F"/>
				<stop  offset="1" style="stop-color:#003049"/>
			</radialGradient>
			<path fill="url(#SVGID_9_)" d="M510.929,70.297c-0.028-0.019-0.519,3.719-2.128,10.075c-1.64,6.316-4.442,15.299-10.018,25.022
				c-5.543,9.691-14.097,20.096-26.537,27.884c-3.103,1.952-6.413,3.726-9.932,5.303c-3.45,1.552-7.211,3.01-11.212,4.065
				c-7.955,2.157-16.968,2.817-26.057,1.762c-9.084-1.023-18.12-3.625-26.604-6.826c-8.502-3.199-16.524-6.974-24.125-10.676
				l-11.006-5.447c-3.215-1.542-6.335-2.822-9.26-3.731c-5.895-1.864-10.675-2.065-14.141-1.048
				c-6.879,1.869-11.488,8.974-14.401,14.815c-0.333,0.665-0.524,1.15-0.756,1.765l-0.755,1.977
				c-0.45,1.269-0.825,2.434-1.128,3.464c-0.607,2.056-0.971,3.555-1.196,4.303c-1.706,6.032-4.084,11.413-7.001,15.306
				c-2.912,3.863-6.411,6.266-10.354,5.648c-3.898-0.609-7.533-4.366-9.667-10.283c-2.146-5.883-2.731-13.871-0.472-21.879
				c0.29-0.997,0.899-2.925,1.963-5.605c0.527-1.335,1.187-2.866,1.99-4.561c0.4-0.836,0.852-1.725,1.335-2.645
				c0.505-1,1.166-2.154,1.81-3.138c2.413-3.708,5.499-8.016,10.208-12.276c2.358-2.12,5.148-4.213,8.534-5.978
				c3.373-1.757,7.378-3.171,11.797-3.809c4.403-0.665,9.146-0.525,13.745,0.294c4.619,0.801,9.095,2.243,13.32,4.021
				c4.248,1.785,8.267,3.913,12.138,6.232l10.554,6.453c14.003,8.475,28.621,16.788,43.499,20.016
				c7.411,1.624,14.826,1.909,21.879,0.857c3.546-0.517,6.924-1.374,10.335-2.434c3.36-1.043,6.577-2.29,9.617-3.72
				c12.247-5.684,21.576-14.303,28.025-22.838c6.506-8.538,10.35-16.878,12.706-22.812
				C509.973,73.881,510.904,70.279,510.929,70.297z"/>
			
				<radialGradient id="SVGID_10_" cx="1069.4893" cy="223.6372" r="242.7807" gradientTransform="matrix(0.5248 -0.6245 0.7383 0.6204 -372.6665 513.4764)" gradientUnits="userSpaceOnUse">
				<stop  offset="0" style="stop-color:#30565F"/>
				<stop  offset="1" style="stop-color:#003049"/>
			</radialGradient>
			<path fill="url(#SVGID_10_)" d="M492.632,233.098c-0.02,0.009-0.589-3.592-0.589-9.804c-0.079-6.214,0.34-15.041,0.036-25.645
				c-0.189-5.282-0.549-11.067-1.807-16.941c-0.632-2.919-1.514-5.883-2.847-8.506c-0.323-0.652-0.688-1.284-1.066-1.87
				c-0.346-0.536-0.744-1.043-1.159-1.53c-0.843-0.97-1.84-1.816-2.947-2.439c-1.104-0.632-2.308-1.029-3.498-1.223
				c-1.107-0.185-2.503-0.242-3.925-0.13c-0.727,0.054-1.388,0.13-2.21,0.266l-2.504,0.377c-1.647,0.259-3.28,0.603-4.914,0.955
				c-6.546,1.449-13.068,3.572-19.646,5.892c-6.587,2.314-13.23,4.853-20.156,7.113c-1.737,0.554-3.486,1.105-5.259,1.62
				l-2.691,0.762c-1.008,0.268-2.032,0.542-2.928,0.687c-3.777,0.748-7.168,1.407-10.68,2.022
				c-13.935,2.5-27.527,4.143-39.829,4.757c-6.147,0.319-11.951,0.406-17.267,0.294l-13.543-0.329
				c-8.189-0.246-14.287-1.077-16.391-1.485c-4.192-0.796-8.372-2.217-12.175-4.222c-3.792-2.001-7.202-4.599-9.644-7.425
				c-2.457-2.811-3.863-5.764-4.107-8.101c-0.269-2.367,0.565-4.054,1.963-5.126c1.418-1.086,3.23-1.572,5.015-1.984
				c1.809-0.413,3.592-0.746,5.462-0.994c3.678-0.485,8.229-0.378,14.357,0.77c1.522,0.293,5.941,1.294,13.299,2.243l6.137,0.75
				l3.65,0.44l3.571,0.471c4.774,0.603,10.068,1.079,15.777,1.414c11.413,0.675,24.502,0.617,38.331-0.208
				c3.437-0.187,7.041-0.465,10.329-0.695c0.886-0.052,1.577-0.152,2.312-0.253l2.493-0.383c1.678-0.268,3.376-0.583,5.08-0.906
				c6.827-1.312,13.82-2.994,20.966-4.542c7.154-1.545,14.482-2.959,21.984-3.68c1.88-0.172,3.751-0.322,5.653-0.392l2.78-0.089
				c0.937-0.035,2.061-0.035,3.105,0.017c2.147,0.106,4.36,0.406,6.789,1.129c2.355,0.709,4.604,1.794,6.586,3.247
				c1.977,1.431,3.673,3.207,5.009,5.127c0.658,0.954,1.254,1.955,1.762,2.953c0.483,0.957,0.893,1.9,1.234,2.827
				c1.373,3.723,1.932,7.194,2.27,10.476c0.584,6.552,0.182,12.373-0.28,17.674c-1.044,10.577-2.566,19.043-3.262,25.07
				C492.481,229.552,492.613,233.098,492.632,233.098z"/>
			
				<radialGradient id="SVGID_11_" cx="1062.9678" cy="226.1245" r="242.7615" gradientTransform="matrix(0.6433 -0.7656 0.7656 0.6433 -477.57 619.6067)" gradientUnits="userSpaceOnUse">
				<stop  offset="0" style="stop-color:#30565F"/>
				<stop  offset="1" style="stop-color:#003049"/>
			</radialGradient>
			<path fill="url(#SVGID_11_)" d="M185.37,78.844c-0.021,0.034,2.179,0.671,5.781,2.592c3.563,1.91,8.579,5.264,13.191,10.975
				c2.287,2.852,4.46,6.265,6.2,10.206c0.436,0.983,0.834,1.993,1.216,3.048c0.384,1.139,0.733,2.31,0.972,3.478
				c0.523,2.347,0.783,4.711,0.933,7.049c0.309,4.696,0.166,9.335,0.23,13.776c0.073,4.377,0.378,8.743,1.521,11.613
				c1.471,4.138,8.31,7.142,15.691,8.359c7.441,1.277,15.268,1.271,22.138,0.948c13.812-0.73,24.004-2.586,26.096-2.66
				c8.419-0.513,16.106,5.632,17.147,14.234c1.043,8.59-5.717,16.474-15.198,17.068c-2.369,0.069-13.684,0.087-29.605-2.24
				c-7.952-1.237-17.095-2.992-26.831-6.842c-4.846-1.984-9.907-4.508-14.661-8.484c-2.377-2.002-4.602-4.354-6.475-7.245
				c-0.983-1.52-1.841-3.114-2.413-4.809c-0.614-1.667-1.002-3.489-1.216-5.029c-0.774-6.327,0.259-11.401,1.113-16.093
				c0.922-4.671,1.964-8.936,2.551-12.913c0.29-1.988,0.479-3.891,0.479-5.675c0.008-0.906-0.057-1.754-0.145-2.593
				c-0.124-0.906-0.275-1.825-0.457-2.715c-0.724-3.579-1.94-6.881-3.395-9.796c-2.936-5.854-6.86-10.003-9.845-12.546
				C187.378,79.983,185.343,78.873,185.37,78.844z"/>
			
				<radialGradient id="SVGID_12_" cx="1082.0156" cy="221.2456" r="242.7671" gradientTransform="matrix(0.3733 -0.4443 0.6674 0.5608 -226.0619 388.624)" gradientUnits="userSpaceOnUse">
				<stop  offset="0" style="stop-color:#30565F"/>
				<stop  offset="1" style="stop-color:#003049"/>
			</radialGradient>
			<path fill="url(#SVGID_12_)" d="M295.36,68.863c0.039,0.016-2.787,4.455-6.417,11.52c-1.789,3.55-3.739,7.783-5.353,12.542
				c-1.615,4.752-2.891,10.061-3.173,15.58c-0.304,5.505,0.493,11.22,2.494,16.261c0.977,2.521,2.223,4.862,3.634,7.016
				c1.53,2.376,3.215,4.657,5.004,7.067c3.565,4.753,7.171,9.694,9.592,14.032c2.472,4.334,3.667,7.838,3.958,8.981
				c0.629,2.333,0.636,4.557,0.108,6.304c-0.519,1.756-1.565,3.014-2.853,3.72c-2.616,1.43-6.033,0.654-9.164-1.295
				c-3.172-1.979-5.659-4.649-7.622-6.774c-1.964-2.2-3.31-3.601-3.709-5.119c-0.115-0.406-0.182-1.476-1.081-3.928
				c-0.869-2.439-2.833-6.318-5.773-11.742c-1.426-2.688-3.115-5.883-4.61-9.337c-1.593-3.655-2.778-7.501-3.41-11.192
				c-1.282-7.443-0.355-14.185,1.595-19.862c1.955-5.701,4.872-10.488,7.925-14.592c3.046-4.097,6.261-7.505,9.092-10.302
				C291.296,72.171,295.384,68.886,295.36,68.863z"/>
			
				<radialGradient id="SVGID_13_" cx="994.8398" cy="258.7891" r="242.7676" gradientTransform="matrix(0.3963 0.9181 0.9181 -0.3963 -319.173 -421.8445)" gradientUnits="userSpaceOnUse">
				<stop  offset="0" style="stop-color:#30565F"/>
				<stop  offset="1" style="stop-color:#003049"/>
			</radialGradient>
			<path fill="url(#SVGID_13_)" d="M280.815,313.267c0.051,0-2.788-8.562-6.212-21.63c-1.674-6.534-3.455-14.196-4.731-22.45
				c-1.267-8.218-2.038-17.051-1.535-25.545c0.468-8.484,2.344-16.537,5.612-22.793c1.614-3.131,3.53-5.806,5.623-8.111
				c2.266-2.533,4.729-4.851,7.322-7.271c5.18-4.762,10.439-9.771,14.123-14.682c3.747-4.853,5.775-9.326,6.311-10.848
				c1.151-3.095,1.506-6.434,1.115-9.404c-0.383-2.993-1.491-5.586-2.975-7.513c-3.037-3.896-7.418-5.029-11.629-4.193
				c-4.253,0.836-7.759,3.201-10.534,5.078c-2.781,1.999-4.677,3.202-5.409,5.214c-0.212,0.539-0.466,2.102-1.957,5.188
				c-1.466,3.085-4.507,7.599-9.004,13.795c-2.197,3.079-4.796,6.759-7.187,10.952c-2.556,4.432-4.623,9.411-5.977,14.545
				c-2.752,10.33-2.643,21.094-1.085,30.938c1.55,9.883,4.446,19.038,7.604,27.247c3.175,8.205,6.638,15.479,9.729,21.584
				C276.259,305.559,280.85,313.24,280.815,313.267z"/>
			
				<radialGradient id="SVGID_14_" cx="1062.9863" cy="226.1245" r="242.7841" gradientTransform="matrix(0.6433 -0.7656 0.7656 0.6433 -477.57 619.6067)" gradientUnits="userSpaceOnUse">
				<stop  offset="0" style="stop-color:#30565F"/>
				<stop  offset="1" style="stop-color:#003049"/>
			</radialGradient>
			<path fill="url(#SVGID_14_)" d="M410.023,121.341c-0.034-0.018,0.248,3.125-1.291,8.244c-0.777,2.552-1.969,5.572-3.939,8.781
				c-2.031,3.137-4.69,6.736-9.594,9.138l0.274-0.101c-1.096,0.621-2.296,1.237-3.701,1.75c-1.395,0.508-3.099,0.891-4.903,0.885
				c-1.806,0.006-3.459-0.349-4.76-0.617c-1.299-0.274-2.38-0.491-3.426-0.629c-0.534-0.064-1.042-0.115-1.559-0.144
				c-0.608-0.064-0.774-0.009-1.463-0.023c-1.168-0.014-2.331,0.014-3.501,0.072c-2.34,0.12-4.685,0.365-7.036,0.744
				c-9.377,1.494-18.643,4.986-27.335,8.57c-8.672,3.612-16.902,7.211-23.605,9.583c-6.691,2.422-11.73,3.674-13.135,3.881
				c-4.167,0.646-8.295-0.747-11.163-3.448c-2.892-2.693-4.48-6.645-4.462-10.961c0.005-4.34,1.406-8.25,3.325-11.181
				c1.938-2.935,4.452-4.937,7.556-5.407c1.062-0.167,4.92-0.286,11.032-1.009c6.123-0.663,14.531-2.108,24.479-3.593
				c9.9-1.43,21.505-2.76,33.037-1.608c2.873,0.271,5.727,0.711,8.503,1.293c1.393,0.295,2.763,0.623,4.108,0.993
				c0.568,0.154,1.635,0.427,2.253,0.666c0.709,0.24,1.406,0.505,2.079,0.782c1.344,0.56,2.604,1.173,3.601,1.682
				c1.017,0.513,1.688,0.847,2.268,1.049c1.066,0.439,2.878,0.277,4.809-0.262l0.53-0.145l-0.253,0.046
				c3.043-0.479,6.171-2.626,8.513-4.851c2.384-2.258,4.203-4.687,5.524-6.809C409.432,124.429,410.013,121.323,410.023,121.341z"/>
			
				<radialGradient id="SVGID_15_" cx="1082.0225" cy="221.2461" r="242.7527" gradientTransform="matrix(0.3733 -0.4443 0.6674 0.5608 -226.0619 388.624)" gradientUnits="userSpaceOnUse">
				<stop  offset="0" style="stop-color:#30565F"/>
				<stop  offset="1" style="stop-color:#003049"/>
			</radialGradient>
			<path fill="url(#SVGID_15_)" d="M324.28,2.055l2.285,6.75c1.436,4.311,3.76,10.468,5.698,17.99
				c0.942,3.744,1.712,7.855,1.806,12.074c0.116,4.215-0.508,8.483-1.89,12.446c-0.678,1.964-1.616,3.947-2.528,5.695l-2.692,5.423
				L321.3,73.446c-3.761,7.382-7.303,14.857-9.826,22.253c-1.282,3.717-2.267,7.328-3.063,10.99l-2.539,10.773
				c-1.545,6.606-2.421,12.18-2.706,16.39c-0.296,4.196-0.115,7.005-0.136,7.944c-0.045,3.767-0.963,6.817-2.573,9.113
				c-1.62,2.255-3.953,3.756-7.162,3.365c-3.182-0.383-6.71-2.8-9.526-6.745c-2.818-3.899-4.791-9.309-4.717-14.462
				c0.015-1.265,0.245-4.951,1.35-9.828c1.071-4.878,3.135-10.825,5.852-17.065l4.288-9.729c1.513-3.584,3.348-7.322,5.419-10.857
				c4.142-7.137,9.241-13.878,14.415-20.321l7.698-9.481l3.688-4.676c1.264-1.528,2.305-2.892,3.229-4.469
				c1.838-3.071,3.013-6.439,3.521-9.974c0.532-3.527,0.417-7.186,0.062-10.66c-0.776-6.991-2.209-13.115-3-17.322L324.28,2.055z"/>
		</g>
		<path opacity="0.5" fill="#010101" enable-background="new    " d="M255.012,443.943c2.312,3.335,4.978,6.362,8.012,8.942
			c2.962,2.642,6.245,4.887,9.772,6.566c7.05,3.369,14.936,4.58,22.673,3.616c7.757-0.837,15.284-3.545,22.485-6.94
			c3.615-1.694,7.128-3.635,10.56-5.73c3.507-1.992,6.845-4.254,10.272-6.454c-5.845,5.654-12.365,10.636-19.506,14.714
			c-7.119,4.101-15.035,7.104-23.404,8.096c-8.325,0.966-17.137-0.516-24.406-4.793
			C264.214,457.751,258.342,451.385,255.012,443.943z"/>
	</g>
	<g>
		<g>
			
				<linearGradient id="SVGID_16_" gradientUnits="userSpaceOnUse" x1="261.5903" y1="447.1807" x2="185.9961" y2="497.3028" gradientTransform="matrix(1 0 0 1 0 -88)">
				<stop  offset="0" style="stop-color:#FFFFFF;stop-opacity:0.5"/>
				<stop  offset="1" style="stop-color:#FFFFFF"/>
			</linearGradient>
			<path opacity="0.25" fill="url(#SVGID_16_)" enable-background="new    " d="M267.395,402.381c0,3.687-3.096,6.681-6.913,6.681
				h-71.518c-3.818,0-6.919-2.994-6.919-6.681v-37.518c0-3.686,3.101-6.67,6.919-6.67h71.518c3.817,0,6.913,2.984,6.913,6.67
				V402.381z"/>
			<g>
				
					<linearGradient id="SVGID_17_" gradientUnits="userSpaceOnUse" x1="263.6807" y1="445.8867" x2="184.0934" y2="498.6564" gradientTransform="matrix(1 0 0 1 0 -88)">
					<stop  offset="0" style="stop-color:#585857"/>
					<stop  offset="1" style="stop-color:#010101"/>
				</linearGradient>
				<path fill="url(#SVGID_17_)" d="M260.331,411.65h-70.924c-5.483,0-9.952-4.464-9.952-9.951v-36.152
					c0-5.484,4.468-9.958,9.952-9.958h70.924c5.489,0,9.955,4.474,9.955,9.958v36.152C270.283,407.189,265.82,411.65,260.331,411.65
					z M189.407,360.787c-2.622,0-4.756,2.139-4.756,4.76v36.152c0,2.624,2.137,4.754,4.756,4.754h70.924
					c2.63,0,4.765-2.132,4.765-4.754v-36.152c0-2.624-2.139-4.76-4.765-4.76H189.407z"/>
			</g>
		</g>
		<g>
			
				<linearGradient id="SVGID_18_" gradientUnits="userSpaceOnUse" x1="382.6963" y1="447.1807" x2="307.1019" y2="497.303" gradientTransform="matrix(1 0 0 1 0 -88)">
				<stop  offset="0" style="stop-color:#FFFFFF;stop-opacity:0.5"/>
				<stop  offset="1" style="stop-color:#FFFFFF"/>
			</linearGradient>
			<path opacity="0.25" fill="url(#SVGID_18_)" enable-background="new    " d="M388.5,402.381c0,3.687-3.096,6.681-6.908,6.681
				h-71.521c-3.813,0-6.917-2.994-6.917-6.681v-37.518c0-3.686,3.1-6.67,6.917-6.67h71.521c3.812,0,6.908,2.984,6.908,6.67V402.381z
				"/>
			<g>
				
					<linearGradient id="SVGID_19_" gradientUnits="userSpaceOnUse" x1="384.7832" y1="445.8887" x2="305.2002" y2="498.6557" gradientTransform="matrix(1 0 0 1 0 -88)">
					<stop  offset="0" style="stop-color:#585857"/>
					<stop  offset="1" style="stop-color:#010101"/>
				</linearGradient>
				<path fill="url(#SVGID_19_)" d="M381.438,411.65h-70.925c-5.492,0-9.953-4.464-9.953-9.951v-36.152
					c0-5.484,4.461-9.958,9.953-9.958h70.925c5.481,0,9.95,4.474,9.95,9.958v36.152C391.389,407.189,386.92,411.65,381.438,411.65z
					 M310.515,360.787c-2.631,0-4.766,2.139-4.766,4.76v36.152c0,2.624,2.139,4.754,4.766,4.754h70.925
					c2.622,0,4.758-2.132,4.758-4.754v-36.152c0-2.624-2.144-4.76-4.758-4.76H310.515z"/>
			</g>
		</g>
		
			<linearGradient id="SVGID_20_" gradientUnits="userSpaceOnUse" x1="270.1963" y1="468.5195" x2="300.5645" y2="468.5195" gradientTransform="matrix(1 0 0 1 0 -88)">
			<stop  offset="0" style="stop-color:#595758"/>
			<stop  offset="1" style="stop-color:#191919"/>
		</linearGradient>
		<rect x="270.196" y="378.664" fill="url(#SVGID_20_)" width="30.368" height="3.712"/>
	</g>
</g>
</svg>
