<?xml version="1.0" encoding="utf-8"?>
<!-- Generator: Adobe Illustrator 16.2.1, SVG Export Plug-In . SVG Version: 6.00 Build 0)  -->
<!DOCTYPE svg PUBLIC "-//W3C//DTD SVG 1.1//EN" "http://www.w3.org/Graphics/SVG/1.1/DTD/svg11.dtd">
<svg version="1.1" id="Layer_1" xmlns="http://www.w3.org/2000/svg" xmlns:xlink="http://www.w3.org/1999/xlink" x="0px" y="0px"
	 width="612px" height="612px" viewBox="0 0 612 612" enable-background="new 0 0 612 612" xml:space="preserve">
<g>
	<g>
		
			<radialGradient id="SVGID_1_" cx="352.8037" cy="135.8516" r="213.3605" gradientTransform="matrix(1 0 0 -1 0 435)" gradientUnits="userSpaceOnUse">
			<stop  offset="0" style="stop-color:#F98D00"/>
			<stop  offset="1" style="stop-color:#9B5500"/>
		</radialGradient>
		<path fill="url(#SVGID_1_)" d="M540.677,375.037c0,129.336-104.843,234.184-234.174,234.184
			c-129.333,0-234.18-104.85-234.18-234.184c0-129.324,104.848-234.167,234.18-234.167
			C435.834,140.867,540.677,245.713,540.677,375.037z"/>
		<g>
			
				<radialGradient id="SVGID_2_" cx="337.9004" cy="62.0732" r="35.5376" gradientTransform="matrix(1 0 0 -1 0 435)" gradientUnits="userSpaceOnUse">
				<stop  offset="0" style="stop-color:#FFFFFF"/>
				<stop  offset="1" style="stop-color:#F6F6F6"/>
			</radialGradient>
			<path fill="url(#SVGID_2_)" d="M373.439,400.568c0,4.357-3.545,7.895-7.899,7.895h-55.276c-4.362,0-7.903-3.537-7.903-7.895
				v-55.279c0-4.361,3.541-7.898,7.903-7.898h55.276c4.354,0,7.899,3.537,7.899,7.898V400.568z"/>
			
				<radialGradient id="SVGID_3_" cx="328.8867" cy="48.4248" r="13.6528" gradientTransform="matrix(1 0 0 -1 0 435)" gradientUnits="userSpaceOnUse">
				<stop  offset="0" style="stop-color:#585857"/>
				<stop  offset="1" style="stop-color:#3D3D3C"/>
			</radialGradient>
			<path fill="url(#SVGID_3_)" d="M342.539,392.326c0,4.367-3.545,7.902-7.904,7.902h-11.501c-4.366,0-7.899-3.535-7.899-7.902
				v-11.504c0-4.355,3.533-7.9,7.899-7.9h11.501c4.359,0,7.904,3.545,7.904,7.9V392.326L342.539,392.326z"/>
			
				<radialGradient id="SVGID_4_" cx="334.8984" cy="53.0327" r="5.0618" gradientTransform="matrix(1 0.0057 0.0057 -1 -1.6163 433.6846)" gradientUnits="userSpaceOnUse">
				<stop  offset="0" style="stop-color:#FFFFFF"/>
				<stop  offset="1" style="stop-color:#F6F6F6"/>
			</radialGradient>
			<path fill="url(#SVGID_4_)" d="M338.63,384.719c-0.012,1.611-1.33,2.924-2.945,2.916l-4.26-0.027
				c-1.62-0.012-2.918-1.318-2.908-2.949l0.019-4.258c0.017-1.619,1.338-2.918,2.952-2.914l4.253,0.023
				c1.616,0.018,2.926,1.326,2.919,2.945L338.63,384.719z"/>
		</g>
		<g>
			
				<radialGradient id="SVGID_5_" cx="231.7168" cy="62.0732" r="35.5374" gradientTransform="matrix(1 0 0 -1 0 435)" gradientUnits="userSpaceOnUse">
				<stop  offset="0" style="stop-color:#FFFFFF"/>
				<stop  offset="1" style="stop-color:#F6F6F6"/>
			</radialGradient>
			<path fill="url(#SVGID_5_)" d="M267.255,400.568c0,4.357-3.535,7.895-7.902,7.895H204.08c-4.362,0-7.901-3.537-7.901-7.895
				v-55.279c0-4.361,3.54-7.898,7.901-7.898h55.274c4.37,0,7.902,3.537,7.902,7.898V400.568z"/>
			
				<radialGradient id="SVGID_6_" cx="241.5898" cy="48.4248" r="13.6526" gradientTransform="matrix(1 0 0 -1 0 435)" gradientUnits="userSpaceOnUse">
				<stop  offset="0" style="stop-color:#585857"/>
				<stop  offset="1" style="stop-color:#3D3D3C"/>
			</radialGradient>
			<path fill="url(#SVGID_6_)" d="M255.242,392.326c0,4.367-3.533,7.902-7.9,7.902h-11.503c-4.361,0-7.9-3.535-7.9-7.902v-11.504
				c0-4.355,3.539-7.9,7.9-7.9h11.503c4.368,0,7.9,3.545,7.9,7.9V392.326z"/>
			
				<radialGradient id="SVGID_7_" cx="247.6094" cy="52.5352" r="5.0605" gradientTransform="matrix(1 0.0057 0.0057 -1 -1.6163 433.6846)" gradientUnits="userSpaceOnUse">
				<stop  offset="0" style="stop-color:#FFFFFF"/>
				<stop  offset="1" style="stop-color:#F6F6F6"/>
			</radialGradient>
			<path fill="url(#SVGID_7_)" d="M251.339,384.719c-0.007,1.611-1.326,2.924-2.945,2.916l-4.263-0.027
				c-1.615-0.012-2.922-1.318-2.905-2.949l0.021-4.258c0.006-1.619,1.327-2.918,2.945-2.914l4.261,0.023
				c1.615,0.018,2.925,1.326,2.909,2.945L251.339,384.719z"/>
		</g>
		<rect x="306.503" y="309.672" fill="#830000" width="66.937" height="11.332"/>
		<rect x="193.166" y="309.672" fill="#830000" width="66.931" height="11.332"/>
		<g>
			
				<radialGradient id="SVGID_8_" cx="965.0752" cy="329.1816" r="247.2742" gradientTransform="matrix(0.3733 -0.4443 -0.6674 -0.5608 183.0343 642.8362)" gradientUnits="userSpaceOnUse">
				<stop  offset="0" style="stop-color:#B21900"/>
				<stop  offset="1" style="stop-color:#820000"/>
			</radialGradient>
			<path fill="url(#SVGID_8_)" d="M242.646,5.229c0,0,1.641,2.2,4.62,6.019c2.938,3.837,7.341,9.239,12.005,16.206
				c1.148,1.723,2.344,3.603,3.43,5.509c1.107,1.86,2.286,3.928,3.327,6.036c2.116,4.23,3.903,8.797,5.14,13.461
				c2.539,9.369,2.731,18.879,2.054,27.711c-0.333,4.437-0.848,8.751-1.344,12.949c-0.198,1.765-0.28,3.918-0.316,5.918
				c-0.039,2.029-0.005,4.07,0.072,6.107c0.304,8.138,1.432,16.065,3.122,22.838c1.66,6.785,3.947,12.371,5.966,16.006
				c2.021,3.684,3.59,5.447,4.043,6.073c1.852,2.447,2.626,4.474,3.872,7.334c1.145,2.775,2.63,6.073,2.267,8.853
				c-0.333,2.737-2.871,4.455-7.835,3.308c-2.427-0.574-5.409-1.916-8.389-4.024c-2.989-2.084-5.901-4.904-8.204-7.988
				c-1.153-1.512-4.319-6.147-6.839-12.344c-2.582-6.204-4.479-13.789-5.254-21.76c-0.798-7.982-0.594-16.435,0.562-24.868
				c0.294-2.112,0.649-4.221,1.077-6.326c0.441-2.127,0.878-4.127,1.576-6.366c1.239-3.824,2.472-7.621,3.518-11.446
				c2.109-7.637,3.351-15.5,2.442-23.497c-0.431-3.989-1.381-7.983-2.721-11.825c-0.666-1.93-1.441-3.783-2.28-5.685
				c-0.79-1.875-1.63-3.622-2.503-5.34c-3.518-6.846-7.207-12.574-9.617-16.571C243.986,7.518,242.646,5.229,242.646,5.229z"/>
			
				<radialGradient id="SVGID_9_" cx="987.6689" cy="332.917" r="247.2728" gradientTransform="matrix(0.5248 -0.6245 -0.7383 -0.6204 79.7794 804.2828)" gradientUnits="userSpaceOnUse">
				<stop  offset="0" style="stop-color:#B21900"/>
				<stop  offset="1" style="stop-color:#820000"/>
			</radialGradient>
			<path fill="url(#SVGID_9_)" d="M512.443,68.504c-0.029-0.019-0.527,3.789-2.167,10.262c-1.67,6.433-4.525,15.582-10.203,25.486
				c-5.646,9.871-14.356,20.468-27.027,28.4c-3.16,1.988-6.532,3.795-10.115,5.401c-3.516,1.58-7.345,3.066-11.421,4.14
				c-8.103,2.197-17.281,2.87-26.54,1.795c-9.251-1.042-18.455-3.693-27.097-6.953c-8.66-3.258-16.832-7.104-24.571-10.875
				l-11.21-5.547c-3.274-1.571-6.452-2.875-9.432-3.801c-6.002-1.897-10.872-2.103-14.401-1.067
				c-7.008,1.903-11.702,9.14-14.669,15.089c-0.34,0.677-0.534,1.171-0.769,1.797l-0.77,2.014c-0.459,1.293-0.841,2.479-1.148,3.529
				c-0.619,2.094-0.988,3.621-1.218,4.382c-1.738,6.144-4.16,11.624-7.131,15.589c-2.966,3.936-6.53,6.383-10.547,5.753
				c-3.97-0.62-7.672-4.447-9.846-10.474c-2.186-5.992-2.782-14.127-0.48-22.284c0.294-1.016,0.915-2.979,1.999-5.709
				c0.537-1.359,1.209-2.918,2.026-4.646c0.407-0.852,0.867-1.757,1.36-2.693c0.514-1.02,1.188-2.195,1.843-3.196
				c2.458-3.776,5.601-8.164,10.397-12.502c2.402-2.159,5.243-4.292,8.692-6.089c3.436-1.789,7.515-3.229,12.015-3.879
				c4.484-0.678,9.316-0.534,14,0.3c4.705,0.816,9.262,2.285,13.567,4.097c4.326,1.818,8.42,3.985,12.361,6.346l10.75,6.573
				c14.261,8.631,29.149,17.099,44.305,20.387c7.547,1.653,15.1,1.943,22.282,0.872c3.611-0.526,7.053-1.398,10.526-2.479
				c3.422-1.062,6.699-2.333,9.796-3.789c12.475-5.789,21.975-14.567,28.543-23.261c6.628-8.696,10.543-17.191,12.941-23.235
				C511.471,72.155,512.419,68.487,512.443,68.504z"/>
			
				<radialGradient id="SVGID_10_" cx="987.6719" cy="332.9141" r="247.2724" gradientTransform="matrix(0.5248 -0.6245 -0.7383 -0.6204 79.7794 804.2828)" gradientUnits="userSpaceOnUse">
				<stop  offset="0" style="stop-color:#B21900"/>
				<stop  offset="1" style="stop-color:#820000"/>
			</radialGradient>
			<path fill="url(#SVGID_10_)" d="M493.807,234.32c-0.019,0.009-0.599-3.658-0.599-9.985c-0.079-6.33,0.345-15.319,0.036-26.119
				c-0.193-5.381-0.56-11.273-1.839-17.255c-0.645-2.972-1.542-5.992-2.9-8.664c-0.33-0.665-0.7-1.307-1.085-1.904
				c-0.353-0.546-0.76-1.063-1.181-1.56c-0.857-0.987-1.874-1.85-3.002-2.484c-1.125-0.644-2.351-1.049-3.562-1.246
				c-1.128-0.189-2.55-0.248-3.999-0.132c-0.739,0.055-1.411,0.132-2.25,0.27l-2.55,0.385c-1.679,0.264-3.341,0.613-5.005,0.972
				c-6.668,1.476-13.312,3.639-20.012,6c-6.707,2.357-13.476,4.942-20.527,7.245c-1.771,0.564-3.551,1.125-5.355,1.65l-2.741,0.776
				c-1.028,0.273-2.071,0.551-2.982,0.699c-3.848,0.761-7.301,1.433-10.877,2.06c-14.19,2.546-28.037,4.219-40.566,4.845
				c-6.262,0.326-12.173,0.414-17.587,0.298l-13.794-0.334c-8.341-0.25-14.549-1.097-16.693-1.513
				c-4.271-0.811-8.526-2.258-12.4-4.3c-3.863-2.039-7.336-4.685-9.823-7.562c-2.503-2.864-3.934-5.872-4.184-8.251
				c-0.273-2.41,0.576-4.129,2-5.221c1.444-1.106,3.291-1.601,5.108-2.021c1.842-0.42,3.658-0.76,5.563-1.013
				c3.747-0.493,8.382-0.385,14.623,0.785c1.551,0.299,6.05,1.318,13.544,2.285l6.251,0.763l3.718,0.449l3.637,0.479
				c4.863,0.615,10.256,1.099,16.069,1.44c11.624,0.687,24.955,0.628,39.041-0.212c3.501-0.191,7.172-0.473,10.521-0.708
				c0.901-0.053,1.606-0.156,2.354-0.258l2.539-0.391c1.709-0.274,3.438-0.593,5.175-0.922c6.952-1.336,14.076-3.049,21.353-4.625
				c7.287-1.575,14.75-3.015,22.393-3.748c1.914-0.176,3.82-0.329,5.758-0.399l2.831-0.091c0.952-0.036,2.099-0.036,3.163,0.018
				c2.186,0.108,4.44,0.413,6.914,1.15c2.399,0.723,4.688,1.827,6.707,3.307c2.014,1.458,3.743,3.266,5.103,5.222
				c0.67,0.972,1.276,1.991,1.794,3.008c0.493,0.975,0.909,1.936,1.259,2.879c1.398,3.792,1.967,7.327,2.312,10.67
				c0.595,6.673,0.184,12.602-0.286,18.001c-1.063,10.773-2.612,19.396-3.321,25.534C493.655,230.708,493.791,234.32,493.807,234.32
				z"/>
			
				<radialGradient id="SVGID_11_" cx="997.085" cy="332.457" r="247.251" gradientTransform="matrix(0.6433 -0.7656 -0.7656 -0.6433 -8.461 924.5095)" gradientUnits="userSpaceOnUse">
				<stop  offset="0" style="stop-color:#B21900"/>
				<stop  offset="1" style="stop-color:#820000"/>
			</radialGradient>
			<path fill="url(#SVGID_11_)" d="M180.858,77.21c-0.021,0.035,2.22,0.684,5.888,2.639c3.629,1.945,8.737,5.361,13.436,11.179
				c2.33,2.904,4.542,6.381,6.314,10.394c0.443,1.001,0.85,2.03,1.239,3.104c0.391,1.16,0.746,2.353,0.99,3.542
				c0.533,2.391,0.797,4.799,0.95,7.18c0.315,4.783,0.169,9.508,0.235,14.031c0.075,4.458,0.385,8.905,1.549,11.828
				c1.498,4.215,8.464,7.274,15.982,8.514c7.579,1.301,15.55,1.295,22.547,0.965c14.068-0.743,24.449-2.634,26.58-2.708
				c8.575-0.522,16.404,5.736,17.465,14.498c1.062,8.75-5.822,16.779-15.479,17.384c-2.413,0.071-13.938,0.088-30.155-2.281
				c-8.099-1.26-17.411-3.048-27.326-6.969c-4.937-2.021-10.09-4.592-14.932-8.642c-2.422-2.039-4.687-4.434-6.595-7.378
				c-1.002-1.548-1.875-3.171-2.458-4.898c-0.625-1.697-1.02-3.554-1.238-5.122c-0.789-6.444,0.264-11.612,1.133-16.391
				c0.938-4.757,2-9.102,2.598-13.152c0.295-2.024,0.487-3.962,0.487-5.779c0.009-0.922-0.058-1.787-0.147-2.641
				c-0.125-0.922-0.28-1.859-0.466-2.766c-0.738-3.645-1.976-7.009-3.458-9.978c-2.99-5.962-6.987-10.189-10.027-12.779
				C182.903,78.371,180.831,77.24,180.858,77.21z"/>
			
				<radialGradient id="SVGID_12_" cx="965.0596" cy="329.1777" r="247.2624" gradientTransform="matrix(0.3733 -0.4443 -0.6674 -0.5608 183.0343 642.8362)" gradientUnits="userSpaceOnUse">
				<stop  offset="0" style="stop-color:#B21900"/>
				<stop  offset="1" style="stop-color:#820000"/>
			</radialGradient>
			<path fill="url(#SVGID_12_)" d="M292.885,67.045c0.04,0.016-2.838,4.538-6.536,11.733c-1.822,3.616-3.809,7.928-5.452,12.774
				c-1.646,4.84-2.945,10.247-3.232,15.868c-0.31,5.607,0.502,11.428,2.54,16.562c0.995,2.567,2.263,4.952,3.701,7.146
				c1.559,2.42,3.274,4.743,5.097,7.198c3.631,4.841,7.304,9.874,9.769,14.292c2.517,4.414,3.735,7.983,4.031,9.148
				c0.641,2.376,0.648,4.641,0.111,6.421c-0.529,1.788-1.593,3.068-2.905,3.789c-2.666,1.456-6.144,0.666-9.333-1.319
				c-3.231-2.016-5.764-4.735-7.764-6.899c-2-2.24-3.371-3.668-3.777-5.214c-0.117-0.414-0.186-1.503-1.102-4
				c-0.884-2.484-2.884-6.435-5.879-11.96c-1.452-2.737-3.173-5.991-4.696-9.51c-1.623-3.722-2.83-7.64-3.473-11.399
				c-1.306-7.581-0.362-14.448,1.624-20.23c1.991-5.806,4.962-10.683,8.072-14.861c3.103-4.173,6.376-7.646,9.26-10.494
				C288.746,70.414,292.909,67.068,292.885,67.045z"/>
			
				<radialGradient id="SVGID_13_" cx="1080.2324" cy="393.2471" r="247.2671" gradientTransform="matrix(0.3963 0.9181 -0.9181 0.3963 243.4653 -754.5375)" gradientUnits="userSpaceOnUse">
				<stop  offset="0" style="stop-color:#B21900"/>
				<stop  offset="1" style="stop-color:#820000"/>
			</radialGradient>
			<path fill="url(#SVGID_13_)" d="M278.07,315.973c0.051,0-2.84-8.721-6.328-22.031c-1.705-6.655-3.518-14.459-4.818-22.865
				c-1.291-8.37-2.076-17.366-1.563-26.019c0.477-8.642,2.387-16.843,5.716-23.214c1.644-3.189,3.595-5.915,5.728-8.262
				c2.307-2.58,4.816-4.94,7.458-7.406c5.275-4.85,10.632-9.951,14.384-14.953c3.816-4.942,5.882-9.499,6.428-11.048
				c1.172-3.152,1.533-6.554,1.136-9.578c-0.39-3.048-1.52-5.689-3.03-7.652c-3.094-3.969-7.556-5.123-11.844-4.271
				c-4.333,0.852-7.902,3.261-10.729,5.172c-2.833,2.036-4.764,3.262-5.51,5.31c-0.216,0.55-0.475,2.142-1.993,5.285
				c-1.492,3.142-4.591,7.739-9.171,14.05c-2.237,3.137-4.884,6.885-7.32,11.155c-2.603,4.515-4.708,9.585-6.087,14.815
				c-2.803,10.521-2.691,21.485-1.105,31.511c1.579,10.066,4.529,19.391,7.746,27.752c3.234,8.356,6.761,15.766,9.909,21.983
				C273.43,308.121,278.105,315.945,278.07,315.973z"/>
			
				<radialGradient id="SVGID_14_" cx="997.1094" cy="332.4561" r="247.2804" gradientTransform="matrix(0.6433 -0.7656 -0.7656 -0.6433 -8.461 924.5095)" gradientUnits="userSpaceOnUse">
				<stop  offset="0" style="stop-color:#B21900"/>
				<stop  offset="1" style="stop-color:#820000"/>
			</radialGradient>
			<path fill="url(#SVGID_14_)" d="M409.67,120.494c-0.033-0.018,0.254,3.184-1.313,8.396c-0.793,2.599-2.005,5.675-4.013,8.944
				c-2.068,3.195-4.776,6.861-9.771,9.307l0.28-0.103c-1.115,0.632-2.338,1.259-3.77,1.783c-1.42,0.517-3.155,0.907-4.994,0.901
				c-1.839,0.006-3.521-0.355-4.847-0.629c-1.325-0.279-2.425-0.5-3.49-0.641c-0.545-0.065-1.062-0.117-1.588-0.146
				c-0.619-0.065-0.789-0.009-1.489-0.023c-1.189-0.015-2.374,0.014-3.565,0.074c-2.382,0.122-4.771,0.372-7.167,0.758
				c-9.549,1.521-18.987,5.078-27.841,8.729c-8.831,3.679-17.215,7.345-24.042,9.76c-6.815,2.467-11.947,3.742-13.378,3.953
				c-4.244,0.658-8.448-0.76-11.37-3.512c-2.944-2.743-4.562-6.768-4.544-11.164c0.006-4.42,1.433-8.403,3.387-11.388
				c1.976-2.99,4.535-5.028,7.697-5.507c1.082-0.169,5.011-0.291,11.236-1.028c6.236-0.675,14.799-2.147,24.933-3.659
				c10.085-1.457,21.903-2.812,33.648-1.639c2.926,0.276,5.833,0.725,8.66,1.318c1.42,0.3,2.815,0.634,4.186,1.011
				c0.578,0.157,1.665,0.435,2.295,0.678c0.722,0.244,1.432,0.514,2.116,0.797c1.37,0.569,2.653,1.195,3.669,1.712
				c1.034,0.522,1.719,0.862,2.309,1.068c1.088,0.447,2.931,0.282,4.896-0.267l0.541-0.148l-0.256,0.047
				c3.098-0.488,6.282-2.675,8.668-4.94c2.429-2.3,4.281-4.774,5.628-6.935C409.067,123.639,409.659,120.476,409.67,120.494z"/>
			
				<radialGradient id="SVGID_15_" cx="965.0654" cy="329.1768" r="247.2442" gradientTransform="matrix(0.3733 -0.4443 -0.6674 -0.5608 183.0343 642.8362)" gradientUnits="userSpaceOnUse">
				<stop  offset="0" style="stop-color:#B21900"/>
				<stop  offset="1" style="stop-color:#820000"/>
			</radialGradient>
			<path fill="url(#SVGID_15_)" d="M322.341-1l2.327,6.875c1.461,4.39,3.829,10.661,5.804,18.323c0.959,3.812,1.743,8,1.839,12.297
				c0.118,4.294-0.518,8.641-1.925,12.677c-0.69,2-1.646,4.019-2.576,5.8l-2.74,5.523l-5.765,11.216
				c-3.83,7.519-7.437,15.132-10.007,22.665c-1.307,3.786-2.309,7.463-3.121,11.194l-2.586,10.972
				c-1.573,6.729-2.466,12.406-2.756,16.694c-0.302,4.274-0.117,7.134-0.138,8.091c-0.046,3.837-0.981,6.944-2.621,9.281
				c-1.65,2.297-4.026,3.827-7.295,3.428c-3.24-0.391-6.833-2.852-9.702-6.87c-2.87-3.972-4.879-9.48-4.805-14.73
				c0.015-1.289,0.25-5.042,1.375-10.009c1.091-4.969,3.194-11.026,5.96-17.381l4.368-9.909c1.541-3.65,3.41-7.458,5.52-11.058
				c4.218-7.269,9.412-14.136,14.681-20.697l7.841-9.656l3.756-4.762c1.286-1.557,2.347-2.946,3.287-4.552
				c1.873-3.127,3.069-6.559,3.586-10.159c0.543-3.591,0.426-7.318,0.062-10.857c-0.79-7.12-2.248-13.357-3.056-17.643L322.341-1z"
				/>
		</g>
		<path opacity="0.5" fill="#010101" enable-background="new    " d="M251.789,449.068c2.356,3.396,5.071,6.48,8.161,9.109
			c3.017,2.689,6.36,4.977,9.953,6.686c7.18,3.432,15.212,4.668,23.093,3.684c7.9-0.852,15.566-3.609,22.901-7.068
			c3.683-1.725,7.261-3.701,10.756-5.836c3.57-2.029,6.972-4.332,10.462-6.574c-5.954,5.76-12.594,10.832-19.866,14.986
			c-7.252,4.176-15.314,7.236-23.838,8.248c-8.479,0.982-17.455-0.527-24.857-4.883
			C261.162,463.133,255.182,456.646,251.789,449.068z"/>
	</g>
	<g>
		<g>
			
				<linearGradient id="SVGID_16_" gradientUnits="userSpaceOnUse" x1="258.4902" y1="72.2637" x2="181.4979" y2="21.2145" gradientTransform="matrix(1 0 0 -1 0 435)">
				<stop  offset="0" style="stop-color:#FFFFFF;stop-opacity:0.5"/>
				<stop  offset="1" style="stop-color:#FFFFFF"/>
			</linearGradient>
			<path opacity="0.25" fill="url(#SVGID_16_)" enable-background="new    " d="M264.401,406.736c0,3.754-3.152,6.805-7.04,6.805
				H184.52c-3.889,0-7.047-3.051-7.047-6.805v-38.211c0-3.754,3.158-6.795,7.047-6.795h72.841c3.888,0,7.04,3.041,7.04,6.795
				V406.736z"/>
			<g>
				
					<linearGradient id="SVGID_17_" gradientUnits="userSpaceOnUse" x1="260.6191" y1="73.5801" x2="179.5594" y2="19.8341" gradientTransform="matrix(1 0 0 -1 0 435)">
					<stop  offset="0" style="stop-color:#585857"/>
					<stop  offset="1" style="stop-color:#010101"/>
				</linearGradient>
				<path fill="url(#SVGID_17_)" d="M257.208,416.178H184.97c-5.584,0-10.136-4.547-10.136-10.135v-36.822
					c0-5.586,4.551-10.143,10.136-10.143h72.238c5.59,0,10.138,4.557,10.138,10.143v36.822
					C267.344,411.633,262.798,416.178,257.208,416.178z M184.97,364.373c-2.671,0-4.844,2.178-4.844,4.848v36.822
					c0,2.672,2.177,4.842,4.844,4.842h72.238c2.679,0,4.853-2.172,4.853-4.842v-36.822c0-2.674-2.179-4.848-4.853-4.848H184.97z"/>
			</g>
		</g>
		<g>
			
				<linearGradient id="SVGID_18_" gradientUnits="userSpaceOnUse" x1="381.8379" y1="72.2632" x2="304.8443" y2="21.2131" gradientTransform="matrix(1 0 0 -1 0 435)">
				<stop  offset="0" style="stop-color:#FFFFFF;stop-opacity:0.5"/>
				<stop  offset="1" style="stop-color:#FFFFFF"/>
			</linearGradient>
			<path opacity="0.25" fill="url(#SVGID_18_)" enable-background="new    " d="M387.749,406.736c0,3.754-3.152,6.805-7.037,6.805
				h-72.843c-3.884,0-7.045-3.051-7.045-6.805v-38.211c0-3.754,3.157-6.795,7.045-6.795h72.843c3.885,0,7.037,3.041,7.037,6.795
				V406.736z"/>
			<g>
				
					<linearGradient id="SVGID_19_" gradientUnits="userSpaceOnUse" x1="383.9629" y1="73.5791" x2="302.9064" y2="19.8351" gradientTransform="matrix(1 0 0 -1 0 435)">
					<stop  offset="0" style="stop-color:#585857"/>
					<stop  offset="1" style="stop-color:#010101"/>
				</linearGradient>
				<path fill="url(#SVGID_19_)" d="M380.557,416.178h-72.238c-5.594,0-10.135-4.547-10.135-10.135v-36.822
					c0-5.586,4.542-10.143,10.135-10.143h72.238c5.583,0,10.135,4.557,10.135,10.143v36.822
					C390.691,411.633,386.14,416.178,380.557,416.178z M308.319,364.373c-2.679,0-4.852,2.178-4.852,4.848v36.822
					c0,2.672,2.176,4.842,4.852,4.842h72.238c2.67,0,4.846-2.172,4.846-4.842v-36.822c0-2.674-2.183-4.848-4.846-4.848H308.319z"/>
			</g>
		</g>
		
			<linearGradient id="SVGID_20_" gradientUnits="userSpaceOnUse" x1="267.2554" y1="50.5293" x2="298.1851" y2="50.5293" gradientTransform="matrix(1 0 0 -1 0 435)">
			<stop  offset="0" style="stop-color:#595758"/>
			<stop  offset="1" style="stop-color:#191919"/>
		</linearGradient>
		<rect x="267.255" y="382.58" fill="url(#SVGID_20_)" width="30.93" height="3.781"/>
	</g>
</g>
</svg>
