<?xml version="1.0" encoding="utf-8"?>
<!-- Generator: Adobe Illustrator 16.2.1, SVG Export Plug-In . SVG Version: 6.00 Build 0)  -->
<!DOCTYPE svg PUBLIC "-//W3C//DTD SVG 1.1//EN" "http://www.w3.org/Graphics/SVG/1.1/DTD/svg11.dtd">
<svg version="1.1" id="Layer_1" xmlns="http://www.w3.org/2000/svg" xmlns:xlink="http://www.w3.org/1999/xlink" x="0px" y="0px"
	 width="612px" height="612px" viewBox="0 0 612 612" enable-background="new 0 0 612 612" xml:space="preserve">
<g>
	<g>
		
			<radialGradient id="SVGID_1_" cx="349.6123" cy="134.1255" r="212.4548" gradientTransform="matrix(1 0 0 -1 0 435)" gradientUnits="userSpaceOnUse">
			<stop  offset="0" style="stop-color:#00B34D"/>
			<stop  offset="1" style="stop-color:#007B3B"/>
		</radialGradient>
		<path fill="url(#SVGID_1_)" d="M536.688,376.441c0,128.785-104.397,233.188-233.179,233.188
			c-128.783,0-233.186-104.404-233.186-233.188c0-128.776,104.402-233.174,233.186-233.174
			C432.29,143.264,536.688,247.666,536.688,376.441z"/>
		<g>
			
				<radialGradient id="SVGID_2_" cx="334.7725" cy="60.6602" r="35.3867" gradientTransform="matrix(1 0 0 -1 0 435)" gradientUnits="userSpaceOnUse">
				<stop  offset="0" style="stop-color:#FFFFFF"/>
				<stop  offset="1" style="stop-color:#F6F6F6"/>
			</radialGradient>
			<path fill="url(#SVGID_2_)" d="M370.161,401.863c0,4.338-3.53,7.861-7.866,7.861h-55.041c-4.345,0-7.87-3.523-7.87-7.861v-55.045
				c0-4.344,3.525-7.863,7.87-7.863h55.041c4.336,0,7.866,3.52,7.866,7.863V401.863z"/>
			
				<radialGradient id="SVGID_3_" cx="325.7969" cy="47.0703" r="13.5952" gradientTransform="matrix(1 0 0 -1 0 435)" gradientUnits="userSpaceOnUse">
				<stop  offset="0" style="stop-color:#585857"/>
				<stop  offset="1" style="stop-color:#3D3D3C"/>
			</radialGradient>
			<path fill="url(#SVGID_3_)" d="M339.392,393.656c0,4.348-3.53,7.869-7.87,7.869h-11.453c-4.348,0-7.866-3.521-7.866-7.869
				v-11.457c0-4.334,3.519-7.865,7.866-7.865h11.453c4.34,0,7.87,3.531,7.87,7.865V393.656L339.392,393.656z"/>
			
				<radialGradient id="SVGID_4_" cx="331.7969" cy="51.644" r="5.0403" gradientTransform="matrix(1 0.0057 0.0057 -1 -1.6163 433.6846)" gradientUnits="userSpaceOnUse">
				<stop  offset="0" style="stop-color:#FFFFFF"/>
				<stop  offset="1" style="stop-color:#F6F6F6"/>
			</radialGradient>
			<path fill="url(#SVGID_4_)" d="M335.499,386.082c-0.012,1.604-1.324,2.91-2.934,2.902l-4.241-0.027
				c-1.613-0.012-2.905-1.312-2.896-2.936l0.019-4.24c0.017-1.611,1.332-2.906,2.939-2.9l4.235,0.021
				c1.608,0.018,2.913,1.32,2.906,2.934L335.499,386.082z"/>
		</g>
		<g>
			
				<radialGradient id="SVGID_5_" cx="229.04" cy="60.6602" r="35.3862" gradientTransform="matrix(1 0 0 -1 0 435)" gradientUnits="userSpaceOnUse">
				<stop  offset="0" style="stop-color:#FFFFFF"/>
				<stop  offset="1" style="stop-color:#F6F6F6"/>
			</radialGradient>
			<path fill="url(#SVGID_5_)" d="M264.428,401.863c0,4.338-3.52,7.861-7.868,7.861h-55.04c-4.343,0-7.868-3.523-7.868-7.861
				v-55.045c0-4.344,3.524-7.863,7.868-7.863h55.04c4.352,0,7.868,3.52,7.868,7.863V401.863z"/>
			
				<radialGradient id="SVGID_6_" cx="238.8711" cy="47.0703" r="13.595" gradientTransform="matrix(1 0 0 -1 0 435)" gradientUnits="userSpaceOnUse">
				<stop  offset="0" style="stop-color:#585857"/>
				<stop  offset="1" style="stop-color:#3D3D3C"/>
			</radialGradient>
			<path fill="url(#SVGID_6_)" d="M252.465,393.656c0,4.348-3.518,7.869-7.867,7.869h-11.455c-4.343,0-7.867-3.521-7.867-7.869
				v-11.457c0-4.334,3.524-7.865,7.867-7.865h11.455c4.349,0,7.867,3.531,7.867,7.865V393.656z"/>
			
				<radialGradient id="SVGID_7_" cx="244.8789" cy="51.1484" r="5.0388" gradientTransform="matrix(1 0.0057 0.0057 -1 -1.6163 433.6846)" gradientUnits="userSpaceOnUse">
				<stop  offset="0" style="stop-color:#FFFFFF"/>
				<stop  offset="1" style="stop-color:#F6F6F6"/>
			</radialGradient>
			<path fill="url(#SVGID_7_)" d="M248.579,386.082c-0.007,1.604-1.32,2.91-2.933,2.902l-4.245-0.027
				c-1.608-0.012-2.909-1.312-2.893-2.936l0.021-4.24c0.006-1.611,1.321-2.906,2.933-2.9l4.243,0.021
				c1.608,0.018,2.912,1.32,2.896,2.934L248.579,386.082z"/>
		</g>
		<rect x="303.508" y="311.352" width="66.653" height="11.285"/>
		<rect x="190.652" y="311.352" width="66.647" height="11.285"/>
		<g>
			
				<radialGradient id="SVGID_8_" cx="957.8877" cy="329.7568" r="246.2262" gradientTransform="matrix(0.3733 -0.4443 -0.6674 -0.5608 183.0343 642.8362)" gradientUnits="userSpaceOnUse">
				<stop  offset="0" style="stop-color:#003F00"/>
				<stop  offset="1" style="stop-color:#001900"/>
			</radialGradient>
			<path fill="url(#SVGID_8_)" d="M239.922,8.203c0,0,1.634,2.19,4.601,5.993c2.925,3.821,7.31,9.2,11.954,16.137
				c1.144,1.716,2.334,3.588,3.415,5.486c1.103,1.853,2.276,3.911,3.313,6.011c2.107,4.211,3.886,8.76,5.118,13.403
				c2.528,9.329,2.719,18.799,2.044,27.593c-0.332,4.418-0.844,8.714-1.338,12.894c-0.198,1.757-0.279,3.901-0.314,5.893
				c-0.04,2.021-0.005,4.053,0.072,6.081c0.303,8.104,1.426,15.997,3.108,22.742c1.653,6.756,3.93,12.318,5.941,15.938
				c2.013,3.668,3.574,5.424,4.026,6.048c1.843,2.437,2.614,4.454,3.855,7.303c1.14,2.763,2.619,6.047,2.257,8.815
				c-0.332,2.726-2.858,4.436-7.802,3.293c-2.417-0.571-5.386-1.907-8.354-4.006c-2.977-2.076-5.876-4.884-8.169-7.955
				c-1.148-1.506-4.301-6.121-6.81-12.291c-2.571-6.177-4.46-13.731-5.232-21.668c-0.794-7.948-0.591-16.365,0.56-24.763
				c0.293-2.103,0.646-4.203,1.073-6.299c0.439-2.118,0.874-4.11,1.568-6.338c1.234-3.808,2.461-7.589,3.503-11.397
				c2.1-7.604,3.336-15.434,2.432-23.397c-0.429-3.972-1.375-7.949-2.709-11.775c-0.664-1.921-1.435-3.767-2.271-5.66
				c-0.786-1.867-1.623-3.607-2.492-5.318c-3.503-6.817-7.176-12.521-9.576-16.5C241.257,10.481,239.922,8.203,239.922,8.203z"/>
			
				<radialGradient id="SVGID_9_" cx="982.2666" cy="333.3955" r="246.221" gradientTransform="matrix(0.5248 -0.6245 -0.7383 -0.6204 79.7794 804.2828)" gradientUnits="userSpaceOnUse">
				<stop  offset="0" style="stop-color:#003F00"/>
				<stop  offset="1" style="stop-color:#001900"/>
			</radialGradient>
			<path fill="url(#SVGID_9_)" d="M508.574,71.209c-0.028-0.019-0.525,3.772-2.157,10.218c-1.663,6.406-4.507,15.516-10.16,25.377
				c-5.621,9.829-14.296,20.381-26.913,28.279c-3.146,1.979-6.504,3.779-10.072,5.379c-3.5,1.573-7.312,3.053-11.372,4.122
				c-8.068,2.188-17.208,2.858-26.427,1.788c-9.213-1.038-18.377-3.677-26.982-6.923c-8.623-3.245-16.76-7.074-24.467-10.829
				l-11.162-5.524c-3.261-1.564-6.425-2.863-9.392-3.785c-5.977-1.89-10.826-2.094-14.341-1.062
				c-6.978,1.896-11.651,9.102-14.606,15.025c-0.338,0.674-0.531,1.167-0.765,1.79l-0.767,2.005
				c-0.457,1.287-0.837,2.469-1.144,3.514c-0.617,2.084-0.984,3.605-1.212,4.363c-1.731,6.118-4.144,11.575-7.101,15.523
				c-2.954,3.918-6.503,6.355-10.503,5.729c-3.953-0.618-7.64-4.428-9.804-10.429c-2.177-5.966-2.77-14.068-0.478-22.189
				c0.292-1.012,0.911-2.966,1.99-5.685c0.534-1.354,1.204-2.906,2.018-4.626c0.406-0.849,0.864-1.749,1.354-2.682
				c0.512-1.015,1.184-2.185,1.835-3.183c2.448-3.76,5.577-8.129,10.353-12.45c2.393-2.15,5.222-4.273,8.655-6.063
				c3.422-1.782,7.483-3.216,11.964-3.863c4.466-0.675,9.277-0.532,13.941,0.298c4.685,0.813,9.222,2.275,13.51,4.079
				c4.307,1.81,8.384,3.969,12.309,6.32l10.704,6.545c14.2,8.595,29.025,17.026,44.116,20.3c7.516,1.646,15.036,1.935,22.188,0.869
				c3.597-0.524,7.023-1.393,10.481-2.468c3.408-1.058,6.671-2.323,9.755-3.773c12.421-5.765,21.882-14.506,28.422-23.162
				c6.6-8.66,10.498-17.118,12.887-23.136C507.605,74.845,508.551,71.192,508.574,71.209z"/>
			
				<radialGradient id="SVGID_10_" cx="982.2705" cy="333.3945" r="246.2255" gradientTransform="matrix(0.5248 -0.6245 -0.7383 -0.6204 79.7794 804.2828)" gradientUnits="userSpaceOnUse">
				<stop  offset="0" style="stop-color:#003F00"/>
				<stop  offset="1" style="stop-color:#001900"/>
			</radialGradient>
			<path fill="url(#SVGID_10_)" d="M490.018,236.321c-0.02,0.009-0.597-3.643-0.597-9.943c-0.079-6.303,0.343-15.254,0.036-26.008
				c-0.192-5.358-0.558-11.225-1.831-17.182c-0.642-2.96-1.535-5.967-2.889-8.627c-0.328-0.662-0.697-1.302-1.08-1.896
				c-0.352-0.544-0.756-1.058-1.176-1.553c-0.854-0.983-1.865-1.842-2.989-2.474c-1.12-0.641-2.34-1.044-3.547-1.24
				c-1.123-0.188-2.539-0.246-3.982-0.132c-0.736,0.055-1.405,0.132-2.24,0.269l-2.539,0.383c-1.672,0.263-3.327,0.611-4.984,0.968
				c-6.639,1.47-13.254,3.623-19.926,5.975c-6.679,2.347-13.418,4.921-20.44,7.214c-1.763,0.562-3.536,1.121-5.333,1.644
				l-2.729,0.772c-1.023,0.272-2.062,0.549-2.97,0.696c-3.831,0.758-7.27,1.427-10.831,2.051
				c-14.13,2.535-27.917,4.202-40.394,4.825c-6.235,0.324-12.121,0.412-17.513,0.297l-13.734-0.333
				c-8.306-0.25-14.488-1.092-16.623-1.506c-4.253-0.807-8.49-2.249-12.348-4.282c-3.847-2.03-7.305-4.665-9.781-7.53
				c-2.492-2.853-3.917-5.847-4.166-8.216c-0.272-2.4,0.573-4.112,1.991-5.199c1.438-1.102,3.276-1.594,5.086-2.012
				c1.834-0.418,3.643-0.757,5.539-1.009c3.731-0.492,8.346-0.384,14.561,0.781c1.544,0.297,6.024,1.312,13.486,2.275l6.225,0.76
				l3.702,0.447l3.621,0.477c4.843,0.612,10.212,1.094,16.001,1.434c11.575,0.684,24.85,0.625,38.875-0.212
				c3.486-0.19,7.142-0.471,10.476-0.705c0.897-0.053,1.601-0.155,2.345-0.258l2.528-0.389c1.702-0.272,3.424-0.59,5.152-0.918
				c6.924-1.33,14.018-3.037,21.263-4.605c7.256-1.568,14.688-3.002,22.297-3.732c1.906-0.175,3.805-0.327,5.733-0.397l2.82-0.09
				c0.947-0.035,2.089-0.035,3.148,0.018c2.177,0.107,4.423,0.412,6.886,1.146c2.389,0.72,4.668,1.819,6.678,3.293
				c2.006,1.452,3.728,3.251,5.081,5.2c0.667,0.967,1.271,1.982,1.786,2.995c0.491,0.971,0.905,1.927,1.254,2.867
				c1.392,3.776,1.958,7.296,2.301,10.625c0.593,6.645,0.184,12.549-0.284,17.925c-1.059,10.728-2.602,19.313-3.307,25.426
				C489.866,232.724,490.001,236.321,490.018,236.321z"/>
			
				<radialGradient id="SVGID_11_" cx="992.5029" cy="332.9121" r="246.2059" gradientTransform="matrix(0.6433 -0.7656 -0.7656 -0.6433 -8.461 924.5095)" gradientUnits="userSpaceOnUse">
				<stop  offset="0" style="stop-color:#003F00"/>
				<stop  offset="1" style="stop-color:#001900"/>
			</radialGradient>
			<path fill="url(#SVGID_11_)" d="M178.397,79.878c-0.021,0.035,2.21,0.681,5.863,2.628c3.614,1.937,8.7,5.338,13.378,11.131
				c2.32,2.892,4.523,6.354,6.288,10.351c0.441,0.997,0.846,2.021,1.233,3.091c0.389,1.156,0.743,2.343,0.985,3.527
				c0.531,2.381,0.794,4.779,0.946,7.149c0.314,4.763,0.168,9.468,0.234,13.972c0.075,4.439,0.383,8.867,1.542,11.777
				c1.492,4.197,8.428,7.243,15.915,8.478c7.547,1.296,15.484,1.29,22.452,0.961c14.008-0.74,24.345-2.623,26.466-2.697
				c8.539-0.52,16.334,5.712,17.391,14.436c1.058,8.713-5.797,16.708-15.413,17.311c-2.402,0.07-13.878,0.088-30.026-2.271
				c-8.064-1.255-17.337-3.035-27.21-6.939c-4.915-2.013-10.047-4.572-14.869-8.605c-2.411-2.03-4.667-4.416-6.567-7.347
				c-0.998-1.542-1.867-3.158-2.448-4.877c-0.623-1.69-1.016-3.539-1.233-5.101c-0.785-6.417,0.263-11.563,1.129-16.322
				c0.934-4.737,1.992-9.063,2.587-13.096c0.293-2.016,0.485-3.945,0.485-5.755c0.009-0.918-0.058-1.779-0.146-2.63
				c-0.125-0.918-0.279-1.851-0.463-2.754c-0.735-3.629-1.967-6.979-3.444-9.935c-2.977-5.937-6.957-10.146-9.984-12.724
				C180.434,81.034,178.37,79.908,178.397,79.878z"/>
			
				<radialGradient id="SVGID_12_" cx="957.8711" cy="329.7539" r="246.2115" gradientTransform="matrix(0.3733 -0.4443 -0.6674 -0.5608 183.0343 642.8362)" gradientUnits="userSpaceOnUse">
				<stop  offset="0" style="stop-color:#003F00"/>
				<stop  offset="1" style="stop-color:#001900"/>
			</radialGradient>
			<path fill="url(#SVGID_12_)" d="M289.948,69.756c0.04,0.015-2.826,4.518-6.507,11.683c-1.814,3.601-3.792,7.894-5.429,12.72
				c-1.638,4.82-2.932,10.204-3.218,15.801c-0.308,5.583,0.5,11.38,2.529,16.493c0.991,2.556,2.254,4.931,3.686,7.115
				c1.552,2.41,3.26,4.723,5.075,7.168c3.616,4.82,7.273,9.831,9.728,14.231c2.506,4.395,3.719,7.949,4.014,9.109
				c0.638,2.366,0.646,4.622,0.11,6.394c-0.527,1.781-1.587,3.056-2.893,3.773c-2.654,1.45-6.118,0.663-9.294-1.313
				c-3.218-2.007-5.74-4.715-7.731-6.87c-1.991-2.23-3.356-3.652-3.761-5.191c-0.116-0.412-0.185-1.498-1.097-3.983
				c-0.88-2.474-2.872-6.408-5.854-11.909c-1.446-2.726-3.16-5.966-4.676-9.47c-1.616-3.707-2.817-7.607-3.458-11.351
				c-1.301-7.548-0.36-14.386,1.617-20.144c1.982-5.781,4.941-10.637,8.038-14.798c3.09-4.156,6.35-7.613,9.221-10.449
				C285.827,73.111,289.973,69.779,289.948,69.756z"/>
			
				<radialGradient id="SVGID_13_" cx="1080.2559" cy="396.5371" r="246.2134" gradientTransform="matrix(0.3963 0.9181 -0.9181 0.3963 243.4653 -754.5375)" gradientUnits="userSpaceOnUse">
				<stop  offset="0" style="stop-color:#003F00"/>
				<stop  offset="1" style="stop-color:#001900"/>
			</radialGradient>
			<path fill="url(#SVGID_13_)" d="M275.197,317.627c0.051,0-2.828-8.684-6.301-21.938c-1.697-6.627-3.503-14.397-4.798-22.768
				c-1.285-8.334-2.067-17.293-1.557-25.908c0.475-8.604,2.377-16.771,5.692-23.116c1.637-3.176,3.581-5.889,5.703-8.227
				c2.298-2.569,4.796-4.919,7.426-7.374c5.253-4.83,10.587-9.909,14.324-14.89c3.8-4.922,5.857-9.458,6.4-11.001
				c1.167-3.139,1.527-6.526,1.132-9.538c-0.389-3.036-1.513-5.666-3.018-7.619c-3.081-3.952-7.524-5.101-11.794-4.253
				c-4.314,0.848-7.869,3.247-10.684,5.15c-2.821,2.027-4.743,3.248-5.486,5.287c-0.215,0.547-0.473,2.132-1.984,5.262
				c-1.486,3.128-4.571,7.706-9.132,13.99c-2.228,3.124-4.863,6.855-7.289,11.107c-2.593,4.495-4.688,9.545-6.062,14.752
				c-2.791,10.476-2.68,21.393-1.101,31.377c1.572,10.023,4.51,19.308,7.713,27.634c3.22,8.321,6.731,15.699,9.867,21.89
				C270.576,309.809,275.231,317.6,275.197,317.627z"/>
			
				<radialGradient id="SVGID_14_" cx="992.5186" cy="332.9111" r="246.2274" gradientTransform="matrix(0.6433 -0.7656 -0.7656 -0.6433 -8.461 924.5095)" gradientUnits="userSpaceOnUse">
				<stop  offset="0" style="stop-color:#003F00"/>
				<stop  offset="1" style="stop-color:#001900"/>
			</radialGradient>
			<path fill="url(#SVGID_14_)" d="M406.237,122.978c-0.033-0.018,0.253,3.17-1.308,8.36c-0.79,2.588-1.996,5.651-3.996,8.906
				c-2.06,3.182-4.756,6.833-9.729,9.267l0.279-0.102c-1.111,0.629-2.329,1.254-3.754,1.775c-1.414,0.514-3.142,0.903-4.973,0.897
				c-1.831,0.006-3.507-0.354-4.827-0.626c-1.318-0.278-2.414-0.498-3.475-0.638c-0.543-0.065-1.058-0.117-1.581-0.146
				c-0.616-0.065-0.786-0.009-1.483-0.023c-1.185-0.014-2.363,0.014-3.55,0.074c-2.372,0.122-4.751,0.37-7.137,0.754
				c-9.509,1.515-18.907,5.057-27.723,8.692c-8.794,3.664-17.142,7.314-23.94,9.718c-6.786,2.457-11.896,3.726-13.321,3.937
				c-4.225,0.654-8.412-0.757-11.321-3.498c-2.932-2.731-4.543-6.739-4.525-11.116c0.006-4.402,1.426-8.368,3.372-11.339
				c1.967-2.977,4.516-5.007,7.664-5.484c1.078-0.169,4.99-0.29,11.188-1.023c6.21-0.672,14.737-2.138,24.827-3.644
				c10.042-1.451,21.811-2.8,33.506-1.632c2.913,0.275,5.808,0.722,8.624,1.313c1.413,0.299,2.803,0.631,4.167,1.006
				c0.576,0.156,1.658,0.433,2.285,0.675c0.719,0.243,1.426,0.512,2.107,0.793c1.364,0.567,2.643,1.19,3.653,1.706
				c1.03,0.52,1.712,0.858,2.299,1.064c1.083,0.445,2.919,0.281,4.876-0.266l0.538-0.147l-0.255,0.047
				c3.085-0.486,6.257-2.664,8.632-4.919c2.418-2.291,4.263-4.753,5.604-6.906C405.638,126.11,406.227,122.96,406.237,122.978z"/>
			
				<radialGradient id="SVGID_15_" cx="957.8779" cy="329.752" r="246.1988" gradientTransform="matrix(0.3733 -0.4443 -0.6674 -0.5608 183.0343 642.8362)" gradientUnits="userSpaceOnUse">
				<stop  offset="0" style="stop-color:#003F00"/>
				<stop  offset="1" style="stop-color:#001900"/>
			</radialGradient>
			<path fill="url(#SVGID_15_)" d="M319.279,2l2.317,6.846c1.455,4.372,3.812,10.616,5.778,18.245
				c0.956,3.796,1.736,7.967,1.831,12.245c0.118,4.275-0.515,8.604-1.916,12.623c-0.688,1.991-1.639,4.002-2.565,5.775l-2.729,5.5
				l-5.74,11.169c-3.813,7.487-7.405,15.068-9.965,22.568c-1.3,3.771-2.298,7.432-3.107,11.146l-2.575,10.926
				c-1.566,6.7-2.455,12.353-2.744,16.623c-0.3,4.255-0.117,7.104-0.137,8.056c-0.046,3.821-0.977,6.915-2.61,9.242
				c-1.644,2.288-4.009,3.81-7.264,3.413c-3.226-0.389-6.805-2.84-9.661-6.84c-2.857-3.956-4.858-9.44-4.784-14.668
				c0.014-1.283,0.248-5.021,1.369-9.967c1.086-4.947,3.18-10.979,5.935-17.307l4.349-9.867c1.534-3.635,3.395-7.426,5.496-11.011
				c4.2-7.238,9.373-14.076,14.619-20.609l7.807-9.615l3.74-4.742c1.281-1.55,2.336-2.933,3.273-4.533
				c1.865-3.114,3.057-6.53,3.57-10.115c0.541-3.577,0.424-7.287,0.062-10.812c-0.787-7.09-2.238-13.301-3.042-17.567L319.279,2z"/>
		</g>
		<path opacity="0.5" fill="#010101" enable-background="new    " d="M249.027,450.158c2.346,3.381,5.049,6.451,8.126,9.07
			c3.004,2.678,6.333,4.955,9.911,6.658c7.149,3.416,15.148,4.646,22.995,3.666c7.866-0.848,15.5-3.594,22.804-7.037
			c3.667-1.719,7.229-3.686,10.71-5.812c3.556-2.02,6.942-4.314,10.418-6.545c-5.929,5.734-12.541,10.785-19.783,14.92
			c-7.22,4.16-15.249,7.207-23.736,8.213c-8.443,0.98-17.38-0.523-24.752-4.859C258.36,464.16,252.405,457.703,249.027,450.158z"/>
	</g>
	<g>
		<g>
			
				<linearGradient id="SVGID_16_" gradientUnits="userSpaceOnUse" x1="255.7002" y1="70.8081" x2="179.0337" y2="19.975" gradientTransform="matrix(1 0 0 -1 0 435)">
				<stop  offset="0" style="stop-color:#FFFFFF;stop-opacity:0.5"/>
				<stop  offset="1" style="stop-color:#FFFFFF"/>
			</linearGradient>
			<path opacity="0.25" fill="url(#SVGID_16_)" enable-background="new    " d="M261.585,408.006c0,3.738-3.139,6.775-7.011,6.775
				h-72.532c-3.873,0-7.017-3.037-7.017-6.775v-38.051c0-3.738,3.145-6.764,7.017-6.764h72.532c3.872,0,7.011,3.025,7.011,6.764
				V408.006z"/>
			<g>
				
					<linearGradient id="SVGID_17_" gradientUnits="userSpaceOnUse" x1="257.8193" y1="72.1191" x2="177.1027" y2="18.6007" gradientTransform="matrix(1 0 0 -1 0 435)">
					<stop  offset="0" style="stop-color:#585857"/>
					<stop  offset="1" style="stop-color:#010101"/>
				</linearGradient>
				<path fill="url(#SVGID_17_)" d="M254.422,417.406h-71.931c-5.562,0-10.093-4.527-10.093-10.092v-36.666
					c0-5.562,4.531-10.1,10.093-10.1h71.931c5.567,0,10.095,4.537,10.095,10.1v36.666
					C264.516,412.881,259.989,417.406,254.422,417.406z M182.492,365.822c-2.66,0-4.824,2.168-4.824,4.826v36.666
					c0,2.66,2.168,4.82,4.824,4.82h71.931c2.667,0,4.832-2.162,4.832-4.82v-36.666c0-2.662-2.17-4.826-4.832-4.826H182.492z"/>
			</g>
		</g>
		<g>
			
				<linearGradient id="SVGID_18_" gradientUnits="userSpaceOnUse" x1="378.5234" y1="70.8066" x2="301.8564" y2="19.9731" gradientTransform="matrix(1 0 0 -1 0 435)">
				<stop  offset="0" style="stop-color:#FFFFFF;stop-opacity:0.5"/>
				<stop  offset="1" style="stop-color:#FFFFFF"/>
			</linearGradient>
			<path opacity="0.25" fill="url(#SVGID_18_)" enable-background="new    " d="M384.409,408.006c0,3.738-3.139,6.775-7.007,6.775
				h-72.533c-3.868,0-7.015-3.037-7.015-6.775v-38.051c0-3.738,3.143-6.764,7.015-6.764h72.533c3.868,0,7.007,3.025,7.007,6.764
				V408.006z"/>
			<g>
				
					<linearGradient id="SVGID_19_" gradientUnits="userSpaceOnUse" x1="380.6396" y1="72.1182" x2="299.9271" y2="18.6022" gradientTransform="matrix(1 0 0 -1 0 435)">
					<stop  offset="0" style="stop-color:#585857"/>
					<stop  offset="1" style="stop-color:#010101"/>
				</linearGradient>
				<path fill="url(#SVGID_19_)" d="M377.248,417.406h-71.932c-5.57,0-10.092-4.527-10.092-10.092v-36.666
					c0-5.562,4.523-10.1,10.092-10.1h71.932c5.559,0,10.091,4.537,10.091,10.1v36.666
					C387.339,412.881,382.807,417.406,377.248,417.406z M305.317,365.822c-2.668,0-4.831,2.168-4.831,4.826v36.666
					c0,2.66,2.167,4.82,4.831,4.82h71.932c2.658,0,4.825-2.162,4.825-4.82v-36.666c0-2.662-2.174-4.826-4.825-4.826H305.317z"/>
			</g>
		</g>
		
			<linearGradient id="SVGID_20_" gradientUnits="userSpaceOnUse" x1="264.4277" y1="49.166" x2="295.2261" y2="49.166" gradientTransform="matrix(1 0 0 -1 0 435)">
			<stop  offset="0" style="stop-color:#595758"/>
			<stop  offset="1" style="stop-color:#191919"/>
		</linearGradient>
		<rect x="264.428" y="383.951" fill="url(#SVGID_20_)" width="30.798" height="3.766"/>
	</g>
</g>
</svg>
