<?xml version="1.0" encoding="utf-8"?>
<!-- Generator: Adobe Illustrator 16.2.1, SVG Export Plug-In . SVG Version: 6.00 Build 0)  -->
<!DOCTYPE svg PUBLIC "-//W3C//DTD SVG 1.1//EN" "http://www.w3.org/Graphics/SVG/1.1/DTD/svg11.dtd">
<svg version="1.1" id="Layer_1" xmlns="http://www.w3.org/2000/svg" xmlns:xlink="http://www.w3.org/1999/xlink" x="0px" y="0px"
	 width="612px" height="612px" viewBox="0 0 612 612" enable-background="new 0 0 612 612" xml:space="preserve">
<g>
	<g>
		
			<radialGradient id="SVGID_1_" cx="352.8184" cy="136.4756" r="212.206" gradientTransform="matrix(1 0 0 -1 0 435)" gradientUnits="userSpaceOnUse">
			<stop  offset="0" style="stop-color:#F12900"/>
			<stop  offset="1" style="stop-color:#930000"/>
		</radialGradient>
		<path fill="url(#SVGID_1_)" d="M539.675,374.004c0,128.633-104.275,232.914-232.905,232.914
			c-128.633,0-232.914-104.283-232.914-232.914c0-128.626,104.28-232.902,232.914-232.902
			C435.399,141.099,539.675,245.378,539.675,374.004z"/>
		<g>
			
				<radialGradient id="SVGID_2_" cx="337.9961" cy="63.0957" r="35.3452" gradientTransform="matrix(1 0 0 -1 0 435)" gradientUnits="userSpaceOnUse">
				<stop  offset="0" style="stop-color:#FFFFFF"/>
				<stop  offset="1" style="stop-color:#F6F6F6"/>
			</radialGradient>
			<path fill="url(#SVGID_2_)" d="M373.343,399.395c0,4.334-3.525,7.854-7.857,7.854h-54.977c-4.339,0-7.86-3.52-7.86-7.854v-54.98
				c0-4.338,3.521-7.854,7.86-7.854h54.977c4.332,0,7.857,3.516,7.857,7.854V399.395z"/>
			
				<radialGradient id="SVGID_3_" cx="329.0312" cy="49.5225" r="13.5786" gradientTransform="matrix(1 0 0 -1 0 435)" gradientUnits="userSpaceOnUse">
				<stop  offset="0" style="stop-color:#585857"/>
				<stop  offset="1" style="stop-color:#3D3D3C"/>
			</radialGradient>
			<path fill="url(#SVGID_3_)" d="M342.609,391.197c0,4.344-3.524,7.859-7.86,7.859h-11.438c-4.344,0-7.857-3.516-7.857-7.859
				v-11.441c0-4.332,3.514-7.857,7.857-7.857h11.438c4.336,0,7.86,3.525,7.86,7.857V391.197L342.609,391.197z"/>
			
				<radialGradient id="SVGID_4_" cx="335.0117" cy="54.1094" r="5.0347" gradientTransform="matrix(1 0.0057 0.0057 -1 -1.6163 433.6846)" gradientUnits="userSpaceOnUse">
				<stop  offset="0" style="stop-color:#FFFFFF"/>
				<stop  offset="1" style="stop-color:#F6F6F6"/>
			</radialGradient>
			<path fill="url(#SVGID_4_)" d="M338.722,383.633c-0.011,1.602-1.322,2.906-2.929,2.898l-4.237-0.027
				c-1.611-0.01-2.902-1.312-2.894-2.932l0.02-4.234c0.017-1.611,1.331-2.904,2.936-2.9l4.23,0.023
				c1.606,0.018,2.91,1.318,2.903,2.93L338.722,383.633z"/>
		</g>
		<g>
			
				<radialGradient id="SVGID_5_" cx="232.3877" cy="63.0957" r="35.3447" gradientTransform="matrix(1 0 0 -1 0 435)" gradientUnits="userSpaceOnUse">
				<stop  offset="0" style="stop-color:#FFFFFF"/>
				<stop  offset="1" style="stop-color:#F6F6F6"/>
			</radialGradient>
			<path fill="url(#SVGID_5_)" d="M267.733,399.395c0,4.334-3.516,7.854-7.858,7.854h-54.976c-4.337,0-7.857-3.52-7.857-7.854
				v-54.98c0-4.338,3.521-7.854,7.857-7.854h54.976c4.346,0,7.858,3.516,7.858,7.854V399.395z"/>
			
				<radialGradient id="SVGID_6_" cx="242.207" cy="49.5225" r="13.5789" gradientTransform="matrix(1 0 0 -1 0 435)" gradientUnits="userSpaceOnUse">
				<stop  offset="0" style="stop-color:#585857"/>
				<stop  offset="1" style="stop-color:#3D3D3C"/>
			</radialGradient>
			<path fill="url(#SVGID_6_)" d="M255.786,391.197c0,4.344-3.515,7.859-7.858,7.859h-11.441c-4.338,0-7.858-3.516-7.858-7.859
				v-11.441c0-4.332,3.52-7.857,7.858-7.857h11.441c4.344,0,7.858,3.525,7.858,7.857V391.197z"/>
			
				<radialGradient id="SVGID_7_" cx="248.1943" cy="53.6147" r="5.033" gradientTransform="matrix(1 0.0057 0.0057 -1 -1.6163 433.6846)" gradientUnits="userSpaceOnUse">
				<stop  offset="0" style="stop-color:#FFFFFF"/>
				<stop  offset="1" style="stop-color:#F6F6F6"/>
			</radialGradient>
			<path fill="url(#SVGID_7_)" d="M251.903,383.633c-0.007,1.602-1.319,2.906-2.929,2.898l-4.24-0.027
				c-1.606-0.01-2.906-1.312-2.888-2.932l0.02-4.234c0.006-1.611,1.319-2.904,2.929-2.9l4.238,0.023
				c1.606,0.018,2.909,1.318,2.893,2.93L251.903,383.633z"/>
		</g>
		<rect x="306.77" y="308.99" fill="#7B0000" width="66.573" height="11.27"/>
		<rect x="194.044" y="308.99" fill="#7B0000" width="66.569" height="11.27"/>
		<g>
			
				<radialGradient id="SVGID_8_" cx="964.1641" cy="328.4121" r="245.9371" gradientTransform="matrix(0.3733 -0.4443 -0.6674 -0.5608 183.0343 642.8362)" gradientUnits="userSpaceOnUse">
				<stop  offset="0" style="stop-color:#AA0000"/>
				<stop  offset="1" style="stop-color:#7A0000"/>
			</radialGradient>
			<path fill="url(#SVGID_8_)" d="M243.257,6.196c0,0,1.632,2.188,4.595,5.985c2.922,3.817,7.301,9.189,11.939,16.119
				c1.143,1.713,2.332,3.583,3.412,5.479c1.102,1.85,2.273,3.906,3.31,6.003c2.104,4.206,3.882,8.749,5.112,13.388
				c2.525,9.318,2.715,18.777,2.042,27.561c-0.332,4.414-0.843,8.705-1.337,12.879c-0.197,1.755-0.279,3.896-0.314,5.886
				c-0.039,2.019-0.006,4.047,0.072,6.074c0.302,8.094,1.424,15.978,3.104,22.715c1.65,6.748,3.925,12.304,5.934,15.919
				c2.01,3.664,3.57,5.419,4.021,6.041c1.841,2.434,2.611,4.45,3.85,7.294c1.138,2.76,2.616,6.041,2.255,8.805
				c-0.331,2.722-2.856,4.431-7.793,3.289c-2.415-0.571-5.38-1.905-8.344-4.002c-2.974-2.074-5.869-4.878-8.161-7.945
				c-1.146-1.504-4.295-6.114-6.802-12.277c-2.567-6.17-4.455-13.714-5.226-21.643c-0.793-7.939-0.59-16.346,0.559-24.734
				c0.293-2.101,0.645-4.198,1.071-6.292c0.439-2.116,0.874-4.105,1.567-6.332c1.232-3.803,2.458-7.579,3.499-11.383
				c2.097-7.596,3.333-15.416,2.429-23.37c-0.429-3.968-1.373-7.939-2.706-11.761c-0.664-1.919-1.433-3.762-2.268-5.653
				c-0.787-1.865-1.622-3.603-2.49-5.312c-3.499-6.809-7.168-12.506-9.565-16.481C244.59,8.471,243.257,6.196,243.257,6.196z"/>
			
				<radialGradient id="SVGID_9_" cx="986.6533" cy="332.1699" r="245.9326" gradientTransform="matrix(0.5248 -0.6245 -0.7383 -0.6204 79.7794 804.2828)" gradientUnits="userSpaceOnUse">
				<stop  offset="0" style="stop-color:#AA0000"/>
				<stop  offset="1" style="stop-color:#7A0000"/>
			</radialGradient>
			<path fill="url(#SVGID_9_)" d="M511.596,69.128c-0.03-0.019-0.525,3.768-2.156,10.207c-1.662,6.397-4.501,15.497-10.148,25.348
				c-5.615,9.817-14.278,20.357-26.882,28.247c-3.143,1.977-6.495,3.774-10.06,5.372c-3.495,1.571-7.305,3.049-11.359,4.117
				c-8.058,2.187-17.188,2.854-26.396,1.786c-9.2-1.037-18.355-3.672-26.95-6.915c-8.612-3.24-16.74-7.065-24.438-10.815
				l-11.149-5.518c-3.258-1.562-6.419-2.859-9.381-3.78c-5.97-1.887-10.813-2.091-14.324-1.062
				c-6.97,1.893-11.637,9.091-14.588,15.007c-0.338,0.674-0.532,1.166-0.766,1.788l-0.765,2.003
				c-0.457,1.285-0.837,2.466-1.143,3.509c-0.616,2.082-0.982,3.602-1.211,4.358c-1.729,6.111-4.138,11.561-7.093,15.504
				c-2.949,3.915-6.494,6.349-10.489,5.723c-3.949-0.616-7.632-4.423-9.793-10.417c-2.175-5.959-2.768-14.051-0.479-22.163
				c0.293-1.011,0.911-2.963,1.988-5.678c0.535-1.353,1.203-2.904,2.017-4.621c0.405-0.848,0.862-1.747,1.352-2.679
				c0.512-1.014,1.183-2.182,1.833-3.179c2.446-3.756,5.571-8.12,10.341-12.435c2.39-2.147,5.216-4.269,8.646-6.056
				c3.417-1.78,7.476-3.213,11.948-3.858c4.462-0.674,9.268-0.532,13.926,0.299c4.68,0.811,9.212,2.272,13.494,4.073
				c4.302,1.808,8.374,3.964,12.294,6.312l10.692,6.537c14.184,8.585,28.992,17.006,44.064,20.276
				c7.508,1.645,15.019,1.933,22.161,0.869c3.592-0.524,7.015-1.392,10.471-2.466c3.403-1.057,6.662-2.319,9.742-3.768
				c12.407-5.758,21.856-14.489,28.388-23.135c6.593-8.649,10.486-17.098,12.872-23.109
				C510.626,72.759,511.569,69.111,511.596,69.128z"/>
			
				<radialGradient id="SVGID_10_" cx="986.6543" cy="332.168" r="245.9327" gradientTransform="matrix(0.5248 -0.6245 -0.7383 -0.6204 79.7794 804.2828)" gradientUnits="userSpaceOnUse">
				<stop  offset="0" style="stop-color:#AA0000"/>
				<stop  offset="1" style="stop-color:#7A0000"/>
			</radialGradient>
			<path fill="url(#SVGID_10_)" d="M493.059,234.046c-0.018,0.01-0.596-3.638-0.596-9.931c-0.079-6.295,0.344-15.236,0.037-25.978
				c-0.193-5.351-0.557-11.211-1.829-17.162c-0.642-2.956-1.535-5.96-2.886-8.617c-0.328-0.661-0.696-1.3-1.078-1.894
				c-0.352-0.543-0.757-1.056-1.176-1.551c-0.853-0.981-1.864-1.839-2.984-2.47c-1.119-0.64-2.339-1.043-3.544-1.239
				c-1.121-0.188-2.536-0.246-3.977-0.132c-0.736,0.055-1.404,0.132-2.237,0.269l-2.537,0.383c-1.67,0.262-3.323,0.609-4.978,0.967
				c-6.632,1.468-13.239,3.619-19.904,5.968c-6.67,2.344-13.401,4.916-20.415,7.205c-1.761,0.561-3.531,1.12-5.326,1.642
				l-2.727,0.771c-1.022,0.272-2.06,0.549-2.967,0.695c-3.826,0.757-7.262,1.426-10.818,2.049
				c-14.113,2.533-27.885,4.196-40.347,4.818c-6.229,0.325-12.105,0.412-17.492,0.297l-13.718-0.332
				c-8.296-0.249-14.472-1.091-16.604-1.504c-4.247-0.806-8.48-2.246-12.333-4.277c-3.841-2.027-7.295-4.659-9.77-7.521
				c-2.489-2.849-3.913-5.839-4.16-8.206c-0.272-2.397,0.573-4.107,1.989-5.193c1.436-1.101,3.273-1.592,5.081-2.011
				c1.832-0.417,3.639-0.756,5.533-1.007c3.727-0.491,8.337-0.384,14.543,0.78c1.544,0.297,6.018,1.311,13.473,2.272l6.217,0.759
				l3.696,0.447l3.617,0.476c4.837,0.611,10.2,1.093,15.982,1.432c11.562,0.684,24.82,0.625,38.83-0.211
				c3.481-0.189,7.132-0.47,10.463-0.704c0.897-0.053,1.598-0.154,2.342-0.257l2.525-0.388c1.7-0.272,3.42-0.59,5.147-0.917
				c6.915-1.329,14-3.034,21.236-4.601c7.247-1.565,14.67-2.998,22.27-3.727c1.905-0.175,3.801-0.328,5.729-0.397l2.816-0.09
				c0.946-0.035,2.086-0.035,3.145,0.018c2.175,0.107,4.418,0.411,6.878,1.144c2.387,0.72,4.663,1.817,6.67,3.29
				c2.004,1.45,3.723,3.248,5.076,5.193c0.666,0.967,1.269,1.98,1.782,2.992c0.493,0.969,0.905,1.925,1.253,2.863
				c1.391,3.771,1.956,7.288,2.3,10.613c0.592,6.637,0.184,12.533-0.285,17.903c-1.057,10.714-2.599,19.291-3.304,25.396
				C492.908,230.454,493.042,234.046,493.059,234.046z"/>
			
				<radialGradient id="SVGID_11_" cx="996.0283" cy="331.7275" r="245.915" gradientTransform="matrix(0.6433 -0.7656 -0.7656 -0.6433 -8.461 924.5095)" gradientUnits="userSpaceOnUse">
				<stop  offset="0" style="stop-color:#AA0000"/>
				<stop  offset="1" style="stop-color:#7A0000"/>
			</radialGradient>
			<path fill="url(#SVGID_11_)" d="M181.804,77.787c-0.021,0.035,2.208,0.68,5.856,2.625c3.609,1.935,8.689,5.332,13.362,11.117
				c2.317,2.889,4.518,6.347,6.28,10.338c0.441,0.996,0.845,2.019,1.232,3.088c0.389,1.154,0.742,2.34,0.984,3.523
				c0.531,2.377,0.793,4.773,0.945,7.141c0.313,4.757,0.168,9.456,0.233,13.955c0.075,4.434,0.383,8.857,1.54,11.764
				c1.491,4.192,8.419,7.235,15.896,8.468c7.538,1.294,15.467,1.289,22.425,0.96c13.993-0.739,24.317-2.62,26.437-2.693
				c8.529-0.52,16.315,5.705,17.37,14.419c1.057,8.702-5.79,16.688-15.395,17.29c-2.399,0.07-13.861,0.088-29.991-2.269
				c-8.056-1.253-17.317-3.031-27.179-6.931c-4.909-2.01-10.036-4.567-14.852-8.595c-2.408-2.028-4.661-4.41-6.56-7.338
				c-0.997-1.54-1.864-3.154-2.444-4.872c-0.622-1.688-1.015-3.534-1.231-5.094c-0.785-6.41,0.263-11.55,1.128-16.303
				c0.933-4.73,1.989-9.052,2.583-13.081c0.293-2.013,0.485-3.941,0.485-5.749c0.008-0.917-0.057-1.776-0.146-2.626
				c-0.125-0.917-0.279-1.849-0.463-2.75c-0.734-3.625-1.965-6.971-3.439-9.924c-2.974-5.929-6.949-10.133-9.973-12.709
				C183.838,78.941,181.776,77.817,181.804,77.787z"/>
			
				<radialGradient id="SVGID_12_" cx="964.1504" cy="328.4092" r="245.9257" gradientTransform="matrix(0.3733 -0.4443 -0.6674 -0.5608 183.0343 642.8362)" gradientUnits="userSpaceOnUse">
				<stop  offset="0" style="stop-color:#AA0000"/>
				<stop  offset="1" style="stop-color:#7A0000"/>
			</radialGradient>
			<path fill="url(#SVGID_12_)" d="M293.225,67.677c0.039,0.016-2.823,4.513-6.5,11.669c-1.812,3.597-3.788,7.885-5.423,12.705
				c-1.636,4.815-2.929,10.192-3.214,15.783c-0.308,5.577,0.5,11.366,2.526,16.473c0.99,2.553,2.25,4.925,3.681,7.107
				c1.55,2.408,3.256,4.718,5.069,7.159c3.612,4.814,7.264,9.82,9.717,14.215c2.503,4.39,3.715,7.939,4.009,9.098
				c0.636,2.364,0.644,4.616,0.11,6.386c-0.525,1.778-1.584,3.052-2.89,3.769c-2.65,1.448-6.11,0.662-9.283-1.312
				c-3.214-2.004-5.732-4.71-7.721-6.862c-1.99-2.229-3.354-3.648-3.757-5.186c-0.116-0.411-0.184-1.495-1.095-3.979
				c-0.88-2.471-2.869-6.4-5.849-11.895c-1.444-2.723-3.156-5.96-4.669-9.459c-1.615-3.702-2.814-7.598-3.454-11.337
				c-1.299-7.54-0.36-14.37,1.615-20.121c1.98-5.774,4.935-10.625,8.028-14.781c3.085-4.151,6.342-7.604,9.211-10.436
				C289.107,71.028,293.249,67.7,293.225,67.677z"/>
			
				<radialGradient id="SVGID_13_" cx="1079.2891" cy="392.5732" r="245.9277" gradientTransform="matrix(0.3963 0.9181 -0.9181 0.3963 243.4653 -754.5375)" gradientUnits="userSpaceOnUse">
				<stop  offset="0" style="stop-color:#AA0000"/>
				<stop  offset="1" style="stop-color:#7A0000"/>
			</radialGradient>
			<path fill="url(#SVGID_13_)" d="M278.49,315.258c0.051,0-2.825-8.674-6.293-21.912c-1.694-6.62-3.499-14.381-4.792-22.743
				c-1.283-8.324-2.064-17.272-1.554-25.877c0.474-8.595,2.374-16.752,5.685-23.089c1.636-3.171,3.576-5.882,5.696-8.217
				c2.296-2.566,4.791-4.914,7.417-7.366c5.247-4.823,10.574-9.897,14.307-14.873c3.795-4.916,5.851-9.447,6.393-10.988
				c1.166-3.135,1.525-6.518,1.129-9.526c-0.388-3.033-1.51-5.659-3.014-7.611c-3.076-3.947-7.515-5.094-11.779-4.248
				c-4.31,0.846-7.86,3.242-10.671,5.144c-2.818,2.024-4.738,3.244-5.479,5.281c-0.215,0.546-0.473,2.129-1.982,5.256
				c-1.485,3.125-4.566,7.697-9.122,13.975c-2.225,3.12-4.858,6.847-7.28,11.094c-2.59,4.49-4.682,9.533-6.055,14.734
				c-2.789,10.463-2.678,21.368-1.1,31.341c1.57,10.011,4.504,19.285,7.704,27.602c3.216,8.312,6.724,15.68,9.855,21.864
				C273.875,307.448,278.525,315.23,278.49,315.258z"/>
			
				<radialGradient id="SVGID_14_" cx="996.0479" cy="331.7285" r="245.9404" gradientTransform="matrix(0.6433 -0.7656 -0.7656 -0.6433 -8.461 924.5095)" gradientUnits="userSpaceOnUse">
				<stop  offset="0" style="stop-color:#AA0000"/>
				<stop  offset="1" style="stop-color:#7A0000"/>
			</radialGradient>
			<path fill="url(#SVGID_14_)" d="M409.378,120.836c-0.034-0.018,0.251,3.166-1.307,8.351c-0.788,2.585-1.994,5.644-3.992,8.896
				c-2.057,3.177-4.751,6.824-9.717,9.256l0.278-0.102c-1.11,0.628-2.326,1.252-3.749,1.772c-1.413,0.515-3.139,0.903-4.968,0.897
				c-1.83,0.006-3.503-0.353-4.82-0.625c-1.317-0.277-2.412-0.498-3.472-0.638c-0.542-0.064-1.056-0.116-1.578-0.146
				c-0.617-0.064-0.784-0.009-1.482-0.023c-1.184-0.015-2.36,0.014-3.546,0.074c-2.369,0.121-4.744,0.369-7.128,0.753
				c-9.498,1.513-18.885,5.051-27.69,8.682c-8.784,3.659-17.121,7.305-23.913,9.707c-6.776,2.454-11.88,3.722-13.304,3.931
				c-4.222,0.654-8.403-0.755-11.309-3.493c-2.929-2.729-4.538-6.73-4.52-11.103c0.005-4.396,1.424-8.358,3.368-11.326
				c1.964-2.974,4.511-5.001,7.655-5.478c1.077-0.169,4.984-0.29,11.176-1.022c6.202-0.672,14.719-2.135,24.796-3.64
				c10.031-1.448,21.787-2.796,33.468-1.629c2.909,0.275,5.802,0.721,8.613,1.311c1.412,0.298,2.8,0.631,4.163,1.005
				c0.574,0.156,1.657,0.433,2.282,0.675c0.718,0.243,1.426,0.511,2.105,0.792c1.361,0.566,2.639,1.188,3.648,1.703
				c1.028,0.52,1.71,0.858,2.296,1.063c1.082,0.445,2.915,0.281,4.87-0.266l0.538-0.146l-0.254,0.047
				c3.08-0.485,6.248-2.661,8.62-4.914c2.415-2.288,4.259-4.748,5.599-6.897C408.778,123.964,409.367,120.818,409.378,120.836z"/>
			
				<radialGradient id="SVGID_15_" cx="964.1553" cy="328.4072" r="245.9078" gradientTransform="matrix(0.3733 -0.4443 -0.6674 -0.5608 183.0343 642.8362)" gradientUnits="userSpaceOnUse">
				<stop  offset="0" style="stop-color:#AA0000"/>
				<stop  offset="1" style="stop-color:#7A0000"/>
			</radialGradient>
			<path fill="url(#SVGID_15_)" d="M322.521,0l2.314,6.838c1.454,4.366,3.81,10.604,5.771,18.223
				c0.956,3.793,1.735,7.958,1.829,12.231c0.118,4.271-0.513,8.594-1.913,12.608c-0.687,1.989-1.638,3.998-2.561,5.769l-2.728,5.494
				l-5.733,11.156c-3.81,7.478-7.397,15.049-9.952,22.542c-1.3,3.766-2.297,7.423-3.104,11.133l-2.572,10.914
				c-1.565,6.692-2.452,12.338-2.741,16.603c-0.299,4.25-0.116,7.096-0.138,8.047c-0.046,3.816-0.974,6.905-2.605,9.23
				c-1.642,2.285-4.005,3.806-7.256,3.41c-3.222-0.389-6.796-2.837-9.65-6.833c-2.854-3.95-4.852-9.43-4.778-14.65
				c0.015-1.281,0.248-5.016,1.368-9.955c1.084-4.942,3.176-10.966,5.927-17.287l4.344-9.856c1.533-3.631,3.391-7.417,5.489-10.998
				c4.196-7.23,9.363-14.059,14.604-20.585l7.797-9.604l3.736-4.736c1.279-1.548,2.333-2.93,3.269-4.527
				c1.863-3.111,3.053-6.523,3.567-10.104c0.54-3.573,0.423-7.279,0.062-10.799c-0.787-7.082-2.236-13.285-3.04-17.547L322.521,0z"
				/>
		</g>
		<path opacity="0.5" fill="#010101" enable-background="new    " d="M252.351,447.633c2.343,3.377,5.043,6.443,8.116,9.059
			c3,2.676,6.326,4.951,9.899,6.65c7.141,3.414,15.13,4.641,22.967,3.664c7.857-0.848,15.482-3.59,22.777-7.031
			c3.663-1.715,7.221-3.68,10.697-5.805c3.553-2.016,6.935-4.309,10.406-6.537c-5.923,5.729-12.527,10.771-19.76,14.904
			c-7.213,4.154-15.231,7.197-23.708,8.203c-8.433,0.977-17.36-0.523-24.723-4.855C261.673,461.619,255.726,455.17,252.351,447.633z
			"/>
	</g>
	<g>
		<g>
			
				<linearGradient id="SVGID_16_" gradientUnits="userSpaceOnUse" x1="259.0166" y1="73.2334" x2="182.4404" y2="22.4601" gradientTransform="matrix(1 0 0 -1 0 435)">
				<stop  offset="0" style="stop-color:#FFFFFF;stop-opacity:0.5"/>
				<stop  offset="1" style="stop-color:#FFFFFF"/>
			</linearGradient>
			<path opacity="0.25" fill="url(#SVGID_16_)" enable-background="new    " d="M264.895,405.529c0,3.734-3.136,6.768-7.002,6.768
				h-72.447c-3.868,0-7.009-3.033-7.009-6.768v-38.006c0-3.732,3.141-6.756,7.009-6.756h72.447c3.866,0,7.002,3.023,7.002,6.756
				V405.529z"/>
			<g>
				
					<linearGradient id="SVGID_17_" gradientUnits="userSpaceOnUse" x1="261.1338" y1="74.5415" x2="180.5122" y2="21.086" gradientTransform="matrix(1 0 0 -1 0 435)">
					<stop  offset="0" style="stop-color:#585857"/>
					<stop  offset="1" style="stop-color:#010101"/>
				</linearGradient>
				<path fill="url(#SVGID_17_)" d="M257.74,414.92h-71.846c-5.555,0-10.082-4.523-10.082-10.08v-36.623
					c0-5.557,4.526-10.086,10.082-10.086h71.846c5.56,0,10.083,4.529,10.083,10.086v36.623
					C267.821,410.4,263.3,414.92,257.74,414.92z M185.894,363.395c-2.657,0-4.818,2.168-4.818,4.822v36.623
					c0,2.658,2.165,4.816,4.818,4.816h71.846c2.665,0,4.827-2.162,4.827-4.816v-36.623c0-2.658-2.167-4.822-4.827-4.822H185.894z"/>
			</g>
		</g>
		<g>
			
				<linearGradient id="SVGID_18_" gradientUnits="userSpaceOnUse" x1="381.6973" y1="73.2324" x2="305.1198" y2="22.4582" gradientTransform="matrix(1 0 0 -1 0 435)">
				<stop  offset="0" style="stop-color:#FFFFFF;stop-opacity:0.5"/>
				<stop  offset="1" style="stop-color:#FFFFFF"/>
			</linearGradient>
			<path opacity="0.25" fill="url(#SVGID_18_)" enable-background="new    " d="M387.574,405.529c0,3.734-3.134,6.768-6.999,6.768
				h-72.446c-3.865,0-7.009-3.033-7.009-6.768v-38.006c0-3.732,3.141-6.756,7.009-6.756h72.446c3.865,0,6.999,3.023,6.999,6.756
				V405.529z"/>
			<g>
				
					<linearGradient id="SVGID_19_" gradientUnits="userSpaceOnUse" x1="383.8115" y1="74.541" x2="303.1939" y2="21.0881" gradientTransform="matrix(1 0 0 -1 0 435)">
					<stop  offset="0" style="stop-color:#585857"/>
					<stop  offset="1" style="stop-color:#010101"/>
				</linearGradient>
				<path fill="url(#SVGID_19_)" d="M380.422,414.92h-71.847c-5.564,0-10.082-4.523-10.082-10.08v-36.623
					c0-5.557,4.518-10.086,10.082-10.086h71.847c5.553,0,10.08,4.529,10.08,10.086v36.623
					C390.502,410.4,385.975,414.92,380.422,414.92z M308.576,363.395c-2.666,0-4.827,2.168-4.827,4.822v36.623
					c0,2.658,2.166,4.816,4.827,4.816h71.847c2.655,0,4.819-2.162,4.819-4.816v-36.623c0-2.658-2.17-4.822-4.819-4.822H308.576z"/>
			</g>
		</g>
		
			<linearGradient id="SVGID_20_" gradientUnits="userSpaceOnUse" x1="267.7334" y1="51.6152" x2="298.4956" y2="51.6152" gradientTransform="matrix(1 0 0 -1 0 435)">
			<stop  offset="0" style="stop-color:#595758"/>
			<stop  offset="1" style="stop-color:#191919"/>
		</linearGradient>
		<rect x="267.733" y="381.504" fill="url(#SVGID_20_)" width="30.762" height="3.762"/>
	</g>
</g>
</svg>
