<?xml version="1.0" encoding="utf-8"?>
<!-- Generator: Adobe Illustrator 16.2.1, SVG Export Plug-In . SVG Version: 6.00 Build 0)  -->
<!DOCTYPE svg PUBLIC "-//W3C//DTD SVG 1.1//EN" "http://www.w3.org/Graphics/SVG/1.1/DTD/svg11.dtd">
<svg version="1.1" id="Layer_1" xmlns="http://www.w3.org/2000/svg" xmlns:xlink="http://www.w3.org/1999/xlink" x="0px" y="0px"
	 width="612px" height="612px" viewBox="0 0 612 612" enable-background="new 0 0 612 612" xml:space="preserve">
<g>
	<path fill="#80757A" d="M209.648,567.342c-20.779-3.038-51.449,9.249-39.141,23.884c-8.928-12.542,20.657-16.104,41.302-8.736
		c11.248,4.011,27.239,10.399,17.842,15.616C242.345,592.73,241.184,571.956,209.648,567.342z"/>
	<path fill="#483643" d="M212.779,578.445c-21.497-5.313-51.2,0.238-42.272,12.78c12.309,14.632,46.449,12.251,59.144,6.88
		C239.048,592.889,234.052,583.705,212.779,578.445z"/>
</g>
<path fill="#80757A" d="M257.493,139.109c-83.075,103.042-34.783,179.995-27.539,198.837c7.244,18.834,11.111,17.871-20.285,43.949
	c-32.877,27.318-43.79,72.144-37.145,110.689c3.279,19.052,10.826,36.568,22.171,49.675c25.887,29.894,69.107,42.159,107.237,25.605
	c4.986-11.147,22.38-24.755,37.958-29.394c11.327-13.907,18.701-29.696,22.507-45.887c9.426-40.057-3.041-82.549-31.977-104.893
	c-33.487-25.854-60.856-16.904-74.864-30.912c-22.741-22.737,16.706-244.215,201.87-354.533L460.355,0
	C460.355,0,340.572,36.063,257.493,139.109z"/>
<g>
	<path fill="none" d="M308.364,307.189c-0.826,0.304-1.612,0.599-2.42,0.901c1.566-0.52,3.127-1.082,4.686-1.721
		C309.876,306.641,309.122,306.919,308.364,307.189z"/>
	<path fill="#483643" d="M411.937,144.986c-3.444-72.333-56.524-88.912-119.001,42.394
		c-54.879,115.354-21.291,132.165,13.008,120.711c0.808-0.303,1.594-0.598,2.42-0.901c0.758-0.271,1.512-0.549,2.266-0.819
		c0.039-0.018,0.076-0.032,0.115-0.043c0.091-0.04,0.181-0.061,0.271-0.098c53.516-19.426,105.466-40.857,101.039-155.53
		C411.98,148.744,411.974,146.897,411.937,144.986z"/>
	<path fill="#3B2C37" d="M420.306,67.448C431.405,27.146,453.17,5.999,460.355,0l-2.93,2.248
		C272.262,112.565,232.814,334.043,255.556,356.78c-6.133-7.104-1.443-22.276,19.758-34.692c7.864-4.61,17.95-9.293,30.63-13.997
		c-34.299,11.454-61.615-13.737-8.806-120.711c57.221-115.913,111.354-114.727,114.798-42.394
		C411.201,113.118,414.758,87.57,420.306,67.448z"/>
	<path fill="#9E9E9E" d="M310.63,306.37c0.13-0.051,0.257-0.093,0.387-0.141c-0.091,0.037-0.181,0.058-0.271,0.098
		C310.706,306.338,310.669,306.353,310.63,306.37z"/>
</g>
<g>
	<path fill="#483643" d="M301.914,567.865c4.989-11.147,22.385-24.755,37.962-29.394c11.326-13.907,18.704-29.696,22.506-45.887
		c9.426-40.057-3.041-82.549-31.979-104.893c-33.484-25.854-60.857-16.904-74.865-30.912c-0.234-0.234-0.451-0.522-0.667-0.801
		c10.072,15.014,28.095,14.866,47.246,29.985c22.947,18.112,34.418,48.854,32.362,85.524
		c-4.293,76.689-105.344,112.608-142.132,67.844c0.779,0.981,1.526,1.988,2.33,2.927
		C220.567,572.153,263.788,584.419,301.914,567.865z"/>
</g>
<path fill="#3B3338" d="M278.109,506.077c5.299-0.011,9.61-4.81,9.61-10.71c0.004-5.896-4.3-10.657-9.596-10.636
	c-5.299,0.015-9.592,4.81-9.592,10.703C268.528,501.337,272.813,506.098,278.109,506.077z"/>
<path fill="#3B3338" d="M206.596,502.102c-4.52,1.565-6.789,6.904-5.064,11.937c1.713,5.025,6.782,7.832,11.312,6.267
	c4.509-1.566,6.786-6.908,5.061-11.934C216.184,503.339,211.116,500.539,206.596,502.102z"/>
<path fill="#FFFFFF" d="M282.211,492.084c-0.008,2.063-1.678,3.755-3.748,3.759c-2.067,0.007-3.752-1.675-3.748-3.737
	c0-2.07,1.681-3.756,3.752-3.76C280.537,488.335,282.211,490.013,282.211,492.084z"/>
<path fill="#FFFFFF" d="M213.471,509.262c-0.003,2.071-1.688,3.752-3.758,3.755c-2.064,0.012-3.749-1.658-3.749-3.729
	c0.007-2.07,1.685-3.755,3.755-3.762C211.794,505.515,213.471,507.191,213.471,509.262z"/>
<path fill="#80757A" d="M303.292,553.896c18.279-23.434,44.195-32.456,56.067-21.402c11.864,11.06-5.17,39.458-33.084,44.908
	C298.361,582.856,288.102,573.384,303.292,553.896z"/>
<path fill="#483643" d="M303.83,557.406c16.73-20.172,35.587-24.718,46.349-15.287c10.756,9.426-0.095,31.239-25.538,36.034
	C299.22,582.951,289.906,574.188,303.83,557.406z"/>
</svg>
