<?xml version="1.0" encoding="utf-8"?>
<!-- Generator: Adobe Illustrator 16.2.1, SVG Export Plug-In . SVG Version: 6.00 Build 0)  -->
<!DOCTYPE svg PUBLIC "-//W3C//DTD SVG 1.1//EN" "http://www.w3.org/Graphics/SVG/1.1/DTD/svg11.dtd">
<svg version="1.1" id="Layer_1" xmlns="http://www.w3.org/2000/svg" xmlns:xlink="http://www.w3.org/1999/xlink" x="0px" y="0px"
	 width="612px" height="612px" viewBox="0 0 612 612" enable-background="new 0 0 612 612" xml:space="preserve">
<g>
	<path fill="#454440" d="M402.232,228.865c-13.018-5.243-22.05-3.397-13.913,2.665l-0.003,0.005
		c10.532,7.566,20.731,18.995,23.417,35.683c3.921,24.354,21.235,29.136,33.007,22.482c4.351-2.468,7.94-6.487,9.824-11.672
		c5.582,8.543,10.15,18.2,13.093,29.174c25.91,96.687-56.849,169.166-135.122,155.257c-1.066-12.557-6.015-26.515-16.159-43.713
		c-10.959-18.587-13.69-36.052-21.543-56.408c-15.988-41.453,6.091-53.445,2.173-86.15c-5.72-47.736-24.765-59.21-24.765-59.21
		l-0.013,0.032c-31.931-37.498-84.286-34.008-100.848,19.703c-22.7,73.61,1.225,146.441,36.868,136.233
		c13.955-3.997,26.638-9.709,37.113-16.805c-0.037,0.111-0.06,0.225-0.098,0.335c-0.437,1.124-1.964,5.024-3.515,8.335
		c-0.3,0.603-0.563,1.225-0.883,1.817c-9.578,17.812-26.558,31.81-36.752,44.66c-6.289,7.927-9.994,15.417-7.806,23.105
		c0.158,0.553,0.406,1.115,0.622,1.676l-0.037,0.042c0.082,0.215,0.177,0.377,0.263,0.568l0.005,0.016
		c0.164,0.385,0.353,0.77,0.54,1.158c0.366,0.749,0.745,1.499,1.219,2.26c1.601,2.565,3.76,3.29,7.408,3.719
		c2.599,0.3,2.465,5.656,8.68,3.168c1.799-0.719,3.821-1.917,5.941-3.468c-3.787,15.158-3.265,30.134,7.769,44.286
		c0.269,0.345,0.553,0.667,0.832,0.995c13.976,17.934,9.027,24.28-6.022,22.413c-13.394-1.655-36.207,1.867-45.753,17.374
		c0.097-0.243,0.229-0.49,0.413-0.749c0,0-2.565,2.979-1.488,3.421c1.08,0.44,3.955,2.544,3.955,2.544
		c-1.113,1.42-4.679,4.602-4.855,5.422c0,0,3.471,2.079,9.027,3.559c8.704,2.649,22.01,4.559,32.17-3.559
		c17.455-13.948,35.494-8.455,35.494-19.918c0-7.962,1.814-11.844,5.72-14.058c5.983,3.046,11.79,3.721,14.863,3.845
		c1.48,3.277,3.671,6.354,6.936,8.666c12.551,8.891,7.384,18.15,3.953,31.735c-5.161,20.443-8.137,49.841,34.417,59.121
		c0,0,17.753-26.034,2.352-48.239c-1.801-2.597-3.392-4.879-4.849-7c-1.433-2.765-3.122-5.391-5.076-7.811
		c-6.731-11.405-4.933-16.254,5.807-33.036c7.339-11.464,12.606-21.921,14.902-32.876c1.265,0.16,2.512,0.353,3.784,0.479
		c75.864,7.561,143.185-44.855,150.369-117.066C491.487,304.64,456.131,251.151,402.232,228.865z M241.116,483.131
		c0.108,0.393,0.258,0.724,0.374,1.104C241.237,483.561,241.116,483.131,241.116,483.131z"/>
	<path fill="#483642" d="M162.021,218.642c-9.98-17.817-36.12-76.859-8.743-133.036c5.159-6.763,8.574-2.575,7.115,7.787
		c-0.008,0.074-0.016,0.147-0.021,0.224l-0.005,0.042c-8.488,77.51,44.878,121.726,44.878,121.726
		c5.817,5.164,2.866,13.388-3.497,19.919C189.366,247.265,171.991,236.444,162.021,218.642z"/>
	<path fill="#BBB9A1" d="M186.93,221.884c-1.43-2.552-3.374-5.828-5.612-9.754c-1.014-1.72-1.938-3.432-2.886-5.148
		c-0.948-1.712-1.922-3.524-2.92-5.419c-21.086-40.637-24.899-78.4-19.403-100.345c2.657-9.085,5.135-15.964,2.383-18.718
		c0,0-4.29-3.61-11.329,14.889c-0.011,0.032-0.021,0.061-0.032,0.095c-12.941,32.286-10.062,105.695,32.997,163.613
		c5.923,7.976,5.799-14.866,14.366-20.059C192.513,240.686,193.427,233.476,186.93,221.884z"/>
	<path fill="#D7D6D6" d="M206.062,233.007c-2.104,2.157-4.59,4.119-7.255,5.733C199.868,238.927,201.744,237.181,206.062,233.007z"
		/>
	<path fill="none" d="M196.924,436.069L196.924,436.069c0.081,0.205,0.142,0.405,0.227,0.61l0.008,0.011
		C197.069,436.482,197.005,436.276,196.924,436.069z"/>
	<path fill="#C5C3BF" d="M197.698,437.854c-0.187-0.389-0.379-0.773-0.54-1.158C197.325,437.08,197.503,437.465,197.698,437.854z"/>
	<path fill="#C5C3BF" d="M196.302,434.394c0.161,0.553,0.409,1.115,0.622,1.676l0,0
		C196.711,435.509,196.463,434.946,196.302,434.394z"/>
	<path fill="#C5C3BF" d="M246.072,355.67c-0.234,0.158-0.479,0.313-0.714,0.471c-0.037,0.111-0.063,0.225-0.101,0.335
		c0.08-0.205,0.127-0.327,0.127-0.327C245.616,355.996,245.84,355.823,246.072,355.67z"/>
	<path fill="#8C8A83" d="M198.917,440.113c-0.477-0.761-0.853-1.511-1.219-2.26C198.054,438.603,198.441,439.353,198.917,440.113z"
		/>
	<polygon fill="#8C8A83" points="197.151,436.68 197.159,436.69 197.159,436.69 	"/>
	<path fill="#C5C3BF" d="M196.887,436.111c0.084,0.215,0.179,0.377,0.264,0.568c-0.084-0.205-0.146-0.405-0.227-0.61
		L196.887,436.111z"/>
	<path fill="#C5C3BF" d="M184.824,542.797c-5.393-1.642-9.027-3.559-9.027-3.559S179.27,541.317,184.824,542.797z"/>
	<polygon fill="#C5C3BF" points="247.491,347.175 247.934,354.372 247.934,354.372 	"/>
	<path fill="#80757A" d="M267.853,227.424l4.371-10.415c-31.933-37.498-84.286-34.008-100.844,19.703
		c-22.703,73.61,0.258,147.405,35.901,137.195c13.957-3.995,27.601-10.671,38.077-17.767c0.234-0.157,0.479-0.312,0.714-0.471
		c0.624-0.421,1.246-0.853,1.861-1.298C281.942,329.912,304.466,269.904,267.853,227.424z"/>
	<path fill="#80757A" d="M311.976,456.691c-0.034-0.135-0.065-0.271-0.103-0.408c-0.828-3.134-1.793-6.064-2.833-8.717
		c-2.997-7.626-6.544-12.938-8.83-14.41c-0.604,4.819-1.596,10.781-4.051,15.939c-0.195,0.414-0.411,0.819-0.624,1.22
		c-0.875,1.622-1.907,3.139-3.134,4.487c-1.291,1.417-2.789,2.654-4.556,3.624c-6.744,3.697-11.493,1.617-15.379-1.083
		c-3.323-2.307-6.03-5.063-8.801-5.063c-0.058,0-0.098-0.013-0.153-0.013c-3.913-0.034-6.412-1.218-8.006-2.784h-0.031
		c-0.047-0.05-0.079-0.11-0.124-0.16c-1.899-1.97-2.447-4.442-2.586-6.037c-0.002-0.036-0.016-0.089-0.019-0.126
		c-0.495-3.771,0.164-8.107,1.014-11.7c0.99-4.184,2.241-7.348,2.241-7.348s-0.034,0.138-0.084,0.335
		c-0.232,0.928-0.922,3.885-1.33,7.329c-0.545,4.655-0.556,10.154,1.883,12.594c3.613,3.607,4.522,0.474,10.581,4.128
		c4.216,2.17,10.971,5.294,15.945-2.715c0.485-0.782,0.954-1.648,1.399-2.649c0.784-1.765,1.511-3.86,2.144-6.409
		c4.274-17.223,4.229-34.438,1.943-48.932c-1.027-6.505-2.501-12.456-4.256-17.613c-0.316-0.938-0.645-1.849-0.979-2.732
		c-1.765-4.52-3.453-7.811-5.104-10.189c-0.606-0.877-1.214-1.651-1.814-2.283c-5.214-5.475-10.188-2.13-16.227,2.191v-0.003
		c-3.979,2.979-8.085,5.383-11.556,7.191c-0.279,0.146-0.559,0.29-0.83,0.427c-4.527,2.308-7.773,3.521-7.773,3.521
		c0.29-0.481,0.6-1.05,0.918-1.674c-9.578,17.812-26.558,31.81-36.752,44.66c-6.286,7.927-9.994,15.417-7.809,23.105
		c0.161,0.553,0.409,1.115,0.622,1.676c0.081,0.207,0.145,0.413,0.234,0.621c3.147,6.904,8.358,1.936,12.774,4.214
		c4.066,2.091,9.676-2.773,15.506-11.287c-1.662,4.3-3.118,8.601-4.24,12.888c-0.092,0.345-0.166,0.685-0.253,1.027
		c-3.787,15.158-3.265,30.134,7.769,44.286c0.269,0.345,0.553,0.667,0.832,0.995c13.973,17.934,9.028,24.28-6.025,22.413
		c-13.391-1.655-36.205,1.867-45.753,17.374c-0.608,1.503,0.411,2.599,2.886,1.595c2.876-1.16,6.926-1.896,6.926-1.896
		s-2.467,1.063-6.926,5.521c-1.116,1.415-4.682,4.597-4.858,5.417c0,0,23.158,10.174,38.746-3.141
		c11.06-9.446,31.964-7.572,31.375-19.338c-0.458-9.214,1.538-16.628,2.431-19.416c-2.791-3.34-5.198-7.613-6.86-13.109
		c-0.253-0.674-0.375-1.104-0.375-1.104c0.108,0.393,0.258,0.724,0.375,1.104c1.443,3.876,7.905,16.943,28.868,18.632
		c0.248,0.021,0.482,0.05,0.729,0.062c-1.567-7.39-0.556-14.123-0.556-14.123c0,5.533,1.888,11.979,5.027,17.334
		c3.229,5.512,7.782,9.859,12.975,10.854c0.861,0.163,1.741,0.229,2.636,0.2c4.037-0.137,8.366-2.347,12.696-7.59
		c1.461-1.772,2.772-3.618,4.01-5.495c0.77-1.488,1.443-2.99,2.067-4.499c3.166-7.676,4.474-15.558,4.54-23.103
		C314.542,469.447,313.527,462.698,311.976,456.691z"/>
	<path fill="#8C8A83" d="M240.863,366.628c1.747-3.247,3.229-6.632,4.395-10.152C244.742,357.813,242.669,363.102,240.863,366.628z"
		/>
	<path fill="#8C8A83" d="M284.386,370.18c-0.326-0.721-0.656-1.506-1.009-2.417c-0.042-0.113-0.086-0.205-0.129-0.315
		c0.334,0.884,0.664,1.795,0.979,2.732H284.386z"/>
	
		<rect x="243.24" y="359.363" transform="matrix(0.0614 0.9981 -0.9981 0.0614 591.6921 89.5369)" fill="#8C8A83" width="10.001" height="0"/>
	<path fill="#8C8A83" d="M283.248,367.447c-1.577-4.156-3.321-7.708-5.13-10.477c0.011,0.098,0.016,0.192,0.026,0.287
		C279.795,359.637,281.483,362.928,283.248,367.447z"/>
	<path fill="#483642" d="M220.625,306.564c-5.243-1.517-11.013,2.457-12.872,8.866c-1.872,6.37,0.898,12.815,6.125,14.327
		c5.251,1.526,11-2.481,12.862-8.854C228.609,314.506,225.887,308.06,220.625,306.564z"/>
	<path fill="#FFFFFF" d="M220.578,310.728c-1.67-0.484-3.514,0.782-4.108,2.826c-0.596,2.033,0.29,4.087,1.954,4.571
		c1.675,0.49,3.513-0.79,4.107-2.825C223.127,313.259,222.258,311.205,220.578,310.728z"/>
	<path fill="#DFDFC9" d="M274.426,205.548c9.394-27.967,32.086-118.21-11.787-190.884c-7.616-8.264-11.149-1.404-7.553,12.945
		c0.023,0.103,0.048,0.211,0.069,0.316c0,0,0.011,0.04,0.016,0.058c23.959,108.007-35.077,184.959-35.077,184.959
		c-6.381,8.877-1.272,19.796,7.805,27.404C245.424,254.098,265.033,233.5,274.426,205.548z"/>
	<g>
		<path fill="#483642" d="M198.917,440.113c1.602,2.565,3.758,3.29,7.408,3.719c2.6,0.3,2.465,5.656,8.68,3.168
			c1.798-0.719,3.821-1.917,5.941-3.468c0.087-0.343,0.161-0.683,0.253-1.027c1.122-4.287,2.578-8.588,4.24-12.888
			c-5.83,8.514-11.439,13.378-15.506,11.287c-4.416-2.278-9.627,2.69-12.774-4.214v0.005c0.161,0.385,0.353,0.77,0.54,1.158
			C198.064,438.603,198.441,439.353,198.917,440.113z"/>
		<path fill="#483642" d="M180.654,533.821c4.459-4.458,6.926-5.521,6.926-5.521s-4.05,0.735-6.926,1.896
			c-2.475,1.004-3.494-0.092-2.886-1.595c0.1-0.243,0.232-0.49,0.416-0.749c0,0-2.565,2.979-1.488,3.421
			C177.776,531.713,180.652,533.816,180.654,533.821z"/>
		<path fill="#483642" d="M422.604,239.314c-6.437-3.984-13.238-7.5-20.377-10.45c-13.016-5.243-22.048-3.397-13.911,2.665
			l-0.002,0.005c10.531,7.566,20.73,18.995,23.419,35.683c3.919,24.354,21.23,29.136,33.002,22.482
			c4.351-2.468,7.943-6.487,9.823-11.672c5.588,8.543,10.154,18.2,13.096,29.174c25.91,96.687-56.848,169.166-135.122,155.257
			c-1.066-12.557-6.015-26.515-16.161-43.713c-10.958-18.587-13.688-36.052-21.541-56.408c-15.987-41.453,6.091-53.445,2.173-86.15
			c-4.021-33.566-14.624-49.187-20.57-55.515c35.246-88.691,14.757-156.284-6.584-195.509c-2.683-4.806-5.093-8.2-7.21-10.499
			c43.873,72.674,15.817,160.136,6.423,188.104c-9.388,27.949-23.637,51.331-41.163,37.579
			c12.662,10.602,33.071,14.757,40.969-2.157c0.951-2.035,1.83-4.044,2.72-6.062c31.203,42.095,9.117,98.672-23.654,122.244
			c-0.616,0.445-1.238,0.877-1.861,1.298c-0.232,0.153-0.456,0.326-0.688,0.479c0,0-0.047,0.122-0.127,0.327
			c-1.166,3.521-2.648,6.905-4.395,10.152c-0.318,0.624-0.629,1.192-0.918,1.674c0,0,3.247-1.213,7.773-3.521
			c0.271-0.137,0.551-0.281,0.83-0.427c3.471-1.809,7.577-4.213,11.556-7.191v0.003c6.039-4.321,11.013-7.666,16.227-2.191
			c0.601,0.632,1.208,1.406,1.814,2.283c-0.011-0.095-0.016-0.189-0.026-0.287c1.809,2.769,3.553,6.32,5.13,10.477
			c0.042,0.11,0.087,0.202,0.129,0.315c0.353,0.911,0.683,1.696,1.009,2.417h-0.158c1.754,5.157,3.229,11.108,4.256,17.613
			c2.286,14.494,2.331,31.709-1.943,48.932c-0.632,2.549-1.359,4.645-2.144,6.409c-0.445,1.001-0.914,1.867-1.399,2.649
			c-4.974,8.009-11.729,4.885-15.945,2.715c-6.059-3.654-6.968-0.521-10.581-4.128c-2.438-2.439-2.428-7.938-1.883-12.594
			c0.408-3.444,1.098-6.401,1.33-7.329c0.05-0.197,0.084-0.335,0.084-0.335s-1.251,3.164-2.241,7.348
			c-0.851,3.593-1.509,7.929-1.014,11.7c0.003,0.037,0.016,0.09,0.019,0.126c0.14,1.595,0.688,4.067,2.586,6.037
			c0.044,0.05,0.076,0.11,0.124,0.16h0.031c1.594,1.566,4.093,2.75,8.006,2.784c0.055,0,0.095,0.013,0.153,0.013
			c2.771,0,5.478,2.757,8.801,5.063c3.887,2.7,8.635,4.78,15.379,1.083c1.767-0.97,3.265-2.207,4.556-3.624
			c1.228-1.349,2.26-2.865,3.134-4.487c0.213-0.4,0.429-0.806,0.624-1.22c2.455-5.158,3.447-11.12,4.051-15.939
			c2.286,1.473,5.833,6.784,8.83,14.41c1.04,2.652,2.005,5.583,2.833,8.717c0.037,0.137,0.068,0.273,0.103,0.408
			c1.552,6.007,2.566,12.756,2.505,19.816c-0.066,7.545-1.374,15.427-4.54,23.103c-0.624,1.509-1.298,3.011-2.067,4.499
			c-1.238,1.877-2.549,3.723-4.01,5.495c-4.33,5.243-8.659,7.453-12.696,7.59c-0.896,0.028-1.775-0.037-2.636-0.2
			c-5.193-0.995-9.747-5.343-12.975-10.854c-3.139-5.354-5.027-11.801-5.027-17.334c0,0-1.011,6.733,0.556,14.123
			c-0.248-0.013-0.482-0.042-0.729-0.062c-20.962-1.688-27.425-14.756-28.868-18.632c1.662,5.496,4.069,9.77,6.86,13.109
			c-0.893,2.788-2.889,10.202-2.431,19.416c0.59,11.766-20.314,9.892-31.375,19.338c-15.587,13.314-38.746,3.141-38.746,3.141
			s3.634,1.917,9.027,3.559c8.703,2.649,22.01,4.559,32.17-3.559c17.452-13.948,35.494-8.455,35.494-19.918
			c0-7.962,1.814-11.844,5.719-14.058c5.986,3.046,11.79,3.721,14.863,3.845c1.48,3.277,3.671,6.354,6.937,8.666
			c12.551,8.891,7.384,18.15,3.953,31.735c-5.162,20.443-8.137,49.841,34.413,59.121c0,0,17.756-26.034,2.354-48.239
			c-1.8-2.597-3.392-4.879-4.848-7c-1.433-2.765-3.126-5.391-5.077-7.811c-6.731-11.405-4.932-16.254,5.807-33.036
			c7.34-11.464,12.606-21.921,14.902-32.876c1.265,0.16,2.513,0.353,3.784,0.479c75.864,7.561,143.186-44.855,150.369-117.066
			C490.71,312.379,464.76,265.422,422.604,239.314z"/>
	</g>
	<path fill="#80757A" d="M300.399,562.582c-8.583-13.561-13.059-10.116-14.226-2.895c-2.226,19.782,2.244,34.487,19.327,41.019
		C319.837,606.188,311.207,579.741,300.399,562.582z"/>
	<path fill="#DCD66F" d="M233.039,158.429c-2.923-8.082-21.691-8.714-41.914-1.415c-20.243,7.297-34.282,19.761-31.369,27.84
		c2.905,8.077,21.676,8.712,41.916,1.412C221.9,178.972,235.943,166.505,233.039,158.429z M196.598,172.193
		c-10.794,3.895-20.301,4.975-21.226,2.412c-0.924-2.568,7.084-7.795,17.884-11.692c10.794-3.887,20.298-4.966,21.223-2.404
		C215.4,163.065,207.397,168.304,196.598,172.193z"/>
</g>
<path fill="#80757A" d="M169.36,342.871c7.951,23.757,9.298,34.599,9.298,34.599s19.235,1.349,38.591-7.405
	c24.681-11.161-10.081-27.193-10.081-27.193"/>
<path fill="#483642" d="M295.394,300.718c16.074-63.137,2.928-93.474,2.928-93.474s-11.35,5.73-23.035,1.462v9.438
	c0,0,0.34,8.203,1.575,9.438c1.235,1.235,8.314,15.956,8.314,15.956s2.141,5.617,2.141,7.416c0,1.799,3.476,18.427,3.476,19.775
	c0,1.349-3.476,9.665-3.476,9.665"/>
<path fill="#483642" d="M318.771,596.573l9.438,5.505c0,0,1.312-15.369-2.041-29.258c-3.352-13.889-6.61-7.932-6.61-7.932"/>
</svg>
