<?xml version="1.0" encoding="utf-8"?>
<!-- Generator: Adobe Illustrator 16.2.1, SVG Export Plug-In . SVG Version: 6.00 Build 0)  -->
<!DOCTYPE svg PUBLIC "-//W3C//DTD SVG 1.1//EN" "http://www.w3.org/Graphics/SVG/1.1/DTD/svg11.dtd">
<svg version="1.1" id="Layer_1" xmlns="http://www.w3.org/2000/svg" xmlns:xlink="http://www.w3.org/1999/xlink" x="0px" y="0px"
	 width="612px" height="612px" viewBox="0 0 612 612" enable-background="new 0 0 612 612" xml:space="preserve">
<path fill="#483643" d="M348.957,445.019l-64.472-27.452l-64.478,27.452c0,0-41.493,2.456-41.493,49.792
	c0,31.921,38.302,77.245,105.97,77.245c67.667,0,105.965-45.324,105.965-77.245C390.45,447.475,348.957,445.019,348.957,445.019z"/>
<path fill="#483643" d="M364.485,408.993l-62.385,42.004c10.746,49.806,37.612,77.813,37.612,77.813l6.564-7.103l7.614,3.49
	C375.787,472.431,364.485,408.993,364.485,408.993z"/>
<path fill="#483643" d="M211.233,405.73l60.009,45.329c-13.43,49.143-41.788,75.653-41.788,75.653l-6.162-7.443l-7.793,3.079
	C196.499,468.465,211.233,405.73,211.233,405.73z"/>
<path fill="#483643" d="M394.932,184.654c-2.223,3.271-6.449,5.284-10.948,2.94c-9.716-5.06-17.724-12.521-26.816-18.517
	c-1.241-0.815-2.119-1.811-2.738-2.886c-0.447,0.071-0.869,0.188-1.371,0.188c-22.908-0.058-43.805-9.55-66.386-10.849
	c-25.046-1.438-48.994,2.339-73.583,6.722c-26.341,4.697-50.173,11.468-64.074,36.72c-4.414,8.03-8.828,16.034-13.328,23.998
	c-16.975,55.416,9.241,129.864,57.675,186.629c81.717,95.757,123.312,73.09,190.17,1.272
	C444.293,345.605,456.567,241.146,394.932,184.654z"/>
<path fill="#80757A" d="M411.153,285.107c0-56.178-37.598-81.713-37.598-81.713l-9.339-39.547
	c-23.522-11.652-53.149-18.544-89.672-18.544c-183.855,0-181.108,162.551-93.207,265.568c21.99,25.763,41.941,41.286,60.664,49.361
	c11.661,5.028,26.355,11.737,33.745,11.737c7.287,0,22.093-7.139,32.91-11.159C390.987,422.41,411.153,341.245,411.153,285.107z"/>
<g>
	<path fill="#483642" d="M330.92,407.349c4.97,5.404,13.884,5.337,19.889-0.175c6.009-5.498,6.838-14.349,1.864-19.744
		c-4.961-5.409-13.853-5.319-19.857,0.192C326.802,393.125,325.955,401.953,330.92,407.349z"/>
	<path fill="#FFFFFF" d="M345.314,405.278c-2.106,1.927-5.392,1.797-7.332-0.318c-1.936-2.106-1.801-5.399,0.305-7.327
		c2.111-1.931,5.396-1.792,7.336,0.327C347.563,400.066,347.425,403.347,345.314,405.278z"/>
</g>
<g>
	<path fill="#483642" d="M230.574,387.617c-6.005-5.507-14.892-5.597-19.861-0.192c-4.965,5.396-4.136,14.241,1.869,19.745
		c6.005,5.512,14.923,5.579,19.888,0.174C237.435,401.944,236.588,393.12,230.574,387.617z"/>
	<path fill="#FFFFFF" d="M218.081,405.278c2.106,1.927,5.386,1.797,7.322-0.318c1.945-2.106,1.806-5.399-0.305-7.327
		c-2.097-1.931-5.391-1.792-7.332,0.327C215.822,400.066,215.97,403.347,218.081,405.278z"/>
</g>
<path fill="#80757A" d="M311.032,480.386c12.292,31.248,28.681,48.425,28.681,48.425s8.738-25.477,3.128-68
	C325.22,474.47,311.265,480.287,311.032,480.386z"/>
<g>
	<path fill="#80757A" d="M207.415,429.841c-2.532,23.195-3.554,59.498,8.084,92.508l7.793-3.079l6.162,7.443
		c0,0,10.455-9.822,21.667-28.487C227.039,478.342,213.29,446.426,207.415,429.841z"/>
</g>
<path fill="#483643" d="M439.548,514.703c-33.539,41.291-71.604,65.845-85.052,54.856c-13.439-10.984,2.868-53.359,36.389-94.65
	c33.543-41.277,85.069-54.847,85.069-54.847S473.099,473.422,439.548,514.703z"/>
<path fill="#483643" d="M131.819,514.699c33.543,41.291,71.603,65.844,85.056,54.855c13.435-10.988-2.873-53.359-36.393-94.65
	c-33.538-41.277-85.069-54.847-85.069-54.847S98.268,473.412,131.819,514.699z"/>
<g>
	<path fill="#A6808E" d="M121.082,499.507c-0.224-0.381-0.461-0.721-0.69-1.115C120.621,498.768,120.854,499.135,121.082,499.507z"
		/>
	<path fill="#A6808E" d="M121.082,499.507c4.683,8.058,9.711,14.73,14.882,20.131c-1.38-1.632-2.778-3.249-4.145-4.938
		C127.817,509.773,124.259,504.67,121.082,499.507z"/>
</g>
<path fill="#80757A" d="M178.515,476.836c0,0,6.238-23.303,29.326-29.899l3.72,24.154c0,0-18.306,2.241-21.712,19.79"/>
<path fill="#80757A" d="M197.923,503.491c-2.76-8.685-8.792-18.481-17.298-28.771l2.63,0.838
	c-34.932-45.727-87.843-55.501-87.843-55.501l48.779,50.796l-33.458-19.946c0.044,0.13,0.094,0.265,0.134,0.398
	c1.138,3.442,10.375,29.936,34.089,55.959c25.396,27.878,49.012,45.553,55.255,30.481
	C203.346,529.657,201.329,515.572,197.923,503.491z"/>
<path fill="#483643" d="M537.393,313.272c-3.988-7.184-8.568-14.125-13.753-20.704c-9.541-11.857-19.068-14.905-14.582-4.849h-0.01
	c5.965,12.745,9.546,28.972,3.24,46.185c-9.214,25.131,4.639,38.84,19.314,38.781c3.24-0.018,6.489-0.784,9.567-2.16
	c1.009,15.174,0.758,57.984-28.998,91.522c-1.224,1.354-2.456,2.702-3.729,3.993c-0.157,0.161-0.313,0.322-0.471,0.479
	c-1.483,1.483-2.998,2.908-4.535,4.307c-0.354,0.313-0.677,0.636-1.035,0.949c-0.09,0.081-0.17,0.144-0.255,0.225
	c-22.56,19.982-50.806,30.746-79.352,32.498c-4.544,5.996-8.877,12.127-13.081,18.347c47.273,1.793,93.521-18.731,121.69-59.006
	C563.089,418.543,563.438,360.34,537.393,313.272z"/>
<path fill="#80757A" d="M439.673,466.225c0,0,1.757-1,4.464-2.711c9.105-5.925,29.28-21.363,31.817-43.451
	c0,0-87.659,18.427-121.552,115.376c0,0,30.58-64.562,102.08-96.479L439.673,466.225z"/>
<path fill="#483643" d="M339.829,201.732c31.109,38.692,73.242,41.031,73.242,41.031l3.191-17.446c0,0-2.231-10.957-4.042-12.768
	c-1.811-1.81-6.808-8.514-6.808-8.514"/>
<path fill="#DFDFC9" d="M348.316,204.524c12.145,6.314,24.773,10.953,37.881,4.289c10.737-5.462,21.031-12.512,23.594-25.185
	c2.461-12.18,2.125-23.366,4.464-34.551c-0.771-5.965-1.918-11.575-3.334-16.68c-1.483-5.046-3.289-9.048-5.338-11.898
	c-7.658-9.429-15.505-1.837-25.377,10.231l-0.031,0.014c-12.387,16.912-28.766,30.728-39.539,38.871
	c-0.081,0.067-0.157,0.125-0.247,0.188c-0.331,0.251-0.641,0.479-0.959,0.717c-7.049,5.378-10.643,11.284-4.082,24.378
	c1.847,3.393,4.056,6.354,6.436,9.057C343.736,203.274,345.986,203.314,348.316,204.524z"/>
<path fill="#DCD66F" d="M279.277,58.827c-38.907,0.081-70.375,13.054-70.321,28.954c0.044,15.9,31.616,28.726,70.514,28.636
	c38.867-0.089,70.352-13.063,70.316-28.949C349.71,71.536,318.135,58.724,279.277,58.827z M279.367,88.713
	c-20.74,0.045-37.581-4.001-37.599-9.043c-0.013-5.055,16.787-9.182,37.549-9.227c20.735-0.045,37.567,4.011,37.593,9.061
	C316.93,84.541,300.125,88.668,279.367,88.713z"/>
<g>
	<path fill="#483643" d="M335.348,194.898c17.078,35.949,64.396,33.045,73.893,7.381c9.993-27.018,6.785-51.5,1.681-69.882
		c-1.483-5.046-3.289-9.048-5.338-11.898c-1.931-2.379-3.876-3.675-5.865-4.083l0,0c18.776,6.866,3.137,67.511-16.976,83.151
		c-20.067,15.608-54.278-5.409-50.361-20.009C331.319,183.39,331.986,188.194,335.348,194.898z"/>
</g>
<g>
	<path fill="none" d="M159.635,119.719c-0.031,0-0.049-0.009-0.081-0.009c0.036,0.004,0.072,0.009,0.072,0.009H159.635z"/>
	<path fill="none" d="M161.051,119.943c0.511,0.125,1.018,0.3,1.537,0.52C162.082,120.235,161.571,120.06,161.051,119.943z"/>
	<path fill="#DFDFC9" d="M213.585,190.533c-0.291-8.438-6.87-15.138-16.29-23.518c-18.405-16.393-24.997-42.088-34.708-46.552
		c-0.52-0.22-1.026-0.395-1.537-0.52c-0.457-0.099-0.914-0.22-1.384-0.22c0,0-0.076-0.009-0.112-0.013
		c-0.188,0-0.318-0.031-0.493-0.041c-2.474,0.018-4.867,1.304-7.247,4.23c-2.057,2.854-3.854,6.852-5.346,11.902
		c-5.1,18.378-7.287,42.855,2.711,69.877c4.369,11.817,16.415,18.006,29.863,18.154
		C197.538,223.319,214.159,207.096,213.585,190.533z"/>
	<path fill="#D9D9D8" d="M159.062,119.67c0.175,0.009,0.305,0.041,0.493,0.041C159.389,119.706,159.223,119.67,159.062,119.67z"/>
	<path opacity="0.44" fill="#6E5766" d="M159.062,119.67c0.175,0.009,0.305,0.041,0.493,0.041
		C159.389,119.706,159.223,119.67,159.062,119.67z"/>
	<path fill="#D9D9D8" d="M159.667,119.724c0.47,0,0.927,0.121,1.384,0.22C160.585,119.827,160.124,119.76,159.667,119.724z"/>
	<path opacity="0.44" fill="#6E5766" d="M159.667,119.724c0.47,0,0.927,0.121,1.384,0.22
		C160.585,119.827,160.124,119.76,159.667,119.724z"/>
</g>
<path fill="#483643" d="M217.968,173.921c-0.323-0.237-0.632-0.47-0.963-0.717c-0.09-0.059-0.166-0.121-0.247-0.184v-0.009
	c-10.777-8.138-27.148-21.949-39.539-38.871l-0.031-0.009c-5.369-6.561-10.142-11.768-14.601-13.668
	c6.74,3.097,11.979,16.401,20.695,29.733l-0.013-0.004c7.224,10.876,13.207,21.053,17.253,30.164
	c9.662,23.984-15.685,48.681-40.713,38.212c0,0,16.334,12.49,40.955,0.255c0.448-0.224,0.807-0.461,1.228-0.69
	c0.601-0.318,1.188-0.654,1.775-0.995c0.959-0.564,1.837-1.143,2.667-1.725c6.121-4.136,11.598-9.747,15.608-17.11
	C228.611,185.201,225.013,179.303,217.968,173.921z"/>
<path fill="#483643" d="M402.335,224.744c0,0,0.591-0.385-12.028-5.163c-12.619-4.777-28.295-9.751-33.077-11.853
	c-4.781-2.102-6.313-2.294-7.075-3.061c-0.762-0.767-5.36-2.936-5.36-2.936l-8.541-5.032c11.799,23.648,47.9,43.222,66.082,44.333
	C420.511,242.145,402.335,224.744,402.335,224.744z"/>
</svg>
