<?xml version="1.0" encoding="utf-8"?>
<!-- Generator: Adobe Illustrator 16.2.1, SVG Export Plug-In . SVG Version: 6.00 Build 0)  -->
<!DOCTYPE svg PUBLIC "-//W3C//DTD SVG 1.1//EN" "http://www.w3.org/Graphics/SVG/1.1/DTD/svg11.dtd">
<svg version="1.1" id="Layer_1" xmlns="http://www.w3.org/2000/svg" xmlns:xlink="http://www.w3.org/1999/xlink" x="0px" y="0px"
	 width="612px" height="612px" viewBox="0 0 612 612" enable-background="new 0 0 612 612" xml:space="preserve">
<path fill="#A6808E" d="M288.941,422.283c58.63,39.778,149.357,22.781,179.88-79.17c0.58-1.938,1.056-3.865,1.494-5.782
	c0.029-0.127,0.058-0.253,0.084-0.378l1.701-9.534c-5.303,5.559-14.079,8.101-23.764,3.092c-0.898-0.465-1.801-0.969-2.709-1.565
	c-28.884-18.955,7.256-50.426,0.338-81.887c-0.821-3.794-1.96-7.388-3.279-10.723l0,0c-3.549-9.445,4.821-6.588,12.79,4.557
	c4.338,6.176,8.111,12.698,11.327,19.436c17.326,36.231,18.498,79.471,1.737,117.326l0.198-0.198
	c-40.855,102.487-156.782,98.276-156.782,98.276l-5.505-15.209c-12.273-2.817-24.043-7.583-34.864-14.49
	C274.334,440.993,285.965,427.197,288.941,422.283z"/>
<path fill="#483642" d="M354.761,391.6c-17.469-50.273-52.396-108.682-23.193-144.908l-25.876-7.393l-101.288-15.156
	c0,0-18.855,36.226-8.502,62.226c0,0,15.552-21.234,56.425-5.307c39.208,15.277,21.765,60.265,4.296,110.538
	c-17.474,50.273-38.74,120.508,49.069,120.508C381.841,512.107,372.229,441.873,354.761,391.6z"/>
<path fill="#483642" d="M457.312,474.154c14.633-21.16,10.351-53.23-27.106-71.465c-37.46-18.235-80.028-42.35-94.381-88.163
	l-17.998,10.783c0,0,8.63,35.238,34.009,60.623c25.385,25.385,48.753,48.603,45.455,66.538
	c-3.805,20.698,10.733,21.684,10.733,21.684s-3.016-4.864,2.218-10.103c0,0,11.707,5.915,4.436,20.455
	c0,0,17.004,1.973,24.397-9.117c0,0-2.892,2.033-9.424,3.388C429.65,478.777,446.53,489.743,457.312,474.154z"/>
<path fill="#483642" d="M335.824,314.526c-4.996-18.853-20.152-13.493-20.152-13.493l-6.469,12.383c0,0,13.397,32.989,14.972,34.562
	c1.568,1.568,4.805,2.033,6.284,3.512"/>
<g>
	<path fill="#483642" d="M149.01,474.151c-14.633-21.16-10.351-53.233,27.106-71.468c37.457-18.234,80.028-42.347,94.378-88.163
		l17.997,10.783c0,0-8.626,35.239-34.009,60.624c-25.385,25.388-48.752,48.604-45.457,66.541
		c3.808,20.698-10.73,21.683-10.73,21.683s3.015-4.863-2.218-10.103c0,0-11.708,5.915-4.436,20.456c0,0-17.004,1.972-24.397-9.118
		c0,0,2.894,2.033,9.426,3.388C176.671,478.774,159.788,489.74,149.01,474.151z"/>
</g>
<path fill="#483642" d="M414.74,585.057c0,0-18.304,3.01-34.911-22.649l-0.011,0.002c-7.256-10.822-15.479-18.865-32.234-26.89
	c-7.857-3.763-5.399-8.816-1.816-12.481c26.05,4.491,44.137-24.637,39.4-60.465c-4.268-32.25-29.942-46.576-29.942-46.576
	l-37.399,90.565c3.47,3.472,6.895,6.326,10.256,8.679c2.107,6.78,3.85,15.721,0.032,19.539
	c-13.751,13.754-0.914,35.326,20.088,48.671c35.487,22.549,66.538,19.592,66.538,19.592s-6.633-3.182-14.216-10.633
	C410.431,590.762,414.74,585.057,414.74,585.057z"/>
<path fill="#483642" d="M193.623,585.054c0,0,18.3,3.013,34.911-22.646l0.005,0.002c7.261-10.822,15.483-18.865,32.237-26.89
	c7.86-3.763,5.399-8.816,1.816-12.481c-26.047,4.491-44.14-24.637-39.397-60.465c4.267-32.25,29.942-46.576,29.942-46.576
	l37.398,90.565c-3.469,3.472-3.295-0.57-6.654,1.779c-9.983,8.568-7.451,22.62-3.633,26.438
	c13.751,13.754,0.914,35.326-20.088,48.671c-35.487,22.549-59.824,19.718-59.824,19.718s-0.084-3.308,7.501-10.759
	C197.932,590.76,193.623,585.054,193.623,585.054z"/>
<g>
	<path fill="none" d="M470.399,336.951l1.701-9.535C471.678,330.562,471.118,333.743,470.399,336.951z"/>
	<path fill="#483642" d="M288.941,422.281c58.63,39.777,149.357,22.781,179.88-79.17c0.58-1.938,1.056-3.866,1.494-5.783
		l0.016-0.005l0.068-0.372c0.719-3.208,1.278-6.39,1.701-9.535c4.533-39.247-14.422-69.141-14.422-69.141
		s11.071,47.503-9.342,72.231c-0.898-0.465-1.801-0.967-2.709-1.563c-28.884-18.958,7.256-50.426,0.338-81.887
		c-0.821-3.794-1.96-7.385-3.279-10.723l0,0c-3.549-9.447,4.821-6.588,12.79,4.558c4.338,6.173,8.111,12.695,11.327,19.436
		c17.326,36.229,18.498,79.47,1.737,117.326l0.198-0.197c-40.855,102.486-156.782,98.275-156.782,98.275l-5.505-15.209
		c-12.273-2.817-24.043-7.583-34.864-14.49C274.334,440.99,285.965,427.194,288.941,422.281z"/>
	<path fill="#A6808E" d="M470.331,337.323l-0.016,0.005c0.029-0.126,0.058-0.253,0.084-0.377L470.331,337.323z"/>
</g>
<path fill="#483642" d="M221.043,475.754c0,25.14,10.95,42.202,28.823,46.732l12.698-5.573l11.335-12.754
	c0,0-8.621,6.346-24.395,6.346C223.258,510.505,221.043,475.754,221.043,475.754z"/>
<path fill="#483642" d="M270.96,531.168c-1.268-5.537-8.368-8.13-8.368-8.13s2.786,3.406-0.621,8.186
	c0.042-0.05,0.079-0.082,0.124-0.138C264.364,528.145,268.42,523.931,270.96,531.168z"/>
<path fill="#BBB9A1" d="M246.713,150.092c-2.186-3.398-7.047-6.247-13.669-9.083l-0.023-0.013c-1.141-0.425-2.311-0.876-3.517-1.357
	c-25.673-10.327-66.641-34.978-86.148-90.571l-0.04-0.013c-5.093-12.117-11.24-13.962-9.917,2.236
	c3.499,37.129,19.51,90.474,78.169,122.982c9.479,4.436,24.371-1.695,32.678-11.757C248.408,157.47,248.917,153.504,246.713,150.092
	z"/>
<path fill="#80757A" d="M349.062,84.898c-12.938,45.837-118.414,28.717-157.23,100.061c-33.586,61.732,4.069,101.41,4.069,101.41
	s7.259-27.6,39.419-24.643c32.163,2.957,76.743,18.781,115.1-25.015C429.162,146.802,349.062,84.898,349.062,84.898z"/>
<path fill="#DCD66F" d="M304.952,60.205c-1.869-7.667-18.932-10.083-38.101-5.416c-19.19,4.674-33.227,14.665-31.362,22.322
	c1.859,7.662,18.921,10.078,38.111,5.407C292.775,77.854,306.814,67.854,304.952,60.205z M270.35,69.183
	c-10.229,2.487-19.013,2.545-19.605,0.111c-0.594-2.429,7.229-6.411,17.464-8.911c10.239-2.485,19.011-2.538,19.605-0.108
	C288.402,62.698,280.586,66.693,270.35,69.183z"/>
<g>
	<path fill="none" d="M168.272,22.735c0.478,1.399,0.974,2.783,1.481,4.151C169.259,25.502,168.745,24.137,168.272,22.735z"/>
	<path fill="#DFDFC9" d="M256.681,134.025c-34.413-13.955-67.526-52.895-86.928-107.139c-0.507-1.368-1.003-2.751-1.481-4.151
		c-0.146-0.417-0.298-0.816-0.441-1.236l0.005-0.053c-0.277-0.813-0.565-1.608-0.834-2.435l-0.037-0.016
		c-5.523-14.142-12.552-16.487-11.491,2.226c2.95,42.896,19.856,104.917,86.492,144.436c2.566,1.291,5.511,1.888,8.629,1.925
		C268.246,167.324,291.985,148.344,256.681,134.025z"/>
	<path fill="#483642" d="M279.956,153.258c4.948-5.667,5.648-10.216,3.208-14.229c-2.424-3.984-7.942-7.441-15.483-10.942
		l-0.034-0.016c-1.299-0.528-2.632-1.09-4.008-1.689c-28.06-12.268-71.911-40.208-93.885-99.496
		c19.402,54.244,52.515,93.185,86.928,107.139c35.305,14.319,11.565,33.298-6.086,33.557
		C260.588,167.699,272.438,161.871,279.956,153.258z"/>
	<path fill="#DFDFC9" d="M168.272,22.735c-0.148-0.428-0.293-0.855-0.436-1.289l-0.005,0.053
		C167.974,21.919,168.126,22.318,168.272,22.735z"/>
</g>
<path fill="#483642" d="M349.062,84.898c0,0,60.376,40.3,26.863,120.64c-13.37,32.057-38.31,55.808-58.901,64.317
	c-31.015,12.822-56.975-0.008-56.975-0.008s71.016,8.703,106.946-64.803C404.715,127.879,349.062,84.898,349.062,84.898z"/>
<path fill="#483642" d="M232.437,261.539c56.161,6.418,120.745-3.765,143.188-78.515c0,0-3.918,58.073-64.077,84.773l-30.069,9.125
	c0,0-5.756,0.982-17.247-1.368c-11.491-2.35-24.302-5.054-24.302-5.054"/>
<polygon fill="#A6808E" points="285.609,511.12 285.601,511.104 285.609,511.12 "/>
<g>
	<path fill="#80757A" d="M457.679,258.275c0,0,11.071,47.503-9.342,72.231c9.685,5.012,18.461,2.466,23.764-3.09
		C476.634,288.169,457.679,258.275,457.679,258.275z"/>
	<path fill="#80757A" d="M329.534,537.983c0,0-23.474,24.027,45.652,55.448C375.187,593.432,329.534,562.195,329.534,537.983z"/>
	<path fill="#80757A" d="M270.384,536.505c0.85-2.022,0.927-3.787,0.576-5.337c-2.54-7.237-6.596-3.023-8.864-0.082
		c-0.045,0.056-0.082,0.088-0.124,0.138c-1.716,2.403-4.969,5.148-10.992,7.992c-22.721,10.739-21.81,23.043-38.199,37.827
		c-10.789,9.732-21.224,6.777-21.224,6.777c3.971,7.394,13.123,8.965,13.123,8.965c-4.203,6.099-4.343,10.384-4.343,10.384
		s30.312-1.42,61.545-28.22C284.732,555.347,266.505,545.746,270.384,536.505z"/>
	<path fill="#80757A" d="M262.014,424.118c1.534-16.975,5.492-35.402,10.955-54.02h-0.013c0.567-2.083,1.093-4.093,1.608-6.092
		l0.002,0.034c7.398-24.722,21.068-48.221,37.398-36.836c0.455,0.33,0.903,0.66,1.355,1.03c0.049,0.039,0.098,0.076,0.15,0.116
		c0.58,0.482,1.161,1.011,1.742,1.558c0.104,0.098,0.203,0.182,0.307,0.282c6.608,6.393,12.911,17.004,17.923,31.695
		c0,0-5.529-37.306-26.156-47.36c-12.008-5.852-20.077,5.175-32.81-15.848l-0.005,0.035c-2.466-3.821-5.667-7.259-9.728-10.348
		c0,0,10.372,9.405,5.444,26.579c-0.063,0.195-0.137,0.406-0.2,0.612c-0.256,0.837-0.544,1.69-0.874,2.562
		c-2.29,6.506-6.121,15.198-15.18,27.032c-16.88,22.056-42.511,38.688-67.769,51.01c-25.258,12.323-46.455,25.631-46.455,54.218
		c0,28.588,19.842,36.29,32.778,31.912c0,0,7.639,7.763,19.153,2.216c0,0-16.196-8.627-3.137-30.558c0,0,19.085,6.519,9.791,20.204
		c0,0,8.695,0.317,11.222-10.097s-15.034-24.402,5.328-51.509c17.665-23.513,41.391-39.754,54.097-64.978
		c-6.348,21.139-17.11,56.589-22.029,70.461c0,0-25.878,15.711-25.878,57.112c0,6.617,0.829,12.054,2.278,16.497
		c0.014,0.032,0.014,0.071,0.029,0.108c0.021,0.066,0.053,0.14,0.079,0.206c0.787,2.329,1.753,4.38,2.868,6.165
		c3.908,6.963,10.892,14.731,23.727,17.664c1.059,0.23,2.091,0.441,3.037,0.6c0.177,0.026,0.351,0.045,0.528,0.071
		c0.834,0.13,1.632,0.232,2.382,0.307c0.333,0.031,0.655,0.05,0.982,0.079c13.311,0.932,11.583-7.356,8.249-14.422
		c-0.023-0.059-0.031-0.09-0.058-0.14c-1.893-3.564-3.448-7.087-4.721-10.38c-0.032-0.082-0.063-0.169-0.095-0.248
		c-3.118-8.122-4.499-14.744-4.895-16.878c-0.005-0.115,0.005-0.248,0-0.366c1.251,3.514,11.612,31.064,30.177,36.698
		c17.466,4.607,36.794-0.306,36.794-0.306C280.333,515.381,258.767,474.904,262.014,424.118z"/>
	<path fill="#80757A" d="M349.269,430.419c0,0,3.739,71.093-26.874,80.379c0,0,2.345,2.957,5.688,4.443
		C359.661,496.582,349.269,430.419,349.269,430.419z"/>
</g>
<path fill="#483642" d="M254.18,212.263c-3.25-2.791-8.547-1.867-11.805,2.065c-3.261,3.9-3.258,9.374-0.011,12.159
	c3.253,2.801,8.544,1.845,11.792-2.057C257.425,220.509,257.452,215.049,254.18,212.263z"/>
<path fill="#FFFFFF" d="M252.688,215.157c-1.272-1.088-3.3-0.763-4.531,0.724c-1.22,1.481-1.167,3.58,0.095,4.668
	c1.267,1.093,3.303,0.752,4.525-0.726C253.995,218.331,253.966,216.24,252.688,215.157z"/>
</svg>
