<?xml version="1.0" encoding="utf-8"?>
<!-- Generator: Adobe Illustrator 16.2.1, SVG Export Plug-In . SVG Version: 6.00 Build 0)  -->
<!DOCTYPE svg PUBLIC "-//W3C//DTD SVG 1.1//EN" "http://www.w3.org/Graphics/SVG/1.1/DTD/svg11.dtd">
<svg version="1.1" id="Layer_1" xmlns="http://www.w3.org/2000/svg" xmlns:xlink="http://www.w3.org/1999/xlink" x="0px" y="0px"
	 width="612px" height="612px" viewBox="0 0 612 612" enable-background="new 0 0 612 612" xml:space="preserve">
<path fill="#483643" d="M353.484,196.909c-70.922-33.835-71.734-88.243-71.734-88.243c-0.049,2.959-0.279,5.828-0.643,8.642
	c0.783,12.609-41.968,127.592,1.456,154.302c57.592,35.442,47.154-10.51,40.598,50.817c-7.059,66.118,26.904,118.604-52.121,114.098
	c-75.738-4.324-132.256-60.115-131.352-131.825c-3.627,12.391-5.731,25.957-5.731,41.083c0,95.818,79.577,164.029,177.839,159.159
	c96.789-4.797,151.852-75.319,151.852-156.728C463.646,272.695,428.203,232.546,353.484,196.909z"/>
<path fill="#80757A" d="M395.927,240.897c-45.201-51.442-97.128-45.359-114.177-132.231
	c-9.182,72.493-116.093,107.426-142.062,196.034c-2.547,7.744-3.979,15.61-4.482,23.471l-0.255,0.104
	c-10.244,116.159,115.614,176.917,212.59,134.021C429.677,425.972,462.979,317.229,395.927,240.897z"/>
<path fill="#2C2226" d="M241.771,408.65c0.449,7.689-5.658,14.288-13.604,14.743c-7.945,0.443-14.75-5.416-15.186-13.105
	c-0.437-7.685,5.646-14.289,13.603-14.731C234.541,395.102,241.346,400.96,241.771,408.65z"/>
<path fill="#FFFFFF" d="M234.565,405.721c0.182,2.996-2.213,5.567-5.301,5.743c-3.093,0.183-5.755-2.11-5.913-5.106
	c-0.182-2.996,2.202-5.562,5.283-5.737C231.745,400.444,234.408,402.725,234.565,405.721z"/>
<path fill="#2C2226" d="M347.523,393.87c0.437,7.69-5.665,14.282-13.616,14.743c-7.951,0.443-14.749-5.422-15.192-13.111
	c-0.437-7.685,5.658-14.283,13.616-14.726C340.281,380.315,347.08,386.18,347.523,393.87z"/>
<path fill="#FFFFFF" d="M340.312,390.94c0.158,2.996-2.207,5.568-5.307,5.744c-3.099,0.182-5.749-2.117-5.907-5.113
	c-0.182-2.996,2.202-5.555,5.289-5.731C337.479,385.664,340.13,387.945,340.312,390.94z"/>
</svg>
