<?xml version="1.0" encoding="UTF-8" standalone="yes"?>

<svg
   xmlns:xlink="http://www.w3.org/1999/xlink"
   xmlns:rdf="http://www.w3.org/1999/02/22-rdf-syntax-ns#"
   xmlns:dc="http://purl.org/dc/elements/1.1/"
   xmlns:svg="http://www.w3.org/2000/svg"
   xmlns:cc="http://creativecommons.org/ns#"
   xmlns="http://www.w3.org/2000/svg"
   version="1.1"
   width="600"
   height="640">

  <metadata>
    <rdf:RDF>
      <cc:Work rdf:about="http://apacheco.itch.edu.mx">
        <dc:title>Black Panther</dc:title>
        <dc:creator>Elisabet Gonzalez</dc:creator>
        <dc:creator>Alberto Pacheco</dc:creator>
        <dc:type rdf:resource="http://purl.org/dc/dcmitype/Image" />
        <dc:format>image/svg+xml</dc:format>
        <dc:rights rdf:resource="http://creativecommons.org/licenses/by-sa/4.0/" />
        <dc:date>2015-04-09</dc:date>
      </cc:Work>
      <cc:License rdf:about="http://creativecommons.org/licenses/by-sa/4.0/">
        <cc:permits rdf:resource="http://creativecommons.org/ns#Reproduction" />
        <cc:permits rdf:resource="http://creativecommons.org/ns#Distribution" />
        <cc:requires rdf:resource="http://creativecommons.org/ns#Notice" />
        <cc:requires rdf:resource="http://creativecommons.org/ns#Attribution" />
        <cc:permits rdf:resource="http://creativecommons.org/ns#DerivativeWorks" />
        <cc:requires rdf:resource="http://creativecommons.org/ns#ShareAlike" />
      </cc:License>
    </rdf:RDF>
  </metadata>

  <defs>
  </defs>

  <g id="puppet"
     transform="translate(-5,-50)"
     style="stroke-width:1; stroke:#000; fill:#000; stroke-linecap:round; stroke-linejoin:round; stroke-miterlimit:0.5;">

  <g id="m0"> <!-- BEGIN: TRUNK + ARMS -->
    <circle id="pivot_m0"
      cx="260"
      cy="480"
      r="0"/>  

  <!-- cola reemplaza centro-cadera -->
    <g id="m5">
      <circle id="pivot_m5"
      cx="314"
      cy="490"
      r="0" />
      <path id="Cola" d="M314,484 c2.859,0.571,5.721,10.011,47.475,12.87c41.758,2.858,138.711-41.187,164.451-70.072
              c25.74-28.885,65.207-28.885,76.025-0.973c13.205,41.586-10.248,45.305-28.836,47.878c-18.59,2.574-45.76-21.164-45.76-21.164
              s-92.379,65.208-165.594,58.917c-32.891-4.863-43.182-8.581-43.182-8.581S311.055,483.178,313.916,483.749z" />
    </g>

    <!-- g id="m5" --> <!-- BEGIN: HIP + LEGS -->
      <g id="m6"> <!-- left leg -->
        <circle id="pivot_m6"
            cx="167"
            cy="497"
            r="0" />
        <g id="left_thigh">
          <path id="Muslo_Izq"
                d="M174.777,585.574c-1.81,0.794-70.473-23.901-72.514-25.67c-2.04-1.768,18.873-68.168,29.297-70.711
                  c10.422-2.544,63.792,19.488,67.78,23.883C203.326,517.469,176.587,584.78,174.777,585.574z"/>
          <g id="m7"> <!-- left shin -->
            <circle id="pivot_m7"
                cx="140"
                cy="565"
                r="0" />
            <path id="Pierna_Izq"
                  d="M104.092,554.67c-5.02,3.01-12.112,67.427-16.116,75.503c-2.048,4.131,17.832-24.595-36.248-7.749
                    c-30.757,9.583-65.567,52.938,25.952,65.522c45.465,6.252,62.919-8.009,62.919-8.009s36.18-96.103,35.323-97.813
                    C175.063,580.417,110.574,550.783,104.092,554.67z"/>
          </g> <!-- shin -->
        </g> <!-- thigh -->
      </g> <!-- leg -->
      <g id="m8"> <!-- right leg -->
        <circle id="pivot_m8"
          cx="273"
          cy="498"
          r="0" />
        <g id="right_thigh">
          <path id="Muslo_Der" d="M236.982,516.352c-2.574,8.576,25.308,74.929,29.385,77.216c4.077,2.287,64.137-27.457,67.568-32.032
                  s-15.445-65.779-21.736-70.928C305.908,485.46,239.556,507.774,236.982,516.352z"/>
          <g id="m9"> <!-- right shin -->
            <circle id="pivot_m9"
              cx="295"
              cy="565"
              r="0" />
            <path id="Pierna_Der" d="M258.432,577.127c0,0,20.163,67.782,43.758,99.099c8.431,11.19,30.439,15.932,75.478,11.159
                    c36.492-3.866,37.35-27.89,23.621-50.627c-16.266-26.939-50.434-14.833-50.434-14.833l-17.564-69.68L258.432,577.127z"/>
          </g> <!-- shin -->
        </g> <!-- thigh -->
      </g> <!-- leg -->
      <g id="hip">
        <path id="Short" fill="#133787"
              d="M220.68,414.535c-40.611-2.86-69.894,16.588-69.894,16.588s-4.464,7.41-13.618,22.867
                s-14.73,33.689-14.73,33.689s20.912,9.012,36.465,17.375c15.552,8.363,38.418,21.446,44.044,23.308
                c4.003-0.57,17.731-28.026,17.731-28.026s2.098,1.18,6.775,13.851c3.307,14.034,2.304,17.752,4.2,19.325
                c1.895,1.573,47.005-14.876,47.005-14.876s38.545-14.868,41.547-14.868c3.004,0-13.486-38.194-13.486-38.194
                s-9.25-30.445-13.969-33.878C288.033,428.264,261.291,417.396,220.68,414.535z"/>
        <line id="Short_Raya_Der" fill="none" stroke="#FFFFFF" stroke-width="4" stroke-miterlimit="10" x1="170.192" y1="431.334" x2="138.741" y2="495.04"/>
        <line id="Short_Raya_Izq" fill="none" stroke="#FFFFFF" stroke-width="4" stroke-miterlimit="10" x1="163.336" y1="430.838" x2="131.561" y2="491.733"/>
      </g>
    <!-- /g --> <!-- END: HIP + LEGS -->
    

      <g id="chest">
        <path id="Camiseta" fill="#0D1247"
              d="M226.686,251.945c-37.412-1.086-63.063,3.861-75.718,7.293
                c-12.656,3.432-41.184,25.74-43.543,30.459c-2.36,4.719,25.74,37.538,27.67,37.323c1.93-0.214,18.232-20.162,18.232-20.162
                c-8.722,26.455-4.075,124.624-4.075,124.624l145.859,2.789c0,0,5.363-122.265,2.36-127.628c-3.003-5.362,10.939,19.09,14.585,18.447
                c3.646-0.645,32.453-26.528,31.531-27.67c-0.92-1.143-27.229-34.172-36.25-35.822C298.543,257.522,264.098,253.031,226.686,251.945z"/>
      </g>

      <g id="m1"> <!-- left arm (hombro) -->
          <circle id="pivot_m1"
                  cx="130"
                  cy="300"
                  r="0" />
          <g id="left_arm">
              <path id="Brazo_Izq"
                    d="M120.581,294.12c-8.008-5.148-47.654,58.038-47.083,62.042c0.571,4.004,39.646,9.186,44.793,5.754
                  c5.148-3.433,20.594-41.185,22.881-49.192C143.46,304.715,128.589,299.268,120.581,294.12z"/>
              <g id="m2"> <!-- left forearm (codo) -->
                  <circle id="pivot_m2"
                          cx="100"
                          cy="355"
                          r="0" />
                  <g id="left_forearm">
                      <path id="Antebrazo_Izq"
                            d="M73.104,354.479c-7.437,10.296,32.032,54.339,29.172,56.628c-2.859,2.288-19.447-8.58-23.451,0
                      c-4.004,8.579-3.433,33.75,23.451,43.473c26.885,9.724,46.243-21.172,44.286-40.045c-1.958-18.872-26.555-46.899-27.126-59.483
                      C119.01,345.68,80.54,344.183,73.104,354.479z"/>
                  </g> <!-- forearm -->
              </g> <!-- m2 -->
          </g> <!-- arm -->
      </g> <!-- m1 -->
      <g id="m3"> <!-- right arm (hombro) -->
          <circle id="pivot_m3"
                  cx="323"
                  cy="305"
                  r="0" />
          <g id="right_arm">
              <path id="Brazo_Der"
                    d="M312.199,312.724c-0.57,5.72,23.105,45.608,26.314,46.332c3.205,0.725,49.24,12.833,50.955,7.685
                  c1.717-5.148-41.803-66.602-50.955-70.605C329.359,292.132,312.771,307.005,312.199,312.724z"/>
              <g id="m4"> <!-- right forearm (codo) -->
                  <circle id="pivot_m4"
                          cx="360"
                          cy="360"
                          r="0" />
                  <g id="right_forearm">
                      <path id="Antebrazo_Der"
                            d="M333.678,417.972c4.764-7.512,64.895-38.324,55.791-51.231c-8.057-4.825-32.975-13.911-50.955-7.685
                      c-41.185,18.304-41.497,37.63-42.069,48.616c-0.531,10.221-4.264,40.615,26.624,45.764c30.889,5.147,40.863-27.236,33.748-29.172
                      S335.008,422.043,333.678,417.972z"/>
                  </g> <!-- forearm -->
              </g> <!-- m4 -->
          </g> <!-- arm -->
      </g> <!-- m3 -->

      <g id="head">
        <g id="neck">
          <path id="Cuello"
                d="M187.361,262.252c-1.001,4.976,9.508,23.633,44.294,23.012c34.786-0.622,43.923-16.792,43.93-23.012
                  s-3.997-13.06-44.113-11.816C191.508,246.703,188.361,257.277,187.361,262.252z"/>
        </g>
        <g id="face">
          <path id="Cara"
                d="M230.978,58.187c24.311-0.571,39.181,16.017,39.181,16.017s49.765-27.147,66.066,6.16
                  c16.303,33.308-3.717,63.91-3.717,63.91s24.594,24.315,20.02,52.051c-14.945,72.78-98.637,71.323-121.55,74.074
                  c-68.212,1.923-120.122-50.844-120.691-87.807c-1.646-22.454,12.297-36.031,12.297-36.031s-34.035-50.335-5.148-76.075
                  c28.887-25.74,76.362,2.287,76.362,2.287S206.667,58.759,230.978,58.187z"/>
          <path id="Boca" fill="#FFFFFF" d="M232.216,180.017c31.793-26.313,54.159,20.551,54.961,35.32
                  c0.321,5.935,1.428,40.04-56.772,40.898c-63.198,0.931-53.093-48.188-52.336-51.48C178.826,201.463,190.65,153.561,232.216,180.017z
                  "/>
          <path id="Labio_Centro" fill="none" stroke="#000000" stroke-miterlimit="10" d="M195.423,219.341c0,0,7.132,8.688,19.251,9.009
                  c12.12,0.322,19.734-9.223,19.734-9.223s6.757,10.939,19.413,6.971c12.655-3.968,19.055-14.765,19.055-14.765"/>
          <path id="Labio_Izq" fill="none" stroke="#000000" stroke-miterlimit="10" d="M198.687,215.183c0,0-2.423,2.299-3.46,4.266
                  c-1.038,1.966-1.824,4.97-1.824,4.97"/>
          <path id="Labio_Der" fill="none" stroke="#000000" stroke-miterlimit="10" d="M269.592,208.248c0,0,2.351,1.262,3.676,2.835
                  c1.323,1.572,2.317,4.385,2.317,4.385"/>
          <path id="Nariz" fill="#ADAFAF" d="M230.9,176.551c7.937-0.109,13-7.14,21.579-6.438c8.58,0.702,11.24,4.826,12.097,8.902
                  c0.858,4.076-5.394,28.421-33.922,28.636c-28.528,0.214-31.82-26.279-31.993-31.049c-0.15-4.183,3.572-6.006,10.328-6.274
                  C218.868,169.936,222.964,176.66,230.9,176.551z"/>
          <ellipse id="Ojo_Izq"  fill="#FFF" cx="178" cy="155" rx="20.5" ry="20"/>
          <ellipse id="Iris_Izq" fill="#444" cx="178" cy="155" rx="15" ry="14.5"/>
          <ellipse id="Ojo_Der"  fill="#FFF" cx="284" cy="155" rx="20.5" ry="20"/>
          <ellipse id="Iris_Der" fill="#444" cx="284" cy="155" rx="15" ry="14.5"/>
          <path id="Ceja_Der" fill="#FFFFFF" d="M278.059,122.065c-1.072,0.215,5.553-7.816,15.563-2.668
                  c10.009,5.148,5.91,12.669,5.148,12.87c-0.763,0.201-3.725-5.053-8.056-7.343C286.384,122.635,279.131,121.851,278.059,122.065z"/>
          <path id="Ceja_Izq" fill="#FFFFFF" d="M173.49,113.593c9.545-4.505,15.412,4.888,13.514,4.612
                  c-5.148-0.751-7.937-1.179-13.192,0.751c-5.255,1.93-6.864,7.399-8.258,6.648C164.159,124.854,163.945,118.097,173.49,113.593z"/>
          <path id="Oreja_Der" fill="#ADAFAF" d="M285.49,89.068c-2.002-0.858,25.566-20.878,43.012,2.86
                  c13.729,27.17-4.039,44.01-5.471,40.864C321.602,129.646,287.493,89.927,285.49,89.068z"/>
          <path id="Oreja_Izq" fill="#ADAFAF" d="M176.924,85.351c-6.292,5.433-49.764,49.477-48.048,50.908
                  c1.716,1.43-12.871-25.168,4.004-44.902C149.754,71.623,174.35,82.776,176.924,85.351z"/>
        </g> <!-- face -->
      </g> <!-- head -->
    </g> <!-- END: TRUNK + ARMS -->
  </g> <!-- puppet -->
</svg>
