<?xml version="1.0" encoding="UTF-8" standalone="no"?>
<svg
   xmlns:dc="http://purl.org/dc/elements/1.1/"
   xmlns:cc="http://creativecommons.org/ns#"
   xmlns:rdf="http://www.w3.org/1999/02/22-rdf-syntax-ns#"
   xmlns:svg="http://www.w3.org/2000/svg"
   xmlns="http://www.w3.org/2000/svg"
   xmlns:sodipodi="http://sodipodi.sourceforge.net/DTD/sodipodi-0.dtd"
   xmlns:inkscape="http://www.inkscape.org/namespaces/inkscape"
   version="1.1"
   width="400"
   height="400"
   id="svg4262"
   inkscape:version="0.91 r13725"
   sodipodi:docname="pantera_firme2.svg"
   viewBox="">
  <sodipodi:namedview
     pagecolor="#ffffff"
     bordercolor="#666666"
     borderopacity="1"
     objecttolerance="10"
     gridtolerance="10"
     guidetolerance="10"
     inkscape:pageopacity="0"
     inkscape:pageshadow="2"
     inkscape:window-width="2560"
     inkscape:window-height="1315"
     id="namedview4351"
     showgrid="false"
     inkscape:zoom="1.1625"
     inkscape:cx="136.08263"
     inkscape:cy="130.09118"
     inkscape:window-x="0"
     inkscape:window-y="0"
     inkscape:window-maximized="0"
     inkscape:current-layer="svg4262" />
  <metadata
     id="metadata4264">
    <rdf:RDF>
      <cc:Work
         rdf:about="http://apacheco.itch.edu.mx">
        <dc:title></dc:title>
        <dc:creator>Elisabet Gonzalez</dc:creator>
        <dc:creator>Alberto Pacheco</dc:creator>
        <dc:type
           rdf:resource="http://purl.org/dc/dcmitype/Image" />
        <dc:format>image/svg+xml</dc:format>
        <dc:rights
           rdf:resource="http://creativecommons.org/licenses/by-sa/4.0/" />
        <dc:date>2015-04-09</dc:date>
        <cc:license
           rdf:resource="http://creativecommons.org/licenses/by-sa/3.0/" />
      </cc:Work>
      <cc:License
         rdf:about="http://creativecommons.org/licenses/by-sa/3.0/">
        <cc:permits
           rdf:resource="http://creativecommons.org/ns#Reproduction" />
        <cc:permits
           rdf:resource="http://creativecommons.org/ns#Distribution" />
        <cc:requires
           rdf:resource="http://creativecommons.org/ns#Notice" />
        <cc:requires
           rdf:resource="http://creativecommons.org/ns#Attribution" />
        <cc:permits
           rdf:resource="http://creativecommons.org/ns#DerivativeWorks" />
        <cc:requires
           rdf:resource="http://creativecommons.org/ns#ShareAlike" />
      </cc:License>
    </rdf:RDF>
  </metadata>
  <defs
     id="defs4266" />
  <g
     id="puppet"
     style="fill:#000000;stroke:#000000;stroke-width:1;stroke-linecap:round;stroke-linejoin:round;stroke-miterlimit:0.5"
     transform="matrix(0.63255287,0,0,0.63255287,-11.897166,-36.480967)">
    <!-- cola reemplaza centro-cadera -->
    <g
       id="m5">
      <circle
         id="pivot_m5"
         cx="295"
         cy="480"
         r="0" />
      <path
         id="Cola"
         d="m 332.13674,514.46044 c 32.56689,26.29256 137.2493,45.82295 174.90203,36.92561 37.65274,-8.89735 69.98219,13.74 62.83413,42.80911 -13.03585,41.63934 -34.38056,31.23366 -51.08276,22.67973 -16.70443,-8.55432 -25.34522,-43.58342 -25.34522,-43.58342 0,0 -113.07422,0.42884 -169.44008,-46.71884 -24.15342,-22.84902 -30.45076,-31.7973 -30.45076,-31.7973 0,0 -3.91654,-6.84795 -3.50661,-12.48878 0.36796,-5.06294 6.19097,-8.20464 10.65713,-5.8529 4.50655,10.5259 -0.29473,11.98158 31.43214,38.02679 z"
         inkscape:connector-curvature="0"
         sodipodi:nodetypes="cscccccscc" />
    </g>
    <g
       id="m6">
      <circle
         id="pivot_m6"
         cx="165"
         cy="495"
         r="0" />
      <g
         id="left_thigh">
        <path
           id="Muslo_Izq"
           d="m 174.777,585.574 c -21.86867,17.4529 -66.39327,0.2374 -72.514,-25.67 -2.04,-1.768 22.27278,-73.26766 30.99689,-78.19051 36.26029,-16.48308 65.49189,12.0085 66.08011,31.36251 0.24625,10.5126 -23.01817,71.2651 -24.563,72.498 z"
           inkscape:connector-curvature="0"
           style="fill:#000000;fill-opacity:1"
           sodipodi:nodetypes="scccs" />
        <g
           id="m7">
          <circle
             id="pivot_m7"
             cx="140"
             cy="570"
             r="0" />
          <path
             id="Pierna_Izq"
             d="m 104.092,554.67 c -8.079798,8.78962 -15.171798,67.08702 -19.175798,76.52293 -8.84755,-4.70841 -19.225551,-13.71572 -36.248,-7.749 C 23.350843,632.34698 -13.839,675.362 77.68,687.946 c 45.465,6.252 62.919,-8.009 62.919,-8.009 0,0 34.14013,-81.48397 35.323,-97.813 -1.53896,-18.70588 -43.58944,-46.97997 -71.83,-27.454 z"
             inkscape:connector-curvature="0"
             style="fill:#000000;fill-opacity:1"
             sodipodi:nodetypes="ccccccc" />
        </g>
      </g>
    </g>
    <g
       id="m8">
      <circle
         id="pivot_m8"
         cx="273"
         cy="498"
         r="0" />
      <g
         id="right_thigh">
        <path
           id="Muslo_Der"
           d="m 236.30204,519.07182 c -2.574,8.576 22.17827,71.85834 30.40493,76.87602 29.11992,17.7611 70.59658,-3.99855 67.22803,-34.41184 -0.62954,-5.68384 -14.76504,-65.09904 -21.736,-70.928 -19.8901,-14.66737 -69.24323,-3.57263 -75.89696,28.46382 z"
           inkscape:connector-curvature="0"
           style="fill:#000000;fill-opacity:1"
           sodipodi:nodetypes="csscc" />
        <g
           id="m9">
          <circle
             id="pivot_m9"
             cx="295"
             cy="570"
             r="0" />
          <path
             id="Pierna_Der"
             d="m 258.09202,577.46698 c -2.84584,5.99121 20.62129,67.50702 44.09798,98.75902 8.41502,11.20202 30.439,15.932 75.478,11.159 36.492,-3.866 37.35,-27.89 23.621,-50.627 -16.266,-26.939 -50.434,-14.833 -50.434,-14.833 -6.08132,-23.98747 -12.16264,-46.14267 -18.24396,-68.32008 -33.19117,-13.21678 -57.64646,-5.53086 -74.51902,23.86206 z"
             inkscape:connector-curvature="0"
             style="fill:#000000;fill-opacity:1"
             sodipodi:nodetypes="cscsccc" />
        </g>
      </g>
    </g>
    <g
       id="hip">
      <path
         id="Short"
         d="m 220.68,414.535 c -40.611,-2.86 -69.894,16.588 -69.894,16.588 0,0 -4.464,7.41 -13.618,22.867 -9.154,15.457 -14.73,33.689 -14.73,33.689 0,0 20.912,9.012 36.465,17.375 15.552,8.363 38.418,21.446 44.044,23.308 5.70289,-8.72946 17.731,-28.026 17.731,-28.026 3.10506,7.24571 8.70883,25.01377 10.975,33.176 1.895,1.573 47.005,-14.876 47.005,-14.876 0,0 38.545,-14.868 41.547,-14.868 3.004,0 -13.486,-38.194 -13.486,-38.194 0,0 -9.25,-30.445 -13.969,-33.878 -4.717,-3.432 -31.459,-14.3 -72.07,-17.161 z"
         inkscape:connector-curvature="0"
         style="fill:#133787;fill-opacity:1"
         sodipodi:nodetypes="ccsccccccsccc" />
      <line
         id="Short_Raya_Der"
         stroke-miterlimit="10"
         x1="170.22678"
         y1="431.29904"
         x2="138.70622"
         y2="492.69516"
         style="fill:none;stroke:#ffffff;stroke-width:3.93115234;stroke-miterlimit:10" />
      <line
         id="Short_Raya_Izq"
         stroke-miterlimit="10"
         x1="163.37236"
         y1="430.80142"
         x2="131.52464"
         y2="489.38974"
         style="fill:none;stroke:#ffffff;stroke-width:3.9279964;stroke-miterlimit:10" />
      <line
         id="Letra_I_raya_up"
         stroke-miterlimit="10"
         x1="241.959"
         y1="512.11102"
         x2="254.08299"
         y2="507.79199"
         style="fill:none;stroke:#ffffff;stroke-width:3;stroke-miterlimit:10" />
      <line
         id="Letra_I_raya_down"
         stroke-miterlimit="10"
         x1="246.494"
         y1="524.841"
         x2="258.62201"
         y2="520.51898"
         style="fill:none;stroke:#ffffff;stroke-width:3;stroke-miterlimit:10" />
      <line
         id="Letra_I"
         stroke-miterlimit="10"
         x1="248.66701"
         y1="510.479"
         x2="252.96201"
         y2="522.53497"
         style="fill:none;stroke:#ffffff;stroke-width:3;stroke-miterlimit:10" />
      <line
         id="Letra_T_1_"
         stroke-miterlimit="10"
         x1="268.465"
         y1="519.823"
         x2="263.23099"
         y2="505.13901"
         style="fill:none;stroke:#ffffff;stroke-width:3;stroke-miterlimit:10" />
      <line
         id="Letra_T_raya_1_"
         stroke-miterlimit="10"
         x1="257.35999"
         y1="506.478"
         x2="268.62701"
         y2="502.461"
         style="fill:none;stroke:#ffffff;stroke-width:3;stroke-miterlimit:10" />
      <path
         id="Letra_C"
         stroke-miterlimit="10"
         d="m 279.93,497.96 c 0,0 -9.01,1.133 -6.252,9.295 2.759,8.163 11.856,3.445 11.856,3.445"
         inkscape:connector-curvature="0"
         style="fill:none;stroke:#ffffff;stroke-width:3;stroke-miterlimit:10" />
      <line
         id="Letra_H_raya_izq"
         stroke-miterlimit="10"
         x1="286.302"
         y1="495.604"
         x2="291.73801"
         y2="509.92499"
         style="fill:none;stroke:#ffffff;stroke-width:3;stroke-miterlimit:10" />
      <line
         id="Letra_H_raya_der"
         stroke-miterlimit="10"
         x1="294.94699"
         y1="492.02802"
         x2="300.48401"
         y2="506.603"
         style="fill:none;stroke:#ffffff;stroke-width:3;stroke-miterlimit:10" />
      <line
         id="Letra_H"
         stroke-miterlimit="10"
         x1="288.729"
         y1="502.004"
         x2="298.41599"
         y2="498.32599"
         style="fill:none;stroke:#ffffff;stroke-width:3;stroke-miterlimit:10" />
    </g>
    <g
       id="chest">
      <path
         d="m 213.21094,251.80664 c -27.73873,0.24501 -47.26784,3.76203 -58.91406,6.66602 -0.79223,17.75613 -1.3958,33.2158 -2.10229,48.77194 -0.45743,27.86836 -4.44075,123.63858 -4.44075,123.63858 l 149.45484,2.78906 c 3.18141,-62.64571 4.10283,-136.25985 3.13299,-172.67382 -8.794,-4.076 -36.24412,-7.96711 -73.65612,-9.05311 -4.6765,-0.13575 -9.16806,-0.17671 -13.47461,-0.13867 z"
         id="Camiseta"
         inkscape:connector-curvature="0"
         style="fill:#0d1247;fill-opacity:1" />
      <path
         id="Letra_P"
         stroke-miterlimit="10"
         d="m 174.206,320.729 c 0,0 0,-13.157 0,-15.587 0,-2.431 7.167,-4.862 7.167,2.574 0,7.866 -7.167,3.959 -7.167,3.959"
         inkscape:connector-curvature="0"
         style="fill:none;stroke:#ffffff;stroke-width:3;stroke-miterlimit:10" />
      <path
         id="Letra_A"
         stroke-miterlimit="10"
         d="m 186.789,320.729 c 0,0 2.359,-15.695 3.432,-15.587 1.072,0.107 4.29,7.866 4.29,7.866 l 3.861,7.722"
         inkscape:connector-curvature="0"
         style="fill:none;stroke:#ffffff;stroke-width:3;stroke-miterlimit:10" />
      <line
         id="Letra_A_raya"
         stroke-miterlimit="10"
         x1="188.431"
         y1="313.935"
         x2="194.97501"
         y2="313.935"
         style="fill:none;stroke:#ffffff;stroke-width:3;stroke-miterlimit:10" />
      <path
         id="Letra_N"
         stroke-miterlimit="10"
         d="m 205.236,322.158 c 0,0 -1.285,-13.156 -0.427,-14.729 0.857,-1.574 8.948,14.151 9.722,13.299 0.774,-0.852 -1.02,-16.232 -1.02,-16.232"
         inkscape:connector-curvature="0"
         style="fill:none;stroke:#ffffff;stroke-width:3;stroke-miterlimit:10" />
      <polyline
         id="Letra_T_raya"
         stroke-miterlimit="10"
         points="217.105,306.428                  222.614,306.428 228.117,306.428 "
         style="fill:none;stroke:#ffffff;stroke-width:3;stroke-miterlimit:10" />
      <line
         id="Letra_T"
         stroke-miterlimit="10"
         x1="222.47"
         y1="307.28601"
         x2="222.47"
         y2="322.15799"
         style="fill:none;stroke:#ffffff;stroke-width:3;stroke-miterlimit:10" />
      <path
         id="Letra_E"
         stroke-miterlimit="10"
         d="m 240.272,306.299 c 0,0 -7.438,-0.492 -7.436,0.987 0.003,2.718 0.142,3.003 0,9.438 -0.142,6.435 8.293,4.005 8.293,4.005"
         inkscape:connector-curvature="0"
         style="fill:none;stroke:#ffffff;stroke-width:3;stroke-miterlimit:10" />
      <line
         id="Letra_E_raya"
         stroke-miterlimit="10"
         x1="238.271"
         y1="312.93399"
         x2="233.55099"
         y2="312.93399"
         style="fill:none;stroke:#ffffff;stroke-width:3;stroke-miterlimit:10" />
      <path
         id="Letra_R"
         stroke-miterlimit="10"
         d="m 245.884,322.158 c -0.075,-1.587 -1.395,-14.001 -0.107,-15.938 1.287,-1.937 7.079,-0.865 6.649,3.104 -0.429,3.968 -4.29,4.611 -4.29,4.611 0,0 6.006,6.757 6.436,7.508"
         inkscape:connector-curvature="0"
         style="fill:none;stroke:#ffffff;stroke-width:3;stroke-miterlimit:10" />
      <path
         id="Letra_A_2"
         stroke-miterlimit="10"
         d="m 258.855,322.158 c 0,0 -0.281,-16.431 3.151,-15.938 3.432,0.493 5.864,15.938 5.864,15.938"
         inkscape:connector-curvature="0"
         style="fill:none;stroke:#ffffff;stroke-width:3;stroke-miterlimit:10" />
      <line
         id="Letra_A_2_raya"
         stroke-miterlimit="10"
         x1="258.85501"
         y1="312.93399"
         x2="265.94601"
         y2="312.93399"
         style="fill:none;stroke:#ffffff;stroke-width:3;stroke-miterlimit:10" />
      <path
         id="Letra_S"
         stroke-miterlimit="10"
         d="m 280.597,307.286 c 0,0 0.045,-3.762 -5.012,-2.79 -3.352,0.644 -3.363,3.286 -1.281,5.518 2.081,2.231 3.74,3.895 5.456,6.184 1.715,2.289 0.707,5.961 -3.165,5.961 -4.423,0 -3.885,-4.878 -3.885,-4.878"
         inkscape:connector-curvature="0"
         style="fill:none;stroke:#ffffff;stroke-width:3;stroke-miterlimit:10" />
    </g>
    <g
       id="m0">
      <circle
         id="pivot_m0"
         cx="230"
         cy="265"
         r="0" />
      <g
         id="head">
        <g
           id="neck">
          <path
             id="Cuello"
             d="m 187.361,262.252 c -1.001,4.976 9.508,23.633 44.294,23.012 34.786,-0.622 43.923,-16.792 43.93,-23.012 0.007,-6.22 -3.997,-13.06 -44.113,-11.816 -39.964,-3.733 -43.111,6.841 -44.111,11.816 z"
             inkscape:connector-curvature="0"
             style="fill:#000000;fill-opacity:1" />
        </g>
        <g
           id="face">
          <path
             id="Cara"
             d="m 230.978,58.187 c 24.311,-0.571 39.181,16.017 39.181,16.017 0,0 49.765,-27.147 66.066,6.16 16.303,33.308 -3.717,63.91 -3.717,63.91 0,0 24.594,24.315 20.02,52.051 -14.945,72.78 -98.637,71.323 -121.55,74.074 -68.212,1.923 -120.122,-50.844 -120.691,-87.807 -1.646,-22.454 12.297,-36.031 12.297,-36.031 0,0 -34.035,-50.335 -5.148,-76.075 28.887,-25.74 76.362,2.287 76.362,2.287 0,0 12.869,-14.014 37.18,-14.586 z"
             inkscape:connector-curvature="0"
             style="fill:#000000;fill-opacity:1" />
          <path
             id="Boca"
             d="m 232.216,180.017 c 31.793,-26.313 54.159,20.551 54.961,35.32 0.321,5.935 1.428,40.04 -56.772,40.898 -63.198,0.931 -53.093,-48.188 -52.336,-51.48 0.757,-3.292 12.581,-51.194 54.147,-24.738 z"
             style="fill:#ffffff"
             inkscape:connector-curvature="0" />
          <path
             id="Labio_Centro"
             stroke-miterlimit="10"
             d="m 195.423,219.341 c 0,0 7.132,8.688 19.251,9.009 12.12,0.322 19.734,-9.223 19.734,-9.223 0,0 6.757,10.939 19.413,6.971 12.655,-3.968 19.055,-14.765 19.055,-14.765"
             style="fill:none;stroke:#000000;stroke-miterlimit:10"
             inkscape:connector-curvature="0" />
          <path
             id="Labio_Izq"
             stroke-miterlimit="10"
             d="m 198.687,215.183 c 0,0 -2.423,2.299 -3.46,4.266 -1.038,1.966 -1.824,4.97 -1.824,4.97"
             style="fill:none;stroke:#000000;stroke-miterlimit:10"
             inkscape:connector-curvature="0" />
          <path
             id="Labio_Der"
             stroke-miterlimit="10"
             d="m 269.592,208.248 c 0,0 2.351,1.262 3.676,2.835 1.323,1.572 2.317,4.385 2.317,4.385"
             style="fill:none;stroke:#000000;stroke-miterlimit:10"
             inkscape:connector-curvature="0" />
          <path
             id="Nariz"
             d="m 230.9,176.551 c 7.937,-0.109 13,-7.14 21.579,-6.438 8.58,0.702 11.24,4.826 12.097,8.902 0.858,4.076 -5.394,28.421 -33.922,28.636 -28.528,0.214 -31.82,-26.279 -31.993,-31.049 -0.15,-4.183 3.572,-6.006 10.328,-6.274 9.879,-0.392 13.975,6.332 21.911,6.223 z"
             style="fill:#adafaf"
             inkscape:connector-curvature="0" />
          <ellipse
             id="Ojo_Izq"
             cx="178"
             cy="155"
             rx="20.5"
             ry="20"
             style="fill:#ffffff" />
          <ellipse
             id="Iris_Izq"
             cx="178"
             cy="155"
             rx="15"
             ry="14.5"
             style="fill:#444444" />
          <ellipse
             id="Ojo_Der"
             cx="284"
             cy="155"
             rx="20.5"
             ry="20"
             style="fill:#ffffff" />
          <ellipse
             id="Iris_Der"
             cx="284"
             cy="155"
             rx="15"
             ry="14.5"
             style="fill:#444444" />
          <path
             id="Ceja_Der"
             d="m 278.059,122.065 c -1.072,0.215 5.553,-7.816 15.563,-2.668 10.009,5.148 5.91,12.669 5.148,12.87 -0.763,0.201 -3.725,-5.053 -8.056,-7.343 -4.33,-2.289 -11.583,-3.073 -12.655,-2.859 z"
             style="fill:#ffffff"
             inkscape:connector-curvature="0" />
          <path
             id="Ceja_Izq"
             d="m 173.49,113.593 c 9.545,-4.505 15.412,4.888 13.514,4.612 -5.148,-0.751 -7.937,-1.179 -13.192,0.751 -5.255,1.93 -6.864,7.399 -8.258,6.648 -1.395,-0.75 -1.609,-7.507 7.936,-12.011 z"
             style="fill:#ffffff"
             inkscape:connector-curvature="0" />
          <path
             id="Oreja_Der"
             d="m 285.49,89.068 c -2.002,-0.858 25.566,-20.878 43.012,2.86 13.729,27.17 -4.039,44.01 -5.471,40.864 -1.429,-3.146 -35.538,-42.865 -37.541,-43.724 z"
             style="fill:#adafaf"
             inkscape:connector-curvature="0" />
          <path
             id="Oreja_Izq"
             d="m 176.924,85.351 c -6.292,5.433 -49.764,49.477 -48.048,50.908 1.716,1.43 -12.871,-25.168 4.004,-44.902 16.874,-19.734 41.47,-8.581 44.044,-6.006 z"
             style="fill:#adafaf"
             inkscape:connector-curvature="0" />
        </g>
        <!-- face -->
      </g>
      <!-- head -->
    </g>
    <g
       id="m1">
      <!-- left arm (hombro) -->
      <circle
         id="pivot_m1"
         cx="157"
         cy="285"
         r="0"
         style="display:none;visibility:hidden;opacity:1;fill:#ff0000;stroke:#ffa500;stroke-width:1" />
      <g
         id="left_arm">
        <path
           id="Brazo_Izq"
           d="m 139.59263,305.13011 c -3.55705,16.46879 -0.71175,73.49366 0.73268,77.27145 5.89628,15.42124 33.47067,14.033 39.27191,-2.73195 2.74179,-5.54706 1.97887,-63.64192 -2.3835,-74.11666 -10.47135,-12.96464 -25.81733,-12.69087 -37.62109,-0.42284 z"
           style="fill:#000000;fill-opacity:1;stroke:#000000;stroke-opacity:1"
           inkscape:connector-curvature="0"
           sodipodi:nodetypes="csccc" />
        <path
           id="Camiseta_Manga_Izq"
           d="m 136.76901,316.43452 c 1.90775,0.94785 46.63903,1.66174 47.71493,0.0451 4.44974,-87.27602 -61.46564,-69.38838 -47.71493,-0.0451 z"
           style="fill:#0d1247;fill-opacity:1;stroke:#000000;stroke-opacity:1"
           inkscape:connector-curvature="0" />
        <g
           id="m2">
          <!-- left forearm (codo) -->
          <circle
             id="pivot_m2"
             cx="158"
             cy="375"
             r="0"
             style="display:none;visibility:hidden;opacity:1;fill:#ff0000;stroke:#ffa500;stroke-width:1" />
          <g
             id="left_forearm">
            <path
               id="Antebrazo_Izq"
               d="m 144.268,369.75646 c -10.08357,8.64721 2.47665,51.22573 -1.08661,51.95995 -3.56194,0.73379 -14.01407,-13.56285 -21.27684,-8.40394 -7.26238,5.15817 -17.39356,24.70689 2.88445,41.81329 20.27849,17.10752 46.41884,10e-4 52.62801,-15.20414 3.5112,-17.60192 7.3998,-62.63815 -4.5444,-71.20541 -13.3182,-7.96018 -17.50202,-8.62725 -28.60461,1.04025 z"
               style="fill:#000000;fill-opacity:1;stroke-width:0.92134333"
               inkscape:connector-curvature="0"
               sodipodi:nodetypes="ccccccc" />
          </g>
          <!-- forearm -->
        </g>
        <!-- m2 -->
      </g>
      <!-- arm -->
    </g>
    <!-- m1 -->
    <g
       id="m3">
      <!-- right arm (hombro) -->
      <circle
         id="pivot_m3"
         cx="301"
         cy="285"
         r="0"
         style="display:none;visibility:hidden;opacity:1;fill:#ff0000;stroke:#ffa500;stroke-width:1" />
      <g
         id="right_arm">
        <path
           id="Brazo_Der"
           d="m 284.2922,302.78998 c -3.51453,4.54877 -4.57438,67.99997 -2.23668,70.31449 11.5132,14.89239 27.59899,15.27748 38.24099,0.26129 1.18791,-6.45211 -0.15727,-61.55549 -3.40037,-70.09967 -5.64122,-10.62631 -22.96866,-12.16252 -32.60394,-0.47611 z"
           style="fill:#000000;fill-opacity:1"
           inkscape:connector-curvature="0"
           sodipodi:nodetypes="ccccc" />
        <path
           style="fill:#0d1247;fill-opacity:1;stroke:#000000;stroke-opacity:1"
           d="m 277.2915,319.73036 c 1.90775,0.94785 46.63903,1.66174 47.71493,0.0451 4.44974,-87.27602 -61.46564,-69.38838 -47.71493,-0.0451 z"
           id="Camiseta_Manga_Der"
           inkscape:connector-curvature="0" />
        <g
           id="m4">
          <!-- right forearm (codo) -->
          <circle
             id="pivot_m4"
             cx="302"
             cy="375"
             r="0"
             style="display:none;visibility:hidden;opacity:1;fill:#ff0000;stroke:#ffa500;stroke-width:1" />
          <g
             id="right_forearm">
            <path
               id="Antebrazo_Der"
               d="m 323.45903,422.76611 c -3.70893,-6.94151 2.05287,-46.94222 -6.59376,-57.6191 -8.50217,-11.49391 -19.63794,-9.78692 -31.97071,1.39403 -5.88702,8.37234 -0.48979,70.35124 8.42071,75.89908 8.29089,5.16043 32.96994,24.37206 54.13091,4.54315 21.1599,-19.8307 -0.58701,-42.15034 -6.09095,-37.93334 -5.50396,4.21701 -13.75372,14.66193 -17.8962,13.71618 z"
               style="fill:#000000;fill-opacity:1;stroke-width:0.9269259"
               inkscape:connector-curvature="0"
               sodipodi:nodetypes="cccccsc" />
          </g>
          <!-- forearm -->
        </g>
        <!-- m4 -->
      </g>
      <!-- arm -->
    </g>
    <!-- m3 -->
  </g>
  <!-- puppet -->
</svg>
