<?xml version="1.0" encoding="UTF-8" standalone="no"?>
<!-- Created with Inkscape (http://www.inkscape.org/) -->

<svg
   xmlns:dc="http://purl.org/dc/elements/1.1/"
   xmlns:cc="http://creativecommons.org/ns#"
   xmlns:rdf="http://www.w3.org/1999/02/22-rdf-syntax-ns#"
   xmlns:svg="http://www.w3.org/2000/svg"
   xmlns="http://www.w3.org/2000/svg"
   xmlns:sodipodi="http://sodipodi.sourceforge.net/DTD/sodipodi-0.dtd"
   xmlns:inkscape="http://www.inkscape.org/namespaces/inkscape"
   id="svg4206"
   version="1.1"
   inkscape:version="0.91 r13725"
   width="1700"
   height="2200"
   viewBox="0 0 1700 2200"
   sodipodi:docname="ardilla_1.svg">
  <metadata
     id="metadata4212">
    <rdf:RDF>
      <cc:Work
         rdf:about="">
        <dc:format>image/svg+xml</dc:format>
        <dc:type
           rdf:resource="http://purl.org/dc/dcmitype/StillImage" />
        <dc:title></dc:title>
      </cc:Work>
    </rdf:RDF>
  </metadata>
  <defs
     id="defs4210" />
  <sodipodi:namedview
     pagecolor="#ffffff"
     bordercolor="#666666"
     borderopacity="1"
     objecttolerance="10"
     gridtolerance="10"
     guidetolerance="10"
     inkscape:pageopacity="0"
     inkscape:pageshadow="2"
     inkscape:window-width="2560"
     inkscape:window-height="1319"
     id="namedview4208"
     showgrid="false"
     inkscape:zoom="0.50727274"
     inkscape:cx="1129.6524"
     inkscape:cy="1036.2294"
     inkscape:window-x="0"
     inkscape:window-y="0"
     inkscape:window-maximized="1"
     inkscape:current-layer="svg4206" />
  <g
     id="puppet">
    <path
       sodipodi:nodetypes="ccccccccccccccccccccccc"
       inkscape:connector-curvature="0"
       id="path4277"
       d="m 793.5,1628.4319 c -66.24475,-12.8279 -133.93357,-44.9535 -177.47177,-97.5859 -67.59249,-87.0804 -76.81901,-208.9429 -35.55352,-309.5917 30.96582,-82.7656 90.29521,-158.1345 93.6685,-249.16579 -44.84592,-29.82272 -105.37064,-39.30206 -144.10538,-81.50409 -57.16165,-53.50114 -92.2376,-141.71164 -66.99686,-218.39299 23.74961,-59.73598 69.40394,-63.18042 79.58817,-150.49758 11.30078,-78.72822 34.04586,-152.40213 42.94438,-230.42212 7.88883,-61.46572 26.3429,-149.0137 97.51338,-161.93632 80.17669,-2.72948 39.48011,124.16367 116.33547,107.28214 61.19249,-13.98887 136.29402,29.56258 149.50809,-44.13329 11.10309,-92.38482 126.04764,-70.45102 146.14134,3.37969 24.3031,60.38994 36.2744,126.53627 31.2011,191.63605 38.7016,60.38923 21.9235,143.60496 47.2271,201.59211 53.9285,3.70089 116.6421,-11.79211 171.4029,11.63194 89.4613,21.89533 142.9134,113.3291 153.2492,199.47311 1.764,70.81851 -11.9255,145.82488 -88.1203,189.97587 -95.6817,49.80747 -117.2245,-2.90763 -118.0318,23.15397 5.2814,91.9443 36.2669,187.0016 8.0584,278.173 -22.3899,63.0076 -62.8312,119.1603 -114.0964,160.0117 -35.4727,41.3571 -99.8608,45.5517 -131.5077,76.9883 -41.2691,53.0245 -100.81611,93.4381 -169.42305,95.7132 -30.17052,5.1023 -61.02031,6.9663 -91.53125,4.2187 z"
       style="fill:#000000;fill-opacity:1;stroke:none;stroke-opacity:1" />
    <path
       sodipodi:nodetypes="ccccccccccccccccccccccccccccccccc"
       inkscape:connector-curvature="0"
       id="path4275"
       d="m 895,1612.0202 c 80.2362,-8.8113 156.5039,-60.9212 183.49,-138.3534 40.0268,-109.616 13.6529,-229.8466 -26.6258,-336.1955 -11.2272,-38.0632 -28.2228,-70.3853 -39.4691,-108.0121 -7.1929,-30.21453 -9.9029,-61.28408 -33.01631,-53.90723 -26.40253,5.74726 -68.21304,4.31698 -18.9519,-4.80829 72.95481,-22.6035 150.08441,-47.87795 204.64551,-104.03717 46.7178,-54.7383 85.7466,-133.43159 53.0071,-204.70648 -20.2679,-40.5818 -58.6859,-72.65868 -101.3159,-87.05127 -42.6597,-5.62414 -83.243,17.73783 -113.5873,45.31354 11.2804,10.11656 38.4155,62.40721 10.7919,25.61977 C 987.80089,609.11746 955.34202,571.18858 911.56044,556 c -8.67115,55.04042 -85.7287,79.15578 -119.75795,31.32088 -23.47654,-49.61725 -76.25864,27.41702 -103.5322,46.4213 -17.43519,18.75415 -13.31623,13.90088 -4.20494,-3.43534 -48.7935,-51.56844 -148.64776,-55.90397 -187.72113,9.62666 -28.54743,33.24968 -38.61361,78.29894 -26.96309,120.47612 15.68512,93.17424 98.59708,156.08876 182.65993,186.50149 36.59632,24.00758 107.89304,18.01564 130.37243,37.81825 -30.49573,6.07729 -91.38112,-35.22946 -97.28204,8.65688 -21.7162,107.18766 -90.14445,198.48366 -112.30828,305.48896 -11.78624,77.4652 2.04564,160.782 52.21081,222.9729 29.07975,42.8851 76.98368,69.6972 125.716,83.4871 -75.12372,-37.2702 -111.78267,-121.0711 -130.03706,-198.751 -19.01193,-82.7841 25.14055,-247.0435 57.90482,-323.9516 -15.78327,80.97 -58.77929,242.5167 -46.49277,325.0055 12.29129,69.6494 45.16406,144.6335 110.73838,178.7825 72.10526,33.4413 166.59436,29.3109 223.91574,-30.1706 54.48521,-51.2592 79.76121,-128.8115 72.18851,-202.9138 -4.652,-86.6699 -21.1504,-208.6536 -39.60782,-293.2168 36.90432,108.952 68.09522,263.2929 49.44932,378.7961 -11.988,72.1862 -60.85861,138.9324 -131.88573,162.0304 -12.0385,5.8856 -60.41351,15.1716 -21.92337,11.0743 z"
       style="fill:#ffe5c4;fill-opacity:1" />
    <path
       inkscape:connector-curvature="0"
       id="path4271"
       d="m 842.4577,956.11977 c -5.92569,-1.96052 -12.41772,-1.61494 -18.05435,-4.57441 -6.77523,-1.95029 -12.75041,-5.75491 -18.35371,-9.92546 -6.06487,-3.97304 -11.09123,-9.41484 -15.42204,-15.19104 -2.51921,-2.02182 -1.67279,-5.84979 1.57224,-2.88194 10.42208,6.88415 21.61554,12.90982 33.59956,16.57138 15.58582,4.10877 32.11045,7.72099 48.11638,3.70009 14.34102,-2.85681 28.43256,-7.99073 40.35546,-16.60178 3.05986,-3.41291 4.86609,1.68149 1.30453,3.04196 -2.93875,4.20701 -7.67239,6.26923 -11.06407,9.88665 -4.4233,3.64777 -9.26463,6.67448 -14.55779,8.89604 -5.48568,2.63187 -11.30663,4.52474 -17.30056,5.51284 -5.2025,2.1405 -10.81409,1.00017 -16.24783,1.64524 -4.60945,0.16404 -9.4238,0.97522 -13.94782,-0.0796 z"
       style="fill:#000000" />
    <path
       inkscape:connector-curvature="0"
       id="path4269"
       d="m 837.5,904.531 c -18.75756,-4.1863 -36.47344,-13.12792 -50.2427,-26.65288 -14.50981,-13.51021 -26.28455,-30.05973 -33.53967,-48.48651 -5.23449,-8.00825 -7.38549,-18.04042 -10.98018,-26.39859 -5.05675,-12.40577 -6.01728,-26.12286 -9.84414,-38.61857 -1.96396,-15.98699 -10.08253,-31.28785 -24.29015,-39.57515 -14.96006,-10.27504 -23.66811,-31.58407 -14.59564,-48.32617 2.35962,-6.52498 16.64292,-23.15691 19.12164,-18.05296 -5.68968,12.27012 -10.68141,25.54641 -8.8922,39.41607 3.54051,20.199 25.57851,30.89276 44.51707,31.52294 18.59412,1.78414 38.4514,-0.33849 54.12372,-11.19685 11.42674,-4.74548 20.31424,-15.03802 28.37381,-24.49243 6.54446,-5.38399 11.94396,-34.27816 20.83279,-18.00079 6.58062,12.83826 15.44676,24.40028 26.99952,32.90064 16.50652,10.92442 37.56884,18.56395 58.21631,16.71407 11.97543,-0.49292 23.55868,-5.11354 34.20355,-10.63288 9.98802,-5.58925 21.02789,-13.61455 23.14853,-25.67812 C 995.75843,676.46901 989.0511,665.22369 983,655 c 9.69744,0.27767 22.8016,20.47122 20.5,33.57151 1.0731,12.20442 -5.36585,23.56219 -15.56007,29.82718 -15.07043,9.61395 -21.24678,27.48542 -22.51075,44.47455 -2.59364,15.79268 -5.97962,31.40151 -10.64145,46.6918 -4.77262,12.27814 -8.52518,24.8497 -15.85614,36.04155 -12.01199,21.96657 -29.5276,41.80456 -52.09253,53.13749 -15.40805,6.63109 -32.70441,8.03128 -49.33906,5.78692 z"
       style="fill:#000000" />
    <path
       style="fill:#fe5349;fill-opacity:1"
       d="m 869.85586,892.37397 c 12.97559,-4.37102 48.93379,-26.2529 43.80366,-39.86304 -5.52611,-5.78952 -13.92407,-6.66184 -20.80863,-10.07743 -25.88733,-8.2573 -54.26939,-8.10428 -80.26233,-0.39306 -8.01187,2.61496 -15.54997,6.70598 -22.10702,11.98232 -3.74305,4.69519 -0.20742,11.19666 4.0889,14.18251 8.95283,8.15142 17.99278,16.81162 29.5844,21.05047 14.42259,5.87385 30.58449,6.07628 45.70102,3.11823 z"
       id="path4267"
       inkscape:connector-curvature="0"
       sodipodi:nodetypes="cccccccc" />
    <path
       inkscape:connector-curvature="0"
       id="path4265"
       d="m 793,844.36269 c 15.63484,-8.3612 32.99338,-12.9484 50.64921,-14.1763 11.18145,-0.5799 22.5402,0.39967 33.546,2.43506 7.88429,1.95726 15.45524,4.32034 23.24856,6.64619 7.76629,2.68826 15.02585,5.77076 22.40001,9.45765 9.4502,2.53126 6.3997,-12.16756 10.25001,-17.39863 3.00724,-13.22459 8.7406,-25.69093 11.18657,-39.07822 3.00439,-7.20719 4.65803,-15.27704 7.18596,-22.86831 2.81407,-10.43635 7.61527,-20.63831 8.39375,-31.45269 -7.06805,-2.49588 -14.97508,1.34841 -22.39852,1.46522 -10.27182,-0.94664 -8.63484,11.66201 -10.36028,18.40007 -1.70345,9.59817 -3.97671,18.97972 -5.63136,28.60891 -2.30828,7.69793 -6.96094,14.35028 -13.68057,19.12356 -10.08431,7.61137 -23.32581,5.65683 -34.99046,8.22449 -19.77159,1.35657 -39.79442,1.71424 -59.44436,-1.15884 -8.19866,-2.38381 -16.43534,-6.11725 -22.32774,-12.61762 -7.09609,-8.32148 -11.82906,-18.79401 -12.55196,-29.70941 -3.68101,-6.96317 -2.40938,-16.34044 -8.14736,-22.56738 -6.60774,-5.96559 -16.6786,-2.95003 -24.80434,-3.54199 -8.52634,0.0874 0.89286,11.75146 -0.62093,17.14042 1.27391,7.73689 4.3659,15.00223 5.22198,22.81761 3.6794,6.98955 4.26381,15.22219 7.95881,22.2872 2.11712,7.90022 5.70151,15.3228 10.03089,22.24682 3.37887,7.65523 7.30276,15.71227 13.26438,21.75125 3.8009,-1.93977 7.67546,-4.20266 11.62175,-6.03506 z"
       style="fill:#a90e27;fill-opacity:1" />
    <path
       inkscape:connector-curvature="0"
       id="path4263"
       d="m 845.36305,791.5 c -0.45232,-25.00622 -0.95425,-50.01533 -1.8266,-75.01018 -0.18755,-5.78688 -6.06634,-0.20598 -8.5655,0.75547 -8.51414,4.18904 -16.51541,9.33677 -24.99377,13.60336 -7.02268,3.86556 -14.04336,7.74192 -21.08933,11.55678 -4.16805,1.59534 -2.4551,6.39186 -2.4492,9.77599 1.22653,11.54638 2.19738,23.5551 7.73965,33.99495 2.99726,2.57592 4.60726,6.58947 8.60181,8.3121 7.19286,4.14558 15.23266,6.81705 23.49831,7.64922 3.54351,0.90636 7.05437,1.98043 10.78481,1.63492 2.81308,-0.0598 5.62447,-0.18365 8.43677,-0.27261 -0.0457,-4 -0.0913,-8 -0.13695,-12 z"
       style="fill:#ffffff;fill-opacity:1" />
    <path
       inkscape:connector-curvature="0"
       id="path4261"
       d="m 888.58709,802.13544 c 5.14685,-2.72047 11.02138,-4.42946 14.99052,-8.95556 2.91427,-2.7326 4.90765,-6.16212 6.71579,-9.67503 3.96535,-11.1242 5.23208,-23.04567 5.66343,-34.78709 0.0324,-2.60645 0.028,-5.21321 0.0432,-7.81981 -7.87092,-3.31584 -15.87039,-6.41539 -23.36691,-10.53048 -3.21779,-2.15851 -7.38887,-2.33141 -10.75339,-4.34611 -6.58411,-2.88962 -12.73961,-6.80804 -19.64234,-8.90515 -2.59881,-0.5557 -8.43478,-5.79172 -7.92034,-0.45862 -0.35765,15.28301 0.59682,30.56122 0.80559,45.84177 0.45989,12.86352 0.21913,25.77688 1.48993,38.59608 0.41144,4.37739 6.39645,2.06559 9.42405,2.70318 7.28414,-0.16881 14.62759,-0.21765 21.82956,-1.41735 l 0.72094,-0.24583 0,0 z"
       style="fill:#ffffff;fill-opacity:1" />
    <path
       sodipodi:nodetypes="ccccccccccccccccccccccc"
       inkscape:connector-curvature="0"
       id="path4259"
       d="m 1090.7029,1493.61 c 37.4294,-11.7622 67.9305,-36.8505 97.8607,-61.124 17.3801,-17.7552 33.9022,-34.2614 49.1864,-51.7857 22.0845,-36.9958 43.329,-75.1786 58.0485,-115.7298 9.2656,-45.45 5.231,-92.5747 0.01,-138.2705 -14.1794,-61.2444 -17.007,-119.6901 -23.9584,-178.49705 -2.285,-27.70568 -6.012,-61.9932 19.916,-80.33478 19.8731,-12.33804 47.1244,-8.27709 67.2167,-0.95576 -24.7008,0.7786 -56.5129,-2.10464 -70.5477,23.37033 -13.422,26.54787 -7.1346,57.67781 -5.9076,86.17066 1.1982,26.8753 39.0476,23.51751 59.8563,22.79146 28.7219,-2.18376 56.0265,-16.04581 78.1871,-33.49486 19.9237,-38.65046 28.9919,-90.57891 2.0205,-128.14468 -20.4227,-25.97973 -52.4276,-43.56252 -86.0092,-40.53936 -44.2576,1.83273 -84.6387,28.12895 -107.5787,65.61996 -20.928,28.31821 -21.6903,64.12434 -19.4359,99.07478 16.296,67.284 42.8179,137.382 50.3679,201.749 2.7157,42.4989 -3.4314,85.2585 -11.8724,126.8354 -6.941,27.9292 -20.0726,54.7805 -38.3851,76.3603 -25.0068,24.4515 -53.4874,46.6441 -84.885,62.7302 -11.799,2.3648 -24.1906,31.1008 -39.4434,55.5167 -9.1043,13.877 -11.5362,15.6252 5.3568,8.6577 z"
       style="fill:#ffe5c4;fill-opacity:1" />
    <path
       sodipodi:nodetypes="ccccccccccccccccc"
       inkscape:connector-curvature="0"
       id="path4257"
       d="m 1124.9133,1415.0437 c 32.0949,-18.8474 62.5012,-42.5402 85.8563,-71.6006 32.1895,-65.2402 46.1917,-137.2437 32.8586,-210.8273 -16.1647,-61.5529 -45.2929,-123.6601 -43.4485,-189.84895 -4.3158,-61.10249 28.3694,-126.19269 87.8864,-147.95981 54.5929,-24.16384 132.7877,-5.49955 153.5649,55.10021 11.6895,33.36047 7.3259,70.31732 -4.3261,103.05299 57.6508,-48.19781 58.8117,-133.47498 39.7319,-200.42042 -20.5513,-72.42196 -83.3634,-130.95634 -158.3078,-142.51332 -39.9616,-8.48877 -81.2056,-6.28569 -121.5456,-2.05207 37.0006,33.85778 56.8498,86.12777 46.1085,135.81259 -14.4331,94.7472 -93.3872,165.75939 -178.0496,201.61477 -25.0677,11.81444 -63.1307,11.59321 -48.8733,52.69257 8.3807,32.67374 16.3954,64.69104 30.9092,95.26344 34.1097,80.5749 67.5603,163.8768 72.9117,252.0808 -0.2856,38.3184 -4.0466,51.1282 -0.2951,71.7276 z"
       style="fill:#f87e32;fill-opacity:1" />
    <path
       sodipodi:nodetypes="cccccsscsssssssssccccccccccscc"
       inkscape:connector-curvature="0"
       id="path4253"
       d="m 693.76607,621.90544 c 23.42121,-32.96258 75.74909,-63.07619 85.98393,-73.31523 43.50786,-29.00419 94.01271,-22.11251 124.68154,-9.18378 1.61235,0.39754 6.56235,2.57027 11,4.82828 43.51649,25.05559 68.36704,54.06773 77.65171,63.58521 2.29224,1.43153 4.42391,0.48795 9.15045,-4.0504 C 1007.975,598.25676 1017.3782,591 1018.7803,591 c 0.5025,0 1.995,-0.94287 3.3167,-2.09526 3.186,-2.77801 14.7525,-9.52259 17.903,-10.43953 1.375,-0.40018 3.6945,-1.56856 5.1544,-2.59641 1.4599,-1.02784 3.3724,-1.8688 4.25,-1.8688 0.8776,0 1.5956,-0.34312 1.5956,-0.76249 0,-0.41937 3.0375,-1.58494 6.75,-2.59017 3.7125,-1.00522 7.65,-2.20429 8.75,-2.66459 14.0788,-5.89138 48.8472,-6.73999 63.3757,-1.54683 2.4067,0.86024 5.0159,1.56408 5.7983,1.56408 0.7825,0 3.2621,0.88873 5.5103,1.97496 2.2482,1.08623 4.4953,1.72308 4.9934,1.41522 2.2062,-81.46804 -20.4608,-194.16938 -86.1992,-245.89696 C 1034.2747,304.24547 1007.2548,288.36382 980.34197,276 943.75414,254.03942 833.47407,237.95485 757.5,259.92431 c -36.68114,14.75473 -59.74514,24.00941 -83.23925,39.55291 -52.07881,34.70385 -81.3197,68.19019 -98.73107,133.31676 -9.75635,29.76531 -18.48701,64.08084 -23.02853,89.11488 -3.65552,39.47176 -6.0062,53.40962 -3.38527,61.63559 1.29408,1.29409 0,0 6.92734,-0.082 54.15864,-4.66613 91.57378,-0.83193 127.90579,35.32578 3.39535,3.41649 6.37806,6.2118 6.62825,6.2118 0.25018,0 1.68515,-1.39255 3.18881,-3.09456 z"
       style="fill:#f87e32;fill-opacity:1" />
    <path
       sodipodi:nodetypes="csccccc"
       inkscape:connector-curvature="0"
       id="path4247"
       d="m 668.45891,453.00993 c 9.98431,-2.41361 28.31849,-2.94818 35.54109,-1.03628 13.29016,3.51807 28.34005,10.26518 32.82143,14.7144 -11.98221,-2.92915 -34.88044,-8.32495 -50.32143,-8.61028 -19.24743,0.2156 -36.22282,5.83393 -52,12.35424 l -4,1.64082 c 10.68192,-8.89201 27.16418,-16.30079 37.95891,-19.0629 z"
       style="fill:#000000" />
    <path
       sodipodi:nodetypes="ccccc"
       inkscape:connector-curvature="0"
       id="path4245"
       d="m 951.68368,460.38194 c 26.05863,-24.63036 79.79232,-24.43187 102.64302,-0.3881 -1.0047,-0.003 -3.1016,-0.67112 -4.6599,-1.48386 -17.1549,-9.63775 -34.0652,-10.31308 -47.721,-10.68907 -14.81227,-1.14223 -51.05929,14.80569 -50.26212,12.56103 z"
       style="fill:#000000" />
    <path
       sodipodi:nodetypes="sccccccccccccs"
       inkscape:connector-curvature="0"
       id="path4243"
       d="m 1119.497,355.65415 c -0.3422,-8.88478 -1.044,-19.44921 -1.5596,-23.47651 -2.3733,-53.82768 -21.4241,-111.50119 -44.2501,-153.64755 -5.1495,-7.91176 -6.9412,-10.06606 -16.972,-20.40625 -11.2963,-9.54231 -31.3985,-16.37467 -49.6607,-19.40587 -19.0696,4.14462 -32.45852,28.10405 -38.80459,43.39129 -7.8622,20.05518 -17.67264,49.0678 -21.57569,69.0771 11.21719,3.96832 26.70654,10.26231 36.88596,13.81364 10.90371,-31.76443 21.23612,-91.20248 59.40272,-76 18.9562,8.4737 37.2573,63.59964 42.6817,95.47727 1.7264,14.55702 4.1433,38.19563 2.065,47.61601 -0.9065,1.45147 -0.3358,2.50511 3.3488,6.18326 8.7584,11.63432 14.1635,17.93476 22.1397,28.42333 6.4088,9.61866 7.0513,8.49192 6.2988,-11.04572 z"
       style="fill:#f87e32;fill-opacity:1" />
    <path
       sodipodi:nodetypes="cssccsccsssccccscc"
       inkscape:connector-curvature="0"
       id="path4241"
       d="m 616.84915,330.14401 c 2.26839,-2.34957 2.33366,-2.8665 1.89869,-15.03861 -0.24775,-6.93297 -0.13888,-17.3304 0.24194,-23.1054 0.86092,-13.05563 4.06523,-38.32723 4.945,-39 6.17312,-22.42783 18.09637,-51.70506 38.3352,-63.64503 13.3477,-4.57169 23.98176,2.09406 33.38521,17.14503 4.26691,6.82954 9.63128,18.57125 12.33532,27 3.77555,11.35147 7.52012,21.10539 10.33731,31.5 0.1803,0 4.19552,-1.51839 8.9227,-3.37421 4.72719,-1.85581 10.1935,-3.67411 12.14736,-4.04066 1.95387,-0.36654 5.17019,-1.34236 7.14738,-2.16849 3.31423,-1.38477 3.54672,-1.75245 2.97784,-4.70934 C 745.18703,211.67191 730.40408,169.70162 699.72186,145.52082 673.3591,128.59746 659.86746,143.44299 641.75,163.26803 618.49059,188.92242 604.89387,225.9377 598.52322,264 c -0.29865,1.925 -0.97303,5.525 -1.49862,8 -3.41106,16.0628 -9.09566,84.04528 -7.39774,88.47001 8.77637,-7.39065 19.54881,-20.68365 27.22229,-30.326 z"
       style="fill:#f87e32;fill-opacity:1" />
    <path
       inkscape:connector-curvature="0"
       id="path4239"
       d="m 1082.7984,318.94429 c -1.3818,-26.55373 -5.6348,-53.14852 -15.1631,-78.06976 -5.1248,-14.44287 -10.5627,-29.65335 -21.9461,-40.42636 -5.6057,-5.11283 -13.9685,-8.34351 -21.4057,-5.90411 -9.0149,5.34796 -13.7338,15.39033 -18.292,24.40235 -6.37536,14.19972 -11.74776,29.15721 -13.4758,44.69986 -1.3804,7.17866 7.753,7.52149 11.947,10.65663 10.0513,5.05237 20.3792,9.66402 29.713,15.98255 15.0627,9.15377 29.0563,20.08536 41.8998,32.13892 2.0103,3.1742 7.0343,6.46166 6.4495,0.15978 0.1392,-1.20906 0.2237,-2.42399 0.2734,-3.63986 z"
       style="fill:#ffb4b0;fill-opacity:1" />
    <path
       sodipodi:nodetypes="ccssscccc"
       inkscape:connector-curvature="0"
       id="path4216"
       d="m 681.5,281.96167 c 8.30264,-5.31226 18.77484,-9.21971 27.0109,-13.0718 4.51909,-2.12422 5.24006,-3.45856 3.59501,-6.65344 C 711.61416,261.28139 709.76774,256 708.00276,250.5 c -8.44179,-26.30614 -21.33017,-47.22948 -32.38142,-52.56886 -4.97773,-2.40498 -11.73062,-0.66432 -15.65558,1.72902 -18.021,18.61135 -24.33117,38.34918 -29.0251,60.29441 -3.551,20.95103 -7.39842,40.57422 -7.11723,61.53555 19.7134,-12.80165 37.35872,-28.67274 57.67657,-39.52845 z"
       style="fill:#ffb4b0;fill-opacity:1" />
    <circle
       r="33"
       cy="495.56216"
       cx="1003.6353"
       id="path4315"
       style="fill:#000000;fill-opacity:1;stroke:none;stroke-width:0.5;stroke-miterlimit:4;stroke-dasharray:none;stroke-opacity:1" />
    <circle
       style="fill:#000000;fill-opacity:1;stroke:none;stroke-width:0.5;stroke-miterlimit:4;stroke-dasharray:none;stroke-opacity:1"
       id="circle4317"
       cx="694.7038"
       cy="503.57733"
       r="33" />
    <g
       id="m0">
      <circle
         style="fill:#000000;fill-opacity:1;stroke:none;stroke-width:0.5;stroke-miterlimit:4;stroke-dasharray:none;stroke-opacity:1"
         id="pivot_m0"
         cx="850.30225"
         cy="983.09204"
         r="0" />
    </g>
    <g
       id="m1">
      <circle
         style="fill:#000000;fill-opacity:1;stroke:none;stroke-width:0.5;stroke-miterlimit:4;stroke-dasharray:none;stroke-opacity:1"
         id="pivot_m1"
         cx="692.09033"
         cy="1027.698"
         r="0" />
      <path
         style="fill:#000000"
         d="m 394.83962,1139.4632 c -66.356,-3.3232 -130.1071,-21.1869 -195.0502,-33.8109 -18.1611,-4.2961 -24.1333,-31.9148 -7.0803,-37.1073 9.5694,-1.9291 -16.5538,-8.7096 -7.3233,-19.5451 3.5074,-17.1002 53.2,-1.5447 29.1389,-20.8517 -13.4234,-19.8642 22.0691,-15.8934 33.3057,-14.7735 44.1003,6.3621 83.6232,30.582 128.3733,33.59 43.645,3.8972 88.1791,-0.9101 130.561,-12.1688 11.1534,-4.2401 25.9991,-6.3826 39.0183,-9.4308 34.9162,-10.3966 65.6011,-27.4551 102.166,-32.2715 25.7999,-0.1695 52.1954,1.2064 77.1422,8.1538 20.0953,6.1269 1.6968,33.0447 -3.5365,45.5194 -17.5872,27.6816 -31.2734,33.3653 -54.1721,46.6995 -46.2802,25.5244 -100.5787,36.8817 -152.557,42.9147 -38.9246,4.6209 -80.9012,4.2612 -119.986,3.0822 z"
         id="path4285"
         inkscape:connector-curvature="0"
         sodipodi:nodetypes="ccccccccccccccc" />
      <path
         style="fill:#f87e32;fill-opacity:1"
         d="m 494.30382,1132.2697 c 47.2331,-3.7112 94.2082,-12.8401 138.0447,-31.0739 35.5846,-16.5283 74.9101,-34.4439 87.9748,-71.1962 5.3931,-14.7926 6.6023,-22.7947 -12.9362,-25.2048 -31.6916,-2.9087 -64.3273,-2.937 -94.9116,6.1216 -27.5138,9.4814 -51.9216,22.1757 -80.1717,26.313 -26.8375,5.6488 -53.628,11.6183 -80.9017,15.0441 -20.7009,4.0295 -41.9184,3.2509 -62.9163,4.9565 -18.3911,-3.6474 -38.5537,-3.2547 -56.432,-10.561 -16.6034,-6.93 -33.5651,-13.0684 -50.9545,-18.5276 -18.7161,-5.8201 -39.8513,-8.2275 -59.9944,-8.1063 -11.2212,9.8361 21.0281,7.1128 23.9723,12.9658 -5.0229,23.439 -37.3793,7.4431 -53.71,15.6362 -11.629,7.57 29.4254,20.854 4.018,27.5248 -23.1763,13.2877 14.5027,21.3492 25.9186,23.2263 29.887,8.9565 60.5521,15.0975 91,21.302 45.0731,7.5219 91.3691,13.9026 137.4947,12.373 14.8333,-0.1432 29.6908,0.031 44.5053,-0.7935 z"
         id="path4283"
         inkscape:connector-curvature="0"
         sodipodi:nodetypes="cccccccccccccccccc" />
    </g>
    <g
       id="m2">
      <circle
         style="fill:#000000;fill-opacity:1;stroke:none;stroke-width:0.5;stroke-miterlimit:4;stroke-dasharray:none;stroke-opacity:1"
         id="pivot_m2"
         cx="441.87839"
         cy="1089.0314"
         r="0" />
    </g>
    <g
       id="m3">
      <circle
         style="fill:#000000;fill-opacity:1;stroke:none;stroke-width:0.5;stroke-miterlimit:4;stroke-dasharray:none;stroke-opacity:1"
         id="pivot_m3"
         cx="1014.09"
         cy="1025.6072"
         r="0" />
      <path
         style="fill:#000000"
         d="m 1462.0842,949.6383 c 10.3863,7.9791 -24.6579,25.2282 -0.3401,21.8838 14.872,-3.985 45.0244,1.6468 26.9525,21.158 -6.0737,9.6181 21.2058,1.3988 12.6934,17.618 -0.5458,18.6693 -20.3762,22.4434 -34.1804,28.5916 -54.1861,18.1015 -108.3151,37.2468 -163.9557,50.5711 -32.8598,5.7923 -65.7356,12.5336 -99.3062,12.4875 -27.5069,1.6093 -55.0436,2.969 -82.5631,3.1114 -25.8493,-1.7297 -28.5122,-4.1274 -45.1252,-7.3554 -41.1771,-8.3658 -118.35195,-33.4427 -114.19805,-87.7854 6.9379,-20.7988 35.5578,-18.5596 53.28325,-24.0137 41.7445,-4.1926 81.7639,7.527 123.0658,16.3745 38.0989,4.1206 76.8682,5.3322 115.5572,5.3163 23.5668,-1.7434 46.4963,-6.0917 69.1624,-12.1635 34.0665,-17.7245 67.2291,-33.9751 103.9958,-45.2669 11.0199,-1.7695 24.7276,-6.6735 34.9584,-0.5273 z"
         id="path4281"
         inkscape:connector-curvature="0"
         sodipodi:nodetypes="cccccccccccccccc" />
      <path
         style="fill:#f87e32;fill-opacity:1"
         d="m 1443.5443,954.3497 c -19.4292,3.4698 -39.1252,9.6333 -56.381,18.4958 -14.4589,6.5221 -28.5503,15.7494 -42.9223,22.8827 -49.6661,22.1892 -105.5144,19.9884 -158.6139,17.6677 -22.7374,-1.6093 -45.5342,-2.8127 -67.9638,-6.5594 -22.5472,-7.2577 -46.4981,-12.3213 -70.4993,-12.991 -23.871,-0.9996 -48.45975,1.0774 -71.26415,8.0313 -6.4904,16.8306 5.8549,37.6594 17.3975,50.1548 11.57505,15.3016 31.33145,19.5109 47.86605,27.8568 21.2631,7.662 42.7834,16.8042 65.8084,15.9178 40.2379,5.9553 80.681,-2.311 121.0005,-3.2556 27.8658,-3.8844 55.4858,-9.3607 83.3374,-13.3361 32.6211,-9.4445 65.364,-18.933 96.7402,-31.983 18.3878,-4.8297 33.8708,-16.0159 53.6126,-17.4829 13.4096,-1.5592 41.4738,-20.656 14.1383,-25.2655 -9.6512,-6.2315 23.9035,-31.8836 0.021,-27.9097 -13.7876,-1.6575 -45.3456,13.0739 -42.0589,-11.4244 9.0368,2.7517 35.7384,-16.0925 13.2287,-11.3625 l -3.4474,0.5632 0,0 z"
         id="path4279"
         inkscape:connector-curvature="0" />
    </g>
    <g
       id="m4">
      <circle
         style="fill:#000000;fill-opacity:1;stroke:none;stroke-width:0.5;stroke-miterlimit:4;stroke-dasharray:none;stroke-opacity:1"
         id="pivot_m4"
         cx="1258.7262"
         cy="1044.4253"
         r="0" />
    </g>
    <g
       id="m5">
      <circle
         r="0"
         cy="1441.6976"
         cx="829.39319"
         id="pivot_m5"
         style="fill:#000000;fill-opacity:1;stroke:none;stroke-width:0.5;stroke-miterlimit:4;stroke-dasharray:none;stroke-opacity:1" />
    </g>
    <g
       id="m6">
      <circle
         style="fill:#000000;fill-opacity:1;stroke:none;stroke-width:0.5;stroke-miterlimit:4;stroke-dasharray:none;stroke-opacity:1"
         id="pivot_m6"
         cx="623.39337"
         cy="1451.6978"
         r="0" />
      <path
         style="fill:#000000"
         d="m 585.35068,1758.9522 c -19.25391,-4.3742 -40.07405,-11.0524 -52.49036,-27.5911 -13.26601,-16.9273 -26.86428,-33.9361 -37.50008,-52.5995 -3.55984,-5.3713 -2.03844,-10.495 1.35762,-15.4297 8.38944,-15.4338 18.10386,-31.7907 33.85625,-40.5669 8.09261,-3.4519 28.30123,2.0103 15.70582,-11.677 -11.82145,-21.9662 -25.71745,-45.0074 -23.89447,-71.0032 3.35446,-45.6017 18.47715,-88.3129 50.11812,-115.9902 32.90737,-30.5819 102.04578,-45.5464 118.07516,-30.7701 32.24408,14.0333 72.10834,278.7614 29.79128,344.0367 -16.94225,7.3646 -36.00177,9.7231 -54.10253,13.6322 -24.37324,3.3401 -48.41246,10.086 -73.26514,8.4394 -2.55459,-0.074 -5.11083,-0.1941 -7.65167,-0.4806 z"
         id="path4293"
         inkscape:connector-curvature="0"
         sodipodi:nodetypes="ccccccccccccc" />
      <path
         style="fill:#f87e32;fill-opacity:1"
         d="m 640.02993,1746.5852 c 20.67688,-1.3005 55.77099,-11.9688 75.69815,-16.8894 24.55005,-73.3426 3.40178,-297.6636 -37.89635,-326.6239 -25.40092,-1.42 -44.13556,0.2981 -67.58083,11.0034 -17.46856,6.8745 -33.09826,18.073 -43.87028,33.6088 -19.4833,26.6344 -33.34272,58.6201 -32.83003,92.0877 -0.40106,20.0043 2.78018,40.1671 13.49768,57.3151 8.18612,15.719 19.43309,29.75 33.4989,40.5574 21.21363,18.3873 47.49078,29.7863 73.50044,39.8615 16.55367,5.7907 -10.02525,0.073 -15.0108,-2.8777 -12.39091,-3.6337 -24.07943,-9.1645 -35.97969,-14.085 -14.28492,-7.567 -27.81101,-16.4225 -40.41777,-26.5171 -11.84168,0.1927 -23.98333,6.1195 -34.74095,11.3776 -7.05328,1.4803 -20.55395,24.9209 -6.30556,15.4346 9.90139,-7.2904 23.9062,-15.9689 36.14295,-9.0878 3.61294,11.441 -17.58827,12.3883 -25.0401,17.9875 -13.1278,5.34 -26.58377,17.1978 -17.68627,32.1715 6.72315,15.1371 23.71227,3.2938 30.94794,-5.3416 11.52927,-11.0343 30.77564,-14.6624 43.93702,-4.5672 -1.76277,11.7063 -23.08577,8.9486 -32.36445,14.9372 -14.62021,0.8385 -18.00256,16.7814 -4.94317,22.291 25.30305,17.5918 57.67555,19.6123 87.44317,17.3564 z"
         id="path4291"
         inkscape:connector-curvature="0"
         sodipodi:nodetypes="cccccccccccccccccccccc" />
    </g>
    <g
       transform="translate(-22,10)"
       id="m7">
      <circle
         r="0"
         cy="1590.8491"
         cx="621.69641"
         id="pivot_m7"
         style="fill:#000000;fill-opacity:1;stroke:none;stroke-width:0.5;stroke-miterlimit:4;stroke-dasharray:none;stroke-opacity:1" />
    </g>
    <g
       id="m8">
      <circle
         style="fill:#000000;fill-opacity:1;stroke:none;stroke-width:0.5;stroke-miterlimit:4;stroke-dasharray:none;stroke-opacity:1"
         id="pivot_m8"
         cx="1045.4536"
         cy="1422.1826"
         r="0" />
      <path
         style="fill:#000000"
         d="m 1033.8026,1740.2035 c -10.7381,-1.5605 -17.5539,5.2859 -24.5655,-15.4911 -14.33869,-77.2906 -112.14809,-309.6568 -16.9173,-344.7981 30.7958,-9.0461 63.6231,-3.6424 92.7764,8.4278 25.4806,7.8897 48.1987,23.9315 63.226,46.0928 18.3596,23.6999 20.1118,55.0343 23.6684,83.7185 2.3878,24.4779 -3.833,49.0197 -15.9685,70.2575 -0.8848,8.6366 21.1455,-0.6721 28.7129,5.6168 17.9011,4.2791 20.523,24.4717 22.6304,39.6625 3.564,13.6144 1.8859,28.4819 -5.4274,40.6116 -5.0376,14.4453 -14.7394,26.1141 -23.6695,38.1544 -12.3514,14.1299 -29.5726,23.1142 -48.1568,25.5616 -27.3615,4.2061 -55.3293,2.1424 -82.9411,2.5429 -4.4569,-0.073 -8.9148,-0.1699 -13.368,-0.3572 z"
         id="path4289"
         inkscape:connector-curvature="0"
         sodipodi:nodetypes="cccccccccccccc" />
      <path
         style="fill:#f87e32;fill-opacity:1"
         d="m 1119.3026,1722.7509 c 15.5626,-0.4397 32.239,-2.1914 45.4702,-10.9974 9.7052,-8.1048 23.5916,-22.5047 14.9856,-35.5382 -14.5914,-7.7888 -32.0333,-7.8474 -48.1575,-9.9571 -18.8441,-0.7352 6.8963,-7.639 13.249,-5.9071 15.4881,-0.9328 29.9348,5.2691 44.2458,9.5066 12.8618,-4.8725 12.5721,-26.7683 5.67,-33.8225 -8.6479,-6.3671 -20.2876,-9.205 -30.6934,-12.3106 -6.5363,-0.4125 -27.7397,-4.9921 -9.9334,-7.3847 14.5308,1.5104 29.1515,4.6355 42.2043,11.3131 12.0632,10.209 3.0158,-10.3013 0.2198,-15.1006 -11.132,-6.8207 -23.0972,-14.2513 -36.3838,-12.2242 -17.2178,0.042 -22.1223,20.6752 -34.5429,29.3176 -19.0211,19.6596 -44.3537,33.7601 -71.7837,36.5535 5.4653,-7.7667 24.1541,-13.4978 33.0514,-23.0634 13.3491,-10.6529 26.5212,-21.9529 37.3986,-35.1356 9.6781,-13.99 19.5016,-28.4156 24.9897,-44.6245 9.4572,-23.568 10.9249,-49.6517 8.3109,-74.754 -4.4519,-31.7251 -26.0322,-58.6457 -51.8765,-76.3775 -19.3622,-11.92 -40.7729,-20.8583 -63.5061,-23.7686 -145.27521,-8.3527 -40.8633,262.5845 -19.8965,324.9244 5.0009,8.1485 24.5763,4.1182 35.1632,7.4922 17.2155,1.2119 34.5927,2.3679 51.7793,2.5452 3.3362,-0.3451 6.6864,-0.5354 10.036,-0.6866 z"
         id="path4287"
         inkscape:connector-curvature="0"
         sodipodi:nodetypes="cccccccccccccccccccccccc" />
    </g>
    <g
       id="m9">
      <circle
         r="0"
         cy="1578.3037"
         cx="1091.4535"
         id="pivot_m9"
         style="fill:#000000;fill-opacity:1;stroke:none;stroke-width:0.5;stroke-miterlimit:4;stroke-dasharray:none;stroke-opacity:1" />
    </g>
  </g>
</svg>
