<?xml version="1.0" encoding="UTF-8" standalone="no"?>
<!-- Created with Inkscape (http://www.inkscape.org/) -->

<svg
   xmlns:dc="http://purl.org/dc/elements/1.1/"
   xmlns:cc="http://creativecommons.org/ns#"
   xmlns:rdf="http://www.w3.org/1999/02/22-rdf-syntax-ns#"
   xmlns:svg="http://www.w3.org/2000/svg"
   xmlns="http://www.w3.org/2000/svg"
   xmlns:sodipodi="http://sodipodi.sourceforge.net/DTD/sodipodi-0.dtd"
   xmlns:inkscape="http://www.inkscape.org/namespaces/inkscape"
   id="svg4206"
   version="1.1"
   inkscape:version="0.91 r13725"
   width="400"
   height="400"
   viewBox=""
   sodipodi:docname="ardilla_terminator2.svg">
  <metadata
     id="metadata4212">
    <rdf:RDF>
      <cc:Work
         rdf:about="">
        <dc:format>image/svg+xml</dc:format>
        <dc:type
           rdf:resource="http://purl.org/dc/dcmitype/StillImage" />
        <dc:title></dc:title>
      </cc:Work>
    </rdf:RDF>
  </metadata>
  <defs
     id="defs4210" />
  <sodipodi:namedview
     pagecolor="#ffffff"
     bordercolor="#666666"
     borderopacity="1"
     objecttolerance="10"
     gridtolerance="10"
     guidetolerance="10"
     inkscape:pageopacity="0"
     inkscape:pageshadow="2"
     inkscape:window-width="2560"
     inkscape:window-height="1320"
     id="namedview4208"
     showgrid="false"
     inkscape:zoom="2.0290908"
     inkscape:cx="64.10714"
     inkscape:cy="210.97915"
     inkscape:window-x="0"
     inkscape:window-y="0"
     inkscape:window-maximized="1"
     inkscape:current-layer="svg4206" />
  <g
     id="puppet">
    <g
       id="m5">
      <circle
         style="fill:#000000;fill-opacity:1;stroke:none;stroke-width:0.5;stroke-miterlimit:4;stroke-dasharray:none;stroke-opacity:1"
         id="pivot_m5"
         cx="224"
         cy="327"
         r="0" />
      <path
         style="opacity:1;fill:#000000;fill-opacity:1;stroke:none;stroke-opacity:1"
         d="m 264.12721,92.59345 c -5.79684,0.0085 -11.55159,0.957302 -17.06214,2.999171 -49.79871,22.451409 -46.53944,64.719399 -45.9685,94.202959 2.57063,54.48033 39.2862,84.56912 17.67652,142.87082 11.7394,-1.69019 21.1883,-4.59693 30.47636,-13.13594 13.2998,-10.59812 23.79136,-25.16589 29.6,-41.51203 7.31816,-23.65272 -0.7205,-48.31377 -2.09065,-72.16699 0.20943,-6.76122 5.79815,6.91516 30.62098,-6.00645 19.76731,-11.45415 23.83042,-29.89065 22.4778,-49.15818 -1.89979,-30.76365 -34.42741,-58.139121 -65.73037,-58.09336 z"
         id="path5596"
         inkscape:connector-curvature="0"
         sodipodi:nodetypes="sccccccccs" />
      <path
         sodipodi:nodetypes="cccccccccccc"
         inkscape:connector-curvature="0"
         id="path4257"
         d="m 233.41128,310.06952 c 8.32641,-4.8896 17.10977,-9.50197 22.27381,-18.57543 8.35096,-16.92535 11.98357,-35.60531 8.52454,-54.69519 -4.19363,-15.96876 -11.75039,-32.08131 -11.2719,-49.25277 -1.11965,-15.85189 7.35992,-32.73833 22.80048,-38.3854 14.16311,-6.26885 34.44929,-1.42676 39.83954,14.29471 3.03263,8.65476 1.90057,18.24252 -1.12232,26.73517 41.57234,-44.06263 -18.46735,-106.464154 -62.6786,-92.057222 -42.02138,15.183542 -49.28229,56.314382 -47.04563,92.085302 -0.11491,9.40586 2.66643,23.79536 8.5391,36.39545 13.03881,33.5056 19.63811,63.28437 18.83902,84.00603 z"
         style="fill:#967575;fill-opacity:1" />
      <path
         sodipodi:nodetypes="ccccccccccccccccccccc"
         inkscape:connector-curvature="0"
         id="path4259"
         d="m 249.92416,314.5946 c 4.50894,-4.60625 8.79528,-8.88847 12.76049,-13.43482 7.13581,-8.95858 12.51945,-17.20227 15.05959,-30.02394 2.40379,-11.79115 1.35709,-24.01677 0.002,-35.87169 -3.67858,-15.88872 -4.41215,-31.05136 -6.21556,-46.30773 -0.5928,-7.18771 -1.5597,-16.08296 5.16683,-20.84135 5.15571,-3.20087 12.22555,-2.14733 17.43812,-0.24795 -6.40816,0.20199 -14.66122,-0.54601 -18.30229,6.06299 -3.48208,6.88735 -1.85093,14.96343 -1.53261,22.35537 0.31085,6.9723 10.13017,6.10118 15.5286,5.91282 7.45136,-0.56654 14.53502,-4.16278 20.28418,-8.68962 5.16883,-10.02714 7.5214,-23.499 0.52417,-33.24474 -5.29828,-6.73995 -13.60135,-11.30148 -22.31347,-10.51717 -11.4818,0.47546 -21.95792,7.29753 -27.90928,17.02387 -4.66224,6.8352 -5.62714,16.63585 -5.04228,25.70309 1.41486,17.96699 11.10831,35.64119 13.06701,52.34001 0.70454,11.02554 -0.89021,22.11872 -3.08007,32.90506 -1.80072,7.24571 -5.20747,14.21179 -9.9583,19.81026 -6.48755,6.34348 -13.8763,12.10094 -22.02183,16.27417 -5.36044,11.56081 -8.45691,14.5961 0.55929,11.4052 5.247,-3.21698 13.2145,-8.36814 15.98481,-10.61383 z"
         style="fill:#ffe5c4;fill-opacity:1" />
    </g>
    <path
       style="opacity:1;fill:#000000;fill-opacity:1;stroke:none;stroke-opacity:1"
       d="m 213.16904,225.11901 c -2.33366,-7.00444 -8.12982,-27.77756 -10.17391,-35.14263 -9.24255,-3.43489 -80.77217,-1.38114 -85.65484,2.22197 -5.62877,22.37673 -16.35995,46.21405 -25.173435,67.59604 -10.705568,26.11145 -8.312125,57.72642 9.223475,80.3178 11.29517,13.65449 28.856,21.98888 46.04196,25.31683 7.91549,0.71281 15.9189,1.31413 23.74608,-0.01 64.03382,-9.66524 70.27727,-70.17354 41.99067,-140.30041 z"
       id="path4209"
       inkscape:connector-curvature="0"
       sodipodi:nodetypes="cccccccc" />
    <path
       style="fill:#ffe5c4;fill-opacity:1"
       d="m 121.47129,194.28668 c -5.76449,18.38147 -25.114505,60.97158 -31.289695,86.33903 -3.05772,19.92578 0.53073,41.35667 13.545145,57.35357 7.5442,11.03098 19.97218,17.92791 32.61487,21.47499 -19.48945,-9.58672 -28.99994,-31.14242 -33.73569,-51.1234 -4.932285,-21.29392 6.52211,-63.54498 15.02219,-83.32746 -4.09468,20.8273 -15.24905,62.38079 -12.06154,83.59875 3.18875,17.91536 11.71695,37.20262 28.72898,45.9865 18.70636,8.60186 43.21986,7.5396 58.09082,-7.76037 14.13517,-13.18502 20.69229,-33.13326 18.72769,-52.19402 -1.20687,-22.29342 -5.48697,-53.67034 -10.27539,-75.42186 9.57413,28.02486 17.66599,67.72498 12.82867,97.43497 -3.11007,18.56789 -15.78838,35.73622 -34.21504,41.67753 -3.12316,1.51391 -15.67328,3.90245 -5.68772,2.84853 20.81577,-2.26647 40.60205,-15.67032 47.60308,-35.58759 10.38421,-28.19566 3.54171,-59.12159 -6.90784,-86.4769 -5.07199,-16.46968 -10.15881,-32.38795 -13.44864,-45.63687 -9.98451,-4.18317 -68.52017,-2.64255 -79.53989,0.8146 z"
       id="path5599"
       inkscape:connector-curvature="0"
       sodipodi:nodetypes="cccccccccccccccccc" />
    <g
       id="m6">
      <circle
         r="0"
         cy="313"
         cx="115"
         id="pivot_m6"
         style="fill:#000000;fill-opacity:1;stroke:none;stroke-width:0.5;stroke-miterlimit:4;stroke-dasharray:none;stroke-opacity:1" />
      <path
         style="fill:#000000;fill-opacity:1"
         d="m 115.39101,302.94917 c -7.19924,-0.15345 -18.889115,3.51779 -25.292015,9.46824 -8.208655,7.18036 -12.132219,18.26097 -13.002471,30.09148 -0.939162,28.15699 32.956106,43.93176 54.481156,43.3375 4.63538,-25.11107 -3.6674,-78.28707 -10.84654,-81.41158 -1.03964,-0.95836 -2.94039,-1.4345 -5.34013,-1.48564 z"
         id="path4293"
         inkscape:connector-curvature="0"
         sodipodi:nodetypes="sccccs" />
      <path
         style="fill:#967575;fill-opacity:1"
         d="m 99.891515,309.81852 c -4.53189,1.78347 -8.58643,4.68834 -11.38103,8.71881 -5.054576,6.9098 -8.650156,15.20795 -8.517149,23.89049 -0.104051,5.18974 0.721362,10.42042 3.501817,14.86915 8.712692,15.58505 30.430957,24.97475 45.572237,25.8124 3.13139,-23.93015 -2.23953,-69.55143 -11.64299,-76.1456 -6.13966,-0.45009 -12.80402,0.7351 -17.532885,2.85475 z"
         id="path4291"
         inkscape:connector-curvature="0"
         sodipodi:nodetypes="ccccccc" />
      <g
         id="m7">
        <circle
           style="fill:#000000;fill-opacity:1;stroke:none;stroke-width:0.5;stroke-miterlimit:4;stroke-dasharray:none;stroke-opacity:1"
           id="pivot_m7"
           cx="105"
           cy="373"
           r="0" />
        <path
           style="fill:#000000;fill-opacity:1"
           d="m 131.89733,384.19169 c -9.28182,-13.13625 -36.654145,-21.30367 -47.615266,-20.7839 -7.434336,0.71564 -10.704499,5.84811 -13.844104,11.59435 -2.520811,6.04399 4.493954,14.31101 9.014378,18.28179 4.48689,3.11535 8.984677,5.39051 13.979747,6.52532 0.65917,0.0743 1.32201,0.10547 1.98475,0.12466 6.447555,0.42717 12.684205,-1.32295 19.007385,-2.18948 4.69591,-1.01414 9.64029,-1.62616 14.03564,-3.53677 1.55649,-2.40094 2.6717,-5.86764 3.43747,-10.01597 z"
           id="path5782"
           inkscape:connector-curvature="0"
           sodipodi:nodetypes="ccccccccc" />
        <path
           style="fill:#967575;fill-opacity:1"
           d="m 129.0674,383.62823 c -8.83216,-8.99798 -29.751725,-17.91085 -41.527751,-16.22913 -3.072102,0.05 -6.221839,1.58791 -9.012703,2.95204 -1.829841,0.38403 -5.332112,6.46499 -1.635633,4.00395 2.568731,-1.89136 6.201921,-4.14285 9.376516,-2.35768 0.93731,2.96816 -4.563187,3.21412 -6.496424,4.66673 -3.405762,1.38536 -6.896472,4.46175 -4.588182,8.3464 1.744195,3.92703 6.151527,0.85445 8.028687,-1.38584 2.991054,-2.86264 7.984295,-3.80419 11.398755,-1.18518 -0.45731,3.03698 -5.98937,2.32163 -8.396546,3.87525 -3.79294,0.21754 -4.670476,4.35362 -1.282462,5.78299 6.564408,4.56386 14.962888,5.0883 22.685533,4.50305 5.36423,-0.33739 14.46902,-3.1054 19.63875,-4.38195 0.77908,-2.32749 1.37503,-5.25545 1.81146,-8.59063 z"
           id="path5779"
           inkscape:connector-curvature="0"
           sodipodi:nodetypes="cccccccccccccc" />
      </g>
    </g>
    <g
       id="m8">
      <circle
         r="0"
         cy="310"
         cx="205"
         id="pivot_m8"
         style="fill:#000000;fill-opacity:1;stroke:none;stroke-width:0.5;stroke-miterlimit:4;stroke-dasharray:none;stroke-opacity:1" />
      <path
         style="fill:#000000;fill-opacity:1"
         d="m 208.14479,299.79088 c -3.06619,-0.0677 -6.13627,0.28486 -9.13229,1.16493 -21.17116,7.8124 -4.85321,55.61285 2.38605,81.05736 12.52399,-0.45774 32.94136,-13.06037 40.08324,-26.96696 3.14833,-5.50974 3.86727,-11.49266 4.14279,-18.22657 -0.15556,-7.82515 -1.37715,-15.57078 -6.1402,-21.71927 -3.89855,-5.74934 -9.40893,-9.27203 -16.14723,-12.21388 -4.72706,-1.95712 -10.08195,-2.98262 -15.19228,-3.09561 z"
         id="path4289"
         inkscape:connector-curvature="0"
         sodipodi:nodetypes="cccccccsc" />
      <path
         style="fill:#967575;fill-opacity:1"
         d="m 211.95823,303.17719 c -32.79898,-1.88581 -16.55168,51.04632 -8.19539,75.48739 12.09153,-3.37248 22.06593,-9.6559 29.49003,-18.53615 2.5108,-3.62945 5.05947,-7.37203 6.48326,-11.57712 2.45349,-6.11428 2.83415,-12.88119 2.15601,-19.3935 -1.15497,-8.23049 -6.75368,-15.2144 -13.45849,-19.81459 -5.02317,-3.09242 -10.57772,-5.41101 -16.47542,-6.16603 z"
         id="path4287"
         inkscape:connector-curvature="0"
         sodipodi:nodetypes="ccccccc" />
      <g
         id="m9">
        <circle
           style="fill:#000000;fill-opacity:1;stroke:none;stroke-width:0.5;stroke-miterlimit:4;stroke-dasharray:none;stroke-opacity:1"
           id="pivot_m9"
           cx="225"
           cy="365"
           r="0" />
        <path
           style="fill:#000000;fill-opacity:1"
           d="m 241.49995,355.31982 c -17.46082,1.04776 -32.35297,8.13036 -41.28955,22.63939 1.20864,4.24817 2.65844,9.5794 3.19064,12.44819 1.81903,5.39021 3.5875,3.6138 6.3733,4.01865 1.15529,0.0485 2.3116,0.0738 3.46787,0.0928 7.16336,-0.10388 14.41916,0.43149 21.51759,-0.6597 4.82132,-0.63494 9.28891,-2.96549 12.49325,-6.63123 2.31674,-3.12363 4.8338,-6.15086 6.14071,-9.89841 1.8973,-3.14683 2.33273,-7.00434 1.40812,-10.53634 -0.54673,-3.94097 -1.22703,-9.17948 -5.87114,-10.28961 -1.87195,-1.55569 -2.66763,-1.232 -7.43079,-1.18366 z"
           id="path5063"
           inkscape:connector-curvature="0"
           sodipodi:nodetypes="ccccccccccc" />
        <path
           sodipodi:nodetypes="ccccccccccccccc"
           inkscape:connector-curvature="0"
           id="path5060"
           d="m 203.76284,378.66458 c 1.24582,3.6439 2.32788,6.70965 3.03361,8.80801 8.16324,2.95204 17.13069,2.792 25.15926,2.42558 4.03742,-0.11408 8.36393,-0.56818 11.79653,-2.85274 2.51782,-2.10263 6.12008,-5.83865 3.88741,-9.21995 -3.78546,-2.02066 -8.3101,-2.03584 -12.49322,-2.58315 -4.88875,-0.19074 1.78885,-1.98157 3.43695,-1.53226 4.01809,-0.242 7.7661,1.36677 11.47881,2.4661 3.33676,-1.26408 3.26158,-6.94445 1.47096,-8.77454 -2.24354,-1.65182 -5.26321,-2.38806 -7.9628,-3.19375 -1.69572,-0.10702 -7.1966,-1.29514 -2.5771,-1.91585 3.76975,0.39184 7.563,1.20244 10.94933,2.93482 3.12957,2.64853 0.78211,-2.67222 0.0567,-3.91731 -2.888,-1.76951 -5.99188,-3.69734 -9.43884,-3.17145 -16.13372,-0.4122 -30.88451,11.38276 -38.79764,20.52649 z"
           style="fill:#967575;fill-opacity:1" />
      </g>
    </g>
    <g
       id="m0">
      <circle
         style="fill:#c4834f;fill-opacity:1;stroke:none;stroke-width:0.5;stroke-miterlimit:4;stroke-dasharray:none;stroke-opacity:1"
         id="pivot_m0"
         cx="158"
         cy="208"
         r="0" />
      <path
         sodipodi:nodetypes="ccccc"
         inkscape:connector-curvature="0"
         id="path6276"
         d="m 186.06923,27.824686 c 15.86098,10.278274 26.86802,23.015422 36.70693,35.856582 7.52207,1.390477 2.78017,-34.681314 1.07198,-43.038086 -2.01006,-16.9670154 -21.8693,-31.768057 -31.79297,-8.11066 -3.26916,8.139402 -3.93579,9.559826 -5.98594,15.292164 z"
         style="fill:#000000;fill-opacity:1;stroke:none;stroke-opacity:1" />
      <path
         style="fill:#967575;fill-opacity:1"
         d="m 224.51639,60.234482 c 0.2636,-2.322945 0.27631,-3.541701 0.3116,-4.612059 1.52694,-14.087858 -0.84171,-28.940358 -4.53637,-40.982607 -6.37942,-16.240792 -19.49453,-14.68992589 -24.72897,-4.157955 -2.60879,4.82688 -6.01812,11.885058 -7.70181,16.891054 2.46276,1.571355 5.83199,3.952567 8.06883,5.365591 3.77074,-7.719782 8.47779,-22.651052 16.79162,-16.863131 4.09357,3.114307 6.23121,18.307676 6.26428,26.844637 -0.15187,4.565618 -0.53792,9.830554 -0.61903,12.477064 3.3303,4.358007 5.6376,8.971427 6.14971,5.037399 z"
         id="path4243"
         inkscape:connector-curvature="0"
         sodipodi:nodetypes="cccccccccc" />
      <path
         style="fill:#ffb4b0;fill-opacity:1"
         d="m 216.95638,51.149307 c 0.704,-6.959861 0.74,-14.06892 -0.51908,-20.998047 -0.63701,-3.996537 -1.31735,-8.207461 -3.55586,-11.553293 -1.10979,-1.59773 -2.93534,-2.839877 -4.76417,-2.565447 -2.30917,0.953348 -3.79791,3.332623 -5.20929,5.452171 -2.03571,3.378569 -3.8668,7.002238 -4.87056,10.953656 -0.59935,1.796934 1.51748,2.326598 2.37446,3.342811 2.14895,1.796516 4.37944,3.491967 6.31209,5.582562 3.15925,3.102993 6.00034,6.615939 8.52993,10.364634 0.34617,0.920996 1.39081,2.016803 1.49804,0.352643 0.0792,-0.307146 0.14584,-0.618461 0.20444,-0.93169 z"
         id="path4239"
         inkscape:connector-curvature="0" />
      <path
         sodipodi:nodetypes="cccsssssssssscc"
         inkscape:connector-curvature="0"
         id="path4277"
         d="M 104.42111,0.49953146 C 89.036105,8.4993502 90.396795,32.099428 92.505755,48.334443 c 2.03402,12.189414 3.30012,22.145841 5.1218,21.952353 1.81826,-3.480648 2.07956,-4.353356 3.108035,-6.342465 1.02848,-1.989096 2.04913,-3.856741 3.06024,-5.613982 1.0111,-1.757242 2.01267,-3.404081 3.00366,-4.951483 0.99097,-1.547409 1.97151,-2.995747 2.93964,-4.355346 0.96812,-1.359603 1.92402,-2.630738 2.86654,-3.824559 0.94251,-1.193831 1.87141,-2.309936 2.78556,-3.360008 0.91415,-1.050086 1.81353,-2.033827 2.69658,-2.962192 0.88305,-0.928366 1.74963,-1.801674 2.59883,-2.630356 0.8492,-0.828675 1.68084,-1.61272 2.49346,-2.363744 1.62521,-1.502054 3.30197,-2.359806 4.76434,-3.683412 1.46238,-1.323608 0.964,-0.70065 2.24157,-2.022046 -1.99856,-8.96067 -18.18331,-31.832759 -25.7649,-27.67767154 z"
         style="fill:#000000;fill-opacity:1;stroke:none;stroke-opacity:1" />
      <path
         style="fill:#ffb4b0;fill-opacity:1"
         d="m 113.75729,39.624869 c 1.55307,-1.905971 3.68939,-3.595937 5.32007,-5.124207 0.89406,-0.841264 0.97346,-1.229977 0.39587,-1.938249 -0.17265,-0.211713 -0.92865,-1.440141 -1.68001,-2.729825 -3.59367,-6.168494 -7.85785,-10.667397 -10.71354,-11.303295 -1.28628,-0.286428 -2.71337,0.604167 -3.45505,1.475034 -2.92102,5.947294 -3.10382,11.409874 -2.77835,17.330171 0.52257,5.590694 0.89327,10.861469 2.28911,16.201946 3.67552,-4.573634 6.6851,-9.795561 10.6219,-13.911575 z"
         id="path4216"
         inkscape:connector-curvature="0"
         sodipodi:nodetypes="ccssscccc" />
      <path
         style="fill:#967575;fill-opacity:1"
         d="m 102.09713,56.209101 c 0.36724,-0.750371 0.34927,-0.886835 -0.52316,-3.970092 -0.4969,-1.756148 -1.13273,-4.421566 -1.41294,-5.923151 -0.633475,-3.39464 -1.509495,-10.067072 -1.351905,-10.297128 -0.0193,-6.141271 0.83552,-14.413084 4.685435,-18.80109 2.74892,-2.049523 5.5939,-1.046985 8.69142,2.180507 1.40554,1.46452 3.37307,4.112486 4.52433,6.08898 1.58095,2.653035 3.05335,4.899671 4.35529,7.371295 0.041,-0.01186 0.85887,-0.665022 1.81738,-1.451397 0.95851,-0.786373 2.08771,-1.611922 2.50932,-1.834557 0.42162,-0.222632 1.09201,-0.684333 1.48974,-1.026003 0.6667,-0.572712 0.69627,-0.682051 0.37886,-1.400484 C 123.79337,17.452194 117.76053,7.6973738 109.23759,3.5397232 94.174585,-0.42686874 92.723395,29.253234 93.721605,40.507737 c 0.0543,0.511855 0.12944,1.476739 0.16704,2.144179 0.24385,4.331731 3.2688,22.087389 3.93656,23.106593 1.52887,-2.468594 3.137245,-6.577901 4.271915,-9.549408 z"
         id="path4241"
         inkscape:connector-curvature="0"
         sodipodi:nodetypes="cssccsccssscccscc" />
      <path
         style="fill:#000000;fill-opacity:1"
         d="m 143.90402,216.30388 c -3.18293,-0.61585 -10.52654,-2.6812 -11.01953,-3.09917 -0.13638,-0.11562 -0.38507,-1.08851 -0.55269,-2.162 l -0.30473,-1.95181 -22.71137,-24.54564 -22.711357,-24.54561 0.09732,-37.89717 c 0.09561,-37.235424 0.108728,-37.95861 0.749955,-41.416186 1.812796,-9.774379 4.210266,-16.443386 8.828916,-24.558952 5.532346,-9.721082 13.260096,-18.008704 22.517636,-24.149072 6.20529,-4.115821 12.48933,-7.076238 19.29197,-9.088497 31.73883,-9.388424 65.79262,4.378449 82.21657,33.237569 4.63898,8.151379 7.01392,14.757016 8.82968,24.558952 0.64016,3.456081 0.65357,4.196652 0.74927,41.416186 l 0.0974,37.89717 -22.72535,25.03918 c -12.49902,13.77156 -22.78314,25.28282 -22.85364,25.58059 -0.0705,0.29776 -0.24433,1.02436 -0.38627,1.61466 l -0.25805,1.0733 -3.87643,1.17484 c -2.13206,0.64614 -5.4716,1.47472 -7.42121,1.84121 l -3.54474,0.66639 -0.83263,-0.79113 c -2.85934,-2.71679 -16.71953,-2.72001 -19.57747,-0.004 -0.45531,0.43263 -0.94432,0.77612 -1.08672,0.76333 -0.14236,-0.0127 -1.7248,-0.3069 -3.51653,-0.65358 z"
         id="path5026"
         inkscape:connector-curvature="0" />
      <path
         inkscape:connector-curvature="0"
         id="path4960"
         d="m 103.06438,92.326167 c 6.99074,-7.44409 12.98597,-13.807075 13.3228,-14.139975 l 0.61237,-0.605244 -3.46822,-18.16603 -3.46822,-18.166028 -1.33882,1.311512 c -6.83979,6.700163 -13.308425,17.401806 -16.579885,27.429529 -2.86678,8.787431 -3.5086,13.778354 -3.5086,27.284143 l 0,10.365116 0.85907,-0.88915 c 0.47249,-0.48906 6.57879,-6.979794 13.569505,-14.423873 z"
         style="fill:#5c5c5c;fill-opacity:1" />
      <path
         inkscape:connector-curvature="0"
         style="fill:#787676;fill-opacity:1"
         d="m 147.75357,215.082 c 0.38962,-0.56147 2.70404,-1.3967 4.91355,-1.77321 1.25381,-0.21366 3.89685,-0.38848 5.87339,-0.38848 5.24112,0 8.96066,0.73481 10.7329,2.12029 0.50449,0.39442 0.76992,0.39076 3.13656,-0.0431 3.30412,-0.60572 10.15399,-2.59379 10.30708,-2.99143 0.0643,-0.16713 1.56079,-10.10582 3.3254,-22.08601 l 3.20841,-21.78215 -5.02481,-4.48106 -5.02478,-4.4811 1.40609,-6.68793 c 0.77336,-3.67837 1.33621,-6.85015 1.25081,-7.04835 -0.17279,-0.40106 -19.64557,-12.75695 -19.83665,-12.5868 -0.0663,0.059 0.3346,0.70979 0.89098,1.44597 1.76263,2.33235 4.73392,7.07644 5.70505,9.10895 2.04018,4.27005 0.75338,6.73697 -4.97764,9.5426 -1.07721,0.52737 -2.11817,0.95886 -2.31324,0.95886 -0.26458,0 -0.35469,-2.84572 -0.35469,-11.20066 0,-9.29692 0.0727,-11.25439 0.42763,-11.51678 0.34451,-0.25461 3.18064,1.42012 14.58464,8.61221 l 14.15702,8.92829 19.152,-9.08171 19.15195,-9.0817 0,-10.39211 0,-10.3921 -14.81671,-15.731769 c -8.14927,-8.652489 -14.86127,-15.96637 -14.91569,-16.253115 -0.0544,-0.286747 1.50969,-8.922183 3.4758,-19.189874 l 3.57471,-18.668518 -1.04434,-0.98086 c -0.57437,-0.539495 -2.40767,-1.99377 -4.074,-3.231735 l -3.0297,-2.250848 -1.0766,1.813407 c -1.63436,2.753013 -2.76174,4.077572 -5.23323,6.148487 -3.41808,2.864106 -7.08081,4.601419 -11.4331,5.422949 -2.977,0.561934 -39.6867,0.561934 -42.6637,0 -4.35227,-0.82153 -8.015,-2.558843 -11.4331,-5.422949 -2.47146,-2.070915 -3.59884,-3.395474 -5.23324,-6.148487 l -1.07657,-1.813407 -3.02967,2.250848 c -1.66634,1.237965 -3.49849,2.691186 -4.07146,3.229351 l -1.04176,0.978506 3.55489,18.615408 c 1.95518,10.238459 3.55232,18.835022 3.54922,19.10347 -0.003,0.268446 -6.70742,7.612291 -14.89842,16.31971 l -14.892745,15.831616 0,10.37854 0,10.37855 19.179805,9.08487 19.17983,9.08484 14.14777,-8.93299 c 12.07551,-7.62455 14.20965,-8.8779 14.57009,-8.55687 0.34732,0.30934 0.41878,2.33963 0.40253,11.43634 -0.0109,6.08309 -0.0937,11.12606 -0.18414,11.20657 -0.24821,0.22107 -3.84399,-1.50872 -5.44384,-2.61881 -3.09417,-2.14703 -3.67553,-4.40427 -2.02434,-7.86013 0.97112,-2.03251 3.9424,-6.7766 5.70504,-9.10895 0.55637,-0.73618 0.95894,-1.38544 0.89456,-1.44274 -0.12056,-0.10738 -18.90277,11.6582 -19.4994,12.21488 -0.24354,0.22725 0.0633,2.17676 1.13519,7.2141 l 1.46894,6.9027 -5.15322,4.6018 -5.15322,4.6018 3.18003,21.52017 c 1.74904,11.83609 3.21522,21.69363 3.25822,21.90566 0.0952,0.46976 3.77659,1.68632 8.28435,2.73769 3.57614,0.8341 4.86543,0.9656 5.16957,0.52732 z"
         id="path5024" />
      <path
         inkscape:connector-curvature="0"
         id="path5020-7"
         d="m 135.10162,190.31653 c -1.34804,-0.65248 -1.7876,-1.90598 -1.7876,-5.09798 0,-2.94014 0.20532,-3.84294 1.04377,-4.58967 0.44643,-0.3976 0.43603,-0.50768 -0.1254,-1.32781 -0.51987,-0.75946 -0.61215,-1.36343 -0.61215,-4.00721 0,-3.57818 0.44495,-4.61415 2.27412,-5.29483 1.36661,-0.50856 1.92688,-0.49162 3.15589,0.0954 l 1.01575,0.48518 1.04189,-0.92793 c 1.00672,-0.89662 1.10312,-0.92302 2.85467,-0.78155 l 1.81274,0.14639 0,-0.81349 c 0,-0.57027 0.32117,-1.0995 1.07416,-1.77014 1.04629,-0.93188 1.12313,-0.9532 2.96335,-0.82194 1.87157,0.13351 1.89345,0.12689 2.34509,-0.70808 0.96621,-1.78626 3.88807,-2.24046 5.66344,-0.88036 l 0.8029,0.61508 0.68401,-0.60921 c 1.55784,-1.38748 4.65203,-0.90557 5.61487,0.87449 0.45164,0.83497 0.47352,0.84159 2.34511,0.70808 1.8402,-0.13126 1.91703,-0.10994 2.96335,0.82194 0.753,0.67064 1.07414,1.19987 1.07414,1.77014 l 0,0.81349 1.77044,-0.14298 c 1.66689,-0.13462 1.83591,-0.0918 2.8897,0.73225 1.1083,0.86672 1.12934,0.87099 2.15064,0.43937 1.26829,-0.53603 1.73492,-0.54304 3.07018,-0.0461 1.82917,0.68068 2.27413,1.71666 2.27413,5.29483 0,2.64378 -0.0923,3.24776 -0.61219,4.00722 -0.56138,0.82012 -0.57178,0.9302 -0.12537,1.32781 0.83847,0.74672 1.04375,1.64952 1.04375,4.58966 0,2.07839 -0.13471,3.10427 -0.49688,3.78403 -1.00228,1.88114 -3.86941,2.33033 -5.7062,0.89396 -1.02404,-0.80079 -1.08616,-0.81359 -1.97107,-0.40604 -2.14383,0.98739 -4.44928,0.0598 -5.17444,-2.08198 -0.39964,-1.18025 -0.48927,-1.2604 -1.21573,-1.08708 -1.99468,0.47588 -3.67107,-0.15405 -4.49244,-1.68813 -0.40332,-0.75323 -0.59067,-0.87372 -1.03176,-0.66347 -0.7323,0.34906 -2.59879,0.32416 -3.41032,-0.0455 -0.36511,-0.16631 -0.90323,-0.5622 -1.19576,-0.87975 l -0.53189,-0.57737 -0.53188,0.57737 c -0.29255,0.31755 -0.83062,0.71344 -1.19574,0.87975 -0.81153,0.36964 -2.67801,0.39454 -3.41032,0.0455 -0.44109,-0.21025 -0.62847,-0.0898 -1.03176,0.66347 -0.82138,1.53408 -2.49779,2.16401 -4.49244,1.68813 -0.72647,-0.17332 -0.81609,-0.0932 -1.21574,1.08708 -0.72516,2.14173 -3.03064,3.06937 -5.17446,2.08198 -0.88487,-0.40755 -0.947,-0.39475 -1.97104,0.40604 -0.82984,0.64892 -1.33309,0.82452 -2.33853,0.81602 -0.70461,-0.006 -1.63926,-0.18418 -2.07698,-0.39603 z"
         style="fill:#000000;fill-opacity:1" />
      <path
         inkscape:connector-curvature="0"
         id="path4976"
         d="m 155.84677,129.44665 c -1.64774,-0.53108 -3.4021,-2.03361 -4.21032,-3.60597 -0.71279,-1.38663 -0.74084,-1.64722 -0.64379,-5.97768 0.0987,-4.40111 0.12546,-4.56417 0.95763,-5.82506 2.95524,-4.47774 10.2252,-4.47774 13.18048,0 0.83156,1.25996 0.85902,1.42639 0.95711,5.79707 0.0934,4.16189 0.0502,4.60483 -0.57426,5.89777 -0.79666,1.64939 -2.77327,3.30994 -4.48292,3.76614 -1.50125,0.4006 -3.85239,0.37689 -5.18393,-0.0523 z"
         style="fill:#000000;fill-opacity:1" />
      <path
         inkscape:connector-curvature="0"
         style="fill:#000000;fill-opacity:1"
         d="m 152.00594,207.75967 c -1.33731,-0.11791 -2.97855,-0.37539 -3.64721,-0.5722 -1.10409,-0.32493 -1.22447,-0.45233 -1.311,-1.38748 -0.33388,-3.60687 7.29239,-15.26501 10.75206,-16.43652 1.07623,-0.36443 2.57243,0.29005 3.96269,1.73339 3.81065,3.95616 8.53226,12.42753 8.27179,14.84099 -0.0819,0.75946 -0.26253,0.9402 -1.21658,1.21755 -2.57973,0.75001 -11.5158,1.07119 -16.81175,0.60427 z"
         id="path5022" />
      <path
         inkscape:connector-curvature="0"
         style="fill:#5c5c5c;fill-opacity:1"
         d="m 138.66174,188.80012 c 0.49863,-0.4907 0.57899,-1.00137 0.57899,-3.67829 0,-2.94022 -0.0388,-3.13647 -0.71749,-3.62595 -1.03508,-0.74648 -2.29884,-0.6656 -3.05962,0.19577 -0.54403,0.61599 -0.62992,1.09079 -0.62992,3.48254 0,2.39171 0.0859,2.86651 0.62992,3.4825 0.79993,0.90571 2.35278,0.97537 3.19812,0.14343 z"
         id="path5018" />
      <path
         inkscape:connector-curvature="0"
         style="fill:#5c5c5c;fill-opacity:1"
         d="m 181.61742,188.65669 c 0.54404,-0.61599 0.62991,-1.09079 0.62991,-3.4825 0,-2.39175 -0.0859,-2.86655 -0.62991,-3.48254 -0.76077,-0.86137 -2.02453,-0.94225 -3.0596,-0.19577 -0.67869,0.48948 -0.71753,0.68573 -0.71753,3.62595 0,2.67692 0.0803,3.18759 0.57899,3.67829 0.84534,0.83194 2.39822,0.76228 3.19814,-0.14343 z"
         id="path5016" />
      <path
         inkscape:connector-curvature="0"
         style="fill:#5c5c5c;fill-opacity:1"
         d="m 144.60191,188.04078 c 0.65357,-0.47101 0.72685,-0.76198 0.82256,-3.26511 0.0654,-1.7106 -0.0305,-3.03951 -0.25402,-3.5201 -0.47344,-1.018 -1.7513,-1.50222 -2.81996,-1.06856 -1.202,0.48778 -1.50925,1.50112 -1.3912,4.58866 0.0957,2.50313 0.16899,2.7941 0.82257,3.26511 0.91286,0.65782 1.90718,0.65782 2.82005,0 z"
         id="path5014" />
      <path
         inkscape:connector-curvature="0"
         style="fill:#5c5c5c;fill-opacity:1"
         d="m 175.42265,187.89342 c 0.69257,-0.61684 0.74601,-0.8583 0.74601,-3.37093 0,-1.48861 -0.15449,-3.00854 -0.34337,-3.3777 -0.45771,-0.89472 -1.81414,-1.39877 -2.66838,-0.9916 -1.35147,0.64417 -1.61036,1.42028 -1.49923,4.4945 0.0954,2.63891 0.16314,2.91881 0.82146,3.39314 0.9759,0.70319 2.04879,0.64942 2.94351,-0.14741 z"
         id="path5012" />
      <path
         inkscape:connector-curvature="0"
         style="fill:#5c5c5c;fill-opacity:1"
         d="m 150.71422,184.4559 c 0.43821,-0.46121 0.53189,-1.09942 0.53189,-3.62316 0,-2.98697 -0.02,-3.07736 -0.8008,-3.62441 -1.02673,-0.71926 -1.86832,-0.71083 -2.75082,0.0276 -0.65793,0.55047 -0.70345,0.79448 -0.70345,3.77005 0,3.13597 0.0119,3.18976 0.82268,3.75783 0.96226,0.67417 2.08025,0.55549 2.9005,-0.30788 z"
         id="path5010" />
      <path
         inkscape:connector-curvature="0"
         style="fill:#5c5c5c;fill-opacity:1"
         d="m 169.28917,184.74849 c 0.78301,-0.54857 0.80081,-0.63098 0.80081,-3.70461 0,-2.85501 -0.0606,-3.20106 -0.66083,-3.77006 -0.85455,-0.81014 -1.91181,-0.79606 -2.84819,0.0379 -0.69835,0.62196 -0.74604,0.84806 -0.74604,3.53681 0,3.04065 0.23889,3.80344 1.31159,4.1884 1.00064,0.35907 1.27019,0.32277 2.14266,-0.28845 z"
         id="path5008" />
      <path
         inkscape:connector-curvature="0"
         style="fill:#5c5c5c;fill-opacity:1"
         d="m 156.72427,182.12676 c 0.51072,-0.5783 0.60051,-1.10131 0.60051,-3.49807 0,-2.63111 -0.0495,-2.86215 -0.74601,-3.4825 -0.89472,-0.79684 -1.96761,-0.8506 -2.9435,-0.14742 -0.65832,0.47434 -0.7261,0.75423 -0.82147,3.39315 -0.0842,2.32856 -0.008,3.00598 0.39763,3.55798 0.95135,1.29316 2.45986,1.36909 3.51284,0.17686 z"
         id="path5006" />
      <path
         inkscape:connector-curvature="0"
         style="fill:#5c5c5c;fill-opacity:1"
         d="m 163.71473,182.12676 c 0.51073,-0.5783 0.60051,-1.10131 0.60051,-3.49807 0,-2.63111 -0.0495,-2.86215 -0.746,-3.4825 -0.41031,-0.36543 -1.10039,-0.66442 -1.53349,-0.66442 -0.43311,0 -1.12316,0.29899 -1.53348,0.66442 -0.6957,0.61962 -0.74603,0.85288 -0.74603,3.45879 0,2.98262 0.31861,3.81961 1.61684,4.24732 0.89888,0.29617 1.64288,0.0656 2.34165,-0.72554 z"
         id="path5004" />
      <path
         inkscape:connector-curvature="0"
         style="fill:#5c5c5c;fill-opacity:1"
         d="m 138.69192,178.97164 c 0.83973,-0.64331 0.85275,-0.69945 0.85275,-3.67778 0,-2.97836 -0.013,-3.03448 -0.85275,-3.67782 -1.08323,-0.82983 -1.86752,-0.82673 -2.80826,0.0111 -0.70238,0.62557 -0.74604,0.84005 -0.74604,3.66669 0,2.82664 0.0437,3.04108 0.74604,3.66666 0.94074,0.83785 1.72503,0.84097 2.80826,0.0111 z"
         id="path5002" />
      <path
         inkscape:connector-curvature="0"
         style="fill:#5c5c5c;fill-opacity:1"
         d="m 181.19738,178.96054 c 0.7024,-0.62558 0.74601,-0.84002 0.74601,-3.66666 0,-2.82664 -0.0436,-3.04111 -0.74601,-3.66669 -0.94074,-0.83784 -1.72503,-0.84096 -2.80825,-0.0111 -0.83974,0.64334 -0.85278,0.69946 -0.85278,3.67782 0,2.97833 0.013,3.03448 0.85278,3.67778 1.08322,0.82984 1.86751,0.82672 2.80825,-0.0111 z"
         id="path5000" />
      <path
         inkscape:connector-curvature="0"
         style="fill:#5c5c5c;fill-opacity:1"
         d="m 145.04434,177.9724 c 0.49742,-0.48952 0.57899,-1.00049 0.57899,-3.62594 0,-2.62546 -0.0816,-3.13646 -0.57899,-3.62598 -0.84533,-0.83193 -2.39819,-0.76227 -3.19811,0.14344 -0.54404,0.616 -0.62994,1.09079 -0.62994,3.48254 0,2.3917 0.0859,2.86651 0.62994,3.48249 0.79992,0.90573 2.35278,0.97537 3.19811,0.14345 z"
         id="path4998" />
      <path
         inkscape:connector-curvature="0"
         style="fill:#5c5c5c;fill-opacity:1"
         d="m 175.23482,177.82895 c 0.54403,-0.61598 0.62991,-1.09079 0.62991,-3.48249 0,-2.39175 -0.0859,-2.86654 -0.62991,-3.48254 -0.79992,-0.90571 -2.35281,-0.97537 -3.19814,-0.14344 -0.4974,0.48952 -0.579,1.00052 -0.579,3.62598 0,2.62545 0.0816,3.13642 0.579,3.62594 0.84533,0.83192 2.39822,0.76228 3.19814,-0.14345 z"
         id="path4996" />
      <path
         inkscape:connector-curvature="0"
         style="fill:#5c5c5c;fill-opacity:1"
         d="m 150.92014,174.58063 c 0.54857,-0.62113 0.6299,-1.08914 0.6299,-3.62437 0,-3.37702 -0.38818,-4.14414 -2.09705,-4.14414 -1.65486,0 -2.23419,0.79838 -2.39701,3.30328 -0.17011,2.61722 0.0777,3.95207 0.86381,4.65217 0.85922,0.76526 2.23507,0.67952 3.00035,-0.18694 z"
         id="path4994" />
      <path
         inkscape:connector-curvature="0"
         style="fill:#5c5c5c;fill-opacity:1"
         d="m 169.16125,174.76757 c 0.7754,-0.69059 1.01831,-1.95693 0.88329,-4.60483 -0.12831,-2.51654 -0.72986,-3.35062 -2.41648,-3.35062 -1.71546,0 -2.09708,0.763 -2.09708,4.19294 0,2.78173 0.0449,2.99994 0.74604,3.62438 0.89727,0.79914 2.07853,0.85572 2.88423,0.13813 z"
         id="path4992" />
      <path
         inkscape:connector-curvature="0"
         style="fill:#5c5c5c;fill-opacity:1"
         d="m 159.10191,174.4475 c 0.34326,-0.48952 0.33143,-0.64 -0.0789,-1.00544 -0.44073,-0.39253 -0.52428,-0.39253 -0.96504,0 -0.41031,0.36544 -0.42211,0.51592 -0.0789,1.00544 0.22202,0.3166 0.47462,0.57568 0.56136,0.57568 0.0867,0 0.33938,-0.25908 0.5614,-0.57568 z"
         id="path4990" />
      <path
         inkscape:connector-curvature="0"
         style="fill:#5c5c5c;fill-opacity:1"
         d="m 156.75925,172.61125 c 0.65357,-0.47101 0.72685,-0.76198 0.82256,-3.26511 0.0654,-1.7106 -0.0305,-3.03951 -0.25402,-3.5201 -0.73984,-1.59076 -3.31146,-1.64177 -3.98315,-0.079 -0.17893,0.41625 -0.27779,1.99328 -0.2225,3.54827 0.091,2.56005 0.1608,2.84315 0.81706,3.31599 0.91289,0.65779 1.90721,0.65777 2.82005,-5e-5 z"
         id="path4988" />
      <path
         inkscape:connector-curvature="0"
         style="fill:#5c5c5c;fill-opacity:1"
         d="m 163.26531,172.46389 c 0.69239,-0.61667 0.746,-0.8586 0.746,-3.36606 0,-1.4859 -0.1343,-3.01626 -0.29846,-3.40083 -0.62349,-1.46051 -3.16671,-1.44865 -3.91715,0.0181 -0.5124,1.00162 -0.43886,5.38063 0.10613,6.31926 0.74126,1.27671 2.20263,1.46324 3.36348,0.42935 z"
         id="path4986" />
      <path
         inkscape:connector-curvature="0"
         style="fill:#000000;fill-opacity:1"
         d="m 130.57863,130.43677 c -2.22684,-0.34833 -15.91521,-3.63364 -16.77412,-4.02593 -2.1376,-0.97623 -3.68733,-2.1244 -4.98257,-3.69142 -3.75768,-4.5462 -3.34728,-10.99151 0.9611,-15.09376 1.7027,-1.62125 2.94241,-2.3391 5.41846,-3.13762 l 1.84182,-0.59395 -1.97044,-0.52193 c -1.08374,-0.28705 -4.39715,-1.12157 -7.36318,-1.85449 -4.96133,-1.22598 -5.37774,-1.37627 -5.20508,-1.878379 0.10314,-0.300176 0.2306,-0.589041 0.28308,-0.641872 0.0525,-0.0529 10.1223,2.406821 22.37735,5.465931 12.25502,3.05909 22.65801,5.64313 23.1177,5.74232 l 0.83582,0.18034 0,-7.0674 c 0,-6.886943 0.0155,-7.067379 0.60787,-7.067379 0.5941,0 0.60786,0.180436 0.60786,7.966359 l 0,7.96636 -2.05155,-0.52414 c -1.12835,-0.28826 -2.97878,-0.75854 -4.11209,-1.04507 l -2.06058,-0.52095 0.92299,1.03786 c 3.33968,3.75556 3.9039,8.79459 1.46711,13.10263 -2.49448,4.41003 -8.4416,7.05966 -13.92155,6.20249 z"
         id="path4984" />
      <path
         inkscape:connector-curvature="0"
         style="fill:#fa1900;fill-opacity:1"
         d="m 127.78037,120.34505 c 1.75185,-0.70813 2.68556,-2.42468 2.19731,-4.03957 -0.83064,-2.74749 -4.7595,-3.53488 -6.80971,-1.36478 -1.87071,1.98007 -0.92001,4.93188 1.82414,5.66365 1.25032,0.33344 1.34327,0.32477 2.78826,-0.2593 z"
         id="path4982" />
      <path
         inkscape:connector-curvature="0"
         style="fill:#000000;fill-opacity:1"
         d="m 180.35139,130.1037 c -9.05734,-2.57874 -12.25891,-12.54171 -6.09259,-18.95964 0.7022,-0.73089 0.93912,-1.12496 0.60838,-1.01202 -0.29791,0.10176 -1.32369,0.36765 -2.2795,0.59092 -0.95582,0.2233 -2.66107,0.64336 -3.78941,0.93349 l -2.05156,0.5275 0,-7.96636 c 0,-7.785923 0.0137,-7.966359 0.60787,-7.966359 0.59237,0 0.60786,0.180436 0.60786,7.067379 l 0,7.0674 0.83583,-0.17956 c 0.4597,-0.0988 10.87023,-2.68458 23.13454,-5.74626 22.70896,-5.669146 22.81141,-5.689583 22.83078,-4.552184 0.003,0.150204 -2.90174,0.991604 -6.45396,1.869734 -8.77072,2.16821 -8.31565,1.98668 -6.45008,2.57284 3.47185,1.09087 5.94113,3.08756 7.66892,6.20117 1.1056,1.99244 1.13663,2.13003 1.13663,5.04004 0,2.80448 -0.0608,3.10614 -0.97299,4.82118 -1.20565,2.26684 -3.50928,4.47514 -5.79766,5.5577 -1.0492,0.49636 -4.85929,1.58393 -9.6019,2.7408 -8.7353,2.13082 -10.66887,2.32391 -13.94116,1.39223 z"
         id="path4980" />
      <path
         inkscape:connector-curvature="0"
         style="fill:#fa1900;fill-opacity:1"
         d="m 193.18892,120.10169 c 1.90917,-1.18186 2.24834,-3.54774 0.73781,-5.14656 -1.46247,-1.54794 -3.83615,-1.71293 -5.60226,-0.38937 -2.14826,1.60992 -1.62227,4.72556 0.97621,5.78267 1.44818,0.58917 2.66245,0.51211 3.88824,-0.24674 z"
         id="path4978" />
      <path
         inkscape:connector-curvature="0"
         style="fill:#5c5c5c;fill-opacity:1"
         d="m 161.21205,127.94876 c 2.31006,-1.05511 3.40713,-2.80403 3.40713,-5.43152 l 0,-1.63286 -6.07867,0 -6.07867,0 0.006,1.69184 c 0.0106,2.61014 1.10696,4.31954 3.48858,5.43778 1.27658,0.5994 3.87026,0.56721 5.25495,-0.0653 z"
         id="path4974" />
      <path
         inkscape:connector-curvature="0"
         style="fill:#5c5c5c;fill-opacity:1"
         d="m 164.57299,117.54397 c -0.14769,-2.60444 -1.03627,-3.87627 -3.43996,-4.92366 -2.09589,-0.91329 -3.78841,-0.82234 -5.84886,0.31428 -1.92782,1.06345 -2.82233,2.60995 -2.82233,4.87936 l 0,1.71697 6.11189,0 6.11189,0 z"
         id="path4972" />
      <path
         inkscape:connector-curvature="0"
         style="fill:#000000;fill-opacity:1"
         d="m 140.22852,83.469402 c -9.31937,-2.83979 -16.9422,-5.29772 -16.93964,-5.462004 0.0173,-1.115501 0.42672,-1.017944 17.6117,4.197785 l 17.11069,5.193216 18.42466,-5.185796 c 10.13354,-2.852166 18.52723,-5.184628 18.65259,-5.183222 0.12539,0.0027 0.22794,0.297655 0.22794,0.658301 0,0.502408 -0.23094,0.720642 -0.98781,0.933328 -0.54326,0.15267 -8.80182,2.47655 -18.35236,5.164192 -9.55053,2.687611 -17.68835,4.877798 -18.08404,4.86705 -0.3957,-0.01081 -8.34438,-2.343021 -17.66373,-5.18285 z"
         id="path4970" />
      <path
         inkscape:connector-curvature="0"
         style="fill:#787676;fill-opacity:1"
         d="m 206.83488,183.43912 21.61034,-23.93198 0,-5.66706 0,-5.66706 -1.29169,0.67435 c -10.84693,5.6627 -36.0232,19.54083 -36.30872,20.0148 -0.20272,0.33647 -1.54517,8.71231 -2.98323,18.61294 -1.43806,9.90063 -2.69312,18.48839 -2.78904,19.08392 -0.0959,0.59553 -0.10102,1.02187 -0.0112,0.94744 0.0898,-0.0744 9.88783,-10.90475 21.77352,-24.06735 z"
         id="path4968" />
      <path
         inkscape:connector-curvature="0"
         style="fill:#787676;fill-opacity:1"
         d="m 129.22117,187.41077 c -1.43901,-9.86525 -2.78221,-18.21267 -2.98494,-18.54982 -0.22381,-0.37223 -7.45628,-4.4422 -18.41463,-10.36262 -9.925335,-5.36233 -18.302505,-9.87189 -18.615915,-10.02129 -0.54873,-0.26154 -0.56988,-0.0623 -0.56988,5.37241 l 0,5.64405 21.503285,23.33244 c 11.95988,12.9772 21.54662,23.15254 21.60086,22.92705 0.0536,-0.22297 -1.07981,-8.47698 -2.51878,-18.34222 z"
         id="path4966" />
      <path
         inkscape:connector-curvature="0"
         style="fill:#787676;fill-opacity:1"
         d="m 131.71482,163.04826 c 3.06648,-2.72687 4.63854,-4.31927 4.63854,-4.69858 0,-0.56792 -2.366,-12.05233 -2.50915,-12.17915 -0.0408,-0.0363 -1.57876,0.8891 -3.41755,2.05623 l -3.34327,2.12204 -2.12753,-1.03425 c -4.37622,-2.12745 -35.424705,-16.81295 -35.863335,-16.96287 -0.39925,-0.13646 -0.45672,0.7469 -0.45672,7.02121 l 0,7.17732 19.061035,10.31142 c 10.48358,5.67128 19.13267,10.31143 19.22024,10.31143 0.0876,0 2.24655,-1.85617 4.79774,-4.1248 z"
         id="path4964" />
      <path
         inkscape:connector-curvature="0"
         style="fill:#787676;fill-opacity:1"
         d="m 209.52537,156.76626 18.91985,-10.22314 0,-7.14482 c 0,-3.92963 -0.0767,-7.14477 -0.17049,-7.14477 -0.0938,0 -8.64162,4.01973 -18.99525,8.93272 -10.35359,4.91299 -18.9382,8.96325 -19.07685,9.00057 -0.13868,0.0373 -1.67735,-0.81868 -3.41925,-1.90224 -2.74017,-1.70454 -3.19611,-1.9052 -3.38233,-1.48882 -0.29809,0.66659 -2.36946,10.70424 -2.36946,11.48233 0,0.45428 1.29995,1.79204 4.61481,4.74897 2.53812,2.26408 4.69224,4.08182 4.78694,4.03943 0.0947,-0.0424 8.68612,-4.67751 19.09203,-10.30023 z"
         id="path4962" />
      <path
         inkscape:connector-curvature="0"
         style="fill:#000000;fill-opacity:1"
         d="m 90.459405,82.198388 c 0,-1.442009 1.48447,-7.68478 2.71975,-11.437656 1.54939,-4.707205 3.46749,-8.909378 6.27973,-13.75767 2.276275,-3.924278 6.692085,-10.09112 7.255035,-10.131913 0.6247,-0.04526 1.69178,2.27529 2.03225,4.419404 0.43147,2.717308 -0.008,6.90026 -1.13006,10.744928 -3.03092,10.389586 -10.263435,19.697588 -16.168925,20.808871 -0.94538,0.177892 -0.98778,0.150183 -0.98778,-0.645964 z"
         id="path4958" />
      <path
         inkscape:connector-curvature="0"
         style="fill:#5c5c5c;fill-opacity:1"
         d="m 227.99924,83.568026 c -1.76211,-13.747604 -7.37031,-26.663631 -16.09726,-37.072898 -1.2096,-1.442771 -2.80337,-3.213381 -3.54166,-3.934726 l -1.34241,-1.311512 -3.46306,18.139229 -3.46316,18.139204 6.35051,6.749971 c 3.49275,3.712489 9.83809,10.456692 14.10072,14.987132 l 7.75035,8.237194 0.0847,-10.159334 c 0.0646,-7.751399 -0.0251,-11.016105 -0.37869,-13.77426 z"
         id="path4956" />
      <path
         inkscape:connector-curvature="0"
         style="fill:#000000;fill-opacity:1"
         d="m 224.0382,82.7341 c -3.74748,-0.812547 -8.36601,-5.395828 -11.87477,-11.784261 -3.67641,-6.693531 -5.12088,-11.896622 -4.92469,-17.738954 0.10473,-3.119533 0.22506,-3.843072 0.82207,-4.943631 0.38463,-0.709085 0.81509,-1.352957 0.95658,-1.430835 0.34723,-0.191136 2.63632,2.626653 5.0044,6.160184 5.97026,8.908347 9.4646,17.690041 11.52983,28.975515 0.20049,1.095527 0.14763,1.122133 -1.51342,0.761982 z"
         id="path4954" />
      <path
         inkscape:connector-curvature="0"
         style="fill:#5c5c5c;fill-opacity:1"
         d="m 176.92849,45.88956 c 5.13079,-0.522982 9.43166,-2.23894 13.11202,-5.231353 3.24567,-2.639022 6.60983,-7.376329 5.8314,-8.21169 -0.65866,-0.706862 -6.27322,-3.682304 -10.14476,-5.376281 -8.5068,-3.72207 -18.25056,-5.801242 -27.18664,-5.801242 -8.93606,0 -18.67982,2.079172 -27.18664,5.801242 -3.87153,1.693977 -9.48608,4.669419 -10.14473,5.376281 -0.24357,0.261382 -0.13242,0.732201 0.42646,1.806557 1.71354,3.294022 5.4597,6.976408 9.05986,8.905642 2.27588,1.219586 6.31422,2.430292 9.04992,2.713195 3.25109,0.3362 33.91524,0.350765 37.18311,0.0176 z"
         id="path4827" />
    </g>
    <g
       id="m1">
      <circle
         r="0"
         cy="210"
         cx="115"
         id="pivot_m1"
         style="fill:#000000;fill-opacity:1;stroke:none;stroke-width:0.5;stroke-miterlimit:4;stroke-dasharray:none;stroke-opacity:1" />
      <path
         style="opacity:1;fill:#000000;fill-opacity:1"
         d="m 115.3522,199.91921 c -0.71292,0.0688 -1.41963,0.43045 -2.10286,1.19041 -4.36868,5.1039 -7.58654,11.15963 -10.37541,17.24443 -2.876525,9.12537 -2.22981,18.21032 -3.613535,27.55985 -1.37919,6.48226 -2.66186,12.78115 -4.35653,19.05674 6.362065,9.50436 14.253705,10.12638 24.592745,7.1403 0.68773,-1.80777 1.87847,-4.94432 2.47197,-6.74628 4.28042,-12.88284 7.56338,-26.89492 6.63616,-40.57502 -0.62458,-6.84601 -0.46032,-10.68746 -5.04067,-17.85769 -1.91696,-2.111 -5.12257,-7.311 -8.21187,-7.01274 z"
         id="path4285"
         inkscape:connector-curvature="0"
         sodipodi:nodetypes="sccccccccs" />
      <path
         style="opacity:1;fill:#967575;fill-opacity:1"
         d="m 114.89509,202.90889 c -0.85647,0.27764 -1.73723,1.12871 -2.75306,2.75241 -4.15858,7.13257 -7.74319,14.80322 -8.96655,22.98755 -0.78732,7.50872 -0.47859,14.63893 -2.60315,21.73488 -1.035885,4.44663 -2.161225,9.60591 -3.324085,14.02234 5.372955,7.33482 12.297995,8.28302 21.436385,5.41889 4.16646,-11.30015 7.38816,-23.89419 7.89667,-35.95074 0.0153,-10.179 0.11431,-21.38947 -7.09463,-28.4908 -1.80425,-1.80618 -3.16413,-2.93726 -4.59158,-2.47453 z"
         id="path4283"
         inkscape:connector-curvature="0"
         sodipodi:nodetypes="ccccccccc" />
      <g
         id="m2">
        <circle
           r="0"
           cy="265"
           cx="108"
           id="pivot_m2"
           style="fill:#000000;fill-opacity:1;stroke:none;stroke-width:0.5;stroke-miterlimit:4;stroke-dasharray:none;stroke-opacity:1" />
        <path
           sodipodi:nodetypes="cccccccccc"
           inkscape:connector-curvature="0"
           id="path5020"
           d="m 121.17694,262.96744 c -4.01972,-7.04592 -20.23161,-6.16749 -25.928045,0.26802 -0.0155,7.94402 -0.61367,18.5447 -2.81284,27.29284 -2.78449,11.29767 -10.753216,20.30445 -14.365408,31.28492 -0.792316,2.82039 -3.405852,11.70952 2.273962,9.17477 6.016713,-5.27756 -0.196389,6.71738 4.014552,8.38388 2.35252,2.8464 5.261834,-3.52216 5.323614,-0.99035 0.55839,4.59089 7.88412,4.30924 9.79987,-0.13729 6.150995,-16.02357 13.586875,-31.50666 17.425245,-48.31021 1.6773,-8.07962 3.75682,-18.5877 4.26905,-26.96658 z"
           style="opacity:1;fill:#000000;fill-opacity:1" />
        <path
           style="opacity:1;fill:#967575;fill-opacity:1"
           d="m 119.61179,263.45183 c -2.4748,-4.61188 -18.53864,-5.29868 -22.228595,0.27022 0.011,2.55005 -0.0766,5.28082 -0.20327,7.83283 -0.27711,9.81223 -2.15271,22.60331 -6.80854,30.24003 -2.51852,3.92992 -4.850872,7.98644 -7.029027,12.18334 -2.330144,4.51955 -3.897457,9.81141 -4.773945,14.96319 2.007528,3.31006 2.764497,-5.05232 4.392506,-5.54081 5.762146,2.3392 0.217769,9.88519 1.575313,14.42662 1.41017,3.31208 6.653553,-6.57843 7.213293,0.2134 2.35081,6.51996 6.10803,-2.74327 7.10191,-5.57541 3.634705,-7.23232 6.585005,-14.79023 9.541885,-22.28979 3.95227,-11.17697 7.6678,-22.71765 9.35493,-34.57121 0.63664,-4.3242 1.52076,-8.36536 1.86354,-12.15241 z"
           id="path5017"
           inkscape:connector-curvature="0"
           sodipodi:nodetypes="ccccccccccccc" />
      </g>
    </g>
    <g
       id="m3">
      <circle
         r="0"
         cy="208"
         cx="205"
         id="pivot_m3"
         style="fill:#000000;fill-opacity:1;stroke:none;stroke-width:0.5;stroke-miterlimit:4;stroke-dasharray:none;stroke-opacity:1" />
      <path
         style="fill:#000000;fill-opacity:1"
         d="m 205.51149,198.60738 c -0.32247,-0.0734 -0.66028,-0.12162 -1.01513,-0.14299 -13.89673,2.60796 -14.99894,23.631 -14.33043,34.51129 0.30658,4.37987 -0.1155,5.20811 1.18671,11.80189 1.89054,7.34681 4.88233,15.2146 6.72963,21.44918 10.89802,2.53628 18.38677,-1.13506 23.65236,-6.04677 -1.30636,-5.64029 -2.60204,-12.36403 -3.48305,-18.03709 -0.55608,-10.944 -0.30649,-21.75983 -4.16006,-31.93908 -2.39711,-3.82085 -3.74278,-10.49525 -8.58003,-11.59643 z"
         id="path4281"
         inkscape:connector-curvature="0"
         sodipodi:nodetypes="scccccccs" />
      <path
         style="fill:#967575;fill-opacity:1"
         d="m 206.79866,201.96106 c -4.6534,-0.49631 -8.40185,3.42664 -10.75811,7.1581 -4.3905,9.05879 -5.25812,22.57433 -3.33696,31.42546 1.89137,8.58792 4.53324,16.17218 6.89981,23.47629 6.45256,1.91587 15.78246,0.61913 19.89624,-5.58594 -0.28032,-1.23812 -0.59091,-2.48406 -0.86347,-3.71376 -3.70842,-12.01504 -1.84495,-24.9602 -4.3977,-36.01018 -1.35233,-6.04898 -3.21114,-11.89049 -7.43981,-16.74997 z"
         id="path4279"
         inkscape:connector-curvature="0"
         sodipodi:nodetypes="cccccccc" />
      <g
         id="m4">
        <circle
           style="fill:#000000;fill-opacity:1;stroke:none;stroke-width:0.5;stroke-miterlimit:4;stroke-dasharray:none;stroke-opacity:1"
           id="pivot_m4"
           cx="210"
           cy="260"
           r="0" />
        <path
           style="fill:#000000;fill-opacity:1"
           d="m 221.21468,257.69484 c -9.91787,-5.47704 -18.0106,-4.86735 -24.58103,2.23734 0.7751,8.57959 3.43558,19.51172 5.65215,27.78583 4.70165,14.07872 10.8738,27.63538 16.77726,41.23017 1.90107,3.42857 3.32469,8.46826 8.16202,8.18719 4.38423,1.83317 1.6428,-5.0311 4.26588,-3.67891 5.45117,4.22948 6.22495,-3.69073 4.85876,-7.44416 -1.41413,-6.20915 3.83663,2.45762 5.66389,-0.40704 1.35718,-2.78308 -0.22032,-6.21455 -0.92683,-9.02256 -3.74961,-9.24686 -8.69932,-17.45044 -14.05035,-25.85396 -2.08171,-5.72066 -3.72422,-11.54817 -4.70767,-17.59945 -0.37221,-4.22458 -0.88935,-11.2042 -1.11408,-15.43445 z"
           id="path5032"
           inkscape:connector-curvature="0"
           sodipodi:nodetypes="cccccccccccc" />
        <path
           style="fill:#967575;fill-opacity:1"
           d="m 219.49001,259.4055 c -7.83438,-5.17991 -15.77036,-4.44909 -20.65117,1.53822 0.33912,2.42783 0.66657,4.8716 0.94631,7.38822 4.26746,23.62443 14.11671,43.08682 21.51476,58.97583 0.70614,3.43041 6.27602,10.25182 6.84922,3.08285 1.39223,-2.63514 8.78094,5.45657 7.21393,-0.62593 0.11663,-3.60083 -3.53362,-8.80442 1.27051,-10.67891 0.23032,3.48836 5.69781,8.42352 3.96639,2.71294 l -0.22332,-0.87824 c -1.3361,-4.94293 -3.37466,-9.89386 -6.05531,-14.15312 -2.01256,-3.58939 -4.7155,-7.0225 -6.884,-10.57554 -6.23126,-11.20756 -7.33984,-24.17321 -7.94732,-36.7864 z"
           id="path5029"
           inkscape:connector-curvature="0"
           sodipodi:nodetypes="cccccccccccc" />
      </g>
    </g>
  </g>
</svg>
