<?xml version="1.0" encoding="UTF-8" standalone="no"?>
<!-- Created with Inkscape (http://www.inkscape.org/) -->

<svg
   xmlns:dc="http://purl.org/dc/elements/1.1/"
   xmlns:cc="http://creativecommons.org/ns#"
   xmlns:rdf="http://www.w3.org/1999/02/22-rdf-syntax-ns#"
   xmlns:svg="http://www.w3.org/2000/svg"
   xmlns="http://www.w3.org/2000/svg"
   xmlns:sodipodi="http://sodipodi.sourceforge.net/DTD/sodipodi-0.dtd"
   xmlns:inkscape="http://www.inkscape.org/namespaces/inkscape"
   id="svg4206"
   version="1.1"
   inkscape:version="0.91 r13725"
   width="400"
   height="400"
   viewBox=""
   sodipodi:docname="ardilla_nerd2.svg">
  <metadata
     id="metadata4212">
    <rdf:RDF>
      <cc:Work
         rdf:about="">
        <dc:format>image/svg+xml</dc:format>
        <dc:type
           rdf:resource="http://purl.org/dc/dcmitype/StillImage" />
        <dc:title></dc:title>
      </cc:Work>
    </rdf:RDF>
  </metadata>
  <defs
     id="defs4210" />
  <sodipodi:namedview
     pagecolor="#ffffff"
     bordercolor="#666666"
     borderopacity="1"
     objecttolerance="10"
     gridtolerance="10"
     guidetolerance="10"
     inkscape:pageopacity="0"
     inkscape:pageshadow="2"
     inkscape:window-width="2560"
     inkscape:window-height="1320"
     id="namedview4208"
     showgrid="false"
     inkscape:zoom="2.8695678"
     inkscape:cx="266.75002"
     inkscape:cy="245.6186"
     inkscape:window-x="0"
     inkscape:window-y="0"
     inkscape:window-maximized="1"
     inkscape:current-layer="svg4206" />
  <g
     id="puppet">
    <g
       id="m5">
      <circle
         r="0"
         cy="332.28262"
         cx="226.63863"
         id="pivot_m5"
         style="fill:#000000;fill-opacity:1;stroke:none;stroke-width:0.5;stroke-miterlimit:4;stroke-dasharray:none;stroke-opacity:1" />
      <path
         style="opacity:1;fill:#000000;fill-opacity:1;stroke:none;stroke-opacity:1"
         d="m 265.38394,109.99862 c -5.46863,0.008 -10.89755,0.9031 -16.0961,2.82936 -46.97913,21.18022 -43.9044,61.05502 -43.36579,88.86924 2.42508,51.39569 37.06184,79.78087 16.67569,134.78157 11.07472,-1.5945 19.98863,-4.33666 28.75081,-12.39219 12.54677,-9.99807 22.4443,-23.74102 27.92406,-39.16165 6.90381,-22.31352 -0.6797,-45.57827 -1.97228,-68.08094 0.19758,-6.3784 5.46987,6.52363 28.88724,-5.66637 18.6481,-10.80562 22.48116,-28.19826 21.20512,-46.37487 -1.79222,-29.02183 -32.47815,-54.84732 -62.00875,-54.80415 z"
         id="path5596"
         inkscape:connector-curvature="0"
         sodipodi:nodetypes="sccccccccs" />
      <path
         sodipodi:nodetypes="cccccccccccc"
         inkscape:connector-curvature="0"
         id="path4257"
         d="m 236.40712,315.16133 c 7.85498,-4.61276 16.14103,-8.96398 21.01268,-17.5237 7.87814,-15.96705 11.30507,-33.58936 8.04189,-51.59839 -3.95619,-15.06461 -11.08509,-30.26488 -10.63369,-46.4641 -1.05626,-14.95437 6.9432,-30.88471 21.50953,-36.21205 13.3612,-5.91391 32.49879,-1.34597 37.58385,13.48536 2.86092,8.16473 1.79296,17.20964 -1.05878,25.22144 39.21854,-41.56783 -17.42174,-100.43622 -59.12977,-86.845 -39.64216,14.32386 -46.49196,53.12589 -44.38194,86.87149 -0.1084,8.8733 2.51546,22.44808 8.05562,34.33476 12.30056,31.60853 18.52622,59.70125 17.77237,79.24966 z"
         style="fill:#f87e32;fill-opacity:1" />
      <path
         sodipodi:nodetypes="ccccccccccccccccccccc"
         inkscape:connector-curvature="0"
         id="path4259"
         d="m 251.98505,319.4302 c 4.25365,-4.34545 8.2973,-8.38521 12.038,-12.67415 6.73179,-8.45135 11.81061,-16.22829 14.20693,-28.324 2.26769,-11.12354 1.28025,-22.65696 0.002,-33.84066 -3.4703,-14.98911 -4.16234,-29.29325 -5.86364,-43.68581 -0.55924,-6.78075 -1.47139,-15.17236 4.87429,-19.66133 4.86379,-3.01964 11.53334,-2.02575 16.45078,-0.23391 -6.04533,0.19055 -13.83111,-0.5151 -17.26602,5.71971 -3.28493,6.49739 -1.74614,14.11621 -1.44584,21.08962 0.29325,6.57753 9.55661,5.75573 14.64938,5.57804 7.02947,-0.53446 13.71206,-3.92709 19.1357,-8.19762 4.87618,-9.45941 7.09555,-22.1685 0.4945,-31.36244 -4.9983,-6.35834 -12.83125,-10.6616 -21.0501,-9.9217 -10.83171,0.44854 -20.71468,6.88435 -26.32907,16.05999 -4.39827,6.4482 -5.30854,15.69394 -4.75679,24.2478 1.33475,16.94971 10.47936,33.62321 12.32716,49.37655 0.66465,10.40128 -0.83981,20.86637 -2.90568,31.042 -1.69876,6.83546 -4.91262,13.40712 -9.39446,18.68861 -6.12023,5.98432 -13.09064,11.41579 -20.77497,15.35274 -5.05694,10.90624 -7.97809,13.76968 0.52762,10.75944 4.94992,-3.03483 12.4663,-7.89434 15.07976,-10.01288 z"
         style="fill:#ffe5c4;fill-opacity:1" />
    </g>
    <path
       style="opacity:1;fill:#000000;fill-opacity:1;stroke:none;stroke-opacity:1"
       d="m 217.31099,235.02066 c -2.20153,-6.60785 -7.66952,-26.20481 -9.59787,-33.15287 -8.71925,-3.24041 -76.1989,-1.30294 -80.80512,2.09616 -5.31007,21.10977 -15.43366,43.59744 -23.74814,63.76879 -10.099421,24.63304 -7.841493,54.45799 8.70126,75.77026 10.65564,12.88138 27.22219,20.74388 43.43509,23.88341 7.46732,0.67245 15.01758,1.23972 22.40159,-0.009 60.40827,-9.118 66.29822,-66.20036 39.61319,-132.35669 z"
       id="path4209"
       inkscape:connector-curvature="0"
       sodipodi:nodetypes="cccccccc" />
    <path
       style="fill:#ffe5c4;fill-opacity:1"
       d="m 130.80511,205.93404 c -5.43811,17.34072 -23.69255,57.51941 -29.5181,81.45057 -2.884595,18.79759 0.50068,39.01508 12.77823,54.10624 7.11705,10.40642 18.84137,16.91285 30.76824,20.25909 -18.38597,-9.04392 -27.35798,-29.37915 -31.8256,-48.22882 -4.65303,-20.08827 6.15283,-59.9471 14.17164,-78.60951 -3.86284,19.64807 -14.38565,58.84883 -11.37862,78.86544 3.00821,16.901 11.05354,35.09623 27.10236,43.38277 17.64722,8.11483 40.77278,7.11271 54.80176,-7.32098 13.33484,-12.43849 19.5207,-31.25728 17.66734,-49.23883 -1.13854,-21.03118 -5.1763,-50.63156 -9.69361,-71.15152 9.03205,26.43811 16.66576,63.89043 12.10232,91.91826 -2.93398,17.51659 -14.89445,33.71286 -32.2778,39.31778 -2.94633,1.42819 -14.78587,3.68149 -5.36569,2.68725 19.6372,-2.13815 38.30319,-14.78308 44.90783,-33.57265 9.79626,-26.59924 3.34118,-55.77416 -6.51673,-81.58063 -4.78481,-15.53718 -9.58362,-30.55416 -12.68718,-43.05294 -9.4192,-3.94632 -64.6406,-2.49293 -75.03639,0.76848 z"
       id="path5599"
       inkscape:connector-curvature="0"
       sodipodi:nodetypes="cccccccccccccccccc" />
    <g
       id="m0">
      <circle
         style="fill:#000000;fill-opacity:1;stroke:none;stroke-width:0.5;stroke-miterlimit:4;stroke-dasharray:none;stroke-opacity:1"
         id="pivot_m0"
         cx="169.19814"
         cy="209.44443"
         r="0" />
      <path
         style="opacity:1;fill:#000000;fill-opacity:1;stroke:none;stroke-opacity:1"
         d="M 126.8258,0.01159895 C 109.40737,3.1743127 105.61498,25.083297 103.68425,40.126568 101.5064,59.221371 96.663187,77.252446 93.897407,96.520583 91.404893,117.8908 80.231409,118.73391 74.418872,133.35384 c -6.177481,18.76719 2.406905,40.35594 16.396787,53.44994 42.055941,37.86406 117.557041,30.17107 155.480941,-3.14644 16.43803,-17.53101 30.74508,-44.50837 2.00175,-70.6415 -6.19287,-14.191915 -2.08643,-34.558261 -11.55836,-49.338069 1.24165,-15.932679 -1.68823,-32.121658 -7.63623,-46.90164 -4.91778,-18.0695085 -33.04991,-23.4374496 -35.7673,-0.82696 -2.26911,16.589106 -18.23724,9.066136 -36.59091,10.801172 -19.29224,0.99559 -10.29711,-27.40676367 -29.91975,-26.73874405 z"
         id="path4277"
         inkscape:connector-curvature="0"
         sodipodi:nodetypes="cccccccccccc" />
      <path
         style="opacity:1;fill:#ffe5c4;fill-opacity:1"
         d="m 184.19064,104.91687 c -2.1222,13.47073 -20.98142,19.37264 -29.30982,7.66541 -5.74571,-12.14344 -18.66397,6.71025 -25.33897,11.36141 -4.26713,4.58993 -3.25908,3.40208 -1.02916,-0.84083 -11.94184,-12.62098 -36.380314,-13.682 -45.943227,2.35613 -6.986768,8.1376 -9.45034,19.16318 -6.598963,29.48573 3.838814,22.80369 23.889714,38.20118 44.46346,46.48878 39.51352,16.7296 93.72254,7.90781 125.80177,-20.47343 12.03692,-13.39678 20.986,-32.65651 12.97326,-50.1005 -4.96042,-9.93209 -14.36306,-17.78254 -24.79643,-21.30502 -10.44064,-1.37646 -20.37324,4.34095 -27.79978,11.08989 2.7608,2.47596 9.40215,15.27402 2.64151,6.27057 -6.40427,-8.99786 -14.34844,-18.28085 -25.06365,-21.99814 z"
         id="path4275"
         inkscape:connector-curvature="0"
         sodipodi:nodetypes="ccccccccccccc" />
      <path
         sodipodi:nodetypes="cccccsscsssssssssccccccccccscc"
         inkscape:connector-curvature="0"
         id="path4253"
         d="m 130.88709,121.04673 c 5.73216,-8.06734 18.53901,-15.43742 21.04391,-17.94335 10.64822,-7.098552 23.00891,-5.411866 30.51487,-2.24766 0.39461,0.0973 1.60609,0.62906 2.69217,1.18169 10.65033,6.13216 16.73231,13.23267 19.00467,15.562 0.56101,0.35035 1.08272,0.11942 2.2395,-0.99131 1.40514,-1.3492 3.7065,-3.12524 4.04966,-3.12524 0.12298,0 0.48826,-0.23076 0.81173,-0.5128 0.77975,-0.6799 3.61057,-2.33058 4.38163,-2.555 0.33652,-0.0979 0.9042,-0.38389 1.2615,-0.63545 0.3573,-0.25155 0.82537,-0.45737 1.04015,-0.45737 0.21479,0 0.39051,-0.084 0.39051,-0.18662 0,-0.10263 0.74341,-0.3879 1.65202,-0.63392 0.9086,-0.24602 1.87228,-0.53948 2.14149,-0.65214 3.44568,-1.44187 11.95499,-1.64956 15.51073,-0.37857 0.58902,0.21053 1.2276,0.38279 1.41909,0.38279 0.19151,0 0.79837,0.21751 1.3486,0.48336 0.55023,0.26585 1.10019,0.42171 1.2221,0.34636 0.53995,-19.938683 -5.00763,-47.521485 -21.0966,-60.18142 -6.29082,-5.200226 -12.90373,-9.08714 -19.49044,-12.113092 -8.9546,-5.374686 -35.94482,-9.311263 -54.5389,-3.934404 -8.97743,3.611109 -14.62217,5.876122 -20.37217,9.680277 -12.7459,8.493505 -19.90239,16.689034 -24.16369,32.62827 -2.387791,7.284835 -4.524554,15.683302 -5.636057,21.810194 -0.894661,9.660415 -1.469972,13.071605 -0.828519,15.084845 0.316716,0.31672 0,0 1.695414,-0.0201 13.254922,-1.142 22.411992,-0.20361 31.303972,8.64572 0.83099,0.83616 1.56099,1.52029 1.62222,1.52029 0.0612,0 0.41243,-0.34082 0.78044,-0.75737 z"
         style="fill:#f87e32;fill-opacity:1" />
      <circle
         style="fill:#000000;fill-opacity:1;stroke:none;stroke-width:0.5;stroke-miterlimit:4;stroke-dasharray:none;stroke-opacity:1"
         id="circle4317"
         cx="129.96536"
         cy="91.211296"
         r="8.0765009" />
      <circle
         r="8.0765009"
         cy="91.211296"
         cx="209.50667"
         id="path4315"
         style="fill:#000000;fill-opacity:1;stroke:none;stroke-width:0.5;stroke-miterlimit:4;stroke-dasharray:none;stroke-opacity:1" />
      <path
         sodipodi:nodetypes="ccssscccc"
         inkscape:connector-curvature="0"
         id="path4216"
         d="m 127.88506,37.848062 c 2.03201,-1.300136 4.595,-2.256454 6.61071,-3.199224 1.10601,-0.519887 1.28247,-0.846457 0.87985,-1.62838 -0.12035,-0.233738 -0.57225,-1.526319 -1.00421,-2.872402 -2.06607,-6.438229 -5.2204,-11.559059 -7.92511,-12.865832 -1.21826,-0.588601 -2.87098,-0.162587 -3.83158,0.423165 -4.41051,4.554987 -5.95487,9.385672 -7.10368,14.756601 -0.86908,5.127607 -1.81071,9.930234 -1.74189,15.060362 4.82471,-3.133108 9.14327,-7.017437 14.11591,-9.67429 z"
         style="fill:#ffb4b0;fill-opacity:1" />
      <path
         inkscape:connector-curvature="0"
         id="path4239"
         d="m 226.09981,46.899279 c -0.33818,-6.498825 -1.37907,-13.007699 -3.71105,-19.106984 -1.25426,-3.534784 -2.58514,-7.257434 -5.37114,-9.894047 -1.37196,-1.251326 -3.41869,-2.042011 -5.23889,-1.444986 -2.20633,1.308873 -3.36124,3.766667 -4.47683,5.972291 -1.56032,3.475274 -2.87517,7.136007 -3.2981,10.939953 -0.33784,1.756923 1.89749,1.840828 2.92394,2.60813 2.45998,1.236529 4.98766,2.365196 7.27203,3.911608 3.68649,2.240316 7.11131,4.91574 10.25466,7.865758 0.49201,0.776862 1.7216,1.581443 1.57847,0.0391 0.0341,-0.295908 0.0548,-0.593253 0.0669,-0.890828 z"
         style="fill:#ffb4b0;fill-opacity:1" />
      <path
         sodipodi:nodetypes="cssccsccsssccccscc"
         inkscape:connector-curvature="0"
         id="path4241"
         d="m 112.06225,49.640326 c 0.55517,-0.57504 0.57115,-0.701554 0.46469,-3.680586 -0.0606,-1.696792 -0.034,-4.241485 0.0592,-5.654873 0.2107,-3.195266 0.99494,-9.3803 1.21025,-9.544955 1.51083,-5.489042 4.42895,-12.654423 9.38225,-15.576641 3.26675,-1.118886 5.86936,0.512506 8.17078,4.196117 1.04429,1.671478 2.35718,4.545173 3.01898,6.608046 0.92403,2.778187 1.84049,5.165385 2.52998,7.709387 0.0441,0 1.02682,-0.371614 2.18376,-0.825812 1.15694,-0.454196 2.49478,-0.899211 2.97297,-0.988921 0.4782,-0.08971 1.26537,-0.328533 1.74927,-0.530722 0.81113,-0.338912 0.86803,-0.428899 0.7288,-1.152575 -1.06121,-9.553617 -4.67923,-19.825529 -12.18847,-25.7435967 -6.45209,-4.14186462 -9.75406,-0.5085332 -14.18817,4.3434957 -5.69257,6.278718 -9.02026,15.337928 -10.57943,24.653389 -0.0731,0.471129 -0.23814,1.352202 -0.36678,1.957939 -0.83483,3.931249 -2.22609,20.569448 -1.81054,21.652367 2.14795,-1.808805 4.78442,-5.062167 6.66245,-7.422059 z"
         style="fill:#f87e32;fill-opacity:1" />
      <path
         sodipodi:nodetypes="scccccccccccs"
         inkscape:connector-curvature="0"
         id="path4243"
         d="m 235.08152,55.88374 c -0.0838,-2.174483 -0.25551,-4.760047 -0.3817,-5.745699 -0.58085,-13.173918 -5.24339,-27.289074 -10.82988,-37.604077 -1.2603,-1.936344 -1.69881,-2.463593 -4.15377,-4.9942757 -9.05356,-6.97899008 -17.31206,-4.3537112 -21.65121,5.8702497 -1.92421,4.908354 -4.32525,12.008974 -5.28049,16.906099 2.74532,0.971217 6.53623,2.511623 9.02756,3.380784 2.6686,-7.774104 5.19738,-22.321118 14.53837,-18.600426 4.63939,2.073874 9.11844,15.565532 10.44602,23.367341 0.42253,3.562721 1.01405,9.348092 0.5054,11.653659 -0.22186,0.355236 -0.0822,0.613107 0.81959,1.513306 2.14355,2.847412 3.46641,4.389397 5.41852,6.956396 1.56851,2.354094 1.72576,2.078333 1.54159,-2.703357 z"
         style="fill:#f87e32;fill-opacity:1" />
      <path
         sodipodi:nodetypes="ccccc"
         inkscape:connector-curvature="0"
         id="path4245"
         d="m 196.4579,75.641257 c 6.37765,-6.028095 19.52857,-5.979516 25.1211,-0.09498 -0.24589,-7.35e-4 -0.75909,-0.164252 -1.14047,-0.363164 -4.19853,-2.358766 -8.3372,-2.524048 -11.67936,-2.616069 -3.62519,-0.279552 -12.49637,3.623581 -12.30127,3.074217 z"
         style="fill:#000000" />
      <path
         sodipodi:nodetypes="csccccc"
         inkscape:connector-curvature="0"
         id="path4247"
         d="m 126.05798,72.034825 c 2.44358,-0.590712 6.93073,-0.721544 8.69841,-0.253621 3.25266,0.861021 6.93601,2.512325 8.03279,3.601238 -2.93255,-0.716887 -8.53672,-2.037469 -12.31579,-2.107301 -4.71066,0.05277 -8.86526,1.42781 -12.7266,3.023607 l -0.97897,0.401578 c 2.61432,-2.176252 6.64823,-3.989495 9.29016,-4.665501 z"
         style="fill:#000000" />
      <path
         inkscape:connector-curvature="0"
         id="path4269"
         d="m 166.06488,190.2172 c -4.59077,-1.02456 -8.9266,-3.21296 -12.29652,-6.52309 -8.56289,-8.22377 -10.30968,-17.44097 -13.30518,-27.77916 -0.96313,-3.79208 -2.46762,-7.65747 -5.94483,-9.68572 -3.66136,-2.51474 -5.79259,-7.72997 -3.57217,-11.82747 0.5775,-1.59694 4.07323,-5.66748 4.67988,-4.41832 -1.39251,3.00302 -2.6142,6.25229 -2.1763,9.64678 0.86651,4.94355 6.26014,7.56077 10.89521,7.715 8.7244,0.5034 14.97867,-2.63083 20.19065,-8.73468 1.23986,-2.40324 2.92319,-8.38932 5.09867,-4.40556 1.61056,3.14207 3.78048,5.97179 6.60793,8.05219 4.03985,2.67367 9.19469,4.54338 14.248,4.09064 2.9309,-0.12064 5.76581,-1.2515 8.37106,-2.60232 2.4445,-1.36792 5.14642,-3.33206 5.66543,-6.28452 0.27073,-3.06022 -1.37084,-5.81242 -2.8518,-8.31459 2.37337,0.0679 4.97742,3.92462 5.01722,8.21637 0.26263,2.98694 -1.31325,5.76667 -3.80821,7.29998 -3.68838,2.35294 -5.19999,6.72685 -5.50934,10.88481 -0.63477,3.86514 -1.46346,7.68528 -2.60441,11.42746 -1.16806,3.00498 -2.08648,6.08178 -3.88067,8.8209 -2.93985,5.37615 -7.22666,10.23135 -12.74926,13.005 -3.771,1.62291 -8.00415,1.96559 -12.07536,1.4163 z"
         style="fill:#000000"
         sodipodi:nodetypes="cccccccccccccccccccccc" />
      <path
         inkscape:connector-curvature="0"
         id="path4261"
         d="m 182.23688,162.96486 c 2.67811,-2.83218 2.8973,-7.5409 3.02972,-10.88177 0.008,-0.63791 0.007,-1.27589 0.0106,-1.91384 -4.0035,-1.61101 -9.11272,-3.94473 -13.158,-5.8204 -0.63604,-0.136 -2.06435,-1.41748 -1.93844,-0.11224 -0.0875,3.7404 0.14606,7.47962 0.19716,11.21942 0.11255,3.14825 0.0536,6.3087 0.36465,9.4461 3.89083,0.82757 9.57781,0.19643 11.49434,-1.93727 z"
         style="fill:#ffffff;fill-opacity:1"
         sodipodi:nodetypes="cccccccc" />
      <path
         inkscape:connector-curvature="0"
         id="path4263"
         d="m 167.9893,162.55372 c -0.1107,-6.12008 -0.23354,-12.24087 -0.44705,-18.35818 -0.0459,-1.41629 -1.48469,-0.0504 -2.09634,0.1849 -2.08377,1.02524 -4.04202,2.2851 -6.11703,3.32932 -1.71875,0.94607 -3.43701,1.89478 -5.16146,2.82843 -1.0201,0.39045 -0.60086,1.56436 -0.59942,2.3926 0.30018,2.82589 0.53779,5.76494 1.89422,8.32001 3.04227,3.46673 8.93866,4.33092 12.5606,4.23983 -0.0112,-0.97897 -0.0223,-1.95794 -0.0335,-2.93691 z"
         style="fill:#ffffff;fill-opacity:1"
         sodipodi:nodetypes="ccccccccc" />
      <path
         inkscape:connector-curvature="0"
         id="path4265"
         d="m 155.17384,175.49146 c 3.82651,-2.04634 8.07488,-3.16902 12.39601,-3.46954 2.73658,-0.14192 5.51655,0.0978 8.21013,0.59596 1.92963,0.47903 3.78256,1.05738 5.68991,1.62661 1.90075,0.65793 3.67747,1.41235 5.48224,2.31469 4.52678,-7.19578 8.35683,-18.91374 9.05946,-27.11694 -2.21232,0.23347 -3.66504,0.33001 -5.48187,0.3586 -2.77282,0.20833 -3.52903,9.29728 -3.91384,11.5051 -0.56493,1.88401 -1.70363,3.51212 -3.34821,4.68034 -2.46806,1.86283 -5.70882,1.38447 -8.56365,2.01288 -4.83895,0.33201 -9.73939,0.41955 -14.54856,-0.28361 -2.00656,-0.58342 -4.02243,-1.49715 -5.46455,-3.08807 -3.30794,-3.00138 -3.07288,-10.49078 -5.066,-12.79435 -1.6172,-1.46003 -4.08196,-0.722 -6.07068,-0.86688 -1.84839,0.1349 1.47126,12.05635 3.07393,15.23405 1.48904,3.66255 3.16358,8.13248 5.70135,10.7682 0.93024,-0.47474 1.87851,-1.02857 2.84433,-1.47704 z"
         style="fill:#a90e27;fill-opacity:1"
         sodipodi:nodetypes="ccccccccccccccccc" />
      <path
         style="fill:#fe5349;fill-opacity:1"
         d="m 173.98373,187.24186 c 3.17568,-1.06977 11.97618,-6.4252 10.72062,-9.75618 -1.35247,-1.41694 -3.40781,-1.63043 -5.09276,-2.46637 -6.33572,-2.02091 -13.28202,-1.98346 -19.6436,-0.0962 -1.96084,0.63999 -3.80574,1.64124 -5.41052,2.93258 -0.91609,1.14912 -0.0508,2.7403 1.00072,3.47107 2.19114,1.99499 4.4036,4.11451 7.24056,5.15194 3.52982,1.43758 7.48533,1.48712 11.18498,0.76316 z"
         id="path4267"
         inkscape:connector-curvature="0"
         sodipodi:nodetypes="cccccccc" />
      <path
         inkscape:connector-curvature="0"
         id="path4271"
         d="m 167.27824,202.84317 c -3.52822,-0.70316 -6.11898,-1.48426 -8.9106,-3.54874 -1.48433,-0.97237 -2.71449,-2.30421 -3.77443,-3.71789 -0.61655,-0.49483 -0.4094,-1.43169 0.3848,-0.70533 2.55072,1.68484 5.29024,3.15958 8.22324,4.05572 3.81451,1.00559 7.85879,1.88965 11.77612,0.90557 3.50986,-0.69919 6.95865,-1.95567 9.87669,-4.06316 2.59145,-0.52267 -1.92974,2.68882 -2.38857,3.16418 -4.24803,3.14001 -7.26852,3.44599 -11.77363,3.92912 -1.12813,0.0402 -2.3064,0.23868 -3.41362,-0.0195 z"
         style="fill:#000000"
         sodipodi:nodetypes="ccccccccccc" />
    </g>
    <g
       id="m6">
      <circle
         style="fill:#000000;fill-opacity:1;stroke:none;stroke-width:0.5;stroke-miterlimit:4;stroke-dasharray:none;stroke-opacity:1"
         id="pivot_m6"
         cx="118.95196"
         cy="317.59805"
         r="0" />
      <path
         style="fill:#000000;fill-opacity:1"
         d="m 125.06909,308.44413 c -6.79163,-0.14476 -17.81963,3.31861 -23.86,8.93215 -7.743891,6.77381 -11.445305,17.22705 -12.266284,28.38772 -0.885987,26.56276 31.090154,41.44437 51.396474,40.88376 4.37293,-23.6893 -3.45976,-73.85451 -10.23242,-76.80211 -0.98077,-0.9041 -2.7739,-1.35328 -5.03777,-1.40152 z"
         id="path4293"
         inkscape:connector-curvature="0"
         sodipodi:nodetypes="sccccs" />
      <path
         style="fill:#f87e32;fill-opacity:1"
         d="m 110.44716,314.92454 c -4.2753,1.68249 -8.10027,4.42289 -10.736643,8.22516 -4.76839,6.51857 -8.160391,14.34688 -8.034914,22.53782 -0.09816,4.8959 0.680519,9.83042 3.303546,14.02727 8.219381,14.70263 28.707981,23.56069 42.991971,24.35092 2.95409,-22.57524 -2.11273,-65.61347 -10.98377,-71.83429 -5.79204,-0.4246 -12.07907,0.69348 -16.54019,2.69312 z"
         id="path4291"
         inkscape:connector-curvature="0"
         sodipodi:nodetypes="ccccccc" />
      <g
         id="m7">
        <circle
           r="0"
           cy="375.11255"
           cx="117.23876"
           id="pivot_m7"
           style="fill:#000000;fill-opacity:1;stroke:none;stroke-width:0.5;stroke-miterlimit:4;stroke-dasharray:none;stroke-opacity:1" />
        <path
           style="fill:#000000;fill-opacity:1"
           d="m 140.64083,385.08675 c -8.75629,-12.39249 -34.57882,-20.09747 -44.919324,-19.60713 -7.013409,0.67512 -10.098417,5.51699 -13.06026,10.93788 -2.378084,5.70179 4.239509,13.50073 8.50399,17.24669 4.232845,2.93896 8.475972,5.0853 13.188224,6.15586 0.62185,0.0701 1.24716,0.0995 1.87237,0.1176 6.08251,0.40299 11.96604,-1.24804 17.93121,-2.06551 4.43003,-0.95672 9.09446,-1.53409 13.24095,-3.33652 1.46836,-2.265 2.52043,-5.53542 3.24284,-9.44887 z"
           id="path5782"
           inkscape:connector-curvature="0"
           sodipodi:nodetypes="ccccccccc" />
        <path
           style="fill:#f87e32;fill-opacity:1"
           d="m 137.97113,384.55519 c -8.33209,-8.48852 -28.06721,-16.89675 -39.176482,-15.31025 -2.898161,0.0472 -5.869562,1.49801 -8.502409,2.7849 -1.726237,0.36229 -5.030211,6.09895 -1.543025,3.77725 2.423291,-1.78427 5.850772,-3.90829 8.845624,-2.22419 0.88424,2.8001 -4.304822,3.03214 -6.128601,4.4025 -3.21293,1.30692 -6.505998,4.20913 -4.328402,7.87383 1.64544,3.70469 5.803232,0.80608 7.574108,-1.30737 2.821702,-2.70056 7.532227,-3.5888 10.753367,-1.11808 -0.43142,2.86503 -5.650254,2.19018 -7.921141,3.65584 -3.578186,0.20522 -4.406037,4.10712 -1.20985,5.45556 6.192731,4.30546 14.115701,4.8002 21.401101,4.24809 5.06051,-0.31829 13.64979,-2.92957 18.52681,-4.13385 0.73497,-2.19571 1.29718,-4.95789 1.7089,-8.10423 z"
           id="path5779"
           inkscape:connector-curvature="0"
           sodipodi:nodetypes="cccccccccccccc" />
      </g>
    </g>
    <g
       id="m8">
      <circle
         style="fill:#000000;fill-opacity:1;stroke:none;stroke-width:0.5;stroke-miterlimit:4;stroke-dasharray:none;stroke-opacity:1"
         id="pivot_m8"
         cx="216.84894"
         cy="312.70322"
         r="0" />
      <path
         style="fill:#000000;fill-opacity:1"
         d="m 212.57121,305.46466 c -2.89259,-0.0639 -5.78884,0.26873 -8.61523,1.09897 -19.97246,7.37007 -4.57842,52.46409 2.25095,76.46794 11.81489,-0.43182 31.07624,-12.3209 37.81376,-25.4401 2.97007,-5.19779 3.6483,-10.84196 3.90822,-17.1946 -0.14675,-7.38209 -1.29917,-14.68917 -5.79254,-20.48954 -3.67782,-5.42381 -8.8762,-8.74705 -15.23299,-11.52233 -4.45941,-1.84631 -9.51111,-2.81375 -14.3321,-2.92034 z"
         id="path4289"
         inkscape:connector-curvature="0"
         sodipodi:nodetypes="cccccccsc" />
      <path
         style="fill:#f87e32;fill-opacity:1"
         d="m 216.16873,308.65924 c -30.94192,-1.77904 -15.61453,48.15611 -7.73137,71.21334 11.40691,-3.18153 20.81657,-9.10919 27.82032,-17.48665 2.36864,-3.42395 4.77301,-6.95463 6.11618,-10.92163 2.31458,-5.76809 2.67369,-12.15186 2.03394,-18.29545 -1.08957,-7.76448 -6.37129,-14.35297 -12.69648,-18.6927 -4.73876,-2.91733 -9.97881,-5.10464 -15.54259,-5.81691 z"
         id="path4287"
         inkscape:connector-curvature="0"
         sodipodi:nodetypes="ccccccc" />
      <g
         id="m9">
        <circle
           r="0"
           cy="367.77026"
           cx="227.86235"
           id="pivot_m9"
           style="fill:#000000;fill-opacity:1;stroke:none;stroke-width:0.5;stroke-miterlimit:4;stroke-dasharray:none;stroke-opacity:1" />
        <path
           style="fill:#000000;fill-opacity:1"
           d="m 244.03782,357.84958 c -16.4722,0.98844 -30.52117,7.67003 -38.95176,21.35757 1.1402,4.00764 2.50792,9.03702 3.00998,11.74338 1.71604,5.08502 3.38438,3.40919 6.01245,3.79111 1.08988,0.0458 2.18072,0.0696 3.27152,0.0875 6.75778,-0.098 13.60276,0.40706 20.29928,-0.62235 4.54834,-0.59899 8.76298,-2.79758 11.78589,-6.25577 2.18557,-2.94677 4.56011,-5.8026 5.79303,-9.33797 1.78987,-2.96866 2.20065,-6.60776 1.32839,-9.93978 -0.51577,-3.71783 -1.15756,-8.65974 -5.53872,-9.70702 -1.76596,-1.4676 -2.51659,-1.16224 -7.01006,-1.11664 z"
           id="path5063"
           inkscape:connector-curvature="0"
           sodipodi:nodetypes="ccccccccccc" />
        <path
           sodipodi:nodetypes="ccccccccccccccc"
           inkscape:connector-curvature="0"
           id="path5060"
           d="m 208.43736,379.87258 c 1.17528,3.43758 2.19608,6.32975 2.86185,8.3093 7.70104,2.7849 16.16076,2.63392 23.73476,2.28825 3.80882,-0.10762 7.89037,-0.53601 11.12861,-2.69122 2.37527,-1.98358 5.77357,-5.50807 3.66731,-8.69792 -3.57113,-1.90625 -7.83959,-1.92057 -11.78586,-2.4369 -4.61195,-0.17994 1.68757,-1.86937 3.24235,-1.4455 3.79059,-0.2283 7.32639,1.28938 10.82889,2.32647 3.14783,-1.19251 3.07691,-6.55126 1.38767,-8.27773 -2.11651,-1.5583 -4.96521,-2.25285 -7.51195,-3.01292 -1.59971,-0.10096 -6.78913,-1.22181 -2.43118,-1.80738 3.55631,0.36966 7.13478,1.13436 10.32938,2.76865 2.95238,2.49858 0.73783,-2.52092 0.0535,-3.69551 -2.72448,-1.66932 -5.65262,-3.488 -8.90442,-2.99188 -15.22024,-0.38887 -29.13585,10.73827 -36.60094,19.36429 z"
           style="fill:#f87e32;fill-opacity:1" />
      </g>
    </g>
    <g
       id="m1">
      <circle
         style="fill:#000000;fill-opacity:1;stroke:none;stroke-width:0.5;stroke-miterlimit:4;stroke-dasharray:none;stroke-opacity:1"
         id="pivot_m1"
         cx="125.07052"
         cy="218.47737"
         r="0" />
      <path
         style="opacity:1;fill:#000000;fill-opacity:1"
         d="m 125.03247,211.24766 c -0.67255,0.0649 -1.33925,0.40608 -1.98379,1.12301 -4.12133,4.81492 -7.157,10.52778 -9.78796,16.26806 -2.71367,8.6087 -2.10356,17.17926 -3.40895,25.99943 -1.3011,6.11524 -2.51114,12.05749 -4.10986,17.97776 6.00185,8.96623 13.44667,9.55303 23.20032,6.73602 0.64879,-1.70542 1.77211,-4.66438 2.33201,-6.36431 4.03806,-12.15342 7.13515,-25.37215 6.26042,-38.27769 -0.58921,-6.45839 -0.43425,-10.08234 -4.75527,-16.8466 -1.80842,-1.99147 -4.83253,-6.89705 -7.74692,-6.61568 z"
         id="path4285"
         inkscape:connector-curvature="0"
         sodipodi:nodetypes="sccccccccs" />
      <path
         style="opacity:1;fill:#f87e32;fill-opacity:1"
         d="m 124.60125,214.06807 c -0.80798,0.26192 -1.63887,1.0648 -2.59719,2.59657 -3.92312,6.72872 -7.30477,13.96507 -8.45887,21.68601 -0.74274,7.08358 -0.45149,13.81008 -2.45576,20.50426 -0.97724,4.19486 -2.03886,9.06203 -3.13588,13.2284 5.06875,6.91953 11.60169,7.81404 20.22267,5.11208 3.93056,-10.66034 6.96985,-22.54132 7.44957,-33.91523 0.0144,-9.60267 0.10784,-20.17841 -6.69294,-26.87767 -1.70209,-1.70392 -2.98498,-2.77095 -4.3316,-2.33442 z"
         id="path4283"
         inkscape:connector-curvature="0"
         sodipodi:nodetypes="ccccccccc" />
      <g
         id="m2">
        <circle
           style="fill:#000000;fill-opacity:1;stroke:none;stroke-width:0.5;stroke-miterlimit:4;stroke-dasharray:none;stroke-opacity:1"
           id="pivot_m2"
           cx="117.72825"
           cy="272.32071"
           r="0" />
        <path
           style="opacity:1;fill:#000000;fill-opacity:1"
           d="m 130.52742,270.72614 c -3.79212,-6.64699 -19.08611,-5.81829 -24.46002,0.25284 -0.0146,7.49424 -0.57892,17.49471 -2.65358,25.74754 -2.62683,10.658 -10.144373,19.15482 -13.552045,29.51359 -0.747455,2.6607 -3.213015,11.04653 2.145212,8.6553 5.67605,-4.97875 -0.18527,6.33704 3.78725,7.90919 2.219322,2.68524 4.963913,-3.32274 5.022193,-0.93428 0.52678,4.33096 7.43773,4.06525 9.24501,-0.12952 5.80273,-15.11632 12.8176,-29.72277 16.43864,-45.57491 1.58233,-7.62216 3.54411,-17.53528 4.02734,-25.43975 z"
           id="path5020"
           inkscape:connector-curvature="0"
           sodipodi:nodetypes="cccccccccc" />
        <path
           style="opacity:1;fill:#f87e32;fill-opacity:1"
           d="m 129.05089,271.1831 c -2.33468,-4.35076 -17.48899,-4.99867 -20.97003,0.25492 0.0104,2.40567 -0.0723,4.98183 -0.19176,7.38934 -0.26142,9.25667 -2.03083,21.32353 -6.42305,28.52786 -2.375921,3.70741 -4.576216,7.53425 -6.631045,11.49353 -2.198213,4.26365 -3.676785,9.25589 -4.503647,14.11598 1.893863,3.12265 2.607973,-4.76626 4.143805,-5.22709 5.435894,2.20675 0.205439,9.3255 1.48612,13.60979 1.330327,3.12455 6.276837,-6.20596 6.804877,0.20132 2.21771,6.1508 5.7622,-2.58795 6.69981,-5.25973 3.42891,-6.82283 6.21217,-13.95282 9.00163,-21.02776 3.7285,-10.54414 7.23366,-21.43139 8.82526,-32.61381 0.6006,-4.07937 1.43466,-7.89172 1.75803,-11.46435 z"
           id="path5017"
           inkscape:connector-curvature="0"
           sodipodi:nodetypes="ccccccccccccc" />
      </g>
    </g>
    <g
       id="m3">
      <circle
         style="fill:#000000;fill-opacity:1;stroke:none;stroke-width:0.5;stroke-miterlimit:4;stroke-dasharray:none;stroke-opacity:1"
         id="pivot_m3"
         cx="209.50667"
         cy="218.47737"
         r="0" />
      <path
         style="fill:#000000;fill-opacity:1"
         d="m 210.087,210.0101 c -0.30421,-0.0692 -0.62289,-0.11473 -0.95765,-0.13489 -13.10991,2.4603 -14.14971,22.29303 -13.51905,32.55728 0.28922,4.13189 -0.10896,4.91323 1.11952,11.13368 1.7835,6.93084 4.60589,14.35316 6.3486,20.23474 10.28098,2.39268 17.34572,-1.0708 22.31318,-5.70441 -1.2324,-5.32094 -2.45472,-11.66398 -3.28584,-17.01584 -0.5246,-10.32436 -0.28914,-20.5278 -3.92452,-30.13071 -2.26139,-3.60451 -3.53087,-9.90101 -8.09424,-10.93985 z"
         id="path4281"
         inkscape:connector-curvature="0"
         sodipodi:nodetypes="scccccccs" />
      <path
         style="fill:#f87e32;fill-opacity:1"
         d="m 211.30129,213.1739 c -4.38992,-0.46821 -7.92614,3.23263 -10.14899,6.75281 -4.14191,8.54589 -4.96041,21.29619 -3.14802,29.64617 1.78428,8.10168 4.27657,15.25653 6.50914,22.14708 6.08722,1.8074 14.88887,0.58408 18.76973,-5.26967 -0.26445,-1.16801 -0.55745,-2.34341 -0.81458,-3.50349 -3.49845,-11.33475 -1.74049,-23.54696 -4.1487,-33.9713 -1.27577,-5.70649 -3.02933,-11.21726 -7.01858,-15.8016 z"
         id="path4279"
         inkscape:connector-curvature="0"
         sodipodi:nodetypes="cccccccc" />
      <g
         id="m4">
        <circle
           style="fill:#000000;fill-opacity:1;stroke:none;stroke-width:0.5;stroke-miterlimit:4;stroke-dasharray:none;stroke-opacity:1"
           id="pivot_m4"
           cx="214.4015"
           cy="268.64957"
           r="0" />
        <path
           style="fill:#000000;fill-opacity:1"
           d="m 224.90109,265.75207 c -9.35633,-5.16693 -16.99085,-4.59176 -23.18927,2.11066 0.73121,8.09382 3.24106,18.40698 5.33213,26.21262 4.43544,13.28159 10.25813,26.07068 15.82734,38.89574 1.79343,3.23445 3.13645,7.98879 7.69989,7.72364 4.136,1.72937 1.54979,-4.74625 4.02435,-3.47062 5.14253,3.99001 5.8725,-3.48176 4.58366,-7.02267 -1.33406,-5.85759 3.6194,2.31847 5.3432,-0.384 1.28034,-2.6255 -0.20784,-5.86268 -0.87435,-8.5117 -3.53731,-8.72331 -8.20677,-16.46241 -13.25483,-24.39013 -1.96384,-5.39676 -3.51335,-10.89432 -4.44112,-16.60298 -0.35114,-3.98539 -0.839,-10.56982 -1.051,-14.56056 z"
           id="path5032"
           inkscape:connector-curvature="0"
           sodipodi:nodetypes="cccccccccccc" />
        <path
           style="fill:#f87e32;fill-opacity:1"
           d="m 223.27407,267.36587 c -7.39081,-4.88662 -14.87746,-4.19718 -19.48192,1.45113 0.31992,2.29037 0.62883,4.59577 0.89273,6.9699 4.02584,22.28683 13.31743,40.64727 20.29661,55.63666 0.66616,3.23618 5.92068,9.67137 6.46142,2.9083 1.31341,-2.48594 8.28377,5.14762 6.80548,-0.59049 0.11003,-3.39695 -3.33354,-8.30592 1.19858,-10.07428 0.21728,3.29085 5.3752,7.94659 3.74181,2.55934 l -0.21067,-0.82852 c -1.26045,-4.66306 -3.18359,-9.33367 -5.71246,-13.35178 -1.89861,-3.38616 -4.44851,-6.62489 -6.49424,-9.97676 -5.87845,-10.57299 -6.92426,-22.80453 -7.49734,-34.70357 z"
           id="path5029"
           inkscape:connector-curvature="0"
           sodipodi:nodetypes="cccccccccccc" />
      </g>
    </g>
  </g>
  <path
     inkscape:connector-curvature="0"
     id="path6176"
     d="m 243.27712,91.267564 -19.1091,0"
     style="fill:none;fill-rule:evenodd;stroke:#000000;stroke-width:3.05997443;stroke-linecap:butt;stroke-linejoin:miter;stroke-miterlimit:4;stroke-dasharray:none;stroke-opacity:1" />
  <path
     inkscape:connector-curvature="0"
     id="path6174"
     d="m 194.71798,92.246758 c -16.73728,-3.58252 -33.65212,-4.143581 -50.84383,0"
     style="fill:none;fill-rule:evenodd;stroke:#000000;stroke-width:3.05997443;stroke-linecap:butt;stroke-linejoin:miter;stroke-miterlimit:4;stroke-dasharray:none;stroke-opacity:1"
     sodipodi:nodetypes="cc" />
  <path
     style="fill:none;fill-rule:evenodd;stroke:#000000;stroke-width:3.05997443;stroke-linecap:butt;stroke-linejoin:miter;stroke-miterlimit:4;stroke-dasharray:none;stroke-opacity:1"
     d="m 115.00271,91.267564 -19.109106,0"
     id="path6172"
     inkscape:connector-curvature="0" />
  <rect
     ry="2.7298715"
     style="opacity:1;fill:none;fill-opacity:1;stroke:#000000;stroke-width:2.85908437;stroke-linecap:round;stroke-linejoin:round;stroke-miterlimit:1;stroke-dasharray:none;stroke-opacity:1"
     id="rect6170"
     width="29.370773"
     height="24.115915"
     x="114.83954"
     y="79.32402" />
  <rect
     y="79.32402"
     x="195.21962"
     height="24.115915"
     width="29.370773"
     id="rect6168"
     style="opacity:1;fill:none;fill-opacity:1;stroke:#000000;stroke-width:2.85908437;stroke-linecap:round;stroke-linejoin:round;stroke-miterlimit:1;stroke-dasharray:none;stroke-opacity:1"
     ry="2.7298715" />
</svg>
