<?xml version="1.0" encoding="UTF-8" standalone="no"?>
<!-- Created with Inkscape (http://www.inkscape.org/) -->

<svg
   xmlns:dc="http://purl.org/dc/elements/1.1/"
   xmlns:cc="http://creativecommons.org/ns#"
   xmlns:rdf="http://www.w3.org/1999/02/22-rdf-syntax-ns#"
   xmlns:svg="http://www.w3.org/2000/svg"
   xmlns="http://www.w3.org/2000/svg"
   xmlns:sodipodi="http://sodipodi.sourceforge.net/DTD/sodipodi-0.dtd"
   xmlns:inkscape="http://www.inkscape.org/namespaces/inkscape"
   id="svg4206"
   version="1.1"
   inkscape:version="0.91 r13725"
   width="1700"
   height="2200"
   viewBox="0 0 1700 2200"
   sodipodi:docname="ardilla2.svg">
  <metadata
     id="metadata4212">
    <rdf:RDF>
      <cc:Work
         rdf:about="">
        <dc:format>image/svg+xml</dc:format>
        <dc:type
           rdf:resource="http://purl.org/dc/dcmitype/StillImage" />
        <dc:title></dc:title>
      </cc:Work>
    </rdf:RDF>
  </metadata>
  <defs
     id="defs4210" />
  <sodipodi:namedview
     pagecolor="#ffffff"
     bordercolor="#666666"
     borderopacity="1"
     objecttolerance="10"
     gridtolerance="10"
     guidetolerance="10"
     inkscape:pageopacity="0"
     inkscape:pageshadow="2"
     inkscape:window-width="2560"
     inkscape:window-height="1318"
     id="namedview4208"
     showgrid="false"
     inkscape:zoom="0.50727273"
     inkscape:cx="850"
     inkscape:cy="1100"
     inkscape:window-x="0"
     inkscape:window-y="0"
     inkscape:window-maximized="1"
     inkscape:current-layer="svg4206" />
  <g
     id="puppet">
    <g
       id="m5">
      <circle
         r="0"
         cy="1485"
         cx="1085"
         id="pivot_m5"
         style="fill:#000000;fill-opacity:1;stroke:none;stroke-width:0.5;stroke-miterlimit:4;stroke-dasharray:none;stroke-opacity:1" />
      <path
         style="opacity:1;fill:#000000;fill-opacity:1;stroke:none;stroke-opacity:1"
         d="m 1243.3105,576.76367 c -22.3444,0.0327 -44.5266,3.68997 -65.7675,11.56055 -191.95333,86.54086 -179.39019,249.46639 -177.1895,363.11328 9.9087,209.9991 151.432,325.9789 68.1357,550.7078 45.2505,-6.515 81.6721,-17.7193 117.4737,-50.6336 51.2652,-40.8514 91.7058,-97.0041 114.0957,-160.0117 28.2085,-91.1714 -2.7772,-186.2295 -8.0586,-278.1738 0.8073,-26.06166 22.3495,26.6551 118.0312,-23.15237 76.1948,-44.15099 91.8564,-115.21605 86.6426,-189.48438 -7.3229,-118.58109 -132.7034,-224.10218 -253.3633,-223.92578 z"
         id="path5596"
         inkscape:connector-curvature="0"
         sodipodi:nodetypes="sccccccccs" />
      <path
         sodipodi:nodetypes="cccccccccccc"
         inkscape:connector-curvature="0"
         id="path4257"
         d="m 1124.9133,1415.0437 c 32.0949,-18.8474 65.9511,-36.6262 85.8563,-71.6006 32.1895,-65.2402 46.1917,-137.2437 32.8586,-210.8273 -16.1647,-61.5529 -45.2929,-123.6601 -43.4485,-189.84895 -4.3158,-61.10249 28.3694,-126.19269 87.8864,-147.95981 54.5929,-24.16384 132.7877,-5.49955 153.5649,55.10021 11.6895,33.36047 7.3259,70.31732 -4.3261,103.05299 160.2441,-169.84319 -71.184,-410.37519 -241.6,-354.84244 -161.975,58.52628 -189.9628,217.06858 -181.3414,354.95065 -0.4429,36.25569 10.278,91.72125 32.9147,140.28935 50.2592,129.1502 75.6968,243.935 72.6166,323.8084 z"
         style="fill:#f87e32;fill-opacity:1" />
      <path
         sodipodi:nodetypes="ccccccccccccccccccccc"
         inkscape:connector-curvature="0"
         id="path4259"
         d="m 1188.5636,1432.486 c 17.3801,-17.7552 33.9022,-34.2614 49.1864,-51.7857 27.5056,-34.5316 48.2573,-66.3076 58.0485,-115.7298 9.2656,-45.45 5.231,-92.5747 0.01,-138.2705 -14.1794,-61.2444 -17.007,-119.6901 -23.9584,-178.49705 -2.285,-27.70568 -6.012,-61.9932 19.916,-80.33478 19.8731,-12.33804 47.1244,-8.27709 67.2167,-0.95576 -24.7008,0.7786 -56.5129,-2.10464 -70.5477,23.37033 -13.422,26.54787 -7.1346,57.67781 -5.9076,86.17066 1.1982,26.8753 39.0476,23.51751 59.8563,22.79146 28.7219,-2.18376 56.0265,-16.04581 78.1871,-33.49486 19.9237,-38.65046 28.9919,-90.57891 2.0205,-128.14468 -20.4227,-25.97973 -52.4276,-43.56252 -86.0092,-40.53936 -44.2576,1.83273 -84.6387,28.12895 -107.5787,65.61996 -17.971,26.34688 -21.6903,64.12434 -19.4359,99.07478 5.4537,69.2553 42.8179,137.382 50.3679,201.749 2.7157,42.4989 -3.4314,85.2585 -11.8724,126.8354 -6.941,27.9292 -20.0726,54.7805 -38.3851,76.3603 -25.0068,24.4515 -53.4874,46.6441 -84.885,62.7302 -20.6623,44.5621 -32.5979,56.2619 2.1558,43.9623 20.225,-12.4001 50.9364,-32.2557 61.6148,-40.9119 z"
         style="fill:#ffe5c4;fill-opacity:1" />
    </g>
    <path
       style="opacity:1;fill:#000000;fill-opacity:1;stroke:none;stroke-opacity:1"
       d="m 1046.8879,1087.5947 c -8.9953,-26.9992 -31.3371,-107.07099 -39.2162,-135.46023 -35.62621,-13.24009 -311.34321,-5.32374 -330.16389,8.56475 -21.69655,86.25298 -63.06081,178.13598 -97.0332,260.55468 -41.26549,100.6488 -32.03976,222.5114 35.55273,309.5918 43.5382,52.6324 111.22791,84.758 177.47266,97.5859 30.51094,2.7476 61.36073,5.0654 91.53125,-0.037 246.82385,-37.2555 270.88975,-270.4899 161.85665,-540.7999 z"
       id="path4209"
       inkscape:connector-curvature="0"
       sodipodi:nodetypes="cccccccc" />
    <path
       style="fill:#ffe5c4;fill-opacity:1"
       d="M 693.43111,968.74885 C 671.21138,1039.6018 596.62508,1203.769 572.82229,1301.55 c -11.78624,76.8056 2.04576,159.4128 52.21093,221.0742 29.07975,42.5199 76.98448,69.1047 125.7168,82.7772 -75.12372,-36.9528 -111.78272,-120.0411 -130.03711,-197.0595 -19.01193,-82.0792 25.14003,-244.9395 57.9043,-321.1928 -15.78327,80.2806 -58.77871,240.4521 -46.49219,322.2385 12.29129,69.0563 45.16396,143.4007 110.73828,177.2589 72.10526,33.1566 166.59464,29.062 223.91602,-29.913 54.48518,-50.8228 79.76018,-127.715 72.18748,-201.1863 -4.652,-85.9319 -21.15,-206.8769 -39.6074,-290.72 36.9043,108.0242 68.0951,261.0517 49.4492,375.5714 -11.988,71.5715 -60.85763,137.7483 -131.88475,160.6496 -12.0385,5.8355 -60.41397,15.0423 -21.92383,10.9799 80.2362,-8.7363 156.50408,-60.4026 183.49018,-137.1754 40.0268,-108.6826 13.6518,-227.8892 -26.6269,-333.3326 -19.5504,-63.4838 -39.158,-124.8421 -51.8389,-175.9112 -38.48617,-16.12437 -264.11682,-10.18591 -306.59329,3.13995 z"
       id="path5599"
       inkscape:connector-curvature="0"
       sodipodi:nodetypes="cccccccccccccccccc" />
    <g
       id="m0">
      <circle
         style="fill:#000000;fill-opacity:1;stroke:none;stroke-width:0.5;stroke-miterlimit:4;stroke-dasharray:none;stroke-opacity:1"
         id="pivot_m0"
         cx="850.30225"
         cy="983.09204"
         r="0" />
      <path
         style="opacity:1;fill:#000000;fill-opacity:1;stroke:none;stroke-opacity:1"
         d="m 677.17196,127.36461 c -71.17048,12.92262 -86.6659,102.44115 -94.55473,163.90687 -8.89852,78.01999 -28.68754,151.69366 -39.98832,230.42188 -10.18423,87.31716 -55.83828,90.76207 -79.58789,150.49805 -25.24074,76.68135 9.83444,164.89143 66.99609,218.39257 171.83755,154.70982 480.32959,123.27682 635.28389,-12.85612 67.1646,-71.63043 125.6222,-181.858 8.179,-288.63606 -25.3036,-57.98715 -8.525,-141.20257 -47.2266,-201.5918 5.0733,-65.09978 -6.898,-131.24678 -31.2011,-191.63672 -20.0937,-73.83071 -135.03952,-95.76373 -146.14261,-3.3789 -9.27142,67.78189 -74.51604,37.04358 -149.50781,44.13281 -78.8267,4.06791 -42.07323,-111.98206 -122.24992,-109.25258 z"
         id="path4277"
         inkscape:connector-curvature="0"
         sodipodi:nodetypes="cccccccccccc" />
      <path
         style="fill:#ffe5c4;fill-opacity:1;opacity:1"
         d="m 911.56055,556 c -8.67115,55.04042 -85.72857,79.15521 -119.75782,31.32031 -23.47654,-49.61725 -76.25964,27.4176 -103.5332,46.42188 -17.43519,18.75415 -13.31637,13.90067 -4.20508,-3.43555 -48.7935,-51.56844 -148.64733,-55.90368 -187.7207,9.62695 -28.54743,33.24968 -38.61341,78.29939 -26.96289,120.47657 15.68512,93.17424 97.61165,156.08727 181.6745,189.94982 161.44938,68.35592 382.94354,32.31072 514.01694,-83.65295 49.182,-54.7383 85.7473,-133.43214 53.0078,-204.70703 -20.2679,-40.5818 -58.6864,-72.65819 -101.3164,-87.05078 -42.6597,-5.62414 -83.2436,17.73679 -113.5879,45.3125 11.2804,10.11656 38.4165,62.40853 10.793,25.62109 C 987.80144,609.1182 955.34213,571.18858 911.56055,556 Z"
         id="path4275"
         inkscape:connector-curvature="0"
         sodipodi:nodetypes="ccccccccccccc" />
      <path
         sodipodi:nodetypes="cccccsscsssssssssccccccccccscc"
         inkscape:connector-curvature="0"
         id="path4253"
         d="m 693.76607,621.90544 c 23.42121,-32.96258 75.74909,-63.07619 85.98393,-73.31523 43.50786,-29.00419 94.01271,-22.11251 124.68154,-9.18378 1.61235,0.39754 6.56235,2.57027 11,4.82828 43.51649,25.05559 68.36704,54.06773 77.65171,63.58521 2.29224,1.43153 4.42391,0.48795 9.15045,-4.0504 C 1007.975,598.25676 1017.3782,591 1018.7803,591 c 0.5025,0 1.995,-0.94287 3.3167,-2.09526 3.186,-2.77801 14.7525,-9.52259 17.903,-10.43953 1.375,-0.40018 3.6945,-1.56856 5.1544,-2.59641 1.4599,-1.02784 3.3724,-1.8688 4.25,-1.8688 0.8776,0 1.5956,-0.34312 1.5956,-0.76249 0,-0.41937 3.0375,-1.58494 6.75,-2.59017 3.7125,-1.00522 7.65,-2.20429 8.75,-2.66459 14.0788,-5.89138 48.8472,-6.73999 63.3757,-1.54683 2.4067,0.86024 5.0159,1.56408 5.7983,1.56408 0.7825,0 3.2621,0.88873 5.5103,1.97496 2.2482,1.08623 4.4953,1.72308 4.9934,1.41522 2.2062,-81.46804 -20.4608,-194.16938 -86.1992,-245.89696 C 1034.2747,304.24547 1007.2548,288.36382 980.34197,276 943.75414,254.03942 833.47407,237.95485 757.5,259.92431 c -36.68114,14.75473 -59.74514,24.00941 -83.23925,39.55291 -52.07881,34.70385 -81.3197,68.19019 -98.73107,133.31676 -9.75635,29.76531 -18.48701,64.08084 -23.02853,89.11488 -3.65552,39.47176 -6.0062,53.40962 -3.38527,61.63559 1.29408,1.29409 0,0 6.92734,-0.082 54.15864,-4.66613 91.57378,-0.83193 127.90579,35.32578 3.39535,3.41649 6.37806,6.2118 6.62825,6.2118 0.25018,0 1.68515,-1.39255 3.18881,-3.09456 z"
         style="fill:#f87e32;fill-opacity:1" />
      <circle
         style="fill:#000000;fill-opacity:1;stroke:none;stroke-width:0.5;stroke-miterlimit:4;stroke-dasharray:none;stroke-opacity:1"
         id="circle4317"
         cx="690"
         cy="500"
         r="33" />
      <circle
         r="33"
         cy="500"
         cx="1015"
         id="path4315"
         style="fill:#000000;fill-opacity:1;stroke:none;stroke-width:0.5;stroke-miterlimit:4;stroke-dasharray:none;stroke-opacity:1" />
      <path
         sodipodi:nodetypes="ccssscccc"
         inkscape:connector-curvature="0"
         id="path4216"
         d="m 681.5,281.96167 c 8.30264,-5.31226 18.77484,-9.21971 27.0109,-13.0718 4.51909,-2.12422 5.24006,-3.45856 3.59501,-6.65344 C 711.61416,261.28139 709.76774,256 708.00276,250.5 c -8.44179,-26.30614 -21.33017,-47.22948 -32.38142,-52.56886 -4.97773,-2.40498 -11.73062,-0.66432 -15.65558,1.72902 -18.021,18.61135 -24.33117,38.34918 -29.0251,60.29441 -3.551,20.95103 -7.39842,40.57422 -7.11723,61.53555 19.7134,-12.80165 37.35872,-28.67274 57.67657,-39.52845 z"
         style="fill:#ffb4b0;fill-opacity:1" />
      <path
         inkscape:connector-curvature="0"
         id="path4239"
         d="m 1082.7984,318.94429 c -1.3818,-26.55373 -5.6348,-53.14852 -15.1631,-78.06976 -5.1248,-14.44287 -10.5627,-29.65335 -21.9461,-40.42636 -5.6057,-5.11283 -13.9685,-8.34351 -21.4057,-5.90411 -9.0149,5.34796 -13.7338,15.39033 -18.292,24.40235 -6.37536,14.19972 -11.74776,29.15721 -13.4758,44.69986 -1.3804,7.17866 7.753,7.52149 11.947,10.65663 10.0513,5.05237 20.3792,9.66402 29.713,15.98255 15.0627,9.15377 29.0563,20.08536 41.8998,32.13892 2.0103,3.1742 7.0343,6.46166 6.4495,0.15978 0.1392,-1.20906 0.2237,-2.42399 0.2734,-3.63986 z"
         style="fill:#ffb4b0;fill-opacity:1" />
      <path
         sodipodi:nodetypes="cssccsccsssccccscc"
         inkscape:connector-curvature="0"
         id="path4241"
         d="m 616.84915,330.14401 c 2.26839,-2.34957 2.33366,-2.8665 1.89869,-15.03861 -0.24775,-6.93297 -0.13888,-17.3304 0.24194,-23.1054 0.86092,-13.05563 4.06523,-38.32723 4.945,-39 6.17312,-22.42783 18.09637,-51.70506 38.3352,-63.64503 13.3477,-4.57169 23.98176,2.09406 33.38521,17.14503 4.26691,6.82954 9.63128,18.57125 12.33532,27 3.77555,11.35147 7.52012,21.10539 10.33731,31.5 0.1803,0 4.19552,-1.51839 8.9227,-3.37421 4.72719,-1.85581 10.1935,-3.67411 12.14736,-4.04066 1.95387,-0.36654 5.17019,-1.34236 7.14738,-2.16849 3.31423,-1.38477 3.54672,-1.75245 2.97784,-4.70934 C 745.18703,211.67191 730.40408,169.70162 699.72186,145.52082 673.3591,128.59746 659.86746,143.44299 641.75,163.26803 618.49059,188.92242 604.89387,225.9377 598.52322,264 c -0.29865,1.925 -0.97303,5.525 -1.49862,8 -3.41106,16.0628 -9.09566,84.04528 -7.39774,88.47001 8.77637,-7.39065 19.54881,-20.68365 27.22229,-30.326 z"
         style="fill:#f87e32;fill-opacity:1" />
      <path
         sodipodi:nodetypes="scccccccccccs"
         inkscape:connector-curvature="0"
         id="path4243"
         d="m 1119.497,355.65415 c -0.3422,-8.88478 -1.044,-19.44921 -1.5596,-23.47651 -2.3733,-53.82768 -21.4241,-111.50119 -44.2501,-153.64755 -5.1495,-7.91176 -6.9412,-10.06606 -16.972,-20.40625 -36.9922,-28.51565 -70.73585,-17.78895 -88.46529,23.98542 -7.8622,20.05518 -17.67264,49.0678 -21.57569,69.0771 11.21719,3.96832 26.70654,10.26231 36.88596,13.81364 10.90371,-31.76443 21.23612,-91.20248 59.40272,-76 18.9562,8.4737 37.2573,63.59964 42.6817,95.47727 1.7264,14.55702 4.1433,38.19563 2.065,47.61601 -0.9065,1.45147 -0.3358,2.50511 3.3488,6.18326 8.7584,11.63432 14.1635,17.93476 22.1397,28.42333 6.4088,9.61866 7.0513,8.49192 6.2988,-11.04572 z"
         style="fill:#f87e32;fill-opacity:1" />
      <path
         sodipodi:nodetypes="ccccc"
         inkscape:connector-curvature="0"
         id="path4245"
         d="m 961.68368,436.38194 c 26.05863,-24.63036 79.79232,-24.43187 102.64302,-0.3881 -1.0047,-0.003 -3.1016,-0.67112 -4.6599,-1.48386 -17.1549,-9.63775 -34.0652,-10.31308 -47.721,-10.68907 -14.81227,-1.14223 -51.05929,14.80569 -50.26212,12.56103 z"
         style="fill:#000000" />
      <path
         sodipodi:nodetypes="csccccc"
         inkscape:connector-curvature="0"
         id="path4247"
         d="m 674.03467,421.64632 c 9.98431,-2.41361 28.31849,-2.94818 35.54109,-1.03628 13.29016,3.51807 28.34005,10.26518 32.82143,14.7144 -11.98221,-2.92915 -34.88044,-8.32495 -50.32143,-8.61028 -19.24743,0.2156 -36.22282,5.83393 -52,12.35424 l -4,1.64082 c 10.68192,-8.89201 27.16418,-16.30079 37.95891,-19.0629 z"
         style="fill:#000000" />
      <path
         inkscape:connector-curvature="0"
         id="path4269"
         d="m 837.5,904.531 c -18.75756,-4.1863 -36.47344,-13.12792 -50.2427,-26.65288 -34.98734,-33.60176 -42.12458,-71.26257 -54.36399,-113.50367 -3.93529,-15.49416 -10.08253,-31.28785 -24.29015,-39.57515 -14.96006,-10.27504 -23.66811,-31.58407 -14.59564,-48.32617 2.35962,-6.52498 16.64292,-23.15691 19.12164,-18.05296 -5.68968,12.27012 -10.68141,25.54641 -8.8922,39.41607 3.54051,20.199 25.57851,30.89276 44.51707,31.52294 35.64726,2.05686 61.20176,-10.7494 82.49753,-35.68928 5.06597,-9.81947 11.94396,-34.27816 20.83279,-18.00079 6.58062,12.83826 15.44676,24.40028 26.99952,32.90064 16.50652,10.92442 37.56884,18.56395 58.21631,16.71407 11.97543,-0.49292 23.55868,-5.11354 34.20355,-10.63288 9.98802,-5.58925 21.02789,-13.61455 23.14853,-25.67812 C 995.75843,676.46901 989.0511,665.22369 983,655 c 9.69744,0.27767 20.3374,16.03574 20.5,33.57151 1.0731,12.20442 -5.36585,23.56219 -15.56007,29.82718 -15.07043,9.61395 -21.24678,27.48542 -22.51075,44.47455 -2.59364,15.79268 -5.97962,31.40151 -10.64145,46.6918 -4.77262,12.27814 -8.52518,24.8497 -15.85614,36.04155 -12.01199,21.96657 -29.5276,41.80456 -52.09253,53.13749 -15.40805,6.63109 -32.70441,8.03128 -49.33906,5.78692 z"
         style="fill:#000000"
         sodipodi:nodetypes="cccccccccccccccccccccc" />
      <path
         inkscape:connector-curvature="0"
         id="path4261"
         d="m 903.57761,793.17988 c 10.94257,-11.57208 11.83817,-30.81156 12.37922,-44.46212 0.0324,-2.60645 0.028,-5.21321 0.0432,-7.81981 -16.35801,-6.58247 -37.23393,-16.11788 -53.76264,-23.78174 -2.59881,-0.5557 -8.43478,-5.79172 -7.92034,-0.45862 -0.35765,15.28301 0.59682,30.56122 0.80559,45.84177 0.45989,12.86352 0.21913,25.77688 1.48993,38.59608 15.89766,3.38137 39.13423,0.80258 46.96504,-7.91556 z"
         style="fill:#ffffff;fill-opacity:1"
         sodipodi:nodetypes="cccccccc" />
      <path
         inkscape:connector-curvature="0"
         id="path4263"
         d="m 845.36305,791.5 c -0.45232,-25.00622 -0.95425,-50.01533 -1.8266,-75.01018 -0.18755,-5.78688 -6.06634,-0.20598 -8.5655,0.75547 -8.51414,4.18904 -16.51541,9.33677 -24.99377,13.60336 -7.02268,3.86556 -14.04336,7.74192 -21.08933,11.55678 -4.16805,1.59534 -2.4551,6.39186 -2.4492,9.77599 1.22653,11.54638 2.19738,23.5551 7.73965,33.99495 12.4305,14.16482 36.52273,17.69583 51.3217,17.32363 -0.0457,-4 -0.0913,-8 -0.13695,-12 z"
         style="fill:#ffffff;fill-opacity:1"
         sodipodi:nodetypes="ccccccccc" />
      <path
         inkscape:connector-curvature="0"
         id="path4265"
         d="m 793,844.36269 c 15.63484,-8.3612 32.99338,-12.9484 50.64921,-14.1763 11.18145,-0.5799 22.5402,0.39967 33.546,2.43506 7.88429,1.95726 15.45524,4.32034 23.24856,6.64619 7.76629,2.68826 15.02585,5.77076 22.40001,9.45765 18.49612,-29.40142 34.1454,-77.28015 37.01629,-110.79785 -9.03938,0.95394 -14.97508,1.34841 -22.39852,1.46522 -11.32952,0.8512 -14.41936,37.98802 -15.99164,47.00898 -2.30828,7.69793 -6.96094,14.35028 -13.68057,19.12356 -10.08431,7.61137 -23.32581,5.65683 -34.99046,8.22449 -19.77159,1.35657 -39.79442,1.71424 -59.44436,-1.15884 -8.19866,-2.38381 -16.43534,-6.11725 -22.32774,-12.61762 -13.51599,-12.26342 -12.55556,-42.86455 -20.69932,-52.27679 -6.60774,-5.96559 -16.6786,-2.95003 -24.80434,-3.54199 -7.5524,0.55118 6.01144,49.26136 12.55986,62.24523 6.0841,14.9649 12.92616,33.22872 23.29527,43.99807 3.8009,-1.93977 7.67546,-4.20266 11.62175,-6.03506 z"
         style="fill:#a90e27;fill-opacity:1"
         sodipodi:nodetypes="ccccccccccccccccc" />
      <path
         style="fill:#fe5349;fill-opacity:1"
         d="m 869.85586,892.37397 c 12.97559,-4.37102 48.93379,-26.2529 43.80366,-39.86304 -5.52611,-5.78952 -13.92407,-6.66184 -20.80863,-10.07743 -25.88733,-8.2573 -54.26939,-8.10428 -80.26233,-0.39306 -8.01187,2.61496 -15.54997,6.70598 -22.10702,11.98232 -3.74305,4.69519 -0.20742,11.19666 4.0889,14.18251 8.95283,8.15142 17.99278,16.81162 29.5844,21.05047 14.42259,5.87385 30.58449,6.07628 45.70102,3.11823 z"
         id="path4267"
         inkscape:connector-curvature="0"
         sodipodi:nodetypes="cccccccc" />
      <path
         inkscape:connector-curvature="0"
         id="path4271"
         d="m 842.4577,956.11977 c -14.41606,-2.87303 -25.00169,-6.06455 -36.40806,-14.49987 -6.06487,-3.97304 -11.09123,-9.41484 -15.42204,-15.19104 -2.51921,-2.02182 -1.67279,-5.84979 1.57224,-2.88194 10.42208,6.88415 21.61554,12.90982 33.59956,16.57138 15.58582,4.10877 32.11045,7.72099 48.11638,3.70009 14.34102,-2.85681 28.43256,-7.99073 40.35546,-16.60178 10.58845,-2.13559 -7.88481,10.98636 -9.75954,12.92861 -17.35713,12.82989 -29.69864,14.08007 -48.10618,16.05412 -4.60945,0.16404 -9.4238,0.97522 -13.94782,-0.0796 z"
         style="fill:#000000"
         sodipodi:nodetypes="ccccccccccc" />
    </g>
    <g
       id="m6">
      <circle
         style="fill:#000000;fill-opacity:1;stroke:none;stroke-width:0.5;stroke-miterlimit:4;stroke-dasharray:none;stroke-opacity:1"
         id="pivot_m6"
         cx="645"
         cy="1425"
         r="0" />
      <path
         style="fill:#000000;fill-opacity:1"
         d="m 669.99414,1387.5977 c -27.7501,-0.5915 -72.80971,13.5596 -97.49023,36.4961 -31.64097,27.6773 -46.76468,70.3885 -50.11914,115.9902 -3.62008,108.5335 127.03213,169.3387 210.00229,167.0481 17.86748,-96.7928 -14.13635,-301.7642 -41.80894,-313.8079 -4.00734,-3.6941 -11.33394,-5.5294 -20.58398,-5.7265 z"
         id="path4293"
         inkscape:connector-curvature="0"
         sodipodi:nodetypes="sccccs" />
      <path
         style="fill:#f87e32;fill-opacity:1"
         d="m 610.25,1414.0762 c -17.46856,6.8745 -33.09712,18.0716 -43.86914,33.6074 -19.4833,26.6344 -33.34277,58.6203 -32.83008,92.0879 -0.40106,20.0043 2.78055,40.1664 13.49805,57.3144 33.58381,60.0739 117.29872,96.2673 175.66211,99.4961 12.0702,-92.2408 -8.63248,-268.0919 -44.87891,-293.5097 -23.66587,-1.7349 -49.35423,2.8335 -67.58203,11.0039 z"
         id="path4291"
         inkscape:connector-curvature="0"
         sodipodi:nodetypes="ccccccc" />
      <g
         transform="translate(-22,10)"
         id="m7">
        <circle
           r="0"
           cy="1650"
           cx="660"
           id="pivot_m7"
           style="fill:#000000;fill-opacity:1;stroke:none;stroke-width:0.5;stroke-miterlimit:4;stroke-dasharray:none;stroke-opacity:1" />
        <path
           style="fill:#000000;fill-opacity:1"
           d="m 755.61914,1690.7539 c -35.77754,-50.6348 -141.28657,-82.1168 -183.53711,-80.1133 -28.65628,2.7585 -41.2614,22.542 -53.36328,44.6914 -9.71668,23.2971 17.32233,55.163 34.74669,70.4687 17.2951,12.0084 34.63221,20.7782 53.88612,25.1524 2.54084,0.2865 5.0958,0.4065 7.65039,0.4805 24.85268,1.6466 48.89239,-5.0994 73.26563,-8.4395 18.10076,-3.9091 37.15931,-6.2682 54.10156,-13.6328 5.99962,-9.2546 10.2983,-22.6173 13.25,-38.6074 z"
           id="path5782"
           inkscape:connector-curvature="0"
           sodipodi:nodetypes="ccccccccc" />
        <path
           style="fill:#f87e32;fill-opacity:1"
           d="m 744.71094,1688.582 c -34.0443,-34.6835 -114.68058,-69.0389 -160.07227,-62.5566 -11.84168,0.1927 -23.98261,6.1208 -34.74023,11.3789 -7.05328,1.4803 -20.55308,24.9199 -6.30469,15.4336 9.90139,-7.2904 23.90583,-15.969 36.14258,-9.0879 3.61294,11.441 -17.58919,12.3891 -25.04102,17.9883 -13.1278,5.34 -26.58304,17.1982 -17.68554,32.1719 6.72315,15.1371 23.71159,3.2936 30.94726,-5.3418 11.52927,-11.0343 30.77612,-14.6636 43.9375,-4.5684 -1.76277,11.7063 -23.08655,8.9489 -32.36523,14.9375 -14.62021,0.8385 -18.00275,16.7814 -4.94336,22.291 25.30305,17.5918 57.67574,19.6133 87.44336,17.3574 20.67688,-1.3005 55.77206,-11.97 75.69922,-16.8906 3.00303,-8.9715 5.30018,-20.2576 6.98242,-33.1133 z"
           id="path5779"
           inkscape:connector-curvature="0"
           sodipodi:nodetypes="cccccccccccccc" />
      </g>
    </g>
    <g
       id="m8">
      <circle
         style="fill:#000000;fill-opacity:1;stroke:none;stroke-width:0.5;stroke-miterlimit:4;stroke-dasharray:none;stroke-opacity:1"
         id="pivot_m8"
         cx="1045"
         cy="1405"
         r="0" />
      <path
         style="fill:#000000;fill-opacity:1"
         d="m 1027.5215,1375.4238 c -11.8189,-0.2612 -23.6528,1.098 -35.20119,4.4903 -81.60603,30.1136 -18.7071,214.3645 9.19719,312.4425 48.2748,-1.7644 126.9753,-50.3423 154.5043,-103.9464 12.1355,-21.2378 14.9067,-44.2995 15.9687,-70.2559 -0.5996,-30.1627 -5.3083,-60.0189 -23.6679,-83.7188 -15.0273,-22.1613 -36.2675,-35.7398 -62.2409,-47.0794 -18.2208,-7.5439 -38.8617,-11.4968 -58.5599,-11.9323 z"
         id="path4289"
         inkscape:connector-curvature="0"
         sodipodi:nodetypes="cccccccsc" />
      <path
         style="fill:#f87e32;fill-opacity:1"
         d="m 1042.2207,1388.4766 c -126.42644,-7.269 -63.79982,196.7624 -31.5898,290.9726 46.6078,-12.9995 85.055,-37.2195 113.6718,-71.4492 9.6781,-13.99 19.5022,-28.4161 24.9903,-44.625 9.4572,-23.568 10.9245,-49.6516 8.3105,-74.7539 -4.4519,-31.7251 -26.0326,-58.6452 -51.8769,-76.377 -19.3622,-11.92 -40.7727,-20.8572 -63.5059,-23.7675 z"
         id="path4287"
         inkscape:connector-curvature="0"
         sodipodi:nodetypes="ccccccc" />
      <g
         id="m9">
        <circle
           r="0"
           cy="1630"
           cx="1090"
           id="pivot_m9"
           style="fill:#000000;fill-opacity:1;stroke:none;stroke-width:0.5;stroke-miterlimit:4;stroke-dasharray:none;stroke-opacity:1" />
        <path
           style="fill:#000000;fill-opacity:1"
           d="m 1156.0918,1589.4648 c -67.3042,4.0387 -124.7073,31.3392 -159.15409,87.2655 4.65879,16.3749 10.24719,36.9246 12.29859,47.9826 7.0116,20.777 13.8283,13.9297 24.5664,15.4902 4.4532,0.1873 8.9103,0.2844 13.3672,0.3574 27.6118,-0.4005 55.5799,1.6632 82.9414,-2.5429 18.5842,-2.4474 35.8049,-11.4307 48.1563,-25.5606 8.9301,-12.0403 18.6323,-23.709 23.6699,-38.1543 7.3133,-12.1297 8.9917,-26.9988 5.4277,-40.6132 -2.1074,-15.1908 -4.7297,-35.3831 -22.6308,-39.6622 -7.2156,-5.9965 -10.2826,-4.7488 -28.6426,-4.5625 z"
           id="path5063"
           inkscape:connector-curvature="0"
           sodipodi:nodetypes="ccccccccccc" />
        <path
           style="fill:#f87e32;fill-opacity:1"
           d="m 1010.6309,1679.4492 c 4.8021,14.0457 8.973,25.8629 11.6933,33.9512 31.4659,11.3789 66.0317,10.762 96.9785,9.3496 15.5626,-0.4397 32.2395,-2.1901 45.4707,-10.9961 9.7052,-8.1048 23.5904,-22.5056 14.9844,-35.5391 -14.5914,-7.7888 -32.032,-7.8473 -48.1562,-9.957 -18.8441,-0.7352 6.8953,-7.6381 13.248,-5.9062 15.4881,-0.9328 29.9351,5.2683 44.2461,9.5058 12.8618,-4.8725 12.572,-26.768 5.6699,-33.8222 -8.6479,-6.3671 -20.2875,-9.205 -30.6933,-12.3106 -6.5363,-0.4125 -27.7399,-4.9922 -9.9336,-7.3848 14.5308,1.5104 29.1522,4.6349 42.2051,11.3125 12.0632,10.209 3.0147,-10.3003 0.2187,-15.0996 -11.132,-6.8207 -23.0962,-14.2517 -36.3828,-12.2246 -62.1888,-1.5889 -119.047,43.8758 -149.5488,79.1211 z"
           id="path5060"
           inkscape:connector-curvature="0"
           sodipodi:nodetypes="ccccccccccccccc" />
      </g>
    </g>
    <g
       id="m1">
      <circle
         style="fill:#000000;fill-opacity:1;stroke:none;stroke-width:0.5;stroke-miterlimit:4;stroke-dasharray:none;stroke-opacity:1"
         id="pivot_m1"
         cx="670"
         cy="1020"
         r="0" />
      <path
         style="opacity:1;fill:#000000;fill-opacity:1"
         d="m 669.84455,990.45991 c -2.74799,0.26531 -5.47211,1.65922 -8.10564,4.58855 -16.83945,19.67344 -29.243,43.01574 -39.99289,66.47014 -11.08786,35.1745 -8.595,70.1932 -13.92872,106.2318 -5.31622,24.9864 -10.26034,49.266 -16.79262,73.4558 24.52315,36.6354 54.94213,39.033 94.79487,27.5229 2.65091,-6.9682 7.2407,-19.0583 9.52839,-26.0041 16.49922,-49.658 29.15374,-103.6688 25.57965,-156.3999 -2.40747,-26.3885 -1.77433,-41.1957 -19.42971,-68.834 -7.38905,-8.137 -19.74538,-28.18082 -31.65333,-27.03119 z"
         id="path4285"
         inkscape:connector-curvature="0"
         sodipodi:nodetypes="sccccccccs" />
      <path
         style="opacity:1;fill:#f87e32;fill-opacity:1"
         d="m 668.08258,1001.9839 c -3.30134,1.0702 -6.6963,4.3507 -10.61189,10.6094 -16.0296,27.4931 -29.84678,57.0603 -34.56237,88.6075 -3.03476,28.943 -1.84475,56.427 -10.03406,83.7789 -3.99293,17.1399 -8.33061,37.0268 -12.81296,54.0503 20.71054,28.2727 47.40368,31.9276 82.62838,20.8876 16.05999,-43.5574 28.47831,-92.1022 30.43839,-138.5752 0.059,-39.2358 0.44065,-82.4475 -27.34685,-109.8202 -6.95465,-6.9621 -12.19642,-11.3219 -17.69864,-9.5383 z"
         id="path4283"
         inkscape:connector-curvature="0"
         sodipodi:nodetypes="ccccccccc" />
      <g
         id="m2">
        <circle
           style="fill:#000000;fill-opacity:1;stroke:none;stroke-width:0.5;stroke-miterlimit:4;stroke-dasharray:none;stroke-opacity:1"
           id="pivot_m2"
           cx="640"
           cy="1240"
           r="0" />
        <path
           style="opacity:1;fill:#000000;fill-opacity:1"
           d="m 692.29651,1233.4847 c -15.49432,-27.1591 -77.98448,-23.7731 -99.9419,1.0331 -0.0598,30.6209 -2.36542,71.4821 -10.84231,105.2026 -10.73307,43.5478 -41.44919,78.2652 -55.37269,120.5904 -3.05405,10.8714 -13.12815,45.1353 8.76518,35.3649 23.19193,-20.3428 -0.757,25.8927 15.47443,32.3164 9.06799,10.9717 20.2822,-13.5765 20.52032,-3.8174 2.15237,17.696 30.39001,16.6103 37.77445,-0.5292 23.70951,-61.7642 52.37179,-121.4451 67.16709,-186.2158 6.46529,-31.1436 14.48097,-71.6479 16.45543,-103.945 z"
           id="path5020"
           inkscape:connector-curvature="0"
           sodipodi:nodetypes="cccccccccc" />
        <path
           style="opacity:1;fill:#f87e32;fill-opacity:1"
           d="m 686.2635,1235.3518 c -9.53932,-17.7769 -71.45876,-20.4242 -85.68204,1.0416 0.0426,9.8294 -0.29542,20.3554 -0.7835,30.1923 -1.06816,37.8221 -8.29784,87.1264 -26.24411,116.5628 -9.70785,15.1482 -18.6981,30.7844 -27.09398,46.9617 -8.98174,17.421 -15.02308,37.8189 -18.40158,57.6769 7.73819,12.7589 10.65599,-19.4746 16.93129,-21.3575 22.21067,9.0166 0.83941,38.1033 6.07218,55.6086 5.43562,12.7667 25.64672,-25.3571 27.80422,0.8226 9.06142,25.1317 23.54396,-10.5742 27.37494,-21.4909 14.0103,-27.8776 25.38249,-57.0102 36.78001,-85.9179 15.2344,-43.0826 29.55621,-87.5671 36.0594,-133.2577 2.45399,-16.668 5.86191,-32.245 7.18317,-46.8425 z"
           id="path5017"
           inkscape:connector-curvature="0"
           sodipodi:nodetypes="ccccccccccccc" />
      </g>
    </g>
    <g
       id="m3">
      <circle
         style="fill:#000000;fill-opacity:1;stroke:none;stroke-width:0.5;stroke-miterlimit:4;stroke-dasharray:none;stroke-opacity:1"
         id="pivot_m3"
         cx="1015"
         cy="1020"
         r="0" />
      <path
         style="fill:#000000;fill-opacity:1"
         d="m 1017.3712,985.40333 c -1.243,-0.28295 -2.5451,-0.46877 -3.9129,-0.55113 -53.56613,10.05259 -57.81467,91.0877 -55.23785,133.0267 1.18172,16.8826 -0.44519,20.0751 4.57429,45.4914 7.28724,28.3189 18.81931,58.646 25.93991,82.6777 42.00735,9.7763 70.87335,-4.3752 91.17005,-23.3078 -5.0355,-21.741 -10.0298,-47.6582 -13.4257,-69.5255 -2.1435,-42.1846 -1.1814,-83.8751 -16.0353,-123.1119 -9.2399,-14.7278 -14.4269,-40.45484 -33.0725,-44.69947 z"
         id="path4281"
         inkscape:connector-curvature="0"
         sodipodi:nodetypes="scccccccs" />
      <path
         style="fill:#f87e32;fill-opacity:1"
         d="m 1022.3327,998.33042 c -17.9369,-1.91308 -32.38565,13.20828 -41.46805,27.59148 -16.92353,34.9179 -20.26786,87.0147 -12.86257,121.1321 7.29043,33.1029 17.47377,62.3371 26.59587,90.4914 24.87195,7.3849 60.83485,2.3865 76.69175,-21.5315 -1.0805,-4.7724 -2.2777,-9.575 -3.3283,-14.315 -14.2944,-46.313 -7.1115,-96.2112 -16.9513,-138.8043 -5.2127,-23.3163 -12.3776,-45.8329 -28.6774,-64.56418 z"
         id="path4279"
         inkscape:connector-curvature="0"
         sodipodi:nodetypes="cccccccc" />
      <g
         id="m4">
        <circle
           style="fill:#000000;fill-opacity:1;stroke:none;stroke-width:0.5;stroke-miterlimit:4;stroke-dasharray:none;stroke-opacity:1"
           id="pivot_m4"
           cx="1035"
           cy="1225"
           r="0" />
        <path
           style="fill:#000000;fill-opacity:1"
           d="m 1077.9005,1213.161 c -38.2293,-21.1117 -69.4234,-18.7616 -94.7497,8.624 2.98769,33.0708 13.24274,75.2096 21.7867,107.1029 18.1229,54.2676 41.914,106.5229 64.6694,158.9252 7.3278,13.2157 12.8153,32.6416 31.4612,31.5582 16.8994,7.0661 6.3323,-19.3928 16.4432,-14.1807 21.012,16.3029 23.9946,-14.2262 18.7285,-28.6941 -5.4509,-23.9337 14.7886,9.4731 21.8319,-1.569 5.2314,-10.7276 -0.8492,-23.9545 -3.5725,-34.7782 -14.4532,-35.6428 -33.5323,-67.2642 -54.1583,-99.6563 -8.0241,-22.0508 -14.3553,-44.5134 -18.1461,-67.8386 -1.4347,-16.284 -3.4281,-43.1875 -4.2943,-59.4934 z"
           id="path5032"
           inkscape:connector-curvature="0"
           sodipodi:nodetypes="cccccccccccc" />
        <path
           style="fill:#f87e32;fill-opacity:1"
           d="m 1071.2526,1219.7549 c -30.1983,-19.9664 -60.7882,-17.1494 -79.60172,5.9292 1.3072,9.3583 2.56939,18.778 3.64765,28.4785 16.44927,91.0624 54.41407,166.0818 82.93047,227.3274 2.7219,13.2228 24.1915,39.5165 26.4009,11.8831 5.3665,-10.1574 33.8469,21.0328 27.8067,-2.4127 0.4496,-13.8797 -13.6206,-33.9374 4.8973,-41.1628 0.8878,13.4462 21.9627,32.4692 15.2888,10.4573 l -0.8608,-3.3853 c -5.1501,-19.0529 -13.0079,-38.1367 -23.3407,-54.5544 -7.7576,-13.8356 -18.1763,-27.0688 -26.535,-40.7643 -24.0189,-43.2005 -28.292,-93.1777 -30.6336,-141.7963 z"
           id="path5029"
           inkscape:connector-curvature="0"
           sodipodi:nodetypes="cccccccccccc" />
      </g>
    </g>
  </g>
</svg>
